<svg xmlns="http://www.w3.org/2000/svg" width="255" height="450" viewBox="0 0 255 450" fill="none">
  <path d="M254.329 216.602C254.253 215.915 253.339 215.534 252.73 215.686C251.968 215.915 251.74 216.602 251.816 217.289C253.034 224.54 251.055 231.943 247.4 238.278C245.572 241.56 243.288 244.537 240.699 247.284C239.404 248.658 238.034 249.956 236.587 251.177C235.14 252.398 233.618 253.543 232.171 254.688C230.724 255.909 229.353 257.206 228.364 258.885C227.221 260.717 226.765 262.778 226.688 264.839C226.536 267.052 226.841 269.266 226.993 271.479C227.145 273.845 227.374 276.211 227.526 278.577C228.287 287.965 229.201 297.353 230.191 306.664C231.181 316.052 232.323 325.44 233.541 334.828C233.694 335.972 233.846 337.117 233.998 338.262C234.074 338.949 234.531 339.56 235.293 339.56C235.902 339.56 236.663 338.949 236.587 338.262C235.369 328.874 234.227 319.486 233.161 310.099C232.095 300.635 231.181 291.17 230.42 281.706C230.039 277.051 229.582 272.395 229.353 267.739C229.201 265.678 229.201 263.541 229.963 261.48C230.572 259.801 231.79 258.428 233.085 257.206C234.455 255.909 235.978 254.84 237.425 253.695C238.871 252.474 240.318 251.177 241.689 249.879C244.354 247.132 246.79 244.155 248.846 240.873C252.806 234.462 255.242 226.906 254.709 219.35C254.709 218.358 254.481 217.442 254.329 216.45V216.602Z" fill="white"/>
  <path d="M75.9236 318.647C77.8272 319.105 79.7308 319.868 81.1775 321.242C83.005 322.921 83.9948 325.134 84.4517 327.5C84.9847 330.095 85.137 332.843 85.2893 335.514C85.5177 338.491 85.7461 341.391 85.8984 344.368C86.2791 350.245 86.6599 356.122 86.9644 361.922C87.5736 373.6 87.9543 385.278 87.6497 396.955C87.4213 408.556 86.5076 420.157 84.6801 431.606C84.604 432.293 84.3755 432.98 84.2994 433.667L86.8121 434.354C88.7158 423.058 89.7818 411.609 90.1625 400.161C90.5432 388.178 90.2386 376.119 89.7056 364.136C89.401 358.106 89.0203 352.153 88.6396 346.123C88.4112 343.147 88.1827 340.17 88.0304 337.194C87.802 334.293 87.6497 331.469 87.269 328.569C86.8883 325.898 86.1268 323.226 84.4517 321.089C83.0811 319.258 81.2536 317.884 79.1216 316.968C74.8576 315.212 69.9843 315.289 65.4919 315.823C64.3497 315.976 63.1314 316.128 61.9892 316.281C61.3039 316.357 60.9232 317.273 61.0755 317.884C61.3039 318.647 61.9892 318.876 62.6745 318.8C66.9386 318.113 71.5834 317.578 75.8474 318.571L75.9236 318.647Z" fill="white"/>
  <path d="M94.8073 311.854C94.8073 315.441 94.8073 318.723 94.8073 322.005C94.9595 327.272 95.0357 332.461 95.4925 337.728C96.1778 345.742 97.0916 353.756 97.9292 361.77C98.386 366.273 98.7667 370.7 99.2236 375.203C99.985 383.14 100.975 391.002 101.508 398.939C101.736 402.832 101.356 406.801 100.899 410.617C100.061 418.02 99.5282 425.576 98.0814 432.827C97.2439 436.949 96.3301 441.146 95.4164 445.268L109.122 446.489C110.264 441.604 111.483 436.72 112.549 431.835C113.082 429.469 113.158 426.95 113.234 424.508C113.539 416.799 114.148 409.09 113.767 401.382C113.31 392.986 112.016 384.591 110.797 376.271C109.122 365.357 107.143 354.443 105.239 343.605C104.782 340.857 103.945 338.186 103.031 334.599C109.884 337.499 115.823 340.094 121.914 342.536C133.412 347.116 144.834 351.619 157.474 352C163.794 352.229 169.733 350.779 175.748 349.253C186.028 346.734 196.383 344.292 206.739 342.002C208.947 341.544 211.46 342.002 214.049 342.002C214.429 349.024 214.049 355.817 212.373 362.457C209.708 372.76 207.119 383.064 204.302 393.292C201.942 401.763 199.505 410.235 196.84 418.631C194.936 424.584 192.271 430.385 190.749 436.414C190.139 438.704 189.683 441.07 189.226 443.36L212.297 436.872C212.526 434.964 212.754 432.98 212.983 431.072C214.353 421.455 215.876 411.838 217.856 402.298C220.673 388.33 222.196 374.287 222.729 360.167C223.186 346.963 223.567 333.606 221.739 320.402C220.673 312.541 220.14 304.527 219.836 296.589C219.379 286.209 219.379 275.829 219.226 265.373C219.226 259.878 219.226 254.306 219.226 248.734C224.861 251.329 227.831 250.49 231.562 245.605C232.171 244.766 232.932 244.079 233.694 243.392C244.582 233.393 248.161 216.221 240.623 201.795C236.054 193.018 232.399 183.707 228.44 174.548C224.023 164.32 219.759 154.017 215.419 143.713C211.536 134.402 204.835 127.838 195.926 123.411C194.251 122.571 192.348 122.19 190.292 121.579C189.759 124.403 189.226 126.693 188.845 128.983C186.484 142.645 185.266 156.535 181.002 169.816C180.774 170.503 181.459 171.876 182.068 172.487C189.15 179.051 196.307 185.538 203.465 192.026C204.683 193.171 205.597 194.621 207.043 196.376C202.17 195.995 198.287 196.758 194.936 199.353C193.261 200.651 191.738 200.727 190.216 198.819C189.15 197.369 187.703 196.071 186.408 194.85C182.982 191.568 179.479 188.286 176.053 185.004C167.905 198.971 159.073 211.794 147.956 223.013C147.575 223.471 147.042 223.853 146.433 224.006C141.483 225.456 136.61 226.83 131.737 228.28C137.6 219.35 143.692 210.573 149.25 201.337C154.809 192.179 159.682 182.638 165.012 173.021C159.986 169.434 155.57 166.381 151.306 163.252C139.884 155.009 127.549 148.445 114.3 143.56C109.198 141.729 104.325 141.958 99.3759 143.866C90.1625 147.453 82.9288 153.177 77.4464 161.573C72.954 168.442 69.6036 175.54 69.299 183.707C69.0706 189.355 69.2991 195.079 69.7559 200.651C71.2027 216.831 72.8017 233.012 74.6291 249.116C75.3144 255.069 76.6089 260.946 78.2079 266.747C80.2638 274.456 83.6141 276.822 91.5331 277.279C94.0458 277.432 95.3403 278.959 95.2641 281.859C95.1118 285.293 95.0357 288.652 94.8073 292.086C94.8073 292.773 94.5027 293.384 94.4265 293.765C89.401 293.46 84.604 293.155 79.8831 292.926C75.0098 292.697 70.2128 291.628 66.4056 288.728C59.8572 283.691 53.4611 278.348 47.3696 272.776C41.9634 267.892 38.3846 261.938 37.014 254.382C34.1206 238.889 30.4657 223.471 27.3438 207.978C25.9732 201.261 24.9833 194.392 24.0696 187.599C23.1559 180.959 26.1255 176.227 31.8363 173.098C39.7552 168.747 47.6742 164.473 55.6693 160.275C66.4056 154.627 76.6089 148.14 86.2791 140.736C91.7615 136.539 97.0154 131.807 104.021 130.356C106.153 129.898 108.513 129.364 110.493 129.975C125.493 134.554 139.199 141.805 152.22 150.353C157.626 153.94 162.88 157.757 168.134 161.344C173.692 147.606 174.987 133.104 175.977 118.603C176.129 116.618 175.291 115.931 173.54 115.473C172.017 115.092 170.037 114.328 169.504 113.184C168.362 110.741 167.677 107.994 167.449 105.322C167.144 102.346 167.601 99.5216 168.362 96.774C188.845 85.7071 200.267 68.6105 203.541 55.4829C207.5 39.6839 197.525 22.5874 182.525 18.4659C174.758 16.3288 166.916 15.7945 158.692 16.4815C154.504 11.5204 150.697 6.78836 145.976 4.346C137.219 -0.157099 126.483 -3.43902 106.305 9.68866C86.8883 22.2821 85.3654 27.3194 82.3197 40.6761C74.1723 45.2555 70.6696 48.8427 68.0807 51.8193C61.9892 58.6121 53.918 68.6105 52.6235 73.4189C46.0752 97.4609 55.0602 107.154 76.6089 112.726C87.6497 115.55 101.66 114.939 115.29 112.726C115.518 114.481 114.985 116.313 113.919 118.297C112.092 121.503 110.264 125.243 105.848 125.395C99.985 125.701 94.8073 127.761 89.6295 130.28C82.3197 133.867 75.0098 137.302 67.6239 140.66C55.9739 146.003 44.0954 150.964 32.6738 156.688C19.6532 163.176 11.8104 173.403 12.648 188.82C12.8003 192.026 10.5921 193.323 8.07937 194.239C4.88133 195.461 2.67316 197.75 1.75943 200.879C0.997991 203.551 0.617271 206.604 0.997991 209.351C2.59701 221.258 4.34832 233.164 6.55649 244.918C8.07937 253.161 10.1353 261.404 14.3232 268.808C16.2268 272.166 18.5111 274.837 22.5467 275.371C26.2778 275.829 30.0088 276.135 33.7399 276.669C34.8059 276.822 36.0242 277.356 36.6333 278.119C41.6588 283.996 46.6082 289.949 49.8062 297.2C51.8621 301.779 55.4409 305.214 60.3902 306.282C65.035 307.351 69.8321 307.58 74.553 308.267C81.3298 309.335 88.1066 310.48 94.8834 311.549L94.8073 311.854ZM185.495 212.939C190.216 210.191 194.784 207.214 199.277 204.161C201.333 202.788 202.855 203.169 204.378 204.696C204.911 205.23 205.444 205.688 205.825 206.298C208.185 209.809 211.079 211.412 215.267 209.428C215.571 209.275 216.028 209.428 216.561 209.504C216.561 211.031 216.333 212.557 216.561 213.931C216.714 214.77 217.475 215.839 218.236 216.221C220.368 217.365 220.216 219.121 218.998 220.495C217.323 222.479 218.465 223.7 219.455 225.303C219.988 226.219 220.749 227.669 220.445 228.28C219.683 229.654 218.389 231.256 217.094 231.562C214.81 232.02 213.059 232.172 213.516 235.149C213.592 235.759 213.135 236.599 212.678 237.057C209.251 240.034 205.368 242.018 200.8 242.476C199.353 242.629 195.393 238.125 194.936 236.446C194.327 234.157 193.794 231.638 192.652 229.577C190.216 225.379 187.551 221.334 184.657 217.518C182.982 215.305 183.363 214.389 185.495 213.091V212.939ZM163.108 125.93C159.149 129.975 154.428 132.264 148.641 132.493C138.285 132.875 128.691 130.433 119.782 125.243C119.326 125.014 118.945 124.632 118.716 124.479C120.468 120.816 122.143 117.229 124.047 113.336C134.935 119.442 146.281 120.358 157.321 113.184C159.453 116.542 161.585 119.747 163.413 123.106C163.794 123.793 163.641 125.395 163.032 125.93H163.108ZM90.1625 36.7836C93.8935 23.2743 99.0713 19.0001 114.757 11.7494C128.234 5.56718 133.26 6.78836 142.549 9.91763C145.748 10.9862 149.098 13.5812 152.753 17.2447C142.854 18.4659 134.021 21.0609 122.219 24.8771C107.904 29.4565 97.7007 33.4253 90.1625 36.9362C90.1625 36.9362 90.1625 36.8599 90.1625 36.7836ZM92.2945 105.628C31.3033 94.6369 66.4056 62.8863 78.817 52.3536C90.6193 42.3552 112.168 34.6465 130.899 29.0749C153.819 22.2057 179.251 25.1824 186.256 30.754C207.576 47.8505 196.079 68.7632 173.312 84.2569C175.444 79.0669 177.043 73.7242 176.433 67.9236C176.205 66.0919 175.52 64.1074 174.454 62.6573C172.398 59.8333 165.621 57.9252 163.717 48.7664C163.184 46.0951 162.042 44.0343 160.519 42.5842C154.123 36.5546 128.234 38.3864 109.731 51.6667C102.498 56.8567 97.3961 62.6573 97.3961 62.6573C97.3961 62.6573 98.1576 79.3722 97.853 80.4407C96.3301 86.3176 98.386 91.4313 101.66 96.0107C104.325 99.7506 107.371 103.338 110.797 106.391C104.325 106.849 98.0814 106.696 92.3707 105.704L92.2945 105.628ZM109.275 89.1416C105.848 84.0279 104.706 62.9626 104.706 62.9626C104.706 62.9626 109.884 56.704 115.975 53.5748C130.747 46.1714 155.57 39.7602 160.139 56.3224C160.367 57.0093 163.641 63.6495 164.25 64.1074C169.352 67.6947 169.124 72.8847 166.611 78.3037C164.707 82.2725 164.174 86.9282 161.966 90.7444C158.54 96.6213 154.504 102.193 150.24 107.459C148.946 109.062 146.204 109.825 143.996 110.131C137.143 111.123 131.052 108.375 124.884 106.009C116.813 102.956 113.539 95.4765 109.351 89.1416H109.275Z" fill="white"/>
  <path d="M170.19 375.661C170.037 376.729 169.504 377.721 169.124 378.79C166.383 386.957 163.794 395.2 160.9 403.29C157.778 411.914 154.58 420.539 150.925 429.011C148.032 435.804 144.148 442.215 141.179 449.008L155.113 450C157.169 443.284 159.682 436.567 160.672 429.698C163.032 413.975 167.982 399.016 171.636 383.675C172.474 380.24 173.312 376.729 174.225 373.218C171.484 372.837 170.418 373.6 170.114 375.661H170.19Z" fill="white"/>
</svg>