<svg width="102" height="76" viewBox="0 0 102 76" fill="none" xmlns="http://www.w3.org/2000/svg">
<g id="gears">
<path fill-rule="evenodd" clip-rule="evenodd" d="M24.6109 59.8951C24.9105 59.9882 25.1197 60.2623 25.1197 60.576V67.0763C25.1197 67.4016 25.3443 67.6849 25.6619 67.755C28.6799 68.4218 30.8266 68.532 35.0834 67.7401C35.4125 67.6789 35.6509 67.3902 35.6509 67.0555V60.576C35.6509 60.2623 35.86 59.9882 36.1596 59.8951C37.4003 59.5097 38.5901 59.0033 39.716 58.3892C39.9984 58.2352 40.3503 58.2825 40.5742 58.5134L45.0011 63.0759C45.2278 63.3095 45.5865 63.3565 45.8629 63.1847C48.3972 61.6098 49.9826 60.1522 52.5313 56.2671C52.7099 55.9948 52.6744 55.6346 52.4477 55.4009L48.0458 50.8642C47.8299 50.6417 47.7872 50.3043 47.9323 50.0304C48.56 48.8454 49.078 47.5899 49.4722 46.2783C49.563 45.976 49.8385 45.7644 50.1541 45.7644H56.3138C56.6386 45.7644 56.9213 45.5407 56.9931 45.224C58.1329 40.1985 57.9717 38.0602 57.0334 35.3695C56.937 35.093 56.6738 34.9106 56.381 34.9106H50.2473C49.9276 34.9106 49.6497 34.6935 49.5623 34.3859C49.1793 33.0367 48.6659 31.7448 48.0371 30.5258C47.8963 30.2528 47.9404 29.9193 48.1543 29.6989L52.4471 25.2746C52.6741 25.0407 52.7096 24.6802 52.5305 24.408C49.8107 20.274 48.2654 19.0034 45.8655 17.4966C45.5876 17.3221 45.2256 17.3677 44.9971 17.6032L40.7758 21.9538C40.5497 22.1868 40.1937 22.2326 39.9105 22.074C38.7273 21.4113 37.4719 20.8683 36.1596 20.4606C35.86 20.3676 35.6509 20.0934 35.6509 19.7797V14.2763C35.6509 13.7329 35.0295 13.3507 34.4984 13.4656C32.882 13.8152 30.1886 13.7102 25.9177 13.1506C25.4967 13.0954 25.1197 13.4218 25.1197 13.8463V19.7797C25.1197 20.0934 24.9105 20.3676 24.6109 20.4606C23.2986 20.8683 22.0432 21.4113 20.8601 22.074C20.5768 22.2326 20.2208 22.1868 19.9947 21.9538L15.741 17.5698C15.5277 17.3499 15.1951 17.2936 14.9242 17.4366C12.3611 18.789 10.7701 20.189 8.21118 24.4153C8.04748 24.6857 8.08849 25.0325 8.30859 25.2593L12.6163 29.6989C12.8301 29.9193 12.8743 30.2528 12.7335 30.5258C12.1046 31.7448 11.5912 33.0367 11.2082 34.3859C11.1209 34.6935 10.843 34.9106 10.5232 34.9106H4.70148C4.27827 34.9106 3.95249 35.2856 4.00432 35.7057C4.56425 40.2434 4.40898 42.2271 4.01945 44.961C3.95917 45.3841 4.28611 45.7644 4.71349 45.7644H10.6164C10.9321 45.7644 11.2075 45.976 11.2983 46.2783C11.6926 47.5899 12.2105 48.8454 12.8382 50.0304C12.9834 50.3043 12.9406 50.6417 12.7247 50.8642L8.28113 55.4439C8.07417 55.6572 8.02405 55.9786 8.15996 56.2429C10.2452 60.2977 11.9115 61.7418 14.928 63.2515C15.1977 63.3865 15.5241 63.3287 15.7342 63.1122L20.1963 58.5134C20.4203 58.2825 20.7721 58.2352 21.0545 58.3892C22.1805 59.0033 23.3703 59.5097 24.6109 59.8951ZM29.6109 52.6278C35.5982 52.6278 41.3811 47.4327 41.3811 41.262C41.3811 35.0913 38.9032 29.9101 31.1596 29.0048C25.2105 28.3093 19.3894 32.7978 19.3894 40.3375C19.3894 46.5082 23.6236 52.6278 29.6109 52.6278Z" fill="#653024"/>
<path fill-rule="evenodd" clip-rule="evenodd" d="M81.9515 73.0694C81.8998 73.4149 81.5995 73.6699 81.2502 73.6635C76.6596 73.5785 74.7679 73.0862 72.0171 72.2027C71.6914 72.0981 71.4899 71.7724 71.5405 71.4341L72.5073 64.9631C72.5502 64.676 72.4105 64.3935 72.1623 64.2429C70.9767 63.5237 69.9024 62.6444 68.9628 61.6382C68.76 61.4209 68.4455 61.3441 68.1697 61.4547L62.5785 63.6951C62.1658 63.8605 61.7056 63.6029 61.622 63.1661C60.8329 59.0433 59.9332 57.1496 58.3967 54.6106C58.1717 54.2387 58.3308 53.7519 58.7342 53.5902L64.3105 51.3558C64.58 51.2478 64.7533 50.9846 64.7573 50.6943C64.7671 49.9819 64.8247 49.2617 64.9329 48.5375C65.0414 47.8115 65.1972 47.105 65.3965 46.421C65.4768 46.1455 65.3912 45.8465 65.1701 45.6635L60.3254 41.6555C60.0535 41.4307 59.9923 41.0371 60.1828 40.7402C62.6661 36.8705 64.0181 35.2431 65.9931 33.2474C66.2466 32.9913 66.6537 32.9729 66.9313 33.2026L71.7922 37.224C72.0218 37.4139 72.3456 37.4362 72.6054 37.2904C73.7904 36.6253 75.0661 36.1219 76.4009 35.8039C76.6873 35.7357 76.9088 35.5044 76.9523 35.2132L77.9202 28.7356C77.9697 28.4039 78.2478 28.1528 78.5831 28.1452C81.1766 28.0868 83.3588 28.4222 87.8175 29.6503C88.1577 29.744 88.3749 30.0779 88.3228 30.4269L87.3403 37.0028C87.2982 37.2843 87.4316 37.5619 87.6717 37.7148C88.7955 38.4302 89.8146 39.2914 90.7082 40.269C90.9106 40.4904 91.228 40.5698 91.5065 40.4582L97.3244 38.1269C97.7252 37.9663 98.1744 38.2049 98.2726 38.6253C99.2312 42.7297 100.078 44.6821 101.508 47.2354C101.715 47.6066 101.553 48.0779 101.158 48.2361L95.2471 50.6046C94.9802 50.7116 94.8073 50.971 94.8004 51.2584C94.7845 51.917 94.7277 52.5819 94.6279 53.2503C94.5277 53.9205 94.3873 54.574 94.2095 55.2086C94.1328 55.4823 94.2191 55.7776 94.4381 55.9588L99.415 60.0762C99.7364 60.342 99.7538 60.8291 99.4575 61.1225C96.4844 64.067 95.3264 65.78 93.8411 68.3211C93.6225 68.6952 93.1203 68.7866 92.7864 68.5104L87.9152 64.4805C87.6834 64.2887 87.3559 64.2679 87.0953 64.4179C85.9624 65.0699 84.7445 65.5731 83.4698 65.9065C83.1906 65.9795 82.9767 66.208 82.934 66.4935L81.9515 73.0694ZM79.7891 58.1205C83.6424 58.732 85.9996 56.0247 86.6044 51.977C87.2092 47.9292 85.829 44.3511 80.7224 43.5406C75.6158 42.7301 74.3187 45.8667 73.7139 49.9144C72.8328 55.8113 75.9358 57.5089 79.7891 58.1205Z" fill="#653024"/>
<path fill-rule="evenodd" clip-rule="evenodd" d="M61.584 31.212C61.3544 31.6218 60.7941 31.6924 60.4599 31.3623C58.5851 29.5107 57.3186 28.7433 55.6488 28.3606C55.1688 28.2506 54.9011 27.7153 55.1418 27.2857L57.0366 23.9033C57.1772 23.6523 57.1481 23.3421 56.976 23.1116C56.4329 22.3843 55.9846 21.5944 55.6366 20.7633C55.5234 20.4928 55.2632 20.3092 54.9699 20.3092H51.2494C50.759 20.3092 50.4215 19.8165 50.5759 19.3509C51.4636 16.6742 51.3233 15.1641 50.7039 13.6251C50.5096 13.1425 50.8447 12.596 51.3649 12.596H54.9225C55.2181 12.596 55.4798 12.4095 55.5917 12.1359C55.7638 11.715 55.9632 11.3004 56.1905 10.8945C56.4205 10.484 56.6723 10.0945 56.9435 9.7267C57.1132 9.49652 57.141 9.18832 57.0012 8.93882L54.9239 5.23057C54.76 4.93791 54.8281 4.56842 55.0858 4.35366C58.0712 1.86557 59.3332 1.1824 60.6605 0.938522C60.9389 0.887382 61.213 1.03078 61.3513 1.27767L63.4947 5.10395C63.639 5.36156 63.9292 5.4986 64.2224 5.46378C65.079 5.36208 65.9504 5.3666 66.817 5.48273C67.1138 5.52251 67.4099 5.38565 67.5563 5.12437L69.6501 1.38672C69.8172 1.08839 70.1763 0.953963 70.4971 1.07228C72.4881 1.80651 73.8172 2.44904 76.0016 4.35459C76.2481 4.56962 76.3075 4.9291 76.1476 5.21448L73.9792 9.08523C73.8414 9.3313 73.8664 9.63488 74.0304 9.86435C74.5358 10.5716 74.9537 11.3346 75.2791 12.1348C75.3906 12.409 75.6526 12.596 75.9486 12.596H80.1897C80.5519 12.596 80.8549 12.8727 80.8844 13.2337C81.0553 15.3246 81.0755 16.8825 80.8776 19.6631C80.8516 20.0277 80.5472 20.3092 80.1816 20.3092L75.9024 20.3092C75.6096 20.3092 75.3497 20.4923 75.2361 20.7622C75.0743 21.1466 74.8895 21.5256 74.6813 21.8972C74.4705 22.2736 74.2413 22.6323 73.9956 22.9728C73.8299 23.2025 73.8041 23.5074 73.9426 23.7545L76.2108 27.8036C76.3397 28.0337 76.329 28.3179 76.1778 28.534C74.8274 30.4642 73.6203 31.4083 70.4191 31.9581C70.1321 32.0074 69.8454 31.8671 69.7031 31.613L67.4959 27.673C67.3502 27.4128 67.0559 27.2759 66.7602 27.3142C65.9409 27.4204 65.1073 27.4293 64.2764 27.3363C63.9846 27.3036 63.6967 27.4407 63.5532 27.6968L61.584 31.212ZM62.904 20.6888C65.5364 22.9394 68.067 21.8302 69.4127 19.4279C70.7584 17.0256 70.186 14.4817 67.3116 12.596C65.0839 11.1345 62.4686 12.2372 61.1228 14.6395C60.0499 16.5548 60.8716 18.9512 62.904 20.6888Z" fill="#653024"/>
<path fill-rule="evenodd" clip-rule="evenodd" d="M86.6614 21.0343C87.8499 18.3998 88.3947 15.1088 88.6474 12.4355C88.7877 10.9506 88.8398 9.63239 88.8568 8.68502C88.8654 8.21104 88.8651 7.82911 88.8628 7.56464C88.8616 7.43238 88.8598 7.32944 88.8584 7.25899C88.8577 7.22376 88.857 7.19665 88.8565 7.17806L88.8559 7.15659L88.8558 7.15074L88.8557 7.14906C88.8557 7.14888 88.8557 7.1482 88.156 7.17005C87.4586 7.19183 87.4563 7.19182 87.4563 7.19178L87.4563 7.19267L87.4565 7.19672L87.4569 7.21452C87.4574 7.23065 87.458 7.25524 87.4586 7.28788C87.46 7.35318 87.4616 7.45069 87.4628 7.57726C87.4651 7.83045 87.4653 8.19971 87.457 8.65982C87.4404 9.58063 87.3897 10.8622 87.2535 12.3038C86.9788 15.2109 86.3638 18.6748 85.0417 21.1602L84.6158 21.9607L85.4981 22.1701C88.9253 22.9834 91.1072 24.96 92.4404 26.7441C93.1081 27.6375 93.5603 28.4799 93.8445 29.0962C93.9864 29.4039 94.0859 29.6541 94.1489 29.8244C94.1805 29.9095 94.2029 29.9745 94.2169 30.0167C94.224 30.0378 94.2289 30.0531 94.2318 30.0624L94.2347 30.0717C94.2347 30.0715 94.2347 30.0717 94.9053 29.8707C95.5759 29.6698 95.5758 29.6695 95.5757 29.6692L95.5754 29.6683L95.5748 29.6662L95.5729 29.6601L95.5669 29.6408C95.5618 29.6247 95.5546 29.6025 95.5453 29.5743C95.5265 29.5181 95.499 29.4383 95.4618 29.3379C95.3874 29.1372 95.2743 28.8535 95.1158 28.5099C94.7993 27.8235 94.2994 26.8929 93.5619 25.906C92.196 24.0781 90.0059 22.0471 86.6614 21.0343ZM12.4198 71.4803C3.95426 66.9541 -1.06696 58.5566 0.784533 48.9466L2.1593 49.2115C0.444624 58.1113 5.05204 65.9535 13.08 70.2456C21.1126 74.5403 32.5581 75.2529 44.3259 69.7487L44.919 71.0169C32.7935 76.6884 20.8807 76.004 12.4198 71.4803Z" fill="#FFA400"/>
</g>
</svg>
