<svg width="44" height="44" viewBox="0 0 44 44" fill="none" xmlns="http://www.w3.org/2000/svg">
<rect width="44" height="44" rx="16" fill="#E21F41"/>
<path d="M17.56 10.2716L17.2 10.9754H12.4C11.515 10.9754 10.8 11.6792 10.8 12.5504C10.8 13.4216 11.515 14.1254 12.4 14.1254H31.6C32.485 14.1254 33.2 13.4216 33.2 12.5504C33.2 11.6792 32.485 10.9754 31.6 10.9754H26.8L26.44 10.2716C26.17 9.73508 25.615 9.40039 25.01 9.40039H18.99C18.385 9.40039 17.83 9.73508 17.56 10.2716ZM31.6 15.7004H12.4L13.46 32.3855C13.54 33.6308 14.59 34.6004 15.855 34.6004H28.145C29.41 34.6004 30.46 33.6308 30.54 32.3855L31.6 15.7004Z" fill="white"/>
</svg>
