<svg width="64" height="64" viewBox="0 0 64 64" fill="none" xmlns="http://www.w3.org/2000/svg">
<rect width="64" height="64" rx="32" fill="#D6A461"/>
<g clip-path="url(#clip0_1830_3572)">
<path d="M47.0207 26.4145C47.2208 26.9584 47.052 27.5648 46.6207 27.9523L43.9139 30.4153C43.9826 30.9342 44.0202 31.4655 44.0202 32.0031C44.0202 32.5407 43.9826 33.0721 43.9139 33.5909L46.6207 36.0539C47.052 36.4415 47.2208 37.0479 47.0207 37.5917C46.7457 38.3356 46.4144 39.0483 46.033 39.7359L45.7392 40.2422C45.3267 40.9299 44.8641 41.58 44.3577 42.1926C43.9889 42.6427 43.3763 42.7927 42.8262 42.6177L39.3442 41.5112C38.5066 42.1551 37.5814 42.6927 36.5937 43.099L35.8123 46.6685C35.6873 47.2374 35.2497 47.6874 34.6746 47.7812C33.8119 47.925 32.9242 48 32.0178 48C31.1114 48 30.2237 47.925 29.361 47.7812C28.7859 47.6874 28.3483 47.2374 28.2233 46.6685L27.4419 43.099C26.4542 42.6927 25.529 42.1551 24.6914 41.5112L21.2157 42.624C20.6656 42.799 20.053 42.6427 19.6841 42.1989C19.1778 41.5862 18.7152 40.9361 18.3026 40.2485L18.0088 39.7421C17.6275 39.0545 17.2962 38.3419 17.0211 37.598C16.8211 37.0541 16.9899 36.4477 17.4212 36.0602L20.128 33.5972C20.0592 33.0721 20.0217 32.5407 20.0217 32.0031C20.0217 31.4655 20.0592 30.9342 20.128 30.4153L17.4212 27.9523C16.9899 27.5648 16.8211 26.9584 17.0211 26.4145C17.2962 25.6706 17.6275 24.958 18.0088 24.2704L18.3026 23.764C18.7152 23.0764 19.1778 22.4263 19.6841 21.8136C20.053 21.3635 20.6656 21.2135 21.2157 21.3886L24.6976 22.495C25.5353 21.8511 26.4605 21.3135 27.4482 20.9072L28.2296 17.3378C28.3546 16.7689 28.7922 16.3188 29.3673 16.225C30.23 16.075 31.1176 16 32.0241 16C32.9305 16 33.8182 16.075 34.6808 16.2188C35.2559 16.3126 35.6935 16.7626 35.8186 17.3315L36.6 20.901C37.5876 21.3073 38.5128 21.8449 39.3505 22.4888L42.8324 21.3823C43.3825 21.2073 43.9951 21.3635 44.364 21.8074C44.8703 22.42 45.3329 23.0701 45.7455 23.7578L46.0393 24.2641C46.4206 24.9517 46.7519 25.6644 47.027 26.4083L47.0207 26.4145ZM32.0241 37.0041C34.7871 37.0041 37.025 34.7662 37.025 32.0031C37.025 29.2401 34.7871 27.0021 32.0241 27.0021C29.261 27.0021 27.0231 29.2401 27.0231 32.0031C27.0231 34.7662 29.261 37.0041 32.0241 37.0041Z" fill="white"/>
</g>
<defs>
<clipPath id="clip0_1830_3572">
<rect width="32" height="32" fill="white" transform="translate(16 16)"/>
</clipPath>
</defs>
</svg>
