<svg width="33" height="32" viewBox="0 0 33 32" fill="none" xmlns="http://www.w3.org/2000/svg">
<path d="M32.5 16C32.5 24.8375 25.3375 32 16.5 32C7.6625 32 0.5 24.8375 0.5 16C0.5 7.1625 7.6625 0 16.5 0C25.3375 0 32.5 7.1625 32.5 16ZM20.5 22C20.5 20.3188 19.4688 18.8813 18 18.2938L18 5.5C18 4.66875 17.3313 4 16.5 4C15.6688 4 15 4.66875 15 5.5L15 18.2938C13.5313 18.8875 12.5 20.325 12.5 22C12.5 24.2063 14.2938 26 16.5 26C18.7063 26 20.5 24.2063 20.5 22ZM9.5 11C10.6063 11 11.5 10.1063 11.5 9C11.5 7.89375 10.6063 7 9.5 7C8.39375 7 7.5 7.89375 7.5 9C7.5 10.1063 8.39375 11 9.5 11ZM8.5 16C8.5 14.8938 7.60625 14 6.5 14C5.39375 14 4.5 14.8938 4.5 16C4.5 17.1063 5.39375 18 6.5 18C7.60625 18 8.5 17.1063 8.5 16ZM26.5 18C27.6063 18 28.5 17.1063 28.5 16C28.5 14.8938 27.6063 14 26.5 14C25.3938 14 24.5 14.8938 24.5 16C24.5 17.1063 25.3938 18 26.5 18ZM25.5 9C25.5 7.89375 24.6063 7 23.5 7C22.3938 7 21.5 7.89375 21.5 9C21.5 10.1063 22.3938 11 23.5 11C24.6063 11 25.5 10.1063 25.5 9Z" fill="white"/>
</svg>
