<svg width="33" height="32" viewBox="0 0 33 32" fill="none" xmlns="http://www.w3.org/2000/svg">
<g clip-path="url(#clip0_2412_1539)">
<path d="M32.5 2C32.5 9.1 27.2125 14.9688 20.3625 15.875C19.9187 12.5375 18.45 9.525 16.2812 7.16875C18.675 2.89375 23.25 0 28.5 0H30.5C31.6063 0 32.5 0.89375 32.5 2ZM0.5 6C0.5 4.89375 1.39375 4 2.5 4H4.5C12.2312 4 18.5 10.2688 18.5 18V20V30C18.5 31.1063 17.6063 32 16.5 32C15.3937 32 14.5 31.1063 14.5 30V20C6.76875 20 0.5 13.7312 0.5 6Z" fill="white"/>
</g>
<defs>
<clipPath id="clip0_2412_1539">
<rect width="32" height="32" fill="white" transform="translate(0.5)"/>
</clipPath>
</defs>
</svg>
