<svg width="33" height="32" viewBox="0 0 33 32" fill="none" xmlns="http://www.w3.org/2000/svg">
<g clip-path="url(#clip0_2412_1146)">
<path d="M17.5 6.13801C12.5875 6.13801 8.43125 9.35675 7.01875 13.7943C9.11875 12.7318 11.4875 12.138 14 12.138L19.5 12.138C20.05 12.138 20.5 12.588 20.5 13.138C20.5 13.688 20.05 14.138 19.5 14.138H18.5L14 14.138C12.9625 14.138 11.9562 14.2568 10.9812 14.4755C9.3625 14.8443 7.8625 15.5005 6.51875 16.3943C2.89375 18.813 0.5 22.9443 0.5 27.638L0.5 28.638C0.5 29.4693 1.16875 30.138 2 30.138C2.83125 30.138 3.5 29.4693 3.5 28.638L3.5 27.638C3.5 24.5943 4.79375 21.8568 6.8625 19.938C8.1 24.6568 12.3938 28.138 17.5 28.138H17.5625C25.8188 28.0943 32.5 19.9568 32.5 9.92551C32.5 7.26301 32.0312 4.73176 31.1812 2.45051C31.0187 2.01926 30.3875 2.03801 30.1688 2.44426C28.9938 4.64426 26.6688 6.13801 24 6.13801L17.5 6.13801Z" fill="white"/>
</g>
<defs>
<clipPath id="clip0_2412_1146">
<rect width="32" height="32" fill="white" transform="translate(0.5)"/>
</clipPath>
</defs>
</svg>
