<svg width="33" height="32" viewBox="0 0 33 32" fill="none" xmlns="http://www.w3.org/2000/svg">
<path d="M16.7666 32C10.1416 32 4.7666 26.625 4.7666 20C4.7666 14.3 12.9041 3.60625 15.1791 0.73125C15.5541 0.2625 16.1104 0 16.7104 0L16.8229 0C17.4229 0 17.9791 0.2625 18.3541 0.73125C20.6291 3.60625 28.7666 14.3 28.7666 20C28.7666 26.625 23.3916 32 16.7666 32ZM10.7666 21C10.7666 20.45 10.3166 20 9.7666 20C9.2166 20 8.7666 20.45 8.7666 21C8.7666 24.8688 11.8979 28 15.7666 28C16.3166 28 16.7666 27.55 16.7666 27C16.7666 26.45 16.3166 26 15.7666 26C13.0041 26 10.7666 23.7625 10.7666 21Z" fill="white"/>
</svg>
