<svg width="32" height="29" viewBox="0 0 32 29" fill="none" xmlns="http://www.w3.org/2000/svg">
<path d="M17 4.13801C12.0875 4.13801 7.93125 7.35675 6.51875 11.7943C8.61875 10.7318 10.9875 10.138 13.5 10.138L19 10.138C19.55 10.138 20 10.588 20 11.138C20 11.688 19.55 12.138 19 12.138H18L13.5 12.138C12.4625 12.138 11.4563 12.2568 10.4812 12.4755C8.8625 12.8443 7.3625 13.5005 6.01875 14.3943C2.39375 16.813 0 20.9443 0 25.638L0 26.638C0 27.4693 0.66875 28.138 1.5 28.138C2.33125 28.138 3 27.4693 3 26.638L3 25.638C3 22.5943 4.29375 19.8568 6.3625 17.938C7.6 22.6568 11.8938 26.138 17 26.138H17.0625C25.3188 26.0943 32 17.9568 32 7.92551C32 5.26301 31.5312 2.73176 30.6812 0.450506C30.5187 0.0192557 29.8875 0.0380058 29.6688 0.444256C28.4938 2.64426 26.1688 4.13801 23.5 4.13801L17 4.13801Z" fill="#653024"/>
</svg>
