<svg width="25" height="32" viewBox="0 0 25 32" fill="none" xmlns="http://www.w3.org/2000/svg">
<path d="M12.2667 32C5.64166 32 0.266663 26.625 0.266663 20C0.266663 14.3 8.40416 3.60625 10.6792 0.73125C11.0542 0.2625 11.6104 0 12.2104 0L12.3229 0C12.9229 0 13.4792 0.2625 13.8542 0.73125C16.1292 3.60625 24.2667 14.3 24.2667 20C24.2667 26.625 18.8917 32 12.2667 32ZM6.26666 21C6.26666 20.45 5.81666 20 5.26666 20C4.71666 20 4.26666 20.45 4.26666 21C4.26666 24.8687 7.39791 28 11.2667 28C11.8167 28 12.2667 27.55 12.2667 27C12.2667 26.45 11.8167 26 11.2667 26C8.50416 26 6.26666 23.7625 6.26666 21Z" fill="#653024"/>
</svg>
