<svg width="44" height="44" viewBox="0 0 44 44" fill="none" xmlns="http://www.w3.org/2000/svg">
<rect width="44" height="44" rx="16" fill="#00491E"/>
<path d="M21.9471 8C22.9151 8 23.6971 8.78203 23.6971 9.75V11.7023C23.7846 11.7133 23.8667 11.7242 23.9542 11.7406C24.5338 11.8281 26.2565 12.107 26.9674 12.2875C27.9026 12.5227 28.4713 13.4742 28.2362 14.4148C28.001 15.3555 27.0495 15.9187 26.1088 15.6836C25.6003 15.5523 24.0526 15.3008 23.4346 15.2078C21.6792 14.9453 20.1753 15.0766 19.1417 15.4758C18.1409 15.8586 17.7253 16.4 17.6159 17.007C17.512 17.5922 17.5885 17.9258 17.687 18.1336C17.7909 18.3523 17.9932 18.5984 18.3924 18.8664C19.2784 19.457 20.6401 19.8453 22.401 20.3266L22.5542 20.3703C24.1073 20.7914 26.0104 21.3109 27.4213 22.2461C28.1924 22.7602 28.9143 23.4547 29.3628 24.4172C29.8167 25.3906 29.9151 26.4844 29.7073 27.6492C29.3299 29.7273 27.8971 31.1164 26.1198 31.8438C25.3706 32.15 24.5557 32.3469 23.6917 32.4453V34.25C23.6917 35.218 22.9096 36 21.9417 36C20.9737 36 20.1917 35.218 20.1917 34.25V32.3414C20.1698 32.3359 20.1424 32.3359 20.1206 32.3305H20.1096C18.7753 32.1227 16.5823 31.5484 15.1057 30.8922C14.2198 30.4984 13.826 29.4648 14.2198 28.5844C14.6135 27.7039 15.6471 27.3047 16.5276 27.6984C17.6706 28.207 19.5518 28.7047 20.6401 28.8797C22.3846 29.1367 23.8229 28.9891 24.7963 28.5898C25.7206 28.2125 26.1417 27.6656 26.262 27.0094C26.3659 26.4242 26.2893 26.0906 26.1909 25.8828C26.087 25.6641 25.8846 25.418 25.4854 25.15C24.5995 24.5594 23.2378 24.1711 21.4768 23.6898L21.3237 23.6461C19.7706 23.225 17.8674 22.7055 16.4565 21.7703C15.6854 21.2563 14.9635 20.5617 14.5151 19.5992C14.0612 18.6258 13.9628 17.532 14.1706 16.3672C14.5643 14.2398 16.0956 12.8836 17.9003 12.1945C18.6112 11.9211 19.3878 11.7461 20.1971 11.6477V9.75C20.1971 8.78203 20.9792 8 21.9471 8Z" fill="white"/>
</svg>
