<svg width="19" height="32" viewBox="0 0 19 32" fill="none" xmlns="http://www.w3.org/2000/svg">
<path d="M9.93955 0C11.0458 0 11.9395 0.89375 11.9395 2V4.23125C12.0395 4.24375 12.1333 4.25625 12.2333 4.275C12.8958 4.375 14.8645 4.69375 15.677 4.9C16.7458 5.16875 17.3958 6.25625 17.127 7.33125C16.8583 8.40625 15.7708 9.05 14.6958 8.78125C14.1145 8.63125 12.3458 8.34375 11.6395 8.2375C9.6333 7.9375 7.91455 8.0875 6.7333 8.54375C5.58955 8.98125 5.11455 9.6 4.98955 10.2937C4.8708 10.9625 4.9583 11.3438 5.0708 11.5813C5.18955 11.8313 5.4208 12.1125 5.87705 12.4187C6.88955 13.0938 8.4458 13.5375 10.4583 14.0875L10.6333 14.1375C12.4083 14.6187 14.5833 15.2125 16.1958 16.2813C17.077 16.8687 17.902 17.6625 18.4145 18.7625C18.9333 19.875 19.0458 21.125 18.8083 22.4562C18.377 24.8312 16.7395 26.4188 14.7083 27.25C13.852 27.6 12.9208 27.825 11.9333 27.9375V30C11.9333 31.1063 11.0395 32 9.9333 32C8.82705 32 7.9333 31.1063 7.9333 30V27.8188C7.9083 27.8125 7.87705 27.8125 7.85205 27.8062H7.83955C6.31455 27.5688 3.8083 26.9125 2.1208 26.1625C1.1083 25.7125 0.658297 24.5312 1.1083 23.525C1.5583 22.5187 2.73955 22.0625 3.7458 22.5125C5.05205 23.0938 7.20205 23.6625 8.4458 23.8625C10.4395 24.1562 12.0833 23.9875 13.1958 23.5313C14.252 23.1 14.7333 22.475 14.8708 21.725C14.9895 21.0562 14.902 20.675 14.7895 20.4375C14.6708 20.1875 14.4395 19.9063 13.9833 19.6C12.9708 18.925 11.4145 18.4812 9.40205 17.9312L9.22705 17.8813C7.45205 17.4 5.27705 16.8062 3.66455 15.7375C2.7833 15.15 1.9583 14.3563 1.4458 13.2563C0.927047 12.1438 0.814547 10.8938 1.05205 9.5625C1.50205 7.13125 3.25205 5.58125 5.31455 4.79375C6.12705 4.48125 7.01455 4.28125 7.93955 4.16875L7.93955 2C7.93955 0.89375 8.8333 0 9.93955 0Z" fill="#653024"/>
</svg>
