<svg width="20" height="20" viewBox="0 0 20 20" fill="none" xmlns="http://www.w3.org/2000/svg">
<g id="icon=continue">
<g id="Vector">
<path d="M1 2.11111L1 17.8889C1 18.5035 1.49653 19 2.11111 19C2.72569 19 3.22222 18.5035 3.22222 17.8889L3.22222 2.11111C3.22222 1.49653 2.7257 1 2.11111 1C1.49653 1 1 1.49653 1 2.11111Z" fill="#653024"/>
<path d="M10.9894 3.32552C11.4234 2.89149 12.1283 2.89149 12.5623 3.32552L18.8957 9.65885C19.3297 10.0929 19.3297 10.7977 18.8957 11.2318L12.5623 17.5651C12.1283 17.9991 11.4234 17.9991 10.9894 17.5651C10.5554 17.1311 10.5554 16.4262 10.9894 15.9922L15.4269 11.5547H6.11095C5.49636 11.5547 4.99984 11.0582 4.99984 10.4436C4.99984 9.82899 5.49636 9.33246 6.11095 9.33246L15.4269 9.33247L10.9894 4.89844C10.5554 4.46441 10.5554 3.75955 10.9894 3.32552Z" fill="#653024"/>
</g>
</g>
</svg>
