<svg width="33" height="32" viewBox="0 0 33 32" fill="none" xmlns="http://www.w3.org/2000/svg">
<path d="M16.4399 0C17.5461 0 18.4399 0.89375 18.4399 2V4.23125C18.5399 4.24375 18.6336 4.25625 18.7336 4.275C19.3961 4.375 21.3649 4.69375 22.1774 4.9C23.2461 5.16875 23.8961 6.25625 23.6274 7.33125C23.3586 8.40625 22.2711 9.05 21.1961 8.78125C20.6149 8.63125 18.8461 8.34375 18.1399 8.2375C16.1336 7.9375 14.4149 8.0875 13.2336 8.54375C12.0899 8.98125 11.6149 9.6 11.4899 10.2937C11.3711 10.9625 11.4586 11.3438 11.5711 11.5813C11.6899 11.8313 11.9211 12.1125 12.3774 12.4187C13.3899 13.0937 14.9461 13.5375 16.9586 14.0875L17.1336 14.1375C18.9086 14.6187 21.0836 15.2125 22.6961 16.2813C23.5774 16.8687 24.4024 17.6625 24.9149 18.7625C25.4336 19.875 25.5461 21.125 25.3086 22.4562C24.8774 24.8312 23.2399 26.4187 21.2086 27.25C20.3524 27.6 19.4211 27.825 18.4336 27.9375V30C18.4336 31.1063 17.5399 32 16.4336 32C15.3274 32 14.4336 31.1063 14.4336 30V27.8188C14.4086 27.8125 14.3774 27.8125 14.3524 27.8062H14.3399C12.8149 27.5687 10.3086 26.9125 8.6211 26.1625C7.6086 25.7125 7.1586 24.5312 7.6086 23.525C8.0586 22.5187 9.23985 22.0625 10.2461 22.5125C11.5524 23.0938 13.7024 23.6625 14.9461 23.8625C16.9399 24.1562 18.5836 23.9875 19.6961 23.5313C20.7524 23.1 21.2336 22.475 21.3711 21.725C21.4899 21.0563 21.4024 20.675 21.2899 20.4375C21.1711 20.1875 20.9399 19.9063 20.4836 19.6C19.4711 18.925 17.9149 18.4812 15.9024 17.9312L15.7274 17.8813C13.9524 17.4 11.7774 16.8063 10.1649 15.7375C9.2836 15.15 8.4586 14.3563 7.9461 13.2563C7.42735 12.1438 7.31485 10.8937 7.55235 9.5625C8.00235 7.13125 9.75235 5.58125 11.8149 4.79375C12.6274 4.48125 13.5149 4.28125 14.4399 4.16875V2C14.4399 0.89375 15.3336 0 16.4399 0Z" fill="white"/>
</svg>
