<svg width="33" height="32" viewBox="0 0 33 32" fill="none" xmlns="http://www.w3.org/2000/svg">
<path d="M16.5 0C13.8875 0 11.6625 1.66875 10.8438 4H8.5C6.29375 4 4.5 5.79375 4.5 8L4.5 28C4.5 30.2062 6.29375 32 8.5 32H24.5C26.7062 32 28.5 30.2062 28.5 28L28.5 8C28.5 5.79375 26.7062 4 24.5 4L22.1562 4C21.3375 1.66875 19.1125 0 16.5 0ZM16.5 4C17.0304 4 17.5391 4.21071 17.9142 4.58579C18.2893 4.96086 18.5 5.46957 18.5 6C18.5 6.53043 18.2893 7.03914 17.9142 7.41421C17.5391 7.78929 17.0304 8 16.5 8C15.9696 8 15.4609 7.78929 15.0858 7.41421C14.7107 7.03914 14.5 6.53043 14.5 6C14.5 5.46957 14.7107 4.96086 15.0858 4.58579C15.4609 4.21071 15.9696 4 16.5 4ZM9 17C9 16.6022 9.15804 16.2206 9.43934 15.9393C9.72064 15.658 10.1022 15.5 10.5 15.5C10.8978 15.5 11.2794 15.658 11.5607 15.9393C11.842 16.2206 12 16.6022 12 17C12 17.3978 11.842 17.7794 11.5607 18.0607C11.2794 18.342 10.8978 18.5 10.5 18.5C10.1022 18.5 9.72064 18.342 9.43934 18.0607C9.15804 17.7794 9 17.3978 9 17ZM15.5 16L23.5 16C24.05 16 24.5 16.45 24.5 17C24.5 17.55 24.05 18 23.5 18L15.5 18C14.95 18 14.5 17.55 14.5 17C14.5 16.45 14.95 16 15.5 16ZM9 23C9 22.6022 9.15804 22.2206 9.43934 21.9393C9.72064 21.658 10.1022 21.5 10.5 21.5C10.8978 21.5 11.2794 21.658 11.5607 21.9393C11.842 22.2206 12 22.6022 12 23C12 23.3978 11.842 23.7794 11.5607 24.0607C11.2794 24.342 10.8978 24.5 10.5 24.5C10.1022 24.5 9.72064 24.342 9.43934 24.0607C9.15804 23.7794 9 23.3978 9 23ZM14.5 23C14.5 22.45 14.95 22 15.5 22L23.5 22C24.05 22 24.5 22.45 24.5 23C24.5 23.55 24.05 24 23.5 24L15.5 24C14.95 24 14.5 23.55 14.5 23Z" fill="white"/>
</svg>
