<svg width="90" height="50" viewBox="0 0 90 50" fill="none" xmlns="http://www.w3.org/2000/svg">
<g id="Logo">
<g id="Vector">
<path d="M88.3402 33.2309C87.6049 33.2309 87.0683 32.652 87.0683 31.9231C87.0683 31.2047 87.6049 30.6162 88.3304 30.6162C89.0557 30.6162 89.5828 31.2047 89.5828 31.9332C89.5828 32.652 89.0557 33.2309 88.3402 33.2309ZM88.3304 30.2866C87.396 30.2866 86.6511 31.0154 86.6511 31.9231C86.6511 32.8513 87.396 33.5802 88.3304 33.5802C89.2744 33.5802 90 32.8513 90 31.9231C90 31.0154 89.2744 30.2866 88.3304 30.2866Z" fill="white"/>
<path d="M88.2608 31.8534H88.0819V31.3847C88.1217 31.3748 88.1914 31.3647 88.2908 31.3647C88.5288 31.3647 88.6383 31.4642 88.6383 31.6138C88.6383 31.7837 88.4695 31.8534 88.2608 31.8534ZM88.708 31.9735V31.9535C88.9069 31.8933 89.0461 31.7539 89.0461 31.5742C89.0461 31.4145 88.9763 31.2845 88.887 31.2145C88.7677 31.1451 88.6285 31.0953 88.3205 31.0953C88.0519 31.0953 87.8436 31.115 87.6943 31.1451V32.7813H88.0718V32.1228H88.251C88.4597 32.1228 88.5591 32.2026 88.5888 32.3823C88.6383 32.5718 88.6683 32.7217 88.7181 32.7813H89.1253C89.0855 32.7217 89.0559 32.6222 89.006 32.3725C88.9564 32.1529 88.8671 32.0334 88.708 31.9735Z" fill="white"/>
<path d="M44.3675 23.4071C44.3675 23.4071 44.3046 23.4497 44.1971 23.529C42.1955 25.0112 41.5388 27.721 42.6264 29.9666L44.2654 33.3502L45.9492 29.8197C46.9507 27.7189 46.4463 25.1938 44.6897 23.6729C44.5871 23.5844 44.4799 23.4956 44.3675 23.4071Z" fill="white"/>
<path d="M76.5745 15.4356C75.5925 17.5456 76.1213 20.0659 77.8921 21.5701C77.9954 21.6577 78.1034 21.7453 78.2168 21.8329C78.2168 21.8329 78.2794 21.7897 78.3859 21.7093C80.3736 20.2083 81.0045 17.4919 79.8955 15.2568L78.2245 11.889L76.5745 15.4356Z" fill="white"/>
<path d="M3.93437 9.54079L4.51899 5.6706C4.86679 3.36779 3.65037 1.10045 1.52855 0.160315C1.4048 0.105486 1.2763 0.0518489 1.14306 0C1.14306 0 1.09528 0.0592988 1.01545 0.16687C-0.468343 2.1708 -0.30928 4.95514 1.38343 6.78446L3.93437 9.54079Z" fill="white"/>
<path d="M0 10.559C0.213073 13.2203 0.348098 35.655 0.348098 35.655H4.83301L4.55851 10.4666L0 10.559Z" fill="white"/>
<path d="M25.7716 10.3861C25.7716 10.3861 26.8955 21.7086 25.8808 28.1119C25.8808 28.1119 15.256 16.0499 13.7755 14.518C12.0489 12.7313 11.2337 11.5286 9.51133 10.8909C9.51133 10.8909 6.05646 22.3683 7.85126 35.655H12.265C12.265 35.655 11.107 25.3437 12.1133 19.1221C12.1133 19.1221 22.0325 30.5378 23.6857 32.1925C25.5185 34.0271 27.3747 35.1228 28.6238 35.7718C28.6238 35.7718 32.1042 23.503 30.0266 10.3102L25.7716 10.3861Z" fill="white"/>
<path d="M44.3504 10.3937C44.3314 10.3839 44.307 10.3839 44.2791 10.3937C44.2791 10.3937 35.344 13.4653 31.5633 35.6549H36.0153C36.0153 35.6549 38.6295 20.7099 44.3148 15.7637C50.1271 20.872 52.6142 35.6549 52.6142 35.6549H57.0588C53.2781 13.4653 44.3504 10.3937 44.3504 10.3937Z" fill="white"/>
<path d="M80.4845 5.07805L77.3502 1.89143C65.2106 14.1847 51.6336 9.69915 51.0389 9.49593L51.2057 13.9484C51.5099 14.0542 53.2358 14.7255 58.1051 14.7255C58.4891 14.7255 58.882 14.7187 59.2841 14.7035C59.6239 20.5704 59.6544 35.6549 59.6544 35.6549L64.1005 35.6447L63.912 14.1766C69.0614 13.1906 74.9592 10.6742 80.4845 5.07805Z" fill="white"/>
<path d="M89.5592 10.4647H85.1514C85.6838 30.4244 79.2515 31.3002 77.8556 31.2653C77.5941 31.2719 77.1478 31.2463 76.5991 31.069C75.296 30.737 74.2853 29.8019 73.4968 28.5343C72.0667 26.1561 70.7725 22.1575 70.5577 14.7536C69.1991 15.3176 67.8035 15.7861 66.3746 16.1603C66.7164 26.8954 70.1734 31.8521 73.2647 34.0002C76.57 36.298 80.9594 36.1621 83.8216 33.3277C90.0648 27.1445 89.6022 11.5532 89.5592 10.4647Z" fill="white"/>
<path d="M0.258772 45.3874C0.258772 45.3874 0.281029 45.354 0.322575 45.2974C1.0986 44.2402 2.518 43.8933 3.69405 44.4678L5.4663 45.3335L3.6169 46.2226C2.51681 46.7513 1.19445 46.4852 0.397952 45.5573C0.351361 45.5033 0.305066 45.4467 0.258772 45.3874Z" fill="white"/>
<path d="M85.248 45.3874C85.248 45.3874 85.2261 45.354 85.1842 45.2974C84.4082 44.2402 82.9888 43.8933 81.8128 44.4678L80.0405 45.3335L81.8899 46.2226C82.99 46.7513 84.3124 46.4852 85.1089 45.5573C85.1555 45.5033 85.2018 45.4467 85.248 45.3874Z" fill="white"/>
<path d="M8.70423 46.6893H11.6015C11.1267 45.6365 10.6272 44.5829 10.1524 43.6043C9.66514 44.5829 9.17816 45.6365 8.70423 46.6893ZM12.2754 48.1941H8.01724C7.76707 48.7588 7.51779 49.3235 7.30531 49.8744H5.36926C6.79281 46.74 8.54161 43.2288 10.0904 40.4695H10.2029C11.7511 43.2288 13.4999 46.74 14.9234 49.8744H12.9874C12.7749 49.3101 12.5256 48.7588 12.2754 48.1941Z" fill="white"/>
<path d="M26.3631 40.4695V49.8744H24.5648L24.6025 44.4824C23.478 45.7492 22.042 47.6801 21.2182 48.8714H21.1182C20.2944 47.6676 18.8575 45.7492 17.7461 44.4824L17.7841 49.8744H15.9727V40.4695C16.7722 40.4695 19.532 43.9309 21.1678 46.1002C22.8044 43.9309 25.577 40.4695 26.3631 40.4695Z" fill="white"/>
<path d="M30.7606 46.6893H33.6579C33.183 45.6365 32.6836 44.5829 32.2088 43.6043C31.7215 44.5829 31.2345 45.6365 30.7606 46.6893ZM34.3315 48.1941H30.0736C29.8234 48.7588 29.5742 49.3235 29.3617 49.8744H27.4256C28.8501 46.74 30.598 43.2288 32.1462 40.4695H32.2592C33.8074 43.2288 35.5559 46.74 36.9795 49.8744H35.0443C34.8312 49.3101 34.5817 48.7588 34.3315 48.1941Z" fill="white"/>
<path d="M44.286 48.3698V49.8746H37.3552C37.3552 48.433 40.4522 44.3694 41.6511 42.1003H37.4297V40.5946H44.211C44.211 42.0374 41.1015 46.1001 39.9026 48.3698H44.286Z" fill="white"/>
<path d="M52.9912 45.2352C52.9912 43.2787 51.7923 41.9744 50.0061 41.9744C48.208 41.9744 47.0091 43.2787 47.0091 45.2352C47.0091 47.1909 48.208 48.4951 50.0061 48.4951C51.7923 48.4951 52.9912 47.1909 52.9912 45.2352ZM45.1354 45.2352C45.1354 42.3755 47.0836 40.4696 50.0061 40.4696C52.9036 40.4696 54.864 42.3755 54.864 45.2352C54.864 48.0941 52.9036 49.9999 50.0061 49.9999C47.0836 49.9999 45.1354 48.0941 45.1354 45.2352Z" fill="white"/>
<path d="M65.2675 50C64.3434 50 60.5719 46.0252 58.3617 43.9185L58.3863 49.8745H56.5755V40.4696C57.5002 40.4696 61.2586 44.445 63.4689 46.5518L63.4443 40.5948H65.2675V50Z" fill="white"/>
<path d="M69.3526 49.8745H67.5412V40.5944H69.3526V49.8745Z" fill="white"/>
<path d="M73.7611 46.6893H76.6584C76.1836 45.6365 75.6841 44.5829 75.2093 43.6043C74.722 44.5829 74.235 45.6365 73.7611 46.6893ZM77.3323 48.1941H73.0741C72.8239 48.7588 72.5747 49.3235 72.3622 49.8744H70.4261C71.8497 46.74 73.5985 43.2288 75.1473 40.4695H75.2597C76.8079 43.2288 78.5567 46.74 79.9803 49.8744H78.0442C77.8317 49.3101 77.5825 48.7588 77.3323 48.1941Z" fill="white"/>
<path d="M53.1123 39.9364L52.4876 38.5791C52.1158 37.7713 51.2528 37.3058 50.3791 37.4542C50.3281 37.4629 50.2762 37.473 50.2231 37.4846C50.2231 37.4846 50.2201 37.5135 50.2171 37.5648C50.1637 38.5171 50.7982 39.3714 51.7214 39.5967L53.1123 39.9364Z" fill="white"/>
<path d="M47.2134 39.7822L48.6687 39.4646C49.5343 39.2753 50.1747 38.5307 50.2198 37.6421C50.2225 37.5905 50.224 37.5369 50.2243 37.4821C50.2243 37.4821 50.1967 37.4731 50.1477 37.4591C49.2334 37.2005 48.2651 37.6367 47.8457 38.4925L47.2134 39.7822Z" fill="white"/>
</g>
</g>
</svg>
