<svg width="90" height="104" viewBox="0 0 90 104" fill="none" xmlns="http://www.w3.org/2000/svg">
<g id="paper">
<path fill-rule="evenodd" clip-rule="evenodd" d="M11.7316 9.14146C13.2373 32.8365 8.77231 79.7745 2.79682 87.403C32.4704 88.8263 49.5143 89.2178 76.3057 93.5171C80.1121 71.549 81.8139 59.1781 79.5548 36.4514C72.8339 26.3491 69.2147 19.3227 62.9035 5.47295C37.6728 6.26304 28.7063 7.3404 11.7316 9.14146ZM16.6051 17.7013C14.304 50.305 13.1051 69.3655 8.48258 82.104C33.7274 83.1519 47.3555 84.1072 69.4016 87.403C77.9634 53.8633 77.4708 44.9607 72.6506 36.4514C64.6605 32.9489 60.1448 31.3828 51.9382 30.3373C52.6391 23.7408 54.028 19.5653 58.4361 11.1795C39.753 12.1768 30.8775 13.792 16.6051 17.7013Z" fill="#653024"/>
<path d="M21.4786 36.4514V31.9678C35.2869 33.5983 41.7389 31.193 49.0952 31.9678V38.4896C43.2785 36.4245 29.5944 35.4483 21.4786 36.4514Z" fill="#653024"/>
<path d="M20.2602 47.8644L21.4786 43.3809C37.776 42.8101 47.4708 46.6418 68.5893 46.6417V52.7559C51.1263 47.8645 28.9247 47.8644 20.2602 47.8644Z" fill="#653024"/>
<path d="M17.8377 60.3132L18.5714 55.3647C29.2101 57.5658 63.495 57.3994 68 58.5L66 64C60.1832 61.9349 25.9535 59.3101 17.8377 60.3132Z" fill="#653024"/>
<path fill-rule="evenodd" clip-rule="evenodd" d="M2.71039 3.00465L8.13975 1.40778L7.7257 0L0.626343 2.08805L1.04758 2.88097L1.04911 2.8839L1.05879 2.90291C1.06814 2.92147 1.08319 2.95186 1.1035 2.99445C1.14412 3.07963 1.20577 3.21364 1.28486 3.39944C1.44304 3.77103 1.67102 4.34986 1.94003 5.1597C2.47805 6.77937 3.1803 9.32331 3.81651 12.9815C5.08903 20.2985 6.09698 32.0711 4.99932 49.8166L6.46393 49.9072C7.56737 32.0682 6.55765 20.1789 5.26221 12.7301C4.61445 9.00545 3.89514 6.39056 3.33261 4.69711C3.08988 3.96638 2.87635 3.40727 2.71039 3.00465ZM88.3092 80.7046C87.2469 87.1707 85.1187 95.6051 80.8459 103.408L80.5215 104L79.9043 103.726C73.377 100.825 68.8011 100.12 65.8951 100.12C64.4419 100.12 63.402 100.297 62.7397 100.465C62.4083 100.549 62.1705 100.631 62.0219 100.689C61.9476 100.718 61.8955 100.741 61.8651 100.755C61.8499 100.762 61.8401 100.767 61.8356 100.769L61.8371 100.768C61.8371 100.768 61.8382 100.768 61.4929 100.12C61.1477 99.4731 61.1489 99.4724 61.1489 99.4724L61.1502 99.4717L61.1533 99.4701L61.161 99.4661L61.1826 99.4551C61.1998 99.4466 61.2225 99.4356 61.2508 99.4226C61.3075 99.3965 61.3865 99.3621 61.4884 99.3223C61.6924 99.2427 61.9877 99.1417 62.3785 99.0425C63.1607 98.8438 64.3219 98.653 65.8951 98.653C68.9435 98.653 73.523 99.3691 79.8775 102.112C83.8309 94.6722 85.8412 86.6756 86.8612 80.4667C87.3842 77.2833 87.6455 74.5782 87.7761 72.6712C87.8413 71.7178 87.8739 70.9645 87.8901 70.4511C87.8982 70.1945 87.9022 69.9979 87.9042 69.8663C87.9052 69.8005 87.9057 69.751 87.906 69.7184L87.9062 69.6822L87.9062 69.6738V69.672C87.9062 69.672 87.9062 69.6718 88.6399 69.6718C89.3736 69.6718 89.3736 69.6724 89.3736 69.6724L89.3736 69.6765L89.3736 69.6876L89.3733 69.7293C89.373 69.7657 89.3725 69.819 89.3715 69.8886C89.3693 70.0279 89.3651 70.2325 89.3568 70.4975C89.34 71.0274 89.3066 71.7987 89.24 72.7714C89.1069 74.7163 88.8409 77.4681 88.3092 80.7046Z" fill="#FFA400"/>
<path d="M16 71.5L17 67.5C21.1467 67.7439 30.5 67.5 30.5 67.5C30.5 67.5 39.6927 67.9363 42 68.5L41 71.5C31.5 70.5 22 71.5 16 71.5Z" fill="#653024"/>
</g>
</svg>
