<svg width="20" height="20" viewBox="0 0 20 20" fill="none" xmlns="http://www.w3.org/2000/svg">
<g clip-path="url(#clip0_1642_3344)">
<path d="M11.4062 0.130096C11.4792 0.142444 11.5514 0.155392 11.6226 0.168816C11.8325 0.208417 12.0337 0.252152 12.2213 0.296771C12.3538 0.328281 12.4794 0.360232 12.5965 0.39148C12.9844 0.494997 13.0488 0.969469 12.6968 1.16273C12.5865 1.2233 12.4674 1.28589 12.3412 1.3483C12.1661 1.43488 11.9772 1.52112 11.7791 1.60118C11.7072 1.63027 11.6339 1.65855 11.5597 1.68572C11.0637 1.86735 10.5226 2 10 2C9.4774 2 8.93626 1.86735 8.44027 1.68573C8.36605 1.65855 8.29285 1.63027 8.22086 1.60118C8.02276 1.52112 7.83393 1.43488 7.65882 1.3483C7.53258 1.28589 7.41347 1.2233 7.30316 1.16272C6.95124 0.969469 7.01556 0.494998 7.40349 0.39148C7.52058 0.360232 7.64623 0.328281 7.77869 0.296771C7.96627 0.252152 8.1675 0.208416 8.37744 0.168816C8.44861 0.155392 8.52078 0.142444 8.59376 0.130096C9.04672 0.0534575 9.53083 0 10 0C10.4692 0 10.9533 0.0534575 11.4062 0.130096Z" fill="#653024"/>
<path d="M14.5883 0.384945C14.4901 0.35457 14.3977 0.445001 14.4112 0.546904C14.5139 1.32389 14.1301 2.08697 13.4188 2.47753C12.6814 2.88246 11.3671 3.5 10 3.5C8.63294 3.5 7.31856 2.88246 6.58115 2.47753C5.86993 2.08697 5.48612 1.32389 5.58881 0.546905C5.60228 0.445007 5.50986 0.354583 5.41166 0.384956C4.82696 0.565814 4.31093 0.831641 3.87168 1.22236C1.45249 3.37427 1 6.85867 1 10C1 11.5282 1.33158 13.1653 2.00579 14.6633C2.11472 14.9053 2.39968 15.0073 2.64295 14.9011L4.30435 14.1762C4.60507 14.0449 4.6998 13.6645 4.50991 13.397C4.04702 12.7447 3.64624 12.0451 3.31549 11.3065C3.14621 10.9285 3.31545 10.4848 3.69349 10.3155C4.07153 10.1462 4.51523 10.3154 4.68451 10.6935C5.0482 11.5057 5.50835 12.2642 6.05128 12.9545C6.19632 13.1389 6.45364 13.1883 6.65733 13.0719C7.39893 12.6481 8.09369 12.1482 8.73046 11.5806C8.86333 11.4621 8.8738 11.2597 8.76136 11.1217L7.41857 9.47375C7.15693 9.15264 7.20513 8.68022 7.52625 8.41857C7.84736 8.15693 8.31978 8.20513 8.58143 8.52625L9.92421 10.1742C9.96338 10.2223 10.0366 10.2223 10.0758 10.1742L11.4186 8.52625C11.6802 8.20513 12.1526 8.15693 12.4738 8.41857C12.7949 8.68022 12.8431 9.15264 12.5814 9.47375L11.2386 11.1217C11.1262 11.2597 11.1367 11.4621 11.2695 11.5806C11.9063 12.1482 12.6011 12.6481 13.3427 13.0719C13.5464 13.1883 13.8037 13.1389 13.9487 12.9545C14.4917 12.2642 14.9518 11.5057 15.3155 10.6935C15.4848 10.3154 15.9285 10.1462 16.3065 10.3155C16.6846 10.4848 16.8538 10.9285 16.6845 11.3065C16.3538 12.0451 15.953 12.7447 15.4901 13.397C15.3002 13.6645 15.3949 14.0449 15.6956 14.1762L17.357 14.9011C17.6003 15.0073 17.8853 14.9053 17.9942 14.6633C18.6684 13.1653 19 11.5282 19 10C19 6.85867 18.5475 3.37431 16.1283 1.22236C15.6891 0.831632 15.173 0.565803 14.5883 0.384945Z" fill="#653024"/>
<path d="M5.43121 18.4247C5.26776 18.5084 5.07083 18.4967 4.92338 18.3873C4.33379 17.9497 3.81203 17.4394 3.35717 16.8773C3.15783 16.631 3.25911 16.2689 3.54955 16.1421L5.65171 15.2248C5.83795 15.1436 6.05421 15.1838 6.20363 15.3215C6.63947 15.7232 7.10487 16.0938 7.59658 16.43C7.92338 16.6534 7.90832 17.1565 7.55595 17.3369L5.43121 18.4247Z" fill="#653024"/>
<path d="M9.61551 15.8887C9.02042 15.584 8.45847 15.2266 7.93545 14.8225C7.66413 14.6128 7.70581 14.2002 7.99456 14.0153C8.57769 13.6418 9.13174 13.2249 9.65198 12.768C9.85055 12.5937 10.1494 12.5937 10.348 12.768C10.8683 13.2249 11.4223 13.6418 12.0054 14.0153C12.2942 14.2002 12.3359 14.6128 12.0645 14.8225C11.5415 15.2266 10.9796 15.584 10.3845 15.8887L10.2279 15.9689C10.0848 16.0422 9.91522 16.0422 9.77214 15.9689L9.61551 15.8887Z" fill="#653024"/>
<path d="M16.6428 16.8773C16.8422 16.631 16.7409 16.2689 16.4505 16.1421L14.3483 15.2248C14.162 15.1436 13.9458 15.1838 13.7964 15.3215C13.3605 15.7232 12.8951 16.0938 12.4034 16.43C12.0766 16.6534 12.0917 17.1565 12.4441 17.3369L14.5688 18.4247C14.7322 18.5084 14.9292 18.4967 15.0766 18.3873C15.6662 17.9497 16.188 17.4394 16.6428 16.8773Z" fill="#653024"/>
<path d="M10 20C9.22981 20 8.51057 19.9126 7.84169 19.7506C7.42279 19.6492 7.38799 19.108 7.77163 18.9116L9.77214 17.8874C9.91522 17.8141 10.0848 17.8141 10.2279 17.8874L12.2284 18.9116C12.612 19.108 12.5772 19.6492 12.1583 19.7506C11.4894 19.9126 10.7702 20 10 20Z" fill="#653024"/>
</g>
<defs>
<clipPath id="clip0_1642_3344">
<rect width="20" height="20" fill="white"/>
</clipPath>
</defs>
</svg>
