<svg width="20" height="20" viewBox="0 0 20 20" fill="none" xmlns="http://www.w3.org/2000/svg">
<g clip-path="url(#clip0_1642_3408)">
<path fill-rule="evenodd" clip-rule="evenodd" d="M18.8663 9.92698C19.072 9.41161 19.2516 8.88305 19.4036 8.34291C19.7921 6.96191 20 5.50523 20 4V2C20 0.895431 19.1046 0 18 0H16C14.4948 0 13.0381 0.207855 11.6571 0.596429C11.1169 0.74841 10.5884 0.928036 10.073 1.13369C8.94635 1.58327 7.88277 2.15723 6.89925 2.83859C6.48391 3.12633 6.08285 3.43323 5.69734 3.758C4.81575 4.50069 4.01552 5.33687 3.31192 6.25125C3.00249 6.65337 2.71176 7.07061 2.44101 7.50167C1.9316 8.31273 1.49293 9.17273 1.13369 10.073C0.928036 10.5884 0.74841 11.1169 0.596429 11.6571C0.207855 13.0381 0 14.4948 0 16V18C0 19.1046 0.895431 20 2 20H4C5.50523 20 6.96191 19.7921 8.34291 19.4036C8.88305 19.2516 9.41161 19.072 9.92698 18.8663C10.8273 18.5071 11.6873 18.0684 12.4983 17.559C12.9294 17.2882 13.3466 16.9975 13.7487 16.6881C14.6631 15.9845 15.4993 15.1842 16.242 14.3027C16.5668 13.9172 16.8737 13.5161 17.1614 13.1007C17.8428 12.1172 18.4167 11.0537 18.8663 9.92698ZM13.1893 6.37132C13.7751 5.78553 14.7249 5.78553 15.3107 6.37132L16.2692 7.32989C16.6619 7.72254 16.812 8.30262 16.6136 8.82128C16.5035 9.10916 16.3839 9.3923 16.255 9.67032C15.8528 10.538 14.7202 10.6596 14.044 9.98331L12.8713 8.81066C12.2855 8.22487 12.2855 7.27513 12.8713 6.68934L13.1893 6.37132ZM11.1893 11.3713C11.7751 10.7855 12.7249 10.7855 13.3107 11.3713L13.5081 11.5687C14.0524 12.1131 14.1024 12.988 13.5588 13.5331C13.366 13.7264 13.1673 13.914 12.963 14.0954C12.4101 14.5868 11.5772 14.5166 11.0542 13.9935L10.8713 13.8107C10.2855 13.2249 10.2855 12.2751 10.8713 11.6893L11.1893 11.3713ZM6.03033 13.0303C6.56586 12.4948 7.43414 12.4948 7.96967 13.0303L9.28567 14.3463C9.98551 15.0462 9.825 16.2225 8.90292 16.5821C8.87575 16.5927 8.84853 16.6032 8.82128 16.6136C8.30261 16.812 7.72255 16.6619 7.32989 16.2692L6.03033 14.9697C5.4948 14.4341 5.4948 13.5659 6.03033 13.0303ZM2.5 16C2.5 15.0521 3.61673 14.6774 4.28698 15.3476L4.65236 15.713C5.32261 16.3833 4.94788 17.5 4 17.5C3.17157 17.5 2.5 16.8284 2.5 16ZM4.56653 12.3728C4.25365 12.6857 3.74635 12.6857 3.43347 12.3728C3.22373 12.1631 3.14515 11.854 3.24236 11.5737C3.36627 11.2165 3.50475 10.8662 3.6571 10.5233C3.93192 9.90488 4.73554 9.7962 5.21407 10.2747C5.61463 10.6753 5.61463 11.3247 5.21407 11.7253L4.56653 12.3728ZM9.81066 10.6287C9.22487 11.2145 8.27513 11.2145 7.68934 10.6287L6.00649 8.94582C5.48342 8.42276 5.41324 7.58995 5.90457 7.03695C6.08602 6.83273 6.27357 6.63404 6.46694 6.44119C7.01198 5.89761 7.88694 5.9476 8.43125 6.49191L10.1287 8.18934C10.7145 8.77513 10.7145 9.72487 10.1287 10.3107L9.81066 10.6287ZM11.6645 5.77482C11.1594 6.2799 10.3406 6.2799 9.83548 5.77482C9.25242 5.19176 9.35683 4.21591 10.0982 3.85496C10.5356 3.64203 10.9862 3.45202 11.4485 3.28651C11.8046 3.15898 12.1992 3.25986 12.4667 3.52738C12.8658 3.92647 12.8658 4.57353 12.4667 4.97262L11.6645 5.77482ZM17.5 4C17.5 4.94788 16.3833 5.32261 15.713 4.65236L15.3476 4.28698C14.6774 3.61673 15.0521 2.5 16 2.5C16.8284 2.5 17.5 3.17157 17.5 4Z" fill="#653024"/>
</g>
<defs>
<clipPath id="clip0_1642_3408">
<rect width="20" height="20" fill="white"/>
</clipPath>
</defs>
</svg>
