<svg width="20" height="20" viewBox="0 0 20 20" fill="none" xmlns="http://www.w3.org/2000/svg">
<g clip-path="url(#clip0_1648_3493)">
<path d="M9.94732 0.947344C9.4241 0.424127 8.5758 0.424127 8.05258 0.947344C7.16223 1.8377 6.55595 2.90457 6.23377 4.03531C6.22982 4.04915 6.22592 4.063 6.22206 4.07685C6.1157 4.4589 6.04168 4.84806 6 5.24001C5.96628 5.55709 5.95373 5.87599 5.96235 6.19443C6.43688 6.19815 6.91699 6.32105 7.35731 6.57527C7.81198 6.83777 8.23378 7.13534 8.62128 7.46258C9.31803 6.10201 10.3829 4.91105 11.7716 4.05464C11.7452 3.96095 11.7169 3.8677 11.6865 3.77494C11.6841 3.7676 11.6817 3.76026 11.6793 3.75292C11.6618 3.70002 11.6437 3.64727 11.625 3.5947C11.2803 2.62822 10.7211 1.72113 9.94732 0.947344Z" fill="#653024"/>
<path d="M3.74641 5.16147C3.99912 4.99721 4.27015 4.84195 4.55786 4.69719C4.46254 5.32596 4.43665 5.96322 4.4802 6.5966C4.07767 6.8367 3.72909 7.17997 3.47809 7.6147C2.91228 8.59472 2.56015 9.63946 2.40723 10.695C2.17055 10.4199 1.98173 10.1388 1.83904 9.85696C1.60994 9.40239 1.5 8.94379 1.5 8.5C1.5 7.38058 2.19947 6.16698 3.74641 5.16147Z" fill="#653024"/>
<path d="M3.81877 11.885C4.00441 12.0028 4.19959 12.1158 4.40369 12.2234C4.54585 12.2984 4.69232 12.3707 4.84288 12.4402C5.72905 12.8495 6.75699 13.1615 7.88324 13.3378C7.54704 11.869 7.60806 10.3562 8.02653 8.94754C7.60923 8.54086 7.13506 8.17901 6.60731 7.87431C5.9665 7.50434 5.1471 7.7239 4.77713 8.3647C4.13562 9.47582 3.82645 10.6876 3.81877 11.885Z" fill="#653024"/>
<path d="M15.8701 4.96319C17.0581 7.02091 17.3041 9.364 16.7419 11.4931C16.7688 11.4723 16.7953 11.4515 16.8216 11.4307C17.445 10.934 17.8874 10.3972 18.1606 9.85762C18.39 9.40284 18.5 8.94401 18.5 8.5C18.5 7.38058 17.8005 6.16698 16.2536 5.16147C16.1201 5.07469 15.9815 4.99043 15.838 4.9089C15.8489 4.92684 15.8596 4.94493 15.8701 4.96319Z" fill="#653024"/>
<path d="M14.6932 12.6403C15.8081 10.538 15.8486 7.92598 14.5711 5.71319C14.2011 5.07239 13.3817 4.85283 12.7409 5.2228C9.80528 6.91769 8.52728 10.3811 9.47571 13.4903C9.6489 13.4967 9.8237 13.5 10 13.5C11.754 13.5 13.3607 13.176 14.6932 12.6403Z" fill="#653024"/>
<path d="M19.9592 9.09091C19.4999 12.4038 15.2164 15 10 15C4.78365 15 0.500156 12.4039 0.040781 9.09101C0.0137924 9.3904 0 9.69359 0 10C0 15.5228 4.47715 20 10 20C15.5228 20 20 15.5228 20 10C20 9.69355 19.9862 9.39033 19.9592 9.09091Z" fill="#653024"/>
</g>
<defs>
<clipPath id="clip0_1648_3493">
<rect width="20" height="20" fill="white"/>
</clipPath>
</defs>
</svg>
