<svg width="20" height="20" viewBox="0 0 20 20" fill="none" xmlns="http://www.w3.org/2000/svg">
<g clip-path="url(#clip0_1733_3426)">
<path fill-rule="evenodd" clip-rule="evenodd" d="M15.3328 0.446595C15.6384 0.906604 15.5133 1.52728 15.0533 1.83291C13.4246 2.91496 12.2929 4.55099 11.6217 7.24202C11.3906 8.16832 11.216 9.21286 11.0959 10.3928C11.5448 9.46494 12.0501 8.67286 12.6045 8.00304C14.4461 5.7777 16.7465 4.99999 18.9999 4.99999C19.5522 4.99999 19.9999 5.4477 19.9999 5.99999C19.9999 6.55227 19.5522 6.99999 18.9999 6.99999C17.2533 6.99999 15.5536 7.57644 14.1453 9.27818C13.5197 10.034 12.9374 11.0292 12.4383 12.3244C12.5584 12.2297 12.6809 12.1392 12.8057 12.0528C14.7065 10.7368 17.0129 10.4725 19.2424 11.0298C19.7782 11.1637 20.104 11.7067 19.97 12.2425C19.8361 12.7783 19.2932 13.104 18.7574 12.9701C16.9868 12.5275 15.2933 12.7631 13.9441 13.6972C13.1788 14.227 12.4804 15.0122 11.934 16.1046C12.4315 15.9026 12.9354 15.7745 13.42 15.7024C14.8593 15.4882 16.2355 15.7498 16.9471 16.1055C17.4411 16.3525 17.6413 16.9532 17.3943 17.4472C17.1473 17.9412 16.5466 18.1414 16.0527 17.8944C15.7642 17.7502 14.8136 17.5171 13.7143 17.6806C12.6701 17.836 11.5954 18.3322 10.8618 19.5076C10.8442 19.5374 10.8252 19.5662 10.8048 19.5938C10.7461 19.6734 10.675 19.7451 10.5925 19.8057C10.5269 19.854 10.4549 19.8947 10.3779 19.9261C10.3727 19.9282 10.3676 19.9302 10.3624 19.9322C10.3286 19.9454 10.2939 19.9568 10.2584 19.9662C10.2431 19.9704 10.2276 19.9741 10.212 19.9775C10.1962 19.9809 10.1803 19.984 10.1642 19.9867C10.153 19.9885 10.1417 19.9902 10.1303 19.9917C10.0725 19.9993 10.0144 20.0018 9.95692 19.9992C9.83701 19.9942 9.72171 19.9678 9.61522 19.9233C9.59018 19.9129 9.56568 19.9015 9.54177 19.8892C9.50331 19.8694 9.46638 19.8471 9.43114 19.8227C9.37013 19.7806 9.31343 19.7315 9.26239 19.6757C9.23394 19.6447 9.20768 19.6121 9.18368 19.5782C9.14962 19.5302 9.11964 19.479 9.09429 19.425C8.22682 17.7056 6.84474 16.7666 5.54824 16.4115C4.17191 16.0346 3.11923 16.3509 2.72439 16.7659C2.34372 17.1661 1.71075 17.1819 1.31062 16.8012C0.910479 16.4205 0.894697 15.7876 1.27537 15.3874C2.38052 14.2257 4.32784 14.0037 6.07651 14.4826C6.73661 14.6633 7.40178 14.9497 8.0356 15.3491C7.67346 14.5542 7.21795 13.8361 6.67041 13.2124C5.36837 11.7293 3.48917 10.7132 0.916144 10.4965C0.365807 10.4502 -0.0427604 9.96646 0.00358345 9.41613C0.0499272 8.86579 0.533633 8.45722 1.08397 8.50357C3.94227 8.74427 6.20311 9.84181 7.84761 11.5396C6.92024 8.38791 5.28809 5.15979 2.45912 3.34116C1.99455 3.04251 1.86005 2.4238 2.1587 1.95923C2.45735 1.49466 3.07607 1.36016 3.54064 1.65881C6.39164 3.49159 8.1359 6.4216 9.20977 9.30028C9.33012 8.38427 9.4864 7.53863 9.68111 6.75799C10.4441 3.69903 11.8122 1.58506 13.9465 0.167064C14.4065 -0.138565 15.0272 -0.0134153 15.3328 0.446595Z" fill="#653024"/>
</g>
<defs>
<clipPath id="clip0_1733_3426">
<rect width="20" height="20" fill="white"/>
</clipPath>
</defs>
</svg>
