<svg width="20" height="20" viewBox="0 0 20 20" fill="none" xmlns="http://www.w3.org/2000/svg">
<path d="M3.63791 9.98895C3.5453 9.22878 3.5 8.3999 3.5 7.5C3.5 7.25049 3.50348 7.00644 3.51049 6.76781C1.95575 7.21713 1 7.82756 1 8.5C1 8.62451 1.03277 8.74689 1.09604 8.86652C1.54525 9.71587 2.6855 9.86212 3.63791 9.98895Z" fill="#653024"/>
<path d="M16.3619 9.99061C17.3082 9.86501 18.4316 9.71859 18.8946 8.88378C18.964 8.75867 19 8.6305 19 8.5C19 7.82756 18.0443 7.21713 16.4895 6.76781C16.4965 7.00645 16.5 7.25049 16.5 7.5C16.5 8.40055 16.4546 9.22999 16.3619 9.99061Z" fill="#653024"/>
<path fill-rule="evenodd" clip-rule="evenodd" d="M15 7.5C15 8.51035 14.9394 9.39124 14.8259 10.1579C13.4253 10.2814 11.7846 10.3553 10.0061 10.3553C8.22215 10.3553 6.57705 10.2809 5.17392 10.1568C5.06051 9.39039 5 8.50986 5 7.5C5 1.35786 7.23858 0 10 0C12.7614 0 15 1.35786 15 7.5ZM7.89592 5.36247L7.88355 5.35542C7.52871 5.14431 7.06964 5.25975 6.85701 5.6141C6.64388 5.96927 6.75904 6.42997 7.11422 6.6431L7.12207 6.64751C7.15376 6.66532 7.22614 6.70599 7.26638 6.72692C7.3544 6.7727 7.47872 6.8336 7.63434 6.9003C7.94444 7.03321 8.38526 7.19192 8.9155 7.29798C9.97754 7.51042 11.4314 7.51601 12.886 6.64323C13.2412 6.43012 13.3563 5.96943 13.1432 5.61424C12.9301 5.25906 12.4694 5.14388 12.1142 5.35699C11.0689 5.98421 10.0227 5.98974 9.20972 5.82712C8.80246 5.74566 8.46204 5.62308 8.22526 5.5216C8.10744 5.4711 8.01692 5.42652 7.95846 5.39612C7.92927 5.38094 7.90823 5.36938 7.89592 5.36247Z" fill="#653024"/>
<path fill-rule="evenodd" clip-rule="evenodd" d="M5.79311 18.0867C2.45891 16.5718 1.17702 14.0601 1 11C2.72978 11.5093 6.11419 11.8553 10.0061 11.8553C13.8889 11.8553 17.2665 11.5109 19 11.0036C18.7289 14.0821 16.8628 16.7114 14.2192 18.0867C13.2472 18.5923 11.2615 19.4591 10.4093 19.8269C10.1519 19.9379 9.86183 19.9345 9.60658 19.8186C8.82052 19.4617 7.04121 18.6537 5.79311 18.0867ZM11.8214 15.7715L11.8149 15.7733C11.4152 15.8753 11.1723 16.2813 11.2725 16.682C11.3729 17.0838 11.7801 17.3281 12.182 17.2277L12.1901 17.2254C12.2178 17.2177 12.2784 17.2009 12.3103 17.191C12.3813 17.1689 12.4791 17.1362 12.5974 17.0907C12.8335 16.9999 13.155 16.8568 13.511 16.6432C14.2217 16.2167 15.0904 15.4965 15.6709 14.3355C15.8561 13.965 15.706 13.5145 15.3355 13.3292C14.965 13.144 14.5145 13.2942 14.3293 13.6647C13.9097 14.5037 13.2784 15.0334 12.7392 15.3569C12.4702 15.5184 12.2292 15.6252 12.059 15.6907C11.9742 15.7233 11.9079 15.7453 11.8657 15.7584C11.8446 15.7649 11.8296 15.7692 11.8214 15.7715Z" fill="#653024"/>
</svg>
