<svg width="20" height="20" viewBox="0 0 20 20" fill="none" xmlns="http://www.w3.org/2000/svg">
<g clip-path="url(#clip0_1648_3502)">
<path d="M19.3033 16.4748C20.0843 17.2559 20.0843 18.5222 19.3033 19.3032C18.5223 20.0843 17.2559 20.0843 16.4749 19.3032C16.0132 18.8415 15.7267 17.5667 15.5696 16.6013C15.4694 15.9857 15.9858 15.4694 16.6014 15.5695C17.5667 15.7266 18.8416 16.0131 19.3033 16.4748Z" fill="#653024"/>
<path d="M5.70711 0.292893C5.31658 -0.0976311 4.68342 -0.0976311 4.29289 0.292893C3.90237 0.683417 3.90237 1.31658 4.29289 1.70711C4.63792 2.05213 4.7584 2.56249 4.60409 3.02539L4.55693 3.16685C3.96016 2.70084 3.16363 2.55803 2.43377 2.80132C2.33346 2.83475 2.22286 2.80865 2.14809 2.73388L1.70711 2.29289C1.31658 1.90237 0.683418 1.90237 0.292893 2.29289C-0.0976311 2.68342 -0.0976311 3.31658 0.292893 3.70711L0.733876 4.14809C1.34431 4.75852 2.24724 4.97168 3.06623 4.69868C3.16654 4.66525 3.27714 4.69135 3.35191 4.76612L4.31191 5.72613L2.81794 6.47311C2.44754 6.65832 2.00018 6.58572 1.70735 6.29289C1.31683 5.90237 0.683662 5.90237 0.293137 6.29289C-0.097387 6.68341 -0.097387 7.31658 0.293137 7.7071C1.19469 8.60865 2.57199 8.83216 3.71237 8.26197L5.55853 7.33889C5.70145 7.26743 5.87345 7.29344 5.98879 7.40301L6.29289 7.70711L6.3033 7.71736L7.22896 8.64312L3.34354 10.2294C2.7814 10.459 2.13645 10.329 1.70711 9.89962C1.31658 9.50909 0.683418 9.50909 0.292893 9.89962C-0.097631 10.2901 -0.0976311 10.9233 0.292893 11.3138C1.29162 12.3126 2.79189 12.6149 4.09952 12.0811L8.14772 10.4283C8.52047 10.2761 8.94813 10.3623 9.23282 10.647L10.2415 11.6556L4.41612 14.1083C3.48488 14.5004 2.40631 14.2084 1.80006 13.4001C1.46869 12.9582 0.841887 12.8687 0.400059 13.2001C-0.0417691 13.5314 -0.131312 14.1582 0.200059 14.6001C1.35694 16.1426 3.41516 16.6998 5.19221 15.9516L11.1487 13.4437C11.5235 13.2859 11.9564 13.3707 12.2439 13.6583L13.5388 14.9999C13.9293 15.3905 14.5624 15.3905 14.953 15C15.5 14.4531 15.3408 13.9499 15.0491 13.6583C14.8718 13.4809 14.7919 13.0255 14.953 12.6496L17.8052 5.99356C18.6391 4.04759 18.2043 1.79 16.7074 0.292922C16.3168 -0.0976182 15.6837 -0.0976439 15.2931 0.292865C14.9026 0.683373 14.9026 1.31654 15.2931 1.70708C16.2118 2.6259 16.4787 4.01148 15.9669 5.2058L13.1632 11.7487L12.1778 10.7635C11.8853 10.471 11.8031 10.0288 11.9708 9.65076L14.0995 4.85264L14.1036 4.84285C14.6463 3.54623 14.4138 2.38902 14.0631 1.59191C13.8896 1.19753 13.685 0.883537 13.5231 0.666716C13.4416 0.557498 13.3692 0.470613 13.3142 0.408083C13.2867 0.376755 13.2633 0.351349 13.2453 0.332119L13.2221 0.307868L13.2137 0.29923L13.2103 0.295791L13.2088 0.294291L13.2074 0.29294C12.8169 -0.0976103 12.1838 -0.0976518 11.7932 0.292847C11.4046 0.681432 11.4026 1.31032 11.7874 1.70131L11.7886 1.70253C11.792 1.70623 11.8001 1.71496 11.812 1.72847C11.8359 1.75561 11.8742 1.8012 11.9205 1.86318C12.0142 1.98876 12.1334 2.17207 12.2325 2.39729C12.4261 2.83738 12.534 3.40541 12.2624 4.0618L10.1769 8.76251L9.15652 7.74225C8.88018 7.46594 8.80424 7.0472 8.96595 6.69145L10.3252 3.70115C10.8496 2.54734 10.6034 1.18922 9.70729 0.292951C9.3168 -0.0976054 8.68363 -0.0976567 8.29308 0.292836C7.90252 0.683329 7.90247 1.31649 8.29296 1.70705C8.59967 2.01381 8.68394 2.47864 8.50444 2.87355L7.18678 5.7724L6.63876 5.22438C6.33562 4.92124 6.22977 4.47285 6.36535 4.06615L6.50144 3.65788C6.89532 2.4763 6.58781 1.17359 5.70711 0.292893Z" fill="#653024"/>
</g>
<defs>
<clipPath id="clip0_1648_3502">
<rect width="20" height="20" fill="white"/>
</clipPath>
</defs>
</svg>
