<svg width="20" height="20" viewBox="0 0 20 20" fill="none" xmlns="http://www.w3.org/2000/svg">
<g clip-path="url(#clip0_1648_3506)">
<path fill-rule="evenodd" clip-rule="evenodd" d="M14.4154 0.677761C14.553 0.952901 14.8112 1.14427 15.1064 1.23086C17.9193 2.05596 20 4.99764 20 8.50006C20 12.6241 17.1152 15.9707 13.547 15.9999C14.1611 14.4996 14.5 12.7919 14.5 11.0002C14.5 9.8249 14.3544 8.69044 14.0835 7.6292C14.0613 7.5422 14.0318 7.45862 13.9956 7.37906C13.8792 5.77914 11.4617 4.45162 8.239 4.09457C9.11771 2.69991 10.4028 1.66814 11.8936 1.23086C12.1888 1.14427 12.447 0.952901 12.5846 0.677761L12.6056 0.635794C12.9741 -0.101255 14.0259 -0.101254 14.3944 0.635794L14.4154 0.677761ZM14.2884 3.26279C14.4194 2.86983 14.8442 2.65746 15.2371 2.78845C16.2248 3.11766 16.9775 3.91203 17.4728 4.83188C17.972 5.75892 18.25 6.88195 18.25 7.99996C18.25 8.41417 17.9142 8.74996 17.5 8.74996C17.0857 8.74996 16.75 8.41417 16.75 7.99996C16.75 7.11797 16.5279 6.241 16.1521 5.54303C15.7724 4.83789 15.2752 4.38226 14.7628 4.21147C14.3698 4.08049 14.1575 3.65575 14.2884 3.26279Z" fill="#653024"/>
<path fill-rule="evenodd" clip-rule="evenodd" d="M11.169 8.6156C12.4082 8.0373 12.5 7.53754 12.5 7.5C12.5 7.46246 12.4082 6.9627 11.169 6.3844C10.0516 5.86294 8.40242 5.5 6.5 5.5C4.59758 5.5 2.94843 5.86294 1.83103 6.3844C0.59182 6.9627 0.5 7.46246 0.5 7.5C0.5 7.53754 0.59182 8.0373 1.83103 8.6156C2.94843 9.13706 4.59758 9.5 6.5 9.5C8.40242 9.5 10.0516 9.13706 11.169 8.6156ZM4.68267 6.51924L5.95056 6.15698C6.30967 6.05438 6.69033 6.05438 7.04944 6.15698L8.31733 6.51924C8.80085 6.65739 8.80085 7.34261 8.31733 7.48076L7.04944 7.84302C6.69033 7.94562 6.30967 7.94562 5.95056 7.84302L4.68267 7.48076C4.19915 7.34261 4.19915 6.65739 4.68267 6.51924Z" fill="#653024"/>
<path fill-rule="evenodd" clip-rule="evenodd" d="M6.5 11C9.20092 11 11.5684 10.3337 12.8889 9.33419C12.9618 9.87402 13 10.4309 13 11.0001C13 11.4123 12.98 11.8181 12.9412 12.2156C12.5126 16.6112 9.79214 20 6.5 20C2.91017 20 3.64107e-05 15.9707 0 11.0002C0 10.6445 0.0149045 10.2935 0.0438972 9.94849C0.0543387 9.82424 0.0666075 9.70077 0.0806655 9.57812C0.0900284 9.49644 0.100187 9.41512 0.111125 9.33419C1.43162 10.3337 3.79908 11 6.5 11ZM11.25 12.5C11.25 12.0858 10.9142 11.75 10.5 11.75C10.0858 11.75 9.75 12.0858 9.75 12.5C9.75 13.8511 9.29719 15.1421 8.46967 15.9697C8.17678 16.2626 8.17678 16.7374 8.46967 17.0303C8.76256 17.3232 9.23744 17.3232 9.53033 17.0303C10.7028 15.8579 11.25 14.1489 11.25 12.5Z" fill="#653024"/>
</g>
<defs>
<clipPath id="clip0_1648_3506">
<rect width="20" height="20" fill="white"/>
</clipPath>
</defs>
</svg>
