<svg width="20" height="20" viewBox="0 0 20 20" fill="none" xmlns="http://www.w3.org/2000/svg">
<g clip-path="url(#clip0_1648_3508)">
<path d="M9.338 5.01856L5.28825 2.07329C5.03997 1.89272 5.1677 1.49994 5.47469 1.49994C5.81098 1.49994 6.13348 1.63353 6.37127 1.87131L8.16038 3.66042C8.30027 3.80031 8.53982 3.72046 8.5678 3.52461C8.80222 1.88366 7.60696 0.38386 5.95507 0.246203L3.31598 0.0262792C3.15484 0.0128511 3.02354 0.153614 3.04813 0.31343L3.45361 2.94904C3.73029 4.74751 5.62958 5.8015 7.30209 5.08472C7.42754 5.03095 7.57031 5.03514 7.69239 5.09619L8.2194 5.35969C8.98052 5.74025 9.40443 6.57272 9.26454 7.4121L9.17153 7.97013C9.09366 8.43737 9.54096 8.81958 9.99034 8.66979C10.2838 8.57198 10.4624 8.27523 10.4116 7.97013L10.1344 6.30723C10.0482 5.78986 9.76219 5.32706 9.338 5.01856Z" fill="#653024"/>
<path fill-rule="evenodd" clip-rule="evenodd" d="M12.5661 9.10297L12.8872 7.17592C12.9603 6.73777 13.1771 6.3364 13.5035 6.03511L17.9554 1.92565C18.3276 1.58208 18.9074 1.98125 18.7193 2.45155C18.5764 2.80873 18.3285 3.11418 18.0085 3.32756L15.7821 4.81183C15.6478 4.90132 15.6478 5.09856 15.7821 5.18805C17.585 6.38999 19.9999 5.09756 19.9999 2.93073V0.299492C19.9999 0.143516 19.8586 0.0256227 19.7052 0.0535246L16.9602 0.552614C15.5355 0.811651 14.4999 2.0525 14.4999 3.50056C14.4999 3.81493 14.3519 4.11095 14.1004 4.29957L12.8421 5.24328C12.6458 5.39055 12.371 5.37102 12.1974 5.19746L11.8089 4.80896C11.6382 4.63829 11.3615 4.63829 11.1909 4.80896C11.0738 4.926 11.033 5.09913 11.0853 5.25617L11.2891 5.86748C11.4259 6.27802 11.4259 6.72186 11.2891 7.13239L10.8985 8.30418C10.6549 9.03485 10.0134 9.56075 9.24919 9.65628L8.09208 9.80092C7.05663 9.93035 6.08762 10.3805 5.32085 11.0883L0.466785 15.569C0.228916 15.7885 0.259226 16.1728 0.528576 16.3524L0.865562 16.577C1.26186 16.8412 1.4999 17.286 1.4999 17.7623C1.4999 18.6612 2.3223 19.3355 3.20378 19.1592L3.69165 19.0616C3.89143 19.0216 4.09883 19.0494 4.28106 19.1405L5.04166 19.5208C5.55987 19.7799 6.18912 19.5458 6.41195 19.011L7.99383 15.2145C8.32255 14.4256 8.8953 13.7627 9.62816 13.323L10.328 12.9031C10.7717 12.6368 11.1596 12.2871 11.47 11.8731L11.9992 11.1676C12.2891 10.781 12.8141 10.657 13.2464 10.8732L17.761 13.1305C18.1942 13.3471 18.04 13.9999 17.5557 13.9999C17.1933 13.9999 16.839 13.8927 16.5374 13.6916L14.3105 12.207C14.1689 12.1126 13.9775 12.2018 13.9587 12.371C13.7419 14.3215 15.5948 15.8554 17.4705 15.2782L19.7626 14.5729C19.8939 14.5325 19.968 14.3938 19.9286 14.2622L19.3507 12.3359C18.879 10.7636 17.2313 9.86239 15.653 10.3133L15.1642 10.453C15.0577 10.4834 14.9441 10.4776 14.8412 10.4365L12.8736 9.6494C12.6554 9.56214 12.5274 9.33474 12.5661 9.10297ZM2.46447 15.0355L5.23223 12.2678C5.38012 12.1199 5.61988 12.1199 5.76777 12.2678C5.90102 12.401 5.91601 12.612 5.80294 12.7627L3.45442 15.8941C3.21458 16.2139 2.74712 16.2471 2.46447 15.9645C2.20795 15.7079 2.20795 15.2921 2.46447 15.0355Z" fill="#653024"/>
</g>
<defs>
<clipPath id="clip0_1648_3508">
<rect width="20" height="20" fill="white"/>
</clipPath>
</defs>
</svg>
