<svg width="20" height="20" viewBox="0 0 20 20" fill="none" xmlns="http://www.w3.org/2000/svg">
<g clip-path="url(#clip0_1648_3510)">
<path fill-rule="evenodd" clip-rule="evenodd" d="M19.3865 0.357082C19.7415 0.570499 19.8563 1.03129 19.6429 1.38629C19.129 2.24113 18.6474 2.93163 17.9916 3.60054C17.3644 4.2402 16.5999 4.83785 15.5381 5.5433C18.1747 7.09249 18.4844 10.6566 15 12.5001C12.5816 13.7795 11.1414 15.5901 10.6711 18.5934C10.5333 19.4736 9.44644 19.8906 8.91295 19.1771C5.04757 14.0074 6.25256 8.72825 9.76934 6.33054C8.30002 6.12358 6.86226 6.45631 5.60218 7.14878C3.64807 8.22266 2.1711 10.1384 1.73297 12.1589C1.65353 12.5252 1.31577 12.7767 0.942018 12.7477C0.568263 12.7187 0.273311 12.4182 0.251301 12.044C-0.0218782 7.39911 2.74645 4.51092 6.05393 3.29596C9.08194 2.18365 12.7238 2.41489 15.0359 4.07279C15.8724 3.49971 16.4533 3.0269 16.9205 2.55042C17.4626 1.99742 17.875 1.41564 18.3573 0.613443C18.5707 0.258441 19.0315 0.143665 19.3865 0.357082ZM13.6188 4.95402L13.4909 5.03076C12.9151 5.07973 12.362 5.18648 11.8367 5.34536C9.3985 4.35941 6.91379 4.7164 4.87976 5.83421C4.30548 6.1498 3.76412 6.52745 3.26664 6.95506C4.12953 5.91981 5.28975 5.17467 6.57115 4.70396C9.02322 3.80322 11.7806 3.95828 13.6188 4.95402ZM13.3354 7.67074C13.7059 7.4855 13.8561 7.03499 13.6708 6.66451C13.4856 6.29403 13.0351 6.14386 12.6646 6.3291C10.9379 7.19245 10.0847 8.63158 9.66776 9.81281C9.45929 10.4035 9.35549 10.9402 9.30345 11.3305C9.27734 11.5263 9.264 11.6872 9.25718 11.8021C9.25376 11.8596 9.25197 11.9057 9.25103 11.9391C9.25056 11.9558 9.2503 11.9694 9.25016 11.9795L9.25003 11.9923L9.25001 11.9968L9.25 11.9985V11.9999C9.25 12.4141 9.58579 12.7499 10 12.7499C10.414 12.7499 10.7497 12.4141 10.75 12.0001L10.7504 11.9814C10.751 11.9627 10.7521 11.9322 10.7545 11.8911C10.7594 11.8087 10.7695 11.6845 10.7903 11.5287C10.832 11.2159 10.9157 10.7839 11.0822 10.312C11.4153 9.36826 12.0621 8.30739 13.3354 7.67074Z" fill="#653024"/>
</g>
<defs>
<clipPath id="clip0_1648_3510">
<rect width="20" height="20" fill="white"/>
</clipPath>
</defs>
</svg>
