<svg width="20" height="20" viewBox="0 0 20 20" fill="none" xmlns="http://www.w3.org/2000/svg">
<g clip-path="url(#clip0_1648_3518)">
<path d="M11 0V2.36656C12.0658 1.89614 13.2665 1.86718 14.3388 2.24971C14.7316 1.90294 15.3315 1.91734 15.7071 2.29289L16.2071 2.79289C16.4857 3.07145 16.5655 3.47344 16.4467 3.82279C16.5126 3.91279 16.5757 4.006 16.636 4.10239C16.8555 4.45364 16.7487 4.91636 16.3975 5.13589C16.0462 5.35542 15.5835 5.24864 15.364 4.89739C14.4136 3.37677 12.3789 3.04437 11 4.09835V5.86747C11.438 5.77803 11.8824 5.74407 12.3231 5.76394C12.5012 5.60006 12.7389 5.5 13 5.5H13.5C13.9915 5.5 14.4002 5.85462 14.4842 6.32198C14.9351 6.54575 15.359 6.83483 15.7411 7.18681L16.4661 7.0418C16.65 7.00502 16.8303 6.95525 17.0057 6.89316C17.0291 6.67392 17.1248 6.46094 17.2929 6.29289L17.7929 5.79289C18.1768 5.40894 18.7953 5.40248 19.1872 5.77351C19.3129 5.80579 19.4319 5.87114 19.5303 5.96956C19.8232 6.26245 19.8232 6.73733 19.5303 7.03022C19.2789 7.28165 19.0046 7.50649 18.7119 7.70234L18.7071 7.70711C18.5869 7.8273 18.4437 7.9105 18.2917 7.95671C17.8147 8.21673 17.2988 8.40498 16.7603 8.51267L16.502 8.56433C16.9412 9.25538 17.8144 9.60451 18.6481 9.32661L18.7628 9.28838C19.1557 9.15739 19.5805 9.36976 19.7115 9.76272C19.8425 10.1557 19.6301 10.5804 19.2371 10.7114L19.1224 10.7496C17.2514 11.3733 15.2704 10.2534 14.8112 8.3721C14.4095 7.97899 13.9383 7.68638 13.433 7.5H13C12.7566 7.5 12.5336 7.41306 12.3602 7.26855C11.9068 7.23596 11.4463 7.28231 11 7.41106V9.33741C11.1845 9.44872 11.3815 9.53463 11.5858 9.59402C11.7415 9.24404 12.0923 9 12.5 9H13C13.2821 9 13.5369 9.11678 13.7187 9.30463L13.7214 9.30353C14.106 9.1497 14.5425 9.33676 14.6963 9.72134C14.8502 10.1059 14.6631 10.5424 14.2785 10.6962L13.7481 10.9084C12.8518 11.2669 11.878 11.2795 11 10.9818V12.6162C11.076 12.6957 11.1476 12.78 11.2143 12.8691C11.5044 13.2558 11.9804 13.4444 12.4467 13.3737C12.5931 13.0721 12.7819 12.8043 13.0027 12.5739C13.0009 12.5495 13 12.5249 13 12.5C13 11.9477 13.4477 11.5 14 11.5H14.5C14.6678 11.5 14.826 11.5413 14.9649 11.6144C15.6655 11.5403 16.3998 11.6984 17.0472 12.13L17.416 12.3759C17.7606 12.6056 17.8538 13.0713 17.624 13.4159C17.3942 13.7606 16.9286 13.8537 16.5839 13.6239L16.2151 13.378C15.9303 13.1882 15.6135 13.0989 15.3019 13.0976C15.1196 13.3418 14.8283 13.5 14.5 13.5H14.2052C14.1985 13.5058 14.1917 13.5117 14.185 13.5176C14.6644 13.7469 15.0669 14.1109 15.3437 14.5606C15.7267 14.7008 16 15.0685 16 15.5V16C16 16.5523 15.5523 17 15 17C14.4477 17 14 16.5523 14 16V15.5C14 15.4253 14.0082 15.3525 14.0237 15.2825C13.8169 14.988 13.4863 14.7867 13.1074 14.7544C12.3952 14.983 11.6404 14.9126 11 14.5922V15.4062L11.0898 15.4212C12.6174 15.6758 13.6032 17.1793 13.2276 18.6818C13.1271 19.0836 12.7199 19.328 12.3181 19.2275C11.9162 19.127 11.6719 18.7198 11.7724 18.318C11.9224 17.7179 11.5728 17.1175 11 16.9382V19C11 19.5523 10.5523 20 10 20C9.44772 20 9 19.5523 9 19V13.2502C8.99031 13.25 8.9806 13.2499 8.97088 13.2499C8.79949 13.2499 8.63655 13.2817 8.48707 13.3393C8.53671 13.6457 8.44338 13.9708 8.20711 14.2071L7.70711 14.7071C7.68513 14.7291 7.66238 14.7498 7.63895 14.7693C7.64048 14.7801 7.64215 14.7909 7.64395 14.8018L7.70406 15.1624C8.37942 15.9957 8.44549 17.1837 7.83953 18.0926L7.624 18.4159C7.39423 18.7606 6.92858 18.8537 6.58393 18.6239C6.23929 18.3942 6.14616 17.9285 6.37592 17.5839L6.59146 17.2606C6.77508 16.9851 6.80206 16.6446 6.68364 16.3528C6.14974 16.4489 5.6046 16.4344 5.08156 16.3137C4.69089 16.5936 4.14389 16.5581 3.79289 16.2071L3.29289 15.7071C2.90237 15.3166 2.90237 14.6834 3.29289 14.2929C3.68342 13.9024 4.31658 13.9024 4.70711 14.2929L5.20711 14.7929C5.20695 14.7927 5.20727 14.7931 5.20711 14.7929C5.50896 14.8913 5.82769 14.9316 6.14474 14.9102C6.12802 14.7678 6.12228 14.6267 6.12681 14.4879C5.91379 14.1071 5.96915 13.6166 6.29289 13.2929L6.68254 12.9032C7.19862 12.2082 8.02719 11.7499 8.97088 11.7499L9 11.75V9.59357L8.8648 9.57104C8.4701 9.50526 8.07575 9.5522 7.72046 9.6935C7.71606 9.69807 7.71161 9.70261 7.70711 9.70711L7.20711 10.2071C7.07524 10.339 6.91572 10.4263 6.74721 10.4691C6.71328 10.5184 6.68121 10.5694 6.65114 10.622C6.055 11.6652 4.99668 12.329 3.8388 12.4411C3.733 12.4792 3.61892 12.5 3.5 12.5H3C2.79677 12.5 2.6077 12.4394 2.44988 12.3352L1.87666 12.2397C1.46808 12.1716 1.19207 11.7852 1.26016 11.3766C1.32826 10.968 1.71468 10.692 2.12326 10.7601L2.29679 10.789C2.47744 10.6103 2.72584 10.5 3 10.5H3.5C3.79115 10.5 4.05325 10.6244 4.236 10.823C4.69587 10.6516 5.09405 10.3236 5.34878 9.87778C5.3986 9.7906 5.45164 9.70607 5.50771 9.62428C5.47089 9.3287 5.56596 9.01983 5.79289 8.79289L6.29289 8.29289C6.63659 7.9492 7.16821 7.90798 7.55698 8.16925C8.0184 8.04375 8.50806 8.00811 9 8.07464V5.95714L8.77525 5.88222C8.18914 5.68685 7.5665 5.70304 7.00694 5.90728L6.70711 6.20711C6.55666 6.35755 6.37021 6.45004 6.17549 6.48457C5.80653 8.10954 4.46871 9.2659 2.91717 9.49704L2.70711 9.70711C2.31658 10.0976 1.68342 10.0976 1.29289 9.70711C1.17998 9.59419 1.09971 9.46099 1.05209 9.31924C1.02208 9.30878 0.992102 9.29794 0.962154 9.28671L0.736616 9.20214C0.348776 9.0567 0.152272 8.62439 0.297712 8.23655C0.443152 7.84871 0.875462 7.6522 1.2633 7.79764L1.48884 7.88222C1.54223 7.90224 1.5958 7.92026 1.64946 7.93633L1.79289 7.79289C2.18342 7.40237 2.81658 7.40237 3.20711 7.79289C3.22742 7.81321 3.24668 7.83418 3.26489 7.85575C3.7164 7.66994 4.10888 7.35055 4.38055 6.93494C3.49383 7.02019 2.60921 6.85987 1.8193 6.48363C1.62647 6.44838 1.442 6.35621 1.29289 6.20711L1.24939 6.1636C0.971015 5.98168 0.709432 5.77002 0.469629 5.53022C0.176736 5.23733 0.176736 4.76245 0.469629 4.46956C0.568079 4.37111 0.68709 4.30575 0.812839 4.27348C1.20469 3.90248 1.82316 3.90895 2.20711 4.29289L2.70711 4.79289C2.85806 4.94385 2.95067 5.13107 2.98492 5.32651C3.46063 5.46298 3.96709 5.49502 4.46912 5.41135L5.01621 5.32017C5.05134 5.12702 5.14357 4.94222 5.29289 4.79289L5.79289 4.29289C6.18342 3.90237 6.81658 3.90237 7.20711 4.29289C7.21109 4.29688 7.21504 4.30089 7.21895 4.30493C7.80313 4.20453 8.41032 4.22787 9 4.38452V3.56059L8.96963 3.53022C7.88181 2.4424 6.11811 2.4424 5.03029 3.53022C4.7374 3.82311 4.26252 3.82311 3.96963 3.53022C3.67674 3.23733 3.67674 2.76245 3.96963 2.46956C4.00307 2.43612 4.03692 2.40335 4.07118 2.37124C4.02526 2.25646 4 2.13118 4 2C4 1.44772 4.44772 1 5 1H5.5C5.77401 1 6.02228 1.11021 6.2029 1.28871C7.1445 1.11137 8.13408 1.25126 9 1.7084V0H11Z" fill="#653024"/>
</g>
<defs>
<clipPath id="clip0_1648_3518">
<rect width="20" height="20" fill="white"/>
</clipPath>
</defs>
</svg>
