<svg width="20" height="20" viewBox="0 0 20 20" fill="none" xmlns="http://www.w3.org/2000/svg">
<path d="M14.6869 7.36883C14.7387 7.34757 14.7902 7.32602 14.8415 7.30416C15.1637 7.16688 15.5318 7.37245 15.5448 7.72242C15.5961 9.10732 15.5213 12.0001 14 12.0001C13.3443 12.0001 13.1644 11.5742 12.9923 11.1671C12.8745 10.8884 12.7605 10.6185 12.5 10.5001C12.1283 10.3311 11.8092 10.3848 11.4931 10.438C11.0384 10.5145 10.5899 10.59 10 10.0001C9.98971 9.9898 9.97906 9.97873 9.96829 9.96713L9.95136 9.9486C9.80113 9.78152 9.61113 9.50258 9.44051 9.23384C9.26019 8.94983 9.42222 8.59517 9.72348 8.49669C9.81507 8.49889 9.90725 8.5 10 8.5C11.8771 8.5 13.5207 8.04488 14.6869 7.36883Z" fill="#653024"/>
<path fill-rule="evenodd" clip-rule="evenodd" d="M18 13L18.5 10L18 5C18 2.23858 14.4183 0 10 0C5.58172 0 2 2.23858 2 5L1.5 8L2 15C2 17.7614 5.58172 20 10 20C14.4183 20 17.5 18.5 18 15V13ZM7.97296 8.31538C7.77706 8.83899 7.8028 9.4529 8.17418 10.0378C8.35153 10.3172 8.64785 10.7693 8.93934 11.0608C9.32619 11.4476 9.76156 11.7349 10.2639 11.8818C10.7611 12.0273 11.1947 11.9959 11.4831 11.9575C11.5634 11.9468 11.6311 11.9376 11.6878 11.9298C11.6968 11.95 11.7059 11.9701 11.715 11.9897C11.8215 12.2196 12.0287 12.6271 12.4331 12.962C12.8797 13.3319 13.4233 13.5001 14 13.5001C14.9442 13.5001 15.6464 13.0171 16.0894 12.4278C16.4929 11.891 16.7035 11.2501 16.8253 10.7111C17.072 9.61889 17.0706 8.39072 17.0438 7.66687C17.0168 6.93824 16.6485 6.39673 16.1446 6.08211C16.3936 5.70237 16.5 5.33164 16.5 5C16.5 4.46897 16.2273 3.83771 15.5328 3.2297L14.6608 4.85457C14.4649 5.21955 14.0102 5.35663 13.6452 5.16076C13.2803 4.96489 13.1432 4.51024 13.3391 4.14526L14.2707 2.40934C13.7282 2.14369 13.1039 1.9231 12.4167 1.76573L11.3576 3.84087C11.1693 4.20981 10.7175 4.35624 10.3486 4.16793C9.97966 3.97963 9.83323 3.52789 10.0215 3.15896L10.8521 1.5317C10.5742 1.51086 10.2899 1.5 10 1.5C9.53195 1.5 9.07841 1.5283 8.64318 1.58126L7.16134 4.35347C6.96607 4.71877 6.51164 4.85662 6.14634 4.66135C5.78104 4.46608 5.6432 4.01166 5.83847 3.64636L6.71379 2.00881C6.11947 2.20705 5.58891 2.45474 5.13814 2.73646C3.94315 3.48334 3.5 4.3231 3.5 5C3.5 5.6769 3.94315 6.51666 5.13814 7.26354C5.88724 7.73172 6.85671 8.10589 7.97296 8.31538ZM4.75 10.0001C4.75 9.58588 4.41421 9.2501 4 9.2501C3.58579 9.2501 3.25 9.58588 3.25 10.0001V15.0001C3.25 15.4143 3.58579 15.7501 4 15.7501C4.41421 15.7501 4.75 15.4143 4.75 15.0001V10.0001ZM7.75 12.5001C7.75 12.0859 7.41421 11.7501 7 11.7501C6.58579 11.7501 6.25 12.0859 6.25 12.5001V14.5001C6.25 14.9143 6.58579 15.2501 7 15.2501C7.41421 15.2501 7.75 14.9143 7.75 14.5001V12.5001Z" fill="#653024"/>
</svg>
