<svg width="20" height="20" viewBox="0 0 20 20" fill="none" xmlns="http://www.w3.org/2000/svg">
<g clip-path="url(#clip0_1648_3522)">
<path fill-rule="evenodd" clip-rule="evenodd" d="M10.3292 4.66459C10.144 5.03507 10.2942 5.48558 10.6646 5.67082L11.4237 6.05033C11.5763 6.12665 11.6093 6.33006 11.4886 6.45072L11.2626 6.67678C11.2157 6.72366 11.1521 6.75 11.0858 6.75H9.00008C8.86201 6.75 8.75008 6.63807 8.75008 6.49999L8.7501 6.00002C8.75011 5.58581 8.41434 5.25001 8.00013 5.25C7.58591 5.24999 7.25011 5.58576 7.2501 5.99997L7.25008 6.49994C7.25005 7.46646 8.03356 8.25 9.00008 8.25H11.0858C11.5499 8.25 11.995 8.06563 12.3232 7.73746L12.5493 7.5114C13.3939 6.66678 13.1629 5.24288 12.0945 4.70869L11.3355 4.32918C10.965 4.14394 10.5145 4.29411 10.3292 4.66459Z" fill="#653024"/>
<path fill-rule="evenodd" clip-rule="evenodd" d="M10 20C15.5228 20 20 15.5228 20 10C20 4.47715 15.5228 0 10 0C4.47715 0 0 4.47715 0 10C0 15.5228 4.47715 20 10 20ZM2.75011 6.75C2.75011 5.38214 3.4876 4.08659 4.79325 3.10736C6.09913 2.12795 7.93755 1.5 10.0001 1.5C12.0627 1.5 13.9011 2.12795 15.207 3.10736C16.5126 4.08659 17.2501 5.38214 17.2501 6.75C17.2501 8.11786 16.5126 9.41341 15.207 10.3926C13.9011 11.372 12.0627 12 10.0001 12C7.93755 12 6.09913 11.372 4.79325 10.3926C3.4876 9.41341 2.75011 8.11786 2.75011 6.75ZM18.1138 13.2814C18.2692 12.8975 18.084 12.4602 17.7 12.3048C17.316 12.1494 16.8788 12.3346 16.7234 12.7186C16.5005 13.2693 16.2117 13.7867 15.8666 14.2608C15.6315 14.5839 15.3704 14.8869 15.0862 15.1666C14.6494 15.5967 14.1583 15.9718 13.6246 16.2805C13.2434 16.501 12.8404 16.6877 12.4197 16.8367C12.7177 16.2629 12.9671 15.5856 13.1661 14.844C13.2734 14.4439 13.0361 14.0326 12.636 13.9253C12.2359 13.8179 11.8246 14.0553 11.7173 14.4553C11.4583 15.4208 11.1295 16.1651 10.7837 16.65C10.4268 17.1503 10.1489 17.25 10.0001 17.25C9.53889 17.25 9.01821 16.9934 8.49574 16.3538C7.97499 15.7164 7.51352 14.7645 7.1951 13.5738C7.0881 13.1737 6.67696 12.936 6.27681 13.043C5.87666 13.15 5.63902 13.5612 5.74602 13.9613C6.10119 15.2894 6.64047 16.4538 7.33408 17.3028C8.02597 18.1498 8.93328 18.75 10.0001 18.75C10.7956 18.75 11.5674 18.6437 12.3015 18.444C13.036 18.2442 13.7319 17.9513 14.3756 17.5789C15.0199 17.2063 15.612 16.7539 16.1386 16.2355C16.4811 15.8983 16.796 15.5331 17.0795 15.1434C17.4957 14.5715 17.8444 13.9469 18.1138 13.2814ZM3.82139 13.795C3.60424 13.4423 3.14225 13.3324 2.78953 13.5496C2.4368 13.7667 2.3269 14.2287 2.54405 14.5814C3.14611 15.5594 3.93496 16.4095 4.86096 17.0825C5.19603 17.326 5.66507 17.2518 5.90858 16.9167C6.1521 16.5817 6.07788 16.1126 5.74281 15.8691C4.97475 15.3109 4.32044 14.6056 3.82139 13.795Z" fill="#653024"/>
</g>
<defs>
<clipPath id="clip0_1648_3522">
<rect width="20" height="20" fill="white"/>
</clipPath>
</defs>
</svg>
