<svg width="20" height="20" viewBox="0 0 20 20" fill="none" xmlns="http://www.w3.org/2000/svg">
<g clip-path="url(#clip0_1648_3524)">
<path fill-rule="evenodd" clip-rule="evenodd" d="M10 20C15.5228 20 20 15.5228 20 10C20 4.47715 15.5228 0 10 0C4.47715 0 0 4.47715 0 10C0 15.5228 4.47715 20 10 20ZM7.21154 6.73708C7.58886 5.60462 8.27424 4.56407 8.93444 3.80451C9.2633 3.42616 9.57305 3.13242 9.81645 2.94047C9.9296 2.85124 10.0176 2.79261 10.0779 2.75837C10.2533 2.7943 10.5335 2.95812 10.8707 3.47823C11.0564 3.7647 11.2372 4.12861 11.4037 4.56591C11.5116 4.84921 11.6123 5.1599 11.7038 5.4953C11.8382 5.98771 11.952 6.53012 12.0404 7.11256C12.1026 7.52208 12.485 7.80367 12.8945 7.74151C13.304 7.67934 13.5856 7.29696 13.5234 6.88744C13.4272 6.25364 13.302 5.65413 13.1509 5.10042C13.0479 4.72316 12.9326 4.36564 12.8055 4.03199C12.688 3.72353 12.5594 3.43247 12.4196 3.16334C12.8405 3.3123 13.2434 3.49904 13.6245 3.71946C13.983 3.92687 14.4418 3.80435 14.6492 3.4458C14.8566 3.08726 14.7341 2.62846 14.3755 2.42105C13.0878 1.67612 11.5925 1.25 10 1.25C8.49256 1.25 7.07206 1.63182 5.83219 2.30463C5.24874 2.62124 4.70555 3.00213 4.21205 3.4377C3.83403 3.77134 3.48507 4.13716 3.16944 4.5309C2.91036 4.85409 2.96234 5.32611 3.28553 5.58519C3.60872 5.84426 4.08074 5.79229 4.33982 5.4691C4.6016 5.14254 4.89107 4.83908 5.20465 4.5623C5.61404 4.20097 6.06436 3.88526 6.54762 3.62303C6.8496 3.45916 7.16454 3.31611 7.49058 3.19582C6.83543 4.02092 6.18156 5.08309 5.78846 6.26292C5.65752 6.6559 5.86995 7.08061 6.26292 7.21154C6.6559 7.34248 7.08061 7.13005 7.21154 6.73708ZM17.0794 4.85657C16.8357 4.52165 16.3666 4.44771 16.0317 4.69143C15.6967 4.93515 15.6228 5.40423 15.8665 5.73915C16.2116 6.21335 16.5004 6.7307 16.7233 7.28141C16.925 7.77985 17.073 8.30587 17.1598 8.85245C17.2248 9.26153 17.6091 9.54046 18.0182 9.47546C18.4273 9.41046 18.7062 9.02614 18.6412 8.61706C18.5363 7.95687 18.3576 7.32107 18.1137 6.71859C17.8443 6.05306 17.4955 5.42849 17.0794 4.85657ZM9.73544 7.64709C9.81667 7.24092 9.55326 6.8458 9.14709 6.76456C8.74092 6.68333 8.3458 6.94674 8.26456 7.35291C7.99705 8.69046 7.99914 10.012 8.06416 10.9874C8.09686 11.4779 8.14595 11.8874 8.18723 12.1764C8.20788 12.321 8.22664 12.4358 8.24051 12.5158C8.24745 12.5558 8.25317 12.5872 8.2573 12.6092L8.26226 12.6353L8.26376 12.643L8.26456 12.6471C8.26456 12.6471 8.26456 12.6471 9 12.5L8.26456 12.6471C8.3458 13.0533 8.74092 13.3167 9.14709 13.2354C9.55317 13.1542 9.81651 12.759 9.73544 12.3529L9.7349 12.3502L9.73171 12.3334C9.72877 12.3176 9.72423 12.2928 9.71847 12.2596C9.70695 12.1931 9.69055 12.0931 9.67215 11.9642C9.6353 11.7063 9.59064 11.3346 9.56084 10.8876C9.50086 9.988 9.50294 8.80954 9.73544 7.64709ZM2.97836 8.18694C3.08161 7.7858 2.84012 7.37692 2.43898 7.27367C2.03784 7.17043 1.62895 7.41192 1.52571 7.81306C1.34559 8.51285 1.25 9.24581 1.25 10C1.25 10.4672 1.28668 10.9263 1.35745 11.3745C1.42205 11.7837 1.80609 12.063 2.21524 11.9984C2.62439 11.9338 2.90369 11.5497 2.83909 11.1406C2.7805 10.7695 2.75 10.3885 2.75 10C2.75 9.37299 2.82942 8.76563 2.97836 8.18694ZM5.85045 8.44485C5.90436 8.03416 5.61514 7.65753 5.20445 7.60361C4.79376 7.5497 4.41713 7.83892 4.36321 8.24961C4.28892 8.81551 4.25 9.40098 4.25 10C4.25 10.542 4.28186 11.073 4.34296 11.5883C4.39173 11.9996 4.76471 12.2936 5.17605 12.2448C5.58738 12.196 5.8813 11.823 5.83253 11.4117C5.77842 10.9553 5.75 10.4834 5.75 10C5.75 9.4658 5.78471 8.94556 5.85045 8.44485ZM15.709 8.94172C15.6769 8.52876 15.316 8.22008 14.903 8.25227C14.4901 8.28445 14.1814 8.64532 14.2136 9.05828C14.2376 9.36644 14.25 9.68074 14.25 10C14.25 11.0007 14.1282 11.9515 13.9095 12.8161C13.8079 13.2176 14.051 13.6255 14.4526 13.7271C14.8542 13.8287 15.2621 13.5855 15.3636 13.184C15.6137 12.1957 15.75 11.1211 15.75 10C15.75 9.64194 15.7361 9.28875 15.709 8.94172ZM12.75 10C12.75 9.58579 12.4142 9.25 12 9.25C11.5858 9.25 11.25 9.58579 11.25 10C11.25 10.501 11.2382 10.9906 11.2157 11.4645C11.1961 11.8782 11.5156 12.2295 11.9294 12.2492C12.3431 12.2688 12.6944 11.9493 12.7141 11.5355C12.7377 11.0377 12.75 10.5244 12.75 10ZM18.1137 13.2814C18.2691 12.8975 18.0838 12.4602 17.6999 12.3048C17.3159 12.1494 16.8787 12.3346 16.7233 12.7186C16.5004 13.2693 16.2116 13.7867 15.8665 14.2608C15.6314 14.5839 15.3703 14.8869 15.0861 15.1666C14.6492 15.5967 14.1582 15.9718 13.6245 16.2805C13.2433 16.501 12.8403 16.6877 12.4196 16.8367C12.7176 16.2629 12.967 15.5856 13.1659 14.844C13.2733 14.4439 13.036 14.0326 12.6359 13.9253C12.2358 13.8179 11.8245 14.0553 11.7172 14.4553C11.4582 15.4208 11.1294 16.1651 10.7836 16.65C10.4267 17.1503 10.1487 17.25 10 17.25C9.53878 17.25 9.01811 16.9934 8.49563 16.3538C7.97488 15.7164 7.51341 14.7645 7.195 13.5738C7.08799 13.1737 6.67686 12.936 6.2767 13.043C5.87655 13.15 5.63891 13.5612 5.74592 13.9613C6.10108 15.2894 6.64036 16.4538 7.33398 17.3028C8.02587 18.1498 8.93318 18.75 10 18.75C10.7955 18.75 11.5673 18.6437 12.3014 18.444C13.0359 18.2442 13.7318 17.9513 14.3755 17.5789C15.0198 17.2062 15.6119 16.7539 16.1385 16.2355C16.481 15.8983 16.7959 15.5331 17.0794 15.1434C17.4955 14.5715 17.8443 13.9469 18.1137 13.2814ZM3.82129 13.795C3.60413 13.4423 3.14215 13.3324 2.78942 13.5496C2.4367 13.7667 2.32679 14.2287 2.54395 14.5814C3.14601 15.5594 3.93486 16.4095 4.86085 17.0825C5.19592 17.326 5.66496 17.2518 5.90848 16.9167C6.152 16.5817 6.07778 16.1126 5.74271 15.8691C4.97465 15.3109 4.32033 14.6056 3.82129 13.795Z" fill="#653024"/>
</g>
<defs>
<clipPath id="clip0_1648_3524">
<rect width="20" height="20" fill="white"/>
</clipPath>
</defs>
</svg>
