<svg width="20" height="20" viewBox="0 0 20 20" fill="none" xmlns="http://www.w3.org/2000/svg">
<g clip-path="url(#clip0_1648_3526)">
<path d="M13.6646 4.67086C13.2941 4.48562 13.1439 4.03511 13.3292 3.66463C13.5144 3.29414 13.9649 3.14398 14.3354 3.32922C15.5318 3.92742 16.1428 4.83752 16.4464 5.5965C16.5966 5.97206 16.6719 6.31028 16.71 6.55787C16.7292 6.68216 16.7391 6.78514 16.7443 6.86055C16.7469 6.8983 16.7483 6.92929 16.7491 6.95276L16.7498 6.98227L16.75 6.99266L16.75 6.99673L16.75 6.99848V7.00004C16.75 7.41425 16.4142 7.75004 16 7.75004C15.5876 7.75004 15.253 7.41724 15.25 7.00558L15.2499 7.00191C15.2497 6.99559 15.2492 6.98264 15.2479 6.96375C15.2453 6.92587 15.2396 6.86479 15.2275 6.78596C15.2031 6.62729 15.1534 6.40302 15.0536 6.15358C14.8572 5.66255 14.4682 5.07265 13.6646 4.67086Z" fill="#653024"/>
<path d="M6.67082 3.66463C6.85606 4.03511 6.70589 4.48562 6.33541 4.67086C5.53182 5.07265 5.14277 5.66255 4.94636 6.15358C4.84658 6.40302 4.79694 6.62729 4.77253 6.78596C4.7604 6.86479 4.75474 6.92587 4.75213 6.96375C4.75083 6.98264 4.75029 6.99559 4.75009 7.00191L4.74998 7.00558C4.747 7.41724 4.41236 7.75004 4 7.75004C3.58579 7.75004 3.25 7.41425 3.25 7.00004V6.99848L3.25001 6.99673L3.25003 6.99266L3.25016 6.98227L3.25089 6.95276C3.25166 6.92929 3.25308 6.8983 3.25568 6.86055C3.26088 6.78514 3.27085 6.68216 3.28997 6.55787C3.32806 6.31028 3.40342 5.97206 3.55364 5.5965C3.85723 4.83752 4.46818 3.92742 5.66459 3.32922C6.03507 3.14398 6.48558 3.29414 6.67082 3.66463Z" fill="#653024"/>
<path fill-rule="evenodd" clip-rule="evenodd" d="M4.13575 14.4875C1.64301 14.0861 0 11.4991 0 8.00009C0 5.29667 1.09393 2.71141 3.03207 1.2843C4.01324 0.56183 5.1993 0.149484 6.51536 0.19028C7.01087 0.19028 7.51027 0.395352 7.88416 0.599095C8.26846 0.808516 8.74804 0.834678 9.1122 0.591906L9.4453 0.369839C9.7812 0.145906 10.2188 0.145907 10.5547 0.369841L10.8878 0.591902C11.2519 0.834676 11.7315 0.808514 12.1158 0.59909C12.4897 0.395344 12.9891 0.190269 13.4846 0.190269C14.8007 0.149464 15.9868 0.561799 16.9679 1.28426C18.9061 2.71135 20 5.2966 20 8.00002C20 11.499 18.357 14.0861 15.8643 14.4875C15.2797 17.639 12.8762 20 10 20C7.12381 20 4.7203 17.639 4.13575 14.4875ZM11 5.75407C11 4.06743 11.8608 2.24158 13.5466 2.18931C14.3868 2.16326 15.1382 2.4207 15.7821 2.89477C17.0939 3.86073 18 5.77552 18 8.00002C18 10.627 16.9941 11.9531 15.9769 12.3814C15.7376 9.19381 13.6671 6.61886 11 6.09682V5.75407ZM9 6.09682V5.75406C9 4.06743 8.13921 2.24158 6.45339 2.18932C5.6132 2.16328 4.86176 2.42073 4.21793 2.8948C2.90607 3.86078 2 5.77559 2 8.00009C2 10.6271 3.00588 11.9532 4.02311 12.3814C4.26236 9.19383 6.33284 6.61887 9 6.09682ZM9.69935 9.0609C9.73298 8.64806 9.42557 8.28611 9.01272 8.25248C8.59988 8.21884 8.23793 8.52625 8.2043 8.9391C8.06607 10.6358 8.1993 12.0477 8.41846 13.1467C8.49947 13.5529 8.89445 13.8165 9.30066 13.7355C9.70688 13.6545 9.97051 13.2595 9.8895 12.8533C9.69599 11.883 9.57307 10.6109 9.69935 9.0609ZM13.75 10.5C13.75 10.0858 13.4142 9.75 13 9.75C12.5858 9.75 12.25 10.0858 12.25 10.5C12.25 11.6268 11.8951 12.5053 11.4481 13.1725C11.2175 13.5166 11.3096 13.9825 11.6537 14.213C11.9978 14.4436 12.4637 14.3515 12.6942 14.0074C13.2828 13.1289 13.75 11.9643 13.75 10.5ZM7.12404 14.584C6.89427 14.2393 6.42862 14.1462 6.08397 14.376C5.73933 14.6057 5.6462 15.0714 5.87596 15.416C6.60991 16.5169 7.85579 16.6292 8.68728 16.5599C8.81221 16.5495 8.93353 16.5347 9.04966 16.517C8.93076 16.8501 8.74764 17.1917 8.46967 17.4697C8.17678 17.7626 8.17678 18.2374 8.46967 18.5303C8.76256 18.8232 9.23744 18.8232 9.53033 18.5303C10.0858 17.9749 10.3832 17.3127 10.5445 16.7697C10.5735 16.7835 10.6029 16.797 10.6329 16.8104C11.335 17.1224 12.3779 17.3161 13.416 16.624C13.7607 16.3943 13.8538 15.9286 13.624 15.584C13.3943 15.2393 12.9286 15.1462 12.584 15.376C12.1221 15.6839 11.665 15.6276 11.2421 15.4396C11.0286 15.3448 10.8447 15.223 10.7123 15.1222C10.6472 15.0726 10.5974 15.0302 10.5657 15.0019C10.5499 14.9879 10.5387 14.9776 10.5327 14.9718L10.5277 14.967C10.3159 14.7574 9.99998 14.6929 9.72295 14.803L9.72187 14.8035L9.70834 14.8086C9.69517 14.8136 9.67361 14.8215 9.64462 14.8315C9.58648 14.8517 9.49934 14.8803 9.39069 14.9108C9.17072 14.9727 8.87599 15.039 8.56272 15.0651C7.89421 15.1208 7.39009 14.9831 7.12404 14.584Z" fill="#653024"/>
</g>
<defs>
<clipPath id="clip0_1648_3526">
<rect width="20" height="20" fill="white"/>
</clipPath>
</defs>
</svg>
