<svg width="160" height="72" viewBox="0 0 160 72" fill="none" xmlns="http://www.w3.org/2000/svg">
<path d="M18.2257 43.0532C18.4054 43.3976 18.4952 43.7058 18.4952 43.9778C18.5132 44.2316 18.4413 44.4582 18.2796 44.6576C18.1178 44.8389 17.8483 45.0293 17.4709 45.2287C16.8958 45.5007 16.4465 45.5732 16.123 45.4463C15.8175 45.3194 15.53 44.9658 15.2604 44.3857L9.24897 31.5772L3.2645 44.3857C2.99493 44.9477 2.6984 45.2831 2.37492 45.3919C2.05143 45.5188 1.60215 45.4553 1.02706 45.2015C0.667637 45.0202 0.398066 44.8299 0.218352 44.6304C0.0566098 44.431 -0.0152757 44.1953 0.00269571 43.9234C0.0386384 43.6333 0.155452 43.2889 0.353138 42.89L7.76633 27.3078C7.9101 27.0177 8.11677 26.7911 8.38634 26.6279C8.67388 26.4466 8.97041 26.356 9.27592 26.356C9.49158 26.356 9.68927 26.3922 9.86898 26.4647C10.0487 26.5373 10.2104 26.646 10.3542 26.7911C10.516 26.9361 10.6507 27.1174 10.7586 27.3349L18.2257 43.0532ZM4.45061 40.4153L5.74455 37.6143H12.7803L14.0743 40.4153H4.45061Z" fill="#151313"/>
<path d="M21.9472 45.3375C21.444 45.3375 21.0756 45.265 20.842 45.1199C20.6083 44.9749 20.4646 44.7755 20.4107 44.5217C20.3567 44.2497 20.3298 43.9687 20.3298 43.6787V27.9876C20.3298 27.6975 20.3567 27.4347 20.4107 27.199C20.4825 26.9452 20.6353 26.7457 20.8689 26.6007C21.1026 26.4375 21.471 26.356 21.9742 26.356H27.6891C28.4798 26.356 29.2526 26.4919 30.0074 26.7639C30.7622 27.0358 31.4361 27.4437 32.0292 27.9876C32.6402 28.5315 33.1164 29.2023 33.4579 30C33.8173 30.7977 33.997 31.7313 33.997 32.801C33.997 33.8525 33.8173 34.7771 33.4579 35.5748C33.1164 36.3544 32.6402 37.0161 32.0292 37.56C31.4181 38.1038 30.7352 38.5118 29.9804 38.7837C29.2436 39.0556 28.4708 39.1916 27.6621 39.1916H23.5916V43.7058C23.5916 43.9959 23.5557 44.2679 23.4838 44.5217C23.4299 44.7755 23.2861 44.9749 23.0525 45.1199C22.8368 45.265 22.4684 45.3375 21.9472 45.3375ZM23.5916 35.8739H27.6891C28.2462 35.8739 28.7494 35.7651 29.1987 35.5476C29.6659 35.3119 30.0433 34.9674 30.3309 34.5142C30.6184 34.0428 30.7622 33.4536 30.7622 32.7466C30.7622 32.1121 30.6274 31.5682 30.3578 31.1149C30.1062 30.6436 29.7468 30.281 29.2795 30.0272C28.8303 29.7734 28.2911 29.6465 27.6621 29.6465H23.5916V35.8739Z" fill="#151313"/>
<path d="M51.1586 43.0532C51.3383 43.3976 51.4281 43.7058 51.4281 43.9778C51.4461 44.2316 51.3742 44.4582 51.2125 44.6576C51.0507 44.8389 50.7812 45.0293 50.4038 45.2287C49.8287 45.5007 49.3794 45.5732 49.0559 45.4463C48.7504 45.3194 48.4629 44.9658 48.1933 44.3857L42.1819 31.5772L36.1974 44.3857C35.9278 44.9477 35.6313 45.2831 35.3078 45.3919C34.9843 45.5188 34.535 45.4553 33.96 45.2015C33.6005 45.0202 33.331 44.8299 33.1512 44.6304C32.9895 44.431 32.9176 44.1953 32.9356 43.9234C32.9715 43.6333 33.0883 43.2889 33.286 42.89L40.6992 27.3078C40.843 27.0177 41.0497 26.7911 41.3192 26.6279C41.6068 26.4466 41.9033 26.356 42.2088 26.356C42.4245 26.356 42.6222 26.3922 42.8019 26.4647C42.9816 26.5373 43.1433 26.646 43.2871 26.7911C43.4488 26.9361 43.5836 27.1174 43.6915 27.3349L51.1586 43.0532ZM37.3835 40.4153L38.6774 37.6143H45.7132L47.0072 40.4153H37.3835Z" fill="#151313"/>
<path d="M54.7453 45.3375C54.2781 45.3375 53.9276 45.2559 53.694 45.0927C53.4604 44.9477 53.3076 44.7483 53.2357 44.4945C53.1638 44.2407 53.1279 43.9687 53.1279 43.6787V27.9604C53.1279 27.6703 53.1549 27.4075 53.2088 27.1718C53.2807 26.918 53.4334 26.7185 53.667 26.5735C53.9007 26.4103 54.2691 26.3288 54.7723 26.3288L59.8402 26.356C61.1521 26.356 62.3562 26.5826 63.4525 27.0358C64.5667 27.489 65.5282 28.1326 66.3369 28.9666C67.1456 29.8006 67.7656 30.7977 68.1969 31.958C68.6462 33.1001 68.8708 34.3601 68.8708 35.738C68.8708 37.152 68.6462 38.4483 68.1969 39.6267C67.7476 40.8051 67.1186 41.8204 66.3099 42.6725C65.5012 43.5246 64.5397 44.1863 63.4255 44.6576C62.3292 45.1109 61.1072 45.3375 59.7593 45.3375H54.7453ZM56.3897 42.047H59.8402C60.9904 42.047 61.9968 41.7932 62.8594 41.2856C63.722 40.7598 64.387 40.0346 64.8542 39.11C65.3395 38.1854 65.5821 37.1067 65.5821 35.8739C65.5821 34.623 65.3395 33.5352 64.8542 32.6106C64.387 31.6679 63.713 30.9427 62.8324 30.4351C61.9698 29.9093 60.9634 29.6465 59.8133 29.6465H56.3897V42.047Z" fill="#151313"/>
<path d="M73.3103 45.3375C72.8071 45.3375 72.4387 45.265 72.2051 45.1199C71.9894 44.9749 71.8457 44.7755 71.7738 44.5217C71.7199 44.2497 71.6929 43.9687 71.6929 43.6787V27.9876C71.6929 27.6975 71.7288 27.4347 71.8007 27.199C71.8726 26.9452 72.0164 26.7457 72.232 26.6007C72.4657 26.4375 72.8341 26.356 73.3373 26.356H79.1061C79.9328 26.356 80.7145 26.4919 81.4514 26.7639C82.2062 27.0177 82.8801 27.4165 83.4731 27.9604C84.0662 28.4862 84.5334 29.157 84.8749 29.9728C85.2343 30.7705 85.414 31.7041 85.414 32.7738C85.414 33.4808 85.3062 34.1879 85.0906 34.8949C84.8749 35.5838 84.5514 36.2274 84.1201 36.8257C83.7068 37.4059 83.1766 37.9044 82.5296 38.3214C81.8827 38.7384 81.1189 39.0103 80.2383 39.1372H74.9547V43.7058C74.9547 43.9959 74.9188 44.2679 74.8469 44.5217C74.793 44.7755 74.6492 44.9749 74.4156 45.1199C74.1999 45.265 73.8315 45.3375 73.3103 45.3375ZM84.794 44.9296C84.2729 45.2922 83.8415 45.4281 83.5001 45.3375C83.1766 45.2468 82.8531 44.9568 82.5296 44.4673L78.0008 37.56L81.64 37.0705L85.2253 42.5637C85.4769 42.9263 85.6297 43.2345 85.6836 43.4883C85.7375 43.7421 85.6926 43.9778 85.5488 44.1953C85.405 44.4129 85.1535 44.6576 84.794 44.9296ZM74.9547 35.8739H79.5104C79.8339 35.8739 80.1484 35.8195 80.4539 35.7108C80.7774 35.5838 81.065 35.3935 81.3166 35.1397C81.5682 34.8677 81.7659 34.5414 81.9096 34.1607C82.0714 33.7618 82.1522 33.2905 82.1522 32.7466C82.1522 32.0939 82.0264 31.541 81.7748 31.0877C81.5232 30.6164 81.1638 30.2629 80.6965 30.0272C80.2473 29.7734 79.6991 29.6465 79.0522 29.6465H74.9547V35.8739Z" fill="#151313"/>
<path d="M89.7046 45.3647C89.2014 45.3647 88.833 45.2831 88.5994 45.1199C88.3658 44.9749 88.222 44.7755 88.1681 44.5217C88.1142 44.2679 88.0872 43.9869 88.0872 43.6787V27.9876C88.0872 27.6975 88.1142 27.4256 88.1681 27.1718C88.24 26.918 88.3837 26.7185 88.5994 26.5735C88.833 26.4285 89.2104 26.356 89.7316 26.356C90.2348 26.356 90.5942 26.4285 90.8099 26.5735C91.0435 26.7185 91.1873 26.918 91.2412 27.1718C91.3131 27.4256 91.349 27.7066 91.349 28.0148V43.7058C91.349 44.014 91.3131 44.2951 91.2412 44.5489C91.1873 44.7845 91.0435 44.9749 90.8099 45.1199C90.5762 45.2831 90.2078 45.3647 89.7046 45.3647Z" fill="#151313"/>
<path d="M108.187 26.3288C108.457 26.3288 108.69 26.356 108.888 26.4103C109.104 26.4647 109.275 26.6007 109.4 26.8183C109.526 27.0177 109.589 27.344 109.589 27.7973C109.589 28.2505 109.526 28.5859 109.4 28.8034C109.275 29.0029 109.104 29.1298 108.888 29.1842C108.673 29.2204 108.43 29.2385 108.16 29.2385H103.2V43.733C103.2 44.0412 103.164 44.3222 103.092 44.5761C103.038 44.8117 102.895 45.0021 102.661 45.1471C102.445 45.2922 102.077 45.3647 101.556 45.3647C101.071 45.3647 100.711 45.2831 100.478 45.1199C100.244 44.9749 100.1 44.7845 100.046 44.5489C99.9923 44.2951 99.9654 44.014 99.9654 43.7058V29.2385H94.9514C94.6998 29.2385 94.4661 29.2113 94.2505 29.157C94.0348 29.1026 93.8551 28.9757 93.7113 28.7762C93.5855 28.5768 93.5226 28.2505 93.5226 27.7973C93.5226 27.344 93.5855 27.0177 93.7113 26.8183C93.8371 26.6007 94.0079 26.4647 94.2235 26.4103C94.4571 26.356 94.6998 26.3288 94.9514 26.3288H108.187Z" fill="#151313"/>
<path d="M140.043 51.7231L137.304 57.2012C137.158 57.4927 137.37 57.8356 137.696 57.8356H142.953C143.253 57.8356 143.464 57.5425 143.369 57.2586L142.52 54.7112C141.998 53.1449 143.338 51.5471 144.987 51.6152C147.414 51.7154 150.327 51.5231 151.233 50.1644C152.205 48.7061 153.339 47.2479 153.989 46.4351C154.198 46.1734 154.012 45.7808 153.676 45.7808C152.179 45.7808 150.889 46.6906 149.947 47.8554C148.296 49.899 146.528 49.7776 144.2 48.378C143.911 48.2046 143.945 47.7989 144.274 47.7268C146.26 47.2913 148.695 48.4435 149.008 45.3949C149.041 45.0707 148.697 44.8564 148.399 44.9885C146.825 45.687 145.795 45.7697 144.226 45.7795C143.793 45.7822 143.37 45.9089 143.01 46.1489L141.25 47.322C140.64 47.7285 140.274 48.4128 140.274 49.1456V50.7429C140.274 51.0831 140.195 51.4187 140.043 51.7231Z" fill="#151313"/>
<path d="M138.461 52.6945L139.047 51.5226C139.758 50.1015 139.35 48.3755 138.079 47.4222L136.475 46.2192C136.096 45.9347 135.634 45.7827 135.159 45.7791C133.627 45.7673 132.605 45.6771 131.053 44.9885C130.755 44.8564 130.411 45.0707 130.445 45.3949C130.757 48.4435 133.192 47.2913 135.178 47.7268C135.507 47.7989 135.541 48.2046 135.252 48.378C132.924 49.7776 131.156 49.899 129.505 47.8554C128.563 46.6906 127.273 45.7808 125.776 45.7808C125.44 45.7808 125.254 46.1734 125.463 46.4351C126.113 47.2479 127.247 48.7061 128.219 50.1644C129.367 51.8866 133.203 51.7349 135.402 51.4887C136.344 51.3832 137.279 51.8463 137.703 52.6945C137.86 53.0066 138.305 53.0066 138.461 52.6945Z" fill="#151313"/>
<path d="M135.89 38.6573C135.89 38.96 135.645 39.2053 135.343 39.2053C135.04 39.2053 134.795 38.96 134.795 38.6573C134.795 38.3547 135.04 38.1094 135.343 38.1094C135.645 38.1094 135.89 38.3547 135.89 38.6573Z" fill="#151313"/>
<path d="M129.675 39.1215L129.717 39.2861C130.002 40.428 129.138 41.5342 127.961 41.5342C127.604 41.5342 127.255 41.4285 126.958 41.2303L125.998 40.5906C125.866 40.5024 125.741 40.4057 125.623 40.3013H126.205C126.712 40.3013 127.123 39.8903 127.123 39.3833C127.123 38.7566 127.737 38.3142 128.332 38.5123L129.621 38.9423C129.642 39.001 129.66 39.0608 129.675 39.1215Z" fill="#151313"/>
<path d="M127.299 36.2588C127.258 36.2028 127.219 36.1461 127.18 36.0885L125.808 34.0292C125.624 33.7542 125.316 33.589 124.985 33.589C124.383 33.589 123.921 34.1218 124.006 34.7173L124.228 36.2657C124.564 36.037 125.046 36.0324 125.385 36.3717L125.479 36.4657C125.782 36.7683 126.273 36.7683 126.575 36.4657C126.772 36.2694 127.047 36.2005 127.299 36.2588Z" fill="#151313"/>
<path fill-rule="evenodd" clip-rule="evenodd" d="M148.306 16.2153C147.521 16.2673 146.734 16.0698 146.066 15.6532C144.385 14.6054 142.4 14 140.274 14C138.148 14 136.163 14.6054 134.482 15.6532C133.814 16.0698 133.027 16.2673 132.242 16.2153C131.999 16.1992 131.754 16.191 131.507 16.191C125.454 16.191 120.548 21.0958 120.548 27.1461C120.548 28.3435 120.74 29.496 121.095 30.5744C121.369 31.4052 121.342 32.3116 121.052 33.1368C120.726 34.0662 120.548 35.0658 120.548 36.1067C120.548 41.1383 125.106 44.9413 130.058 44.0412L131.755 43.7329C132.313 43.6315 132.886 43.6598 133.432 43.8155L138.468 45.2539C139.648 45.5911 140.9 45.5911 142.08 45.2539L147.116 43.8155C147.662 43.6598 148.235 43.6315 148.793 43.7329L150.49 44.0412C155.442 44.9413 160 41.1383 160 36.1067C160 35.0658 159.822 34.0662 159.496 33.1368C159.206 32.3116 159.179 31.4052 159.453 30.5744C159.808 29.496 160 28.3435 160 27.1461C160 21.0958 155.094 16.191 149.041 16.191C148.794 16.191 148.549 16.1992 148.306 16.2153ZM138.207 17.9104L138.547 19.6136C138.945 21.6033 140.24 23.2978 142.055 24.2052L142.974 24.6647C143.162 24.7589 143.362 24.5591 143.268 24.3707L141.687 21.2096C141.541 20.9182 141.753 20.5753 142.079 20.5753H142.169C142.348 20.5753 142.509 20.6844 142.576 20.8508L144.379 25.359C144.56 25.81 144.585 26.3081 144.452 26.7751L142.625 33.1671C142.545 33.4472 142.756 33.7259 143.047 33.7259H144.219C144.461 33.7259 144.658 33.5296 144.658 33.2876V31.0587C144.658 30.6738 144.86 30.3171 145.19 30.119L149.473 27.5489C149.765 27.3736 150.137 27.5841 150.137 27.9248V27.9851C150.137 28.1461 150.049 28.2942 149.907 28.3707L147.881 29.4659C147.751 29.5363 147.737 29.7179 147.855 29.8073C148.972 30.6522 150.588 30.1439 151.02 28.812L151.669 26.8103C151.734 26.6103 151.648 26.3924 151.463 26.291L150.805 25.9287C149.807 25.3802 148.556 25.6864 147.925 26.6334L146.882 28.198C146.86 28.2298 146.831 28.2554 146.797 28.2725L145.131 29.1057C144.956 29.193 144.763 29.0256 144.825 28.8404L145.179 27.7772C145.547 26.6743 145.461 25.4705 144.941 24.4307L144.681 23.9092C144.665 23.8788 144.658 23.8452 144.658 23.8112V22.0969C144.658 19.9541 143.108 18.1253 140.995 17.773L138.709 17.392C138.406 17.3416 138.147 17.6096 138.207 17.9104ZM126.575 18.9315C126.575 18.6289 126.821 18.3836 127.123 18.3836C127.45 18.3836 127.771 18.3889 128.087 18.3996C128.129 18.3891 128.174 18.3836 128.219 18.3836C133.63 18.3836 137.054 20.3426 138.999 23.0922C140.926 25.8154 141.343 29.2291 140.929 32.0565C140.847 32.6157 140.571 33.1084 140.192 33.4868L139.572 34.1069C139.559 34.1199 139.546 34.1323 139.532 34.1439C139.472 34.1951 139.403 34.2312 139.331 34.2522C139.259 34.2732 139.182 34.2797 139.104 34.2689C139.038 34.26 138.974 34.2391 138.914 34.2063C138.855 34.1737 138.803 34.1308 138.76 34.0804C138.709 34.0201 138.673 33.9514 138.652 33.8792C138.631 33.8072 138.624 33.73 138.635 33.6518C138.638 33.6338 138.641 33.6159 138.645 33.5982C139.37 30.3299 139.347 27.6784 138.673 25.5996C138.207 25.7471 137.774 25.9225 137.374 26.1254C137.788 26.282 138.082 26.682 138.082 27.1507C138.082 27.7559 137.592 28.2465 136.986 28.2465C136.381 28.2465 135.89 27.7559 135.89 27.1507C135.89 27.1465 135.89 27.1423 135.89 27.1382C135.524 27.4726 135.207 27.8455 134.94 28.2562C135.477 28.3275 135.89 28.7867 135.89 29.3424C135.89 29.9477 135.4 30.4383 134.795 30.4383C134.54 30.4383 134.305 30.3514 134.119 30.2057C133.988 30.7541 133.913 31.3505 133.901 31.996C134.099 31.7165 134.426 31.5342 134.795 31.5342C135.4 31.5342 135.89 32.0249 135.89 32.6301C135.89 33.2353 135.4 33.726 134.795 33.726C134.459 33.726 134.159 33.5752 133.958 33.3378C134.002 33.7815 134.072 34.2448 134.169 34.7278C134.221 34.9875 134.052 35.2401 133.793 35.292C133.533 35.3439 133.28 35.1755 133.228 34.9159C133.211 34.8296 133.195 34.7437 133.179 34.6584C133.012 34.762 132.814 34.8219 132.603 34.8219C131.997 34.8219 131.507 34.3312 131.507 33.726C131.507 33.1207 131.997 32.6301 132.603 32.6301C132.724 32.6301 132.841 32.6499 132.95 32.6864C132.915 31.8372 132.97 31.045 133.115 30.3116C132.962 30.3925 132.788 30.4383 132.603 30.4383C131.997 30.4383 131.507 29.9477 131.507 29.3424C131.507 28.7372 131.997 28.2465 132.603 28.2465C133.018 28.2465 133.379 28.4773 133.565 28.8175C133.683 28.5351 133.818 28.2642 133.969 28.0049C134.151 27.6942 134.354 27.4024 134.579 27.1294C134.077 27.0291 133.699 26.5861 133.699 26.0548C133.699 25.4495 134.189 24.9589 134.795 24.9589C135.352 24.9589 135.812 25.3746 135.881 25.9127C136.589 25.4022 137.41 25.0001 138.326 24.7037C138.037 24.067 137.677 23.4933 137.25 22.9809C137.01 22.6925 136.746 22.4212 136.46 22.1671C136.227 22.1816 135.991 22.2056 135.755 22.2394C135.841 22.396 135.89 22.5758 135.89 22.7671C135.89 23.3724 135.4 23.863 134.795 23.863C134.196 23.863 133.709 23.3825 133.699 22.7859C133.007 23.0601 132.339 23.4252 131.727 23.885C132.227 23.9868 132.603 24.4289 132.603 24.9589C132.603 25.5641 132.112 26.0548 131.507 26.0548C130.957 26.0548 130.501 25.6491 130.423 25.1205C129.937 25.703 129.521 26.3795 129.205 27.1561C129.241 27.1525 129.278 27.1507 129.315 27.1507C129.92 27.1507 130.411 27.6413 130.411 28.2465C130.411 28.8518 129.92 29.3424 129.315 29.3424C129.074 29.3424 128.852 29.2648 128.671 29.1331C128.594 29.6389 128.555 30.1753 128.556 30.7435C128.753 30.5545 129.021 30.4383 129.315 30.4383C129.92 30.4383 130.411 30.929 130.411 31.5342C130.411 32.1395 129.92 32.6301 129.315 32.6301C129.076 32.6301 128.854 32.5534 128.674 32.4231C128.68 32.4694 128.687 32.5159 128.693 32.5625C128.731 32.8247 128.549 33.0675 128.286 33.105C128.024 33.1424 127.781 32.9603 127.744 32.6981C127.681 32.258 127.639 31.831 127.617 31.4171C127.468 31.492 127.301 31.5342 127.123 31.5342C126.518 31.5342 126.027 31.0436 126.027 30.4383C126.027 29.8331 126.518 29.3424 127.123 29.3424C127.318 29.3424 127.501 29.3934 127.66 29.4827C127.72 28.911 127.821 28.37 127.959 27.8592C127.758 28.0962 127.458 28.2465 127.123 28.2465C126.518 28.2465 126.027 27.7559 126.027 27.1507C126.027 26.5454 126.518 26.0548 127.123 26.0548C127.697 26.0548 128.168 26.4958 128.215 27.0574C128.503 26.2785 128.883 25.5795 129.334 24.9587C129.328 24.9588 129.321 24.9589 129.315 24.9589C128.71 24.9589 128.219 24.4682 128.219 23.863C128.219 23.2578 128.71 22.7671 129.315 22.7671C129.88 22.7671 130.346 23.1952 130.405 23.7449C130.89 23.2892 131.418 22.8978 131.973 22.568C131.691 22.3697 131.507 22.042 131.507 21.6712C131.507 21.066 131.997 20.5753 132.603 20.5753C133.208 20.5753 133.699 21.066 133.699 21.6712C133.699 21.7023 133.697 21.7331 133.695 21.7635C134.237 21.5717 134.789 21.4295 135.337 21.3349C134.381 20.7416 133.242 20.2862 131.919 19.975C130.675 20.0331 129.188 20.2605 127.829 20.833C128.068 21.0341 128.219 21.335 128.219 21.6712C128.219 22.2765 127.729 22.7671 127.123 22.7671C126.589 22.7671 126.144 22.3847 126.047 21.8786C125.37 22.4238 124.791 23.1192 124.385 24.0085C124.546 23.916 124.733 23.863 124.932 23.863C125.537 23.863 126.027 24.3536 126.027 24.9589C126.027 25.5641 125.537 26.0548 124.932 26.0548C124.488 26.0548 124.106 25.7915 123.934 25.4129C123.826 25.9397 123.767 26.5173 123.767 27.1507V27.1528C123.79 27.1514 123.813 27.1507 123.836 27.1507C124.441 27.1507 124.932 27.6413 124.932 28.2465C124.932 28.8518 124.441 29.3424 123.836 29.3424C123.23 29.3424 122.74 28.8518 122.74 28.2465C122.74 27.9752 122.838 27.7269 123.002 27.5355C122.884 27.4481 122.808 27.3083 122.808 27.1507C122.808 23.6803 124.417 21.6089 126.474 20.433C127.175 20.0328 127.924 19.738 128.673 19.5234C128.174 19.4942 127.658 19.4794 127.123 19.4794C126.821 19.4794 126.575 19.2341 126.575 18.9315ZM148.587 19.0255L148.7 19.1388C148.241 19.6778 148.049 20.4291 148.233 21.1325L146.28 19.8306C146.122 19.7254 146.197 19.4794 146.386 19.4794C146.557 19.4794 146.643 19.273 146.522 19.1522L146.301 18.9315C146.099 18.7293 146.242 18.3836 146.528 18.3836H147.037C147.618 18.3836 148.176 18.6145 148.587 19.0255ZM154.066 27.3816C154.438 27.7534 154.881 27.9541 155.33 28.011L155.081 28.7561C154.824 29.529 153.843 29.7605 153.267 29.1845L152.946 28.8635C152.718 28.6358 152.879 28.2465 153.201 28.2465C153.338 28.2465 153.463 28.1692 153.524 28.0468L153.927 27.242L154.066 27.3816ZM155.82 28.017L156.745 28.6337C157.092 28.8653 157.536 28.5264 157.404 28.1304L157.159 27.3948C156.797 27.7465 156.32 27.9667 155.82 28.017ZM148.81 22.1251C148.678 21.9928 148.567 21.8514 148.477 21.7039L148.045 22.5673C147.984 22.6898 147.859 22.7671 147.722 22.7671C147.4 22.7671 147.238 23.1564 147.466 23.3841L147.787 23.7051C148.363 24.2811 149.344 24.0496 149.602 23.2767L149.692 23.0068L148.81 22.1251ZM151.233 19.3425L150.36 19.3425C149.261 19.3425 148.711 20.6704 149.488 21.4471L154.745 26.7036C155.521 27.4803 156.849 26.9302 156.849 25.8318V24.9589C156.849 21.857 154.335 19.3425 151.233 19.3425ZM157.428 34.8217H157.53C157.684 34.8217 157.808 34.6971 157.808 34.5434C157.808 32.7462 156.658 31.1507 154.953 30.5824L154.895 30.5628C154.711 30.5015 154.521 30.6384 154.521 30.8323V31.9143C154.521 32.3725 154.339 32.812 154.015 33.136C153.797 33.3536 153.425 33.1995 153.425 32.8916V32.5616C153.425 32.1824 152.966 31.9925 152.698 32.2606L152.533 32.4263C151.672 33.287 150.678 34.0034 149.589 34.5478C149.226 34.7292 148.895 34.968 148.608 35.2549L148.56 35.3032C148.166 35.6966 147.633 35.9176 147.076 35.9176H144.244C143.066 35.9176 141.896 36.1075 140.779 36.48L139.935 36.7612C139.656 36.8543 139.628 37.2387 139.892 37.3703C140.708 37.7785 141.039 38.7712 140.631 39.5875L140.043 40.7623C139.549 41.751 139.868 42.9531 140.788 43.5662L141.522 44.0558C141.856 44.278 142.288 43.9734 142.191 43.5847L141.601 41.2258C141.51 40.8625 141.887 40.5599 142.222 40.7274L142.636 40.9343C143.245 41.2386 143.916 41.3971 144.597 41.3971H145.782C146.489 41.3971 147.191 41.511 147.862 41.7345L149.133 42.1583C149.504 42.2818 149.838 41.8957 149.664 41.5464L149.335 40.8893C149.241 40.7009 149.441 40.501 149.629 40.5952L150.421 40.991C150.941 41.251 151.543 41.2938 152.094 41.11L153.222 40.7342C154.067 40.4522 154.807 39.919 155.342 39.2057L157.282 36.619C157.499 36.33 157.293 35.9176 156.932 35.9176H156.451C156.143 35.9176 155.989 35.5454 156.206 35.3277C156.53 35.0037 156.97 34.8217 157.428 34.8217ZM132.347 37.9694L137.379 37.1307C137.836 37.0545 138.305 37.1251 138.72 37.3322L138.914 37.4293C139.694 37.8195 140.069 38.7243 139.793 39.5521L139.301 41.0299C139.231 41.2397 139.015 41.3645 138.799 41.3212L135 40.5615C134.152 40.3917 133.372 39.9746 132.76 39.3627L132.109 38.7117C131.857 38.4596 131.995 38.028 132.347 37.9694ZM123.558 38.3611L123.057 34.853C122.89 33.6797 123.8 32.6301 124.985 32.6301C125.636 32.6301 126.244 32.9555 126.605 33.4973L127.978 35.5566C128.138 35.7968 128.322 36.0206 128.526 36.2247L129.843 37.5414C130.215 37.9132 130.478 38.3789 130.606 38.889L130.647 39.0535C131.084 40.8007 129.762 42.4931 127.961 42.4931C127.415 42.4931 126.881 42.3313 126.426 42.0282L125.466 41.3885C124.429 40.6967 123.735 39.5957 123.558 38.3611Z" fill="#151313"/>
</svg>
