<svg width="160" height="72" viewBox="0 0 160 72" fill="none" xmlns="http://www.w3.org/2000/svg">
<path d="M23.9481 59.8419H24.0818C24.2234 59.8419 24.2916 59.8075 24.3414 59.6566L26.1141 54.7685H27.2627L29.0249 59.654C29.0747 59.8075 29.1429 59.8392 29.2845 59.8392H29.4182V60.7788H28.7626C28.3431 60.7788 28.191 60.6676 28.0572 60.2865L27.6875 59.2358H25.6736L25.3038 60.2865C25.1701 60.6676 25.0258 60.7788 24.6063 60.7788H23.9481V59.8392V59.8419ZM27.4384 58.3254L26.927 56.8169C26.8169 56.4861 26.691 55.9197 26.691 55.9197H26.6753C26.6753 55.9197 26.5494 56.4861 26.4393 56.8169L25.9279 58.3254H27.4384Z" fill="#151313"/>
<path d="M30.2259 59.4105C30.2259 59.4105 30.7713 60.0457 31.5003 60.0457C31.8281 60.0457 32.0798 59.9107 32.0798 59.6222C32.0798 59.0135 29.822 59.0215 29.822 57.6241C29.822 56.7613 30.593 56.3617 31.4846 56.3617C32.0641 56.3617 32.9871 56.5575 32.9871 57.2589V57.7088H32.0484V57.4971C32.0484 57.2933 31.7468 57.1927 31.5108 57.1927C31.1332 57.1927 30.8736 57.3277 30.8736 57.5818C30.8736 58.2593 33.1471 58.1243 33.1471 59.564C33.1471 60.3765 32.4338 60.8846 31.5029 60.8846C30.3281 60.8846 29.725 60.1145 29.725 60.1145L30.2285 59.4105H30.2259Z" fill="#151313"/>
<path d="M34.1514 59.4105C34.1514 59.4105 34.6969 60.0457 35.4259 60.0457C35.7537 60.0457 36.0054 59.9107 36.0054 59.6222C36.0054 59.0135 33.7476 59.0215 33.7476 57.6241C33.7476 56.7613 34.5186 56.3617 35.4102 56.3617C35.9897 56.3617 36.9127 56.5575 36.9127 57.2589V57.7088H35.9739V57.4971C35.9739 57.2933 35.6724 57.1927 35.4364 57.1927C35.0588 57.1927 34.7992 57.3277 34.7992 57.5818C34.7992 58.2593 37.0727 58.1243 37.0727 59.564C37.0727 60.3765 36.3594 60.8846 35.4285 60.8846C34.2537 60.8846 33.6506 60.1145 33.6506 60.1145L34.1541 59.4105H34.1514Z" fill="#151313"/>
<path d="M39.9756 56.3617C41.2841 56.3617 42.3252 57.3012 42.3252 58.6218C42.3252 59.9424 41.2841 60.882 39.9756 60.882C38.667 60.882 37.6339 59.9504 37.6339 58.6218C37.6339 57.2933 38.6749 56.3617 39.9756 56.3617ZM39.9756 59.9689C40.6731 59.9689 41.25 59.4264 41.25 58.6218C41.25 57.8173 40.6705 57.2748 39.9756 57.2748C39.2807 57.2748 38.709 57.8252 38.709 58.6218C38.709 59.4184 39.2885 59.9689 39.9756 59.9689Z" fill="#151313"/>
<path d="M45.2018 56.3617C45.7551 56.3617 46.7542 56.5893 46.7542 57.3356V57.8438H45.8154V57.6056C45.8154 57.3674 45.464 57.2668 45.2018 57.2668C44.4623 57.2668 43.9352 57.8332 43.9352 58.6139C43.9352 59.4952 44.5803 59.9425 45.27 59.9425C45.999 59.9425 46.5366 59.3576 46.5366 59.3576L46.9824 60.1039C46.9824 60.1039 46.3451 60.882 45.1782 60.882C43.7674 60.882 42.8627 59.8736 42.8627 58.6218C42.8627 57.37 43.736 56.3617 45.2044 56.3617H45.2018Z" fill="#151313"/>
<path d="M47.8372 57.5632C47.8372 57.4362 47.769 57.378 47.6537 57.378H47.318V56.4623H48.3328C48.7262 56.4623 48.894 56.6396 48.894 57.0392V59.6884C48.894 59.8075 48.9622 59.8736 49.0776 59.8736H49.4132V60.7788H48.3984C48.0051 60.7788 47.8372 60.6094 47.8372 60.2018V57.5606V57.5632ZM47.8871 54.7685H48.8101V55.7583H47.8871V54.7685Z" fill="#151313"/>
<path d="M52.4367 58.0714H52.5705V58.037C52.5705 57.4177 52.3266 57.1901 51.7812 57.1901C51.5871 57.1901 51.2095 57.2404 51.2095 57.4785V57.7061H50.2183V57.2483C50.2183 56.4437 51.3432 56.3591 51.7864 56.3591C53.2129 56.3591 53.6325 57.1133 53.6325 58.0793V59.6884C53.6325 59.8075 53.7007 59.8736 53.8161 59.8736H54.1517V60.7788H53.1946C52.8012 60.7788 52.6491 60.5591 52.6491 60.305C52.6491 60.1939 52.657 60.1198 52.657 60.1198H52.6413C52.6413 60.1198 52.3135 60.882 51.3485 60.882C50.5854 60.882 49.8879 60.4003 49.8879 59.5349C49.8879 58.1799 51.734 58.0687 52.4315 58.0687L52.4367 58.0714ZM51.6133 60.0457C52.185 60.0457 52.5862 59.437 52.5862 58.9103V58.8097H52.4026C51.8493 58.8097 50.9683 58.8865 50.9683 59.4872C50.9683 59.7757 51.178 60.0457 51.6133 60.0457Z" fill="#151313"/>
<path d="M56.9261 56.3617C57.4794 56.3617 58.4785 56.5893 58.4785 57.3356V57.8438H57.5397V57.6056C57.5397 57.3674 57.1883 57.2668 56.9261 57.2668C56.1866 57.2668 55.6595 57.8332 55.6595 58.6139C55.6595 59.4952 56.3046 59.9425 56.9943 59.9425C57.7233 59.9425 58.2609 59.3576 58.2609 59.3576L58.7067 60.1039C58.7067 60.1039 58.0852 60.8661 56.9366 60.882L56.8789 61.1519C57.2146 61.1943 57.482 61.398 57.482 61.795C57.482 62.3534 57.0284 62.5413 56.5852 62.5413C56.2915 62.5413 56.066 62.4831 56.066 62.4831V61.8903C56.066 61.8903 56.2417 61.9591 56.4357 61.9591C56.6298 61.9591 56.7976 61.9009 56.7976 61.7209C56.7976 61.5595 56.6219 61.4933 56.3938 61.4933C56.3099 61.4933 56.2181 61.5092 56.2181 61.5092L56.4017 60.8317C55.2846 60.6279 54.5896 59.7307 54.5896 58.6218C54.5896 57.4018 55.4629 56.3617 56.9314 56.3617H56.9261Z" fill="#151313"/>
<path d="M61.6489 58.0714H61.7826V58.037C61.7826 57.4177 61.5387 57.1901 60.9933 57.1901C60.7993 57.1901 60.4216 57.2404 60.4216 57.4785V57.7061H59.4304V57.2483C59.4304 56.4437 60.5554 56.3591 60.9985 56.3591C62.4251 56.3591 62.8446 57.1133 62.8446 58.0793V59.6884C62.8446 59.8075 62.9128 59.8736 63.0282 59.8736H63.3639V60.7788H62.4067C62.0134 60.7788 61.8613 60.5591 61.8613 60.305C61.8613 60.1939 61.8691 60.1198 61.8691 60.1198H61.8534C61.8534 60.1198 61.5256 60.882 60.5606 60.882C59.7975 60.882 59.1 60.4003 59.1 59.5349C59.1 58.1799 60.9461 58.0687 61.6436 58.0687L61.6489 58.0714ZM60.5423 54.7606C61.1218 54.7606 61.2634 55.311 61.6174 55.311C61.8534 55.311 61.9609 55.057 61.9609 54.787H62.6244C62.6244 55.5492 62.3044 55.9462 61.6672 55.9462C61.0877 55.9462 60.9461 55.3957 60.5921 55.3957C60.3561 55.3957 60.2486 55.6419 60.2486 55.9197H59.5851C59.5851 55.1496 59.905 54.7606 60.5423 54.7606ZM60.8281 60.0457C61.3998 60.0457 61.801 59.437 61.801 58.9103V58.8097H61.6174C61.0641 58.8097 60.183 58.8865 60.183 59.4872C60.183 59.7757 60.3928 60.0457 60.8281 60.0457Z" fill="#151313"/>
<path d="M66.1383 56.3617C67.4468 56.3617 68.4878 57.3012 68.4878 58.6218C68.4878 59.9424 67.4468 60.882 66.1383 60.882C64.8297 60.882 63.7965 59.9504 63.7965 58.6218C63.7965 57.2933 64.8376 56.3617 66.1383 56.3617ZM66.1383 59.9689C66.8358 59.9689 67.4127 59.4264 67.4127 58.6218C67.4127 57.8173 66.8332 57.2748 66.1383 57.2748C65.4433 57.2748 64.8717 57.8252 64.8717 58.6218C64.8717 59.4184 65.4512 59.9689 66.1383 59.9689Z" fill="#151313"/>
<path d="M73.1949 56.3617C74.1258 56.3617 74.4273 56.8857 74.4273 56.8857H74.4431C74.4431 56.8857 74.4352 56.7746 74.4352 56.6317V55.8695C74.4352 55.7424 74.367 55.6842 74.2516 55.6842H73.916V54.7685H74.9308C75.3242 54.7685 75.5025 54.9458 75.5025 55.3454V59.691C75.5025 59.8101 75.5707 59.8763 75.686 59.8763H76.0138V60.7814H75.0331C74.6476 60.7814 74.5034 60.5961 74.5034 60.3421V60.1806H74.4876C74.4876 60.1806 74.1363 60.8846 73.1529 60.8846C71.9938 60.8846 71.2491 59.961 71.2491 58.6245C71.2491 57.288 72.062 56.3644 73.1949 56.3644V56.3617ZM74.4614 58.6139C74.4614 57.9443 74.1179 57.2853 73.4046 57.2853C72.8173 57.2853 72.3295 57.767 72.3295 58.6245C72.3295 59.482 72.7569 59.9795 73.3863 59.9795C73.9396 59.9795 74.4614 59.5719 74.4614 58.6165V58.6139Z" fill="#151313"/>
<path d="M78.8092 56.3617C80.1177 56.3617 81.1588 57.3012 81.1588 58.6218C81.1588 59.9424 80.1177 60.882 78.8092 60.882C77.5007 60.882 76.4675 59.9504 76.4675 58.6218C76.4675 57.2933 77.5085 56.3617 78.8092 56.3617ZM78.8092 59.9689C79.5067 59.9689 80.0836 59.4264 80.0836 58.6218C80.0836 57.8173 79.5041 57.2748 78.8092 57.2748C78.1143 57.2748 77.5426 57.8252 77.5426 58.6218C77.5426 59.4184 78.1222 59.9689 78.8092 59.9689Z" fill="#151313"/>
<path d="M82.1421 59.4105C82.1421 59.4105 82.6876 60.0457 83.4166 60.0457C83.7444 60.0457 83.9961 59.9107 83.9961 59.6222C83.9961 59.0135 81.7383 59.0215 81.7383 57.6241C81.7383 56.7613 82.5093 56.3617 83.4008 56.3617C83.9804 56.3617 84.9034 56.5575 84.9034 57.2589V57.7088H83.9646V57.4971C83.9646 57.2933 83.6631 57.1927 83.4271 57.1927C83.0495 57.1927 82.7899 57.3277 82.7899 57.5818C82.7899 58.2593 85.0634 58.1243 85.0634 59.564C85.0634 60.3765 84.3501 60.8846 83.4192 60.8846C82.2444 60.8846 81.6413 60.1145 81.6413 60.1145L82.1448 59.4105H82.1421Z" fill="#151313"/>
<path d="M88.4094 55.708H87.864V54.7685H90.5912C91.7083 54.7685 92.4871 55.5572 92.4871 56.7243C92.4871 57.8914 91.7057 58.7065 90.5912 58.7065H89.5082V60.7814H88.4094V55.708ZM90.3893 57.7564C91.0108 57.7564 91.3621 57.3489 91.3621 56.7243C91.3621 56.0997 91.0108 55.708 90.405 55.708H89.5082V57.7564H90.3893Z" fill="#151313"/>
<path d="M93.3525 57.5632C93.3525 57.4362 93.2843 57.378 93.1689 57.378H92.8333V56.4623H93.8061C94.1837 56.4623 94.3778 56.6237 94.3778 56.9863V57.2403C94.3778 57.4018 94.3621 57.5103 94.3621 57.5103H94.3778C94.5718 56.8937 95.0832 56.4014 95.7361 56.4014C95.8279 56.4014 95.9302 56.4173 95.9302 56.4173V57.4759C95.9302 57.4759 95.82 57.46 95.6706 57.46C95.2169 57.46 94.6977 57.722 94.5037 58.3651C94.446 58.5768 94.4119 58.815 94.4119 59.0691V60.7788H93.3551V57.5606L93.3525 57.5632Z" fill="#151313"/>
<path d="M98.563 56.3617C99.8715 56.3617 100.913 57.3012 100.913 58.6218C100.913 59.9424 99.8715 60.882 98.563 60.882C97.2545 60.882 96.2213 59.9504 96.2213 58.6218C96.2213 57.2933 97.2623 56.3617 98.563 56.3617ZM98.563 59.9689C99.2605 59.9689 99.8374 59.4264 99.8374 58.6218C99.8374 57.8173 99.2579 57.2748 98.563 57.2748C97.8681 57.2748 97.2964 57.8252 97.2964 58.6218C97.2964 59.4184 97.8759 59.9689 98.563 59.9689Z" fill="#151313"/>
<path d="M103.396 56.3617C104.327 56.3617 104.628 56.8857 104.628 56.8857H104.644C104.644 56.8857 104.636 56.7746 104.636 56.6317V55.8695C104.636 55.7424 104.568 55.6842 104.453 55.6842H104.117V54.7685H105.132C105.525 54.7685 105.703 54.9458 105.703 55.3454V59.691C105.703 59.8101 105.772 59.8763 105.887 59.8763H106.215V60.7814H105.234C104.849 60.7814 104.704 60.5961 104.704 60.3421V60.1806H104.689C104.689 60.1806 104.337 60.8846 103.354 60.8846C102.195 60.8846 101.45 59.961 101.45 58.6245C101.45 57.288 102.263 56.3644 103.396 56.3644V56.3617ZM104.662 58.6139C104.662 57.9443 104.319 57.2853 103.606 57.2853C103.018 57.2853 102.531 57.767 102.531 58.6245C102.531 59.482 102.958 59.9795 103.587 59.9795C104.141 59.9795 104.662 59.5719 104.662 58.6165V58.6139Z" fill="#151313"/>
<path d="M107.08 57.5632C107.08 57.4362 107.012 57.378 106.897 57.378H106.561V56.4623H107.576C107.969 56.4623 108.137 56.6396 108.137 57.0286V59.0188C108.137 59.5428 108.271 59.9001 108.8 59.9001C109.571 59.9001 110.001 59.2147 110.001 58.4445V56.4623H111.066V59.6884C111.066 59.8075 111.134 59.8736 111.25 59.8736H111.585V60.7788H110.605C110.235 60.7788 110.043 60.6014 110.043 60.2971V60.178C110.043 60.0774 110.051 59.9821 110.051 59.9821H110.036C109.834 60.4321 109.296 60.8793 108.559 60.8793C107.644 60.8793 107.083 60.4135 107.083 59.2358V57.5579L107.08 57.5632Z" fill="#151313"/>
<path d="M112.466 57.3171H111.913V56.4623H112.493V55.2846H113.534V56.4623H114.507V57.3171H113.534V59.0612C113.534 59.7731 114.087 59.8736 114.381 59.8736C114.499 59.8736 114.575 59.8578 114.575 59.8578V60.7973C114.575 60.7973 114.441 60.8237 114.247 60.8237C113.652 60.8237 112.469 60.6464 112.469 59.1988V57.3197L112.466 57.3171Z" fill="#151313"/>
<path d="M117.402 56.3617C118.71 56.3617 119.751 57.3012 119.751 58.6218C119.751 59.9424 118.71 60.882 117.402 60.882C116.093 60.882 115.06 59.9504 115.06 58.6218C115.06 57.2933 116.101 56.3617 117.402 56.3617ZM117.402 59.9689C118.099 59.9689 118.676 59.4264 118.676 58.6218C118.676 57.8173 118.096 57.2748 117.402 57.2748C116.707 57.2748 116.135 57.8252 116.135 58.6218C116.135 59.4184 116.715 59.9689 117.402 59.9689Z" fill="#151313"/>
<path d="M120.716 57.5632C120.716 57.4362 120.648 57.378 120.533 57.378H120.197V56.4623H121.17C121.547 56.4623 121.741 56.6237 121.741 56.9863V57.2403C121.741 57.4018 121.726 57.5103 121.726 57.5103H121.741C121.936 56.8937 122.447 56.4014 123.1 56.4014C123.192 56.4014 123.294 56.4173 123.294 56.4173V57.4759C123.294 57.4759 123.184 57.46 123.034 57.46C122.581 57.46 122.061 57.722 121.867 58.3651C121.81 58.5768 121.776 58.815 121.776 59.0691V60.7788H120.719V57.5606L120.716 57.5632Z" fill="#151313"/>
<path d="M125.759 56.3617C126.983 56.3617 127.655 57.2668 127.655 58.4101C127.655 58.5372 127.629 58.8071 127.629 58.8071H124.676C124.76 59.5693 125.313 59.9663 125.961 59.9663C126.648 59.9663 127.162 59.4846 127.162 59.4846L127.608 60.2309C127.608 60.2309 126.952 60.882 125.887 60.882C124.469 60.882 123.588 59.8498 123.588 58.6218C123.588 57.2933 124.477 56.3617 125.761 56.3617H125.759ZM126.564 58.0634C126.548 57.5473 126.194 57.1901 125.759 57.1901C125.213 57.1901 124.828 57.5209 124.71 58.0634H126.564Z" fill="#151313"/>
<path d="M128.704 59.4105C128.704 59.4105 129.249 60.0457 129.978 60.0457C130.306 60.0457 130.558 59.9107 130.558 59.6222C130.558 59.0135 128.3 59.0215 128.3 57.6241C128.3 56.7613 129.071 56.3617 129.962 56.3617C130.542 56.3617 131.465 56.5575 131.465 57.2589V57.7088H130.526V57.4971C130.526 57.2933 130.225 57.1927 129.989 57.1927C129.611 57.1927 129.351 57.3277 129.351 57.5818C129.351 58.2593 131.625 58.1243 131.625 59.564C131.625 60.3765 130.912 60.8846 129.981 60.8846C128.806 60.8846 128.203 60.1145 128.203 60.1145L128.706 59.4105H128.704Z" fill="#151313"/>
<path d="M34.7992 66.8234V65.8839H38.1977C38.6015 65.8839 38.7693 66.0612 38.7693 66.4608V67.3765H37.7781V67.0113C37.7781 66.8922 37.7099 66.826 37.5945 66.826H36.446V68.5278H38.3497V69.4673H36.446V71.8968H35.3472V66.8234H34.7992Z" fill="#151313"/>
<path d="M41.6198 69.1867H41.7535V69.1523C41.7535 68.5331 41.5096 68.3055 40.9642 68.3055C40.7701 68.3055 40.3925 68.3557 40.3925 68.5939V68.8215H39.4013V68.3637C39.4013 67.5591 40.5263 67.4744 40.9694 67.4744C42.396 67.4744 42.8155 68.2287 42.8155 69.1947V70.8038C42.8155 70.9229 42.8837 70.989 42.9991 70.989H43.3347V71.8941H42.3776C41.9843 71.8941 41.8322 71.6745 41.8322 71.4204C41.8322 71.3092 41.84 71.2352 41.84 71.2352H41.8243C41.8243 71.2352 41.4965 71.9974 40.5315 71.9974C39.7684 71.9974 39.0709 71.5157 39.0709 70.6503C39.0709 69.2953 40.917 69.1841 41.6145 69.1841L41.6198 69.1867ZM40.7964 71.1611C41.368 71.1611 41.7692 70.5524 41.7692 70.0257V69.9251H41.5857C41.0324 69.9251 40.1513 70.0019 40.1513 70.6026C40.1513 70.8911 40.3611 71.1611 40.7964 71.1611Z" fill="#151313"/>
<path d="M44.1975 68.6786C44.1975 68.5516 44.1293 68.4934 44.0139 68.4934H43.6783V67.5777H44.659C45.0366 67.5777 45.2202 67.755 45.2202 68.0593V68.1864C45.2202 68.279 45.2123 68.3716 45.2123 68.3716H45.228C45.43 67.9482 45.9413 67.4744 46.6126 67.4744C47.2839 67.4744 47.6773 67.7788 47.8634 68.3637H47.8792C48.1047 67.8979 48.6606 67.4744 49.3398 67.4744C50.2288 67.4744 50.7401 67.9826 50.7401 69.1179V70.8038C50.7401 70.9229 50.8083 70.989 50.9237 70.989H51.2515V71.8941H50.2445C49.8407 71.8941 49.6728 71.7248 49.6728 71.3172V69.3191C49.6728 68.8268 49.5811 68.4563 49.0854 68.4563C48.5557 68.4563 48.1781 68.9062 48.0627 69.4461C48.0129 69.6155 47.9946 69.7928 47.9946 69.9966V71.8941H46.9299V69.3191C46.9299 68.8533 46.8617 68.4563 46.3504 68.4563C45.8128 68.4563 45.4536 68.9062 45.3172 69.4567C45.2752 69.6261 45.249 69.8034 45.249 69.9992V71.8968H44.1922V68.6786H44.1975Z" fill="#151313"/>
<path d="M52.143 68.6786C52.143 68.5516 52.0749 68.4934 51.9595 68.4934H51.6238V67.5777H52.6387C53.032 67.5777 53.1998 67.755 53.1998 68.1546V70.8038C53.1998 70.9229 53.268 70.989 53.3834 70.989H53.719V71.8941H52.7042C52.3109 71.8941 52.143 71.7248 52.143 71.3172V68.676V68.6786ZM52.1929 65.8839H53.1159V66.8737H52.1929V65.8839Z" fill="#151313"/>
<path d="M54.5923 66.9848C54.5923 66.8578 54.5241 66.7996 54.4087 66.7996H54.0731V65.8839H55.0879C55.4812 65.8839 55.6595 66.0612 55.6595 66.4608V70.8064C55.6595 70.9255 55.7277 70.9917 55.8431 70.9917H56.1709V71.8968H55.1639C54.7601 71.8968 54.5923 71.7274 54.5923 71.3198V66.9848Z" fill="#151313"/>
<path d="M57.0939 68.6786C57.0939 68.5516 57.0258 68.4934 56.9104 68.4934H56.5747V67.5777H57.5896C57.9829 67.5777 58.1507 67.755 58.1507 68.1546V70.8038C58.1507 70.9229 58.2189 70.989 58.3343 70.989H58.6699V71.8941H57.6551C57.2618 71.8941 57.0939 71.7248 57.0939 71.3172V68.676V68.6786ZM57.1438 65.8839H58.0668V66.8737H57.1438V65.8839Z" fill="#151313"/>
<path d="M61.6908 69.1867H61.8246V69.1523C61.8246 68.5331 61.5807 68.3055 61.0353 68.3055C60.8412 68.3055 60.4636 68.3557 60.4636 68.5939V68.8215H59.4724V68.3637C59.4724 67.5591 60.5973 67.4744 61.0405 67.4744C62.467 67.4744 62.8866 68.2287 62.8866 69.1947V70.8038C62.8866 70.9229 62.9548 70.989 63.0702 70.989H63.4058V71.8941H62.4487C62.0553 71.8941 61.9032 71.6745 61.9032 71.4204C61.9032 71.3092 61.9111 71.2352 61.9111 71.2352H61.8954C61.8954 71.2352 61.5676 71.9974 60.6026 71.9974C59.8395 71.9974 59.142 71.5157 59.142 70.6503C59.142 69.2953 60.9881 69.1841 61.6856 69.1841L61.6908 69.1867ZM60.8674 71.1611C61.4391 71.1611 61.8403 70.5524 61.8403 70.0257V69.9251H61.6567C61.1034 69.9251 60.2223 70.0019 60.2223 70.6026C60.2223 70.8911 60.4321 71.1611 60.8674 71.1611Z" fill="#151313"/>
<path d="M64.2686 68.6786C64.2686 68.5516 64.2004 68.4934 64.085 68.4934H63.7493V67.5777H64.7222C65.0998 67.5777 65.2939 67.7391 65.2939 68.1017V68.3557C65.2939 68.5172 65.2781 68.6257 65.2781 68.6257H65.2939C65.4879 68.009 65.9993 67.5168 66.6522 67.5168C66.744 67.5168 66.8463 67.5327 66.8463 67.5327V68.5913C66.8463 68.5913 66.7361 68.5754 66.5867 68.5754C66.133 68.5754 65.6138 68.8374 65.4197 69.4805C65.3621 69.6922 65.328 69.9304 65.328 70.1845V71.8941H64.2712V68.676L64.2686 68.6786Z" fill="#151313"/>
<path d="M69.3112 67.4771C70.5358 67.4771 71.2072 68.3822 71.2072 69.5255C71.2072 69.6525 71.1809 69.9225 71.1809 69.9225H68.2282C68.3121 70.6847 68.8654 71.0817 69.5131 71.0817C70.2002 71.0817 70.7142 70.6 70.7142 70.6L71.16 71.3463C71.16 71.3463 70.5044 71.9974 69.4397 71.9974C68.0211 71.9974 67.14 70.9652 67.14 69.7372C67.14 68.4087 68.0289 67.4771 69.3139 67.4771H69.3112ZM70.1163 69.1788C70.1005 68.6627 69.7465 68.3055 69.3112 68.3055C68.7658 68.3055 68.3803 68.6363 68.2623 69.1788H70.1163Z" fill="#151313"/>
<path d="M72.2561 70.5259C72.2561 70.5259 72.8015 71.1611 73.5305 71.1611C73.8583 71.1611 74.11 71.0261 74.11 70.7376C74.11 70.1289 71.8522 70.1368 71.8522 68.7395C71.8522 67.8767 72.6232 67.4771 73.5148 67.4771C74.0943 67.4771 75.0174 67.6729 75.0174 68.3743V68.8242H74.0786V68.6124C74.0786 68.4087 73.777 68.3081 73.541 68.3081C73.1634 68.3081 72.9038 68.4431 72.9038 68.6971C72.9038 69.3747 75.1773 69.2397 75.1773 70.6794C75.1773 71.4919 74.4641 72 73.5331 72C72.3583 72 71.7552 71.2299 71.7552 71.2299L72.2587 70.5259H72.2561Z" fill="#151313"/>
<path d="M81.025 65.7833C82.7794 65.7833 84.1036 67.1304 84.1036 68.848C84.1036 70.5656 82.7767 71.9974 81.025 71.9974C79.2734 71.9974 77.9465 70.6159 77.9465 68.848C77.9465 67.0801 79.2734 65.7833 81.025 65.7833ZM81.025 70.9652C82.1002 70.9652 82.9629 70.0495 82.9629 68.848C82.9629 67.6465 82.0976 66.8155 81.025 66.8155C79.9525 66.8155 79.0872 67.6968 79.0872 68.848C79.0872 69.9992 79.9525 70.9652 81.025 70.9652Z" fill="#151313"/>
<path d="M85.0949 68.6786C85.0949 68.5516 85.0267 68.4934 84.9113 68.4934H84.5756V67.5777H85.5905C85.9838 67.5777 86.1516 67.755 86.1516 68.144V70.1342C86.1516 70.6582 86.2854 71.0155 86.8151 71.0155C87.586 71.0155 88.0161 70.33 88.0161 69.5599V67.5777H89.0807V70.8038C89.0807 70.9229 89.1489 70.989 89.2643 70.989H89.6V71.8941H88.6192C88.2495 71.8941 88.0581 71.7168 88.0581 71.4125V71.2934C88.0581 71.1928 88.0659 71.0975 88.0659 71.0975H88.0502C87.8483 71.5474 87.3107 71.9947 86.5738 71.9947C85.6586 71.9947 85.0975 71.5289 85.0975 70.3512V68.6733L85.0949 68.6786Z" fill="#151313"/>
<path d="M90.4653 68.6786C90.4653 68.5516 90.3971 68.4934 90.2818 68.4934H89.9461V67.5777H90.919C91.2966 67.5777 91.4906 67.7391 91.4906 68.1017V68.3557C91.4906 68.5172 91.4749 68.6257 91.4749 68.6257H91.4906C91.6847 68.009 92.196 67.5168 92.849 67.5168C92.9408 67.5168 93.043 67.5327 93.043 67.5327V68.5913C93.043 68.5913 92.9329 68.5754 92.7834 68.5754C92.3298 68.5754 91.8106 68.8374 91.6165 69.4805C91.5588 69.6922 91.5247 69.9304 91.5247 70.1845V71.8941H90.4679V68.676L90.4653 68.6786Z" fill="#151313"/>
<path d="M95.6758 67.4771C96.9844 67.4771 98.0254 68.4166 98.0254 69.7372C98.0254 71.0578 96.9844 71.9974 95.6758 71.9974C94.3673 71.9974 93.3341 71.0658 93.3341 69.7372C93.3341 68.4087 94.3752 67.4771 95.6758 67.4771ZM95.6758 71.0843C96.3734 71.0843 96.9503 70.5418 96.9503 69.7372C96.9503 68.9327 96.3707 68.3901 95.6758 68.3901C94.9809 68.3901 94.4093 68.9406 94.4093 69.7372C94.4093 70.5338 94.9888 71.0843 95.6758 71.0843Z" fill="#151313"/>
<path d="M100.829 67.0113C100.779 66.8684 100.711 66.826 100.569 66.826H100.417V65.8865H101.114C101.534 65.8865 101.686 65.9977 101.82 66.3788L102.961 69.7319C103.079 70.0707 103.186 70.6132 103.186 70.6132H103.202C103.202 70.6132 103.312 70.0707 103.427 69.7319L104.568 66.3788C104.702 65.9977 104.846 65.8865 105.266 65.8865H105.971V66.826H105.811C105.669 66.826 105.601 66.8684 105.551 67.0113L103.773 71.8968H102.614L100.826 67.0113H100.829Z" fill="#151313"/>
<path d="M108.061 67.4771C109.286 67.4771 109.957 68.3822 109.957 69.5255C109.957 69.6525 109.931 69.9225 109.931 69.9225H106.978C107.062 70.6847 107.615 71.0817 108.263 71.0817C108.95 71.0817 109.464 70.6 109.464 70.6L109.91 71.3463C109.91 71.3463 109.254 71.9974 108.189 71.9974C106.771 71.9974 105.89 70.9652 105.89 69.7372C105.89 68.4087 106.779 67.4771 108.064 67.4771H108.061ZM108.866 69.1788C108.85 68.6627 108.496 68.3055 108.061 68.3055C107.516 68.3055 107.13 68.6363 107.012 69.1788H108.866Z" fill="#151313"/>
<path d="M110.99 68.6786C110.99 68.5516 110.922 68.4934 110.807 68.4934H110.471V67.5777H111.444C111.821 67.5777 112.015 67.7391 112.015 68.1017V68.3557C112.015 68.5172 112 68.6257 112 68.6257H112.015C112.209 68.009 112.721 67.5168 113.374 67.5168C113.466 67.5168 113.568 67.5327 113.568 67.5327V68.5913C113.568 68.5913 113.458 68.5754 113.308 68.5754C112.855 68.5754 112.335 68.8374 112.141 69.4805C112.084 69.6922 112.049 69.9304 112.049 70.1845V71.8941H110.993V68.676L110.99 68.6786Z" fill="#151313"/>
<path d="M115.807 67.4771C116.738 67.4771 117.04 68.0011 117.04 68.0011H117.055C117.055 68.0011 117.048 67.89 117.048 67.747V66.9848C117.048 66.8578 116.979 66.7996 116.864 66.7996H116.528V65.8839H117.543C117.937 65.8839 118.115 66.0612 118.115 66.4608V70.8064C118.115 70.9255 118.183 70.9917 118.298 70.9917H118.626V71.8968H117.645C117.26 71.8968 117.116 71.7115 117.116 71.4575V71.296H117.1C117.1 71.296 116.749 72 115.765 72C114.606 72 113.861 71.0764 113.861 69.7399C113.861 68.4034 114.674 67.4797 115.807 67.4797V67.4771ZM117.074 69.7293C117.074 69.0597 116.73 68.4007 116.017 68.4007C115.43 68.4007 114.942 68.8824 114.942 69.7399C114.942 70.5973 115.369 71.0949 115.999 71.0949C116.552 71.0949 117.074 70.6873 117.074 69.7319V69.7293Z" fill="#151313"/>
<path d="M121.254 67.4771C122.478 67.4771 123.15 68.3822 123.15 69.5255C123.15 69.6525 123.123 69.9225 123.123 69.9225H120.171C120.255 70.6847 120.808 71.0817 121.456 71.0817C122.143 71.0817 122.657 70.6 122.657 70.6L123.102 71.3463C123.102 71.3463 122.447 71.9974 121.382 71.9974C119.964 71.9974 119.082 70.9652 119.082 69.7372C119.082 68.4087 119.971 67.4771 121.256 67.4771H121.254ZM122.059 69.1788C122.043 68.6627 121.689 68.3055 121.254 68.3055C120.708 68.3055 120.323 68.6363 120.205 69.1788H122.059Z" fill="#151313"/>
<path fill-rule="evenodd" clip-rule="evenodd" d="M131.935 13.6128C132.428 13.8399 132.769 13.8399 133.034 13.7642C133.034 14.0292 133.186 14.2942 133.602 14.597C135.534 16.0731 139.171 13.9157 141.407 10.282C143.642 6.64831 143.831 2.56042 141.71 1.38705C141.444 1.23564 141.331 1.2735 141.179 1.2735C141.028 1.00854 140.838 0.743589 140.459 0.478632C138.527 -0.997559 134.474 1.08424 132.239 4.75576C130.003 8.38944 129.738 12.6666 131.935 13.6507V13.6128ZM136.33 6.76185C136.877 6.32082 137.388 5.91767 137.86 5.54593C139.088 4.57766 140.047 3.82244 140.649 3.16603V3.62024C140.612 5.22145 138.965 6.54276 137.289 7.88691L137.088 8.04879C135.345 9.44926 134.625 10.6983 134.095 11.6825L134.148 11.4037C134.438 9.89266 134.799 8.01092 136.368 6.7997L136.33 6.76185ZM142.808 13.5371C143.528 11.531 144.286 10.9633 146.521 10.9633H150.12V15.8839H149.287C148.529 15.8839 148.188 16.111 147.923 16.868L138.489 42.5308H132.352L122.881 16.868C122.616 16.111 122.275 15.8839 121.517 15.8839H120.722V10.9633H124.434C126.669 10.9633 127.465 11.531 128.185 13.5371L134.246 31.1377C134.89 32.9167 135.459 35.7555 135.459 35.7555H135.534C135.534 35.7555 136.141 32.9167 136.747 31.1377L142.808 13.5371ZM30.8215 39.9948C31.5414 42.0009 32.337 42.5687 34.5721 42.5687H38.0574V37.6481H37.3377C36.5799 37.6481 36.239 37.4588 35.9738 36.664L26.6164 11.0011H20.5169L11.0836 36.6261C10.8184 37.421 10.4775 37.6102 9.71987 37.6102H9V42.5308H12.5232C14.7584 42.5308 15.5162 41.9631 16.2359 39.957L18.206 34.4308H28.8894L30.8594 39.957L30.8215 39.9948ZM19.5319 29.6616L22.2596 21.7508C22.8279 20.0096 23.5098 17.0194 23.5098 17.0194H23.5856C23.5856 17.0194 24.2675 20.0096 24.8357 21.7508L27.5635 29.6616H19.5319ZM68.3272 42.5687H74.1614V29.813H84.2767V24.8924H74.1614V15.9596H80.2608C80.867 15.9596 81.2459 16.3002 81.2459 16.9437V18.8741H86.5119V14.067C86.5119 11.9853 85.6405 11.039 83.4811 11.039H65.448V15.9596H68.3272V42.5687ZM53.4007 21.7886L53.6217 21.6113C55.098 20.4275 56.5091 19.2961 56.5451 17.89V17.5115C56.0153 18.0964 55.1365 18.7839 54.0303 19.6493L54.0244 19.654L54.0233 19.6548L54.0103 19.6649L53.9843 19.6853C53.8033 19.8269 53.6162 19.9733 53.4238 20.1247C53.208 20.2943 52.9854 20.4703 52.7567 20.6531C51.3171 21.8265 51.014 23.6054 50.7866 24.9681L50.811 24.925C51.2992 24.0615 51.9108 22.98 53.4386 21.7886H53.4007ZM47.9832 42.5687H42.149V15.9217H39.2698V11.0011H53.7417C59.6895 11.0011 63.819 15.1269 63.819 21.2587C63.819 27.3905 59.6517 31.6677 53.7417 31.6677H47.9832V42.5687ZM56.3557 15.1647C54.6509 13.8778 51.0897 15.6946 49.1198 18.912C47.1498 22.1293 46.9224 25.8765 48.8545 26.7471C49.3092 26.9363 49.6123 26.9363 49.8395 26.8606C49.8395 27.0877 49.9532 27.3527 50.3321 27.6176C52.0368 28.9045 55.2192 27.0499 57.1892 23.8325C59.1592 20.6152 59.3107 17.0194 57.4543 15.9974C57.2649 15.8839 57.1134 15.8839 56.9997 15.8839L56.9523 15.812C56.8146 15.6022 56.6612 15.3682 56.3557 15.1647ZM120.153 26.5578C120.153 35.8312 113.145 43.0986 103.825 43.0986C94.5433 43.0986 87.4968 35.5663 87.4968 26.5578C87.4968 17.5493 94.5433 10.4712 103.825 10.4712C113.107 10.4712 120.153 17.2844 120.153 26.5578ZM109.637 35.7432C110.102 35.2391 110.328 34.814 110.367 34.4389C110.7 34.4826 111.101 34.3562 111.64 33.9812C114.377 32.082 113.177 26.4247 109.4 21.9188C105.62 17.4156 100.401 15.4007 97.9608 17.6711C97.7088 17.9056 97.5512 18.1069 97.4719 18.2826C97.0956 18.3741 96.678 18.5804 96.2045 18.9086C93.4671 20.8105 94.4215 26.9923 98.1987 31.4955C101.976 35.9987 107.376 38.1938 109.637 35.7432ZM104.598 26.6049C105.654 29.4745 106.984 30.9735 108.013 32.1081L107.84 32.013C105.972 30.982 103.592 29.6691 102.62 27.0273H102.618C102.292 26.1426 101.998 25.3143 101.726 24.5474L101.724 24.5416C101.001 22.5065 100.432 20.9033 99.8384 19.8215C100.027 19.8827 100.218 19.9472 100.407 20.0169C102.46 20.7724 103.467 23.5214 104.498 26.3331L104.598 26.6049Z" fill="#151313"/>
</svg>
