<svg width="160" height="72" viewBox="0 0 160 72" fill="none" xmlns="http://www.w3.org/2000/svg">
<path d="M14.4468 23.0168C14.1124 25.0323 15.6759 27.7223 16.7693 28.6942C17.2338 29.1071 17.079 29.4168 16.6145 29.1588C13.9984 27.7054 10.9492 25.0355 7.63387 29.4168C4.96484 32.944 5.46614 36.0749 7.32418 37.0555C8.71035 37.7871 11.8188 35.6393 12.7951 35.2491C16.9099 33.6045 19.5379 34.2849 18.7306 35.8684C17.3887 38.5007 12.1126 34.7845 8.20161 41.5458C5.15647 46.8104 12.1057 51.7025 15.3758 47.4813C19.3989 42.2881 18.5511 40.6106 23.5822 41.0297C26.6508 41.2854 28.3954 42.5502 26.7822 46.191C25.3634 49.3928 29.1426 50.1906 31.3757 48.72C33.4918 47.3265 37.4915 42.1409 34.1112 39.0168C31.6076 36.7031 31.2377 34.52 32.7176 33.5459C35.3146 31.8364 36.6952 33.5005 37.8273 35.7136C38.5704 37.1664 39.6711 37.3109 40.5627 37.1071C42.3692 36.6942 42.7641 34.8102 42.1111 32.72C41.274 30.0403 40.0093 28.8118 39.2724 28.0749C36.3305 25.133 33.5635 28.1746 30.4983 29.262C28.8097 29.861 27.7946 29.3205 28.537 28.7975C30.808 27.1975 32.9953 26.0083 33.4918 24.462C33.816 23.4523 32.8888 21.5186 30.6015 20.7459C28.128 19.9102 26.1021 20.2972 25.2338 21.6749C24.4995 22.84 24.408 28.2814 23.6854 28.2814C22.7048 28.2814 24.6861 22.2437 20.6919 20.4362C17.7695 19.1137 14.8748 20.4362 14.4468 23.0168ZM18.8854 21.8691C20.3306 21.8691 21.0792 22.7241 21.3628 24.0491C21.6297 25.2955 21.5693 28.0233 21.9822 28.9007C22.988 31.038 25.4088 30.2427 25.6467 28.1781C25.7931 26.9079 26.4209 23.5846 26.7822 22.7072C27.4543 21.0749 30.6135 22.0094 31.3241 23.4814C32.0467 24.9781 29.3209 26.6955 27.7628 27.6104C26.2047 28.5253 26.3659 30.3064 27.3499 30.8104C29.466 31.8943 31.2799 30.6838 33.8531 29.4409C38.2048 27.3389 39.8487 31.9714 40.3047 33.3394C40.7692 34.733 40.0167 35.8544 39.2724 34.5781C37.9614 32.3301 35.5779 29.6641 31.8918 31.6362C29.3628 32.9892 28.6273 36.0705 31.0144 38.6556C33.4377 41.2798 34.0514 42.7143 32.5628 44.7459C30.4048 47.6909 28.0826 48.2277 28.6918 46.5523C30.7563 40.8749 28.1993 39.4859 25.2854 38.862C20.966 37.9374 19.1414 38.6416 17.4919 40.2556C15.3899 42.3122 13.9318 46.3646 12.279 46.2943C9.85323 46.191 7.83047 44.4197 11.1952 40.6168C14.2899 37.1191 18.3693 40.3072 20.4338 36.8491C22.571 33.2694 17.3853 30.7273 12.021 33.5975C10.5434 34.3881 7.83585 35.1975 7.6855 33.8039C7.63352 33.3222 7.87604 32.0628 8.61452 30.862C11.1551 26.7311 13.9156 29.6185 16.5096 30.6556C18.3693 31.3991 19.4589 28.9007 18.4209 27.9201C16.9977 26.5755 16.178 25.1596 16.4596 23.8427C16.6466 22.9687 17.4403 21.8691 18.8854 21.8691Z" fill="#151313"/>
<path d="M35.0455 21.7137C35.5739 20.4778 35.3342 19.2843 34.6362 18.2188C33.9442 17.1625 32.7971 16.2203 31.4742 15.4403C28.8323 13.8824 25.3914 12.9153 23.1808 13.0058C20.7136 13.1069 17.2715 13.3597 14.8677 14.3998C13.6639 14.9207 12.6773 15.6573 12.2298 16.7132C11.7785 17.7781 11.9035 19.099 12.772 20.7201C12.8607 20.8856 13.0017 20.99 13.1623 21.0312C13.317 21.0708 13.4754 21.0487 13.6102 20.9928C13.8728 20.884 14.1202 20.6094 14.0881 20.2427C13.9346 18.4892 14.4876 17.2568 15.4577 16.4032C16.4404 15.5384 17.8771 15.04 19.5216 14.8259C22.8111 14.3975 26.8093 15.1219 29.2685 16.1256C31.4555 17.0184 33.0236 18.9048 33.6917 21.5298C33.7731 21.8497 34.0287 22.0596 34.303 22.1109C34.587 22.164 34.9037 22.0455 35.0455 21.7137Z" fill="#151313"/>
<path d="M22.9473 15.6381C22.4006 15.5849 21.8669 15.63 21.4576 15.8037C21.039 15.9813 20.721 16.3126 20.721 16.8133C20.721 17.4408 21.1875 18.0188 21.7716 18.2995C22.3732 18.5886 23.1499 18.5898 23.7972 18.0081C24.1008 17.7352 24.2892 17.4538 24.3628 17.1697C24.438 16.8796 24.3872 16.6094 24.2539 16.3822C23.9972 15.9448 23.4528 15.6872 22.9473 15.6381Z" fill="#151313"/>
<path d="M36.4823 17.2575C36.1992 17.0018 35.8245 16.9794 35.5548 17.1307C35.4193 17.2066 35.305 17.3304 35.2545 17.494C35.2032 17.6606 35.2266 17.8409 35.3175 18.0109C36.1708 19.6066 37.4316 20.5903 38.6213 21.4166C38.8 21.5407 38.9759 21.6605 39.1483 21.7779L39.1485 21.778C39.5558 22.0553 39.9438 22.3195 40.3041 22.5969C40.8134 22.9891 41.2461 23.3926 41.5643 23.8625C43.4796 26.6913 44.3544 29.9723 44.4535 32.6333C44.4676 33.0141 44.714 33.2947 45.0145 33.3699C45.1648 33.4075 45.3322 33.3932 45.479 33.3056C45.6277 33.2169 45.7306 33.0679 45.7788 32.8821C46.6964 29.3484 45.1322 24.8245 42.2953 21.6847C41.4551 20.7547 40.536 20.1381 39.5681 19.5117C39.5029 19.4696 39.4374 19.4273 39.3717 19.3849L39.3695 19.3835C38.4583 18.7952 37.5003 18.1767 36.4823 17.2575Z" fill="#151313"/>
<path d="M9.0132 21.1394C6.74527 20.9575 4.95693 21.5804 3.5929 22.7022C2.23443 23.8194 1.31387 25.4169 0.745544 27.1615C-0.387518 30.6397 -0.146903 34.788 0.914645 37.117C1.1981 37.7389 2.04534 37.6963 2.30763 37.0936C2.59582 36.4315 2.69543 35.8619 2.66475 35.2475C2.63462 34.6445 2.47863 34.0044 2.27293 33.2108C1.52267 30.3162 1.99541 27.9409 3.24014 26.1614C4.48851 24.3767 6.53386 23.1625 8.97797 22.6382C9.38854 22.5502 9.62884 22.2136 9.65595 21.8831C9.66961 21.7166 9.63018 21.5388 9.51689 21.3943C9.40052 21.246 9.22462 21.1564 9.0132 21.1394Z" fill="#151313"/>
<path d="M39.6777 25.3378C40.1241 25.215 40.3994 24.9362 40.4995 24.5772C40.5948 24.2352 40.5207 23.8602 40.3636 23.539C40.2054 23.2153 39.9493 22.917 39.6355 22.7246C39.3192 22.5306 38.9314 22.4382 38.5323 22.5605C37.2723 22.9465 36.7964 24.0204 37.1059 24.7356C37.2815 25.1414 37.6579 25.3705 38.1068 25.4575C38.5527 25.5439 39.096 25.4978 39.6777 25.3378Z" fill="#151313"/>
<path d="M5.70103 26.5667C5.27656 26.5115 4.86229 26.5838 4.48689 26.805C4.11382 27.0248 3.79532 27.382 3.54128 27.8712C3.26953 28.3945 3.28014 29.0637 3.59126 29.4715C3.75623 29.6877 4.00605 29.8259 4.31618 29.809C4.61296 29.7927 4.92947 29.6366 5.25595 29.3495C5.88983 28.7923 6.26221 28.1857 6.36311 27.6744C6.41354 27.4188 6.3999 27.1644 6.28758 26.9552C6.1696 26.7355 5.96097 26.6005 5.70103 26.5667Z" fill="#151313"/>
<path d="M44.6913 36.3261C44.5729 36.1739 44.4194 36.0786 44.251 36.0493C44.0848 36.0204 43.9224 36.059 43.79 36.1415C43.5225 36.3083 43.3751 36.654 43.5009 37.0218C44.9049 41.1266 44.3626 43.809 42.8742 45.7366C41.366 47.6898 38.8534 48.917 36.196 50.0211C35.9232 50.1344 35.7528 50.3756 35.7333 50.6353C35.7131 50.904 35.8581 51.1676 36.1519 51.2856C37.5393 51.8429 39.1155 51.5959 40.5889 50.8417C42.0639 50.0866 43.4625 48.8114 44.5223 47.2579C46.639 44.1551 47.4459 39.8655 44.6913 36.3261Z" fill="#151313"/>
<path d="M3.92981 39.5274C4.15749 39.2115 4.1242 38.8222 3.94929 38.5592C3.86066 38.4259 3.7284 38.3136 3.56094 38.2637C3.38886 38.2125 3.20215 38.2341 3.02618 38.3321C1.53435 39.1624 0.690191 40.4295 0.363559 41.8889C0.0386469 43.3405 0.227043 44.9725 0.773599 46.5535C1.8638 49.7072 4.41185 52.7467 7.37417 53.8448C8.19283 54.1482 9.14602 54.3808 10.1593 54.2735C11.179 54.1655 12.2382 53.7154 13.2671 52.6903C13.4167 52.5412 13.491 52.3578 13.4737 52.1672C13.457 51.9838 13.3588 51.8296 13.2347 51.7207C12.9897 51.5057 12.5863 51.4154 12.2215 51.6052C11.0347 52.2225 9.94516 52.4149 8.95717 52.2991C7.96796 52.1832 7.06152 51.756 6.24642 51.1038C4.60996 49.7944 3.36234 47.5933 2.60293 45.2916C2.41127 44.7107 2.36318 43.7923 2.55861 42.7467C2.75308 41.7061 3.18499 40.5608 3.92981 39.5274Z" fill="#151313"/>
<path d="M41.7364 42.6453C41.2225 42.5252 40.814 42.5292 40.4714 42.6998C40.1332 42.8683 39.9087 43.1756 39.7073 43.5387C39.3961 44.0998 39.4955 44.8602 39.8376 45.3663C40.0129 45.6256 40.2658 45.8397 40.5873 45.9201C40.9138 46.0017 41.2728 45.9359 41.6357 45.7057C42.3201 45.2715 42.7268 44.6276 42.7737 44.0182C42.7973 43.7112 42.7287 43.4088 42.5497 43.1586C42.3698 42.9072 42.0927 42.7286 41.7364 42.6453Z" fill="#151313"/>
<path d="M7.45731 47.099C7.09821 46.7354 6.70838 46.4841 6.30548 46.384C5.89562 46.2823 5.4869 46.3414 5.11563 46.5741C4.78736 46.7798 4.65904 47.0945 4.67525 47.4243C4.69061 47.7367 4.83302 48.0561 5.02135 48.3323C5.21197 48.6119 5.46496 48.8699 5.73373 49.0602C5.99692 49.2464 6.30425 49.3879 6.60087 49.3879C6.94122 49.3879 7.22861 49.3041 7.45137 49.1481C7.67507 48.9913 7.8186 48.772 7.88524 48.5293C8.01676 48.0502 7.84879 47.4953 7.45731 47.099Z" fill="#151313"/>
<path d="M34.8692 53.38C34.9598 53.0417 34.7969 52.7543 34.5459 52.617C34.3027 52.484 33.9784 52.4889 33.7143 52.6804C27.6067 57.1108 22.8778 57.8184 18.9999 57.2027C16.8929 56.8682 15.2198 56.012 14.2157 54.8389C13.9935 54.5793 13.6515 54.4824 13.3663 54.5322C13.221 54.5575 13.0735 54.624 12.9651 54.7463C12.8525 54.8733 12.8002 55.0406 12.8182 55.2256C12.9407 56.4812 13.7861 57.3375 14.9146 57.9313C16.0402 58.5236 17.4892 58.8793 18.9164 59.1256C22.0991 59.6748 25.7185 59.5428 28.7214 58.6329C31.716 57.7255 34.1615 56.0217 34.8692 53.38Z" fill="#151313"/>
<path d="M25.0475 53.5911C24.2183 52.9997 23.3066 53.1211 22.9308 53.2665C22.156 53.5545 21.62 54.1607 21.4902 54.768C21.4243 55.076 21.4622 55.3967 21.6487 55.6615C21.8355 55.9267 22.1456 56.0991 22.5515 56.1626C23.5771 56.323 24.4693 55.9288 24.9828 55.3893C25.2382 55.1209 25.4151 54.8001 25.4487 54.4761C25.4837 54.138 25.3589 53.8132 25.0475 53.5911Z" fill="#151313"/>
<path fill-rule="evenodd" clip-rule="evenodd" d="M147.959 33.9755C148.532 34.4246 149.549 34.8709 151.141 34.5177C156.76 33.2709 159.839 35.7606 159.992 39.4645C160.068 41.3044 159.598 43.3365 158.256 44.6031C156.938 45.8461 155.008 46.538 152.598 46.538C149.739 46.538 147.257 45.4958 145.567 44.3297C144.715 43.7414 143.49 42.8071 142.874 42.0164C142.273 41.2436 142.134 40.0955 142.932 39.1994C143.405 38.669 144.076 38.2905 145.288 39.4645C147.603 41.7052 153.159 45.0883 156.18 42.0164C157.972 40.1944 157.198 36.7249 151.564 37.9223C149.433 38.3752 147.613 37.8653 146.276 36.8179C144.933 35.7654 144.201 34.1692 144.091 32.5139C143.868 29.1359 146.192 25.9032 150.108 25.9032C152.141 25.9032 155.253 26.2184 156.76 28.8319C157.43 29.9927 156.76 30.9792 155.318 30.2833C153.826 29.5632 151.804 29.1652 150.108 29.3423C147.62 29.6021 146.991 31.0246 147.072 32.2534C147.115 32.9015 147.393 33.5316 147.959 33.9755ZM59.6767 42.3597C59.8695 43.7795 61.2399 42.905 61.9646 42.3597C62.3041 42.1043 62.6452 41.8158 63.0222 41.4969L63.0439 41.4786C63.4148 41.1648 63.8264 40.8172 64.2416 40.5127C65.0107 39.9486 66.2424 38.9304 67.5202 39.1818C68.8958 39.4524 69.7233 40.6684 70.2111 42.1897C70.3753 42.7016 70.6655 43.9257 69.7991 44.9333C69.2185 45.6084 68.3583 45.557 67.79 44.2494C67.5283 43.6474 67.274 43.2906 66.9517 43.1911C66.6294 43.0915 66.1285 43.1092 64.8147 44.2494C64.351 44.6518 64.0105 44.9299 63.6008 45.2381C62.7778 45.8572 61.6747 46.5485 60.4111 46.5484C59.3275 46.5483 58.3069 46.1611 57.6007 45.1996C56.9284 44.2843 56.7514 43.1294 56.7765 42.0938C56.8259 40.0531 57.6738 37.6036 58.8096 35.3641C59.9692 33.0777 61.547 30.778 63.2802 29.0274C64.9661 27.3247 67.0266 25.9132 69.1326 25.913C69.979 25.9129 70.7317 26.2606 71.3022 26.9517C71.818 27.5765 72.0869 28.3649 72.2508 29.0641C72.5019 30.1351 72.6118 31.5309 72.7185 32.8848C72.7457 33.2299 72.7727 33.5724 72.8017 33.906C73.1127 37.4787 73.4527 40.991 76.0415 43.3778C76.6857 43.9717 77.7999 45.2298 76.5076 45.9783C75.7702 46.4054 74.4128 46.3873 73.3703 45.5627C71.4361 44.0329 70.2111 40.1334 69.7233 32.9895C69.6458 31.854 69.4909 30.4849 68.7877 30.1323C68.0844 29.7796 66.759 30.0904 65.2525 31.6119C63.7934 33.0856 62.4255 34.7709 61.4048 36.7834C60.3603 38.8428 59.5238 41.2346 59.6767 42.3597ZM79.1764 32.9578C79.3345 34.8979 81.1717 34.7926 82.5193 34.5342C88.2867 33.4284 89.997 35.1006 91.1509 37.8695C92.3183 40.6705 91.0724 43.8478 88.4302 45.2443C87.0316 45.9835 84.9474 46.2777 82.943 45.9783C80.9305 45.6777 78.6857 44.3232 77.2286 42.1897C76.7186 41.4429 76.5435 40.2929 77.2286 39.9618C77.9136 39.6307 78.7785 40.5359 79.4648 41.0654C80.8307 42.1192 81.7442 42.3313 83.3279 42.5678C84.9198 42.8055 86.4115 42.5265 87.1821 42.1192C88.6053 41.367 88.6723 40.1448 88.4553 39.3563C88.1969 38.4175 87.1821 36.7834 82.9472 37.6191C80.9881 38.0057 79.1878 38.1028 77.9433 36.9976C76.6834 35.8788 76.1833 33.9316 76.432 32.1366C76.9326 28.5223 80.5129 25.913 86.1798 25.913C87.0053 25.913 88.5439 26.6867 87.7953 29.189C87.5267 30.087 86.9968 29.7922 86.1798 29.6564C81.1825 28.8256 79.0331 31.1986 79.1764 32.9578ZM110.905 41.9006C111.341 41.7697 111.622 40.8447 112.618 39.8187C114.493 37.887 115.938 37.6558 117.364 37.5954C118.604 37.5429 119.169 37.6479 119.442 38.0314C120.396 39.3701 120.143 40.8825 119.173 40.8825C116.88 40.8825 115.786 41.2213 114.145 43.0271C112.701 44.6162 112.505 45.9552 110.817 45.9552C109.042 45.9552 107.953 44.6145 107.701 42.6554C107.495 41.051 107.785 37.4105 108.449 34.1504C110.007 26.51 113.097 25.9128 114.793 25.9126C117.761 25.9122 119.737 27.5276 121.741 30.9792C123.678 34.3151 124.73 40.27 124.73 44.8272C124.73 45.7769 124.103 45.9548 123.278 45.9548C122.452 45.9548 121.468 45.7737 121.538 44.8272C121.843 40.6719 120.861 36.306 119.442 33.3653C117.989 30.3547 116.476 29.3521 114.793 29.3521C114.25 29.3521 112.516 29.5449 111.38 35.2436C110.361 40.3502 110.443 42.0392 110.905 41.9006ZM126.377 29.0504C127.535 26.9177 129.685 25.9126 132.362 25.9126C135.29 25.9126 138.122 26.657 139.543 28.1484C140.275 28.9175 140.762 29.8836 140.914 30.9792C141.031 31.8165 140.804 33.0391 140.575 33.6614C140.254 34.536 139.631 35.2313 138.808 34.9574C138.188 34.7508 137.962 33.9887 137.962 33.0391C137.962 32.5139 138.019 31.9332 137.962 31.5232C137.928 31.2773 137.817 30.992 137.528 30.6889C136.905 30.0356 134.967 29.3517 132.362 29.3517C130.679 29.3517 129.536 29.8878 128.943 30.9792C128.301 32.1615 128.19 34.1322 128.395 36.0165C128.598 37.8873 129.242 39.6788 130.189 41.0082C131.124 42.3201 132.286 43.0652 133.607 43.0652C134.862 43.0652 136.612 42.6405 138.529 40.3262C139.462 39.1994 140.454 39.5267 140.9 40.3262C141.383 41.1945 141.282 42.3457 140.582 43.0652C138.529 45.1785 135.672 46.5468 133.607 46.5468C131.19 46.5468 128.966 45.4482 127.604 43.5361C126.254 41.6414 125.692 38.8708 125.429 36.4429C125.166 34.0284 125.267 31.0922 126.377 29.0504ZM103.38 31.9517C101.948 28.2124 94.963 29.093 91.7089 30.6003C90.9431 30.955 90.4518 30.238 89.9968 29.3521C89.4449 28.2778 89.6836 27.2645 90.4805 27.0168C94.4164 25.7934 97.9645 25.806 100.675 26.3386C103.988 26.9898 105.522 28.6699 106.299 31.2001C106.949 33.3129 106.877 35.3484 106.054 37.0359C105.217 38.7487 103.709 39.4075 100.98 39.4075C99.4601 39.4075 98.5215 39.7543 97.7619 40.3273C97.2415 40.7199 96.9561 41.4743 96.8489 41.9006C96.4801 43.3679 96.3884 44.0452 96.1061 45.2693C95.8943 46.1872 95.5509 46.2957 94.4043 46.2957C93.0831 46.2957 93.0049 45.3051 93.2166 44.3871C93.4645 43.3125 93.7174 41.5952 93.7672 39.78C93.8075 38.3072 93.7672 36.087 93.0849 34.1046C92.781 33.2216 92.2298 32.5545 93.4273 31.9517C94.7559 31.2828 95.7993 31.7402 96.1123 32.9091C96.5498 34.5425 96.6058 37.5958 96.6058 37.5958C96.6058 37.5958 97.9274 35.9137 100.98 36.0383C104.208 36.1701 103.801 33.0535 103.38 31.9517Z" fill="#151313"/>
</svg>
