<svg width="119" height="24" viewBox="0 0 119 24" fill="none" xmlns="http://www.w3.org/2000/svg">
<path fill-rule="evenodd" clip-rule="evenodd" d="M8.23806 24H12.1631C14.4488 22.4964 15.9506 19.9071 15.9506 16.9732C15.9506 12.5661 12.5541 8.95714 8.23806 8.61071V24ZM8.23806 1.98393V0H24.5256V24H14.8309L24.4363 14.3929L10.1327 0.1L8.23806 1.98214V1.98393ZM7.55592 8.58571C4.60949 8.58571 2.02913 10.0875 0.527344 12.3625V23.9982H8.23806V8.60893C8.01663 8.59821 7.78092 8.58571 7.55592 8.58571ZM8.23806 0V1.98393L0.527344 9.69643V0H8.23806Z" fill="white"/>
<path fill-rule="evenodd" clip-rule="evenodd" d="M103.929 22.9554V20.0089L104.231 18.7089L104.458 18.8107C106.015 19.5054 107.818 20.2446 109.67 20.2446C110.902 20.2446 111.979 19.8518 112.618 19.1786C113.11 18.6393 113.324 17.9679 113.267 17.1482C113.156 15.5446 111.72 14.7732 110.049 13.875C107.988 12.7679 105.658 11.5107 105.431 8.30357C105.308 6.53571 105.777 5.06249 106.833 3.93571C108.179 2.48571 110.397 1.69107 113.067 1.69107C115.197 1.69107 117.092 2.00535 118.704 2.64464L118.874 2.71071L118.02 6.62499L117.797 6.51249C116.417 5.82857 114.826 5.43571 113.413 5.43571C112.493 5.43571 111.295 5.68392 110.667 6.35357C110.342 6.70178 110.195 7.13749 110.233 7.65714C110.318 8.99821 111.667 9.76249 113.21 10.6482C115.276 11.8161 117.842 13.25 118.076 16.7125C118.22 18.7643 117.717 20.4214 116.574 21.6571C115.151 23.1911 112.761 24 109.668 24C107.918 24 105.992 23.6518 103.927 22.9571M103.927 5.81071H104.108L104.57 2.05357H103.929V5.81071H103.927ZM103.927 2.05357V5.81071H95.8256L95.1541 10.6179H102.561L102.068 14.3482H94.6381L93.8649 19.8875H102.238L101.688 23.6304H88.6399L91.6791 2.05535H103.929L103.927 2.05357ZM103.927 20.0107L103.301 22.7321L103.479 22.8C103.629 22.8571 103.783 22.9125 103.927 22.9571V20.0107ZM78.3916 23.4518V19.4714C79.6274 19.1107 80.6363 18.5196 81.4095 17.6786C82.8541 16.1339 83.4845 13.7768 83.2684 10.7089C83.0791 8.10892 81.297 6.39107 78.3916 5.93214V2.06249C80.8488 2.13928 82.8863 2.74464 84.4809 3.85714C86.6756 5.40178 87.9113 7.91428 88.147 11.2875C88.2916 13.3375 88.122 17.2179 85.4113 20.1286C83.7399 21.9357 81.3845 23.0446 78.3916 23.45M78.3916 2.06249V5.92857C77.8666 5.83928 77.3059 5.80892 76.7238 5.80892H75.4327L73.472 19.8857H75.2006C76.3881 19.8857 77.4541 19.75 78.3916 19.4696V23.45C77.5202 23.575 76.6024 23.6286 75.6238 23.6286H68.4524V22.2286L71.2988 2.05357H77.8345C78.0238 2.05357 78.2024 2.05357 78.3916 2.06428M68.4524 3.39821L68.6416 2.05535H68.4524V3.39821ZM46.9863 7.32142C46.8506 5.46964 46.0666 4.07142 44.6434 3.17678C43.4756 2.44464 41.8845 2.05535 40.0131 2.05535H38.7024V5.81249H38.8577C40.6291 5.81249 42.2202 5.95535 42.3452 7.72499C42.4006 8.48749 42.2095 9.10714 41.7845 9.55357C41.0774 10.3268 39.7881 10.5589 38.7024 10.6054V14.2036C40.372 14.3375 41.7291 14.8304 41.8399 16.5125C41.9077 17.4857 41.7059 18.225 41.2024 18.7536C40.6291 19.3696 39.7345 19.6607 38.7024 19.7839V23.5607C41.7184 23.3393 43.8899 22.5214 45.1827 21.1304C46.1881 20.0429 46.6488 18.6071 46.5256 16.8714C46.3702 14.55 45.2381 12.9607 43.3863 12.3875C45.6274 11.7018 47.1416 9.64285 46.9863 7.32142ZM68.4524 2.05535V3.39821L65.4809 23.6304H59.697L54.3399 7.96071L52.1774 23.6304H47.6952L50.8202 2.05535H56.5166L61.9631 17.6018L64.2274 2.05535H68.4541H68.4524ZM68.4524 22.2304L68.2488 23.6304H68.4524V22.2304ZM38.7059 2.05178H33.5595L30.5577 23.6268H36.8363C37.497 23.6268 38.1149 23.6036 38.7077 23.5571V19.7804C38.0899 19.8625 37.4309 19.8839 36.7684 19.8839H35.5577L36.3541 14.1661H37.5416C37.9452 14.1661 38.3363 14.1804 38.7077 14.2V10.6018C38.5613 10.6018 38.4166 10.6161 38.2809 10.6161H36.8577L37.5524 5.80892H38.7059V2.05178Z" fill="white"/>
</svg>
