<svg width="32" height="26" viewBox="0 0 32 26" fill="none" xmlns="http://www.w3.org/2000/svg">
<path fill-rule="evenodd" clip-rule="evenodd" d="M0 5.889C0 2.94348 2.38781 0.555664 5.33333 0.555664H26.6667C29.6122 0.555664 32 2.94348 32 5.889V20.1112C32 23.0567 29.6122 25.4446 26.6667 25.4446H5.33333C2.38781 25.4446 0 23.0567 0 20.1112V5.889ZM3.77168 5.03875L15.0578 12.0926C15.6343 12.4529 16.3657 12.4529 16.9422 12.0926L28.2283 5.03875C27.9268 4.48613 27.3405 4.11122 26.6667 4.11122H5.33333C4.65948 4.11122 4.07319 4.48613 3.77168 5.03875ZM28.4444 9.09655L18.8267 15.1077C17.0972 16.1886 14.9028 16.1886 13.1733 15.1077L3.55556 9.09655V20.1112C3.55556 21.0931 4.35149 21.889 5.33333 21.889H26.6667C27.6485 21.889 28.4444 21.0931 28.4444 20.1112V9.09655Z" fill="white"/>
</svg>
