<svg width="145" height="106" viewBox="0 0 145 106" fill="none" xmlns="http://www.w3.org/2000/svg">
<path fill-rule="evenodd" clip-rule="evenodd" d="M34.5836 84.2357C35.0116 84.3686 35.3104 84.7602 35.3104 85.2084V94.4942C35.3104 94.9588 35.6312 95.3636 36.085 95.4638C40.3962 96.4163 43.4628 96.5737 49.5438 95.4425C50.0139 95.355 50.3545 94.9426 50.3545 94.4644V85.2084C50.3545 84.7602 50.6532 84.3686 51.0812 84.2357C52.8535 83.6851 54.5532 82.9617 56.1617 82.0845C56.5651 81.8645 57.0677 81.9321 57.3876 82.2619L63.7116 88.7795C64.0353 89.1132 64.5477 89.1804 64.9426 88.935C68.563 86.6852 70.8277 84.603 74.4686 79.0529C74.7237 78.6641 74.673 78.1494 74.3491 77.8156L68.0609 71.3348C67.7526 71.017 67.6915 70.535 67.8988 70.1437C68.7955 68.4509 69.5354 66.6574 70.0986 64.7837C70.2284 64.3519 70.6218 64.0496 71.0727 64.0496H79.872C80.336 64.0496 80.7398 63.7301 80.8424 63.2776C82.4706 56.0986 82.2403 53.044 80.9 49.2003C80.7623 48.8053 80.3863 48.5446 79.968 48.5446H71.2059C70.7491 48.5446 70.3521 48.2346 70.2273 47.7952C69.6802 45.8677 68.9467 44.0222 68.0484 42.2808C67.8473 41.891 67.9104 41.4146 68.2159 41.0997L74.3484 34.7794C74.6726 34.4452 74.7233 33.9304 74.4674 33.5414C70.5821 27.636 68.3746 25.8208 64.9463 23.6683C64.5494 23.4191 64.0322 23.4842 63.7058 23.8206L57.6756 30.0356C57.3526 30.3684 56.8441 30.4339 56.4394 30.2072C54.7492 29.2606 52.9559 28.4849 51.0812 27.9025C50.6532 27.7696 50.3545 27.378 50.3545 26.9298V19.0681C50.3545 18.2919 49.4669 17.7458 48.7082 17.9099C46.3991 18.4094 42.5515 18.2594 36.4503 17.46C35.849 17.3812 35.3104 17.8473 35.3104 18.4539V26.9298C35.3104 27.378 35.0116 27.7696 34.5836 27.9025C32.709 28.4849 30.9156 29.2606 29.2254 30.2072C28.8208 30.4339 28.3122 30.3684 27.9893 30.0356L21.9127 23.7729C21.608 23.4588 21.1329 23.3784 20.7458 23.5826C17.0845 25.5145 14.8117 27.5145 11.1562 33.552C10.9223 33.9382 10.9809 34.4335 11.2953 34.7576L17.4489 41.0997C17.7544 41.4145 17.8175 41.891 17.6164 42.2808C16.7181 44.0222 15.9846 45.8677 15.4375 47.7952C15.3127 48.2346 14.9157 48.5446 14.459 48.5446H6.14248C5.5379 48.5446 5.07252 49.0804 5.14656 49.6805C5.94644 56.1627 5.72463 58.9964 5.16818 62.902C5.08206 63.5064 5.5491 64.0496 6.15962 64.0496H14.5921C15.043 64.0496 15.4365 64.3519 15.5662 64.7837C16.1294 66.6574 16.8694 68.4509 17.766 70.1437C17.9733 70.535 17.9123 71.017 17.6039 71.3348L11.2561 77.877C10.9604 78.1817 10.8888 78.6409 11.083 79.0184C14.0618 84.8108 16.4422 86.8738 20.7512 89.0304C21.1366 89.2233 21.6029 89.1406 21.903 88.8313L28.2772 82.2619C28.5972 81.9321 29.0998 81.8645 29.5032 82.0845C31.1117 82.9617 32.8113 83.6851 34.5836 84.2357ZM41.7262 73.8542C50.2792 73.8542 58.5402 66.4328 58.5402 57.6178C58.5402 48.8028 55.0004 41.4013 43.9386 40.1081C35.4401 39.1146 27.1246 45.5265 27.1246 56.2971C27.1246 65.1121 33.1732 73.8542 41.7262 73.8542Z" fill="white"/>
<path fill-rule="evenodd" clip-rule="evenodd" d="M116.496 103.055C116.422 103.549 115.993 103.913 115.494 103.904C108.936 103.783 106.234 103.079 102.304 101.817C101.839 101.668 101.551 101.203 101.624 100.719L103.005 91.4755C103.066 91.0653 102.867 90.6617 102.512 90.4466C100.818 89.4192 99.2836 88.1632 97.9414 86.7257C97.6517 86.4154 97.2025 86.3057 96.8084 86.4636L88.8213 89.664C88.2317 89.9003 87.5743 89.5323 87.4549 88.9084C86.3276 83.0189 85.0424 80.3137 82.8475 76.6866C82.526 76.1554 82.7533 75.4599 83.3296 75.229L91.2954 72.037C91.6804 71.8828 91.9281 71.5068 91.9338 71.0922C91.9477 70.0745 92.0301 69.0456 92.1847 68.0111C92.3396 66.9739 92.5621 65.9648 92.8469 64.9876C92.9616 64.594 92.8393 64.1669 92.5234 63.9055L85.6026 58.18C85.2143 57.8588 85.1268 57.2965 85.3989 56.8724C88.9464 51.3445 90.8777 49.0196 93.6992 46.1687C94.0612 45.8029 94.6428 45.7767 95.0394 46.1047L101.983 51.8494C102.311 52.1207 102.774 52.1526 103.145 51.9444C104.838 50.9942 106.66 50.275 108.567 49.8208C108.976 49.7233 109.292 49.393 109.355 48.9769L110.737 39.7236C110.808 39.2497 111.205 38.891 111.684 38.8802C115.389 38.7968 118.506 39.2759 124.876 41.0302C125.362 41.1641 125.672 41.6411 125.598 42.1396L124.194 51.5334C124.134 51.9356 124.325 52.3322 124.668 52.5505C126.273 53.5726 127.729 54.8028 129.005 56.1993C129.294 56.5156 129.748 56.6289 130.146 56.4695L138.457 53.1393C139.029 52.9099 139.671 53.2507 139.811 53.8513C141.181 59.7144 142.39 62.5035 144.433 66.151C144.729 66.6812 144.497 67.3545 143.933 67.5806L135.489 70.964C135.108 71.1168 134.861 71.4873 134.851 71.898C134.828 72.8388 134.747 73.7887 134.605 74.7434C134.462 75.7008 134.261 76.6344 134.007 77.5409C133.897 77.9319 134.021 78.3537 134.334 78.6126L141.443 84.4943C141.902 84.8741 141.927 85.5699 141.504 85.9891C137.257 90.1954 135.603 92.6424 133.481 96.2724C133.168 96.8069 132.451 96.9375 131.974 96.5429L125.015 90.786C124.684 90.5121 124.216 90.4824 123.844 90.6967C122.226 91.628 120.486 92.3469 118.665 92.8232C118.266 92.9275 117.961 93.2538 117.9 93.6616L116.496 103.055ZM113.407 81.7006C118.912 82.5742 122.279 78.7067 123.143 72.9244C124.007 67.1421 122.035 62.0306 114.74 60.8729C107.445 59.7151 105.592 64.1957 104.728 69.978C103.47 78.4018 107.902 80.8269 113.407 81.7006Z" fill="white"/>
<path fill-rule="evenodd" clip-rule="evenodd" d="M87.4006 43.2612C87.0727 43.8466 86.2722 43.9474 85.7948 43.4759C83.1165 40.8307 81.3074 39.7346 78.922 39.1879C78.2363 39.0308 77.8539 38.2661 78.1977 37.6524L80.9045 32.8204C81.1053 32.4619 81.0639 32.0188 80.818 31.6895C80.0421 30.6506 79.4017 29.5222 78.9046 28.335C78.7428 27.9486 78.3711 27.6862 77.9522 27.6862H72.6374C71.9368 27.6862 71.4547 26.9823 71.6753 26.3173C72.9434 22.4936 72.7429 20.3362 71.858 18.1378C71.5806 17.4484 72.0592 16.6677 72.8023 16.6677H77.8845C78.3067 16.6677 78.6806 16.4013 78.8404 16.0104C79.0862 15.4091 79.3711 14.8169 79.6959 14.2371C80.0244 13.6506 80.3841 13.0942 80.7715 12.5688C81.014 12.24 81.0537 11.7998 80.854 11.4433L77.8865 6.14601C77.6523 5.72794 77.7496 5.20011 78.1177 4.89332C82.3825 1.33903 84.1853 0.363104 86.0814 0.0147135C86.479 -0.0583415 86.8706 0.146504 87.0682 0.499189L90.1301 5.96513C90.3363 6.33313 90.7508 6.52889 91.1697 6.47916C92.3933 6.33388 93.6381 6.34034 94.8761 6.50623C95.3001 6.56305 95.7231 6.36755 95.9322 5.99431L98.9232 0.654972C99.162 0.228799 99.6749 0.0367702 100.133 0.20579C102.977 1.25466 104.876 2.17253 107.997 4.89465C108.349 5.20183 108.433 5.71535 108.205 6.12303L105.108 11.6525C104.911 12.004 104.946 12.4377 105.181 12.7655C105.903 13.7758 106.5 14.8658 106.964 16.0088C107.124 16.4005 107.498 16.6677 107.921 16.6677H113.979C114.497 16.6677 114.93 17.063 114.972 17.5787C115.216 20.5656 115.245 22.7911 114.962 26.7632C114.925 27.2841 114.49 27.6862 113.968 27.6862L107.855 27.6862C107.437 27.6862 107.065 27.9478 106.903 28.3333C106.672 28.8825 106.408 29.4239 106.11 29.9548C105.809 30.4925 105.482 31.0049 105.131 31.4913C104.894 31.8194 104.857 32.2549 105.055 32.6079L108.295 38.3922C108.48 38.7209 108.464 39.1269 108.248 39.4356C106.319 42.1929 104.595 43.5415 100.022 44.327C99.6117 44.3974 99.2023 44.197 98.9989 43.834L95.8459 38.2055C95.6377 37.8339 95.2174 37.6383 94.795 37.6931C93.6246 37.8448 92.4337 37.8575 91.2468 37.7246C90.8299 37.6779 90.4187 37.8737 90.2137 38.2396L87.4006 43.2612ZM89.2862 28.2285C93.0467 31.4436 96.6617 29.859 98.5841 26.4273C100.507 22.9956 99.6887 19.3616 95.5826 16.6677C92.4003 14.5799 88.6642 16.1551 86.7418 19.5868C85.209 22.323 86.3829 25.7463 89.2862 28.2285Z" fill="white"/>
<path fill-rule="evenodd" clip-rule="evenodd" d="M123.224 28.722C124.922 24.9585 125.7 20.2573 126.061 16.4384C126.262 14.3172 126.336 12.4341 126.361 11.0808C126.373 10.4037 126.372 9.85809 126.369 9.48029C126.367 9.29136 126.365 9.1443 126.363 9.04366C126.362 8.99334 126.361 8.95461 126.36 8.92805L126.359 8.89739L126.359 8.88903L126.359 8.88662C126.359 8.88636 126.359 8.88539 125.359 8.9166C124.363 8.94772 124.36 8.94771 124.36 8.94765L124.36 8.94892L124.36 8.95471L124.361 8.98014C124.361 9.00318 124.362 9.0383 124.363 9.08494C124.365 9.17821 124.367 9.31751 124.369 9.49832C124.372 9.86001 124.373 10.3875 124.361 11.0448C124.337 12.3602 124.265 14.191 124.07 16.2502C123.678 20.4032 122.799 25.3515 120.91 28.9019L120.302 30.0454L121.562 30.3445C126.458 31.5064 129.575 34.33 131.48 36.8786C132.434 38.1549 133.079 39.3582 133.486 40.2386C133.688 40.6783 133.83 41.0356 133.92 41.2789C133.966 41.4005 133.998 41.4934 134.018 41.5536C134.028 41.5837 134.035 41.6057 134.039 41.6189L134.043 41.6322C134.043 41.6319 134.043 41.6321 135.001 41.3451C135.959 41.0581 135.959 41.0577 135.959 41.0572L135.958 41.056L135.957 41.0529L135.955 41.0442L135.946 41.0166C135.939 40.9937 135.929 40.9619 135.915 40.9217C135.888 40.8414 135.849 40.7274 135.796 40.584C135.69 40.2973 135.528 39.892 135.302 39.4011C134.85 38.4205 134.135 37.0912 133.082 35.6814C131.131 33.0702 128.002 30.1688 123.224 28.722ZM17.1683 100.785C5.07505 94.3197 -2.09789 82.3236 0.547013 68.5955L2.5109 68.9738C0.061445 81.6875 6.64325 92.8902 18.1113 99.0217C29.5861 105.157 45.9363 106.175 62.7469 98.3118L63.5943 100.123C46.2727 108.225 29.2549 107.248 17.1683 100.785Z" fill="#FFA400"/>
</svg>
