<svg width="100" height="24" viewBox="0 0 100 24" fill="none" xmlns="http://www.w3.org/2000/svg">
<path d="M5.60288 1.22957C5.60288 1.2253 5.60304 1.22053 5.60304 1.21626C5.60748 1.22053 5.61192 1.22513 5.61635 1.22941C5.61192 1.22941 5.60748 1.22941 5.60288 1.22957ZM5.2403 0.781521V0.795327C5.23569 0.790726 5.23126 0.786287 5.22665 0.781521H5.2403ZM5.22846 0.769851C5.22862 0.774125 5.22862 0.778726 5.22862 0.783165H5.21515V0.769851H5.22846ZM5.6632 1.2986V1.31208C5.6586 1.30764 5.65416 1.30321 5.64956 1.29877C5.65416 1.29877 5.6586 1.2986 5.6632 1.2986ZM5.59104 1.21659C5.59564 1.21692 5.60008 1.21757 5.60468 1.21806L5.60304 1.21626C5.60304 1.22053 5.60288 1.2253 5.60288 1.22957L5.60468 1.22826C5.60008 1.22431 5.59564 1.22053 5.59104 1.21659ZM5.57904 1.19275H5.59285C5.59269 1.2013 5.59252 1.20968 5.59236 1.21839C5.58792 1.20985 5.58348 1.2013 5.57904 1.19275ZM5.61635 1.25357C5.61175 1.2534 5.60748 1.2534 5.60288 1.25324C5.60353 1.24486 5.60403 1.23647 5.60468 1.22826L5.60288 1.22957C5.60748 1.22941 5.61192 1.22941 5.61635 1.22941L5.61471 1.22793C5.61537 1.23631 5.6157 1.24502 5.61635 1.25357ZM5.40071 0.66203C5.40646 0.667618 5.41222 0.673205 5.41797 0.678959L5.41945 0.677973C5.4137 0.672219 5.40794 0.666467 5.40203 0.660715L5.40071 0.66203ZM5.4755 0.736321H5.45018C5.45051 0.727937 5.45101 0.719721 5.45134 0.711833L5.45068 0.712324C5.4589 0.720214 5.46728 0.728103 5.4755 0.736321ZM5.45134 0.711833C5.44065 0.700492 5.42997 0.688984 5.41945 0.677973L5.41797 0.678959C5.42898 0.690299 5.43983 0.701147 5.45068 0.712324L5.45134 0.711833ZM5.58151 1.15906H5.5677V1.14542C5.57231 1.15019 5.57691 1.15479 5.58151 1.15906ZM5.29947 0.830174H5.28582V0.816364C5.29043 0.82113 5.29486 0.825571 5.29947 0.830174ZM5.2878 0.818501H5.27399V0.804694C5.27859 0.809297 5.28319 0.814063 5.2878 0.818501ZM5.68719 1.31192H5.67372C5.66961 1.30797 5.66566 1.30403 5.66155 1.30008V1.27444C5.6701 1.2871 5.67865 1.29943 5.68719 1.31192ZM5.66336 1.27707C5.65514 1.27296 5.6466 1.26869 5.63822 1.26475V1.23927C5.6466 1.25193 5.65514 1.26442 5.66336 1.27707ZM5.60468 1.21806C5.60403 1.20952 5.60353 1.20097 5.60288 1.19243C5.61142 1.20508 5.61981 1.21725 5.62835 1.22974C5.62375 1.22908 5.61915 1.22842 5.61471 1.22793L5.61635 1.22941C5.61192 1.22513 5.60748 1.22053 5.60304 1.21626L5.60468 1.21806ZM5.21005 4.39699C5.21087 4.38893 5.21186 4.38072 5.21285 4.37233C5.21268 4.37217 5.21186 4.37069 5.21153 4.37069C5.21087 4.37907 5.21022 4.38762 5.20939 4.39666C5.20956 4.39682 5.20989 4.39699 5.21005 4.39699ZM5.24128 4.3743C5.24555 4.36642 5.24983 4.35836 5.25394 4.35031C5.25394 4.35014 5.25295 4.34866 5.25295 4.34866C5.24884 4.35655 5.24523 4.36444 5.24161 4.37283C5.24161 4.37332 5.24128 4.3743 5.24128 4.3743ZM5.25394 4.35014C5.25394 4.35014 5.25295 4.3485 5.25295 4.34866L5.25394 4.35014ZM5.38756 4.24808C5.38756 4.24939 5.38789 4.25087 5.38789 4.25235C5.38723 4.2512 5.38691 4.25021 5.38592 4.24939C5.38576 4.24955 5.38756 4.24808 5.38756 4.24808ZM5.38576 4.24955C5.38888 4.25038 5.39167 4.25153 5.39447 4.25235C5.39414 4.24972 5.39397 4.24725 5.39397 4.24495C5.39184 4.2461 5.3897 4.24692 5.38756 4.24808L5.38576 4.24955ZM5.98568 2.18665C5.98436 2.18681 5.98305 2.18698 5.98173 2.18698C5.98239 2.18649 5.98321 2.18599 5.98403 2.18533C5.98387 2.18517 5.98568 2.18665 5.98568 2.18665ZM5.90941 2.18583C5.9104 2.18566 5.91122 2.1855 5.91221 2.18517C5.91155 2.18583 5.91106 2.18665 5.91056 2.18731C5.91073 2.18764 5.90941 2.18583 5.90941 2.18583ZM5.75902 1.82735C5.75245 1.8244 5.74571 1.82193 5.73864 1.81963C5.73831 1.81963 5.737 1.82029 5.73667 1.82029C5.74341 1.82308 5.75064 1.82588 5.75771 1.82851C5.75787 1.82851 5.75902 1.82735 5.75902 1.82735ZM5.73124 1.68469L5.73305 1.68567C5.73289 1.68567 5.73124 1.68469 5.73124 1.68469ZM5.71744 1.65872C5.71711 1.65905 5.71645 1.65938 5.71579 1.65971C5.71563 1.65971 5.71744 1.65872 5.71744 1.65872ZM5.511 1.39673C5.50475 1.39147 5.49867 1.38637 5.4921 1.38144C5.49177 1.38144 5.49062 1.3821 5.49045 1.3821C5.49686 1.38719 5.5036 1.39262 5.51001 1.39788C5.51034 1.39804 5.511 1.39673 5.511 1.39673ZM5.48848 1.35909C5.48174 1.35547 5.475 1.35153 5.46794 1.34791C5.46744 1.34808 5.46629 1.34791 5.46596 1.34791C5.47303 1.35202 5.4801 1.35629 5.48733 1.36024L5.48848 1.35909ZM5.33678 1.34791L5.33497 1.34857C5.33497 1.34857 5.3348 1.34693 5.33497 1.34709C5.33513 1.34725 5.33678 1.34791 5.33678 1.34791ZM5.46596 1.33115C5.46301 1.33558 5.45988 1.3397 5.45676 1.3438C5.45972 1.34512 5.46268 1.34643 5.46596 1.34791C5.46629 1.34791 5.46744 1.34807 5.46744 1.34807C5.46662 1.34199 5.4658 1.33608 5.46514 1.32999C5.46514 1.32983 5.46596 1.33115 5.46596 1.33115ZM5.33513 1.34725C5.33431 1.34676 5.33316 1.34643 5.33217 1.3461C5.33365 1.34676 5.3353 1.34725 5.33678 1.34791L5.33513 1.34725ZM5.4114 1.282C5.41024 1.28167 5.40909 1.28118 5.40794 1.28085C5.40893 1.28085 5.40975 1.28118 5.41074 1.28118L5.4114 1.282ZM5.17849 4.39715C5.1757 4.40323 5.17291 4.40915 5.17028 4.41507C5.17028 4.41523 5.17176 4.41687 5.17176 4.41704C5.17455 4.41079 5.17734 4.40488 5.17997 4.39879C5.17997 4.39863 5.17849 4.39715 5.17849 4.39715ZM5.26363 1.17582C5.26462 1.17468 5.26577 1.17369 5.26676 1.1727C5.26643 1.17369 5.26594 1.17484 5.26561 1.17599C5.26577 1.17615 5.26363 1.17582 5.26363 1.17582ZM5.25312 1.15446C5.25065 1.16021 5.24835 1.16596 5.24572 1.17155C5.2518 1.17303 5.25755 1.17435 5.26363 1.17582L5.26577 1.17615C5.27629 1.15873 5.27596 1.14854 5.25147 1.1538C5.25164 1.1538 5.25312 1.15446 5.25312 1.15446ZM5.25164 1.1538C5.25016 1.15462 5.24851 1.15528 5.24687 1.1561C5.24884 1.15725 5.25114 1.1584 5.25328 1.15972C5.25328 1.15775 5.25312 1.15627 5.25312 1.15446L5.25164 1.1538ZM5.27481 1.12948C5.27465 1.12882 5.27465 1.128 5.27432 1.12717C5.2753 1.128 5.27613 1.12865 5.27711 1.12948H5.27481ZM5.27728 1.12948C5.27465 1.1275 5.27218 1.1252 5.26955 1.12372C5.26922 1.12339 5.26741 1.12602 5.26626 1.1275C5.26922 1.12816 5.27202 1.12882 5.27481 1.12948H5.27728ZM5.1231 1.02494C5.12376 1.02478 5.12458 1.02461 5.12524 1.02461C5.12524 1.02478 5.1231 1.02494 5.1231 1.02494ZM5.12524 1.02478C5.12064 1.0159 5.11571 1.00703 5.11094 0.997987C5.11094 0.997987 5.1116 0.998972 5.1116 0.998643C5.10979 1.00966 5.09763 1.02494 5.1231 1.02494L5.12524 1.02478ZM5.09089 0.997657C5.09796 0.997987 5.10486 0.99815 5.1116 0.998643C5.1116 0.998972 5.11094 0.997987 5.11094 0.997987H5.09122L5.09089 0.997657ZM5.09122 0.997987C5.09073 0.990096 5.0904 0.982207 5.09007 0.974318C5.09023 0.974155 5.09089 0.974646 5.09089 0.974482C5.09105 0.982207 5.09089 0.989769 5.09089 0.997657L5.09122 0.997987ZM5.04092 0.927475C5.0429 0.921723 5.0447 0.916134 5.04651 0.910546C5.03945 0.910382 5.03205 0.91038 5.02482 0.91038C5.02465 0.91038 5.0235 0.910217 5.0235 0.910217C5.02925 0.916463 5.03517 0.922379 5.04125 0.928789L5.04092 0.927475ZM4.89168 0.728432C4.89283 0.72909 4.89398 0.729418 4.89514 0.729747C4.89431 0.729747 4.89333 0.729583 4.89234 0.729418L4.89168 0.728432ZM4.89086 0.703285C4.89119 0.711667 4.89152 0.720051 4.89168 0.728432L4.89234 0.729418C4.89185 0.720543 4.89119 0.711996 4.89053 0.702956L4.89086 0.703285ZM5.16189 4.43249C5.16518 4.42756 5.16863 4.4223 5.17176 4.41704C5.17176 4.41687 5.17028 4.41523 5.17028 4.41523C5.16748 4.42049 5.16452 4.42608 5.16173 4.43167C5.16173 4.43183 5.16189 4.43249 5.16189 4.43249ZM4.57562 0.589052C4.57463 0.589218 4.57348 0.589547 4.57216 0.589876C4.57299 0.589218 4.57364 0.588561 4.5743 0.587739C4.57447 0.587739 4.57562 0.589052 4.57562 0.589052ZM5.17997 4.39863C5.18984 4.39797 5.19986 4.39764 5.20989 4.39699L5.20956 4.39682C5.1992 4.39699 5.18885 4.39699 5.17849 4.39715L5.17997 4.39863ZM4.84106 0.652497V0.665811C4.83251 0.661374 4.8238 0.6571 4.81526 0.652663C4.8238 0.652497 4.83251 0.652497 4.84106 0.652497ZM5.24161 4.37332C5.23158 4.37233 5.22156 4.37135 5.21153 4.37069C5.21186 4.37069 5.21268 4.37217 5.21268 4.37217C5.22222 4.37283 5.23175 4.37348 5.24128 4.3743L5.24161 4.37332ZM5.16173 4.43183C5.15187 4.43282 5.14184 4.43413 5.13182 4.43495L5.1328 4.43627C5.1425 4.43496 5.1522 4.43364 5.16189 4.43249L5.16173 4.43183ZM4.76414 4.65504C4.75937 4.65454 4.75461 4.65389 4.74967 4.65339C4.75461 4.65405 4.75937 4.65471 4.76447 4.65569C4.76463 4.65619 4.76414 4.65504 4.76414 4.65504ZM5.42011 1.29433C5.41731 1.29038 5.41435 1.28611 5.4114 1.282L5.41074 1.28118C5.41403 1.28562 5.41731 1.28989 5.42044 1.29417L5.42011 1.29433ZM5.49177 1.38144C5.49078 1.37388 5.48963 1.36648 5.48848 1.35909L5.48733 1.36024C5.48832 1.36747 5.4893 1.37487 5.49045 1.3821C5.49062 1.3821 5.49177 1.38144 5.49177 1.38144ZM5.87555 2.02558C5.87753 2.03577 5.87966 2.04612 5.88147 2.05664C5.88131 2.0568 5.88246 2.05533 5.88229 2.05565C5.88032 2.04546 5.87851 2.03478 5.8767 2.02426L5.87555 2.02558ZM5.88131 2.0568C5.88525 2.06437 5.88903 2.07209 5.89281 2.07998C5.89265 2.08031 5.89396 2.07866 5.8938 2.07883C5.88969 2.07127 5.88591 2.06354 5.88229 2.05565C5.88246 2.05533 5.88131 2.0568 5.88131 2.0568ZM5.90267 2.10693C5.89955 2.09756 5.89659 2.08852 5.8938 2.07883C5.89396 2.07866 5.89265 2.08031 5.89265 2.08031C5.89593 2.08902 5.89922 2.09789 5.90267 2.10693ZM5.90267 2.10693C5.90826 2.11318 5.91385 2.11943 5.91944 2.12584L5.92075 2.12419C5.91467 2.1186 5.90875 2.11269 5.90267 2.10693ZM5.91944 2.12584C5.92355 2.13323 5.92782 2.14046 5.9316 2.14786L5.93324 2.14655C5.92897 2.13931 5.9247 2.13192 5.92075 2.12419L5.91944 2.12584ZM5.91073 2.18764C5.90892 2.18418 5.90711 2.1804 5.9053 2.17679C5.90234 2.18024 5.89939 2.18385 5.89643 2.18698C5.9007 2.18665 5.90514 2.18632 5.90941 2.18583L5.91073 2.18764ZM5.98387 2.18517C5.9888 2.19125 5.9934 2.19701 5.99833 2.20276C5.99833 2.20292 5.99817 2.20292 5.99817 2.20292C5.99389 2.19766 5.98995 2.19207 5.98568 2.18665L5.98387 2.18517ZM5.96299 2.24779C5.96398 2.24631 5.96546 2.24483 5.96546 2.24319C5.96562 2.24187 5.96382 2.24056 5.96299 2.23957C5.96332 2.24237 5.96365 2.24516 5.96398 2.24779C5.96398 2.24796 5.96299 2.24779 5.96299 2.24779ZM5.96398 2.24796C5.9653 2.24944 5.96661 2.25091 5.96793 2.25223C5.96825 2.25075 5.96858 2.24927 5.96908 2.24779H5.96299L5.96398 2.24796ZM5.02909 4.50563C5.02695 4.50875 5.0258 4.51221 5.02564 4.51582C5.01841 4.51681 5.01101 4.51779 5.00378 4.51911C5.01216 4.51434 5.02071 4.51007 5.02909 4.50563ZM5.98551 2.35939C5.98403 2.36235 5.98239 2.36498 5.98107 2.3681C5.98288 2.36778 5.98485 2.36761 5.98683 2.36745C5.98584 2.36466 5.98502 2.36202 5.9842 2.35907L5.98551 2.35939ZM6.06917 2.31107C6.06901 2.31485 6.06868 2.3183 6.06868 2.32209C6.06868 2.3257 6.06917 2.32948 6.0695 2.3331C6.06851 2.32932 6.06654 2.32553 6.06654 2.32192C6.06654 2.3183 6.06802 2.31469 6.06917 2.31091V2.31107ZM6.02693 2.29776C6.02578 2.30088 6.0243 2.304 6.02315 2.30713C6.02052 2.30515 6.01608 2.30367 6.01542 2.30137C6.01477 2.29874 6.01756 2.29513 6.01888 2.29201C6.02151 2.29381 6.0243 2.29579 6.02693 2.29776ZM5.21548 1.04121C5.2158 1.04532 5.21613 1.04943 5.21646 1.05337C5.21235 1.04499 5.20824 1.03661 5.20414 1.02823C5.20792 1.03266 5.2117 1.03694 5.21548 1.04121ZM4.12066 4.93511C4.11425 4.93544 4.10801 4.93593 4.10176 4.93642C4.10801 4.93577 4.11425 4.93527 4.1205 4.93478L4.12066 4.93511ZM4.83925 0.664332H4.85257C4.85667 0.67255 4.86062 0.680932 4.86473 0.689314C4.85618 0.680932 4.8478 0.67255 4.83925 0.664332ZM4.86259 0.687671C4.87097 0.687671 4.87936 0.68767 4.8879 0.687506C4.88889 0.6926 4.88988 0.698026 4.89086 0.703285L4.89053 0.702956C4.88116 0.698026 4.87196 0.692765 4.86259 0.687671ZM6.06917 2.31091C6.06358 2.30778 6.058 2.304 6.05241 2.30072C6.05586 2.30154 6.0598 2.3017 6.06243 2.30335C6.06523 2.30516 6.06703 2.30844 6.06917 2.31107V2.31091ZM5.53089 1.43206C5.52415 1.42039 5.51757 1.40856 5.511 1.39673L5.51034 1.39804C5.51675 1.40987 5.52316 1.42155 5.52957 1.43338C5.52957 1.43371 5.53089 1.43206 5.53089 1.43206ZM4.88807 4.57581C4.88363 4.58387 4.87936 4.59208 4.87508 4.59997C4.86769 4.60112 4.86062 4.60228 4.85339 4.60326C4.85339 4.60326 4.8547 4.6054 4.85503 4.60556C4.86604 4.59554 4.87706 4.586 4.88807 4.57581ZM5.22583 1.05502C5.22961 1.0588 5.23306 1.06258 5.23684 1.06652C5.22961 1.06176 5.22238 1.05683 5.21515 1.0519C5.21827 1.05486 5.22172 1.05568 5.22583 1.05502ZM5.79041 1.89754C5.81375 1.91068 5.8172 1.92992 5.80866 1.95326V1.95309C5.80307 1.93419 5.79732 1.91529 5.79173 1.89655L5.79041 1.89754ZM4.85339 4.60326C4.83465 4.60819 4.81608 4.61296 4.79734 4.61756V4.61789C4.81657 4.61362 4.8358 4.60951 4.85503 4.60556C4.8547 4.6054 4.85339 4.60326 4.85339 4.60326ZM3.77041 4.92936C3.77369 4.93231 3.776 4.93412 3.77813 4.93642C3.77484 4.93741 3.77156 4.93938 3.76811 4.93938C3.76498 4.93938 3.76186 4.93741 3.75857 4.93593C3.76285 4.93379 3.76679 4.93133 3.77041 4.92936ZM4.79734 4.61756C4.78633 4.63005 4.77515 4.64254 4.76414 4.65504L4.76463 4.65619C4.75461 4.62545 4.79109 4.63449 4.79734 4.61789V4.61756ZM6.09629 2.44979C6.10089 2.44979 6.1055 2.44963 6.10993 2.44963C6.10911 2.45522 6.10845 2.46064 6.10763 2.46623C6.10681 2.47165 6.10582 2.47691 6.10484 2.4825C6.1027 2.47708 6.10024 2.47198 6.09876 2.46623C6.09728 2.4608 6.09695 2.45522 6.09629 2.44979ZM4.01826 4.94875C4.01876 4.94694 4.01909 4.94481 4.01942 4.94481C4.025 4.94464 4.03059 4.94481 4.03602 4.94481C4.03569 4.94612 4.03519 4.94859 4.0347 4.94859C4.02928 4.94891 4.02385 4.94875 4.01826 4.94875ZM3.7612 4.9619C3.75775 4.96108 3.7543 4.96009 3.75085 4.95927C3.75529 4.95795 3.75972 4.95549 3.76433 4.95516C3.76646 4.95483 3.76893 4.95812 3.77139 4.95943C3.76794 4.96025 3.76465 4.96108 3.7612 4.9619ZM6.15135 2.63043C6.14922 2.62533 6.14708 2.62254 6.14724 2.61941C6.1479 2.61383 6.14987 2.6084 6.15119 2.60265C6.15201 2.60594 6.15349 2.60955 6.15349 2.61284C6.15349 2.6181 6.15234 2.62319 6.15135 2.63043ZM5.9316 2.14786C5.94048 2.15854 5.94919 2.16923 5.9579 2.17975C5.95395 2.18172 5.95017 2.18385 5.94639 2.18583C5.94196 2.17268 5.93752 2.15969 5.93324 2.14655L5.9316 2.14786ZM3.98408 4.92278C3.9918 4.92278 3.99575 4.92245 3.99936 4.92278C4.00298 4.92311 4.00643 4.92426 4.00988 4.92459C4.0061 4.92459 4.00216 4.92492 3.99838 4.92475C3.99493 4.92459 3.99147 4.92393 3.98408 4.92278ZM4.42128 4.79787C4.41093 4.80132 4.40073 4.80477 4.39054 4.80822C4.39022 4.80526 4.3889 4.80017 4.38939 4.80017C4.39926 4.79672 4.40928 4.79409 4.41947 4.79129C4.4198 4.79376 4.42046 4.79573 4.42128 4.79787ZM5.75787 1.82851C5.76855 1.85168 5.77957 1.87453 5.79041 1.89754L5.79173 1.89655C5.78088 1.87321 5.77003 1.8502 5.75902 1.82735L5.75787 1.82851ZM5.02465 0.91038C4.9857 0.910544 4.97995 0.8877 4.98718 0.855977H4.98701C4.99918 0.874057 5.01117 0.891973 5.0235 0.910217L5.02465 0.91038ZM5.09023 0.974153C5.06525 0.967579 5.04553 0.955251 5.04092 0.927475L5.04125 0.928789C5.05785 0.944074 5.07445 0.959195 5.09089 0.974482C5.09089 0.974646 5.09023 0.974153 5.09023 0.974153ZM6.0981 2.40311C6.09793 2.41922 6.09793 2.43566 6.09777 2.45193C6.0912 2.43631 6.08396 2.4207 6.07854 2.40459C6.07739 2.4018 6.08265 2.39654 6.08495 2.39227C6.08939 2.39588 6.09366 2.3995 6.0981 2.40311ZM5.12261 4.45977C5.11867 4.46388 5.11489 4.46799 5.11094 4.4721C5.10305 4.47605 5.09516 4.47999 5.08727 4.48377C5.07889 4.48377 5.07051 4.48377 5.06213 4.48393C5.08563 4.46799 5.1093 4.45188 5.1328 4.43627L5.13182 4.43495C5.12869 4.44334 5.12541 4.45156 5.12261 4.45977ZM6.16269 2.70094V2.74482H6.16023V2.70176C6.16105 2.70143 6.16204 2.70127 6.16269 2.70094ZM5.9842 2.35907C5.94804 2.34526 5.96234 2.30696 5.94048 2.28609C5.94491 2.28412 5.94919 2.28214 5.95346 2.28017C5.96414 2.30647 5.97483 2.33293 5.98551 2.35939L5.9842 2.35907ZM5.80866 1.95326C5.85386 1.95605 5.85961 1.99566 5.87555 2.02558L5.8767 2.02426C5.86405 2.01604 5.84893 2.01012 5.8389 1.99928C5.82657 1.98596 5.81852 1.96871 5.80866 1.95309V1.95326ZM5.52957 1.43371C5.58973 1.47184 5.62917 1.54728 5.61849 1.60284C5.60781 1.57687 5.59893 1.55024 5.58595 1.52575C5.56918 1.49354 5.54946 1.46313 5.53089 1.43206L5.52957 1.43371ZM5.73831 1.81963C5.69837 1.74731 5.65827 1.67516 5.61849 1.60284V1.603C5.6295 1.60613 5.64693 1.6058 5.65087 1.61286C5.68078 1.66875 5.70889 1.72545 5.73568 1.78265C5.74061 1.79333 5.73634 1.80796 5.73667 1.82029C5.737 1.82029 5.73831 1.81963 5.73831 1.81963ZM1.53821 4.65849C1.54265 4.65832 1.54692 4.65816 1.55169 4.65816C1.55152 4.66292 1.55152 4.6672 1.55136 4.67164H1.53805C1.53821 4.66736 1.53821 4.66292 1.53821 4.65849ZM1.54939 4.67065C1.55415 4.67032 1.55875 4.67032 1.56352 4.66999C1.56319 4.67443 1.56303 4.67903 1.5627 4.68363C1.55826 4.67903 1.55382 4.67476 1.54939 4.67065ZM1.11005 4.01665C1.1112 4.01682 1.11235 4.01715 1.11333 4.01731C1.11268 4.01764 1.11202 4.01781 1.11136 4.01813C1.11136 4.0183 1.11005 4.01665 1.11005 4.01665ZM5.12146 4.45846C5.11735 4.46257 5.11324 4.46651 5.10913 4.47062L5.11094 4.4721C5.11489 4.46799 5.11867 4.46388 5.12261 4.45977L5.12146 4.45846ZM5.81671 1.75767C5.81523 1.75717 5.81342 1.75651 5.81211 1.75602C5.8131 1.75701 5.81408 1.75816 5.81507 1.75914L5.81671 1.75767ZM5.78828 1.72348C5.78844 1.72463 5.78861 1.72561 5.78877 1.72677C5.78877 1.72611 5.78861 1.72545 5.78861 1.72496C5.78861 1.72512 5.78828 1.72348 5.78828 1.72348ZM5.70495 1.37766C5.70593 1.37832 5.70675 1.37898 5.70774 1.37947C5.70725 1.37865 5.70675 1.37783 5.70626 1.377C5.70577 1.37799 5.70495 1.37914 5.70445 1.3798L5.70495 1.37766ZM5.65498 1.33673C5.66238 1.34068 5.66961 1.34446 5.67717 1.34824C5.67733 1.3484 5.67881 1.34676 5.67898 1.34676C5.67158 1.34331 5.66451 1.33969 5.65712 1.33608C5.65646 1.33641 5.65498 1.33673 5.65498 1.33673ZM5.68604 1.31438C5.68226 1.31422 5.67848 1.31405 5.6747 1.31405L5.67372 1.31192H5.68719L5.68604 1.31438ZM5.6747 1.31405C5.6701 1.31274 5.66599 1.31126 5.66139 1.30994L5.6632 1.31208V1.2986L5.66155 1.30008C5.66566 1.30403 5.66961 1.30797 5.67372 1.31192L5.6747 1.31405ZM5.6152 1.25176C5.61142 1.25176 5.60764 1.25193 5.60386 1.25193L5.60288 1.25324C5.60748 1.2534 5.61175 1.2534 5.61635 1.25357L5.6152 1.25176ZM5.86372 1.23401C5.86257 1.23467 5.86158 1.23532 5.8606 1.23582C5.86093 1.23499 5.86142 1.23417 5.86175 1.23335C5.86142 1.23319 5.86372 1.23401 5.86372 1.23401ZM5.47928 1.2059L5.48437 1.20656C5.48437 1.20656 5.48092 1.20705 5.48076 1.20705C5.48043 1.20705 5.47928 1.2059 5.47928 1.2059ZM5.47813 1.18503C5.47846 1.19193 5.47878 1.19884 5.47928 1.2059L5.48043 1.20705C5.47944 1.19966 5.47829 1.19226 5.4773 1.18486C5.4773 1.1847 5.47813 1.18503 5.47813 1.18503ZM5.57954 1.19111C5.58381 1.19095 5.58792 1.19078 5.59219 1.19062L5.59285 1.19275H5.57904L5.57954 1.19111ZM5.4773 1.1847C5.47632 1.18503 5.47517 1.18536 5.47418 1.18552C5.4755 1.18536 5.47681 1.18503 5.47813 1.18503L5.4773 1.1847ZM5.5368 1.17681C5.54436 1.1778 5.55192 1.17878 5.55949 1.17977C5.55965 1.17961 5.56113 1.17829 5.56129 1.17813C5.55357 1.1773 5.54551 1.17665 5.53746 1.17615C5.53713 1.17615 5.5368 1.17681 5.5368 1.17681ZM5.58019 1.16153C5.57641 1.16153 5.57263 1.16119 5.56885 1.16103C5.56885 1.16119 5.5677 1.15906 5.5677 1.15906H5.58151L5.58019 1.16153ZM5.56885 1.1612C5.5682 1.1561 5.56754 1.15084 5.56672 1.14575C5.56655 1.14591 5.5677 1.14542 5.5677 1.14542V1.15906L5.56885 1.1612ZM5.54206 1.14427C5.53483 1.14016 5.5276 1.13588 5.52053 1.13145C5.52037 1.13128 5.51905 1.13276 5.51905 1.13276C5.52596 1.13671 5.53319 1.14065 5.54075 1.14427C5.54108 1.1441 5.54206 1.14427 5.54206 1.14427ZM5.52037 1.13128C5.51445 1.12947 5.5087 1.1275 5.50245 1.12537C5.50196 1.12553 5.50114 1.12504 5.50081 1.12504C5.50673 1.12783 5.51281 1.1303 5.51905 1.13276L5.52037 1.13128ZM5.47122 1.0754C5.47747 1.07934 5.48371 1.08362 5.4898 1.08806C5.48996 1.08806 5.49177 1.08658 5.49193 1.08658C5.48569 1.0823 5.47928 1.07786 5.47287 1.07359L5.47122 1.0754ZM5.45709 1.06274C5.46185 1.06685 5.46662 1.07113 5.47122 1.0754L5.47287 1.07359C5.46794 1.06965 5.463 1.06587 5.45807 1.06176C5.45791 1.06176 5.45709 1.06274 5.45709 1.06274ZM5.49062 1.05337C5.49193 1.05436 5.49325 1.05502 5.49473 1.05617C5.49325 1.05601 5.4921 1.05584 5.49078 1.05568C5.49062 1.05584 5.49062 1.05337 5.49062 1.05337ZM5.45775 5.01532C5.4566 5.01581 5.45528 5.01614 5.45413 5.01663C5.45479 5.01597 5.45544 5.01532 5.4561 5.01449C5.4561 5.01417 5.45775 5.01532 5.45775 5.01532ZM5.4492 1.04811C5.45183 1.05305 5.45446 1.05798 5.45709 1.06274L5.45791 1.06176C5.45495 1.05666 5.45216 1.0519 5.4492 1.0468V1.04811ZM5.2283 1.05223C5.23224 1.05601 5.23635 1.05978 5.24013 1.06373L5.23684 1.06652C5.23306 1.06258 5.22961 1.0588 5.22583 1.05502L5.2283 1.05223ZM5.21811 1.03875C5.22156 1.04335 5.22485 1.04762 5.2283 1.05223L5.22583 1.05502C5.22172 1.05568 5.21827 1.05486 5.21515 1.0519L5.21646 1.05337C5.21613 1.04943 5.2158 1.04532 5.21548 1.04121L5.21811 1.03875ZM5.20414 1.02921C5.20874 1.03234 5.2135 1.03546 5.21811 1.03875L5.21548 1.04121C5.2117 1.03694 5.20792 1.03266 5.20414 1.02823V1.02921ZM5.4229 1.0159C5.42964 1.02083 5.43654 1.02626 5.44361 1.03151C5.44377 1.03151 5.44493 1.03053 5.44493 1.03053C5.43819 1.02527 5.43112 1.02001 5.42422 1.01475C5.42405 1.01458 5.4229 1.0159 5.4229 1.0159ZM5.42405 1.01459C5.42076 1.01081 5.41764 1.00686 5.41419 1.00242C5.41419 1.00242 5.41271 1.00407 5.41271 1.0039C5.41616 1.00768 5.41945 1.01179 5.4229 1.0159L5.42405 1.01459ZM5.41419 1.00242C5.4086 1.00012 5.40301 0.997985 5.39693 0.995684C5.3966 0.995684 5.39578 0.995026 5.39562 0.995026C5.4012 0.99815 5.40696 1.00094 5.41271 1.0039C5.41271 1.00407 5.41419 1.00242 5.41419 1.00242ZM5.3966 0.995684C5.39742 0.994862 5.39825 0.993877 5.39907 0.993384C5.39792 0.993713 5.3966 0.994369 5.39562 0.995026C5.39578 0.995026 5.3966 0.995684 5.3966 0.995684ZM5.67618 0.981058C5.67142 0.977934 5.66649 0.974318 5.66188 0.97136L5.66418 0.968894C5.66764 0.973331 5.67125 0.977932 5.6747 0.982205L5.67618 0.981058ZM5.30522 0.962978C5.3039 0.963305 5.30275 0.963305 5.30144 0.963634L5.30489 0.962649L5.30522 0.962978ZM5.35584 0.934376C5.35699 0.935034 5.35831 0.935691 5.35946 0.936513C5.3588 0.93602 5.35814 0.935527 5.35732 0.9352L5.35584 0.934376ZM5.25558 0.94161C5.2569 0.94161 5.25821 0.941445 5.25953 0.941281C5.2587 0.94161 5.25772 0.942103 5.2569 0.942761L5.25558 0.94161ZM5.62096 0.925172C5.6277 0.92846 5.63411 0.931912 5.64084 0.9352C5.64101 0.9352 5.64249 0.934049 5.64249 0.933885C5.63608 0.930597 5.6295 0.927311 5.62293 0.924023C5.62276 0.924023 5.62096 0.925172 5.62096 0.925172ZM5.35732 0.9352C5.35255 0.929775 5.34779 0.924187 5.34286 0.918598C5.34286 0.918598 5.34171 0.91942 5.34154 0.919257C5.34631 0.924187 5.35107 0.92928 5.35584 0.934376L5.35732 0.9352ZM5.62276 0.924023C5.62063 0.917778 5.61849 0.911532 5.61652 0.90545C5.61652 0.905285 5.61734 0.906436 5.61751 0.906436C5.61866 0.912517 5.61981 0.918926 5.62096 0.925172L5.62276 0.924023ZM5.33069 0.908738C5.33431 0.91219 5.33793 0.915805 5.34154 0.919257C5.34171 0.91942 5.34286 0.918598 5.34286 0.918598C5.33908 0.914983 5.33546 0.911366 5.33184 0.907914C5.33168 0.907914 5.33069 0.908738 5.33069 0.908738ZM5.33168 0.907914C5.32856 0.90397 5.32527 0.900189 5.32198 0.896245C5.32198 0.896245 5.32067 0.897723 5.32067 0.89756C5.32396 0.90134 5.32741 0.905121 5.33069 0.908738L5.33168 0.907914ZM5.30407 0.890329C5.30966 0.892795 5.31508 0.895094 5.32067 0.89756C5.32067 0.897723 5.32198 0.896245 5.32198 0.896245C5.31672 0.893781 5.31146 0.891315 5.30604 0.889178C5.30588 0.889342 5.30407 0.890329 5.30407 0.890329ZM5.30588 0.889342C5.3044 0.882931 5.30308 0.876687 5.30177 0.869947C5.30193 0.869783 5.30111 0.871098 5.30127 0.870769C5.30226 0.877179 5.30325 0.883755 5.30407 0.890329L5.30588 0.889342ZM5.27859 0.869456C5.28615 0.869949 5.29388 0.870113 5.30127 0.870769C5.30111 0.871098 5.30193 0.869783 5.30193 0.869783C5.29421 0.869783 5.28648 0.869783 5.27859 0.869618V0.869456ZM5.27859 0.869618C5.27711 0.863537 5.27547 0.857457 5.27382 0.851376L5.27251 0.852362C5.27465 0.85795 5.27662 0.863702 5.27859 0.869456V0.869618ZM5.56655 0.854989C5.56277 0.850716 5.55916 0.846773 5.55554 0.8425L5.55916 0.838555C5.56277 0.842829 5.56622 0.847264 5.56984 0.851538L5.56655 0.854989ZM5.27382 0.851376C5.27251 0.850881 5.27087 0.850554 5.26988 0.849567C5.26922 0.849239 5.26988 0.847594 5.27004 0.846279C5.27087 0.848581 5.27169 0.850225 5.27251 0.852362L5.27382 0.851376ZM5.54469 0.829843C5.54962 0.832802 5.55439 0.83576 5.55916 0.838555L5.55554 0.8425C5.55209 0.837897 5.5488 0.833624 5.54535 0.829023L5.54469 0.829843ZM4.50198 4.94678C4.50165 4.94579 4.50149 4.9448 4.50116 4.94415C4.50198 4.94431 4.50247 4.94448 4.50297 4.94481L4.50198 4.94678ZM5.29799 0.832802C5.29552 0.829843 5.29306 0.826884 5.29075 0.823925C5.2896 0.82672 5.28845 0.829679 5.28747 0.832638L5.28582 0.830174H5.29947L5.29799 0.832802ZM5.54535 0.829023C5.54141 0.825076 5.53746 0.821296 5.53368 0.817188L5.53269 0.818173C5.5368 0.822118 5.54075 0.825897 5.54469 0.829843L5.54535 0.829023ZM5.28747 0.832638C5.28319 0.827379 5.27892 0.822118 5.27465 0.816529L5.27399 0.818501H5.2878L5.28582 0.816364V0.830174L5.28747 0.832638ZM5.5207 0.806504C5.52464 0.810448 5.52875 0.814393 5.53269 0.818173L5.53368 0.817188C5.52957 0.813241 5.52579 0.809299 5.52185 0.805354L5.5207 0.806504ZM5.27465 0.816529C5.26758 0.814393 5.26084 0.812094 5.25361 0.809957V0.809792C5.26117 0.80864 5.26889 0.807653 5.27645 0.806175L5.27399 0.804694V0.818501L5.27465 0.816529ZM5.5059 0.795656C5.51083 0.799271 5.51577 0.802887 5.5207 0.806504L5.52185 0.805354C5.51724 0.801739 5.51231 0.797957 5.50755 0.794505L5.5059 0.795656ZM5.25591 0.785467C5.25509 0.793685 5.25443 0.801737 5.25361 0.809792C5.25427 0.801737 5.25476 0.793519 5.25525 0.785301L5.25591 0.785467ZM5.50755 0.794505C5.50327 0.791053 5.49884 0.787767 5.4944 0.784481C5.49423 0.784481 5.49243 0.785629 5.49226 0.785629C5.4967 0.78908 5.5013 0.792368 5.5059 0.795656L5.50755 0.794505ZM5.25525 0.785301C5.24966 0.78826 5.24408 0.791219 5.23849 0.794014L5.2403 0.795327V0.781521L5.23849 0.782835C5.2444 0.783657 5.25016 0.784645 5.25591 0.785467L5.25525 0.785301ZM5.49423 0.784481L5.48536 0.770509L5.48404 0.771661C5.48667 0.776261 5.4893 0.781028 5.49226 0.785629C5.49243 0.785629 5.49423 0.784481 5.49423 0.784481ZM5.22682 0.771166C5.23076 0.77511 5.23471 0.778891 5.23849 0.782835L5.2403 0.781521H5.22665L5.22862 0.783165C5.22862 0.778726 5.22862 0.774125 5.22846 0.769851L5.22682 0.771166ZM5.21318 0.782345C5.21449 0.779549 5.21646 0.77692 5.21728 0.774125C5.21745 0.773468 5.21465 0.771824 5.21318 0.770509L5.21515 0.769851V0.783165L5.21318 0.782345ZM5.21318 0.770509C5.21613 0.764921 5.21909 0.759169 5.22205 0.753252C5.22222 0.753088 5.2209 0.754072 5.22123 0.753742C5.22337 0.759496 5.22501 0.765248 5.22682 0.771166L5.22846 0.769851H5.21515L5.21318 0.770509ZM5.51905 0.761138C5.51609 0.756538 5.51314 0.751771 5.51001 0.746676C5.51034 0.746676 5.50936 0.747332 5.50936 0.747332C5.51445 0.750291 5.51955 0.753088 5.52448 0.755717C5.52283 0.757689 5.52086 0.759494 5.51905 0.761138ZM5.22222 0.753086C5.22189 0.751771 5.22156 0.750293 5.22123 0.748978C5.22008 0.7498 5.21909 0.75062 5.21794 0.751278C5.21909 0.7521 5.22024 0.75292 5.22123 0.753742C5.2209 0.754072 5.22222 0.753086 5.22222 0.753086ZM5.18359 0.744375C5.18573 0.747827 5.18786 0.751444 5.18984 0.755059C5.18655 0.752922 5.1831 0.75062 5.17965 0.748483L5.18359 0.744375ZM1.56171 4.68232H1.57536C1.57092 4.68659 1.56632 4.69103 1.56188 4.69547C1.56188 4.69103 1.56171 4.68659 1.56171 4.68232ZM5.14053 0.710516C5.14776 0.715282 5.15499 0.720378 5.16222 0.725802C5.16255 0.725802 5.1637 0.725146 5.16387 0.72531C5.15647 0.719887 5.14907 0.714791 5.14151 0.709696C5.14135 0.709532 5.14053 0.710516 5.14053 0.710516ZM1.61201 4.68659C1.61414 4.69547 1.61645 4.70418 1.61858 4.71306C1.61858 4.71322 1.61891 4.7119 1.61875 4.7119C1.61628 4.70369 1.61398 4.69481 1.61184 4.68577C1.61184 4.68544 1.61201 4.68659 1.61201 4.68659ZM1.63896 4.71585C1.63222 4.7147 1.62532 4.71338 1.61875 4.7119C1.61891 4.7119 1.61858 4.71322 1.61858 4.71322C1.62466 4.7147 1.63075 4.71585 1.63699 4.71683C1.63732 4.71683 1.63896 4.71585 1.63896 4.71585ZM1.71391 4.7954C1.71506 4.79474 1.71621 4.79409 1.71736 4.79326C1.71671 4.79409 1.71638 4.79507 1.71588 4.79606C1.71605 4.79622 1.71391 4.7954 1.71391 4.7954ZM1.71605 4.79622C1.7126 4.78702 1.70898 4.77748 1.70537 4.76812C1.70553 4.76795 1.70652 4.76812 1.70652 4.76795C1.70915 4.77699 1.71145 4.78636 1.71391 4.7954L1.71605 4.79622ZM4.83925 0.653483C4.84336 0.657756 4.84747 0.661701 4.85125 0.665645L4.85257 0.664332H4.83925L4.84106 0.665811V0.652497L4.83925 0.653483ZM4.52302 0.37571C4.52318 0.377025 4.52335 0.377849 4.52335 0.378835C4.52253 0.377685 4.52187 0.376532 4.52088 0.375381C4.52072 0.375381 4.52302 0.37571 4.52302 0.37571ZM1.68285 4.7691C1.69074 4.76861 1.69879 4.76828 1.70652 4.76795C1.70652 4.76812 1.70553 4.76795 1.70553 4.76795C1.69813 4.76844 1.69074 4.76894 1.68318 4.76943L1.68285 4.7691ZM4.55178 0.387546C4.55096 0.388531 4.5503 0.389353 4.54965 0.390339C4.54998 0.38919 4.55063 0.388202 4.55096 0.387051L4.55178 0.387546ZM5.16962 0.394285C5.1711 0.396422 5.17258 0.398393 5.17422 0.40053C5.17176 0.399215 5.16945 0.398066 5.16715 0.396915L5.16962 0.394285ZM5.04043 0.59382C5.04503 0.596943 5.04947 0.600392 5.05407 0.603517C5.05226 0.605488 5.05029 0.607463 5.04848 0.609434C5.0447 0.605326 5.04092 0.601216 5.03714 0.596943L5.04043 0.59382ZM1.68318 4.76943C1.68334 4.76154 1.68334 4.75332 1.68351 4.74543C1.68351 4.74543 1.68383 4.7456 1.684 4.7456C1.68367 4.75332 1.68334 4.76121 1.68285 4.7691L1.68318 4.76943ZM2.75613 4.74806C2.75745 4.74757 2.7586 4.74675 2.75991 4.74625C2.75925 4.74708 2.75843 4.74806 2.75777 4.74905C2.75777 4.74922 2.75613 4.74806 2.75613 4.74806ZM1.68351 4.74543C1.67611 4.72473 1.66986 4.73985 1.66329 4.74593C1.66329 4.74609 1.66214 4.74527 1.66197 4.74527C1.66937 4.7456 1.67677 4.7456 1.684 4.7456C1.68383 4.7456 1.68351 4.74543 1.68351 4.74543ZM4.93097 0.587574C4.93195 0.587079 4.93294 0.586752 4.93392 0.586259C4.9336 0.586915 4.93343 0.587739 4.93327 0.588561C4.93343 0.588561 4.93097 0.587574 4.93097 0.587574ZM2.75777 4.74922C2.75728 4.73985 2.75679 4.73081 2.75613 4.72144H2.75646C2.75629 4.73031 2.75629 4.73919 2.75613 4.74806L2.75777 4.74922ZM4.92521 0.562098C4.92702 0.570479 4.92899 0.579027 4.93097 0.587574L4.93343 0.588561C4.93014 0.57985 4.92719 0.570972 4.92423 0.562098H4.92521ZM5.21219 0.4717L5.20907 0.472686L5.20939 0.469727L5.21219 0.4717ZM4.92423 0.562098C4.92341 0.562591 4.92275 0.563083 4.92209 0.563576C4.92308 0.563083 4.92406 0.562591 4.92521 0.562098H4.92423ZM4.19956 0.56292C4.20071 0.563083 4.20202 0.563413 4.20317 0.563905C4.20235 0.563905 4.20153 0.564235 4.20071 0.564562L4.19956 0.56292ZM4.20071 0.564562C4.20169 0.564235 4.20268 0.563578 4.20366 0.563085C4.20235 0.562922 4.20104 0.56292 4.19956 0.56292L4.20071 0.564562ZM4.27746 0.528897C4.27648 0.527582 4.27566 0.526433 4.27483 0.525118C4.27549 0.526926 4.27598 0.52824 4.27681 0.530048L4.27746 0.528897ZM1.63732 4.71683C1.63847 4.72374 1.63962 4.73081 1.64094 4.73771C1.64094 4.73787 1.64044 4.73755 1.64044 4.73755C1.63995 4.73031 1.63946 4.72308 1.63896 4.71585L1.63732 4.71683ZM4.53354 0.548619C4.52614 0.544182 4.51875 0.539908 4.51151 0.535142L4.51053 0.536458C4.51924 0.539252 4.52795 0.54221 4.53666 0.545005L4.53354 0.548619ZM4.51151 0.535142C4.50806 0.534483 4.50445 0.533992 4.501 0.53317C4.50264 0.531197 4.50428 0.52939 4.50593 0.527582C4.50741 0.530377 4.50889 0.533663 4.51053 0.536458L4.51151 0.535142ZM4.32036 0.506709H4.31576C4.31707 0.50638 4.31839 0.506049 4.3197 0.505721C4.3197 0.505556 4.32036 0.506709 4.32036 0.506709ZM1.64094 4.73787C1.648 4.74018 1.65491 4.74281 1.66197 4.74527C1.66214 4.74527 1.66329 4.74609 1.66329 4.74609C1.65556 4.7433 1.648 4.7405 1.64044 4.73755L1.64094 4.73787ZM4.68508 0.575904C4.68229 0.575575 4.67949 0.575575 4.6767 0.575575C4.67686 0.577053 4.67719 0.578368 4.67736 0.580178C4.67999 0.578041 4.68212 0.576233 4.68442 0.574426C4.68442 0.574262 4.68508 0.575904 4.68508 0.575904ZM4.82314 0.423871C4.81246 0.422556 4.80161 0.421239 4.79077 0.420088C4.7906 0.420254 4.78929 0.42157 4.78912 0.421734C4.79981 0.423213 4.81065 0.424198 4.82216 0.42502C4.82216 0.424855 4.82314 0.423871 4.82314 0.423871ZM4.52072 0.375381C4.53107 0.379326 4.54143 0.383601 4.55178 0.387546L4.55096 0.387051C4.54866 0.379326 4.54636 0.371602 4.54406 0.363877C4.53716 0.367987 4.53009 0.371766 4.52302 0.37571L4.52072 0.375381ZM4.69609 0.354345C4.69396 0.352373 4.69182 0.350564 4.68952 0.348592C4.68919 0.351549 4.68903 0.354343 4.6887 0.357301C4.691 0.355823 4.69346 0.354508 4.6956 0.353028L4.69609 0.354345ZM3.90091 5.57973L3.90403 5.58171L3.90025 5.58286L3.90091 5.57973ZM5.4492 1.04664C5.44788 1.04121 5.4464 1.03595 5.44493 1.03053L5.44377 1.03151C5.44558 1.0371 5.44739 1.04269 5.4492 1.04811V1.04664ZM5.53713 1.17615C5.53894 1.16547 5.54042 1.15512 5.54206 1.14427L5.54108 1.1441C5.5396 1.15512 5.53812 1.16596 5.5368 1.17681L5.53713 1.17615ZM5.59219 1.19062C5.59647 1.19177 5.60074 1.19308 5.60501 1.1944C5.60518 1.1944 5.60288 1.19243 5.60288 1.19243C5.60353 1.20097 5.60403 1.20952 5.60468 1.21806C5.60008 1.21757 5.59564 1.21692 5.59104 1.21659L5.59236 1.21839C5.59252 1.20968 5.59269 1.2013 5.59285 1.19275L5.59219 1.19062ZM5.86142 1.23319C5.86421 1.23582 5.86684 1.23861 5.86947 1.24124C5.87029 1.23878 5.87128 1.23615 5.87227 1.23352C5.86931 1.23368 5.86651 1.23384 5.86372 1.23401L5.86142 1.23319ZM1.11136 4.0183C1.1107 4.0058 1.10988 3.99299 1.10923 3.98049C1.10955 3.99266 1.10972 4.00466 1.11005 4.01665L1.11136 4.0183ZM1.09673 3.956C1.10101 3.96422 1.10512 3.97228 1.10923 3.98049H1.10906C1.10462 3.97261 1.10002 3.96488 1.09558 3.95666C1.09558 3.9565 1.09673 3.956 1.09673 3.956ZM5.67733 1.34841C5.67914 1.35662 5.68128 1.36484 5.68309 1.37339C5.68292 1.37339 5.68424 1.37207 5.68407 1.37224C5.68226 1.36385 5.68062 1.35547 5.67898 1.34676C5.67881 1.34676 5.67733 1.34841 5.67733 1.34841ZM0.992857 3.86807C0.992364 3.86495 0.991871 3.86216 0.991213 3.8592C0.992199 3.86183 0.99335 3.86429 0.994336 3.86708C0.994665 3.86708 0.992857 3.86807 0.992857 3.86807ZM5.67553 1.48466C5.67799 1.496 5.68046 1.50751 5.68309 1.51951C5.68292 1.51984 5.68292 1.51868 5.68276 1.51918C5.68046 1.50751 5.67815 1.49551 5.67602 1.48368L5.67553 1.48466ZM5.68292 1.51984C5.689 1.52345 5.69508 1.5274 5.70117 1.53118C5.69936 1.53298 5.69755 1.53446 5.69574 1.53594C5.69147 1.53052 5.68703 1.52509 5.68276 1.51918C5.68292 1.51868 5.68292 1.51984 5.68292 1.51984ZM5.85024 1.67548C5.85205 1.68551 5.85402 1.69586 5.85583 1.70589C5.85435 1.69554 5.85271 1.68502 5.85123 1.6745L5.85024 1.67548ZM5.77874 1.698C5.78187 1.70622 5.78515 1.71493 5.78828 1.72348L5.78861 1.72512C5.78581 1.71559 5.78318 1.70589 5.78039 1.69652L5.77874 1.698ZM5.89955 1.75816C5.89659 1.74698 5.89347 1.73597 5.89051 1.72479L5.89067 1.72496C5.89314 1.7363 5.89561 1.74781 5.89807 1.75931L5.89955 1.75816ZM5.89807 1.75931C5.89988 1.76868 5.90185 1.77821 5.90349 1.78791C5.90317 1.78824 5.90415 1.78725 5.90399 1.78758C5.90234 1.77788 5.90086 1.76802 5.89955 1.75816L5.89807 1.75931ZM5.90317 1.78824C5.90777 1.79678 5.91237 1.80516 5.91697 1.81388H5.91648C5.91221 1.805 5.90793 1.79629 5.90399 1.78758C5.90415 1.78725 5.90317 1.78824 5.90317 1.78824ZM5.94985 1.83278C5.95017 1.84576 5.95067 1.85875 5.951 1.87223C5.95083 1.87239 5.95132 1.87157 5.95116 1.8719C5.9505 1.85908 5.95017 1.84593 5.94968 1.83262L5.94985 1.83278ZM5.95083 1.87239C5.95001 1.87518 5.94935 1.87798 5.94853 1.88077C5.95116 1.88044 5.95395 1.88028 5.95691 1.87995C5.95478 1.87732 5.95297 1.87486 5.95116 1.8719C5.95132 1.87157 5.95083 1.87239 5.95083 1.87239ZM5.92075 1.95802C5.91714 1.94981 5.91352 1.94126 5.90974 1.93304L5.90875 1.93386C5.91237 1.94241 5.91615 1.95063 5.91977 1.95884L5.92075 1.95802ZM5.92963 1.98531C5.92651 1.9761 5.92371 1.9669 5.92075 1.95802L5.91977 1.95884C5.92273 1.96788 5.92568 1.97725 5.92848 1.98629C5.92831 1.98662 5.92963 1.98531 5.92963 1.98531ZM5.94327 2.00602C5.93867 1.99911 5.9339 1.99221 5.92963 1.98531L5.92831 1.98662C5.93308 1.99336 5.93752 2.0001 5.94196 2.00717L5.94327 2.00602ZM5.97055 2.04776C5.97318 2.0573 5.97581 2.067 5.97828 2.07653L5.97943 2.07554C5.9768 2.06617 5.97433 2.05615 5.9717 2.04661C5.97187 2.04628 5.97055 2.04776 5.97055 2.04776ZM5.10913 4.47062C5.10124 4.47457 5.09336 4.47851 5.08547 4.48246L5.08727 4.48377C5.09516 4.47999 5.10305 4.47605 5.11094 4.4721L5.10913 4.47062ZM0.989899 3.56203C0.990227 3.56055 0.990556 3.55874 0.990885 3.5571C0.9922 3.55907 0.994007 3.56088 0.995158 3.56285C0.995322 3.56351 0.993186 3.56532 0.9922 3.56647C0.991213 3.56499 0.990556 3.56351 0.989899 3.56203ZM0.998281 3.74332C0.993679 3.73214 0.989077 3.72064 0.984474 3.7093L0.988091 3.70634C0.991213 3.71899 0.994172 3.73165 0.997295 3.74431L0.998281 3.74332ZM0.997295 3.74431C1.00091 3.75614 1.00502 3.76765 1.00896 3.77948L1.01028 3.7785C1.00617 3.76683 1.00223 3.75499 0.998281 3.74332L0.997295 3.74431ZM5.34203 1.03349C5.34812 1.03316 5.35436 1.03267 5.36061 1.03234C5.36028 1.0353 5.36011 1.03809 5.35995 1.04088C5.35436 1.03776 5.34894 1.03447 5.34335 1.03168C5.34319 1.03168 5.34203 1.03349 5.34203 1.03349ZM5.23849 0.794014C5.2301 0.790068 5.22156 0.786289 5.21318 0.782345L5.21515 0.783165H5.22862L5.22665 0.781521C5.23126 0.786287 5.23569 0.790726 5.2403 0.795327L5.23849 0.794014ZM5.16255 0.725802C5.16962 0.731884 5.17652 0.738294 5.18359 0.744375L5.17965 0.748483C5.17439 0.740594 5.16929 0.733035 5.16387 0.72531C5.1637 0.725146 5.16255 0.725802 5.16255 0.725802ZM4.52664 0.0499469C4.5268 0.0486321 4.5268 0.0463298 4.52729 0.0463298C4.5291 0.0460006 4.53107 0.0463317 4.53288 0.0464953C4.53272 0.0478101 4.53272 0.0502742 4.53239 0.0502742C4.53042 0.0504397 4.52861 0.0502742 4.52664 0.0499469ZM0.979708 3.47672C0.980859 3.48412 0.982338 3.49152 0.98316 3.49908C0.983653 3.50253 0.982831 3.50631 0.982666 3.50993C0.980694 3.50615 0.977078 3.50253 0.977078 3.49875C0.976914 3.49135 0.978722 3.48379 0.979872 3.47607C0.980037 3.47574 0.979708 3.47672 0.979708 3.47672ZM6.19869 2.60988C6.19754 2.60988 6.1954 2.61021 6.1954 2.60988C6.19507 2.6084 6.19474 2.6066 6.19507 2.60511C6.19524 2.60364 6.19639 2.60265 6.19721 2.601C6.19754 2.60396 6.19803 2.60692 6.19869 2.60988ZM6.09662 2.40361C6.10056 2.41955 6.10451 2.43549 6.10845 2.45177L6.10993 2.44963C6.1055 2.44963 6.10089 2.44979 6.09629 2.44979L6.09777 2.45193C6.09793 2.43566 6.09793 2.41922 6.0981 2.40311L6.09662 2.40361ZM5.91697 1.81388C5.92798 1.82012 5.93867 1.82637 5.94985 1.83278L5.94968 1.83262C5.9385 1.82637 5.92749 1.82012 5.91648 1.81388H5.91697ZM5.85583 1.70589C5.8675 1.71247 5.87901 1.71855 5.89067 1.72496L5.89051 1.72479C5.87884 1.71855 5.8675 1.7123 5.85583 1.70589ZM5.63953 1.28841C5.63953 1.28003 5.63953 1.27181 5.63969 1.2631L5.63822 1.26475C5.6466 1.26869 5.65514 1.27296 5.66336 1.27707L5.66155 1.27444V1.30008L5.6632 1.2986C5.6586 1.2986 5.65416 1.29877 5.64956 1.29877L5.65153 1.30058C5.64693 1.29581 5.64232 1.29137 5.63772 1.28677L5.63953 1.28841ZM5.63969 1.2631C5.63148 1.25948 5.62342 1.25537 5.6152 1.25176L5.61635 1.25357C5.6157 1.24502 5.61537 1.23631 5.61471 1.22793C5.61915 1.22842 5.62375 1.22908 5.62835 1.22974L5.62605 1.2276C5.63082 1.23237 5.63542 1.23697 5.64019 1.24157L5.63822 1.23927V1.26475L5.63969 1.2631ZM5.48996 1.08806C5.49358 1.10022 5.49703 1.11271 5.50081 1.12504C5.50114 1.12504 5.50196 1.12553 5.50196 1.12553C5.49867 1.11238 5.49538 1.09956 5.49193 1.08658C5.49177 1.08658 5.48996 1.08806 5.48996 1.08806ZM4.39252 0.0119776C4.38101 0.0137852 4.36951 0.0152655 4.35784 0.0169095C4.35784 0.0146072 4.35784 0.0123087 4.35767 0.0100063C4.36934 0.0106647 4.38085 0.0113211 4.39235 0.0121431L4.39252 0.0119776ZM5.64101 0.9352C5.64873 0.946377 5.65629 0.957717 5.66418 0.968894L5.66188 0.97136C5.65531 0.958868 5.64906 0.946213 5.64249 0.933885C5.64249 0.934049 5.64101 0.9352 5.64101 0.9352ZM4.87443 0.465946C4.88642 0.473508 4.89842 0.481397 4.91042 0.489285L4.91141 0.487972C4.89957 0.480082 4.88757 0.47252 4.87558 0.464795L4.87443 0.465946ZM4.80359 0.62998C4.81542 0.637869 4.82742 0.645758 4.83925 0.653483L4.84106 0.652497C4.83251 0.652497 4.8238 0.652497 4.81526 0.652663L4.81739 0.654305C4.81279 0.649539 4.80819 0.644936 4.80359 0.640333L4.80572 0.642799C4.80556 0.638033 4.80556 0.633266 4.80556 0.628664L4.80359 0.62998ZM4.85125 0.665645C4.86341 0.673536 4.87508 0.681425 4.88708 0.689314L4.8879 0.687506C4.87936 0.68767 4.87097 0.687671 4.86259 0.687671L4.86473 0.689314C4.86062 0.680932 4.85667 0.67255 4.85257 0.664332L4.85125 0.665645ZM5.82986 1.62568C5.8366 1.64245 5.84334 1.65872 5.85024 1.67548L5.85123 1.6745C5.84235 1.65971 5.83364 1.64491 5.82493 1.63029C5.82657 1.62864 5.82822 1.62716 5.82986 1.62568ZM5.48536 0.770509C5.47402 0.758511 5.46251 0.746678 5.45117 0.734515L5.45018 0.736321H5.4755L5.47336 0.734184C5.47796 0.739114 5.48256 0.743717 5.48717 0.748156L5.48552 0.746019C5.48503 0.754401 5.48437 0.763113 5.48404 0.771661L5.48536 0.770509ZM5.52448 0.755717C5.53319 0.76525 5.54173 0.774783 5.55028 0.784316C5.54798 0.786287 5.54338 0.790068 5.54321 0.789902C5.53483 0.780535 5.52711 0.771 5.51905 0.761138C5.52086 0.759494 5.52283 0.757689 5.52448 0.755717ZM5.2301 0.455426C5.22665 0.450001 5.22386 0.445237 5.2209 0.440305C5.22402 0.439648 5.22797 0.438004 5.22994 0.438992C5.23306 0.4408 5.23536 0.44458 5.23651 0.447866C5.23684 0.44951 5.23306 0.452304 5.2301 0.455426ZM4.7906 0.420254C4.77318 0.41368 4.75576 0.407104 4.73833 0.40053H4.73817C4.75921 0.3979 4.78403 0.386067 4.78912 0.421734C4.78929 0.42157 4.7906 0.420254 4.7906 0.420254ZM5.97187 2.04628C5.96234 2.03297 5.9528 2.01949 5.94327 2.00602L5.94196 2.00717C5.95149 2.02081 5.96119 2.03429 5.97055 2.04776L5.97187 2.04628ZM4.26168 0.000146298C4.26711 0.000146298 4.26908 -0.000182872 4.27105 0.000146298C4.27187 0.000309942 4.27253 0.00145922 4.27335 0.00211756C4.27089 0.00162286 4.26777 0.00113193 4.26168 0.000146298ZM0.942398 3.13255C0.942727 3.12943 0.943384 3.12614 0.943713 3.12269C0.945356 3.12466 0.947986 3.12663 0.948315 3.12877C0.948644 3.13206 0.947493 3.13551 0.947 3.13896C0.945521 3.13682 0.943877 3.13485 0.942398 3.13255ZM0.980037 3.47574C0.957684 3.45388 0.963272 3.42873 0.970997 3.40309H0.970833C0.973791 3.42775 0.97675 3.45207 0.979708 3.47672L0.980037 3.47574ZM5.6747 0.982205C5.68489 0.991904 5.69492 1.00127 5.70495 1.01097C5.70117 1.01376 5.69722 1.01656 5.69328 1.01935C5.68752 1.0067 5.68194 0.993713 5.67618 0.981058L5.6747 0.982205ZM5.66139 1.30994C5.65942 1.31882 5.65728 1.32786 5.65498 1.33673L5.65646 1.33641C5.64972 1.32769 5.64134 1.31981 5.6369 1.30994C5.63443 1.30436 5.63838 1.29548 5.63953 1.28841L5.63772 1.28677C5.64232 1.29137 5.64693 1.29581 5.65153 1.30058L5.64956 1.29877C5.65416 1.30321 5.6586 1.30764 5.6632 1.31208L5.66139 1.30994ZM4.6956 0.353028C4.7099 0.368807 4.72403 0.384587 4.73817 0.40053H4.73833C4.72436 0.38508 4.71023 0.369631 4.69609 0.354345L4.6956 0.353028ZM4.82216 0.424856C4.83958 0.438499 4.85717 0.452306 4.87443 0.465946L4.87558 0.464795C4.84961 0.461836 4.82758 0.453784 4.82314 0.423871L4.82216 0.424856ZM5.09056 0.670083C5.12278 0.664494 5.13905 0.6783 5.14053 0.710516L5.14135 0.70953C5.12458 0.696546 5.10782 0.683396 5.09073 0.670083H5.09056ZM5.08547 4.48246C5.06739 4.4956 5.04947 4.50875 5.03123 4.5219C5.02942 4.51993 5.02761 4.51779 5.02564 4.51582C5.0258 4.51221 5.02695 4.50875 5.02909 4.50563L5.02728 4.50744C5.03172 4.50284 5.03632 4.4984 5.04076 4.4938L5.03879 4.49544C5.04733 4.491 5.05605 4.48656 5.06476 4.48213L5.06213 4.48393C5.07051 4.48377 5.07889 4.48377 5.08727 4.48377L5.08547 4.48246ZM5.61652 0.905285C5.59992 0.88852 5.58315 0.871589 5.56655 0.854989L5.56984 0.851538C5.58578 0.869947 5.60173 0.888027 5.61751 0.906436C5.61734 0.906436 5.61652 0.905285 5.61652 0.905285ZM4.91042 0.489285C4.93064 0.504079 4.95085 0.518871 4.97107 0.533827C4.96959 0.535471 4.96811 0.537117 4.96663 0.538595C4.94822 0.52183 4.92982 0.504901 4.91141 0.487972L4.91042 0.489285ZM5.09073 0.670083C5.07659 0.649866 5.06246 0.629651 5.04848 0.609434C5.05029 0.607463 5.05226 0.605488 5.05407 0.603517C5.07774 0.61946 5.10338 0.634086 5.09056 0.670083H5.09073ZM5.73059 1.60777C5.71892 1.58393 5.70741 1.5601 5.69574 1.53594C5.69755 1.53446 5.69936 1.53298 5.70117 1.53118C5.7107 1.55698 5.72007 1.58295 5.72944 1.60892C5.72927 1.60908 5.73059 1.60777 5.73059 1.60777ZM5.55965 1.17961C5.56622 1.18355 5.57296 1.18733 5.57954 1.19111L5.57904 1.19275C5.58348 1.2013 5.58792 1.20985 5.59236 1.21839L5.59104 1.21659C5.59564 1.22053 5.60008 1.22431 5.60468 1.22826C5.60403 1.23647 5.60353 1.24486 5.60288 1.25324L5.60386 1.25193C5.58151 1.23204 5.55225 1.21593 5.56129 1.17813C5.56113 1.17829 5.55965 1.17961 5.55965 1.17961ZM4.6573 0.074108C4.62887 0.0721348 4.6006 0.0699999 4.572 0.0681923C4.60356 0.0464953 4.62854 0.0668775 4.65599 0.0752591C4.65599 0.0750955 4.6573 0.074108 4.6573 0.074108ZM5.34319 1.03168C5.32889 1.00982 5.2947 0.998972 5.30522 0.962978L5.30489 0.962649C5.31985 0.985002 5.3491 0.999631 5.34203 1.03349L5.34319 1.03168ZM5.03714 0.596943C5.01364 0.577548 4.99014 0.558153 4.96663 0.538595C4.96811 0.537117 4.96959 0.535471 4.97107 0.533827C4.99425 0.55388 5.01742 0.573933 5.04043 0.59382L5.03714 0.596943ZM0.934673 2.95356C0.935823 2.97641 0.93681 2.99893 0.93796 3.02161C0.935659 3.02177 0.933358 3.02177 0.931057 3.02177V2.95389C0.932372 2.95389 0.933522 2.95373 0.934673 2.95356ZM4.39235 0.0121431C4.42325 0.0195391 4.45448 0.026937 4.48538 0.0344966C4.4535 0.0305522 4.41503 0.049123 4.39252 0.0119776L4.39235 0.0121431ZM5.78039 1.69652C5.76362 1.66677 5.74719 1.63735 5.73059 1.60777L5.72927 1.60908C5.76297 1.6293 5.77825 1.65938 5.77874 1.698L5.78039 1.69652ZM5.55718 1.31126C5.54453 1.29466 5.53204 1.27822 5.51116 1.25094C5.55094 1.25718 5.55949 1.27888 5.56836 1.30008L5.56935 1.29844C5.56491 1.30288 5.56031 1.30748 5.55587 1.31192L5.55718 1.31126ZM4.50297 4.94481C4.5268 4.90503 4.57101 4.90256 4.60947 4.88958C4.57907 4.91834 4.54028 4.93215 4.50198 4.94678L4.50297 4.94481ZM5.03123 4.5219C4.97962 4.54853 4.92784 4.57499 4.87623 4.60162L4.87508 4.59997C4.87936 4.59208 4.88363 4.58387 4.88807 4.57581L4.88544 4.57779C4.89415 4.57351 4.90286 4.56875 4.91157 4.56431L4.9096 4.56579C4.91815 4.56135 4.92669 4.55708 4.93524 4.5528L4.93261 4.55445C4.94132 4.54984 4.95003 4.5454 4.95907 4.5408L4.95628 4.54245C4.97288 4.53423 4.98931 4.52618 5.00559 4.51763L5.00378 4.51911C5.01101 4.51779 5.01841 4.51681 5.02564 4.51582C5.02761 4.51779 5.02942 4.51993 5.03123 4.5219ZM5.38707 1.08921C5.38937 1.08132 5.38986 1.0754 5.392 1.07458C5.39677 1.0731 5.40548 1.07178 5.40729 1.07408C5.42142 1.09381 5.43424 1.11452 5.44772 1.13474C5.44328 1.1372 5.43572 1.14312 5.43506 1.14229C5.41797 1.12421 5.4017 1.10564 5.38707 1.08921ZM1.09558 3.9565C1.08769 3.95239 1.07471 3.95025 1.07224 3.94417C1.05055 3.88944 1.03066 3.83388 1.01028 3.7785L1.00896 3.77948C1.01866 3.79937 1.02803 3.81926 1.03789 3.83881C1.05745 3.87793 1.07717 3.91705 1.09673 3.956L1.09558 3.9565ZM4.31379 0.0407414C4.24574 0.0356459 4.1777 0.0313742 4.10965 0.0256222C4.08089 0.0229926 4.05245 0.0174023 4.02402 0.0103355C4.1205 0.017075 4.21879 0.00819874 4.3128 0.0415653C4.31297 0.0415653 4.31379 0.0407414 4.31379 0.0407414ZM5.2569 0.942761C5.22682 0.909724 5.19592 0.877179 5.16748 0.842991C5.15302 0.825406 5.14316 0.804203 5.13132 0.784643C5.1328 0.783328 5.13428 0.782013 5.13592 0.780699C5.17126 0.81768 5.20709 0.854333 5.24177 0.891971C5.25394 0.90545 5.27037 0.919749 5.25558 0.94161L5.2569 0.942761ZM5.90974 1.93304C5.87884 1.87469 5.84778 1.81601 5.81671 1.75767L5.81507 1.75914C5.82427 1.76473 5.83742 1.76802 5.84202 1.77607C5.86717 1.82111 5.89051 1.86664 5.91319 1.91266C5.91566 1.91776 5.9104 1.9268 5.90875 1.93386L5.90974 1.93304ZM5.67602 1.48368C5.66418 1.4702 5.65054 1.45787 5.64052 1.44308C5.61192 1.39952 5.5848 1.35547 5.55718 1.31126L5.55587 1.31192C5.56031 1.30748 5.56491 1.30288 5.56935 1.29844L5.56836 1.30008C5.61405 1.3558 5.65745 1.41283 5.67553 1.48466L5.67602 1.48368ZM5.70445 1.3798C5.7462 1.46182 5.78795 1.54367 5.82986 1.62568C5.82822 1.62716 5.82657 1.62864 5.82493 1.63029C5.8131 1.61517 5.79847 1.60152 5.78992 1.58492C5.7536 1.51457 5.71924 1.44324 5.68407 1.37224C5.68424 1.37207 5.68292 1.37339 5.68292 1.37339C5.69032 1.37487 5.69771 1.37651 5.70495 1.37766L5.70445 1.3798ZM5.13132 0.784643C5.06048 0.742238 5.01315 0.676988 4.95135 0.611078C4.99819 0.622748 5.0853 0.706735 5.13592 0.780699C5.13428 0.782013 5.1328 0.783328 5.13132 0.784643ZM4.65599 0.0750936C4.7265 0.100077 4.79685 0.125058 4.86736 0.149714C4.87985 0.153987 4.89316 0.15629 4.90598 0.159248C4.91519 0.161714 4.9285 0.160727 4.9331 0.166808C4.97863 0.22417 5.05144 0.240111 5.10667 0.282189C5.11587 0.288928 5.12458 0.29649 5.14332 0.312104C5.12278 0.308652 5.11308 0.309638 5.10667 0.305693C4.98241 0.224334 4.8501 0.159083 4.71204 0.105009C4.69248 0.0976126 4.67555 0.0846264 4.6573 0.074108L4.65599 0.0750936ZM5.45117 0.734515C5.38691 0.667126 5.32231 0.599902 5.2587 0.531856C5.25262 0.525445 5.25164 0.514596 5.24835 0.505721C5.26216 0.504077 5.2758 0.501284 5.2896 0.501284C5.29404 0.501284 5.29914 0.507694 5.30292 0.511968C5.37178 0.590369 5.44065 0.668931 5.50936 0.747332L5.51034 0.746676C5.50196 0.746512 5.49374 0.746346 5.48552 0.746019L5.48717 0.748156C5.48256 0.743717 5.47796 0.739114 5.47336 0.734184L5.4755 0.736321C5.46728 0.728103 5.4589 0.720214 5.45068 0.712324C5.43983 0.701147 5.42898 0.690299 5.41797 0.678959C5.41222 0.673205 5.40646 0.667618 5.40071 0.66203L5.40203 0.660715C5.40794 0.666467 5.4137 0.672219 5.41945 0.677973C5.42997 0.688984 5.44065 0.700492 5.45134 0.711833C5.45101 0.719721 5.45051 0.727937 5.45018 0.736321L5.45117 0.734515ZM5.16715 0.396915C5.1614 0.3956 5.15433 0.395929 5.15039 0.392641C5.05227 0.309474 4.92965 0.26937 4.82068 0.20527C4.71565 0.143305 4.59879 0.110597 4.47963 0.0851211C4.42358 0.0731223 4.36901 0.0555353 4.31379 0.0407414L4.31297 0.0415653C4.43985 0.0418926 4.56 0.0780524 4.67851 0.116183C4.84106 0.168123 4.98767 0.254085 5.13017 0.346621C5.14661 0.357469 5.15647 0.378176 5.16962 0.394285L5.16715 0.396915ZM5.60518 1.1944C5.5968 1.18355 5.58858 1.17254 5.58019 1.16153L5.58151 1.15906C5.57691 1.15479 5.57231 1.15019 5.5677 1.14542L5.56655 1.14591C5.55472 1.10416 5.5322 1.07112 5.49062 1.05337V1.05584C5.49111 1.04894 5.49473 1.03924 5.49144 1.03546C5.43112 0.968072 5.36981 0.901342 5.30867 0.834775C5.3067 0.832474 5.3016 0.833624 5.29799 0.832802L5.29947 0.830174C5.29486 0.825571 5.29043 0.82113 5.28582 0.816364L5.2878 0.818501C5.28319 0.814063 5.27859 0.809297 5.27399 0.804694L5.27645 0.806175C5.26117 0.786287 5.2472 0.76525 5.23043 0.746841C5.13477 0.643787 5.04536 0.534156 4.92488 0.457234C4.88051 0.428799 4.83416 0.403654 4.78863 0.377027C4.77301 0.367824 4.7574 0.358291 4.74179 0.349085C4.74376 0.345306 4.74573 0.341524 4.74754 0.337579C4.76184 0.341195 4.77729 0.342348 4.79011 0.348758C4.91059 0.409899 5.03008 0.472357 5.12278 0.574426C5.23816 0.701478 5.35781 0.82524 5.46843 0.956729C5.62211 1.13917 5.75656 1.33526 5.8629 1.55008C5.92716 1.68041 6.00014 1.80648 6.06802 1.93485C6.08659 1.96936 6.10188 2.00536 6.11717 2.04119C6.11914 2.04579 6.11322 2.05401 6.11092 2.06042C6.10648 2.05549 6.10073 2.05138 6.09777 2.04579C6.07821 2.01029 6.05915 1.97413 6.04008 1.93846C5.94935 1.77016 5.85928 1.60119 5.76691 1.43371C5.7439 1.39163 5.71316 1.35383 5.68604 1.31438L5.68719 1.31192C5.67865 1.29943 5.6701 1.2871 5.66155 1.27444L5.66336 1.27707C5.65514 1.26442 5.6466 1.25193 5.63822 1.23927L5.64019 1.24157C5.63542 1.23697 5.63082 1.23237 5.62605 1.2276L5.62835 1.22974C5.61981 1.21725 5.61142 1.20508 5.60288 1.19243L5.60518 1.1944ZM6.02693 2.29776C6.0243 2.29579 6.02151 2.29381 6.01888 2.29201C6.01756 2.29513 6.01477 2.29874 6.01542 2.30137C6.01608 2.30367 6.02052 2.30515 6.02315 2.30713C6.0243 2.304 6.02578 2.30088 6.02693 2.29776ZM3.77041 4.92936C3.76679 4.93133 3.76285 4.93379 3.75857 4.93593C3.76186 4.93741 3.76498 4.93938 3.76811 4.93938C3.77156 4.93938 3.77484 4.93741 3.77813 4.93642C3.776 4.93412 3.77369 4.93231 3.77041 4.92936ZM4.01826 4.94875C4.02385 4.94875 4.02928 4.94891 4.0347 4.94859C4.03519 4.94859 4.03569 4.94612 4.03602 4.94481C4.03059 4.94481 4.025 4.94464 4.01942 4.94481C4.01909 4.94481 4.01876 4.94694 4.01826 4.94875ZM3.7612 4.9619C3.76465 4.96108 3.76794 4.96025 3.77139 4.95943C3.76893 4.95812 3.76646 4.95483 3.76433 4.95516C3.75972 4.95549 3.75529 4.95795 3.75085 4.95927C3.7543 4.96009 3.75775 4.96108 3.7612 4.9619ZM6.15135 2.63043C6.15234 2.62319 6.15349 2.6181 6.15349 2.61284C6.15349 2.60955 6.15201 2.60594 6.15119 2.60265C6.14987 2.6084 6.1479 2.61383 6.14724 2.61941C6.14708 2.62254 6.14922 2.62533 6.15135 2.63043ZM3.98408 4.92278C3.99147 4.92393 3.99493 4.92459 3.99838 4.92475C4.00216 4.92492 4.0061 4.92459 4.00988 4.92459C4.00643 4.92426 4.00298 4.92311 3.99936 4.92278C3.99575 4.92245 3.9918 4.92278 3.98408 4.92278ZM4.42128 4.79787C4.42046 4.79573 4.4198 4.79376 4.41947 4.79129C4.40928 4.79409 4.39926 4.79672 4.38939 4.80017C4.3889 4.80017 4.39022 4.80526 4.39054 4.80822C4.40073 4.80477 4.41093 4.80132 4.42128 4.79787ZM6.16269 2.70094C6.16204 2.70127 6.16105 2.70143 6.16023 2.70176V2.74482H6.16269V2.70094ZM5.98403 2.35923C5.98502 2.36202 5.98584 2.36466 5.98683 2.36745C5.98485 2.36761 5.98288 2.36778 5.98107 2.3681C5.98239 2.36498 5.98403 2.36235 5.98551 2.35939C5.97483 2.33293 5.96414 2.30647 5.95346 2.28017C5.94919 2.28214 5.94491 2.28412 5.94048 2.28609C5.96234 2.30696 5.94804 2.34526 5.98403 2.35923ZM6.06917 2.31091C6.06802 2.31469 6.06654 2.3183 6.06654 2.32192C6.06654 2.32553 6.06851 2.32932 6.0695 2.3331C6.06917 2.32948 6.06868 2.3257 6.06868 2.32209C6.06868 2.3183 6.06901 2.31485 6.06917 2.31107C6.06703 2.30844 6.06523 2.30516 6.06243 2.30335C6.0598 2.3017 6.05586 2.30154 6.05241 2.30072C6.058 2.304 6.06358 2.30778 6.06917 2.31091ZM5.96398 2.24779C5.96365 2.24516 5.96332 2.24237 5.96299 2.23957C5.96382 2.24056 5.96562 2.24187 5.96546 2.24319C5.96546 2.24483 5.96398 2.24631 5.96299 2.24779H5.96908C5.96858 2.24927 5.96825 2.25075 5.96793 2.25223C5.96661 2.25091 5.9653 2.24944 5.96398 2.24779ZM5.91056 2.18731C5.91106 2.18665 5.91155 2.18583 5.91221 2.18517C5.91122 2.1855 5.9104 2.18566 5.90941 2.18583C5.90514 2.18632 5.9007 2.18665 5.89643 2.18698C5.89939 2.18385 5.90234 2.18024 5.9053 2.17679C5.90711 2.1804 5.90892 2.18418 5.91056 2.18731ZM5.27711 1.12931C5.27613 1.12865 5.2753 1.128 5.27432 1.12717C5.27465 1.128 5.27465 1.12882 5.27481 1.12948C5.27202 1.12882 5.26922 1.12816 5.26626 1.1275C5.26741 1.12602 5.26922 1.12339 5.26955 1.12372C5.27218 1.1252 5.27465 1.1275 5.27711 1.12931ZM5.26544 1.17599C5.26594 1.17484 5.26643 1.17369 5.26676 1.1727C5.26577 1.17369 5.26462 1.17468 5.26363 1.17582C5.25755 1.17435 5.2518 1.17303 5.24572 1.17155C5.24835 1.16596 5.25065 1.16021 5.25312 1.15446C5.25312 1.15627 5.25328 1.15775 5.25328 1.15972C5.25114 1.1584 5.24884 1.15725 5.24687 1.1561C5.24851 1.15528 5.25016 1.15462 5.25147 1.1538C5.27596 1.14854 5.27629 1.15873 5.26544 1.17599ZM5.3348 1.34693L5.33497 1.34857L5.33678 1.34791C5.3353 1.34725 5.33365 1.34676 5.33217 1.3461C5.33316 1.34643 5.33431 1.34676 5.3348 1.34693ZM5.38756 4.24808C5.3897 4.24692 5.39184 4.2461 5.39397 4.24495C5.39397 4.24725 5.39414 4.24972 5.39447 4.25235C5.39167 4.25153 5.38888 4.25038 5.38608 4.24939C5.38691 4.25021 5.38723 4.2512 5.38789 4.25235C5.38789 4.25087 5.38756 4.24939 5.38756 4.24808ZM5.99817 2.20292C6.00902 2.18451 6.01247 2.16611 6.00293 2.1449C5.99291 2.12271 5.98699 2.09872 5.97943 2.07554L5.97828 2.07653C6.04254 2.17662 6.0787 2.28675 6.09662 2.40361L6.0981 2.40311C6.09366 2.3995 6.08939 2.39588 6.08495 2.39227C6.08265 2.39654 6.07739 2.4018 6.07854 2.40459C6.08396 2.4207 6.0912 2.43631 6.09777 2.45193L6.09629 2.44979C6.09695 2.45522 6.09728 2.4608 6.09876 2.46623C6.10024 2.47198 6.1027 2.47708 6.10484 2.4825C6.10582 2.47691 6.10681 2.47165 6.10763 2.46623C6.10845 2.46064 6.10911 2.45522 6.10993 2.44963L6.10845 2.45177C6.11848 2.48053 6.12867 2.50979 6.13853 2.53871C6.141 2.52622 6.14363 2.51209 6.14642 2.49795C6.14987 2.49795 6.15316 2.49779 6.15661 2.49779C6.1673 2.57586 6.17781 2.65409 6.18833 2.73249C6.19047 2.73249 6.19244 2.73266 6.19442 2.73282C6.1982 2.71951 6.20214 2.70636 6.20592 2.69321C6.20806 2.69354 6.21036 2.69404 6.2125 2.69453V2.88634C6.21019 2.8865 6.20756 2.88667 6.20526 2.88683C6.20329 2.85872 6.20181 2.83062 6.2 2.80251C6.19573 2.80251 6.19179 2.80268 6.18768 2.80268C6.18768 2.8275 6.1862 2.85248 6.18801 2.87697C6.19951 3.04215 6.17601 3.20372 6.141 3.36447C6.10484 3.53129 6.03104 3.68086 5.9367 3.82156C5.91418 3.85525 5.8887 3.88073 5.84219 3.87793C5.82707 3.87711 5.80833 3.89305 5.79567 3.90571C5.71694 3.98395 5.64495 4.07007 5.56064 4.14141C5.43638 4.24594 5.30407 4.34045 5.17422 4.43808C5.15976 4.44893 5.13921 4.45172 5.12146 4.45846L5.12261 4.45977C5.12541 4.45156 5.12869 4.44334 5.13182 4.43495C5.14184 4.43413 5.15187 4.43282 5.16173 4.43167C5.16452 4.42608 5.16748 4.42049 5.17028 4.41507C5.17291 4.40915 5.1757 4.40323 5.17849 4.39715C5.18885 4.39699 5.1992 4.39699 5.20939 4.39666C5.21022 4.38762 5.21087 4.37907 5.21153 4.37036C5.22156 4.37135 5.23158 4.37233 5.24161 4.37283C5.24523 4.36444 5.24884 4.35655 5.25295 4.3485C5.25295 4.3485 5.25394 4.35014 5.25394 4.35031C5.24983 4.35836 5.24555 4.36642 5.24128 4.3743C5.23175 4.37348 5.22222 4.37283 5.21285 4.37233C5.21186 4.38072 5.21087 4.38893 5.21005 4.39699C5.19986 4.39764 5.18984 4.39797 5.17997 4.39879C5.17734 4.40488 5.17455 4.41079 5.17192 4.41704C5.16863 4.4223 5.16518 4.42756 5.16189 4.43249C5.1522 4.43364 5.1425 4.43496 5.13264 4.43611C5.1093 4.45188 5.08563 4.46799 5.06213 4.48393L5.06476 4.48213C5.05605 4.48656 5.04733 4.491 5.03879 4.49544L5.04076 4.4938C5.03632 4.4984 5.03172 4.50284 5.02728 4.50744L5.02909 4.50563C5.02071 4.51007 5.01216 4.51434 5.00378 4.51911L5.00559 4.51763C4.98931 4.52618 4.97288 4.53423 4.95628 4.54245L4.95907 4.5408C4.95003 4.5454 4.94132 4.54984 4.93261 4.55445L4.93524 4.5528C4.92669 4.55708 4.91815 4.56135 4.9096 4.56579L4.91157 4.56431C4.90286 4.56875 4.89415 4.57351 4.88544 4.57779L4.88807 4.57581C4.87706 4.586 4.86604 4.59554 4.85503 4.60556C4.8358 4.60951 4.81657 4.61362 4.79734 4.61789C4.79109 4.63449 4.75461 4.62545 4.76447 4.65569C4.75937 4.65471 4.75461 4.65405 4.74967 4.65339C4.75461 4.65389 4.75937 4.65454 4.76414 4.65504C4.77515 4.64254 4.78633 4.63005 4.79734 4.61756C4.81608 4.61296 4.83465 4.60819 4.85339 4.60326C4.86062 4.60228 4.86769 4.60112 4.87508 4.59997L4.87623 4.60162C4.85059 4.61838 4.82594 4.63745 4.79898 4.65142C4.71253 4.69662 4.62723 4.74363 4.53781 4.78209C4.47979 4.80723 4.41536 4.81775 4.35438 4.83633C4.33088 4.84339 4.3082 4.85375 4.28601 4.86394C4.28026 4.86673 4.27418 4.8761 4.27467 4.8812C4.27549 4.88646 4.28437 4.89155 4.29045 4.89484C4.31017 4.90569 4.33088 4.9144 4.35011 4.92607C4.35866 4.93133 4.36425 4.94168 4.37115 4.9499C4.35948 4.95911 4.34896 4.97357 4.33598 4.97685C4.31773 4.98096 4.29653 4.97998 4.27796 4.97587C4.2252 4.96371 4.17293 4.94875 4.1205 4.93478C4.11425 4.93527 4.10801 4.93577 4.10176 4.93642C4.10801 4.93593 4.11425 4.93544 4.12066 4.93511C4.1085 4.94579 4.08878 4.95516 4.11343 4.97324C4.12707 4.98359 4.14071 4.99395 4.15386 5.00529C4.15994 5.01071 4.16488 5.01762 4.17014 5.02386C4.16175 5.02732 4.15271 5.03488 4.14515 5.03405C4.09864 5.02814 4.05262 5.01959 4.0061 5.01334C3.85933 4.99346 3.71222 4.97685 3.56594 4.95417C3.42196 4.93182 3.27634 4.91884 3.13597 4.87577C3.04886 4.84898 2.95928 4.83008 2.87217 4.80362C2.82598 4.78932 2.78966 4.75645 2.75646 4.72144H2.75613C2.73657 4.71273 2.71537 4.70648 2.69778 4.69514C2.64469 4.66013 2.59325 4.62331 2.54131 4.58683C2.5303 4.5791 2.52192 4.56529 2.51008 4.56135C2.43037 4.53571 2.37662 4.47654 2.31827 4.42164C2.21061 4.3199 2.09885 4.22244 1.99103 4.12119C1.84672 3.9851 1.71786 3.83536 1.6153 3.66508C1.54232 3.54395 1.48841 3.41443 1.4511 3.27752C1.42907 3.19649 1.40245 3.1171 1.40491 3.03114C1.40557 3.01306 1.3888 2.99465 1.38782 2.97591C1.3865 2.94912 1.3681 2.91888 1.39949 2.89439C1.40524 2.88979 1.40064 2.86941 1.39817 2.85659C1.38913 2.80925 1.36908 2.76307 1.39538 2.71425C1.40064 2.70455 1.39341 2.68779 1.3916 2.67431C1.37845 2.57734 1.36021 2.48086 1.35363 2.38356C1.34886 2.31403 1.35675 2.24286 1.36481 2.17317C1.39127 1.94142 1.43515 1.71345 1.51323 1.49304C1.56533 1.34545 1.64767 1.2156 1.73166 1.08575C1.89635 0.83083 2.13928 0.68093 2.41294 0.570972C2.46127 0.551743 2.50778 0.527911 2.55643 0.509502C2.58996 0.497011 2.62546 0.487971 2.66113 0.482053C2.71471 0.473013 2.76928 0.470384 2.82303 0.461507C3.0053 0.431594 3.18873 0.425678 3.37282 0.438334C3.50168 0.446717 3.6307 0.451811 3.75923 0.462988C3.80903 0.467096 3.85916 0.480245 3.90699 0.496354C3.96403 0.515583 4.01892 0.542374 4.07481 0.566042C4.09305 0.573604 4.11442 0.596121 4.12379 0.556509C4.14367 0.561439 4.16455 0.563905 4.18328 0.571301C4.21566 0.584122 4.2579 0.579685 4.27944 0.555029C4.28338 0.550263 4.27812 0.537773 4.27746 0.528897L4.27681 0.530048C4.30573 0.527748 4.31132 0.524789 4.32036 0.506709L4.3197 0.505558C4.35077 0.51509 4.38216 0.523636 4.4129 0.534485C4.44758 0.546811 4.48111 0.561769 4.51579 0.573767C4.53469 0.580341 4.55491 0.582973 4.5743 0.587739C4.57364 0.588561 4.57299 0.589218 4.57216 0.589876C4.57348 0.589547 4.57463 0.589218 4.57562 0.589052C4.56164 0.575575 4.54735 0.562098 4.53354 0.548619L4.53666 0.545005C4.66454 0.592835 4.77055 0.673043 4.86719 0.767058C4.88248 0.782015 4.89629 0.798286 4.91108 0.813736C4.94609 0.850225 4.94625 0.850225 4.98718 0.855977C4.97995 0.8877 4.9857 0.910544 5.02482 0.91038C5.03205 0.91038 5.03945 0.910382 5.04651 0.910546C5.0447 0.916134 5.0429 0.921723 5.04092 0.927475C5.04553 0.955251 5.06525 0.967579 5.09007 0.974318C5.0904 0.982207 5.09073 0.990096 5.09122 0.997987H5.11094C5.11571 1.00703 5.12064 1.0159 5.12524 1.02461C5.12458 1.02461 5.12376 1.02478 5.1231 1.02494C5.09763 1.02494 5.10979 1.00966 5.11176 0.998314C5.10486 0.99815 5.09796 0.997987 5.09089 0.997657C5.09089 0.989769 5.09105 0.982207 5.09105 0.974318C5.07445 0.959197 5.05785 0.944074 5.04125 0.928789C5.03517 0.922379 5.02925 0.916463 5.02334 0.910217C5.01117 0.891973 4.99918 0.874057 4.98701 0.855977C4.97567 0.846937 4.96252 0.839212 4.95299 0.828694C4.88281 0.749307 4.8072 0.676002 4.71598 0.620777C4.69922 0.610422 4.68146 0.600392 4.68508 0.575904L4.68442 0.57426C4.71993 0.585602 4.74704 0.617981 4.78863 0.613381C4.7929 0.613051 4.79865 0.624063 4.80359 0.62998L4.80556 0.628664C4.80556 0.633266 4.80556 0.638033 4.80572 0.642799L4.80359 0.640333C4.80819 0.644936 4.81279 0.649539 4.81739 0.654305L4.81526 0.652663C4.8238 0.6571 4.83251 0.661374 4.84106 0.665811L4.83925 0.664332C4.8478 0.67255 4.85618 0.680932 4.86473 0.689314L4.86259 0.687671C4.87196 0.692765 4.88116 0.698026 4.89053 0.702956C4.89119 0.711996 4.89185 0.720543 4.89234 0.729418C4.89333 0.729583 4.89431 0.729747 4.89514 0.729747C4.89398 0.729418 4.89283 0.72909 4.89168 0.728432C4.89152 0.720051 4.89119 0.711667 4.89086 0.703285C4.88988 0.698026 4.88889 0.6926 4.8879 0.687506L4.88708 0.689314C4.92801 0.733033 4.9686 0.777247 5.01035 0.820476C5.06311 0.875043 5.11719 0.92846 5.16962 0.983029C5.18277 0.996835 5.19279 1.01393 5.20414 1.02921V1.02823C5.20824 1.03661 5.21235 1.04499 5.21646 1.05337L5.21515 1.0519C5.22238 1.05683 5.22961 1.06176 5.23684 1.06652L5.24013 1.06373C5.28385 1.11501 5.32823 1.1653 5.37047 1.21774C5.38937 1.2414 5.404 1.26852 5.42044 1.29417C5.41731 1.28989 5.41403 1.28562 5.41074 1.28118C5.40975 1.28118 5.40893 1.28085 5.40794 1.28085C5.40909 1.28118 5.41024 1.28167 5.4114 1.282C5.41435 1.28611 5.41731 1.29038 5.42011 1.29433C5.43523 1.30616 5.45019 1.318 5.46514 1.32999C5.4658 1.33608 5.46662 1.342 5.46794 1.34791C5.475 1.35153 5.48174 1.35547 5.48848 1.35909C5.48963 1.36648 5.49078 1.37388 5.4921 1.38144C5.49867 1.38637 5.50475 1.39147 5.511 1.39673C5.51757 1.40856 5.52415 1.42039 5.53089 1.43206C5.54946 1.46313 5.56918 1.49354 5.58595 1.52575C5.59893 1.55024 5.60781 1.57687 5.61849 1.60284C5.65827 1.67516 5.69837 1.74731 5.73864 1.81963C5.74571 1.82193 5.75245 1.8244 5.75902 1.82735C5.77003 1.8502 5.78088 1.87321 5.79173 1.89655C5.79732 1.91529 5.80307 1.93419 5.80866 1.95309C5.81852 1.96871 5.82657 1.98596 5.8389 1.99928C5.84893 2.01012 5.86405 2.01604 5.8767 2.02426C5.87851 2.03478 5.88032 2.04546 5.88213 2.05582C5.88591 2.06354 5.88969 2.07127 5.89347 2.07916C5.89659 2.08853 5.89955 2.09756 5.90267 2.10693C5.90875 2.11269 5.91467 2.1186 5.92075 2.12419C5.9247 2.13192 5.92897 2.13931 5.93308 2.14671C5.93752 2.1597 5.94196 2.17268 5.94639 2.18583C5.95017 2.18385 5.95395 2.18172 5.9579 2.17975C5.94919 2.16923 5.94048 2.15854 5.9316 2.14786C5.92782 2.14046 5.92355 2.13323 5.91944 2.12584C5.91385 2.11943 5.90826 2.11318 5.90267 2.10693C5.89922 2.09789 5.89593 2.08902 5.89281 2.07998C5.88903 2.07209 5.88525 2.06436 5.88147 2.05664C5.87966 2.04612 5.87753 2.03577 5.87555 2.02558C5.85961 1.99566 5.85386 1.95605 5.80866 1.95326C5.8172 1.92992 5.81375 1.91068 5.79041 1.89754C5.77957 1.87453 5.76855 1.85168 5.75771 1.82851C5.75064 1.82588 5.74341 1.82308 5.73634 1.82045C5.73634 1.80796 5.74061 1.79333 5.73568 1.78265C5.70889 1.72545 5.68078 1.66875 5.65087 1.61286C5.64693 1.6058 5.6295 1.60612 5.61849 1.60284C5.62917 1.54728 5.58973 1.47184 5.52957 1.43338C5.52316 1.42155 5.51675 1.40988 5.51001 1.39788C5.5036 1.39262 5.49686 1.38719 5.49045 1.3821C5.4893 1.37487 5.48832 1.36747 5.48733 1.36024C5.4801 1.35629 5.47303 1.35202 5.4658 1.34791C5.46268 1.34643 5.45972 1.34512 5.45676 1.3438C5.45988 1.3397 5.46301 1.33558 5.46596 1.33115C5.45627 1.31044 5.45002 1.28677 5.43605 1.26918C5.36685 1.18191 5.30062 1.09134 5.22353 1.01163C5.15581 0.941115 5.09779 0.863044 5.03238 0.791383C4.96713 0.720049 4.89119 0.658578 4.81936 0.593326C4.80704 0.582149 4.7929 0.573109 4.78222 0.558152C4.8118 0.554043 4.83268 0.570974 4.85207 0.587081C4.91453 0.638691 4.97847 0.689477 5.03632 0.746347C5.11571 0.824254 5.19345 0.904299 5.26495 0.98911C5.34795 1.08756 5.42109 1.1944 5.50295 1.29384C5.58447 1.39262 5.64413 1.50406 5.70166 1.61714C5.7084 1.63028 5.71103 1.64557 5.71579 1.65971C5.71645 1.65938 5.71711 1.65905 5.71744 1.65872C5.7227 1.66759 5.72779 1.6768 5.73305 1.68567L5.73124 1.68469C5.80258 1.81618 5.87473 1.94734 5.94491 2.07998C5.96579 2.11926 5.98074 2.16167 5.99833 2.20276C5.9934 2.19701 5.9888 2.19125 5.98403 2.18533C5.98321 2.18599 5.98239 2.18649 5.98173 2.18698C5.98305 2.18698 5.98436 2.18681 5.98568 2.18665C5.98995 2.19207 5.99389 2.19766 5.99817 2.20292ZM3.85522 5.55278C3.85275 5.55278 3.85029 5.55278 3.84782 5.55294C3.84881 5.55377 3.84963 5.55459 3.85062 5.55574C3.8516 5.55442 3.85242 5.55344 3.85341 5.55212L3.85522 5.55278ZM0.899992 3.13272L0.902951 3.13239C0.902951 3.13239 0.899828 3.13321 0.899664 3.13337C0.8995 3.13337 0.899992 3.13272 0.899992 3.13272ZM5.07758 5.30262L5.07478 5.30574C5.07478 5.30574 5.07856 5.30361 5.07856 5.30344L5.07758 5.30262ZM5.07906 5.28536C5.07856 5.29112 5.07823 5.29687 5.07758 5.30262L5.07856 5.30344V5.2852L5.07906 5.28536ZM5.13987 5.28865V5.28421C5.1402 5.28536 5.14053 5.28651 5.14069 5.28766C5.14086 5.28766 5.13987 5.28865 5.13987 5.28865ZM5.18918 5.24526L5.18951 5.24674C5.18951 5.24674 5.1877 5.24592 5.18737 5.24608L5.18918 5.24526ZM5.36291 5.12807C5.36258 5.12922 5.36242 5.1302 5.36209 5.13136C5.36291 5.1307 5.36373 5.13004 5.36472 5.12955C5.36373 5.12922 5.36258 5.12922 5.36127 5.12906L5.36291 5.12807ZM5.36127 5.12906C5.36357 5.1284 5.36587 5.12774 5.36833 5.12708C5.36718 5.12626 5.3662 5.12511 5.36521 5.12412C5.36439 5.1256 5.36373 5.12692 5.36291 5.12807L5.36127 5.12906ZM1.49761 4.6008C1.49827 4.60211 1.49909 4.60359 1.49975 4.6049C1.4986 4.60408 1.49761 4.60293 1.49646 4.60244L1.49761 4.6008ZM1.5415 4.64139H1.53722C1.53837 4.64106 1.53936 4.64074 1.54002 4.64024C1.54002 4.64008 1.5415 4.64139 1.5415 4.64139ZM1.53936 4.65997C1.54002 4.65389 1.54051 4.64764 1.5415 4.64139L1.54002 4.64008C1.54347 4.64665 1.54692 4.65339 1.55037 4.65997L1.55169 4.65816C1.54692 4.65816 1.54265 4.65832 1.53821 4.65849L1.53936 4.65997ZM1.53887 4.67164C1.53805 4.66769 1.53821 4.66391 1.53936 4.65997L1.53821 4.65849C1.53821 4.66292 1.53821 4.66736 1.53805 4.67164H1.53887ZM1.55037 4.65997C1.55465 4.66391 1.55875 4.66769 1.5627 4.67164L1.56352 4.66999C1.55875 4.67032 1.55415 4.67032 1.54939 4.67065L1.55136 4.67164C1.55152 4.6672 1.55152 4.66292 1.55169 4.65816L1.55037 4.65997ZM1.5627 4.67164C1.56664 4.67574 1.57059 4.67969 1.57453 4.6838L1.57536 4.68232H1.56171L1.5627 4.68363C1.56303 4.67903 1.56319 4.67443 1.56352 4.66999L1.5627 4.67164ZM5.09779 0.19212C5.10585 0.193106 5.11407 0.194422 5.12245 0.195737L5.1231 0.194748C5.11456 0.194748 5.10585 0.194421 5.0973 0.194421L5.09779 0.19212ZM0.967545 3.79263C0.969682 3.8043 0.971819 3.8158 0.973955 3.82764L0.975106 3.82649C0.972476 3.81515 0.970175 3.80381 0.967874 3.7923C0.968038 3.79197 0.967545 3.79263 0.967545 3.79263ZM1.4792 4.58485C1.47805 4.58058 1.47707 4.57598 1.47592 4.57187C1.47444 4.57269 1.47329 4.57351 1.47197 4.5745C1.47493 4.57696 1.47772 4.57992 1.48068 4.58288C1.48052 4.58288 1.4792 4.58485 1.4792 4.58485ZM0.968038 3.79197C0.968367 3.78901 0.96886 3.78589 0.969353 3.78293C0.966723 3.78491 0.963929 3.78655 0.961628 3.78885C0.961135 3.78951 0.962286 3.7923 0.963436 3.79361C0.963929 3.79411 0.966066 3.79312 0.967545 3.79263L0.968038 3.79197ZM5.14086 5.28766C5.12853 5.28734 5.11637 5.28717 5.10371 5.28717C5.10338 5.28717 5.1024 5.28816 5.10223 5.28849C5.11472 5.28881 5.12738 5.28865 5.13987 5.28865L5.14086 5.28766ZM5.33036 5.14549C5.33349 5.14516 5.33678 5.14467 5.34006 5.14434C5.34006 5.14615 5.34039 5.14763 5.34039 5.14927C5.3371 5.14944 5.33398 5.14976 5.33069 5.14993C5.33053 5.14993 5.33036 5.14697 5.33036 5.14549ZM1.56286 4.69432C1.55497 4.68676 1.54692 4.67903 1.53887 4.67164H1.53805H1.55136L1.54939 4.67065C1.55382 4.67476 1.55826 4.67903 1.5627 4.68363L1.56171 4.68232C1.56171 4.68659 1.56188 4.69103 1.56188 4.69547L1.56286 4.69432ZM0.874517 3.30299L0.874023 3.2979L0.875996 3.29856L0.874517 3.30299ZM0.897691 3.05596C0.897363 3.0507 0.896705 3.04708 0.89687 3.04314C0.897198 3.04051 0.898678 3.03772 0.899335 3.03492C0.899828 3.03903 0.900815 3.04265 0.90065 3.04659C0.900486 3.04922 0.899006 3.05218 0.897691 3.05596ZM0.884214 2.78608C0.885036 2.7749 0.885857 2.76389 0.886679 2.75321L0.890624 2.78772C0.888487 2.78739 0.886351 2.78674 0.884214 2.78608ZM2.05283 8.3466H5.42241V23.6627H2.05283V8.3466Z" fill="white"/>
<path d="M21.4423 16.0046C21.4423 12.6964 19.145 10.0316 15.806 10.0316C12.4672 10.0316 10.1697 12.6964 10.1697 16.0046C10.1697 19.3129 12.4672 21.978 15.806 21.978C19.145 21.978 21.4423 19.3129 21.4423 16.0046ZM7.96416 16.0046C7.96416 11.6244 11.2419 8.04016 15.5917 8.04016C17.9503 8.04016 20.1557 9.26564 21.2586 10.9198V0.688418H23.4027V23.6626H21.2586V21.0897C20.1557 22.7438 17.9503 23.9691 15.5917 23.9691C11.2419 23.9691 7.96416 20.385 7.96416 16.0046Z" fill="white"/>
<path d="M30.5691 14.1362H37.1244C36.6341 12.2983 35.1331 11.6855 33.9385 11.6855C32.1005 11.6855 30.9672 12.7272 30.5691 14.1362ZM25.9435 15.9741C25.9435 11.3793 29.4355 8.0099 34.061 8.0099C38.4721 8.0099 42.4235 11.0116 42.2399 17.0769H30.4465C30.661 18.639 31.8248 20.0177 34.3062 20.0177C35.654 20.0177 36.8793 19.4049 37.247 18.5779H42.0868C41.1063 21.7635 37.9208 24 34.061 24C29.3132 24 25.9435 20.6303 25.9435 15.9741Z" fill="white"/>
<path d="M49.8044 23.9691C46.2205 23.9691 43.433 22.0698 43.2491 19.0069H46.7413C47.017 20.6609 48.3955 21.2734 49.8962 21.2734C51.367 21.2734 52.3775 20.6916 52.3775 19.65C52.3775 18.6085 51.7037 18.0266 50.1107 17.6284L47.599 16.9543C44.9646 16.2805 43.6779 14.565 43.6779 12.329C43.6779 9.75562 45.9448 8.04017 49.3756 8.04017C52.6838 8.04017 54.9813 9.8784 55.2263 12.6352H51.8566C51.5506 11.3488 50.5396 10.736 49.345 10.736C48.0584 10.736 47.1087 11.318 47.1087 12.2983C47.1087 13.2784 47.8746 13.7992 49.1611 14.1362L51.7343 14.8101C54.4911 15.5147 55.8083 17.1075 55.8083 19.4355C55.8083 22.407 53.2354 23.9691 49.8044 23.9691Z" fill="white"/>
<path d="M65.0272 11.1036C62.3008 11.1036 60.4631 13.2479 60.4631 16.0046C60.4631 18.7617 62.3008 20.906 65.0272 20.906C67.7535 20.906 69.5912 18.7617 69.5912 16.0046C69.5912 13.2479 67.7535 11.1036 65.0272 11.1036ZM64.4145 8.0401C66.6202 8.0401 68.4579 9.17387 69.3156 10.399V8.34663H72.6853V23.6625H69.3156V21.6106C68.4579 22.8358 66.6202 23.9691 64.4145 23.9691C60.218 23.9691 57.0322 20.3851 57.0322 16.0046C57.0322 11.6243 60.218 8.0401 64.4145 8.0401Z" fill="white"/>
<path d="M75.8081 8.34658H80.4335V9.909C81.23 8.83654 82.5469 8.0098 84.3546 8.0098C86.5598 8.0098 88.1528 9.02062 89.1023 10.7055C90.0826 8.83654 92.1963 8.0098 93.7893 8.0098C97.5262 8.0098 99.6093 10.6746 99.6093 14.9326V23.6626H94.9837V15.7291C94.9837 13.4929 94.3405 12.2063 92.7783 12.2063C91.1549 12.2063 90.0214 13.4316 90.0214 16.219V23.6626H85.3958V15.7291C85.3958 13.4929 84.7526 12.2063 83.1904 12.2063C81.5668 12.2063 80.4335 13.4316 80.4335 16.219V23.6626H75.8081V8.34658Z" fill="white"/>
</svg>
