<svg width="160" height="72" viewBox="0 0 160 72" fill="none" xmlns="http://www.w3.org/2000/svg">
<path d="M7.66308 18.9925C7.66308 18.9856 7.66335 18.9779 7.66335 18.9709C7.67054 18.9779 7.67773 18.9853 7.68492 18.9922C7.67773 18.9922 7.67054 18.9922 7.66308 18.9925ZM7.07552 18.2664V18.2888C7.06806 18.2814 7.06087 18.2742 7.05341 18.2664H7.07552ZM7.05634 18.2475C7.05661 18.2545 7.05661 18.2619 7.05661 18.2691H7.03477V18.2475H7.05634ZM7.76083 19.1044V19.1262C7.75337 19.119 7.74618 19.1118 7.73873 19.1046C7.74618 19.1046 7.75337 19.1044 7.76083 19.1044ZM7.64391 18.9715C7.65136 18.972 7.65855 18.9731 7.66601 18.9739L7.66335 18.9709C7.66335 18.9779 7.66308 18.9856 7.66308 18.9925L7.66601 18.9904C7.65855 18.984 7.65136 18.9779 7.64391 18.9715ZM7.62446 18.9329H7.64683C7.64657 18.9467 7.6463 18.9603 7.64604 18.9744C7.63884 18.9606 7.63165 18.9467 7.62446 18.9329ZM7.68492 19.0314C7.67747 19.0311 7.67054 19.0311 7.66308 19.0309C7.66415 19.0173 7.66495 19.0037 7.66601 18.9904L7.66308 18.9925C7.67054 18.9922 7.67773 18.9922 7.68492 18.9922L7.68226 18.9899C7.68332 19.0034 7.68386 19.0175 7.68492 19.0314ZM7.33547 18.0728C7.3448 18.0819 7.35412 18.0909 7.36344 18.1002L7.36584 18.0987C7.35652 18.0893 7.34719 18.08 7.33761 18.0707L7.33547 18.0728ZM7.45666 18.1932H7.41564C7.41618 18.1796 7.41698 18.1663 7.41751 18.1535L7.41644 18.1543C7.42976 18.1671 7.44335 18.1799 7.45666 18.1932ZM7.41751 18.1535C7.4002 18.1351 7.38288 18.1165 7.36584 18.0987L7.36344 18.1002C7.38129 18.1186 7.39887 18.1362 7.41644 18.1543L7.41751 18.1535ZM7.62846 18.8783H7.60608V18.8561C7.61354 18.8639 7.621 18.8713 7.62846 18.8783ZM7.1714 18.3453H7.1493V18.3229C7.15676 18.3306 7.16395 18.3378 7.1714 18.3453ZM7.15249 18.3264H7.13012V18.304C7.13758 18.3115 7.14504 18.3192 7.15249 18.3264ZM7.79972 19.126H7.77788C7.77122 19.1196 7.76483 19.1132 7.75817 19.1068V19.0652C7.77202 19.0857 7.78587 19.1057 7.79972 19.126ZM7.7611 19.0695C7.74778 19.0628 7.73393 19.0559 7.72035 19.0495V19.0082C7.73393 19.0287 7.74778 19.049 7.7611 19.0695ZM7.66601 18.9739C7.66495 18.96 7.66415 18.9462 7.66308 18.9323C7.67693 18.9528 7.69052 18.9725 7.70437 18.9928C7.69691 18.9917 7.68945 18.9906 7.68226 18.9899L7.68492 18.9922C7.67773 18.9853 7.67054 18.9779 7.66335 18.9709L7.66601 18.9739ZM7.02651 24.1253C7.02784 24.1122 7.02944 24.0989 7.03104 24.0853C7.03077 24.0851 7.02944 24.0827 7.02891 24.0827C7.02784 24.0963 7.02784 24.1106 7.02651 24.1253C7.02625 24.1253 7.02678 24.1256 7.02651 24.1253ZM7.07712 24.0885C7.08404 24.0758 7.09097 24.0627 7.09763 24.0497C7.09763 24.0494 7.09603 24.047 7.09603 24.047C7.08937 24.0598 7.08351 24.0726 7.07765 24.0861C7.07765 24.0869 7.07712 24.0885 7.07712 24.0885ZM7.31417 23.884C7.31417 23.8861 7.3147 23.8885 7.3147 23.8909C7.31363 23.889 7.3131 23.8874 7.3115 23.8861C7.31124 23.8864 7.31417 23.884 7.31417 23.884ZM7.3115 23.8861C7.31656 23.8874 7.32083 23.8896 7.32535 23.8909C7.32482 23.8866 7.32455 23.8827 7.32455 23.8789C7.32109 23.8808 7.31763 23.8821 7.31417 23.884C7.31417 23.884 7.31124 23.8864 7.3115 23.8861ZM8.2834 20.5435C8.28127 20.5437 8.27914 20.544 8.27701 20.544C8.27808 20.5432 8.27941 20.5424 8.28074 20.5413C8.28048 20.5411 8.2834 20.5435 8.2834 20.5435ZM8.15982 20.5421C8.16142 20.5419 8.16275 20.5416 8.16435 20.5411C8.16328 20.5421 8.16248 20.5435 8.16168 20.5445C8.16195 20.5451 8.15982 20.5421 8.15982 20.5421ZM7.91611 19.9612C7.90546 19.9564 7.89454 19.9524 7.88309 19.9487C7.88255 19.9487 7.88042 19.9498 7.87989 19.9498C7.89081 19.9543 7.90253 19.9588 7.91398 19.9631C7.91425 19.9631 7.91611 19.9612 7.91611 19.9612ZM7.84873 19.6879C7.84819 19.6885 7.84713 19.689 7.84606 19.6895C7.8458 19.6895 7.84873 19.6879 7.84873 19.6879ZM7.51419 19.2634C7.50407 19.2549 7.49422 19.2466 7.48356 19.2386C7.48303 19.2386 7.48117 19.2397 7.4809 19.2397C7.49129 19.2479 7.50221 19.2567 7.5126 19.2653C7.51313 19.2655 7.51419 19.2634 7.51419 19.2634ZM7.4777 19.2024C7.46678 19.1965 7.45586 19.1901 7.44441 19.1843C7.44361 19.1846 7.44175 19.1843 7.44121 19.1843C7.45267 19.1909 7.46412 19.1979 7.47584 19.2043L7.4777 19.2024ZM7.23187 19.1843L7.22894 19.1853C7.22894 19.1853 7.22867 19.1827 7.22894 19.183C7.2292 19.1832 7.23187 19.1843 7.23187 19.1843ZM7.44121 19.1571C7.43642 19.1643 7.43136 19.171 7.4263 19.1776C7.43109 19.1798 7.43589 19.1819 7.44121 19.1843C7.44175 19.1843 7.44361 19.1846 7.44441 19.1843C7.44308 19.1744 7.44095 19.1651 7.43988 19.1552C7.43988 19.155 7.44121 19.1571 7.44121 19.1571ZM7.22894 19.183C7.2276 19.1822 7.22601 19.1819 7.22441 19.1814C7.2268 19.1824 7.22947 19.1832 7.23187 19.1843C7.23187 19.1843 7.2292 19.1832 7.22894 19.183ZM7.35279 19.0775C7.35092 19.0769 7.34906 19.0761 7.34719 19.0756C7.34879 19.0756 7.35012 19.0761 7.35172 19.0761L7.35279 19.0775ZM6.97537 24.1256C6.97084 24.1354 6.96632 24.145 6.96206 24.1546C6.96206 24.1549 6.96445 24.1575 6.96445 24.1578C6.96898 24.1477 6.97351 24.1381 6.97777 24.1282C6.97777 24.128 6.97537 24.1256 6.97537 24.1256ZM7.11334 18.9054C7.11494 18.9036 7.1168 18.902 7.1184 18.9004C7.11787 18.902 7.11707 18.9038 7.11654 18.9057C7.1168 18.9059 7.11334 18.9054 7.11334 18.9054ZM7.09629 18.8708C7.0923 18.8801 7.08857 18.8894 7.08431 18.8985C7.09416 18.9009 7.10349 18.903 7.11334 18.9054C7.11334 18.9054 7.1168 18.9059 7.11654 18.9057C7.13358 18.8775 7.13332 18.8612 7.09363 18.8697C7.0939 18.8697 7.09629 18.8708 7.09629 18.8708ZM7.09363 18.8697C7.09123 18.8711 7.08884 18.8721 7.08617 18.8735C7.08937 18.8753 7.0931 18.8772 7.09656 18.8793C7.09656 18.8761 7.09629 18.8737 7.09629 18.8708C7.09629 18.8708 7.0939 18.8697 7.09363 18.8697ZM7.13145 18.8303C7.13119 18.8292 7.13119 18.8279 7.13065 18.8266C7.13225 18.8279 7.13358 18.829 7.13518 18.8303H7.13145ZM7.13518 18.8303C7.13092 18.8271 7.12719 18.8234 7.12293 18.821C7.1224 18.8205 7.11947 18.8247 7.1176 18.8271C7.1224 18.8282 7.12692 18.8292 7.13145 18.8303H7.13518ZM6.88908 18.6604C6.88162 18.646 6.87363 18.6319 6.8659 18.6172C6.8659 18.6172 6.86697 18.6188 6.86697 18.6183C6.86404 18.6361 6.84433 18.6609 6.88561 18.6609C6.88668 18.6606 6.88801 18.6604 6.88908 18.6604ZM6.83341 18.6167C6.84486 18.6172 6.85605 18.6175 6.86697 18.6183C6.86697 18.6188 6.8659 18.6172 6.8659 18.6172L6.83341 18.6167ZM6.83341 18.6167C6.83261 18.6039 6.83261 18.5917 6.83208 18.5789C6.83234 18.5786 6.83341 18.5794 6.83341 18.5791C6.83368 18.5917 6.83341 18.6039 6.83341 18.6167ZM6.75244 18.503C6.75564 18.4936 6.75857 18.4846 6.7615 18.4755C6.75004 18.4753 6.73806 18.4753 6.72634 18.4753C6.72607 18.4753 6.72421 18.475 6.72421 18.475C6.73353 18.4851 6.74312 18.4947 6.75297 18.5051L6.75244 18.503ZM6.5106 18.1804C6.51246 18.1815 6.51433 18.182 6.51619 18.1826C6.51486 18.1826 6.51326 18.1823 6.51166 18.182L6.5106 18.1804ZM6.50927 18.1397C6.5098 18.1533 6.51033 18.1668 6.5106 18.1804L6.51166 18.182C6.51086 18.1676 6.51033 18.1543 6.50927 18.1397ZM6.94847 24.1828C6.9538 24.1748 6.95939 24.1663 6.96445 24.1578C6.96445 24.1575 6.96206 24.1549 6.96206 24.1546C6.95753 24.1631 6.95273 24.1724 6.94821 24.1815C6.94821 24.1818 6.94847 24.1828 6.94847 24.1828ZM5.99841 17.9546C5.99681 17.9548 5.99495 17.9554 5.99282 17.9559C5.99415 17.9548 5.99521 17.9538 5.99628 17.9524C5.99655 17.9524 5.99841 17.9546 5.99841 17.9546ZM6.97777 24.1282C6.99375 24.1272 7.01026 24.1264 7.02651 24.1253C7.00973 24.1256 6.99215 24.1253 6.97537 24.1256C6.97537 24.1256 6.97777 24.128 6.97777 24.1282ZM6.42856 18.0574V18.0789C6.41471 18.0718 6.4006 18.0648 6.38675 18.0576C6.4006 18.0574 6.41471 18.0574 6.42856 18.0574ZM7.07765 24.0861C7.0614 24.0845 7.04516 24.0837 7.02891 24.0827C7.02944 24.0827 7.03077 24.0851 7.03104 24.0853C7.04649 24.0864 7.06167 24.0872 7.07712 24.0885C7.07712 24.0885 7.07765 24.0869 7.07765 24.0861ZM6.94847 24.1828C6.93249 24.1844 6.91598 24.1855 6.89973 24.1868L6.90133 24.189C6.91704 24.1868 6.93276 24.1847 6.94847 24.1828ZM7.3669 19.0975C7.36238 19.0911 7.35758 19.0841 7.35279 19.0775L7.35172 19.0761C7.35705 19.0833 7.36184 19.0905 7.3669 19.0975ZM7.48356 19.2386C7.48197 19.2264 7.47957 19.2144 7.4777 19.2024L7.47584 19.2043C7.47744 19.216 7.47904 19.228 7.4809 19.2397C7.48117 19.2397 7.48303 19.2386 7.48356 19.2386ZM8.10495 20.2824C8.10815 20.2989 8.11161 20.3157 8.11454 20.3328C8.11427 20.333 8.11614 20.3306 8.11587 20.3312C8.11268 20.3147 8.10975 20.2974 8.10682 20.2803L8.10495 20.2824ZM8.11454 20.3328C8.12093 20.345 8.12679 20.3578 8.13292 20.3706C8.13265 20.3711 8.13478 20.3685 8.13452 20.3687C8.12786 20.3565 8.12173 20.344 8.11587 20.3312C8.11614 20.3306 8.11427 20.333 8.11454 20.3328ZM8.1489 20.4143C8.14384 20.3991 8.13905 20.3844 8.13452 20.3687C8.13478 20.3685 8.13265 20.3711 8.13292 20.3706C8.13825 20.3847 8.14331 20.3996 8.1489 20.4143ZM8.1489 20.4143C8.15796 20.4244 8.16701 20.4345 8.17607 20.4449L8.1782 20.4422C8.16834 20.4332 8.15875 20.4236 8.1489 20.4143ZM8.17607 20.4449C8.18273 20.4569 8.18965 20.4686 8.19578 20.4806L8.19844 20.4785C8.19152 20.4667 8.18459 20.4548 8.1782 20.4422L8.17607 20.4449ZM8.16168 20.5445C8.15875 20.5389 8.15609 20.5333 8.15316 20.5275C8.14837 20.5331 8.14357 20.5389 8.13878 20.544C8.1457 20.5435 8.1529 20.5429 8.15982 20.5421C8.15982 20.5421 8.16195 20.5451 8.16168 20.5445ZM8.28074 20.5413C8.28873 20.5512 8.29592 20.5602 8.30391 20.5696C8.29699 20.561 8.29033 20.5522 8.2834 20.5435C8.2834 20.5435 8.28048 20.5411 8.28074 20.5413ZM8.24665 20.6425C8.24825 20.6401 8.25064 20.6377 8.25064 20.6351C8.25091 20.6329 8.24798 20.6308 8.24665 20.6292C8.24718 20.6337 8.24771 20.6383 8.24825 20.6425C8.24825 20.6428 8.24665 20.6425 8.24665 20.6425ZM8.24825 20.6425C8.25038 20.6449 8.25251 20.6476 8.25464 20.6497C8.25517 20.6473 8.25571 20.6449 8.2565 20.6425H8.24665C8.24665 20.6425 8.24825 20.6428 8.24825 20.6425ZM6.73326 24.3013C6.7298 24.3064 6.72794 24.312 6.72767 24.3179C6.71595 24.3195 6.70397 24.3211 6.69225 24.3232C6.70583 24.3155 6.71968 24.3085 6.73326 24.3013ZM8.28314 20.8234C8.28074 20.8282 8.27808 20.8324 8.27595 20.8375C8.27888 20.837 8.28207 20.8367 8.28527 20.8364C8.28367 20.8319 8.28234 20.8276 8.28101 20.8229L8.28314 20.8234ZM8.41871 20.7451C8.41844 20.7512 8.41791 20.7568 8.41791 20.7629C8.41791 20.7688 8.41871 20.7749 8.41924 20.7808C8.41764 20.7746 8.41445 20.7685 8.41445 20.7627C8.41445 20.7568 8.41685 20.7512 8.41871 20.7451ZM8.35026 20.7235C8.34839 20.7286 8.346 20.7336 8.34413 20.7387C8.33987 20.7355 8.33268 20.7331 8.33161 20.7294C8.33055 20.7251 8.33508 20.7192 8.33721 20.7142C8.34147 20.7171 8.346 20.7203 8.35026 20.7235ZM7.0353 18.6873C7.03583 18.6939 7.03637 18.7006 7.0369 18.707C7.03024 18.6934 7.02358 18.6798 7.01692 18.6662C7.02305 18.6734 7.02917 18.6804 7.0353 18.6873ZM6.42563 18.0765H6.44721C6.45386 18.0899 6.46026 18.1034 6.46692 18.117C6.45307 18.1034 6.43948 18.0899 6.42563 18.0765ZM6.46345 18.1144C6.47704 18.1144 6.49062 18.1144 6.50447 18.1141C6.50607 18.1224 6.50767 18.1311 6.50927 18.1397C6.49408 18.1317 6.47864 18.1226 6.46345 18.1144ZM8.41871 20.7451C8.40965 20.74 8.4006 20.7336 8.39154 20.7283C8.39714 20.7296 8.40353 20.7299 8.40779 20.7326C8.41232 20.7355 8.41525 20.7408 8.41871 20.7451ZM7.54642 19.3207C7.5355 19.3017 7.52485 19.2826 7.51419 19.2634C7.51419 19.2634 7.51313 19.2655 7.5126 19.2653C7.52298 19.2844 7.5339 19.3036 7.54429 19.3228C7.54429 19.3233 7.54642 19.3207 7.54642 19.3207ZM6.50474 24.4151C6.49755 24.4281 6.49062 24.4414 6.4837 24.4542C6.47171 24.4561 6.46026 24.458 6.44854 24.4596C6.44854 24.4596 6.45067 24.463 6.4512 24.4633C6.46905 24.447 6.48689 24.4316 6.50474 24.4151ZM7.05208 18.7097C7.05821 18.7158 7.0638 18.7219 7.06993 18.7283C7.05821 18.7206 7.04649 18.7126 7.03477 18.7046C7.03983 18.7094 7.04542 18.7107 7.05208 18.7097ZM7.96698 20.0749C8.00481 20.0963 8.0104 20.1274 7.99655 20.1652C7.98749 20.1346 7.97817 20.1037 7.96911 20.0734L7.96698 20.0749ZM6.44854 24.4596C6.41817 24.4675 6.38808 24.4753 6.35771 24.4827C6.38888 24.4758 6.42004 24.4697 6.4512 24.4633C6.45067 24.463 6.44854 24.4596 6.44854 24.4596ZM4.69357 24.988C4.6989 24.9928 4.70263 24.9957 4.70609 24.9994C4.70077 25.001 4.69544 25.0042 4.68985 25.0042C4.68478 25.0042 4.67972 25.001 4.6744 24.9986C4.68132 24.9952 4.68771 24.9912 4.69357 24.988ZM6.35771 24.4827C6.33987 24.503 6.32176 24.5232 6.30391 24.5435L6.30471 24.5453C6.28846 24.4955 6.34759 24.5096 6.35771 24.4827ZM8.46266 20.9699C8.47012 20.9699 8.47757 20.9696 8.48476 20.9696C8.48343 20.9787 8.48237 20.9875 8.48104 20.9965C8.4797 21.0053 8.47811 21.0138 8.47651 21.0229C8.47305 21.0141 8.46905 21.0058 8.46665 20.9965C8.46426 20.9877 8.46372 20.9787 8.46266 20.9699ZM5.09523 25.0194C5.09603 25.0165 5.09656 25.013 5.09709 25.013C5.10615 25.0128 5.1152 25.013 5.12399 25.013C5.12346 25.0152 5.12266 25.0192 5.12186 25.0192C5.11307 25.0197 5.10428 25.0194 5.09523 25.0194ZM4.67866 25.0407C4.67307 25.0394 4.66747 25.0378 4.66188 25.0365C4.66907 25.0343 4.67626 25.0303 4.68372 25.0298C4.68718 25.0293 4.69118 25.0346 4.69517 25.0367C4.68958 25.0381 4.68425 25.0394 4.67866 25.0407ZM8.55188 21.2626C8.54842 21.2543 8.54496 21.2498 8.54523 21.2447C8.54629 21.2357 8.54949 21.2269 8.55162 21.2176C8.55295 21.2229 8.55535 21.2288 8.55535 21.2341C8.55535 21.2426 8.55348 21.2509 8.55188 21.2626ZM8.19578 20.4806C8.21016 20.4979 8.22428 20.5152 8.23839 20.5323C8.232 20.5355 8.22587 20.5389 8.21975 20.5421C8.21256 20.5208 8.20537 20.4998 8.19844 20.4785L8.19578 20.4806ZM5.03983 24.9773C5.05234 24.9773 5.05874 24.9768 5.0646 24.9773C5.07046 24.9779 5.07605 24.9797 5.08164 24.9803C5.07552 24.9803 5.06912 24.9808 5.063 24.9805C5.05741 24.9803 5.05181 24.9792 5.03983 24.9773ZM5.74831 24.7749C5.73153 24.7805 5.71502 24.7861 5.6985 24.7917C5.69797 24.7869 5.69584 24.7786 5.69664 24.7786C5.71262 24.7731 5.72887 24.7688 5.74538 24.7643C5.74591 24.7683 5.74698 24.7715 5.74831 24.7749ZM7.91398 19.9631C7.93129 20.0006 7.94941 20.0377 7.96698 20.0749L7.96911 20.0734C7.95154 20.0355 7.93396 19.9982 7.91611 19.9612C7.91611 19.9612 7.91425 19.9631 7.91398 19.9631ZM6.72634 18.4753C6.66321 18.4755 6.65362 18.4385 6.66534 18.3871C6.68505 18.4164 6.70423 18.4454 6.72421 18.475C6.72421 18.475 6.72607 18.4753 6.72634 18.4753ZM6.83341 18.5791C6.79292 18.5685 6.7599 18.548 6.75244 18.503L6.75297 18.5051C6.77987 18.5299 6.80678 18.5544 6.83341 18.5791ZM8.46559 20.8942C8.46532 20.9203 8.46532 20.947 8.46505 20.9733C8.4544 20.948 8.44268 20.9227 8.43389 20.8966C8.43203 20.8921 8.44055 20.8836 8.44428 20.8767C8.45147 20.8825 8.4584 20.8884 8.46559 20.8942ZM6.88481 24.227C6.87842 24.2337 6.8723 24.2404 6.8659 24.247C6.85312 24.2534 6.84033 24.2598 6.82755 24.2659C6.81397 24.2659 6.80038 24.2659 6.7868 24.2662C6.82489 24.2404 6.86324 24.2143 6.90133 24.189L6.89973 24.1868C6.89467 24.2004 6.88934 24.2137 6.88481 24.227ZM8.57026 21.3769V21.448H8.56627V21.3782C8.5676 21.3777 8.5692 21.3774 8.57026 21.3769ZM8.28101 20.8229C8.22241 20.8005 8.24558 20.7384 8.21016 20.7046C8.21735 20.7014 8.22428 20.6982 8.2312 20.695C8.24851 20.7376 8.26583 20.7805 8.28314 20.8234L8.28101 20.8229ZM7.99655 20.1652C8.06979 20.1698 8.07912 20.234 8.10495 20.2824L8.10682 20.2803C8.08631 20.267 8.0618 20.2574 8.04556 20.2398C8.02558 20.2182 8.01253 20.1905 7.99655 20.1652ZM7.54429 19.3228C7.64177 19.3846 7.7057 19.5074 7.68838 19.5974C7.67107 19.5553 7.65669 19.5122 7.63565 19.4725C7.60848 19.4203 7.57652 19.371 7.54642 19.3207C7.54642 19.3207 7.54429 19.3233 7.54429 19.3228ZM7.88309 19.9487C7.81836 19.8315 7.75284 19.7146 7.68838 19.5974C7.70623 19.6024 7.73446 19.6022 7.74086 19.6136C7.78933 19.7042 7.83488 19.7961 7.87829 19.8888C7.88628 19.9061 7.87936 19.9298 7.87989 19.9498C7.88042 19.9498 7.88255 19.9487 7.88309 19.9487ZM1.07631 24.5491C1.0835 24.5488 1.09043 24.5485 1.09815 24.5485C1.09788 24.5562 1.09788 24.5632 1.09762 24.5704H1.07604C1.07631 24.5634 1.07631 24.5562 1.07631 24.5491ZM1.09442 24.5688C1.10215 24.5682 1.1096 24.5682 1.11733 24.5677C1.11679 24.5749 1.11653 24.5823 1.116 24.5898C1.1088 24.5823 1.10161 24.5754 1.09442 24.5688ZM0.382475 23.509C0.38434 23.5092 0.386204 23.5098 0.387802 23.51C0.386736 23.5106 0.385671 23.5108 0.384606 23.5114C0.384606 23.5116 0.382475 23.509 0.382475 23.509ZM6.88295 24.2249C6.87629 24.2316 6.86963 24.238 6.86298 24.2446L6.8659 24.247C6.8723 24.2404 6.87842 24.2337 6.88481 24.227L6.88295 24.2249ZM8.0096 19.8483C8.0072 19.8475 8.00427 19.8464 8.00214 19.8456C8.00374 19.8472 8.00534 19.8491 8.00694 19.8507L8.0096 19.8483ZM7.96352 19.7929C7.96379 19.7948 7.96405 19.7963 7.96432 19.7982C7.96432 19.7971 7.96405 19.7961 7.96405 19.7953C7.96405 19.7956 7.96352 19.7929 7.96352 19.7929ZM7.82848 19.2325C7.83008 19.2336 7.83141 19.2346 7.83301 19.2354C7.83221 19.2341 7.83141 19.2328 7.83061 19.2314C7.82982 19.233 7.82848 19.2349 7.82768 19.236L7.82848 19.2325ZM7.74751 19.1662C7.7595 19.1726 7.77122 19.1787 7.78347 19.1848C7.78374 19.1851 7.78613 19.1824 7.7864 19.1824C7.77442 19.1768 7.76296 19.171 7.75098 19.1651C7.74991 19.1656 7.74751 19.1662 7.74751 19.1662ZM7.79785 19.13C7.79173 19.1297 7.7856 19.1294 7.77948 19.1294L7.77788 19.126H7.79972L7.79785 19.13ZM7.77948 19.1294C7.77202 19.1273 7.76536 19.1249 7.7579 19.1228L7.76083 19.1262V19.1044L7.75817 19.1068C7.76483 19.1132 7.77122 19.1196 7.77788 19.126L7.77948 19.1294ZM7.68306 19.0285C7.67693 19.0285 7.67081 19.0287 7.66468 19.0287L7.66308 19.0309C7.67054 19.0311 7.67747 19.0311 7.68492 19.0314L7.68306 19.0285ZM8.08578 18.9997C8.08391 19.0008 8.08231 19.0018 8.08072 19.0026C8.08125 19.0013 8.08205 19 8.08258 18.9986C8.08205 18.9984 8.08578 18.9997 8.08578 18.9997ZM7.46279 18.9542L7.47105 18.9552C7.47105 18.9552 7.46545 18.956 7.46519 18.956C7.46465 18.956 7.46279 18.9542 7.46279 18.9542ZM7.46092 18.9203C7.46146 18.9315 7.46199 18.9427 7.46279 18.9542C7.46279 18.9542 7.46465 18.956 7.46519 18.956C7.46359 18.944 7.46119 18.9321 7.45959 18.9201C7.45959 18.9198 7.46092 18.9203 7.46092 18.9203ZM7.62526 18.9302C7.63219 18.9299 7.63884 18.9297 7.64577 18.9294L7.64683 18.9329H7.62446L7.62526 18.9302ZM7.45959 18.9201C7.45799 18.9206 7.45613 18.9209 7.45453 18.9211C7.45666 18.9209 7.45879 18.9203 7.46092 18.9203C7.46092 18.9203 7.45959 18.9198 7.45959 18.9201ZM7.55601 18.907C7.56826 18.9086 7.58051 18.9102 7.59277 18.9118C7.59303 18.9115 7.59543 18.9094 7.5957 18.9091C7.58318 18.9078 7.57013 18.9067 7.55708 18.906C7.55654 18.906 7.55601 18.907 7.55601 18.907ZM7.62633 18.8822C7.6202 18.8822 7.61407 18.8817 7.60795 18.8814C7.60795 18.8817 7.60608 18.8783 7.60608 18.8783H7.62846L7.62633 18.8822ZM7.60795 18.8814C7.60688 18.8732 7.60582 18.8649 7.60449 18.8567C7.60422 18.8569 7.60608 18.8561 7.60608 18.8561V18.8783C7.60608 18.8783 7.60795 18.8817 7.60795 18.8814ZM7.56453 18.8543C7.55281 18.8476 7.5411 18.8407 7.52964 18.8335C7.52938 18.8332 7.52725 18.8356 7.52725 18.8356C7.53843 18.842 7.55015 18.8484 7.5624 18.8543C7.56294 18.854 7.56453 18.8543 7.56453 18.8543ZM7.52964 18.8335C7.52005 18.8306 7.51047 18.8271 7.50034 18.8236C7.49954 18.8239 7.49821 18.8231 7.49768 18.8231C7.50727 18.8276 7.51712 18.8316 7.52725 18.8356C7.52725 18.8356 7.52938 18.8332 7.52964 18.8335ZM7.44974 18.7427C7.45986 18.7491 7.46998 18.756 7.47984 18.7632C7.4801 18.7632 7.48303 18.7608 7.4833 18.7608C7.47318 18.7539 7.46279 18.7467 7.4524 18.7397L7.44974 18.7427ZM7.42683 18.7222C7.43456 18.7288 7.44228 18.7358 7.44974 18.7427L7.4524 18.7397C7.44441 18.7334 7.43642 18.7272 7.42843 18.7206C7.42816 18.7206 7.42683 18.7222 7.42683 18.7222ZM7.48117 18.707C7.4833 18.7086 7.48543 18.7097 7.48783 18.7115C7.48543 18.7113 7.48356 18.711 7.48143 18.7107C7.48117 18.711 7.48117 18.707 7.48117 18.707ZM7.4279 25.1273C7.42603 25.1281 7.4239 25.1286 7.42204 25.1294C7.4231 25.1284 7.42417 25.1273 7.42523 25.126C7.42523 25.1254 7.4279 25.1273 7.4279 25.1273ZM7.41405 18.6985C7.41831 18.7065 7.42257 18.7144 7.42683 18.7222C7.42683 18.7222 7.42816 18.7206 7.42843 18.7206C7.42364 18.7123 7.41884 18.7046 7.41405 18.6963V18.6985ZM7.05608 18.7051C7.06247 18.7113 7.06913 18.7174 7.07525 18.7238L7.06993 18.7283C7.0638 18.7219 7.05821 18.7158 7.05208 18.7097L7.05608 18.7051ZM7.03956 18.6833C7.04516 18.6907 7.05048 18.6977 7.05608 18.7051L7.05208 18.7097C7.04542 18.7107 7.03983 18.7094 7.03477 18.7046L7.0369 18.707C7.03637 18.7006 7.03583 18.6939 7.0353 18.6873L7.03956 18.6833ZM7.01692 18.6678C7.02438 18.6729 7.03211 18.678 7.03956 18.6833L7.0353 18.6873C7.02917 18.6804 7.02305 18.6734 7.01692 18.6662V18.6678ZM7.37143 18.6463C7.38235 18.6543 7.39354 18.663 7.40499 18.6716C7.40526 18.6716 7.40712 18.67 7.40712 18.67C7.3962 18.6614 7.38475 18.6529 7.37356 18.6444C7.3733 18.6441 7.37143 18.6463 7.37143 18.6463ZM7.37356 18.6444C7.36824 18.6383 7.36291 18.6316 7.35731 18.6244C7.35731 18.6244 7.35492 18.6271 7.35492 18.6268C7.36051 18.6329 7.36584 18.6396 7.37143 18.6463C7.37143 18.6463 7.3733 18.6441 7.37356 18.6444ZM7.35731 18.6244C7.34826 18.6207 7.3392 18.6172 7.32935 18.6135C7.32882 18.6135 7.32748 18.6124 7.32722 18.6124C7.33627 18.6175 7.3456 18.622 7.35492 18.6268C7.35492 18.6271 7.35731 18.6244 7.35731 18.6244ZM7.32935 18.6135C7.33068 18.6122 7.33148 18.6106 7.33281 18.6098C7.33095 18.6103 7.32882 18.6114 7.32722 18.6124C7.32748 18.6124 7.32882 18.6135 7.32935 18.6135ZM7.78187 18.5898C7.77415 18.5847 7.76616 18.5789 7.7587 18.5741L7.76243 18.5701C7.76802 18.5773 7.77388 18.5847 7.77948 18.5917L7.78187 18.5898ZM7.18073 18.5605C7.1786 18.561 7.17673 18.561 7.1746 18.5616L7.18073 18.5605ZM7.26276 18.5142C7.26463 18.5152 7.26676 18.5163 7.26862 18.5176C7.26756 18.5168 7.26649 18.516 7.26516 18.5155L7.26276 18.5142ZM7.10029 18.5259C7.10242 18.5259 7.10455 18.5256 7.10668 18.5253C7.10535 18.5259 7.10375 18.5267 7.10242 18.5277L7.10029 18.5259ZM7.69238 18.4992C7.7033 18.5046 7.71369 18.5102 7.72461 18.5155C7.72488 18.5155 7.72727 18.5136 7.72727 18.5134C7.71688 18.508 7.70623 18.5027 7.69558 18.4974C7.69531 18.4974 7.69238 18.4992 7.69238 18.4992ZM7.26516 18.5155C7.25744 18.5067 7.24971 18.4976 7.24172 18.4886C7.24172 18.4886 7.23986 18.4899 7.23959 18.4897C7.24731 18.4976 7.25504 18.5059 7.26276 18.5142L7.26516 18.5155ZM7.69558 18.4974C7.69211 18.4873 7.68839 18.4771 7.68519 18.4673C7.68519 18.467 7.68652 18.4689 7.68679 18.4689C7.68865 18.4787 7.69052 18.4891 7.69238 18.4992C7.69238 18.4992 7.69531 18.4974 7.69558 18.4974ZM7.22201 18.4726C7.22787 18.4782 7.23373 18.4841 7.23959 18.4897C7.23986 18.4899 7.24172 18.4886 7.24172 18.4886C7.23559 18.4827 7.22973 18.4769 7.22387 18.4713C7.22361 18.4713 7.22201 18.4726 7.22201 18.4726ZM7.22387 18.4713C7.21881 18.4649 7.21322 18.4588 7.20789 18.4524C7.20789 18.4524 7.20576 18.4548 7.20576 18.4545C7.21109 18.4606 7.21668 18.4667 7.22201 18.4726C7.22201 18.4726 7.22361 18.4713 7.22387 18.4713ZM7.17886 18.4428C7.18792 18.4468 7.19671 18.4505 7.20576 18.4545C7.20576 18.4548 7.20789 18.4524 7.20789 18.4524C7.19937 18.4484 7.19085 18.4444 7.18206 18.4409C7.18179 18.4412 7.17886 18.4428 7.17886 18.4428ZM7.18206 18.4409C7.17966 18.4305 7.17726 18.4207 7.17513 18.4097C7.1754 18.4095 7.17407 18.4116 7.17433 18.4111C7.17593 18.4215 7.17753 18.4321 7.17886 18.4428C7.17886 18.4428 7.18179 18.4412 7.18206 18.4409ZM7.13758 18.4089C7.14983 18.4097 7.16235 18.41 7.17433 18.4111C7.17407 18.4116 7.1754 18.4095 7.17513 18.4097C7.16261 18.4097 7.15036 18.4092 7.13758 18.4089ZM7.13758 18.4089C7.13518 18.3991 7.13252 18.3895 7.12985 18.3797L7.12772 18.3812C7.13119 18.3903 7.13438 18.3996 7.13758 18.4089ZM7.60422 18.3855C7.59809 18.3786 7.59223 18.3722 7.58637 18.3653L7.59223 18.3589C7.59809 18.3658 7.60369 18.373 7.60955 18.3799L7.60422 18.3855ZM7.12985 18.3797C7.12772 18.3788 7.12506 18.3783 7.12346 18.3767C7.1224 18.3762 7.12346 18.3735 7.12373 18.3714C7.12506 18.3751 7.12639 18.3778 7.12772 18.3812L7.12985 18.3797ZM7.5688 18.3448C7.57679 18.3496 7.58451 18.3543 7.59223 18.3589L7.58637 18.3653C7.58078 18.3578 7.57545 18.3509 7.56986 18.3434L7.5688 18.3448ZM5.87909 25.0162C5.87855 25.0146 5.87829 25.013 5.87776 25.012C5.87909 25.0122 5.87989 25.0125 5.88069 25.013L5.87909 25.0162ZM7.16901 18.3496C7.16501 18.3448 7.16102 18.34 7.15729 18.3352C7.15542 18.3397 7.15356 18.3445 7.15196 18.3493L7.1493 18.3453H7.1714L7.16901 18.3496ZM7.56986 18.3434C7.56347 18.337 7.55708 18.3309 7.55095 18.3242L7.54935 18.3258C7.55601 18.3322 7.5624 18.3384 7.5688 18.3448L7.56986 18.3434ZM7.15196 18.3493C7.14504 18.3408 7.13811 18.3322 7.13119 18.3232L7.13012 18.3264H7.15249L7.1493 18.3229V18.3453L7.15196 18.3493ZM7.52991 18.3069C7.5363 18.3133 7.54296 18.3197 7.54935 18.3258L7.55095 18.3242C7.54429 18.3179 7.53816 18.3115 7.53177 18.3051L7.52991 18.3069ZM7.13119 18.3232C7.11973 18.3197 7.10881 18.316 7.09709 18.3125C7.10935 18.3107 7.12186 18.3088 7.13412 18.3064L7.13012 18.304V18.3264L7.13119 18.3232ZM7.50594 18.2894C7.51393 18.2952 7.52192 18.3011 7.52991 18.3069L7.53177 18.3051C7.52432 18.2992 7.51632 18.2931 7.5086 18.2875L7.50594 18.2894ZM7.5086 18.2875C7.50168 18.2819 7.49448 18.2766 7.48729 18.2712C7.48703 18.2712 7.4841 18.2731 7.48383 18.2731C7.49102 18.2787 7.49848 18.284 7.50594 18.2894L7.5086 18.2875ZM7.10082 18.2728C7.09177 18.2776 7.08165 18.2822 7.07259 18.2867L7.07552 18.2888V18.2664L7.07259 18.2686C7.08218 18.2699 7.0915 18.2715 7.10082 18.2728ZM7.48729 18.2712L7.47264 18.2486L7.47051 18.2505C7.47477 18.2579 7.47904 18.2657 7.48383 18.2731C7.4841 18.2731 7.48703 18.2712 7.48729 18.2712ZM7.05368 18.2497C7.06007 18.2561 7.06646 18.2622 7.07259 18.2686L7.07552 18.2664H7.05341L7.05661 18.2691C7.05661 18.2619 7.05661 18.2545 7.05634 18.2475L7.05368 18.2497ZM7.03157 18.2678C7.0337 18.2633 7.0369 18.259 7.03823 18.2545C7.0385 18.2534 7.03397 18.2507 7.03157 18.2486L7.03477 18.2475V18.2691L7.03157 18.2678ZM7.03157 18.2486C7.03637 18.2396 7.04116 18.2302 7.04596 18.2206C7.04622 18.2204 7.04409 18.222 7.04462 18.2214C7.04809 18.2308 7.05075 18.2401 7.05368 18.2497L7.05634 18.2475H7.03477L7.03157 18.2486ZM7.52725 18.2334C7.52245 18.226 7.51766 18.2182 7.5126 18.21C7.51313 18.21 7.51153 18.211 7.51153 18.211C7.51979 18.2158 7.52804 18.2204 7.53603 18.2246C7.53337 18.2278 7.53017 18.2308 7.52725 18.2334ZM7.04596 18.2206C7.04542 18.2185 7.04516 18.2158 7.04462 18.2137C7.04276 18.215 7.04116 18.2164 7.0393 18.2174C7.04116 18.2188 7.04302 18.2201 7.04462 18.2214C7.04409 18.222 7.04622 18.2204 7.04596 18.2206ZM6.98363 18.2063C6.98709 18.2118 6.99056 18.2177 6.99375 18.2236C6.98842 18.2201 6.98283 18.2164 6.97724 18.2129L6.98363 18.2063ZM1.1144 24.5877H1.1365C1.12931 24.5946 1.12186 24.6018 1.11466 24.609C1.11466 24.6018 1.1144 24.5946 1.1144 24.5877ZM6.91385 18.1514C6.92557 18.1591 6.93729 18.1674 6.949 18.1762C6.94954 18.1762 6.9514 18.1751 6.95167 18.1754C6.93968 18.1666 6.9277 18.1583 6.91544 18.1501C6.91518 18.1498 6.91385 18.1514 6.91385 18.1514ZM1.1959 24.5946C1.19936 24.609 1.20309 24.6231 1.20655 24.6375C1.20655 24.6377 1.20709 24.6356 1.20682 24.6356C1.20283 24.6223 1.1991 24.6079 1.19563 24.5933C1.19563 24.5927 1.1959 24.5946 1.1959 24.5946ZM1.23958 24.642C1.22866 24.6401 1.21747 24.638 1.20682 24.6356C1.20709 24.6356 1.20655 24.6377 1.20655 24.6375C1.21641 24.6399 1.22626 24.642 1.23638 24.6436C1.23692 24.6436 1.23958 24.642 1.23958 24.642ZM1.36104 24.7709C1.3629 24.7699 1.36476 24.7688 1.36663 24.7675C1.36556 24.7688 1.36503 24.7704 1.36423 24.772C1.3645 24.7723 1.36104 24.7709 1.36104 24.7709ZM1.36423 24.772C1.35864 24.7571 1.35305 24.7419 1.34719 24.7267C1.34745 24.7264 1.34905 24.7267 1.34905 24.7264C1.35331 24.7411 1.35704 24.7563 1.36104 24.7709C1.36104 24.7709 1.3645 24.7723 1.36423 24.772ZM6.42563 18.059C6.43229 18.0659 6.43895 18.0723 6.44508 18.0787L6.44721 18.0765H6.42563L6.42856 18.0789V18.0574L6.42563 18.059ZM5.91318 17.6088C5.91345 17.611 5.91371 17.6123 5.91371 17.6139C5.91238 17.612 5.91132 17.6102 5.90972 17.6083C5.90945 17.6083 5.91318 17.6088 5.91318 17.6088ZM1.3107 24.7283C1.32348 24.7275 1.33653 24.727 1.34905 24.7264C1.34905 24.7267 1.34745 24.7264 1.34719 24.7267C1.3352 24.7275 1.32295 24.7275 1.3107 24.7283ZM5.95979 17.628C5.95846 17.6296 5.95739 17.6309 5.95633 17.6325C5.95686 17.6307 5.95793 17.6291 5.95846 17.6272L5.95979 17.628ZM6.96099 17.6389C6.96339 17.6424 6.96578 17.6456 6.96845 17.6491C6.96445 17.6469 6.96072 17.6451 6.957 17.6432L6.96099 17.6389ZM6.75164 17.9623C6.7591 17.9673 6.76629 17.9729 6.77375 17.978C6.77082 17.9812 6.76762 17.9844 6.76469 17.9876C6.75857 17.9809 6.75244 17.9743 6.74631 17.9673L6.75164 17.9623ZM3.04994 24.6942C3.05208 24.6934 3.05394 24.6921 3.05607 24.6913C3.055 24.6926 3.05367 24.6942 3.05261 24.6958C3.05261 24.6961 3.04994 24.6942 3.04994 24.6942ZM1.31176 24.69C1.29978 24.6564 1.28965 24.6809 1.279 24.6908C1.279 24.691 1.27714 24.6897 1.27687 24.6897C1.28886 24.6902 1.30004 24.69 1.31176 24.69ZM6.57425 17.9522C6.57585 17.9514 6.57745 17.9508 6.57905 17.95C6.57852 17.9511 6.57825 17.9524 6.57798 17.9538C6.57825 17.9538 6.57425 17.9522 6.57425 17.9522ZM3.05261 24.6958C3.05181 24.6806 3.05101 24.6662 3.04994 24.6511C3.04968 24.6654 3.05021 24.6798 3.04994 24.6942C3.04994 24.6942 3.05261 24.6961 3.05261 24.6958ZM6.56493 17.9109C6.56786 17.9245 6.57106 17.9383 6.57425 17.9522C6.57425 17.9522 6.57825 17.9538 6.57798 17.9538C6.57266 17.9396 6.56813 17.9253 6.56333 17.9109H6.56493ZM7.02997 17.7644L7.02491 17.766L7.02545 17.7612L7.02997 17.7644ZM6.56333 17.9109C6.562 17.9117 6.56094 17.9125 6.55987 17.9133C6.56147 17.9125 6.56307 17.9117 6.56493 17.9109H6.56333ZM5.38901 17.9122C5.39087 17.9125 5.393 17.913 5.39487 17.9138C5.39354 17.9138 5.3922 17.9143 5.39087 17.9149L5.38901 17.9122ZM5.39087 17.9149C5.39247 17.9143 5.39407 17.9133 5.39567 17.9125C5.39354 17.9122 5.3914 17.9122 5.38901 17.9122L5.39087 17.9149ZM5.51526 17.8571C5.51366 17.8549 5.51233 17.8531 5.511 17.851C5.51206 17.8539 5.51286 17.856 5.51419 17.8589L5.51526 17.8571ZM1.23638 24.6436C1.23825 24.6548 1.24065 24.6662 1.24278 24.6774C1.24198 24.6657 1.24038 24.6537 1.23958 24.642C1.23958 24.642 1.23692 24.6436 1.23638 24.6436ZM5.93023 17.889C5.91824 17.8818 5.90625 17.8749 5.89454 17.8672L5.89294 17.8693C5.90705 17.8739 5.92117 17.8786 5.93529 17.8832L5.93023 17.889ZM5.89454 17.8672C5.88894 17.8661 5.88308 17.8653 5.87749 17.864C5.88015 17.8608 5.88282 17.8579 5.88548 17.8549C5.88788 17.8595 5.89027 17.8648 5.89294 17.8693L5.89454 17.8672ZM5.58477 17.8211H5.57732C5.57945 17.8206 5.58158 17.82 5.58371 17.8195C5.58371 17.8193 5.58477 17.8211 5.58477 17.8211ZM1.24278 24.6774C1.25423 24.6812 1.26542 24.6857 1.27687 24.6897C1.27714 24.6897 1.279 24.691 1.279 24.6908C1.26648 24.6862 1.25503 24.6822 1.24278 24.6774ZM6.1758 17.9332C6.17127 17.9327 6.16674 17.9327 6.16221 17.9327C6.16248 17.9351 6.16301 17.9372 6.16328 17.9402C6.16754 17.9367 6.171 17.9338 6.17473 17.9309C6.17473 17.9306 6.1758 17.9332 6.1758 17.9332ZM6.39953 17.6869C6.38222 17.6847 6.36464 17.6826 6.34706 17.6808C6.34679 17.681 6.34466 17.6832 6.3444 17.6834C6.36171 17.6858 6.37929 17.6874 6.39793 17.6887C6.39793 17.6885 6.39953 17.6869 6.39953 17.6869ZM5.90972 17.6083C5.9265 17.6147 5.94301 17.6216 5.95979 17.628L5.95846 17.6272C5.95473 17.6147 5.951 17.6022 5.94727 17.5897C5.93609 17.5963 5.92463 17.6024 5.91318 17.6088C5.91318 17.6088 5.90945 17.6083 5.90972 17.6083ZM6.19364 17.5742C6.19018 17.571 6.18672 17.5681 6.18299 17.5649C6.18246 17.5697 6.18219 17.5742 6.18166 17.579C6.18539 17.5766 6.18938 17.5745 6.19284 17.5721L6.19364 17.5742ZM4.90505 26.0419L4.91012 26.0451L4.90399 26.047L4.90505 26.0419ZM7.41405 18.6963C7.41192 18.6875 7.40952 18.6788 7.40712 18.67C7.40712 18.67 7.40526 18.6716 7.40499 18.6716C7.40792 18.6806 7.41112 18.6897 7.41405 18.6985V18.6963ZM7.55708 18.906C7.56 18.8886 7.56187 18.8719 7.56453 18.8543C7.56453 18.8543 7.56294 18.854 7.5624 18.8543C7.56001 18.8721 7.55814 18.8894 7.55601 18.907C7.55601 18.907 7.55654 18.906 7.55708 18.906ZM7.64577 18.9294C7.65269 18.9313 7.65962 18.9334 7.66654 18.9355C7.66681 18.9355 7.66308 18.9323 7.66308 18.9323C7.66415 18.9462 7.66495 18.96 7.66601 18.9739C7.65855 18.9731 7.65136 18.972 7.64391 18.9715L7.64604 18.9744C7.6463 18.9603 7.64657 18.9467 7.64683 18.9329L7.64577 18.9294ZM8.08258 18.9986C8.08711 19.0029 8.09084 19.0072 8.0951 19.0114C8.09643 19.0074 8.09803 19.0032 8.09963 18.9989C8.09483 18.9992 8.0903 18.9994 8.08578 18.9997C8.08578 18.9997 8.08205 18.9984 8.08258 18.9986ZM0.384606 23.5114C0.38354 23.4911 0.382208 23.4706 0.381143 23.4504C0.381676 23.4701 0.381942 23.4895 0.382475 23.509C0.382475 23.509 0.384606 23.5116 0.384606 23.5114ZM0.360901 23.4107C0.367826 23.424 0.374484 23.4371 0.381143 23.4504C0.373952 23.4376 0.366228 23.4251 0.359036 23.4117C0.359036 23.4115 0.360901 23.4107 0.360901 23.4107ZM7.78347 19.1848C7.7864 19.1981 7.79013 19.2117 7.79306 19.2256C7.79279 19.2256 7.79492 19.2234 7.79466 19.2237C7.79173 19.2101 7.78906 19.1965 7.7864 19.1824C7.78613 19.1824 7.78374 19.1851 7.78347 19.1848ZM0.192569 23.2682C0.19177 23.2631 0.190971 23.2586 0.189906 23.2538C0.191504 23.2581 0.193368 23.2621 0.194966 23.2666C0.195499 23.2666 0.192569 23.2682 0.192569 23.2682ZM7.78081 19.4059C7.7848 19.4243 7.7888 19.4429 7.79306 19.4624C7.79333 19.4616 7.79279 19.4629 7.79306 19.4624C7.78933 19.4434 7.78507 19.4235 7.78161 19.4043L7.78081 19.4059ZM7.79306 19.4624C7.80291 19.4682 7.8125 19.4751 7.82236 19.4813C7.81943 19.4842 7.8165 19.4866 7.81357 19.489C7.80664 19.4802 7.79998 19.4719 7.79306 19.4624ZM8.06393 19.7151C8.06686 19.7314 8.07006 19.7481 8.07299 19.7644C8.07059 19.7476 8.06793 19.7306 8.06553 19.7135L8.06393 19.7151ZM7.94807 19.7516C7.95313 19.7649 7.95846 19.779 7.96352 19.7929C7.96352 19.7929 7.96405 19.7956 7.96405 19.7953C7.95953 19.7798 7.95527 19.7644 7.95074 19.7492L7.94807 19.7516ZM8.14384 19.8491C8.13905 19.831 8.13398 19.8131 8.12919 19.795C8.13319 19.8134 8.13745 19.8323 8.14144 19.851L8.14384 19.8491ZM8.14144 19.851C8.14437 19.8661 8.14757 19.8816 8.15023 19.8973C8.1505 19.8968 8.1497 19.8978 8.15023 19.8973C8.14757 19.8816 8.14597 19.8651 8.14384 19.8491L8.14144 19.851ZM8.22721 20.0339C8.22747 20.0334 8.22694 20.0342 8.22721 20.0339ZM8.22721 20.0339C8.22587 20.0385 8.22454 20.0433 8.22321 20.0478C8.22747 20.0472 8.232 20.047 8.23679 20.0465C8.23333 20.0422 8.23013 20.0387 8.22721 20.0339ZM8.1782 20.173C8.17234 20.1596 8.16648 20.1458 8.16035 20.1325L8.15875 20.1338C8.16461 20.1477 8.17074 20.161 8.1766 20.1743L8.1782 20.173ZM8.19258 20.2172C8.18752 20.2023 8.18299 20.1874 8.1782 20.173L8.1766 20.1743C8.18139 20.1889 8.18619 20.2041 8.19072 20.2188C8.19045 20.2193 8.19258 20.2172 8.19258 20.2172ZM8.21469 20.2507C8.20723 20.2396 8.19951 20.2284 8.19258 20.2172C8.19258 20.2172 8.19045 20.2193 8.19072 20.2188C8.19844 20.2297 8.20537 20.2412 8.21256 20.2526L8.21469 20.2507ZM8.2589 20.3184C8.26316 20.3338 8.26742 20.3496 8.27142 20.365L8.27328 20.3634C8.26902 20.3482 8.26503 20.332 8.26077 20.3165C8.26103 20.316 8.2589 20.3184 8.2589 20.3184ZM6.86298 24.2446C6.85019 24.251 6.8374 24.2574 6.82462 24.2638L6.82755 24.2659C6.84033 24.2598 6.85312 24.2534 6.8659 24.247L6.86298 24.2446ZM0.187775 22.7722C0.188308 22.7699 0.18884 22.7669 0.189373 22.7643C0.191504 22.7675 0.194434 22.7704 0.196298 22.7736C0.196564 22.7746 0.193102 22.7776 0.191504 22.7794C0.189906 22.777 0.18884 22.7746 0.187775 22.7722ZM0.201359 23.066C0.193901 23.0479 0.186443 23.0293 0.178985 23.0109L0.184845 23.0061C0.189906 23.0266 0.1947 23.0471 0.199761 23.0676L0.201359 23.066ZM0.199761 23.0676C0.20562 23.0868 0.212279 23.1054 0.218671 23.1246L0.220802 23.123C0.214143 23.1041 0.207751 23.0849 0.201359 23.066L0.199761 23.0676ZM7.24039 18.6748C7.25024 18.6742 7.26037 18.6734 7.27049 18.6729C7.26995 18.6777 7.26969 18.6822 7.26942 18.6867C7.26036 18.6817 7.25158 18.6764 7.24252 18.6718C7.24225 18.6718 7.24039 18.6748 7.24039 18.6748ZM7.07259 18.2867C7.05901 18.2803 7.04516 18.2742 7.03157 18.2678L7.03477 18.2691H7.05661L7.05341 18.2664C7.06087 18.2742 7.06806 18.2814 7.07552 18.2888L7.07259 18.2867ZM6.949 18.1762C6.96046 18.186 6.97218 18.1964 6.98363 18.2063L6.97724 18.2129C6.96871 18.2001 6.96046 18.1879 6.95167 18.1754C6.9514 18.1751 6.94954 18.1762 6.949 18.1762ZM5.91904 17.0809C5.91931 17.0788 5.91931 17.0751 5.9201 17.0751C5.92303 17.0745 5.92623 17.0751 5.92916 17.0753C5.92889 17.0775 5.92889 17.0815 5.92836 17.0815C5.92516 17.0817 5.92224 17.0815 5.91904 17.0809ZM0.171261 22.634C0.173126 22.646 0.175523 22.658 0.176855 22.6702C0.177654 22.6758 0.176322 22.682 0.176055 22.6878C0.172859 22.6817 0.167 22.6758 0.167 22.6697C0.166734 22.6577 0.169397 22.6465 0.171261 22.634ZM8.62859 21.2293C8.62673 21.2293 8.62326 21.2298 8.62326 21.2293C8.62273 21.2269 8.6222 21.224 8.62273 21.2216C8.623 21.2192 8.62486 21.2176 8.6262 21.2149C8.62673 21.2197 8.62753 21.2245 8.62859 21.2293ZM8.46319 20.895C8.46958 20.9209 8.47597 20.9467 8.48237 20.9731L8.48476 20.9696C8.47757 20.9696 8.47012 20.9699 8.46266 20.9699L8.46505 20.9733C8.46532 20.947 8.46532 20.9203 8.46559 20.8942L8.46319 20.895ZM7.72248 19.0879C7.72248 19.0743 7.72248 19.061 7.72274 19.0468L7.72035 19.0495C7.73393 19.0559 7.74778 19.0628 7.7611 19.0695L7.75817 19.0652V19.1068L7.76083 19.1044C7.75337 19.1044 7.74618 19.1046 7.73873 19.1046L7.74192 19.1076C7.73446 19.0999 7.72701 19.0927 7.71955 19.0852L7.72248 19.0879ZM7.72274 19.0468C7.70943 19.041 7.69638 19.0343 7.68306 19.0285L7.68492 19.0314C7.68386 19.0175 7.68332 19.0034 7.68226 18.9899C7.68945 18.9906 7.69691 18.9917 7.70437 18.9928L7.70064 18.9893C7.70836 18.997 7.71582 19.0045 7.72354 19.012L7.72035 19.0082V19.0495L7.72274 19.0468ZM7.47984 18.7632C7.48569 18.7829 7.49155 18.8031 7.49768 18.8231C7.49821 18.8231 7.49954 18.8239 7.50034 18.8236C7.49502 18.8023 7.48889 18.7818 7.4833 18.7608C7.48303 18.7608 7.4801 18.7632 7.47984 18.7632ZM5.7017 17.0194C5.68305 17.0223 5.66441 17.0247 5.6455 17.0274C5.6455 17.0237 5.6455 17.0199 5.64523 17.0162C5.66414 17.0173 5.68306 17.0181 5.7017 17.0194ZM7.72461 18.5155C7.73713 18.5336 7.74964 18.552 7.76243 18.5701L7.7587 18.5741C7.74805 18.5538 7.73793 18.5333 7.72727 18.5134C7.72727 18.5136 7.72488 18.5155 7.72461 18.5155ZM6.48263 17.7551C6.50207 17.7673 6.52152 17.7801 6.54096 17.7929L6.54256 17.7908C6.52338 17.778 6.50394 17.7657 6.48449 17.7532L6.48263 17.7551ZM6.36783 18.0209C6.38701 18.0337 6.40645 18.0464 6.42563 18.059L6.42856 18.0574C6.41471 18.0574 6.4006 18.0574 6.38675 18.0576L6.39021 18.0603C6.38275 18.0526 6.37529 18.0451 6.36783 18.0377L6.3713 18.0417C6.37103 18.0339 6.37103 18.0262 6.37103 18.0187L6.36783 18.0209ZM6.44508 18.0787C6.46479 18.0915 6.4837 18.1042 6.50314 18.117L6.50447 18.1141C6.49062 18.1144 6.47704 18.1144 6.46345 18.1144L6.46692 18.117C6.46026 18.1034 6.45386 18.0899 6.44721 18.0765L6.44508 18.0787ZM8.03091 19.6344C8.04183 19.6616 8.05275 19.6879 8.06393 19.7151L8.06553 19.7135C8.05115 19.6895 8.03703 19.6656 8.02292 19.6419C8.02558 19.6392 8.02824 19.6368 8.03091 19.6344ZM7.47264 18.2486C7.45427 18.2292 7.43562 18.21 7.41724 18.1903L7.41564 18.1932H7.45666L7.4532 18.1897C7.46066 18.1977 7.46812 18.2052 7.47557 18.2124L7.47291 18.2089C7.47211 18.2225 7.47105 18.2366 7.47051 18.2505L7.47264 18.2486ZM7.53603 18.2246C7.55015 18.2401 7.564 18.2555 7.57785 18.271C7.57412 18.2742 7.56666 18.2803 7.5664 18.28C7.55281 18.2649 7.5403 18.2494 7.52725 18.2334C7.53017 18.2308 7.53337 18.2278 7.53603 18.2246ZM7.05901 17.738C7.05341 17.7292 7.04888 17.7215 7.04409 17.7135C7.04915 17.7124 7.05554 17.7098 7.05874 17.7114C7.0638 17.7143 7.06753 17.7204 7.06939 17.7258C7.06993 17.7284 7.0638 17.733 7.05901 17.738ZM6.34706 17.6808C6.31883 17.6701 6.29033 17.6597 6.26209 17.6491C6.29619 17.6448 6.33614 17.6256 6.3444 17.6834C6.34466 17.6832 6.34679 17.681 6.34706 17.6808ZM8.26077 20.3165C8.24532 20.295 8.23014 20.2726 8.21469 20.2507L8.21256 20.2526C8.228 20.2747 8.24372 20.2965 8.2589 20.3184C8.2589 20.3184 8.26103 20.316 8.26077 20.3165ZM5.48969 17.0002C5.49848 17.0002 5.50167 16.9997 5.50487 17.0002C5.5062 17.0005 5.50727 17.0024 5.5086 17.0034C5.5046 17.0026 5.49954 17.0018 5.48969 17.0002ZM0.110801 22.0763C0.111333 22.0712 0.112399 22.0659 0.112931 22.0603C0.115595 22.0635 0.119856 22.0667 0.120389 22.0702C0.120922 22.0755 0.119057 22.0811 0.118258 22.0867C0.115861 22.0832 0.113198 22.08 0.110801 22.0763ZM0.171794 22.6324C0.135571 22.597 0.144627 22.5562 0.157145 22.5147C0.161939 22.5546 0.166467 22.5941 0.171261 22.634L0.171794 22.6324ZM7.77948 18.5917C7.79599 18.6074 7.81224 18.6226 7.82848 18.6383C7.82236 18.6428 7.81597 18.6473 7.80957 18.6519C7.80025 18.6313 7.7912 18.6103 7.78187 18.5898L7.77948 18.5917ZM7.7579 19.1228C7.75471 19.1371 7.75124 19.1518 7.74751 19.1662C7.74751 19.1662 7.74991 19.1656 7.75098 19.1651C7.74006 19.151 7.72541 19.1387 7.71822 19.1228C7.71422 19.1137 7.72061 19.0993 7.72248 19.0879L7.71955 19.0852C7.72701 19.0927 7.73446 19.0999 7.74192 19.1076L7.73873 19.1046C7.74618 19.1118 7.75337 19.119 7.76083 19.1262L7.7579 19.1228ZM6.19284 17.5721C6.21602 17.5977 6.23919 17.6232 6.26209 17.6491C6.23946 17.624 6.21655 17.599 6.19364 17.5742L6.19284 17.5721ZM6.39793 17.6887C6.42616 17.7109 6.45466 17.733 6.48263 17.7551L6.48449 17.7532C6.44241 17.7484 6.40672 17.7354 6.39953 17.6869C6.39953 17.6869 6.39793 17.6885 6.39793 17.6887ZM6.83288 18.0859C6.88508 18.0768 6.91145 18.0992 6.91385 18.1514C6.91385 18.1514 6.91518 18.1498 6.91544 18.1501C6.88828 18.129 6.86058 18.1074 6.83288 18.0859ZM6.82462 24.2638C6.79532 24.2851 6.76629 24.3064 6.73673 24.3277C6.7338 24.3245 6.73087 24.3211 6.72767 24.3179C6.72794 24.312 6.7298 24.3064 6.73326 24.3013L6.73033 24.3043C6.73752 24.2968 6.74498 24.2896 6.75217 24.2822L6.74898 24.2848C6.76283 24.2776 6.77694 24.2705 6.79106 24.2633L6.7868 24.2662C6.80038 24.2659 6.81397 24.2659 6.82755 24.2659L6.82462 24.2638ZM7.68519 18.4673C7.65829 18.4401 7.63112 18.4124 7.60422 18.3855L7.60955 18.3799C7.63538 18.4097 7.66122 18.439 7.68679 18.4689C7.68652 18.4689 7.68519 18.467 7.68519 18.4673ZM6.54096 17.7929C6.57372 17.8169 6.60648 17.8408 6.63924 17.8651C6.63685 17.8677 6.63445 17.8704 6.63205 17.8728C6.60222 17.8456 6.57239 17.8182 6.54256 17.7908L6.54096 17.7929ZM6.83288 18.0859C6.80997 18.0531 6.78733 18.0203 6.76469 17.9876C6.76762 17.9844 6.77082 17.9812 6.77375 17.978C6.8121 18.0038 6.85365 18.0275 6.83288 18.0859ZM7.87003 19.6054C7.85112 19.5668 7.83248 19.5281 7.81357 19.489C7.8165 19.4866 7.81943 19.4842 7.82236 19.4813C7.83781 19.5231 7.85299 19.5652 7.86817 19.6072C7.8679 19.6075 7.87003 19.6054 7.87003 19.6054ZM7.59277 18.9118C7.60342 18.9182 7.61461 18.9241 7.62526 18.9302L7.62446 18.9329C7.63165 18.9467 7.63884 18.9606 7.64604 18.9744L7.64391 18.9715C7.65136 18.9779 7.65855 18.984 7.66601 18.9904C7.66495 19.0037 7.66415 19.0173 7.66308 19.0309L7.66468 19.0287C7.62846 18.9965 7.58105 18.9704 7.5957 18.9091C7.59543 18.9094 7.59303 18.9115 7.59277 18.9118ZM6.13079 17.1201C6.08471 17.1169 6.0389 17.1134 5.99255 17.1105C6.04369 17.0753 6.08417 17.1084 6.12865 17.122C6.12865 17.1217 6.13079 17.1201 6.13079 17.1201ZM7.24252 18.6718C7.21935 18.6364 7.16368 18.6188 7.18073 18.5605C7.20496 18.5967 7.25184 18.6199 7.24039 18.6748C7.24039 18.6748 7.24225 18.6718 7.24252 18.6718ZM6.74631 17.9673C6.70823 17.9359 6.67014 17.9045 6.63205 17.8728C6.63445 17.8704 6.63685 17.8677 6.63924 17.8651C6.6768 17.8976 6.71435 17.9301 6.75164 17.9623L6.74631 17.9673ZM0.0982821 21.7862C0.100146 21.8233 0.101745 21.8597 0.103609 21.8965C0.0998803 21.8968 0.0961515 21.8968 0.0924226 21.8968V21.7868C0.0945534 21.7868 0.0964176 21.7865 0.0982821 21.7862ZM5.7017 17.0194C5.75177 17.0314 5.80211 17.0437 5.85219 17.0559C5.80051 17.0495 5.73819 17.0796 5.7017 17.0194ZM7.95074 19.7492C7.92357 19.701 7.89694 19.6533 7.87003 19.6054C7.87003 19.6054 7.8679 19.6075 7.86817 19.6072C7.92277 19.64 7.94727 19.689 7.94807 19.7516L7.95074 19.7492ZM7.58904 19.1249C7.56853 19.098 7.54829 19.0714 7.51446 19.0271C7.57892 19.0373 7.59277 19.0724 7.60715 19.1068L7.60875 19.1041C7.60156 19.1113 7.5941 19.1188 7.58691 19.126L7.58904 19.1249ZM5.88069 25.013C5.91931 24.9486 5.99095 24.9446 6.05328 24.9235C6.004 24.9701 5.94115 24.9925 5.87909 25.0162L5.88069 25.013ZM6.73673 24.3277C6.65309 24.3709 6.56919 24.4137 6.48556 24.4569L6.4837 24.4542C6.49062 24.4414 6.49755 24.4281 6.50474 24.4151L6.50048 24.4183C6.51459 24.4114 6.52871 24.4036 6.54282 24.3964L6.53963 24.3988C6.55348 24.3916 6.56733 24.3847 6.58118 24.3778L6.57692 24.3805C6.59103 24.373 6.60515 24.3658 6.6198 24.3583L6.61527 24.361C6.64217 24.3477 6.66881 24.3346 6.69518 24.3208L6.69225 24.3232C6.70397 24.3211 6.71595 24.3195 6.72767 24.3179C6.73087 24.3211 6.7338 24.3245 6.73673 24.3277ZM7.31337 18.7651C7.3171 18.7523 7.3179 18.7427 7.32136 18.7414C7.32908 18.739 7.3432 18.7368 7.34613 18.7405C7.36903 18.7725 7.38981 18.8061 7.41165 18.8388C7.40446 18.8428 7.39221 18.8524 7.39114 18.8511C7.36344 18.8218 7.33707 18.7917 7.31337 18.7651ZM0.359036 23.4117C0.346252 23.4051 0.32521 23.4014 0.321215 23.3915C0.286057 23.3028 0.253829 23.2128 0.220802 23.123L0.218671 23.1246C0.234386 23.1569 0.249567 23.1891 0.265548 23.2208C0.297244 23.2842 0.329205 23.3476 0.360901 23.4107C0.360901 23.4107 0.359036 23.4115 0.359036 23.4117ZM5.57412 17.066C5.46385 17.0578 5.35358 17.0508 5.24332 17.0415C5.19671 17.0373 5.15063 17.0282 5.10455 17.0167C5.26089 17.0277 5.42017 17.0133 5.57252 17.0674C5.57279 17.0674 5.57412 17.066 5.57412 17.066ZM7.10242 18.5277C7.05368 18.4742 7.00361 18.4215 6.95753 18.3661C6.93409 18.3376 6.91811 18.3032 6.89893 18.2715C6.90133 18.2694 6.90373 18.2672 6.90639 18.2651C6.96365 18.325 7.02172 18.3844 7.07792 18.4454C7.09763 18.4673 7.12426 18.4904 7.10029 18.5259L7.10242 18.5277ZM8.16035 20.1325C8.11028 20.0379 8.05994 19.9428 8.0096 19.8483L8.00694 19.8507C8.02185 19.8597 8.04316 19.8651 8.05062 19.8781C8.09137 19.9511 8.12919 20.0249 8.16595 20.0995C8.16994 20.1077 8.16142 20.1224 8.15875 20.1338L8.16035 20.1325ZM7.78161 19.4043C7.76243 19.3824 7.74032 19.3625 7.72408 19.3385C7.67773 19.2679 7.63378 19.1965 7.58904 19.1249L7.58691 19.126C7.5941 19.1188 7.60156 19.1113 7.60875 19.1041L7.60715 19.1068C7.68119 19.1971 7.75151 19.2895 7.78081 19.4059L7.78161 19.4043ZM7.82768 19.236C7.89534 19.3689 7.96299 19.5015 8.03091 19.6344C8.02824 19.6368 8.02558 19.6392 8.02292 19.6419C8.00374 19.6174 7.98004 19.5953 7.96619 19.5684C7.90732 19.4544 7.85166 19.3388 7.79466 19.2237C7.79492 19.2234 7.79279 19.2256 7.79306 19.2256C7.80505 19.228 7.81676 19.2306 7.82848 19.2325L7.82768 19.236ZM6.89893 18.2715C6.78414 18.2028 6.70743 18.0971 6.60728 17.9902C6.68319 18.0092 6.82435 18.1453 6.90639 18.2651C6.90373 18.2672 6.90133 18.2694 6.89893 18.2715ZM6.12865 17.122C6.24292 17.1624 6.35691 17.2027 6.47118 17.2426C6.49142 17.2495 6.51299 17.2533 6.53377 17.2581C6.54868 17.2621 6.57026 17.2605 6.57772 17.2703C6.65149 17.3633 6.76949 17.3891 6.85898 17.4573C6.87389 17.4682 6.88801 17.4805 6.91838 17.5058C6.88508 17.5002 6.86937 17.5018 6.85898 17.4954C6.65762 17.3635 6.44321 17.2578 6.21948 17.1702C6.18778 17.1582 6.16035 17.1371 6.13079 17.1201C6.13079 17.1201 6.12865 17.1217 6.12865 17.122ZM7.41724 18.1903C7.3131 18.0811 7.20843 17.9721 7.10535 17.8619C7.0955 17.8515 7.0939 17.8339 7.08857 17.8195C7.11094 17.8169 7.13305 17.8123 7.15542 17.8123C7.16261 17.8123 7.17087 17.8227 7.177 17.8296C7.2886 17.9567 7.4002 18.084 7.51153 18.211C7.51153 18.211 7.51313 18.21 7.5126 18.21C7.49901 18.2097 7.48623 18.2095 7.47291 18.2089L7.47557 18.2124C7.46812 18.2052 7.46066 18.1977 7.4532 18.1897L7.45666 18.1932C7.44335 18.1799 7.42976 18.1671 7.41644 18.1543C7.39887 18.1362 7.38129 18.1186 7.36344 18.1002C7.35412 18.0909 7.3448 18.0819 7.33547 18.0728L7.33761 18.0707C7.34719 18.08 7.35652 18.0893 7.36584 18.0987C7.38288 18.1165 7.4002 18.1351 7.41751 18.1535C7.41698 18.1663 7.41618 18.1796 7.41564 18.1932L7.41724 18.1903ZM6.957 17.6432C6.94767 17.6411 6.93622 17.6416 6.92983 17.6363C6.77082 17.5015 6.57212 17.4365 6.39554 17.3326C6.22534 17.2322 6.03597 17.1792 5.84286 17.1379C5.75204 17.1185 5.66361 17.09 5.57412 17.066C5.57412 17.066 5.57279 17.0674 5.57252 17.0674C5.77814 17.0679 5.97311 17.1265 6.16514 17.1883C6.42856 17.2724 6.66614 17.4117 6.89707 17.5617C6.9237 17.5793 6.93968 17.6128 6.96099 17.6389L6.957 17.6432ZM7.66654 18.9355C7.65296 18.9179 7.63991 18.9001 7.62633 18.8822L7.62846 18.8783C7.621 18.8713 7.61354 18.8639 7.60608 18.8561C7.60608 18.8561 7.60422 18.8569 7.60449 18.8567C7.58531 18.789 7.54855 18.7358 7.48117 18.707C7.48117 18.707 7.48117 18.711 7.48143 18.7107C7.48223 18.6995 7.48783 18.6841 7.4825 18.678C7.38475 18.5688 7.2854 18.4606 7.18632 18.3527C7.18312 18.349 7.17487 18.3509 7.16901 18.3496L7.1714 18.3453C7.16395 18.3378 7.15676 18.3306 7.1493 18.3229L7.15249 18.3264C7.14504 18.3192 7.13758 18.3115 7.13012 18.304L7.13412 18.3064C7.10935 18.2742 7.08671 18.2401 7.05954 18.2103C6.90452 18.0433 6.75963 17.8656 6.5644 17.7409C6.49249 17.6949 6.41737 17.6541 6.3436 17.611C6.31829 17.5961 6.29299 17.5806 6.26769 17.5657C6.27088 17.5596 6.27408 17.5534 6.27701 17.547C6.30018 17.5529 6.32522 17.5548 6.34599 17.5652C6.54123 17.6642 6.73486 17.7655 6.88508 17.9309C7.07206 18.1367 7.26596 18.3373 7.44521 18.5504C7.69424 18.846 7.91212 19.1638 8.08444 19.5119C8.18859 19.7231 8.30684 19.9274 8.41684 20.1354C8.44694 20.1913 8.47171 20.2497 8.49648 20.3077C8.49968 20.3152 8.49009 20.3285 8.48636 20.3389C8.47917 20.3309 8.46985 20.3243 8.46505 20.3152C8.43336 20.2577 8.40246 20.1991 8.37157 20.1413C8.22454 19.8685 8.07858 19.5947 7.9289 19.3233C7.89161 19.2551 7.8418 19.1939 7.79785 19.13L7.79972 19.126C7.78587 19.1057 7.77202 19.0857 7.75817 19.0652L7.7611 19.0695C7.74778 19.049 7.73393 19.0287 7.72035 19.0082L7.72354 19.012C7.71582 19.0045 7.70836 18.997 7.70064 18.9893L7.70437 18.9928C7.69052 18.9725 7.67693 18.9528 7.66308 18.9323C7.66308 18.9323 7.66681 18.9355 7.66654 18.9355ZM8.35026 20.7235C8.346 20.7203 8.34147 20.7171 8.33721 20.7142C8.33508 20.7192 8.33055 20.7251 8.33161 20.7294C8.33268 20.7331 8.33987 20.7355 8.34413 20.7387C8.346 20.7336 8.34839 20.7286 8.35026 20.7235ZM4.69357 24.988C4.68771 24.9912 4.68132 24.9952 4.6744 24.9986C4.67972 25.001 4.68478 25.0042 4.68985 25.0042C4.69544 25.0042 4.70077 25.001 4.70609 24.9994C4.70263 24.9957 4.6989 24.9928 4.69357 24.988ZM5.09523 25.0194C5.10428 25.0194 5.11307 25.0197 5.12186 25.0192C5.12266 25.0192 5.12346 25.0152 5.12399 25.013C5.1152 25.013 5.10615 25.0128 5.09709 25.013C5.09656 25.013 5.09603 25.0165 5.09523 25.0194ZM4.67866 25.0407C4.68425 25.0394 4.68958 25.0381 4.69517 25.0367C4.69118 25.0346 4.68718 25.0293 4.68372 25.0298C4.67626 25.0303 4.66907 25.0343 4.66188 25.0365C4.66747 25.0378 4.67307 25.0394 4.67866 25.0407ZM8.55188 21.2626C8.55348 21.2509 8.55535 21.2426 8.55535 21.2341C8.55535 21.2288 8.55295 21.2229 8.55162 21.2176C8.54949 21.2269 8.54629 21.2357 8.54523 21.2447C8.54496 21.2498 8.54842 21.2543 8.55188 21.2626ZM5.03983 24.9773C5.05181 24.9792 5.05741 24.9803 5.063 24.9805C5.06912 24.9808 5.07552 24.9803 5.08164 24.9803C5.07605 24.9797 5.07046 24.9779 5.0646 24.9773C5.05874 24.9768 5.05234 24.9773 5.03983 24.9773ZM5.74831 24.7749C5.74698 24.7715 5.74591 24.7683 5.74538 24.7643C5.72887 24.7688 5.71262 24.7731 5.69664 24.7786C5.69584 24.7786 5.69797 24.7869 5.6985 24.7917C5.71502 24.7861 5.73153 24.7805 5.74831 24.7749ZM8.57026 21.3769C8.5692 21.3774 8.5676 21.3777 8.56627 21.3782V21.448H8.57026V21.3769ZM8.28101 20.8229C8.28234 20.8276 8.28367 20.8319 8.28527 20.8364C8.28207 20.8367 8.27888 20.837 8.27595 20.8375C8.27808 20.8324 8.28074 20.8282 8.28314 20.8234C8.26583 20.7805 8.24851 20.7376 8.2312 20.695C8.22428 20.6982 8.21735 20.7014 8.21016 20.7046C8.24558 20.7384 8.22241 20.8005 8.28101 20.8229ZM8.41871 20.7451C8.41685 20.7512 8.41445 20.7568 8.41445 20.7627C8.41445 20.7685 8.41764 20.7746 8.41924 20.7808C8.41871 20.7749 8.41791 20.7688 8.41791 20.7629C8.41791 20.7568 8.41844 20.7512 8.41871 20.7451C8.41525 20.7408 8.41232 20.7355 8.40779 20.7326C8.40353 20.7299 8.39714 20.7296 8.39154 20.7283C8.4006 20.7336 8.40965 20.74 8.41871 20.7451ZM8.24825 20.6425C8.24771 20.6383 8.24718 20.6337 8.24665 20.6292C8.24798 20.6308 8.25091 20.6329 8.25064 20.6351C8.25064 20.6377 8.24825 20.6401 8.24665 20.6425H8.2565C8.25571 20.6449 8.25517 20.6473 8.25464 20.6497C8.25251 20.6476 8.25038 20.6449 8.24825 20.6425ZM8.16168 20.5445C8.16248 20.5435 8.16328 20.5421 8.16435 20.5411C8.16275 20.5416 8.16142 20.5419 8.15982 20.5421C8.1529 20.5429 8.1457 20.5435 8.13878 20.544C8.14357 20.5389 8.14837 20.5331 8.15316 20.5275C8.15609 20.5333 8.15875 20.5389 8.16168 20.5445ZM7.13518 18.8303C7.13358 18.829 7.13225 18.8279 7.13065 18.8266C7.13119 18.8279 7.13119 18.8292 7.13145 18.8303C7.12692 18.8292 7.1224 18.8282 7.1176 18.8271C7.11947 18.8247 7.1224 18.8205 7.12293 18.821C7.12719 18.8234 7.13092 18.8271 7.13518 18.8303ZM7.11654 18.9057C7.11707 18.9038 7.11787 18.902 7.1184 18.9004C7.1168 18.902 7.11494 18.9036 7.11334 18.9054C7.10349 18.903 7.09416 18.9009 7.08431 18.8985C7.08857 18.8894 7.0923 18.8801 7.09629 18.8708C7.09629 18.8737 7.09656 18.8761 7.09656 18.8793C7.0931 18.8772 7.08937 18.8753 7.08617 18.8735C7.08884 18.8721 7.09123 18.8711 7.09363 18.8697C7.13332 18.8612 7.13358 18.8775 7.11654 18.9057ZM7.22894 19.183C7.22867 19.1827 7.22894 19.1853 7.22894 19.1853L7.23187 19.1843C7.22947 19.1832 7.2268 19.1824 7.22441 19.1814C7.22601 19.1819 7.2276 19.1822 7.22894 19.183ZM7.31417 23.884C7.31763 23.8821 7.32109 23.8808 7.32455 23.8789C7.32455 23.8827 7.32482 23.8866 7.32535 23.8909C7.32083 23.8896 7.31656 23.8874 7.3115 23.8861C7.3131 23.8874 7.31363 23.889 7.3147 23.8909C7.3147 23.8885 7.31417 23.8861 7.31417 23.884ZM8.30391 20.5696C8.32149 20.5397 8.32682 20.5102 8.31137 20.4758C8.29512 20.4398 8.28554 20.401 8.27328 20.3634L8.27142 20.365C8.37556 20.5272 8.43416 20.7057 8.46319 20.895L8.46559 20.8942C8.4584 20.8884 8.45147 20.8825 8.44428 20.8767C8.44055 20.8836 8.43203 20.8921 8.43389 20.8966C8.44268 20.9227 8.4544 20.948 8.46505 20.9733L8.46266 20.9699C8.46372 20.9787 8.46426 20.9877 8.46665 20.9965C8.46905 21.0058 8.47305 21.0141 8.47651 21.0229C8.47811 21.0138 8.4797 21.0053 8.48104 20.9965C8.48237 20.9875 8.48343 20.9787 8.48476 20.9696L8.48237 20.9731C8.49861 21.0197 8.51513 21.0671 8.53111 21.114C8.5351 21.0937 8.53937 21.0708 8.54389 21.0479C8.54949 21.0479 8.55481 21.0476 8.56041 21.0476C8.57772 21.1742 8.59477 21.3009 8.61181 21.428C8.61527 21.428 8.61847 21.4283 8.62167 21.4285C8.62779 21.407 8.63419 21.3856 8.64031 21.3643C8.64377 21.3649 8.6475 21.3657 8.65096 21.3665V21.6773C8.64724 21.6776 8.64297 21.6778 8.63925 21.6781C8.63605 21.6325 8.63365 21.587 8.63072 21.5415C8.6238 21.5415 8.6174 21.5417 8.61075 21.5417C8.61075 21.5819 8.60835 21.6224 8.61128 21.6621C8.62992 21.9298 8.59184 22.1916 8.5351 22.4521C8.47651 22.7224 8.35692 22.9648 8.20403 23.1928C8.16754 23.2474 8.12626 23.2887 8.05088 23.2842C8.02638 23.2828 7.99602 23.3087 7.97551 23.3292C7.84793 23.456 7.73127 23.5955 7.59463 23.7111C7.39327 23.8805 7.17886 24.0337 6.96845 24.1919C6.94501 24.2095 6.91172 24.214 6.88295 24.2249L6.88481 24.227C6.88934 24.2137 6.89467 24.2004 6.89973 24.1868C6.91598 24.1855 6.93222 24.1834 6.94821 24.1815C6.95273 24.1724 6.95753 24.1631 6.96206 24.1546C6.96632 24.145 6.97084 24.1354 6.97537 24.1256C6.99215 24.1253 7.00973 24.1256 7.02651 24.1253C7.02784 24.1106 7.02784 24.0963 7.02891 24.0827C7.04516 24.0837 7.0614 24.0845 7.07765 24.0861C7.08351 24.0726 7.08937 24.0598 7.09603 24.047C7.09603 24.047 7.09763 24.0494 7.09763 24.0497C7.09097 24.0627 7.08404 24.0758 7.07712 24.0885C7.06167 24.0872 7.04649 24.0864 7.03104 24.0853C7.02944 24.0989 7.02784 24.1122 7.02651 24.1253C7.01026 24.1264 6.99375 24.1272 6.97777 24.1282C6.97351 24.1381 6.96898 24.1477 6.96445 24.1578C6.95939 24.1663 6.9538 24.1748 6.94847 24.1828C6.93276 24.1847 6.91704 24.1868 6.90133 24.189C6.86324 24.2143 6.82489 24.2404 6.7868 24.2662L6.79106 24.2633C6.77694 24.2705 6.76283 24.2776 6.74898 24.2848L6.75217 24.2822C6.74498 24.2896 6.73752 24.2968 6.73033 24.3043L6.73326 24.3013C6.71968 24.3085 6.70583 24.3155 6.69225 24.3232L6.69518 24.3208C6.66881 24.3346 6.64217 24.3477 6.61527 24.361L6.6198 24.3583C6.60515 24.3658 6.59103 24.373 6.57692 24.3805L6.58118 24.3778C6.56733 24.3847 6.55348 24.3916 6.53963 24.3988L6.54282 24.3964C6.52871 24.4036 6.51459 24.4114 6.50048 24.4183L6.50474 24.4151C6.48689 24.4316 6.46905 24.447 6.4512 24.4633C6.42004 24.4697 6.38888 24.4758 6.35771 24.4827C6.34759 24.5096 6.28793 24.4945 6.30391 24.5435C6.32176 24.5232 6.33987 24.503 6.35771 24.4827C6.38808 24.4753 6.41817 24.4675 6.44854 24.4596C6.46026 24.458 6.47171 24.4561 6.4837 24.4542L6.48556 24.4569C6.44401 24.4841 6.40406 24.515 6.36038 24.5376C6.22028 24.6108 6.08204 24.687 5.93715 24.7493C5.84313 24.7901 5.73872 24.8071 5.63991 24.8372C5.60182 24.8487 5.56506 24.8655 5.52911 24.882C5.51978 24.8865 5.50993 24.9017 5.51073 24.91C5.51206 24.9185 5.52644 24.9267 5.5363 24.9321C5.56826 24.9496 5.60182 24.9638 5.63298 24.9827C5.64683 24.9912 5.65589 25.008 5.66707 25.0213C5.64816 25.0362 5.63112 25.0596 5.61008 25.065C5.58051 25.0716 5.54615 25.07 5.51606 25.0634C5.43056 25.0437 5.34613 25.02 5.26116 24.9973C5.24145 25.0146 5.20949 25.0298 5.24944 25.0591C5.27155 25.0759 5.29366 25.0927 5.31496 25.111C5.32482 25.1198 5.33281 25.131 5.34133 25.1411C5.32775 25.1467 5.3131 25.159 5.30085 25.1577C5.22547 25.1481 5.15089 25.1342 5.07552 25.1241C4.83767 25.0919 4.59929 25.065 4.36224 25.0282C4.12892 24.992 3.89293 24.9709 3.66547 24.9012C3.52431 24.8577 3.37915 24.8271 3.23799 24.7842C3.16314 24.7611 3.10375 24.7078 3.04994 24.6511C3.01825 24.6369 2.98389 24.6268 2.95539 24.6084C2.86936 24.5517 2.78599 24.4921 2.70183 24.4329C2.68398 24.4204 2.6704 24.398 2.65122 24.3916C2.52204 24.3501 2.43495 24.2542 2.3404 24.1652C2.16594 24.0004 1.98482 23.8424 1.8101 23.6784C1.57624 23.4578 1.36743 23.2152 1.20123 22.9392C1.08297 22.743 0.995607 22.5331 0.935146 22.3112C0.899455 22.1799 0.856307 22.0512 0.860302 21.9119C0.861367 21.8826 0.8342 21.8528 0.832602 21.8225C0.830471 21.779 0.800641 21.73 0.851513 21.6903C0.860835 21.6829 0.853377 21.6499 0.849382 21.6291C0.834733 21.5524 0.802238 21.4775 0.844854 21.3984C0.853377 21.3827 0.841658 21.3555 0.838728 21.3337C0.81742 21.1766 0.787855 21.0202 0.777202 20.8625C0.769478 20.7499 0.782262 20.6345 0.795313 20.5216C0.838195 20.1461 0.90931 19.7766 1.03583 19.4195C1.12026 19.1803 1.2537 18.9699 1.3898 18.7595C1.65668 18.3464 2.05034 18.1034 2.49381 17.9253C2.57212 17.8941 2.64749 17.8555 2.72633 17.8256C2.78067 17.8054 2.8382 17.7908 2.896 17.7812C2.98282 17.7665 3.07125 17.7623 3.15835 17.7479C3.45373 17.6994 3.75097 17.6898 4.04928 17.7103C4.2581 17.7239 4.46718 17.7322 4.67546 17.7503C4.75617 17.7569 4.8374 17.7782 4.91491 17.8043C5.00733 17.8355 5.09629 17.8789 5.18685 17.9173C5.21641 17.9295 5.25104 17.966 5.26622 17.9018C5.29845 17.9098 5.33228 17.9138 5.36264 17.9258C5.41511 17.9466 5.48356 17.9394 5.51845 17.8994C5.52484 17.8917 5.51632 17.8715 5.51526 17.8571L5.51419 17.8589C5.56107 17.8552 5.57012 17.8504 5.58477 17.8211C5.58477 17.8211 5.58371 17.8193 5.58371 17.8195C5.63405 17.835 5.68492 17.8485 5.73473 17.8661C5.79093 17.8861 5.84526 17.9103 5.90146 17.9298C5.93209 17.9404 5.96485 17.9447 5.99628 17.9524C5.99521 17.9538 5.99415 17.9548 5.99282 17.9559C5.99495 17.9554 5.99681 17.9548 5.99841 17.9546C5.97577 17.9327 5.9526 17.9109 5.93023 17.889L5.93529 17.8832C6.1425 17.9607 6.3143 18.0907 6.47091 18.243C6.49568 18.2673 6.51805 18.2936 6.54203 18.3187C6.59876 18.3778 6.59902 18.3778 6.66534 18.3871C6.65362 18.4385 6.66321 18.4755 6.72634 18.4753C6.73806 18.4753 6.75004 18.4753 6.7615 18.4755C6.75857 18.4846 6.75564 18.4936 6.75244 18.503C6.7599 18.548 6.79186 18.568 6.83208 18.5789C6.83261 18.5917 6.83261 18.6039 6.83341 18.6167L6.8659 18.6172C6.87363 18.6319 6.88162 18.646 6.88908 18.6604C6.88801 18.6604 6.88668 18.6606 6.88561 18.6609C6.84433 18.6609 6.86404 18.6361 6.86697 18.6183C6.85605 18.6175 6.84486 18.6172 6.83341 18.6167C6.83341 18.6039 6.83368 18.5917 6.83341 18.5791C6.80678 18.5544 6.77987 18.5299 6.75297 18.5051C6.74312 18.4947 6.73353 18.4851 6.72421 18.475C6.70423 18.4454 6.68505 18.4164 6.66534 18.3871C6.64697 18.3725 6.62539 18.3599 6.60994 18.3429C6.49621 18.2142 6.37369 18.0955 6.22587 18.006C6.1987 17.9892 6.16994 17.9729 6.1758 17.9332C6.1758 17.9332 6.17473 17.9306 6.17473 17.9309C6.23226 17.9492 6.27621 18.0014 6.3436 17.994C6.35052 17.9934 6.35984 18.0113 6.36783 18.0209L6.37103 18.0187C6.37103 18.0262 6.37103 18.0339 6.3713 18.0417L6.36783 18.0377C6.37529 18.0451 6.38275 18.0526 6.39021 18.0603L6.38675 18.0576C6.4006 18.0648 6.41471 18.0718 6.42856 18.0789L6.42563 18.0765C6.43948 18.0899 6.45307 18.1034 6.46692 18.117L6.46345 18.1144C6.47864 18.1226 6.49408 18.1317 6.50927 18.1397C6.51033 18.1543 6.51086 18.1676 6.51166 18.182C6.51326 18.1823 6.51486 18.1826 6.51619 18.1826C6.51433 18.182 6.51246 18.1815 6.5106 18.1804C6.51033 18.1668 6.5098 18.1533 6.50927 18.1397C6.50767 18.1311 6.50607 18.1224 6.50447 18.1141L6.50314 18.117C6.56946 18.1879 6.63525 18.2595 6.7029 18.3296C6.7884 18.418 6.87603 18.5046 6.96099 18.593C6.9823 18.6154 6.99855 18.6431 7.01692 18.6678V18.6662C7.02358 18.6798 7.03024 18.6934 7.0369 18.707L7.03477 18.7046C7.04649 18.7126 7.05821 18.7206 7.06993 18.7283L7.07525 18.7238C7.1461 18.8069 7.21802 18.8884 7.28647 18.9733C7.3171 19.0117 7.34027 19.0559 7.3669 19.0975C7.36184 19.0905 7.35705 19.0833 7.35172 19.0761C7.35012 19.0761 7.34879 19.0756 7.34719 19.0756C7.34906 19.0761 7.35092 19.0769 7.35279 19.0775C7.35758 19.0841 7.36238 19.0911 7.3669 19.0975C7.39141 19.1166 7.41565 19.1358 7.43988 19.1552C7.44095 19.1651 7.44308 19.1744 7.44441 19.1843C7.45586 19.1901 7.46678 19.1965 7.4777 19.2024C7.47957 19.2144 7.48197 19.2264 7.48356 19.2386C7.49422 19.2466 7.50407 19.2549 7.51419 19.2634C7.52485 19.2826 7.5355 19.3017 7.54642 19.3207C7.57652 19.371 7.60848 19.4203 7.63565 19.4725C7.65669 19.5122 7.67107 19.5553 7.68838 19.5974C7.75284 19.7146 7.81836 19.8315 7.88309 19.9487C7.89454 19.9524 7.90546 19.9564 7.91611 19.9612C7.93396 19.9982 7.95154 20.0355 7.96911 20.0734C7.97817 20.1037 7.98749 20.1346 7.99655 20.1652C8.01253 20.1905 8.02558 20.2182 8.04556 20.2398C8.0618 20.2574 8.08631 20.267 8.10682 20.2803C8.10975 20.2974 8.11268 20.3147 8.11587 20.3312C8.12173 20.344 8.12786 20.3565 8.13452 20.3687C8.13905 20.3844 8.14384 20.3991 8.1489 20.4143C8.15875 20.4236 8.16834 20.4332 8.1782 20.4422C8.18459 20.4548 8.19152 20.4667 8.19844 20.4785C8.20537 20.4998 8.21256 20.5208 8.21975 20.5421C8.22587 20.5389 8.232 20.5355 8.23839 20.5323C8.22428 20.5152 8.21016 20.4979 8.19578 20.4806C8.18965 20.4686 8.18273 20.4569 8.17607 20.4449C8.16701 20.4345 8.15796 20.4244 8.1489 20.4143C8.14331 20.3996 8.13825 20.3847 8.13292 20.3706C8.12679 20.3578 8.12093 20.345 8.11454 20.3328C8.11161 20.3157 8.10815 20.2989 8.10495 20.2824C8.07912 20.234 8.06979 20.1698 7.99655 20.1652C8.0104 20.1274 8.00481 20.0963 7.96698 20.0749C7.94941 20.0377 7.93129 20.0006 7.91398 19.9631C7.90253 19.9588 7.89081 19.9543 7.87989 19.9498C7.87936 19.9298 7.88628 19.9061 7.87829 19.8888C7.83488 19.7961 7.78933 19.7042 7.74086 19.6136C7.73446 19.6022 7.70623 19.6024 7.68838 19.5974C7.7057 19.5074 7.64177 19.3846 7.54429 19.3228C7.5339 19.3036 7.52298 19.2844 7.5126 19.2653C7.50221 19.2567 7.49129 19.2479 7.4809 19.2397C7.47904 19.228 7.47744 19.216 7.47584 19.2043C7.46412 19.1979 7.45267 19.1909 7.44121 19.1843C7.43589 19.1819 7.43109 19.1798 7.4263 19.1776C7.43136 19.171 7.43642 19.1643 7.44121 19.1571C7.4255 19.1236 7.41538 19.0852 7.39274 19.0567C7.28061 18.9153 7.17327 18.7685 7.04835 18.6393C6.93862 18.5251 6.8446 18.3986 6.73859 18.2824C6.63285 18.1668 6.5098 18.0672 6.3934 17.9615C6.37343 17.9434 6.35052 17.9287 6.33321 17.9045C6.38115 17.8978 6.41498 17.9253 6.44641 17.9514C6.54762 18.035 6.65123 18.1173 6.74498 18.2095C6.87363 18.3357 6.99961 18.4654 7.11547 18.6028C7.24998 18.7624 7.3685 18.9355 7.50114 19.0967C7.63325 19.2567 7.72994 19.4373 7.82316 19.6206C7.83408 19.6419 7.83834 19.6666 7.84606 19.6895C7.84713 19.689 7.84819 19.6885 7.84873 19.6879C7.85725 19.7023 7.86551 19.7172 7.87403 19.7316L7.8711 19.73C7.98669 19.9431 8.10362 20.1557 8.21735 20.3706C8.25118 20.4342 8.27541 20.503 8.30391 20.5696C8.29592 20.5602 8.28873 20.5512 8.28074 20.5413C8.27941 20.5424 8.27808 20.5432 8.27701 20.544C8.27914 20.544 8.28127 20.5437 8.2834 20.5435C8.29033 20.5522 8.29699 20.561 8.30391 20.5696ZM4.83101 25.9982C4.82701 25.9982 4.82302 25.9982 4.81902 25.9985C4.82062 25.9998 4.82195 26.0012 4.82355 26.003C4.82515 26.0009 4.82648 25.9993 4.82808 25.9972L4.83101 25.9982ZM6.81184 25.5929L6.80731 25.5979C6.80731 25.5979 6.81343 25.5945 6.81343 25.5942L6.81184 25.5929ZM6.81423 25.5649C6.81343 25.5742 6.8129 25.5835 6.81184 25.5929L6.81343 25.5942L6.81423 25.5649ZM6.91278 25.5702V25.563C6.91331 25.5649 6.91385 25.5668 6.91411 25.5686C6.91438 25.5686 6.91278 25.5702 6.91278 25.5702ZM6.99269 25.4999L6.99322 25.5023C6.99322 25.5023 6.99029 25.501 6.98976 25.5012L6.99269 25.4999ZM7.27422 25.31C7.27368 25.3119 7.27342 25.3135 7.27288 25.3153C7.27421 25.3143 7.27555 25.3132 7.27714 25.3124C7.27555 25.3119 7.27368 25.3119 7.27155 25.3116L7.27422 25.31ZM7.27155 25.3116C7.27528 25.3105 7.27901 25.3095 7.283 25.3084C7.28114 25.3071 7.27954 25.3052 7.27794 25.3036C7.27661 25.306 7.27555 25.3081 7.27422 25.31L7.27155 25.3116ZM1.01052 24.4556C1.01159 24.4577 1.01292 24.4601 1.01398 24.4622C1.01212 24.4609 1.01052 24.459 1.00866 24.4582L1.01052 24.4556ZM1.08164 24.5214H1.07471C1.07658 24.5208 1.07817 24.5203 1.07924 24.5195C1.07924 24.5192 1.08164 24.5214 1.08164 24.5214ZM1.07817 24.5515C1.07924 24.5416 1.08004 24.5315 1.08164 24.5214C1.08164 24.5214 1.07924 24.5192 1.07924 24.5195C1.08483 24.5301 1.09043 24.5408 1.09602 24.5515L1.09815 24.5485C1.09043 24.5485 1.0835 24.5488 1.07631 24.5491L1.07817 24.5515ZM1.07738 24.5704C1.07604 24.564 1.07631 24.5578 1.07817 24.5515L1.07631 24.5491C1.07631 24.5562 1.07631 24.5634 1.07604 24.5704H1.07738ZM1.09602 24.5515C1.10294 24.5578 1.1096 24.564 1.116 24.5704L1.11733 24.5677C1.1096 24.5682 1.10215 24.5682 1.09442 24.5688L1.09762 24.5704C1.09788 24.5632 1.09788 24.5562 1.09815 24.5485L1.09602 24.5515ZM1.116 24.5704C1.12239 24.577 1.12878 24.5834 1.13517 24.5901L1.1365 24.5877H1.1144L1.116 24.5898C1.11653 24.5823 1.11679 24.5749 1.11733 24.5677L1.116 24.5704ZM6.8446 17.3113C6.85765 17.3129 6.87096 17.3151 6.88455 17.3172L6.88561 17.3156C6.87176 17.3156 6.85765 17.3151 6.8438 17.3151L6.8446 17.3113ZM0.151552 23.1459C0.155014 23.1648 0.158477 23.1835 0.161939 23.2027L0.163804 23.2008C0.159542 23.1824 0.155281 23.1646 0.151552 23.1459ZM0.980691 24.4297C0.978827 24.4228 0.977229 24.4153 0.975364 24.4087C0.972967 24.41 0.971103 24.4114 0.968972 24.4129C0.973766 24.4169 0.978294 24.4217 0.983088 24.4265C0.982822 24.4265 0.980691 24.4297 0.980691 24.4297ZM0.152351 23.1449C0.152884 23.1401 0.153682 23.135 0.154481 23.1302C0.15022 23.1334 0.145692 23.1361 0.141963 23.1398C0.141164 23.1409 0.143029 23.1454 0.144893 23.1475C0.145692 23.1483 0.149155 23.1467 0.151552 23.1459L0.152351 23.1449ZM6.91411 25.5686C6.89414 25.5681 6.87469 25.5678 6.85418 25.5678C6.85365 25.5678 6.85205 25.5694 6.85179 25.57C6.87203 25.5705 6.89254 25.5702 6.91278 25.5702C6.91278 25.5702 6.91438 25.5686 6.91411 25.5686ZM7.22148 25.3382C7.22654 25.3377 7.23187 25.3369 7.23719 25.3364C7.23719 25.3393 7.23773 25.3417 7.23773 25.3444C7.2324 25.3446 7.22734 25.3452 7.22201 25.3454C7.22174 25.3454 7.22148 25.3406 7.22148 25.3382ZM1.11626 24.6071C1.10348 24.5949 1.09043 24.5823 1.07738 24.5704H1.07604H1.09762L1.09442 24.5688C1.10161 24.5754 1.1088 24.5823 1.116 24.5898L1.1144 24.5877C1.1144 24.5946 1.11466 24.6018 1.11466 24.609L1.11626 24.6071ZM0.000799111 22.3525L0 22.3442L0.00319594 22.3453L0.000799111 22.3525ZM0.0383538 21.9522C0.0378211 21.9436 0.0367559 21.9378 0.0370223 21.9314C0.037555 21.9271 0.0399519 21.9226 0.0410173 21.9181C0.0418164 21.9247 0.0434148 21.9306 0.0431485 21.937C0.0428821 21.9412 0.0404846 21.946 0.0383538 21.9522ZM0.0165136 21.5148C0.0178454 21.4967 0.0191769 21.4789 0.0205087 21.4616L0.026901 21.5175C0.0234385 21.517 0.0199761 21.5159 0.0165136 21.5148ZM1.91024 30.5256H7.37063V55.3452H1.91024V30.5256Z" fill="#151313"/>
<path d="M33.3308 42.9354C33.3308 37.5744 29.6081 33.2561 24.1972 33.2561C18.7867 33.2561 15.0637 37.5744 15.0637 42.9354C15.0637 48.2965 18.7867 52.6153 24.1972 52.6153C29.6081 52.6153 33.3308 48.2965 33.3308 42.9354ZM11.4895 42.9354C11.4895 35.8373 16.801 30.029 23.8499 30.029C27.672 30.029 31.2459 32.0149 33.033 34.6954V18.1156H36.5075V55.3451H33.033V51.1757C31.2459 53.8562 27.672 55.8418 23.8499 55.8418C16.801 55.8418 11.4895 50.0339 11.4895 42.9354Z" fill="#151313"/>
<path d="M48.1207 39.9076H58.7435C57.9489 36.9293 55.5167 35.9363 53.5808 35.9363C50.6023 35.9363 48.7658 37.6244 48.1207 39.9076ZM40.6249 42.8859C40.6249 35.4401 46.2837 29.98 53.7793 29.98C60.9275 29.98 67.3308 34.8443 67.0333 44.6731H47.922C48.2696 47.2044 50.1556 49.4385 54.1767 49.4385C56.3607 49.4385 58.3463 48.4456 58.9422 47.1053H66.785C65.1963 52.2677 60.0342 55.8919 53.7793 55.8919C46.0856 55.8919 40.6249 50.4312 40.6249 42.8859Z" fill="#151313"/>
<path d="M79.2914 55.8419C73.4837 55.8419 68.9667 52.7639 68.6686 47.8006H74.3277C74.7744 50.4808 77.0082 51.4735 79.4403 51.4735C81.8235 51.4735 83.461 50.5306 83.461 48.8428C83.461 47.1549 82.3693 46.2121 79.7878 45.5667L75.7175 44.4744C71.4485 43.3824 69.3635 40.6025 69.3635 36.9791C69.3635 32.8089 73.037 30.0291 78.5965 30.0291C83.9575 30.0291 87.6805 33.0079 88.0776 37.4753H82.617C82.121 35.3906 80.4827 34.3977 78.5469 34.3977C76.462 34.3977 74.923 35.3408 74.923 36.9293C74.923 38.5175 76.1642 39.3616 78.2489 39.9076L82.4188 40.9996C86.8863 42.1415 89.0208 44.7226 89.0208 48.4952C89.0208 53.3105 84.8514 55.8419 79.2914 55.8419Z" fill="#151313"/>
<path d="M103.96 34.9934C99.5417 34.9934 96.5637 38.4682 96.5637 42.9353C96.5637 47.4033 99.5417 50.8781 103.96 50.8781C108.378 50.8781 111.356 47.4033 111.356 42.9353C111.356 38.4682 108.378 34.9934 103.96 34.9934ZM102.967 30.0289C106.541 30.0289 109.519 31.8662 110.909 33.8516V30.5257H116.37V55.345H110.909V52.0199C109.519 54.0053 106.541 55.8417 102.967 55.8417C96.1666 55.8417 91.004 50.034 91.004 42.9353C91.004 35.8372 96.1666 30.0289 102.967 30.0289Z" fill="#151313"/>
<path d="M121.43 30.5256H128.926V33.0575C130.217 31.3196 132.35 29.9798 135.28 29.9798C138.853 29.9798 141.435 31.6179 142.973 34.3482C144.562 31.3196 147.987 29.9798 150.569 29.9798C156.624 29.9798 160 34.2981 160 41.1981V55.3452H152.504V42.4888C152.504 38.8652 151.462 36.7802 148.93 36.7802C146.3 36.7802 144.463 38.7658 144.463 43.2828V55.3452H136.967V42.4888C136.967 38.8652 135.925 36.7802 133.393 36.7802C130.762 36.7802 128.926 38.7658 128.926 43.2828V55.3452H121.43V30.5256Z" fill="#151313"/>
</svg>
