<svg width="160" height="72" viewBox="0 0 160 72" fill="none" xmlns="http://www.w3.org/2000/svg">
<path d="M116 0H44V23.8421H45.2604V1.26316H114.74V23.8421H116V0Z" fill="#151313"/>
<path d="M45.2604 45.3158V70.7368H114.74V45.3158H116V72H44V45.3158H45.2604Z" fill="#151313"/>
<path d="M86.0979 13.5948H84.8928V2.68421H86.0979V13.5948Z" fill="#151313"/>
<path d="M52.3501 13.5948H53.5554V7.95669C53.6005 7.84595 53.652 7.74114 53.7101 7.64226C53.8519 7.40075 54.0388 7.21134 54.2708 7.074C54.5072 6.93669 54.7993 6.86801 55.1474 6.86801C55.4482 6.86801 55.7103 6.92485 55.9337 7.03851C56.1572 7.14742 56.3291 7.32499 56.4494 7.57124C56.574 7.81276 56.6363 8.13477 56.6363 8.53727V13.5948H57.8416V8.46821C57.8573 8.31246 57.8873 8.16262 57.9318 8.01875C58.0049 7.79618 58.108 7.59966 58.2412 7.42917C58.3787 7.25397 58.5462 7.11663 58.7439 7.01719C58.9459 6.91775 59.1779 6.86801 59.44 6.86801C59.7408 6.86801 60.0007 6.91775 60.2199 7.01719C60.4433 7.11189 60.6152 7.27999 60.7355 7.5215C60.8601 7.76302 60.9224 8.09924 60.9224 8.53017V13.5948H62.1277V8.54438C62.1277 7.89562 62.0375 7.36762 61.857 6.96035C61.6765 6.5531 61.4123 6.25241 61.0642 6.05823C60.7162 5.86408 60.2929 5.76701 59.7945 5.76701C59.2015 5.76701 58.6988 5.92093 58.2863 6.22873C58.0078 6.43336 57.7743 6.68119 57.5859 6.97222C57.487 6.74485 57.3596 6.55386 57.2035 6.39919C56.7781 5.97774 56.2388 5.76701 55.5857 5.76701C54.9626 5.76701 54.4406 5.92803 54.0195 6.25004C53.8353 6.39025 53.6708 6.55361 53.526 6.74008L53.4909 5.90908H52.3501V13.5948Z" fill="#151313"/>
<path fill-rule="evenodd" clip-rule="evenodd" d="M64.0098 7.67779C63.7519 8.265 63.623 8.93034 63.623 9.6738V9.83716C63.623 10.5759 63.7519 11.2413 64.0098 11.8332C64.2676 12.4204 64.6328 12.8845 65.1055 13.2254C65.5824 13.5664 66.1475 13.7368 66.8006 13.7368C67.4537 13.7368 68.0166 13.5664 68.4893 13.2254C68.9663 12.8845 69.3315 12.4204 69.585 11.8332C69.8428 11.2413 69.9717 10.5759 69.9717 9.83716V9.6738C69.9717 8.93034 69.8428 8.265 69.585 7.67779C69.3315 7.09058 68.9663 6.62649 68.4893 6.28554C68.0123 5.93987 67.4452 5.76701 66.7877 5.76701C66.1389 5.76701 65.5781 5.93987 65.1055 6.28554C64.6328 6.62649 64.2676 7.09058 64.0098 7.67779ZM65.0475 11.2436C64.9014 10.8127 64.8283 10.3439 64.8283 9.83716V9.6738C64.8283 9.16708 64.8992 8.69829 65.041 8.26734C65.1871 7.83641 65.4063 7.49075 65.6985 7.23028C65.9906 6.96508 66.3537 6.83248 66.7877 6.83248C67.2303 6.83248 67.5977 6.96508 67.8899 7.23028C68.1821 7.49075 68.4012 7.83641 68.5473 8.26734C68.6934 8.69829 68.7665 9.16708 68.7665 9.6738V9.83716C68.7665 10.3439 68.6934 10.8127 68.5473 11.2436C68.4012 11.6745 68.1821 12.0202 67.8899 12.2807C67.602 12.5411 67.2389 12.6714 66.8006 12.6714C66.358 12.6714 65.9906 12.5411 65.6985 12.2807C65.4106 12.0202 65.1936 11.6745 65.0475 11.2436Z" fill="#151313"/>
<path d="M75.3923 5.90908H76.6233L74.1225 13.5948H73.2073L70.6807 5.90908H71.9118L73.6764 11.8008L75.3923 5.90908Z" fill="#151313"/>
<path fill-rule="evenodd" clip-rule="evenodd" d="M78.9822 13.2609C79.4635 13.5782 80.0287 13.7368 80.6774 13.7368C81.3693 13.7368 81.9235 13.5853 82.3403 13.2822C82.7616 12.9744 83.0837 12.6311 83.3073 12.2523L82.5787 11.6272C82.3596 11.9445 82.1041 12.1978 81.812 12.3872C81.5196 12.5766 81.1631 12.6714 80.7418 12.6714C80.3123 12.6714 79.9428 12.553 79.6334 12.3162C79.3239 12.0747 79.0877 11.755 78.9244 11.3573C78.7713 10.9803 78.6901 10.5659 78.6803 10.1142H83.3973V9.52462C83.3973 8.80958 83.2965 8.17026 83.0944 7.60674C82.8967 7.0385 82.5854 6.591 82.16 6.26425C81.7387 5.93277 81.1931 5.76701 80.5226 5.76701C80.0028 5.76701 79.5086 5.92329 79.0403 6.23583C78.5764 6.54363 78.1981 6.9935 77.906 7.58545C77.618 8.17263 77.474 8.88297 77.474 9.7164V10.0219C77.474 10.7416 77.6051 11.3809 77.8672 11.9397C78.1337 12.4985 78.5054 12.9389 78.9822 13.2609ZM78.7138 9.04869C78.7504 8.71446 78.8161 8.41614 78.9115 8.15372C79.0703 7.72276 79.2873 7.39601 79.5623 7.17344C79.8418 6.94614 80.1617 6.83248 80.5226 6.83248C80.9309 6.83248 81.2534 6.93903 81.4896 7.15216C81.7258 7.36052 81.8979 7.62805 82.0053 7.9548C82.1126 8.27681 82.1748 8.60829 82.1922 8.94925V9.04869H78.7138Z" fill="#151313"/>
<path fill-rule="evenodd" clip-rule="evenodd" d="M91.7376 7.23028C91.9871 7.50019 92.1115 7.86483 92.1115 8.32418V8.93504H90.9386C89.9802 8.93504 89.2176 9.15054 88.6504 9.58146C88.0833 10.0077 87.7997 10.6351 87.7997 11.4638C87.7997 11.8853 87.8963 12.2688 88.0896 12.6145C88.2873 12.9602 88.5623 13.2349 88.9147 13.4385C89.2713 13.6374 89.6859 13.7368 90.1586 13.7368C90.5366 13.7368 90.8761 13.6658 91.177 13.5237C91.4821 13.3769 91.7442 13.1946 91.9634 12.9768C92.0253 12.9149 92.084 12.8524 92.1393 12.7891C92.1459 12.855 92.1538 12.9223 92.1629 12.991C92.1974 13.242 92.2447 13.4433 92.3051 13.5948H93.5619V13.4811C93.4801 13.2728 93.4179 13.0241 93.3749 12.7353C93.3361 12.4464 93.3168 12.1741 93.3168 11.9184V8.33839C93.3168 7.76539 93.205 7.28946 92.9818 6.91064C92.7626 6.52705 92.4576 6.24057 92.0663 6.05116C91.6754 5.86172 91.2263 5.76701 90.7195 5.76701C90.1564 5.76701 89.6666 5.88066 89.2498 6.10797C88.8374 6.33054 88.5172 6.61702 88.2895 6.96745C88.0618 7.31315 87.9478 7.67068 87.9478 8.04006H89.1532C89.1532 7.82223 89.2154 7.62095 89.3401 7.43627C89.4645 7.2516 89.6385 7.10242 89.8621 6.98877C90.0898 6.87512 90.3519 6.8183 90.6484 6.8183C91.1297 6.8183 91.4928 6.95561 91.7376 7.23028ZM92.1115 11.4425V9.85847H91.1319C90.4529 9.85847 89.9287 9.97686 89.5593 10.2136C89.1898 10.4504 89.0047 10.8056 89.0047 11.2791C89.0047 11.6485 89.1165 11.961 89.3401 12.2168C89.5678 12.4725 89.8987 12.6003 90.3326 12.6003C90.698 12.6003 91.0201 12.5151 91.2993 12.3446C91.5787 12.1741 91.8001 11.9634 91.9634 11.7124C92.0227 11.6212 92.072 11.5312 92.1115 11.4425Z" fill="#151313"/>
<path d="M96.3977 13.5948H95.1923V5.90908H96.3655L96.3885 6.77744C96.506 6.57069 96.6443 6.39016 96.8038 6.23583C97.1259 5.92329 97.5386 5.76701 98.0414 5.76701C98.1228 5.76701 98.2195 5.77885 98.3313 5.80254C98.4475 5.82148 98.5267 5.84277 98.5697 5.86645V7.08111C98.4667 7.05742 98.3701 7.04324 98.2798 7.03851C98.1939 7.02903 98.0951 7.02429 97.9833 7.02429C97.6179 7.02429 97.3087 7.10716 97.0552 7.27288C96.806 7.43864 96.6124 7.66832 96.4751 7.9619C96.4473 8.02055 96.4214 8.08093 96.3977 8.14304V13.5948Z" fill="#151313"/>
<path d="M99.7687 13.5948H100.974V5.90908H99.7687V13.5948Z" fill="#151313"/>
<path d="M99.8524 3.3306C99.7365 3.47741 99.6784 3.65498 99.6784 3.86334C99.6784 4.06696 99.7365 4.24219 99.8524 4.389C99.9727 4.53104 100.149 4.60209 100.381 4.60209C100.613 4.60209 100.789 4.53104 100.909 4.389C101.034 4.24219 101.096 4.06696 101.096 3.86334C101.096 3.65498 101.034 3.47741 100.909 3.3306C100.789 3.18379 100.613 3.1104 100.381 3.1104C100.149 3.1104 99.9727 3.18379 99.8524 3.3306Z" fill="#151313"/>
<path fill-rule="evenodd" clip-rule="evenodd" d="M106.987 8.32418C106.987 7.86483 106.863 7.50019 106.613 7.23028C106.369 6.95561 106.006 6.8183 105.524 6.8183C105.228 6.8183 104.966 6.87512 104.738 6.98877C104.514 7.10242 104.34 7.2516 104.216 7.43627C104.091 7.62095 104.029 7.82223 104.029 8.04006H102.824C102.824 7.67068 102.938 7.31315 103.165 6.96745C103.393 6.61702 103.713 6.33054 104.126 6.10797C104.543 5.88066 105.032 5.76701 105.595 5.76701C106.102 5.76701 106.551 5.86172 106.942 6.05116C107.333 6.24057 107.639 6.52705 107.858 6.91064C108.081 7.28946 108.193 7.76539 108.193 8.33839V11.9184C108.193 12.1741 108.212 12.4464 108.251 12.7353C108.294 13.0241 108.356 13.2728 108.438 13.4811V13.5948H107.181C107.121 13.4433 107.073 13.242 107.039 12.991C107.03 12.9223 107.022 12.855 107.015 12.7891C106.96 12.8524 106.901 12.9149 106.839 12.9768C106.62 13.1946 106.358 13.3769 106.053 13.5237C105.752 13.6658 105.413 13.7368 105.035 13.7368C104.562 13.7368 104.147 13.6374 103.791 13.4385C103.438 13.2349 103.163 12.9602 102.965 12.6145C102.772 12.2688 102.676 11.8853 102.676 11.4638C102.676 10.6351 102.959 10.0077 103.526 9.58146C104.093 9.15054 104.856 8.93504 105.815 8.93504H106.987V8.32418ZM106.987 9.85847V11.4425C106.948 11.5312 106.899 11.6212 106.839 11.7124C106.676 11.9634 106.455 12.1741 106.175 12.3446C105.896 12.5151 105.574 12.6003 105.209 12.6003C104.775 12.6003 104.444 12.4725 104.216 12.2168C103.992 11.961 103.881 11.6485 103.881 11.2791C103.881 10.8056 104.066 10.4504 104.435 10.2136C104.805 9.97686 105.329 9.85847 106.008 9.85847H106.987Z" fill="#151313"/>
<path d="M87.6412 68.0526H89.0985V56.3684H87.6412V68.0526Z" fill="#151313"/>
<path fill-rule="evenodd" clip-rule="evenodd" d="M99.5701 61.9004C99.6775 61.8512 99.7811 61.7968 99.8805 61.7372C100.296 61.4908 100.619 61.1754 100.85 60.7901C101.08 60.3995 101.195 59.9637 101.195 59.4821C101.195 58.3961 100.88 57.6069 100.249 57.1146C99.6178 56.6173 98.7437 56.3684 97.6267 56.3684H94.0359V68.0526H97.8674C98.9591 68.0526 99.8332 67.7665 100.489 67.194C101.15 66.6161 101.481 65.7789 101.481 64.6822C101.481 64.1792 101.383 63.719 101.188 63.3019C100.997 62.8847 100.72 62.5421 100.354 62.2746C100.124 62.1066 99.8628 61.9819 99.5701 61.9004ZM95.4933 62.5797V66.8008H97.8674C98.5533 66.8008 99.0844 66.6107 99.4599 66.2308C99.8357 65.8513 100.023 65.3403 100.023 64.6983C100.023 64.2647 99.9506 63.8905 99.8054 63.5747C99.6601 63.2539 99.4349 63.0076 99.1293 62.8364C98.8239 62.6653 98.4257 62.5797 97.9349 62.5797H95.4933ZM97.6643 61.3519C98.2855 61.3519 98.7863 61.1861 99.1668 60.8542C99.5477 60.5226 99.7378 60.06 99.7378 59.466C99.7378 58.824 99.5625 58.3585 99.212 58.0696C98.8665 57.7756 98.3379 57.6284 97.6267 57.6284H95.4933V61.3519H97.6643Z" fill="#151313"/>
<path d="M107.492 68.0526H106.035V56.3684H107.492V68.0526Z" fill="#151313"/>
<path fill-rule="evenodd" clip-rule="evenodd" d="M81.0554 56.7698C80.5795 56.5023 79.9994 56.3684 79.3151 56.3684H76.2977V68.0526H77.5122V63.318H79.6372L81.6124 68.0526H82.9147V67.9563L80.7756 62.993C81.0573 62.8547 81.3089 62.6766 81.5313 62.4594C81.8483 62.1489 82.0905 61.7744 82.2573 61.3358C82.4284 60.8972 82.514 60.4102 82.514 59.8753C82.514 59.1155 82.3889 58.4763 82.1385 57.9575C81.8922 57.4329 81.5313 57.0373 81.0554 56.7698ZM77.5122 62.0662H79.3463C79.7805 62.0662 80.1415 61.9671 80.4295 61.7691C80.7175 61.5714 80.9322 61.3064 81.074 60.9748C81.2202 60.6429 81.2932 60.2766 81.2932 59.8753C81.2932 59.196 81.1368 58.6528 80.8239 58.2461C80.5106 57.8343 80.0079 57.6284 79.3151 57.6284H77.5122V62.0662Z" fill="#151313"/>
<path fill-rule="evenodd" clip-rule="evenodd" d="M64.6557 68.0526H63.3785L66.9289 56.3684H68.0144L71.5711 68.0526H70.3004L69.4156 64.9952H65.5368L64.6557 68.0526ZM65.8999 63.7352L67.4722 58.2799L69.0509 63.7352H65.8999Z" fill="#151313"/>
<path d="M58.4791 66.2173C58.7427 65.6444 58.9054 65.0015 58.9672 64.2881H57.7686C57.7027 64.8193 57.5915 65.2746 57.4349 65.6548C57.2825 66.035 57.056 66.3265 56.7553 66.5296C56.4587 66.7326 56.0572 66.8343 55.5505 66.8343C55.0192 66.8343 54.5826 66.6521 54.2407 66.2874C53.9029 65.9229 53.6517 65.4363 53.4869 64.8268C53.3222 64.2126 53.2398 63.5331 53.2398 62.7884V61.6247C53.2398 60.8176 53.3304 60.1121 53.5116 59.5083C53.697 58.9042 53.9688 58.4356 54.3272 58.1024C54.6856 57.7639 55.1304 57.5946 55.6617 57.5946C56.3537 57.5946 56.8542 57.8264 57.1631 58.2897C57.4761 58.7479 57.6779 59.3754 57.7686 60.1721H58.9672C58.9054 59.4221 58.7427 58.7608 58.4791 58.1883C58.2196 57.6155 57.8551 57.1702 57.3855 56.8525C56.9159 56.5298 56.3414 56.3684 55.6617 56.3684C54.9203 56.3684 54.2778 56.5873 53.7341 57.0246C53.1904 57.462 52.7702 58.0762 52.4737 58.8676C52.1812 59.6539 52.035 60.5782 52.035 61.6405V62.7884C52.035 63.8454 52.1812 64.7697 52.4737 65.5611C52.7661 66.3527 53.176 66.9669 53.7032 67.4043C54.2304 67.8366 54.8462 68.0526 55.5505 68.0526C56.2755 68.0526 56.8789 67.8887 57.3608 67.5606C57.8427 67.2325 58.2155 66.7847 58.4791 66.2173Z" fill="#151313"/>
<path d="M101.572 49.7368C98.8987 49.7368 96.5616 49.1488 94.5601 47.9732C92.5713 46.7975 91.3473 45.1396 90.2581 42.9995C89.1813 40.8594 88.6428 38.3229 88.6428 35.3902V34.4192C88.6428 31.6184 89.1686 29.1349 90.2199 26.9684C91.2715 24.8019 92.7598 23.1109 94.6852 21.8955C96.6235 20.6669 98.9291 20.0526 101.602 20.0526C103.477 20.0526 107.492 20.0526 110.958 21.8955V29.0526L106.265 29.5263V25.7181C106.265 25.0559 105.755 24.5063 105.096 24.4642C104.068 24.3985 102.615 24.3158 101.82 24.3158C100.237 24.3158 98.4873 24.9141 97.3725 25.72C95.0417 27.3713 94.1913 30.2578 94.1913 34.3794V35.3902C94.1913 37.3851 94.4126 39.2308 95.0461 40.7368C95.6793 42.2163 96.3588 43.2701 97.5244 44.0893C98.6897 44.8952 99.7725 45.3723 101.572 45.6316C102.868 45.8182 104.535 45.6047 105.648 45.4077C106.365 45.2807 106.859 44.6441 106.855 43.9146L106.835 40.5212L110.958 40.8369V48.0486C107.65 49.7368 103.535 49.7368 101.572 49.7368Z" fill="#151313"/>
<path d="M59.8985 25.3083C59.8985 24.8654 60.2047 24.4816 60.6358 24.3842L62.5286 23.9564V20.4688H52.035V23.9564L54.9802 24.5297V44.5011C54.9802 44.9438 54.674 45.3278 54.2429 45.425L52.035 45.8529V49.3206H62.5286V45.8529L59.8985 45.276V25.3083Z" fill="#151313"/>
<path d="M81.2752 40.661V43.6187C81.2752 44.3163 80.7108 44.8819 80.0145 44.8819H73.1504V25.5677C73.1504 24.9741 73.5629 24.4605 74.1416 24.3337L75.8644 23.9564V20.4688H65.2869V23.9564L67.917 24.2748V44.4376C67.917 45.0837 67.4304 45.6259 66.7892 45.6938L65.2869 45.8529V49.3206H85.7783V40.9768L81.2752 40.661Z" fill="#151313"/>
</svg>
