<svg width="32" height="32" viewBox="0 0 32 32" fill="none" xmlns="http://www.w3.org/2000/svg">
<path fill-rule="evenodd" clip-rule="evenodd" d="M0 8.88889C0 3.97969 3.97969 0 8.88889 0H23.1111C28.0203 0 32 3.97969 32 8.88889V23.1111C32 28.0203 28.0203 32 23.1111 32H8.88889C3.97969 32 0 28.0203 0 23.1111V8.88889ZM8.88889 3.55556C5.94337 3.55556 3.55556 5.94337 3.55556 8.88889V23.1111C3.55556 26.0566 5.94337 28.4444 8.88889 28.4444H23.1111C26.0566 28.4444 28.4444 26.0566 28.4444 23.1111V8.88889C28.4444 5.94337 26.0566 3.55556 23.1111 3.55556H8.88889Z" fill="white"/>
<path fill-rule="evenodd" clip-rule="evenodd" d="M16 10.6667C13.0545 10.6667 10.6667 13.0545 10.6667 16C10.6667 18.9455 13.0545 21.3333 16 21.3333C18.9455 21.3333 21.3333 18.9455 21.3333 16C21.3333 13.0545 18.9455 10.6667 16 10.6667ZM7.11111 16C7.11111 11.0908 11.0908 7.11111 16 7.11111C20.9092 7.11111 24.8889 11.0908 24.8889 16C24.8889 20.9092 20.9092 24.8889 16 24.8889C11.0908 24.8889 7.11111 20.9092 7.11111 16Z" fill="white"/>
<path d="M26.6667 7.11111C26.6667 8.09295 25.8707 8.88889 24.8889 8.88889C23.907 8.88889 23.1111 8.09295 23.1111 7.11111C23.1111 6.12927 23.907 5.33333 24.8889 5.33333C25.8707 5.33333 26.6667 6.12927 26.6667 7.11111Z" fill="white"/>
</svg>
