<svg width="115" height="72" viewBox="0 0 115 72" fill="none" xmlns="http://www.w3.org/2000/svg">
<path d="M12.807 61.2878L14.9065 55.6378H15.3559L17.4553 61.2878H17.0928L15.0802 55.8248H15.1746L13.162 61.2878H12.807ZM13.7661 59.3141L13.8605 59.0011H16.4018L16.4925 59.3141H13.7661Z" fill="#151313"/>
<path d="M19.082 61.3565C18.8907 61.3565 18.7094 61.3438 18.5382 61.3183C18.3671 61.2929 18.1971 61.2534 18.0285 61.2V60.8831C18.2299 60.9442 18.4136 60.9875 18.5798 61.0129C18.7484 61.0384 18.9196 61.0511 19.0933 61.0511C19.4835 61.0511 19.7692 60.9798 19.9505 60.8373C20.1343 60.6923 20.2261 60.4886 20.2261 60.2265C20.2261 60 20.1682 59.8269 20.0524 59.7073C19.9392 59.5852 19.7478 59.4948 19.4785 59.4363L18.9763 59.3256C18.6087 59.2416 18.3482 59.1092 18.1946 58.9285C18.0411 58.7453 17.9643 58.515 17.9643 58.2375C17.9643 57.9092 18.0851 57.6382 18.3268 57.4244C18.571 57.2081 18.9448 57.0999 19.4483 57.0999C19.6119 57.0999 19.768 57.1088 19.9165 57.1266C20.065 57.1444 20.211 57.1737 20.3545 57.2144V57.5275C20.1884 57.4817 20.0348 57.4498 19.8938 57.432C19.7554 57.4142 19.6081 57.4053 19.4521 57.4053C19.1751 57.4053 18.9524 57.4422 18.7837 57.516C18.6175 57.5873 18.4967 57.6853 18.4212 57.81C18.3457 57.9321 18.3079 58.0696 18.3079 58.2223C18.3079 58.4208 18.3608 58.5849 18.4665 58.7147C18.5722 58.8445 18.7585 58.94 19.0254 59.0011L19.5276 59.108C19.9102 59.1919 20.1783 59.3243 20.3319 59.505C20.4879 59.6831 20.566 59.916 20.566 60.2036C20.566 60.5574 20.4414 60.8386 20.1922 61.0473C19.9455 61.2534 19.5754 61.3565 19.082 61.3565Z" fill="#151313"/>
<path d="M22.3565 61.3565C22.1652 61.3565 21.984 61.3438 21.8128 61.3183C21.6416 61.2929 21.4717 61.2534 21.303 61.2V60.8831C21.5044 60.9442 21.6882 60.9875 21.8543 61.0129C22.023 61.0384 22.1942 61.0511 22.3679 61.0511C22.7581 61.0511 23.0438 60.9798 23.225 60.8373C23.4088 60.6923 23.5007 60.4886 23.5007 60.2265C23.5007 60 23.4428 59.8269 23.327 59.7073C23.2137 59.5852 23.0224 59.4948 22.753 59.4363L22.2508 59.3256C21.8833 59.2416 21.6227 59.1092 21.4692 58.9285C21.3156 58.7453 21.2388 58.515 21.2388 58.2375C21.2388 57.9092 21.3597 57.6382 21.6013 57.4244C21.8455 57.2081 22.2193 57.0999 22.7228 57.0999C22.8864 57.0999 23.0425 57.1088 23.191 57.1266C23.3396 57.1444 23.4856 57.1737 23.6291 57.2144V57.5275C23.4629 57.4817 23.3094 57.4498 23.1684 57.432C23.0299 57.4142 22.8827 57.4053 22.7266 57.4053C22.4497 57.4053 22.2269 57.4422 22.0582 57.516C21.8921 57.5873 21.7713 57.6853 21.6957 57.81C21.6202 57.9321 21.5824 58.0696 21.5824 58.2223C21.5824 58.4208 21.6353 58.5849 21.741 58.7147C21.8468 58.8445 22.0331 58.94 22.2999 59.0011L22.8021 59.108C23.1848 59.1919 23.4529 59.3243 23.6064 59.505C23.7625 59.6831 23.8405 59.916 23.8405 60.2036C23.8405 60.5574 23.7159 60.8386 23.4667 61.0473C23.22 61.2534 22.8499 61.3565 22.3565 61.3565Z" fill="#151313"/>
<path d="M26.156 61.3565C25.8312 61.3565 25.5468 61.2853 25.3026 61.1427C25.0584 60.9977 24.8683 60.7686 24.7324 60.4556C24.599 60.1425 24.5323 59.7328 24.5323 59.2263C24.5323 58.7224 24.599 58.3139 24.7324 58.0008C24.8683 57.6878 25.0584 57.46 25.3026 57.3175C25.5468 57.1724 25.8312 57.0999 26.156 57.0999C26.4832 57.0999 26.7689 57.1712 27.0131 57.3137C27.2573 57.4562 27.4461 57.684 27.5795 57.997C27.7155 58.3075 27.7834 58.7173 27.7834 59.2263C27.7834 59.7277 27.7155 60.1362 27.5795 60.4517C27.4436 60.7648 27.2535 60.9938 27.0093 61.1389C26.7677 61.284 26.4832 61.3565 26.156 61.3565ZM26.156 61.0473C26.4152 61.0473 26.6405 60.9913 26.8319 60.8793C27.0232 60.7648 27.1705 60.5752 27.2737 60.3105C27.3769 60.0458 27.4285 59.687 27.4285 59.2339C27.4285 58.7758 27.3769 58.4144 27.2737 58.1497C27.1705 57.8825 27.0232 57.6929 26.8319 57.5809C26.6405 57.4664 26.4152 57.4091 26.156 57.4091C25.8992 57.4091 25.6751 57.4651 25.4838 57.5771C25.2925 57.6891 25.144 57.8774 25.0382 58.1421C24.935 58.4042 24.8834 58.7618 24.8834 59.2148C24.8834 59.673 24.935 60.0356 25.0382 60.3029C25.144 60.5701 25.2925 60.761 25.4838 60.8755C25.6751 60.99 25.8992 61.0473 26.156 61.0473Z" fill="#151313"/>
<path d="M30.2502 61.3565C29.8952 61.3565 29.5932 61.284 29.3439 61.1389C29.0947 60.9938 28.9047 60.7648 28.7738 60.4517C28.6454 60.1387 28.5812 59.7302 28.5812 59.2263C28.5812 58.7198 28.6504 58.3113 28.7889 58.0008C28.9298 57.6878 29.1363 57.46 29.4081 57.3175C29.6825 57.1724 30.0186 57.0999 30.4163 57.0999C30.5472 57.0999 30.6819 57.1088 30.8204 57.1266C30.9613 57.1444 31.0935 57.1712 31.2169 57.2068V57.5275C31.0834 57.4893 30.95 57.4613 30.8166 57.4435C30.6857 57.4231 30.5586 57.4129 30.4352 57.4129C30.1004 57.4129 29.8222 57.4702 29.6007 57.5847C29.3792 57.6993 29.213 57.8876 29.1023 58.1497C28.9915 58.4119 28.9361 58.7656 28.9361 59.211C28.9361 59.6615 28.9865 60.0216 29.0872 60.2914C29.1904 60.5586 29.3427 60.7508 29.5441 60.8679C29.7455 60.9849 29.9934 61.0435 30.288 61.0435C30.4214 61.0435 30.5636 61.0295 30.7146 61.0015C30.8657 60.9709 31.0331 60.9239 31.2169 60.8602V61.1809C31.0557 61.2394 30.8934 61.2827 30.7298 61.3107C30.5686 61.3412 30.4088 61.3565 30.2502 61.3565Z" fill="#151313"/>
<path d="M31.9828 61.2878V57.161H32.3189V61.2878H31.9828ZM32.149 56.1302C32.0659 56.1302 31.9979 56.106 31.945 56.0577C31.8947 56.0093 31.8695 55.9432 31.8695 55.8592C31.8695 55.7752 31.8947 55.7077 31.945 55.6568C31.9979 55.6059 32.0659 55.5805 32.149 55.5805C32.232 55.5805 32.2987 55.6059 32.3491 55.6568C32.4019 55.7077 32.4284 55.7752 32.4284 55.8592C32.4284 55.9432 32.4019 56.0093 32.3491 56.0577C32.2987 56.106 32.232 56.1302 32.149 56.1302Z" fill="#151313"/>
<path d="M34.5425 61.3489C34.1724 61.3489 33.8792 61.2534 33.6627 61.0626C33.4487 60.8717 33.3417 60.6032 33.3417 60.257C33.3417 59.9109 33.4525 59.6411 33.674 59.4477C33.8955 59.2517 34.2467 59.127 34.7275 59.0736L35.9321 58.9323L35.9547 59.2187L34.7313 59.3637C34.3663 59.4045 34.1032 59.4961 33.9421 59.6386C33.781 59.7786 33.7004 59.9745 33.7004 60.2265C33.7004 60.4937 33.7747 60.6973 33.9232 60.8373C34.0718 60.9773 34.292 61.0473 34.584 61.0473C34.798 61.0473 35.0095 61.0002 35.2184 60.906C35.4274 60.8093 35.6149 60.6515 35.781 60.4327V58.4628C35.781 58.1854 35.7382 57.9703 35.6527 57.8176C35.5671 57.6649 35.4412 57.5593 35.2751 57.5007C35.1114 57.4397 34.91 57.4091 34.6709 57.4091C34.5173 57.4091 34.3449 57.4244 34.1536 57.4549C33.9622 57.4829 33.7684 57.5313 33.5721 57.6V57.2831C33.7332 57.2246 33.9144 57.1801 34.1158 57.1495C34.3172 57.1164 34.5085 57.0999 34.6898 57.0999C34.9944 57.0999 35.2524 57.1419 35.4639 57.2259C35.6778 57.3099 35.8402 57.4524 35.951 57.6534C36.0617 57.852 36.1171 58.1243 36.1171 58.4704V61.2878H35.8226L35.7961 60.8068H35.7622C35.6262 60.9773 35.45 61.1109 35.2335 61.2076C35.0195 61.3018 34.7892 61.3489 34.5425 61.3489Z" fill="#151313"/>
<path d="M38.7537 61.3565C38.3987 61.3565 38.0966 61.284 37.8474 61.1389C37.5982 60.9938 37.4081 60.7648 37.2772 60.4517C37.1489 60.1387 37.0847 59.7302 37.0847 59.2263C37.0847 58.7198 37.1539 58.3113 37.2923 58.0008C37.4333 57.6878 37.6397 57.46 37.9116 57.3175C38.186 57.1724 38.5221 57.0999 38.9198 57.0999C39.0507 57.0999 39.1854 57.1088 39.3239 57.1266C39.4648 57.1444 39.597 57.1712 39.7203 57.2068V57.5275C39.5869 57.4893 39.4535 57.4613 39.3201 57.4435C39.1892 57.4231 39.0621 57.4129 38.9387 57.4129C38.6039 57.4129 38.3257 57.4702 38.1042 57.5847C37.8827 57.6993 37.7165 57.8876 37.6058 58.1497C37.495 58.4119 37.4396 58.7656 37.4396 59.211C37.4396 59.6615 37.49 60.0216 37.5907 60.2914C37.6939 60.5586 37.8462 60.7508 38.0476 60.8679C38.2489 60.9849 38.4969 61.0435 38.7914 61.0435C38.9249 61.0435 39.0671 61.0295 39.2181 61.0015C39.3692 60.9709 39.5366 60.9239 39.7203 60.8602V61.1809C39.5592 61.2394 39.3969 61.2827 39.2332 61.3107C39.0721 61.3412 38.9123 61.3565 38.7537 61.3565ZM38.6102 62.8301C38.5045 62.8301 38.395 62.8174 38.2817 62.7919C38.1684 62.7665 38.0702 62.7321 37.9871 62.6889V62.4522C38.1004 62.5107 38.2087 62.5514 38.3119 62.5743C38.4176 62.5972 38.5183 62.6087 38.614 62.6087C38.7625 62.6087 38.8733 62.5794 38.9463 62.5209C39.0193 62.4649 39.0558 62.3796 39.0558 62.2651C39.0558 62.0335 38.9072 61.9177 38.6102 61.9177H38.4818V61.2114H38.7272V61.8261L38.6215 61.7077C38.8405 61.7077 39.0079 61.7574 39.1237 61.8566C39.242 61.9559 39.3012 62.0933 39.3012 62.2689C39.3012 62.442 39.2408 62.5782 39.12 62.6774C38.9991 62.7792 38.8292 62.8301 38.6102 62.8301Z" fill="#151313"/>
<path d="M41.4456 61.3489C41.0755 61.3489 40.7823 61.2534 40.5658 61.0626C40.3518 60.8717 40.2448 60.6032 40.2448 60.257C40.2448 59.9109 40.3556 59.6411 40.5771 59.4477C40.7986 59.2517 41.1498 59.127 41.6306 59.0736L42.8352 58.9323L42.8578 59.2187L41.6344 59.3637C41.2694 59.4045 41.0063 59.4961 40.8452 59.6386C40.6841 59.7786 40.6035 59.9745 40.6035 60.2265C40.6035 60.4937 40.6778 60.6973 40.8263 60.8373C40.9748 60.9773 41.1951 61.0473 41.4871 61.0473C41.7011 61.0473 41.9126 61.0002 42.1215 60.906C42.3304 60.8093 42.518 60.6515 42.6841 60.4327V58.4628C42.6841 58.1854 42.6413 57.9703 42.5557 57.8176C42.4702 57.6649 42.3443 57.5593 42.1781 57.5007C42.0145 57.4397 41.8131 57.4091 41.574 57.4091C41.4204 57.4091 41.248 57.4244 41.0567 57.4549C40.8653 57.4829 40.6715 57.5313 40.4751 57.6V57.2831C40.6363 57.2246 40.8175 57.1801 41.0189 57.1495C41.2203 57.1164 41.4116 57.0999 41.5928 57.0999C41.8975 57.0999 42.1555 57.1419 42.3669 57.2259C42.5809 57.3099 42.7433 57.4524 42.8541 57.6534C42.9648 57.852 43.0202 58.1243 43.0202 58.4704V61.2878H42.7257L42.6992 60.8068H42.6652C42.5293 60.9773 42.3531 61.1109 42.1366 61.2076C41.9226 61.3018 41.6923 61.3489 41.4456 61.3489ZM42.2197 56.0501C42.1165 56.0501 42.017 56.0335 41.9214 56.0004C41.8282 55.9648 41.7376 55.9279 41.6495 55.8897C41.5715 55.8566 41.4947 55.8261 41.4192 55.7981C41.3436 55.7701 41.2669 55.7561 41.1888 55.7561C41.0755 55.7561 40.9723 55.779 40.8792 55.8248C40.786 55.8681 40.6979 55.9368 40.6149 56.031V55.7332C40.7558 55.5729 40.9484 55.4927 41.1926 55.4927C41.2958 55.4927 41.394 55.5105 41.4871 55.5461C41.5828 55.5792 41.6747 55.6148 41.7628 55.653C41.8433 55.6887 41.9214 55.7205 41.9969 55.7485C42.0724 55.7765 42.1479 55.7905 42.2235 55.7905C42.3393 55.7905 42.4425 55.7676 42.5331 55.7217C42.6262 55.6759 42.7143 55.6059 42.7974 55.5118V55.8134C42.6564 55.9712 42.4639 56.0501 42.2197 56.0501Z" fill="#151313"/>
<path d="M45.6115 61.3565C45.2867 61.3565 45.0023 61.2853 44.7581 61.1427C44.5139 60.9977 44.3238 60.7686 44.1879 60.4556C44.0545 60.1425 43.9878 59.7328 43.9878 59.2263C43.9878 58.7224 44.0545 58.3139 44.1879 58.0008C44.3238 57.6878 44.5139 57.46 44.7581 57.3175C45.0023 57.1724 45.2867 57.0999 45.6115 57.0999C45.9387 57.0999 46.2244 57.1712 46.4686 57.3137C46.7128 57.4562 46.9016 57.684 47.035 57.997C47.171 58.3075 47.2389 58.7173 47.2389 59.2263C47.2389 59.7277 47.171 60.1362 47.035 60.4517C46.8991 60.7648 46.709 60.9938 46.4648 61.1389C46.2232 61.284 45.9387 61.3565 45.6115 61.3565ZM45.6115 61.0473C45.8707 61.0473 46.096 60.9913 46.2874 60.8793C46.4787 60.7648 46.626 60.5752 46.7292 60.3105C46.8324 60.0458 46.884 59.687 46.884 59.2339C46.884 58.7758 46.8324 58.4144 46.7292 58.1497C46.626 57.8825 46.4787 57.6929 46.2874 57.5809C46.096 57.4664 45.8707 57.4091 45.6115 57.4091C45.3547 57.4091 45.1306 57.4651 44.9393 57.5771C44.748 57.6891 44.5995 57.8774 44.4937 58.1421C44.3905 58.4042 44.3389 58.7618 44.3389 59.2148C44.3389 59.673 44.3905 60.0356 44.4937 60.3029C44.5995 60.5701 44.748 60.761 44.9393 60.8755C45.1306 60.99 45.3547 61.0473 45.6115 61.0473Z" fill="#151313"/>
<path d="M49.5866 61.2878L51.6861 55.6378H52.1355L54.2349 61.2878H53.8724L51.8598 55.8248H51.9542L49.9416 61.2878H49.5866ZM50.5457 59.3141L50.6401 59.0011H53.1814L53.2721 59.3141H50.5457Z" fill="#151313"/>
<path d="M56.1336 63.0439C55.9599 63.0439 55.7699 63.0274 55.5635 62.9943C55.357 62.9612 55.1708 62.9141 55.0046 62.853V62.5323C55.2085 62.6011 55.4024 62.652 55.5861 62.685C55.7724 62.7181 55.9537 62.7347 56.1299 62.7347C56.588 62.7347 56.9291 62.6291 57.1532 62.4178C57.3772 62.2091 57.4892 61.8414 57.4892 61.3145V60.8564H57.4666C57.3407 60.9964 57.1796 61.1147 56.9833 61.2114C56.7869 61.3056 56.5603 61.3527 56.3036 61.3527C56.0216 61.3527 55.7623 61.2878 55.5257 61.158C55.2916 61.0282 55.104 60.8144 54.9631 60.5166C54.8246 60.2189 54.7554 59.8155 54.7554 59.3065C54.7554 58.5531 54.9228 57.997 55.2576 57.6382C55.5949 57.2793 56.0795 57.0999 56.7114 57.0999C56.8398 57.0999 56.9682 57.1063 57.0965 57.119C57.2274 57.1317 57.3546 57.1508 57.4779 57.1762C57.6038 57.2017 57.7208 57.231 57.8291 57.264V61.2764C57.8291 61.9126 57.6869 62.3656 57.4024 62.6354C57.1179 62.9077 56.695 63.0439 56.1336 63.0439ZM56.3564 61.0358C56.5704 61.0358 56.7793 60.9888 56.9833 60.8946C57.1872 60.7979 57.3558 60.6515 57.4892 60.4556V57.5084C57.3886 57.4804 57.2677 57.4575 57.1267 57.4397C56.9883 57.4193 56.8423 57.4091 56.6887 57.4091C56.1752 57.4091 55.7825 57.5555 55.5106 57.8481C55.2412 58.1383 55.1066 58.6129 55.1066 59.2721C55.1066 59.7302 55.1619 60.0878 55.2727 60.3449C55.3835 60.5994 55.5333 60.7788 55.7221 60.8831C55.9109 60.9849 56.1223 61.0358 56.3564 61.0358Z" fill="#151313"/>
<path d="M59.0863 61.2878V57.161H59.377L59.4072 57.7183H59.4375C59.5885 57.5275 59.7748 57.3811 59.9963 57.2793C60.2204 57.1775 60.4482 57.1266 60.6798 57.1266C60.7402 57.1266 60.7956 57.1292 60.8459 57.1343C60.8963 57.1368 60.9466 57.1432 60.997 57.1533V57.4855C60.9441 57.4778 60.8912 57.4727 60.8384 57.4702C60.788 57.4677 60.7314 57.4664 60.6684 57.4664C60.5275 57.4664 60.3789 57.4906 60.2229 57.5389C60.0693 57.5873 59.922 57.6611 59.7811 57.7603C59.6426 57.8596 59.523 57.9843 59.4223 58.1345V61.2878H59.0863Z" fill="#151313"/>
<path d="M62.9429 61.3565C62.6182 61.3565 62.3337 61.2853 62.0895 61.1427C61.8454 60.9977 61.6553 60.7686 61.5194 60.4556C61.3859 60.1425 61.3192 59.7328 61.3192 59.2263C61.3192 58.7224 61.3859 58.3139 61.5194 58.0008C61.6553 57.6878 61.8454 57.46 62.0895 57.3175C62.3337 57.1724 62.6182 57.0999 62.9429 57.0999C63.2702 57.0999 63.5559 57.1712 63.8001 57.3137C64.0443 57.4562 64.2331 57.684 64.3665 57.997C64.5024 58.3075 64.5704 58.7173 64.5704 59.2263C64.5704 59.7277 64.5024 60.1362 64.3665 60.4517C64.2306 60.7648 64.0405 60.9938 63.7963 61.1389C63.5546 61.284 63.2702 61.3565 62.9429 61.3565ZM62.9429 61.0473C63.2022 61.0473 63.4275 60.9913 63.6188 60.8793C63.8102 60.7648 63.9574 60.5752 64.0606 60.3105C64.1638 60.0458 64.2155 59.687 64.2155 59.2339C64.2155 58.7758 64.1638 58.4144 64.0606 58.1497C63.9574 57.8825 63.8102 57.6929 63.6188 57.5809C63.4275 57.4664 63.2022 57.4091 62.9429 57.4091C62.6862 57.4091 62.4621 57.4651 62.2708 57.5771C62.0795 57.6891 61.9309 57.8774 61.8252 58.1421C61.722 58.4042 61.6704 58.7618 61.6704 59.2148C61.6704 59.673 61.722 60.0356 61.8252 60.3029C61.9309 60.5701 62.0795 60.761 62.2708 60.8755C62.4621 60.99 62.6862 61.0473 62.9429 61.0473Z" fill="#151313"/>
<path d="M67.1618 61.3565C66.7791 61.3565 66.4531 61.2853 66.1838 61.1427C65.9169 60.9977 65.7143 60.7686 65.5758 60.4556C65.4374 60.1425 65.3681 59.7315 65.3681 59.2225C65.3681 58.7262 65.4323 58.3215 65.5607 58.0085C65.6891 57.6954 65.8678 57.4664 66.0969 57.3213C66.3285 57.1737 66.5991 57.0999 66.9088 57.0999C67.2184 57.0999 67.484 57.1737 67.7055 57.3213C67.9271 57.4664 68.097 57.6954 68.2153 58.0085C68.3361 58.3215 68.3965 58.7275 68.3965 59.2263V59.3599H65.5381V59.0698H68.1624L68.0529 59.1652C68.0529 58.73 68.0076 58.3839 67.917 58.1268C67.8264 57.8672 67.6955 57.6802 67.5243 57.5656C67.3531 57.4511 67.1479 57.3938 66.9088 57.3938C66.6671 57.3938 66.4569 57.4511 66.2782 57.5656C66.102 57.6776 65.9648 57.8634 65.8666 58.123C65.7684 58.3801 65.7193 58.7275 65.7193 59.1652V59.2607C65.7193 59.6959 65.776 60.0445 65.8892 60.3067C66.0025 60.5688 66.1687 60.7584 66.3877 60.8755C66.6067 60.99 66.8748 61.0473 67.192 61.0473C67.3455 61.0473 67.5041 61.032 67.6678 61.0015C67.8314 60.9709 68.0101 60.9251 68.204 60.864V61.1809C68.0177 61.242 67.8389 61.2865 67.6678 61.3145C67.4991 61.3425 67.3304 61.3565 67.1618 61.3565Z" fill="#151313"/>
<path d="M71.7449 61.2878L70.4347 59.4706L70.2308 59.2072L68.7543 57.161H69.1659L70.4422 58.9362L70.6423 59.1996L72.1565 61.2878H71.7449ZM68.7279 61.2878L70.2308 59.2072L70.4422 58.9362L71.7223 57.161H72.1226L70.6423 59.1996L70.4347 59.4706L69.1319 61.2878H68.7279Z" fill="#151313"/>
<path d="M74.2612 61.3565C73.8785 61.3565 73.579 61.256 73.3625 61.0549C73.146 60.8539 73.0377 60.5281 73.0377 60.0776V57.161L73.0868 55.6378H73.3776V60.0204C73.3776 60.3945 73.4556 60.6579 73.6117 60.8106C73.7703 60.9633 74.0006 61.0397 74.3027 61.0397C74.3833 61.0397 74.4651 61.0346 74.5481 61.0244C74.6337 61.0117 74.7269 60.9938 74.8276 60.9709V61.2916C74.7294 61.3145 74.6337 61.3311 74.5406 61.3413C74.45 61.3514 74.3568 61.3565 74.2612 61.3565ZM72.2221 57.4664V57.161H74.752V57.4664H72.2221Z" fill="#151313"/>
<path d="M75.4885 61.2878V57.161H75.7792L75.8095 57.7183H75.8397C75.9907 57.5275 76.177 57.3811 76.3985 57.2793C76.6226 57.1775 76.8504 57.1266 77.082 57.1266C77.1424 57.1266 77.1978 57.1292 77.2481 57.1343C77.2985 57.1368 77.3488 57.1432 77.3992 57.1533V57.4855C77.3463 57.4778 77.2934 57.4727 77.2406 57.4702C77.1902 57.4677 77.1336 57.4664 77.0707 57.4664C76.9297 57.4664 76.7812 57.4906 76.6251 57.5389C76.4715 57.5873 76.3243 57.6611 76.1833 57.7603C76.0448 57.8596 75.9253 57.9843 75.8246 58.1345V61.2878H75.4885Z" fill="#151313"/>
<path d="M78.9111 61.3489C78.541 61.3489 78.2477 61.2534 78.0312 61.0626C77.8173 60.8717 77.7103 60.6032 77.7103 60.257C77.7103 59.9109 77.821 59.6411 78.0426 59.4477C78.2641 59.2517 78.6153 59.127 79.0961 59.0736L80.3007 58.9323L80.3233 59.2187L79.0999 59.3637C78.7349 59.4045 78.4718 59.4961 78.3107 59.6386C78.1496 59.7786 78.069 59.9745 78.069 60.2265C78.069 60.4937 78.1433 60.6973 78.2918 60.8373C78.4403 60.9773 78.6606 61.0473 78.9526 61.0473C79.1666 61.0473 79.378 61.0002 79.587 60.906C79.7959 60.8093 79.9835 60.6515 80.1496 60.4327V58.4628C80.1496 58.1854 80.1068 57.9703 80.0212 57.8176C79.9356 57.6649 79.8098 57.5593 79.6436 57.5007C79.48 57.4397 79.2786 57.4091 79.0395 57.4091C78.8859 57.4091 78.7135 57.4244 78.5221 57.4549C78.3308 57.4829 78.137 57.5313 77.9406 57.6V57.2831C78.1017 57.2246 78.283 57.1801 78.4844 57.1495C78.6858 57.1164 78.8771 57.0999 79.0583 57.0999C79.3629 57.0999 79.621 57.1419 79.8324 57.2259C80.0464 57.3099 80.2088 57.4524 80.3195 57.6534C80.4303 57.852 80.4857 58.1243 80.4857 58.4704V61.2878H80.1911L80.1647 60.8068H80.1307C79.9948 60.9773 79.8186 61.1109 79.6021 61.2076C79.3881 61.3018 79.1578 61.3489 78.9111 61.3489Z" fill="#151313"/>
<path d="M83.126 61.3565C82.7434 61.3565 82.4438 61.256 82.2273 61.0549C82.0108 60.8539 81.9026 60.5281 81.9026 60.0776V57.161L81.9517 55.6378H82.2424V60.0204C82.2424 60.3945 82.3205 60.6579 82.4765 60.8106C82.6351 60.9633 82.8655 61.0397 83.1676 61.0397C83.2481 61.0397 83.3299 61.0346 83.413 61.0244C83.4986 61.0117 83.5917 60.9938 83.6924 60.9709V61.2916C83.5942 61.3145 83.4986 61.3311 83.4055 61.3413C83.3148 61.3514 83.2217 61.3565 83.126 61.3565ZM81.087 57.4664V57.161H83.6169V57.4664H81.087Z" fill="#151313"/>
<path d="M84.3607 61.2878V57.161H84.6968V61.2878H84.3607ZM84.5269 56.1302C84.4438 56.1302 84.3758 56.106 84.323 56.0577C84.2726 56.0093 84.2475 55.9432 84.2475 55.8592C84.2475 55.7752 84.2726 55.7077 84.323 55.6568C84.3758 55.6059 84.4438 55.5805 84.5269 55.5805C84.61 55.5805 84.6767 55.6059 84.727 55.6568C84.7799 55.7077 84.8063 55.7752 84.8063 55.8592C84.8063 55.9432 84.7799 56.0093 84.727 56.0577C84.6767 56.106 84.61 56.1302 84.5269 56.1302Z" fill="#151313"/>
<path d="M87.0073 61.2878L85.4138 57.161H85.7838L87.2754 61.0778H87.2074L88.6989 57.161H89.0539L87.4604 61.2878H87.0073Z" fill="#151313"/>
<path d="M89.7667 61.2878V57.161H90.1027V61.2878H89.7667ZM89.9328 56.1302C89.8497 56.1302 89.7818 56.106 89.7289 56.0577C89.6786 56.0093 89.6534 55.9432 89.6534 55.8592C89.6534 55.7752 89.6786 55.7077 89.7289 55.6568C89.7818 55.6059 89.8497 55.5805 89.9328 55.5805C90.0159 55.5805 90.0826 55.6059 90.1329 55.6568C90.1858 55.7077 90.2122 55.7752 90.2122 55.8592C90.2122 55.9432 90.1858 56.0093 90.1329 56.0577C90.0826 56.106 90.0159 56.1302 89.9328 56.1302Z" fill="#151313"/>
<path d="M92.2282 61.3565C92.0369 61.3565 91.8556 61.3438 91.6844 61.3183C91.5132 61.2929 91.3433 61.2534 91.1747 61.2V60.8831C91.3761 60.9442 91.5598 60.9875 91.726 61.0129C91.8946 61.0384 92.0658 61.0511 92.2395 61.0511C92.6297 61.0511 92.9154 60.9798 93.0967 60.8373C93.2804 60.6923 93.3723 60.4886 93.3723 60.2265C93.3723 60 93.3144 59.8269 93.1986 59.7073C93.0853 59.5852 92.894 59.4948 92.6247 59.4363L92.1225 59.3256C91.7549 59.2416 91.4944 59.1092 91.3408 58.9285C91.1873 58.7453 91.1105 58.515 91.1105 58.2375C91.1105 57.9092 91.2313 57.6382 91.473 57.4244C91.7172 57.2081 92.091 57.0999 92.5945 57.0999C92.7581 57.0999 92.9142 57.1088 93.0627 57.1266C93.2112 57.1444 93.3572 57.1737 93.5007 57.2144V57.5275C93.3346 57.4817 93.181 57.4498 93.04 57.432C92.9016 57.4142 92.7543 57.4053 92.5982 57.4053C92.3213 57.4053 92.0985 57.4422 91.9299 57.516C91.7637 57.5873 91.6429 57.6853 91.5674 57.81C91.4919 57.9321 91.4541 58.0696 91.4541 58.2223C91.4541 58.4208 91.507 58.5849 91.6127 58.7147C91.7184 58.8445 91.9047 58.94 92.1715 59.0011L92.6738 59.108C93.0564 59.1919 93.3245 59.3243 93.4781 59.505C93.6341 59.6831 93.7122 59.916 93.7122 60.2036C93.7122 60.5574 93.5876 60.8386 93.3383 61.0473C93.0916 61.2534 92.7216 61.3565 92.2282 61.3565Z" fill="#151313"/>
<path d="M96.0324 61.3565C95.6498 61.3565 95.3502 61.256 95.1337 61.0549C94.9172 60.8539 94.809 60.5281 94.809 60.0776V57.161L94.8581 55.6378H95.1488V60.0204C95.1488 60.3945 95.2269 60.6579 95.383 60.8106C95.5416 60.9633 95.7719 61.0397 96.074 61.0397C96.1545 61.0397 96.2363 61.0346 96.3194 61.0244C96.405 61.0117 96.4981 60.9938 96.5988 60.9709V61.2916C96.5007 61.3145 96.405 61.3311 96.3119 61.3413C96.2212 61.3514 96.1281 61.3565 96.0324 61.3565ZM93.9934 57.4664V57.161H96.5233V57.4664H93.9934Z" fill="#151313"/>
<path d="M98.2264 61.3489C97.8564 61.3489 97.5631 61.2534 97.3466 61.0626C97.1326 60.8717 97.0257 60.6032 97.0257 60.257C97.0257 59.9109 97.1364 59.6411 97.3579 59.4477C97.5795 59.2517 97.9306 59.127 98.4115 59.0736L99.616 58.9323L99.6387 59.2187L98.4152 59.3637C98.0502 59.4045 97.7872 59.4961 97.626 59.6386C97.4649 59.7786 97.3844 59.9745 97.3844 60.2265C97.3844 60.4937 97.4586 60.6973 97.6072 60.8373C97.7557 60.9773 97.976 61.0473 98.268 61.0473C98.4819 61.0473 98.6934 61.0002 98.9023 60.906C99.1113 60.8093 99.2988 60.6515 99.465 60.4327V58.4628C99.465 58.1854 99.4222 57.9703 99.3366 57.8176C99.251 57.6649 99.1251 57.5593 98.959 57.5007C98.7954 57.4397 98.594 57.4091 98.3548 57.4091C98.2013 57.4091 98.0288 57.4244 97.8375 57.4549C97.6462 57.4829 97.4524 57.5313 97.256 57.6V57.2831C97.4171 57.2246 97.5984 57.1801 97.7997 57.1495C98.0011 57.1164 98.1924 57.0999 98.3737 57.0999C98.6783 57.0999 98.9363 57.1419 99.1478 57.2259C99.3618 57.3099 99.5241 57.4524 99.6349 57.6534C99.7457 57.852 99.8011 58.1243 99.8011 58.4704V61.2878H99.5065L99.4801 60.8068H99.4461C99.3102 60.9773 99.134 61.1109 98.9175 61.2076C98.7035 61.3018 98.4731 61.3489 98.2264 61.3489Z" fill="#151313"/>
<path d="M29.8543 70.3464L31.9511 64.7843H32.3998L34.4965 70.3464H34.1345L32.1245 64.9684H32.2188L30.2088 70.3464H29.8543ZM30.8122 68.4034L30.9065 68.0952H33.4444L33.5349 68.4034H30.8122Z" fill="#151313"/>
<path d="M35.2537 70.3464V66.2838H35.5441L35.5742 66.8325H35.6044C35.7552 66.6446 35.9413 66.5005 36.1625 66.4003C36.3863 66.3001 36.6138 66.25 36.8451 66.25C36.9054 66.25 36.9607 66.2525 37.011 66.2575C37.0613 66.26 37.1116 66.2663 37.1619 66.2763V66.6032C37.1091 66.5957 37.0563 66.5907 37.0035 66.5882C36.9532 66.5857 36.8966 66.5845 36.8338 66.5845C36.693 66.5845 36.5447 66.6083 36.3888 66.6559C36.2354 66.7035 36.0884 66.7761 35.9476 66.8738C35.8093 66.9715 35.6899 67.0943 35.5893 67.2421V70.3464H35.2537Z" fill="#151313"/>
<path d="M37.8463 70.3464V66.2838H38.1819V70.3464H37.8463ZM38.0122 65.2691C37.9293 65.2691 37.8614 65.2453 37.8086 65.1977C37.7583 65.1501 37.7332 65.0849 37.7332 65.0023C37.7332 64.9196 37.7583 64.8532 37.8086 64.8031C37.8614 64.753 37.9293 64.7279 38.0122 64.7279C38.0952 64.7279 38.1618 64.753 38.2121 64.8031C38.2649 64.8532 38.2913 64.9196 38.2913 65.0023C38.2913 65.0849 38.2649 65.1501 38.2121 65.1977C38.1618 65.2453 38.0952 65.2691 38.0122 65.2691Z" fill="#151313"/>
<path d="M39.4372 72V66.2838H39.7314L39.7615 66.7348H39.7879C39.9136 66.5845 40.0745 66.4617 40.2706 66.3665C40.4667 66.2713 40.6867 66.2237 40.9306 66.2237C41.2222 66.2237 41.4874 66.2876 41.7263 66.4153C41.9651 66.5406 42.1549 66.7511 42.2957 67.0467C42.4365 67.3398 42.5069 67.737 42.5069 68.2381C42.5069 68.7341 42.4315 69.1438 42.2806 69.467C42.1323 69.7877 41.9098 70.0257 41.6131 70.181C41.319 70.3364 40.9557 70.414 40.5233 70.414C40.3951 70.414 40.2656 70.4078 40.1349 70.3953C40.0041 70.3827 39.8835 70.3689 39.7729 70.3539V72H39.4372ZM40.5346 70.1096C41.0701 70.1096 41.4736 69.9656 41.7451 69.6774C42.0192 69.3893 42.1562 68.922 42.1562 68.2756C42.1562 67.8222 42.1009 67.4701 41.9902 67.2196C41.8796 66.9665 41.7288 66.7886 41.5377 66.6859C41.3466 66.5832 41.1304 66.5318 40.8891 66.5318C40.6804 66.5318 40.4755 66.5807 40.2744 66.6784C40.0758 66.7736 39.9086 66.9264 39.7729 67.1369V70.0269C39.8759 70.052 39.9953 70.072 40.1311 70.0871C40.2694 70.1021 40.4039 70.1096 40.5346 70.1096Z" fill="#151313"/>
<path d="M44.7391 70.414C44.4952 70.414 44.2778 70.3715 44.0867 70.2863C43.8982 70.1986 43.7498 70.0545 43.6417 69.8541C43.5336 69.6536 43.4796 69.3856 43.4796 69.0498V66.2838H43.819V69.0461C43.819 69.4394 43.9082 69.7138 44.0867 69.8691C44.2652 70.0219 44.4953 70.0984 44.7768 70.0984C44.9151 70.0984 45.0609 70.0771 45.2143 70.0345C45.3701 69.9919 45.5197 69.9242 45.663 69.8315C45.8088 69.7388 45.9383 69.6161 46.0514 69.4632V66.2838H46.3871V70.3464H46.0967L46.0665 69.8841H46.0364C45.8629 70.062 45.663 70.1948 45.4368 70.2825C45.2105 70.3702 44.9779 70.414 44.7391 70.414Z" fill="#151313"/>
<path d="M48.6076 70.4065C48.2381 70.4065 47.9452 70.3126 47.729 70.1247C47.5153 69.9368 47.4084 69.6724 47.4084 69.3317C47.4084 68.9909 47.5191 68.7254 47.7403 68.535C47.9615 68.342 48.3122 68.2193 48.7924 68.1666L49.9954 68.0276L50.018 68.3095L48.7962 68.4523C48.4317 68.4924 48.1689 68.5826 48.008 68.7229C47.8471 68.8607 47.7667 69.0536 47.7667 69.3016C47.7667 69.5647 47.8409 69.7651 47.9892 69.9029C48.1375 70.0407 48.3575 70.1096 48.6491 70.1096C48.8628 70.1096 49.074 70.0633 49.2827 69.9706C49.4913 69.8754 49.6786 69.72 49.8446 69.5046V67.5653C49.8446 67.2922 49.8018 67.0805 49.7163 66.9302C49.6309 66.7799 49.5052 66.6759 49.3392 66.6183C49.1758 66.5581 48.9747 66.5281 48.7359 66.5281C48.5825 66.5281 48.4103 66.5431 48.2192 66.5732C48.0282 66.6007 47.8346 66.6483 47.6385 66.716V66.4041C47.7994 66.3464 47.9804 66.3026 48.1815 66.2725C48.3826 66.24 48.5737 66.2237 48.7547 66.2237C49.0589 66.2237 49.3166 66.265 49.5278 66.3477C49.7415 66.4304 49.9036 66.5707 50.0143 66.7686C50.1249 66.964 50.1802 67.2321 50.1802 67.5729V70.3464H49.886L49.8596 69.8729H49.8257C49.6899 70.0407 49.514 70.1723 49.2977 70.2675C49.0841 70.3602 48.854 70.4065 48.6076 70.4065Z" fill="#151313"/>
<path d="M51.3765 70.3464V66.2838H51.6669L51.6933 66.7611H51.7272C51.9007 66.5882 52.1005 66.4554 52.3268 66.3627C52.5556 66.27 52.7944 66.2237 53.0433 66.2237C53.2947 66.2237 53.5159 66.2675 53.707 66.3552C53.9006 66.4429 54.0514 66.587 54.1595 66.7874C54.2677 66.9853 54.3217 67.2534 54.3217 67.5916V70.3464H53.9823V67.5992C53.9823 67.2033 53.8943 66.9277 53.7183 66.7724C53.5423 66.617 53.3048 66.5394 53.0056 66.5394C52.8698 66.5394 52.724 66.5594 52.5681 66.5995C52.4123 66.6396 52.2589 66.706 52.1081 66.7987C51.9598 66.8914 51.8278 67.0166 51.7121 67.1745V70.3464H51.3765Z" fill="#151313"/>
<path d="M56.4886 70.4065C56.119 70.4065 55.8261 70.3126 55.6099 70.1247C55.3962 69.9368 55.2894 69.6724 55.2894 69.3317C55.2894 68.9909 55.4 68.7254 55.6212 68.535C55.8425 68.342 56.1932 68.2193 56.6734 68.1666L57.8763 68.0276L57.899 68.3095L56.6771 68.4523C56.3126 68.4924 56.0499 68.5826 55.889 68.7229C55.7281 68.8607 55.6476 69.0536 55.6476 69.3016C55.6476 69.5647 55.7218 69.7651 55.8701 69.9029C56.0185 70.0407 56.2384 70.1096 56.5301 70.1096C56.7438 70.1096 56.9549 70.0633 57.1636 69.9706C57.3723 69.8754 57.5596 69.72 57.7255 69.5046V67.5653C57.7255 67.2922 57.6828 67.0805 57.5973 66.9302C57.5118 66.7799 57.3861 66.6759 57.2202 66.6183C57.0568 66.5581 56.8556 66.5281 56.6168 66.5281C56.4634 66.5281 56.2912 66.5431 56.1002 66.5732C55.9091 66.6007 55.7155 66.6483 55.5194 66.716V66.4041C55.6803 66.3464 55.8613 66.3026 56.0625 66.2725C56.2636 66.24 56.4547 66.2237 56.6357 66.2237C56.9399 66.2237 57.1975 66.265 57.4087 66.3477C57.6224 66.4304 57.7846 66.5707 57.8952 66.7686C58.0058 66.964 58.0611 67.2321 58.0611 67.5729V70.3464H57.767L57.7406 69.8729H57.7066C57.5709 70.0407 57.3949 70.1723 57.1787 70.2675C56.965 70.3602 56.735 70.4065 56.4886 70.4065ZM57.2617 65.1902C57.1586 65.1902 57.0593 65.1739 56.9637 65.1413C56.8707 65.1062 56.7802 65.0699 56.6922 65.0323C56.6143 64.9998 56.5376 64.9697 56.4622 64.9421C56.3868 64.9146 56.3101 64.9008 56.2322 64.9008C56.119 64.9008 56.016 64.9233 55.9229 64.9684C55.8299 65.011 55.7419 65.0787 55.659 65.1714V64.8782C55.7997 64.7204 55.9921 64.6415 56.2359 64.6415C56.339 64.6415 56.437 64.659 56.5301 64.6941C56.6256 64.7267 56.7174 64.7617 56.8054 64.7993C56.8858 64.8344 56.9637 64.8657 57.0392 64.8933C57.1146 64.9208 57.19 64.9346 57.2654 64.9346C57.3811 64.9346 57.4842 64.9121 57.5747 64.867C57.6677 64.8219 57.7557 64.753 57.8386 64.6603V64.9572C57.6979 65.1125 57.5055 65.1902 57.2617 65.1902Z" fill="#151313"/>
<path d="M63.6033 70.3877C63.01 70.3877 62.5122 70.2913 62.11 70.0984C61.7077 69.9029 61.4023 69.5985 61.1936 69.1851C60.9874 68.7717 60.8844 68.2343 60.8844 67.5729C60.8844 66.8839 60.9912 66.3314 61.2049 65.9155C61.4186 65.4971 61.7165 65.1927 62.0986 65.0023C62.4808 64.8118 62.9245 64.7166 63.4298 64.7166C63.6385 64.7166 63.8459 64.7317 64.0521 64.7617C64.2582 64.7893 64.4656 64.8319 64.6743 64.8895V65.209C64.4355 65.1413 64.2155 65.095 64.0143 65.0699C63.8157 65.0423 63.6222 65.0286 63.4336 65.0286C62.9962 65.0286 62.6128 65.11 62.2834 65.2728C61.9566 65.4332 61.7014 65.6988 61.5179 66.0696C61.3344 66.4404 61.2426 66.9402 61.2426 67.5691C61.2426 68.1679 61.3306 68.6515 61.5066 69.0198C61.6826 69.3856 61.944 69.6524 62.291 69.8203C62.6404 69.9881 63.0754 70.0721 63.5958 70.0721C63.7868 70.0721 63.9616 70.0645 64.1199 70.0495C64.2808 70.0345 64.4329 70.0132 64.5762 69.9856L64.4556 70.1435V67.6405H64.7874V70.2825C64.5536 70.3226 64.3462 70.3502 64.1652 70.3652C63.9842 70.3802 63.7969 70.3877 63.6033 70.3877Z" fill="#151313"/>
<path d="M67.233 70.414C66.9891 70.414 66.7716 70.3715 66.5806 70.2863C66.392 70.1986 66.2437 70.0545 66.1356 69.8541C66.0275 69.6536 65.9734 69.3856 65.9734 69.0498V66.2838H66.3128V69.0461C66.3128 69.4394 66.4021 69.7138 66.5806 69.8691C66.7591 70.0219 66.9891 70.0984 67.2707 70.0984C67.4089 70.0984 67.5548 70.0771 67.7081 70.0345C67.864 69.9919 68.0136 69.9242 68.1569 69.8315C68.3027 69.7388 68.4322 69.6161 68.5453 69.4632V66.2838H68.8809V70.3464H68.5905L68.5604 69.8841H68.5302C68.3567 70.062 68.1569 70.1948 67.9306 70.2825C67.7043 70.3702 67.4718 70.414 67.233 70.414Z" fill="#151313"/>
<path d="M71.1015 70.4065C70.7319 70.4065 70.439 70.3126 70.2228 70.1247C70.0091 69.9368 69.9023 69.6724 69.9023 69.3317C69.9023 68.9909 70.0129 68.7254 70.2341 68.535C70.4554 68.342 70.8061 68.2193 71.2863 68.1666L72.4892 68.0276L72.5119 68.3095L71.29 68.4523C70.9255 68.4924 70.6628 68.5826 70.5019 68.7229C70.341 68.8607 70.2605 69.0536 70.2605 69.3016C70.2605 69.5647 70.3347 69.7651 70.483 69.9029C70.6314 70.0407 70.8513 70.1096 71.143 70.1096C71.3567 70.1096 71.5678 70.0633 71.7765 69.9706C71.9852 69.8754 72.1725 69.72 72.3384 69.5046V67.5653C72.3384 67.2922 72.2957 67.0805 72.2102 66.9302C72.1247 66.7799 71.999 66.6759 71.8331 66.6183C71.6697 66.5581 71.4685 66.5281 71.2297 66.5281C71.0763 66.5281 70.9041 66.5431 70.7131 66.5732C70.522 66.6007 70.3284 66.6483 70.1323 66.716V66.4041C70.2932 66.3464 70.4742 66.3026 70.6754 66.2725C70.8765 66.24 71.0675 66.2237 71.2486 66.2237C71.5528 66.2237 71.8104 66.265 72.0216 66.3477C72.2353 66.4304 72.3975 66.5707 72.5081 66.7686C72.6187 66.964 72.674 67.2321 72.674 67.5729V70.3464H72.3799L72.3535 69.8729H72.3195C72.1838 70.0407 72.0078 70.1723 71.7916 70.2675C71.5779 70.3602 71.3479 70.4065 71.1015 70.4065Z" fill="#151313"/>
<path d="M73.8703 70.3464V66.2838H74.1607L74.1909 66.8325H74.221C74.3719 66.6446 74.5579 66.5005 74.7792 66.4003C75.0029 66.3001 75.2304 66.25 75.4617 66.25C75.5221 66.25 75.5774 66.2525 75.6277 66.2575C75.6779 66.26 75.7282 66.2663 75.7785 66.2763V66.6032C75.7257 66.5957 75.6729 66.5907 75.6201 66.5882C75.5698 66.5857 75.5133 66.5845 75.4504 66.5845C75.3096 66.5845 75.1613 66.6083 75.0054 66.6559C74.8521 66.7035 74.705 66.7761 74.5642 66.8738C74.4259 66.9715 74.3065 67.0943 74.206 67.2421V70.3464H73.8703Z" fill="#151313"/>
<path d="M76.463 70.3464V66.2838H76.7986V70.3464H76.463ZM76.6289 65.2691C76.5459 65.2691 76.478 65.2453 76.4252 65.1977C76.375 65.1501 76.3498 65.0849 76.3498 65.0023C76.3498 64.9196 76.375 64.8532 76.4252 64.8031C76.478 64.753 76.5459 64.7279 76.6289 64.7279C76.7118 64.7279 76.7785 64.753 76.8287 64.8031C76.8815 64.8532 76.9079 64.9196 76.9079 65.0023C76.9079 65.0849 76.8815 65.1501 76.8287 65.1977C76.7785 65.2453 76.7118 65.2691 76.6289 65.2691Z" fill="#151313"/>
<path d="M79.1663 70.414C78.9778 70.414 78.7867 70.4003 78.5931 70.3727C78.4021 70.3451 78.2223 70.3051 78.0539 70.2524V64.2732H78.3895V66.7122H78.4159C78.5416 66.5719 78.7025 66.4554 78.8986 66.3627C79.0972 66.27 79.3235 66.2237 79.5774 66.2237C79.859 66.2237 80.1166 66.2876 80.3504 66.4153C80.5868 66.5406 80.7741 66.7511 80.9123 67.0467C81.0531 67.3398 81.1235 67.737 81.1235 68.2381C81.1235 68.9822 80.9551 69.5309 80.6182 69.8841C80.2838 70.2374 79.7999 70.414 79.1663 70.414ZM79.189 70.1096C79.7043 70.1096 80.0965 69.9656 80.3655 69.6774C80.637 69.3893 80.7728 68.922 80.7728 68.2756C80.7728 67.8222 80.7175 67.4701 80.6069 67.2196C80.4963 66.9665 80.3467 66.7899 80.1581 66.6897C79.9696 66.587 79.7584 66.5356 79.5246 66.5356C79.3084 66.5356 79.0985 66.5819 78.8948 66.6747C78.6937 66.7674 78.5253 66.9114 78.3895 67.1068V70.0006C78.4926 70.0307 78.6145 70.057 78.7553 70.0796C78.8961 70.0996 79.0406 70.1096 79.189 70.1096Z" fill="#151313"/>
<path d="M83.1144 70.4065C82.7448 70.4065 82.452 70.3126 82.2358 70.1247C82.0221 69.9368 81.9152 69.6724 81.9152 69.3317C81.9152 68.9909 82.0258 68.7254 82.2471 68.535C82.4683 68.342 82.819 68.2193 83.2992 68.1666L84.5022 68.0276L84.5248 68.3095L83.303 68.4523C82.9384 68.4924 82.6757 68.5826 82.5148 68.7229C82.3539 68.8607 82.2735 69.0536 82.2735 69.3016C82.2735 69.5647 82.3476 69.7651 82.496 69.9029C82.6443 70.0407 82.8643 70.1096 83.1559 70.1096C83.3696 70.1096 83.5808 70.0633 83.7894 69.9706C83.9981 69.8754 84.1854 69.72 84.3513 69.5046V67.5653C84.3513 67.2922 84.3086 67.0805 84.2231 66.9302C84.1376 66.7799 84.0119 66.6759 83.846 66.6183C83.6826 66.5581 83.4815 66.5281 83.2426 66.5281C83.0893 66.5281 82.9171 66.5431 82.726 66.5732C82.5349 66.6007 82.3413 66.6483 82.1452 66.716V66.4041C82.3061 66.3464 82.4872 66.3026 82.6883 66.2725C82.8894 66.24 83.0805 66.2237 83.2615 66.2237C83.5657 66.2237 83.8234 66.265 84.0345 66.3477C84.2482 66.4304 84.4104 66.5707 84.521 66.7686C84.6316 66.964 84.6869 67.2321 84.6869 67.5729V70.3464H84.3928L84.3664 69.8729H84.3325C84.1967 70.0407 84.0207 70.1723 83.8045 70.2675C83.5908 70.3602 83.3608 70.4065 83.1144 70.4065Z" fill="#151313"/>
<path fill-rule="evenodd" clip-rule="evenodd" d="M19.053 19.3803C24.408 19.3803 28.7506 15.0427 28.7506 9.69015C28.7506 4.33932 24.408 0 19.053 0C13.698 0 9.35537 4.33932 9.35537 9.69015C9.35537 15.041 13.698 19.3803 19.053 19.3803ZM24.0494 6.69951V6.71005C25.1496 7.05775 25.9492 8.08507 25.9492 9.30029C25.9492 10.4488 25.2357 11.4269 24.2269 11.8238C23.9194 11.729 23.6575 11.5024 23.5345 11.1793L23.5152 11.1881H23.5011C23.5591 11.4954 23.7384 11.7483 23.9791 11.9081L23.9651 11.9116C23.6189 12.8037 22.7542 13.4377 21.7401 13.4377C21.2498 13.4377 20.7964 13.2919 20.4185 13.039C20.3289 14.918 20.7894 17.3731 21.3271 17.3731H16.7788C17.3149 17.3731 17.7753 14.918 17.6874 13.039C17.3078 13.2919 16.8544 13.4394 16.3658 13.4394C15.5311 13.4394 14.7964 13.0092 14.3711 12.3577C14.22 11.8993 14.394 11.3778 14.8228 11.1108L14.8123 11.0933L14.8087 11.081C14.4397 11.225 14.1954 11.5463 14.1286 11.9081C12.9898 11.585 12.1567 10.5401 12.1567 9.30029C12.1567 8.13424 12.8949 7.14029 13.9283 6.7557C14.3061 6.72585 14.6857 6.89619 14.9089 7.23336L14.9247 7.22283L14.937 7.21756C14.7736 6.83648 14.4203 6.59414 14.0337 6.55375C14.0214 6.45541 14.0144 6.35707 14.0144 6.25522C14.0144 4.76956 15.2077 3.56487 16.691 3.54205V3.53502C16.865 3.77736 16.937 4.08995 16.865 4.40253L16.8843 4.4078L16.8966 4.41307C17.0653 4.02497 16.9915 3.59122 16.7419 3.28214C17.0056 2.25131 17.9388 1.48917 19.0512 1.48917C20.2568 1.48917 21.2516 2.38302 21.4115 3.5438H21.4168C21.4115 3.89502 21.2322 4.2357 20.9124 4.4359L20.9229 4.4517L20.9282 4.464C21.3236 4.3077 21.5785 3.9477 21.6206 3.55258C23.0055 3.67726 24.0899 4.83805 24.0899 6.25346C24.0899 6.32722 24.0863 6.39922 24.0793 6.47122C23.8385 6.66614 23.5169 6.7557 23.19 6.68897L23.1865 6.70829L23.1813 6.72058C23.473 6.83824 23.7858 6.82068 24.0494 6.69951Z" fill="#151313"/>
<path d="M69.137 3.55785C69.4639 3.48058 69.7784 3.33307 70.383 3.33307C69.7784 3.33307 69.4656 3.48234 69.137 3.55785ZM69.0561 3.57541C69.0772 3.5719 69.0983 3.56663 69.1176 3.56312C69.0966 3.56839 69.0772 3.5719 69.0561 3.57541ZM69.0438 3.57717C69.0438 3.57717 69.0473 3.57717 69.0491 3.57717C69.0491 3.57717 69.0456 3.57717 69.0438 3.57717ZM70.2969 12.0012C70.2969 12.0012 71.6712 11.7957 72.4304 11.0775C71.673 11.7975 70.2969 12.0012 70.2969 12.0012Z" fill="#151313"/>
<path fill-rule="evenodd" clip-rule="evenodd" d="M70.2196 19.3803C75.5745 19.3803 79.9172 15.0427 79.9172 9.69015C79.9172 4.33932 75.5763 0 70.2196 0C64.8628 0 60.5219 4.33932 60.5219 9.69015C60.5219 15.041 64.8646 19.3803 70.2196 19.3803ZM64.4481 14.6125C64.4481 14.6125 64.7135 15.0498 66.0087 15.4396H66.007C67.304 15.8295 67.7644 15.6117 67.7644 15.6117C67.4885 16.5266 66.5219 17.0447 65.6063 16.769C64.6906 16.4933 64.1722 15.5274 64.4481 14.6125ZM69.0491 16.3862C69.0491 16.3862 69.4604 16.6864 70.8066 16.5477C72.1528 16.409 72.4937 16.0297 72.4937 16.0297C72.5921 16.9797 71.9015 17.8314 70.9507 17.9298C69.9999 18.0281 69.1475 17.338 69.0491 16.3862ZM65.6739 16.3817C64.5997 16.1361 64.5641 14.9268 64.5641 14.9268C64.3353 15.5031 64.9145 16.5093 65.6739 16.6829C66.5852 16.8913 67.3229 16.3811 67.5518 15.8049C67.5518 15.8049 66.7482 16.6283 65.6739 16.3828V16.3817ZM69.2213 16.5952C69.2213 16.5952 69.664 17.6643 70.897 17.561C72.1299 17.4589 72.3762 16.3317 72.3762 16.3317C72.4663 17.0306 71.7662 17.752 70.8954 17.8244C70.0245 17.898 69.3115 17.2954 69.2213 16.5952ZM63.833 10.6806C63.942 11.0213 64.2443 11.1811 64.2443 11.1811L64.2452 11.1827C64.2435 11.184 64.2425 11.1846 64.2425 11.1846L64.5518 11.7114C64.5518 11.7114 64.5905 11.8976 64.7065 12.0064C64.8224 12.1171 65.0474 12.1873 65.0474 12.1873L65.0507 12.1908C65.0625 12.2463 65.1441 12.6124 65.2513 12.6773C65.3012 12.7075 65.3933 12.7331 65.4871 12.7593C65.5951 12.7894 65.7054 12.8201 65.7562 12.8591C65.7618 12.8662 65.7674 12.8735 65.7732 12.881L65.7818 12.8925L65.7883 12.9012C65.872 13.0145 66.1265 13.3587 66.4024 13.4851C66.5453 13.5512 66.7384 13.5414 66.9438 13.531L66.949 13.5307C67.1686 13.5202 67.4041 13.5097 67.6098 13.5887C67.6422 13.6014 67.6743 13.6156 67.7059 13.6296C67.8353 13.6867 67.9566 13.7403 68.0597 13.6782C68.0664 13.6742 68.0724 13.6696 68.0777 13.6646C68.0947 13.6538 68.1105 13.6426 68.1259 13.6319C68.2101 13.5729 68.2786 13.5249 68.4259 13.5883C68.4369 13.5958 68.449 13.603 68.4621 13.6098C68.4782 13.618 68.5031 13.6377 68.5355 13.6634C68.6625 13.7643 68.906 13.9576 69.1985 13.9171C69.8031 13.831 70.6291 13.3042 70.6291 13.3042C70.6291 13.3042 71.137 12.823 71.3356 12.8423C71.3492 12.8437 71.3617 12.8429 71.3734 12.8403C71.5378 12.8382 71.7356 12.7243 71.8582 12.6536C71.8745 12.6442 71.8894 12.6356 71.9028 12.6282L71.9041 12.6276C71.9056 12.627 71.907 12.6263 71.9085 12.6256C71.9102 12.6247 71.912 12.6238 71.9138 12.6228C71.9175 12.6208 71.9212 12.6185 71.9251 12.6161C71.975 12.5911 72.0784 12.5579 72.1894 12.5222C72.3555 12.4687 72.5386 12.4098 72.5854 12.365C72.5899 12.3629 72.5933 12.3588 72.5957 12.3524L72.5968 12.3493L72.5985 12.3445C72.6445 12.2615 73.0853 11.9376 73.1313 11.9039L73.1352 11.9028C73.1352 11.9028 74.267 10.9791 74.55 10.5805C74.7721 10.2675 74.8199 10.1407 74.9296 9.84908C74.9597 9.76929 74.9944 9.67713 75.0385 9.56546C75.1908 9.18056 75.2476 8.54725 75.2855 8.12609C75.2987 7.97851 75.3096 7.85691 75.3215 7.78127C75.35 7.59962 75.3177 7.49707 75.2893 7.40691C75.2722 7.35239 75.2565 7.30236 75.2565 7.24214V6.38166C75.2565 6.38166 75.2178 5.87414 75.1282 5.61073C75.0845 5.48246 75.0471 5.42248 75.0127 5.36733C74.9765 5.30922 74.9436 5.25645 74.9102 5.13483C74.9066 5.12104 74.9025 5.10786 74.898 5.09519C74.8375 4.87762 74.7832 4.7173 74.6502 4.57112C74.5816 4.49575 74.4871 4.47803 74.3926 4.46029C74.2972 4.4424 74.2018 4.4245 74.133 4.34735C74.1308 4.34471 74.1286 4.34203 74.1264 4.33931C74.1219 4.33371 74.1173 4.32796 74.1128 4.3221C74.0585 4.24744 74.0279 4.1489 73.9972 4.05034C73.9581 3.92483 73.919 3.79924 73.8312 3.72292C73.6815 3.59142 73.618 3.53685 73.4001 3.37053C73.3862 3.35908 73.3712 3.3472 73.3549 3.33483C73.1816 3.20317 73.0476 3.08354 72.9204 2.96997C72.8592 2.91538 72.7996 2.8622 72.738 2.80975C72.6853 2.76409 72.6115 2.70966 72.5306 2.65346C73.0772 2.78868 74.6572 3.33834 75.557 4.36917V4.37092C77.597 7.1017 77.1296 9.65237 76.8977 10.918C76.8872 10.975 76.8773 11.0293 76.8681 11.081C76.7134 11.6622 75.7116 14.3807 72.7134 15.4466C72.0122 15.696 71.0931 15.8242 70.3057 15.8751C69.5166 15.926 67.5465 15.3781 67.5465 15.3781C67.5465 15.3781 66.1669 14.9251 65.6959 14.4369C65.2249 13.9487 64.8224 13.4183 64.8224 13.4183C64.8224 13.4183 63.5834 12.4033 63.2987 10.6068C63.0755 9.19559 63.4033 8.07149 63.5671 7.50957C63.5865 7.4431 63.6036 7.38445 63.6172 7.33417C63.6021 7.43278 63.5933 7.55138 63.6028 7.68117C63.6163 7.86523 63.6435 7.93452 63.6646 7.9881C63.6848 8.03932 63.6993 8.07617 63.6907 8.18517C63.6837 8.27314 63.6544 8.32422 63.6208 8.38261C63.5693 8.47224 63.5079 8.57909 63.5026 8.86302C63.4984 9.08668 63.5542 9.21245 63.6074 9.33238C63.6658 9.46385 63.721 9.58835 63.6907 9.82712C63.6784 9.9237 63.6696 10.0098 63.6625 10.087C63.6625 10.087 63.7223 10.3399 63.8313 10.6806H63.833ZM66.5306 11.9134C66.5306 11.9134 65.3268 11.0722 65.0772 10.6033L65.0825 10.6051C64.9602 10.3752 64.9519 10.1917 64.9433 10.0024C64.9344 9.80549 64.9252 9.6022 64.7873 9.33366C64.5488 8.86655 64.6766 8.0184 64.7588 7.47225C64.7693 7.40243 64.7791 7.33755 64.7873 7.27903C64.8593 6.76274 65.5711 5.89171 65.5711 5.89171L66.5219 4.95395C66.5219 4.95395 67.1124 4.35161 67.5236 4.20937C67.6698 4.15941 67.8194 4.07526 67.9815 3.98407C68.2752 3.81882 68.6099 3.63048 69.0403 3.58069C69.1556 3.55992 69.2658 3.52779 69.3833 3.49352C69.6631 3.41187 69.9848 3.31804 70.5183 3.33659C71.2758 3.36293 71.6484 3.56839 71.6484 3.56839C71.6484 3.56839 72.4322 3.6843 72.6642 4.01795C72.803 4.24049 72.9302 4.33271 73.0612 4.42768C73.2321 4.55155 73.4094 4.68008 73.6273 5.10849C73.6908 5.2524 73.7439 5.3458 73.7892 5.42557C73.9182 5.65243 73.9845 5.7691 74.0508 6.624C74.0775 6.82774 74.1111 6.9693 74.1407 7.09389C74.2103 7.38704 74.2576 7.58618 74.1404 8.28C73.9735 9.26869 73.6519 9.56371 73.6519 9.56371C73.6519 9.56371 73.1897 10.3592 72.4304 11.0792C71.6712 11.7975 70.2969 12.0029 70.2969 12.0029C70.2969 12.0029 69.3197 12.4525 68.0473 12.4139C66.7749 12.3752 66.5306 11.9134 66.5306 11.9134Z" fill="#151313"/>
<path d="M45.6574 4.93991C45.7892 6.49054 45.3165 6.74166 45.0862 7.31064C44.7136 8.21327 44.7488 9.69015 45.32 9.69015C46.0669 9.62342 46.9737 8.3362 49.5361 7.33698C51.2039 6.68722 52.1529 6.75044 53.6819 7.09113C53.7891 7.11571 53.8963 7.14557 54.0018 7.17893C52.9139 3.11181 49.2426 0.101859 44.8507 0.00527344C44.6223 0.470639 44.4377 0.864005 44.3692 1.15025C44.2497 2.57093 45.5168 3.27513 45.6574 4.93991Z" fill="#151313"/>
<path d="M42.4131 12.2259C42.8085 10.8351 42.1425 10.8228 42.6556 9.37405C43.1003 8.11668 44.443 7.6759 44.5748 5.37892C44.6591 3.90205 43.0669 3.65268 43.3885 1.06244C43.4359 0.672583 43.5203 0.342437 43.6258 0.0526808C38.7453 0.558437 34.9404 4.68 34.9404 9.69014C34.9404 13.1128 36.719 16.1192 39.4008 17.8437C39.4448 17.0289 39.5256 16.0367 40.3147 14.8777C41.8173 12.6685 42.2005 12.9846 42.4166 12.2259" fill="#151313"/>
<path d="M48.9877 9.31259C47.0123 10.4804 47.1424 11.6271 45.3639 13.0917C43.2672 14.818 43.0212 13.0864 41.4096 15.3536C40.8261 16.1754 40.8015 17.4503 40.7189 18.5532C41.9175 19.0835 43.2409 19.3785 44.6363 19.3785C49.993 19.3785 54.3339 15.0392 54.3339 9.68839C54.3339 9.30381 54.3093 8.92625 54.2654 8.55396C54.014 8.48722 53.7908 8.42752 53.5518 8.37835C51.5888 7.96918 50.6485 8.32918 48.9877 9.31083" fill="#151313"/>
<path d="M45.3165 10.7491C45.3042 10.1819 44.8472 9.98868 44.4606 9.83239C43.7857 9.56019 43.0458 10.4857 43.3305 11.1126C43.6838 11.729 43.3797 12.456 43.8349 12.6878C44.2901 12.9214 45.6152 11.9239 45.7312 11.6183C45.8472 11.3128 45.3305 11.3163 45.3182 10.7491" fill="#151313"/>
<path d="M18.0513 49.9048L16.3325 44.0499H8.00039L6.29918 49.9048H0.329102L7.69811 26.1641H16.7191L24.0881 49.9048H18.0513ZM9.41514 39.2049H14.9212L12.1603 29.8062L9.41514 39.2049Z" fill="#151313"/>
<path d="M28.9106 49.9539C27.7173 49.7731 26.6241 49.5149 25.6277 49.183V44.2273C26.6118 44.5592 27.7313 44.8209 28.9826 45.014C30.234 45.2055 31.4062 45.302 32.4976 45.302C33.8877 45.302 34.8807 45.1159 35.4747 44.7419C36.0687 44.3678 36.3657 43.8217 36.3657 43.1052C36.3657 42.71 36.2796 42.3817 36.1091 42.1182C35.9387 41.8566 35.6381 41.6213 35.2093 41.414C34.7805 41.2051 34.1654 40.9943 33.364 40.7801L31.4062 40.2673C29.2656 39.744 27.661 38.9116 26.5907 37.7737C25.5205 36.634 24.9862 35.1448 24.9862 33.3061C24.9862 30.9214 25.8614 29.0827 27.6101 27.7885C29.3605 26.4942 31.9527 25.848 35.3868 25.848C36.4676 25.848 37.5063 25.9095 38.501 26.0324C39.4957 26.1553 40.3956 26.3239 41.1987 26.5381V31.4956C40.4606 31.2708 39.61 31.0935 38.6469 30.9653C37.6838 30.8371 36.7207 30.7721 35.7576 30.7721C34.0564 30.7721 32.8543 30.9653 32.1531 31.3499C31.4519 31.7362 31.1021 32.2806 31.1021 32.9865C31.1021 33.35 31.1777 33.6574 31.3271 33.9085C31.4765 34.1596 31.7366 34.3826 32.1056 34.574C32.4747 34.7655 32.9967 34.9534 33.6715 35.136L35.6293 35.633C37.9843 36.2107 39.7154 37.0677 40.8226 38.2074C41.9298 39.3454 42.4834 40.8416 42.4834 42.6907C42.4834 44.2308 42.088 45.5672 41.2954 46.7017C40.5028 47.8361 39.3604 48.7071 37.8683 49.3165C36.3763 49.9258 34.596 50.2314 32.5309 50.2314C31.3113 50.2314 30.1039 50.1401 28.9106 49.9592V49.9539Z" fill="#151313"/>
<path d="M61.1212 49.9048L59.4042 44.0499H51.0721L49.3709 49.9048H43.3991L50.7681 26.1641H59.7891L67.1581 49.9048H61.1212ZM52.4851 39.2049H57.9912L55.2302 29.8062L52.4851 39.2049Z" fill="#151313"/>
<path d="M88.7309 38.3549V49.6642C86.4936 50.0277 84.4444 50.2086 82.5815 50.2086C77.8627 50.2086 74.3355 49.2094 72.0034 47.2092C69.6712 45.209 68.5043 42.1727 68.5043 38.0985C68.5043 34.0244 69.7011 31.0302 72.093 28.9563C74.4849 26.8823 78.0033 25.8445 82.6483 25.8445C84.52 25.8445 86.3073 26.0359 88.0085 26.4222V31.4429C86.4251 31.0899 84.824 30.9126 83.2089 30.9126C81.2388 30.9126 79.6501 31.1619 78.4409 31.6589C77.2318 32.1559 76.3408 32.9374 75.7679 34.0016C75.1949 35.0658 74.9137 36.4636 74.9243 38.1951C74.9243 40.5904 75.5095 42.3553 76.6817 43.4898C77.854 44.6242 79.6536 45.1896 82.0842 45.1896C82.4901 45.1896 82.8012 45.1844 83.0156 45.1739V38.3567H88.7309V38.3549Z" fill="#151313"/>
<path d="M108.492 49.9048L106.773 44.0499H98.4425L96.7413 49.9048H90.7695L98.1385 26.1641H107.16L114.529 49.9048H108.492ZM99.8555 39.2049H105.362L102.601 29.8062L99.8555 39.2049Z" fill="#151313"/>
<path fill-rule="evenodd" clip-rule="evenodd" d="M105.425 9.64203C105.425 14.9914 101.122 19.3171 95.7589 19.3171C90.4294 19.3171 86.0929 14.9583 86.0929 9.64203C86.0929 4.3257 90.4294 0 95.7589 0C101.088 0 105.425 4.29268 105.425 9.64203ZM100.382 16.9027C100.361 17.3415 100.342 17.7253 100.393 17.9962V17.9632C100.824 17.7321 101.221 17.4679 101.618 17.1707C100.963 16.277 100.898 14.7933 100.854 13.774C100.832 13.2493 100.814 12.8476 100.724 12.7129C100.46 12.3497 100.128 12.0856 99.5657 11.9865C99.5326 12.1186 99.2815 12.2064 99.1313 12.2544C98.6215 12.4173 97.9557 12.3805 97.4285 12.1171C96.9013 11.8537 96.5203 11.4582 96.1892 10.9959L95.9906 11.0949C95.5702 11.3047 95.1339 11.3883 94.7127 11.469C94.2717 11.5535 93.8473 11.6349 93.4748 11.8544C93.2431 11.9865 93.0114 12.2176 92.8128 12.5809C92.5479 13.1092 92.0514 16.6754 92.0514 18.2934C92.5876 18.5906 92.8289 18.6471 93.3784 18.7757C93.4395 18.79 93.5045 18.8052 93.5741 18.8218C93.8389 18.8878 94.1038 18.9538 94.3686 18.9869C94.3686 18.8878 94.501 17.4349 94.5672 17.0717C94.6209 17.259 94.5875 18.3572 94.573 18.8372C94.5696 18.9494 94.5672 19.0279 94.5672 19.0529C94.8982 19.1189 95.4279 19.119 95.792 19.119C96.9506 19.119 98.0761 18.9208 99.1023 18.5246C99.4995 18.3925 99.8968 18.1944 100.261 17.9962C100.221 17.7144 100.242 17.0887 100.264 16.4187C100.279 15.99 100.294 15.543 100.294 15.1565C100.305 15.2005 100.32 15.2445 100.334 15.2886C100.364 15.3766 100.393 15.4647 100.393 15.5527C100.426 16.0193 100.403 16.4858 100.382 16.9027ZM100.989 11.0289C101.386 10.9629 101.618 10.7977 101.717 10.5006V10.5996C101.817 10.3024 102.181 7.52871 102.181 7.0334V6.83527C102.181 6.83527 100.426 7.13246 99.3671 6.73621C99.0361 6.83527 98.8375 7.00038 98.7382 7.16548C98.672 7.33058 98.6057 7.49568 98.5064 7.66079C98.4402 7.89193 98.3078 8.09006 97.9106 8.22214C97.8444 8.25516 97.7782 8.28818 97.6789 8.28818C97.7451 8.98161 97.4472 9.1137 97.4141 9.1137C97.3478 9.70807 96.9506 10.6326 96.421 11.0289C96.752 11.5242 97.2154 11.8874 97.712 12.0856C97.7393 12.0946 97.7691 12.1062 97.8 12.1182C97.8816 12.1499 97.971 12.1846 98.043 12.1846C98.4733 12.3167 99.1347 12.1516 99.3996 11.9865C99.3996 11.9865 99.4664 11.6563 99.5657 11.3921C99.7183 10.9355 99.783 10.9503 100.032 11.0069C100.215 11.0485 100.498 11.1129 100.989 11.0289ZM101.155 4.9531C100.261 4.49081 98.9368 4.52383 97.9106 4.98612H97.9768C97.2816 5.38236 97.1161 6.10882 97.1161 6.90131V7.1985C97.1272 7.27555 97.1419 7.35259 97.1566 7.42964C97.186 7.58374 97.2154 7.73783 97.2154 7.89193V8.02402C97.2291 8.10599 97.2541 8.19362 97.2788 8.27988C97.3137 8.40211 97.3478 8.52159 97.3478 8.61839V8.98161C97.4471 8.91557 97.5495 8.69418 97.5164 8.16585C97.5826 8.13283 97.7451 8.09006 97.8113 8.09006C98.2085 7.95797 98.3409 7.66079 98.4402 7.42964C98.4661 7.36501 98.4921 7.31049 98.516 7.26016C98.5532 7.18192 98.5856 7.11377 98.6057 7.0334C98.6719 6.86829 99.003 6.60413 99.334 6.50507C100.426 6.86829 102.181 6.60413 102.181 6.60413C102.311 5.5294 101.573 5.16132 101.171 4.96135C101.166 4.95856 101.16 4.95581 101.155 4.9531ZM94.7327 6.17486H94.6665V6.33996H94.832C94.9313 6.33996 95.1962 6.37298 95.3617 6.50507C95.5272 6.63715 95.6265 6.80225 95.6927 6.96735C95.7258 7.0334 95.7258 7.09944 95.7258 7.13246C95.7165 7.14173 95.7046 7.15621 95.6908 7.17296C95.6555 7.2159 95.6079 7.27381 95.5603 7.29756C95.5603 7.29756 95.4941 7.33058 95.4941 7.3636C95.4941 7.26454 95.461 7.16548 95.3948 7.0334C95.3286 6.93434 95.2624 6.83526 95.1631 6.73621C94.9976 6.60413 94.7658 6.53809 94.6665 6.53809H94.4017C94.347 6.53809 94.3024 6.5581 94.2623 6.57609C94.2295 6.59078 94.1997 6.60413 94.17 6.60413C94.1038 6.63715 93.9383 6.70319 93.9051 6.70319L93.8059 6.80224C94.0045 6.53808 94.0045 6.20788 94.0045 6.14184C94.002 6.12734 93.9996 6.11161 93.997 6.09477C93.9642 5.8816 93.9043 5.4927 93.4748 5.21726C93.2762 5.1182 93.0445 5.1182 92.9452 5.1182C92.9452 5.1377 92.899 5.14569 92.8407 5.15576C92.8003 5.16274 92.7541 5.17072 92.7135 5.18424C92.6473 5.20625 92.6105 5.22827 92.5737 5.25028C92.5553 5.26129 92.5369 5.2723 92.5148 5.2833C92.4884 5.29651 92.4513 5.32028 92.4142 5.34406C92.3586 5.37972 92.303 5.41538 92.2831 5.41538C92.2666 5.43189 92.2417 5.47317 92.2169 5.51444C92.1921 5.55572 92.1673 5.597 92.1507 5.61351C92.1507 5.63002 92.1342 5.66304 92.1176 5.69606C92.1011 5.72908 92.0845 5.7621 92.0845 5.77861C92.0756 5.78746 92.0668 5.79394 92.0585 5.79995C92.036 5.81637 92.0183 5.82933 92.0183 5.87767V6.00976C91.9852 6.04278 91.9852 6.0758 91.9852 6.10882V6.27392C91.9977 6.29884 92.0055 6.34255 92.0156 6.39974C92.0324 6.49415 92.0558 6.62529 92.1176 6.76923V6.83527C92.1507 6.86829 92.1838 6.93433 92.1838 6.93433C92.2169 6.90131 92.3493 6.83527 92.3493 6.83527C92.4486 6.80225 92.581 6.80225 92.581 6.80225C92.6473 6.76923 92.7797 6.76923 92.9121 6.80225C92.9452 6.80225 93.0114 6.83527 93.0776 6.86828C93.21 6.96735 93.3093 7.06642 93.3755 7.16548C93.4147 7.13943 93.4539 7.11852 93.491 7.09869C93.548 7.06825 93.6002 7.04037 93.6403 7.00037L93.541 7.09944C93.5079 7.16548 93.5079 7.23152 93.5079 7.23152C93.4748 7.23152 93.4417 7.26454 93.4417 7.29756V7.52871C93.4317 7.50871 93.4217 7.48569 93.4107 7.46056C93.3855 7.40268 93.3555 7.33361 93.3093 7.26454C93.2431 7.16548 93.1438 7.06642 93.0114 6.96735C92.8459 6.86829 92.581 6.86829 92.4817 6.86829C92.4486 6.86829 92.3162 6.90131 92.2169 6.93433C92.17 6.94994 92.1378 6.97291 92.11 6.9928C92.0789 7.01502 92.0532 7.0334 92.0183 7.0334C91.9918 7.0466 91.9547 7.07038 91.9177 7.09415C91.862 7.12982 91.8064 7.16548 91.7866 7.16548C91.77 7.18199 91.7452 7.22326 91.7204 7.26454C91.6955 7.30582 91.6707 7.34709 91.6542 7.3636C91.6542 7.38011 91.6376 7.41313 91.6211 7.44615C91.6045 7.47917 91.588 7.5122 91.588 7.52871C91.588 7.56173 91.5549 7.59475 91.5549 7.59475V7.46266L91.5218 7.42964V7.3636L91.4555 7.29756C91.437 7.29756 91.4288 7.27674 91.4194 7.25263C91.412 7.2338 91.4039 7.21298 91.3893 7.1985C91.3673 7.15447 91.3452 7.1398 91.3231 7.12512C91.3121 7.11778 91.3011 7.11044 91.29 7.09944L91.1576 6.96735H91.0914C91.0583 6.93433 90.9921 6.86829 90.959 6.86829C90.9259 6.83527 90.7604 6.80225 90.6942 6.80225C90.628 6.76923 90.5618 6.76923 90.4625 6.76923H90.1976C90.1861 6.77307 90.1723 6.77735 90.1568 6.78219C90.0386 6.81894 89.8181 6.88748 89.7011 7.0334C89.6818 7.06712 89.6625 7.10014 89.6436 7.13246C89.5329 7.32165 89.4363 7.48675 89.4363 7.62777L89.3701 7.56173C89.3397 7.54658 89.3024 7.51755 89.2677 7.49055C89.2267 7.45868 89.1894 7.42964 89.1715 7.42964C89.1577 7.42964 89.1213 7.41831 89.0786 7.40504C89.0183 7.38626 88.9454 7.3636 88.9066 7.3636C88.8404 7.33058 88.7742 7.33058 88.6749 7.33058H88.3439C88.3294 7.30163 88.3085 7.27267 88.2896 7.2465C88.2655 7.21298 88.2446 7.18402 88.2446 7.16548C87.4832 7.26454 87.0529 7.46266 87.0529 7.46266L86.8874 7.52871C86.8874 7.52871 87.0198 7.72683 87.6487 7.92495C88.2446 8.12308 89.337 8.35422 91.2569 8.45328H91.3562C91.6873 8.4863 92.0183 8.4863 92.3824 8.4863H93.8059C94.3355 8.4863 94.7989 8.45328 95.1962 8.42026L95.2624 8.35422V8.38724C95.9629 8.32901 96.3546 8.21943 96.687 8.12642C96.7316 8.11394 96.7751 8.10177 96.8182 8.09006C96.8053 8.00006 96.7824 7.90506 96.7592 7.80895C96.7228 7.65821 96.6858 7.50475 96.6858 7.3636V7.06642C96.6196 7.03339 96.603 7.01688 96.5948 7.00863C96.5865 7.00037 96.5865 7.00037 96.5534 7.00037H96.2223C96.1677 7.00037 96.123 7.02039 96.0829 7.03838C96.0501 7.05307 96.0204 7.06642 95.9906 7.06642C95.9769 7.06642 95.9518 7.07775 95.9225 7.09102C95.8809 7.1098 95.8308 7.13246 95.792 7.13246H95.7258C95.7589 7.06642 95.792 7.0334 95.792 7.0334L95.9575 6.86829C95.9712 6.86829 96.0077 6.8513 96.0504 6.83138C96.1107 6.80322 96.1836 6.76923 96.2223 6.76923C96.272 6.76923 96.3051 6.75272 96.3382 6.73621C96.3713 6.7197 96.4044 6.70319 96.4541 6.70319H96.7851C96.8844 6.57111 96.8844 6.406 96.8844 6.37298C96.8844 6.17486 96.8844 5.74559 96.4872 5.38236C96.3217 5.25028 96.0568 5.21726 95.9575 5.21726H95.6927C95.638 5.21726 95.5934 5.23728 95.5533 5.25527C95.5205 5.26996 95.4907 5.2833 95.461 5.2833C95.4222 5.2833 95.3493 5.31729 95.289 5.34546C95.2463 5.36537 95.2099 5.38236 95.1962 5.38236C95.1869 5.39163 95.175 5.40611 95.1612 5.42287C95.1259 5.4658 95.0783 5.52372 95.0306 5.54747C94.9975 5.54747 94.9314 5.64653 94.9314 5.67955C94.9203 5.69056 94.9093 5.69789 94.8982 5.70523C94.8762 5.71991 94.8541 5.73458 94.832 5.77861C94.7989 5.84465 94.7989 5.91069 94.7989 5.91069C94.7658 5.94371 94.7327 5.97674 94.7327 6.00976V6.17486ZM93.6403 7.00037C93.7065 6.93434 93.7728 6.86827 93.8059 6.80224L93.7396 6.86829C93.7396 6.86829 93.6403 6.96735 93.6403 7.00037ZM90.5287 6.20788C90.5287 6.21515 90.5255 6.22723 90.5212 6.2434C90.5059 6.30067 90.477 6.40934 90.5287 6.53809C90.5287 6.57111 90.5618 6.63715 90.5618 6.63715C90.5949 6.62064 90.5949 6.62889 90.5949 6.64128C90.5949 6.65366 90.5949 6.67017 90.628 6.67017H90.7935C90.8597 6.67017 91.0252 6.70319 91.1245 6.80225L91.1907 6.86829C91.2038 6.89434 91.222 6.91525 91.2393 6.93508C91.2658 6.96552 91.29 6.99341 91.29 7.0334C91.3147 7.0211 91.3485 6.99508 91.3847 6.96726C91.4457 6.92034 91.5133 6.86829 91.5549 6.86829C91.588 6.83527 91.6211 6.83527 91.6211 6.83527C91.8528 6.67017 91.919 6.43902 91.919 6.37298C91.919 6.36079 91.9193 6.34747 91.9196 6.33312C91.9226 6.19212 91.9276 5.95234 91.6873 5.71257C91.588 5.61351 91.4224 5.58049 91.3562 5.58049H91.1907C91.1576 5.58049 91.1328 5.58874 91.108 5.597C91.0831 5.60525 91.0583 5.61351 91.0252 5.61351C90.9921 5.61351 90.8597 5.67955 90.8597 5.67955C90.8432 5.67955 90.8183 5.70431 90.7935 5.72908C90.7687 5.75385 90.7438 5.77861 90.7273 5.77861C90.7273 5.81163 90.6611 5.87767 90.6611 5.87767L90.5949 5.94371C90.5618 5.97674 90.5618 6.00976 90.5618 6.00976C90.5287 6.04278 90.5287 6.0758 90.5287 6.0758V6.20788ZM88.9066 5.71257C88.8073 5.71257 88.4432 5.94371 88.4432 5.94371V5.81163C88.1952 6.16901 88.2225 6.5035 88.2386 6.70079C88.2418 6.74047 88.2446 6.7746 88.2446 6.80225C88.2446 6.81593 88.2559 6.83527 88.2693 6.85793C88.2881 6.88998 88.3108 6.92867 88.3108 6.96735C88.3108 6.98776 88.3234 7.00817 88.3409 7.03638C88.3517 7.05381 88.3644 7.07422 88.377 7.09944H88.6418C88.6965 7.09944 88.7411 7.10944 88.7813 7.11844C88.814 7.12579 88.8438 7.13246 88.8735 7.13246C88.9365 7.13246 89.0128 7.159 89.0686 7.17843C89.1008 7.18965 89.1262 7.1985 89.1384 7.1985C89.1648 7.21171 89.1913 7.23548 89.2178 7.25926C89.2575 7.29492 89.2973 7.33058 89.337 7.33058L89.4032 7.39662C89.4363 7.23152 89.5356 7.06642 89.668 6.86829C89.7011 6.83527 89.7342 6.80225 89.7342 6.76923C89.8666 6.60413 90.0321 6.57111 90.0983 6.57111H90.3301C90.2969 6.50507 90.1976 6.37298 90.1976 6.37298L90.1645 6.33996V6.27392C90.1314 6.20788 90.0983 6.20788 90.0983 6.20788C90.0797 6.20788 90.0716 6.18705 90.0622 6.16294C90.0548 6.14412 90.0466 6.1233 90.0321 6.10882C90.0127 6.09915 89.9962 6.09231 89.9825 6.08664C89.9494 6.07297 89.9328 6.06613 89.9328 6.04278L89.8335 5.94371C89.8032 5.92857 89.7658 5.89954 89.7311 5.87254C89.6901 5.84067 89.6528 5.81163 89.6349 5.81163C89.5687 5.77861 89.4363 5.74559 89.3701 5.74559C89.2708 5.71257 89.2377 5.71257 89.1384 5.71257H88.9066ZM87.411 8.25366L87.0626 7.92568L89.5292 16.9042L89.5456 16.9206C89.7778 17.1526 90.1423 17.3556 90.5543 17.5114C90.9677 17.6677 91.4366 17.7793 91.8837 17.8239L91.9012 17.6492C91.4696 17.6061 91.0158 17.4981 90.6165 17.3471C90.2259 17.1995 89.8946 17.0134 89.6862 16.8125L87.411 8.25366Z" fill="#151313"/>
</svg>
