<svg width="133" height="72" viewBox="0 0 133 72" fill="none" xmlns="http://www.w3.org/2000/svg">
<path d="M130.547 47.8526C129.46 47.8526 128.668 47.0188 128.668 45.9693C128.668 44.9347 129.461 44.0873 130.533 44.0873C131.605 44.0873 132.383 44.9347 132.383 45.9839C132.383 47.0188 131.605 47.8526 130.547 47.8526ZM130.533 43.6127C129.152 43.6127 128.051 44.6622 128.051 45.9693C128.051 47.3059 129.152 48.3555 130.533 48.3555C131.928 48.3555 133 47.3059 133 45.9693C133 44.6622 131.928 43.6127 130.533 43.6127Z" fill="white"/>
<path d="M130.43 45.8689H130.165V45.1939C130.224 45.1798 130.327 45.1652 130.474 45.1652C130.826 45.1652 130.988 45.3085 130.988 45.5239C130.988 45.7685 130.738 45.8689 130.43 45.8689ZM131.091 46.0418V46.0131C131.385 45.9264 131.59 45.7256 131.59 45.4668C131.59 45.2368 131.487 45.0497 131.355 44.9489C131.179 44.8489 130.973 44.7773 130.518 44.7773C130.121 44.7773 129.813 44.8056 129.593 44.8489V47.2051H130.151V46.2568H130.415C130.724 46.2568 130.871 46.3718 130.914 46.6305C130.988 46.9034 131.032 47.1193 131.106 47.2051H131.707C131.649 47.1193 131.605 46.9759 131.531 46.6164C131.458 46.3001 131.326 46.1281 131.091 46.0418Z" fill="white"/>
<path d="M65.5652 33.7063C65.5652 33.7063 65.4723 33.7676 65.3135 33.8818C62.3555 36.0161 61.385 39.9183 62.9923 43.1519L65.4144 48.0243L67.9027 42.9404C69.3828 39.9153 68.6372 36.2791 66.0415 34.089C65.8898 33.9616 65.7314 33.8337 65.5652 33.7063Z" fill="white"/>
<path d="M113.16 22.2272C111.709 25.2656 112.49 28.8949 115.107 31.061C115.26 31.1871 115.419 31.3133 115.587 31.4394C115.587 31.4394 115.679 31.3772 115.837 31.2614C118.774 29.1 119.707 25.1884 118.068 21.9698L115.598 17.1201L113.16 22.2272Z" fill="white"/>
<path d="M5.81413 13.7387L6.67806 8.16566C7.19203 4.84962 5.39444 1.58465 2.25885 0.230853C2.07598 0.1519 1.88609 0.0746624 1.68918 0C1.68918 0 1.61858 0.0853903 1.50061 0.240293C-0.692107 3.12595 -0.457048 7.13541 2.0444 9.76962L5.81413 13.7387Z" fill="white"/>
<path d="M0 15.2049C0.314874 19.0372 0.514412 51.3433 0.514412 51.3433H7.14212L6.73647 15.0719L0 15.2049Z" fill="white"/>
<path d="M38.0847 14.956C38.0847 14.956 39.7455 31.2603 38.2461 40.4811C38.2461 40.4811 22.545 23.1118 20.3571 20.9059C17.8056 18.333 16.6009 16.6012 14.0556 15.6829C14.0556 15.6829 8.9501 32.2104 11.6024 51.3432H18.1249C18.1249 51.3432 16.4137 36.4949 17.9008 27.5358C17.9008 27.5358 32.5591 43.9744 35.0022 46.3572C37.7107 48.9991 40.4538 50.5769 42.2996 51.5114C42.2996 51.5114 47.4428 33.8443 44.3726 14.8466L38.0847 14.956Z" fill="white"/>
<path d="M65.54 14.967C65.5119 14.9528 65.476 14.9528 65.4347 14.967C65.4347 14.967 52.2306 19.3901 46.6436 51.343H53.2226C53.2226 51.343 57.0857 29.8222 65.4874 22.6997C74.0767 30.0556 77.7521 51.343 77.7521 51.343H84.3202C78.7331 19.3901 65.54 14.967 65.54 14.967Z" fill="white"/>
<path d="M118.938 7.31239L114.306 2.72366C96.3668 20.4259 76.303 13.9668 75.4242 13.6741L75.6706 20.0857C76.1202 20.238 78.6707 21.2047 85.8663 21.2047C86.4338 21.2047 87.0144 21.1949 87.6087 21.173C88.1108 29.6214 88.156 51.343 88.156 51.343L94.7262 51.3284L94.4478 20.4144C102.057 18.9945 110.773 15.3708 118.938 7.31239Z" fill="white"/>
<path d="M132.349 15.0692H125.835C126.622 43.8112 117.116 45.0723 115.053 45.0221C114.667 45.0315 114.007 44.9946 113.196 44.7393C111.271 44.2613 109.777 42.9148 108.612 41.0894C106.499 37.6648 104.586 31.9068 104.269 21.2451C102.261 22.0574 100.198 22.7319 98.0868 23.2709C98.592 38.7294 103.701 45.867 108.269 48.9603C113.153 52.2691 119.64 52.0734 123.87 47.9918C133.096 39.0881 132.412 16.6366 132.349 15.0692Z" fill="white"/>
<path d="M0.382407 65.3579C0.382407 65.3579 0.415298 65.3098 0.476694 65.2283C1.62349 63.7058 3.72104 63.2064 5.45899 64.0337L8.07797 65.2802L5.34497 66.5606C3.71929 67.3218 1.76514 66.9386 0.588084 65.6024C0.519233 65.5248 0.45082 65.4432 0.382407 65.3579Z" fill="white"/>
<path d="M125.978 65.3579C125.978 65.3579 125.945 65.3098 125.883 65.2283C124.737 63.7058 122.639 63.2064 120.901 64.0337L118.282 65.2802L121.015 66.5606C122.641 67.3218 124.595 66.9386 125.772 65.6024C125.841 65.5248 125.909 65.4432 125.978 65.3579Z" fill="white"/>
<path d="M12.8629 67.2326H17.1444C16.4427 65.7166 15.7047 64.1993 15.003 62.7902C14.2829 64.1993 13.5633 65.7166 12.8629 67.2326ZM18.1404 69.3995H11.8477C11.478 70.2127 11.1096 71.0258 10.7956 71.8192H7.93457C10.0383 67.3056 12.6226 62.2495 14.9114 58.2761H15.0776C17.3654 62.2495 19.9498 67.3056 22.0535 71.8192H19.1924C18.8784 71.0065 18.51 70.2127 18.1404 69.3995Z" fill="white"/>
<path d="M38.9589 58.2761V71.8192H36.3013L36.357 64.0547C34.6953 65.8788 32.5732 68.6593 31.3558 70.3748H31.208C29.9906 68.6413 27.8672 65.8788 26.2249 64.0547L26.281 71.8192H23.6041V58.2761C24.7856 58.2761 28.864 63.2605 31.2813 66.3843C33.6998 63.2605 37.7972 58.2761 38.9589 58.2761Z" fill="white"/>
<path d="M45.4573 67.2326H49.7388C49.0371 65.7166 48.2991 64.1993 47.5974 62.7902C46.8773 64.1993 46.1577 65.7166 45.4573 67.2326ZM50.7343 69.3995H44.4421C44.0724 70.2127 43.704 71.0258 43.39 71.8192H40.529C42.634 67.3056 45.217 62.2495 47.5049 58.2761H47.672C49.9598 62.2495 52.5437 67.3056 54.6474 71.8192H51.7877C51.4728 71.0065 51.104 70.2127 50.7343 69.3995Z" fill="white"/>
<path d="M65.4449 69.6526V71.8195H55.2027C55.2027 69.7435 59.7794 63.892 61.5511 60.6244H55.3128V58.4562H65.334C65.334 60.5339 60.7389 66.3841 58.9672 69.6526H65.4449Z" fill="white"/>
<path d="M78.3092 65.1387C78.3092 62.3213 76.5374 60.4431 73.8978 60.4431C71.2407 60.4431 69.469 62.3213 69.469 65.1387C69.469 67.9548 71.2407 69.833 73.8978 69.833C76.5374 69.833 78.3092 67.9548 78.3092 65.1387ZM66.7 65.1387C66.7 61.0207 69.5791 58.2762 73.8978 58.2762C78.1798 58.2762 81.0768 61.0207 81.0768 65.1387C81.0768 69.2554 78.1798 71.9999 73.8978 71.9999C69.5791 71.9999 66.7 69.2554 66.7 65.1387Z" fill="white"/>
<path d="M96.4509 72C95.0853 72 89.5118 66.2763 86.2456 63.2426L86.282 71.8193H83.606V58.2763C84.9725 58.2763 90.5266 64.0008 93.7929 67.0345L93.7565 58.4565H96.4509V72Z" fill="white"/>
<path d="M102.488 71.8192H99.8109V58.456H102.488V71.8192Z" fill="white"/>
<path d="M109.003 67.2326H113.284C112.582 65.7166 111.844 64.1993 111.143 62.7902C110.423 64.1993 109.703 65.7166 109.003 67.2326ZM114.28 69.3995H107.987C107.618 70.2127 107.249 71.0258 106.935 71.8192H104.074C106.178 67.3056 108.762 62.2495 111.051 58.2761H111.217C113.505 62.2495 116.089 67.3056 118.193 71.8192H115.332C115.018 71.0065 114.65 70.2127 114.28 69.3995Z" fill="white"/>
<path d="M78.4882 57.5084L77.565 55.5539C77.0155 54.3906 75.7402 53.7204 74.4492 53.9341C74.3737 53.9465 74.297 53.9611 74.2185 53.9778C74.2185 53.9778 74.2141 54.0195 74.2097 54.0933C74.1308 55.4647 75.0684 56.6949 76.4327 57.0193L78.4882 57.5084Z" fill="white"/>
<path d="M69.7708 57.2864L71.9215 56.829C73.2007 56.5565 74.1471 55.4842 74.2137 54.2046C74.2177 54.1304 74.2199 54.0531 74.2203 53.9742C74.2203 53.9742 74.1795 53.9613 74.1072 53.9412C72.756 53.5687 71.325 54.1969 70.7054 55.4293L69.7708 57.2864Z" fill="white"/>
</svg>
