<svg width="122" height="142" viewBox="0 0 122 142" fill="none" xmlns="http://www.w3.org/2000/svg">
<path fill-rule="evenodd" clip-rule="evenodd" d="M15.469 12.4594C17.5212 44.7546 11.4356 108.729 3.29126 119.126C43.7349 121.066 66.965 121.6 103.48 127.459C108.668 97.5179 110.988 80.6569 107.909 49.6815C98.7485 35.9126 93.8156 26.336 85.2138 7.45937C50.8255 8.53622 38.6047 10.0046 15.469 12.4594ZM22.1113 24.126C18.975 68.5632 17.341 94.5418 11.0407 111.904C45.4482 113.332 64.0226 114.634 94.0704 119.126C105.74 73.4131 105.068 61.2792 98.4986 49.6815C87.6085 44.9077 81.4538 42.7733 70.2685 41.3483C71.2239 32.3576 73.1169 26.6665 79.125 15.2371C53.6608 16.5964 41.5639 18.7978 22.1113 24.126Z" fill="white"/>
<path d="M28.7537 49.6815V43.5706C47.5737 45.7928 56.3675 42.5145 66.3938 43.5706V52.4595C58.4658 49.6448 39.8151 48.3144 28.7537 49.6815Z" fill="white"/>
<path d="M27.0931 65.2369L28.7537 59.126C50.9662 58.3481 64.1797 63.5705 92.9633 63.5704V71.9037C69.1621 65.2371 38.9023 65.2369 27.0931 65.2369Z" fill="white"/>
<path fill-rule="evenodd" clip-rule="evenodd" d="M74.9617 83.3689C68.9122 83.0637 66.8921 82.9962 62.9162 83.3689C63.1852 88.4587 63.1893 91.0859 62.314 94.5774L73.7571 96.1699C74.9963 92.8007 74.9617 89.5451 74.9617 83.3689ZM65.3253 92.5336C65.3253 92.5336 65.3253 88.333 65.3253 85.6412C68.38 85.4556 69.8379 85.6257 72.5526 85.9087C72.7497 88.9225 72.8025 91.1933 71.9503 93.52L65.3253 92.5336Z" fill="white"/>
<path d="M76.5983 88.1242L80.212 88.7303C80.4148 90.7459 80.1589 92.5336 80.1589 92.5336L76.5983 92.1904C76.5983 92.1904 76.5933 90.0577 76.5983 88.1242Z" fill="white"/>
<path d="M84.0437 94.5774L80.1589 93.6886C80.2036 95.2862 80.2163 95.8369 79.8495 97.3832L83.8735 97.7624C83.8735 97.7624 84.2514 96.1373 84.0437 94.5774Z" fill="white"/>
<path d="M76.0139 98.5954C76.1235 99.916 76.0142 100.393 75.564 102.611C73.7452 102.641 72.9216 102.519 71.7082 102.122C72.1201 100.252 72.2926 99.7395 72.3182 98.0966C73.4723 98.2601 74.2663 98.3658 76.0139 98.5954Z" fill="white"/>
<path fill-rule="evenodd" clip-rule="evenodd" d="M92.4265 82.204C71.9808 78.3946 68.5634 78.8979 58.3444 79.1388C58.4133 91.5282 58.4473 98.4743 56.2912 110.635C68.157 110.862 75.5612 111.876 89.1415 114.126C91.8482 99.1788 92.4575 92.3766 92.4265 82.204ZM58.755 108.141C60.6275 96.7475 60.6262 91.2662 60.9526 81.2064C68.5863 80.9395 73.2897 80.9603 88.5864 83.7859C89.3649 91.0025 89.3143 96.2142 87.0883 110.635L58.755 108.141Z" fill="white"/>
<path d="M68.0855 87.6478L70.7458 87.8892C70.7458 87.8892 71.3481 89.3054 70.1435 90.9195L67.7344 90.4897C67.9578 88.5331 68.0855 87.6478 68.0855 87.6478Z" fill="white"/>
<path fill-rule="evenodd" clip-rule="evenodd" d="M86.1502 100.01C86.1502 100.01 81.5962 98.8301 77.6204 99.2029C77.6204 99.2029 77.4737 103.968 76.5983 107.459L85.1159 108.897C86.355 105.528 86.1502 100.01 86.1502 100.01ZM79.0074 105.87L79.4272 101.021C79.4272 101.021 82.9454 101.399 84.0437 102.005C84.2408 105.019 83.4058 106.78 83.4058 106.78L79.0074 105.87Z" fill="white"/>
<path fill-rule="evenodd" clip-rule="evenodd" d="M69.5412 100.187C69.5412 100.187 66.2898 99.2078 62.314 99.5806C62.314 99.5806 61.7913 103.959 61.2913 106.78L68.939 107.459C69.8899 104.429 69.5412 100.187 69.5412 100.187ZM63.3617 105.19L63.7913 101.459C63.7913 101.459 66.6361 101.399 67.7344 102.005C67.9315 105.019 66.9753 105.722 66.9753 105.722L63.3617 105.19Z" fill="white"/>
<path fill-rule="evenodd" clip-rule="evenodd" d="M86.9938 86.2472C86.9938 86.2472 84.5981 85.0351 81.4165 85.0351C81.4165 85.0351 81.6724 88.4021 81.0702 91.4324L87.0795 92.2269C87.6952 90.0441 86.9938 86.2472 86.9938 86.2472ZM82.877 90.0441L82.7912 86.8533C82.7912 86.8533 84.6909 87.0417 85.7892 87.6478C85.8026 89.8836 85.8026 90.4897 85.8026 90.4897L82.877 90.0441Z" fill="white"/>
<path d="M73.1549 105.035H75.564C75.7668 107.051 74.9617 107.459 74.9617 107.459H72.5526C72.5526 107.459 73.1549 106.247 73.1549 105.035Z" fill="white"/>
<path d="M23.7913 82.204L24.7913 75.4594C39.2913 78.4594 46.6511 76.4594 52.7913 77.9594L53.4314 84.9819C45.5034 82.1672 34.8527 80.8368 23.7913 82.204Z" fill="white"/>
<path fill-rule="evenodd" clip-rule="evenodd" d="M3.17346 4.09519L10.5734 1.91873L10.0091 0L0.333008 2.84591L0.907139 3.92662L0.90922 3.93062L0.922418 3.95653C0.935155 3.98182 0.955669 4.02324 0.983349 4.08129C1.03871 4.19739 1.12273 4.38003 1.23053 4.63327C1.44613 5.13973 1.75685 5.92865 2.1235 7.03242C2.8568 9.23995 3.81392 12.7072 4.68105 17.6932C6.41543 27.6659 7.78923 43.7113 6.29317 67.8976L8.28935 68.0211C9.79329 43.7074 8.41709 27.5028 6.65147 17.3505C5.7686 12.274 4.78822 8.71003 4.02152 6.40194C3.69069 5.40599 3.39966 4.64394 3.17346 4.09519ZM119.841 109.996C118.393 118.81 115.492 130.305 109.668 140.94L109.226 141.747L108.385 141.373C99.4886 137.419 93.2519 136.459 89.2913 136.459C87.3105 136.459 85.8932 136.699 84.9905 136.929C84.5388 137.043 84.2147 137.156 84.0122 137.235C83.9109 137.274 83.8399 137.305 83.7985 137.325C83.7777 137.334 83.7644 137.341 83.7583 137.344L83.7604 137.343C83.7604 137.343 83.7618 137.342 83.2913 136.459C82.8207 135.577 82.8223 135.576 82.8223 135.576L82.8242 135.575L82.8284 135.573L82.8389 135.567L82.8683 135.553C82.8917 135.541 82.9227 135.526 82.9613 135.508C83.0385 135.473 83.1462 135.426 83.2851 135.372C83.5631 135.263 83.9656 135.125 84.4982 134.99C85.5643 134.719 87.147 134.459 89.2913 134.459C93.4461 134.459 99.6876 135.435 108.349 139.174C113.737 129.034 116.477 118.135 117.867 109.672C118.58 105.333 118.936 101.647 119.114 99.0473C119.203 97.748 119.247 96.7212 119.269 96.0215C119.28 95.6717 119.286 95.4037 119.289 95.2244C119.29 95.1348 119.291 95.0673 119.291 95.0228L119.291 94.9735L119.291 94.962V94.9596C119.291 94.9596 119.291 94.9594 120.291 94.9594C121.291 94.9594 121.291 94.9601 121.291 94.9601V94.9614L121.291 94.9657L121.291 94.9809L121.291 95.0378C121.291 95.0873 121.29 95.1599 121.288 95.2549C121.285 95.4447 121.28 95.7236 121.268 96.0847C121.245 96.8069 121.2 97.8582 121.109 99.1839C120.928 101.835 120.565 105.585 119.841 109.996Z" fill="#FFA400"/>
</svg>
