<svg width="121" height="64" viewBox="0 0 121 64" fill="none" xmlns="http://www.w3.org/2000/svg">
<path fill-rule="evenodd" clip-rule="evenodd" d="M89.4514 3.2608C89.4514 5.06071 90.9158 6.52337 92.714 6.52337V6.52514C93.5835 6.52514 94.3743 6.18379 94.9595 5.62797L102.996 13.6641C102.492 14.2385 102.186 14.991 102.186 15.8141C102.186 17.4014 103.325 18.7264 104.827 19.0173V57.5341C103.57 57.7771 102.569 58.7432 102.274 59.9813H7.04619C6.70451 58.5451 5.41162 57.4749 3.87195 57.4749C2.07203 57.4749 0.609375 58.9375 0.609375 60.7374C0.609375 62.5374 2.0738 64 3.87195 64C5.50661 64 6.86309 62.7936 7.0984 61.2238H102.222C102.457 62.7936 103.815 64 105.448 64C107.248 64 108.711 62.5374 108.711 60.7374C108.711 59.1499 107.573 57.8248 106.07 57.5341V19.0174C107.573 18.7267 108.711 17.4016 108.711 15.8141C108.711 14.0141 107.248 12.5515 105.448 12.5515C104.923 12.5515 104.426 12.6761 103.986 12.8974L95.6897 4.60085C95.874 4.19235 95.9766 3.73929 95.9766 3.26257C95.9766 1.46265 94.5139 0 92.714 0C90.9141 0 89.4514 1.46088 89.4514 3.2608ZM90.694 3.26257C90.694 2.14783 91.601 1.24255 92.714 1.24255C93.8287 1.24255 94.734 2.14783 94.734 3.26257C94.734 4.37731 93.8287 5.2826 92.714 5.2826C91.5992 5.2826 90.694 4.37731 90.694 3.26257ZM103.428 15.8158C103.428 14.7011 104.335 13.7958 105.448 13.7958C106.563 13.7958 107.468 14.7011 107.468 15.8158C107.468 16.9306 106.563 17.8359 105.448 17.8359C104.334 17.8359 103.428 16.9306 103.428 15.8158ZM1.85192 60.7392C1.85192 59.6245 2.75898 58.7192 3.87195 58.7192C4.98669 58.7192 5.89197 59.6245 5.89197 60.7392C5.89197 61.8539 4.98669 62.7592 3.87195 62.7592C2.7572 62.7592 1.85192 61.8539 1.85192 60.7392ZM105.448 58.7192C104.335 58.7192 103.428 59.6245 103.428 60.7392C103.428 61.8539 104.334 62.7592 105.448 62.7592C106.563 62.7592 107.468 61.8539 107.468 60.7392C107.468 59.6245 106.563 58.7192 105.448 58.7192Z" fill="white"/>
<path fill-rule="evenodd" clip-rule="evenodd" d="M120.444 6.32456C121.065 4.6986 121.209 2.97323 120.654 1.37212L120.581 1.15911L120.385 1.04906C118.932 0.230754 117.048 0.280456 115.195 0.942556C113.965 1.38277 112.742 2.0928 111.67 2.99631C110.596 3.89982 109.668 5.00213 109.025 6.22338C108.038 8.1014 107.729 10.2599 108.603 12.4219L108.693 12.6473L108.919 12.7432C110.383 13.368 111.965 13.3627 113.486 12.9083C114.996 12.4574 116.452 11.5592 117.67 10.4001C118.886 9.24454 119.871 7.82449 120.444 6.32278V6.32456ZM110.168 12.0101L117.455 4.87078C117.666 4.66309 117.659 4.31341 117.441 4.09152C117.221 3.86786 116.873 3.85721 116.661 4.0649L109.357 11.2202C108.986 9.67765 109.291 8.14755 110.01 6.77897C110.587 5.68021 111.432 4.68084 112.412 3.85544C113.393 3.02826 114.506 2.38036 115.618 1.98274C117.096 1.45377 118.561 1.3668 119.684 1.90109C120.062 3.17559 119.919 4.55659 119.413 5.88079C118.894 7.23694 117.998 8.52919 116.889 9.58358C115.783 10.6362 114.471 11.4474 113.12 11.8521C112.133 12.1468 111.127 12.2231 110.168 12.0119V12.0101Z" fill="white"/>
<path d="M89.2952 40.7023C83.899 40.7023 79.511 36.3125 79.511 30.9181C79.511 25.5237 83.9008 21.1339 89.2952 21.1339C94.6896 21.1339 99.0794 25.5237 99.0794 30.9181C99.0794 36.3125 94.6896 40.7023 89.2952 40.7023ZM89.2952 22.6853C84.7564 22.6853 81.0625 26.3775 81.0625 30.9181C81.0625 35.4587 84.7546 39.1509 89.2952 39.1509C93.8358 39.1509 97.528 35.4587 97.528 30.9181C97.528 26.3775 93.8358 22.6853 89.2952 22.6853Z" fill="white"/>
<path fill-rule="evenodd" clip-rule="evenodd" d="M86.8314 47.783C86.8687 47.8504 86.9291 47.8842 87.0125 47.8842H87.0143C87.0569 47.8842 87.0959 47.8735 87.1314 47.8522C87.1651 47.8309 87.1935 47.7972 87.2131 47.751L87.5303 46.9842H89.4091L89.723 47.751C89.7425 47.7936 89.7692 47.8274 89.8047 47.8505C89.8402 47.8735 89.8792 47.8859 89.9218 47.8859C90.0017 47.8859 90.062 47.8522 90.1029 47.7883C90.1437 47.7244 90.149 47.6552 90.1153 47.5824L88.6739 44.153C88.6331 44.0536 88.5692 44.0039 88.4698 44.0039C88.3704 44.0039 88.2994 44.0536 88.2604 44.153L86.819 47.5771C86.7888 47.6463 86.7941 47.7155 86.8314 47.783ZM89.2587 46.6168L88.4747 44.7016L87.6824 46.6168H89.2587Z" fill="white"/>
<path d="M88.2941 43.5228C88.3349 43.5637 88.3846 43.585 88.445 43.585H88.4467C88.5018 43.585 88.5515 43.5672 88.5905 43.5299L89.123 42.9939C89.1425 42.9743 89.1568 42.9513 89.1674 42.9264C89.1763 42.9016 89.1816 42.8767 89.1816 42.8501C89.1816 42.788 89.1621 42.7347 89.1213 42.6939C89.0804 42.6531 89.0289 42.6318 88.9668 42.6318C88.9065 42.6318 88.8568 42.6531 88.8177 42.6921L88.2816 43.2282C88.2479 43.2637 88.2319 43.3134 88.2319 43.372C88.2319 43.4305 88.2532 43.482 88.2941 43.5228Z" fill="white"/>
<path fill-rule="evenodd" clip-rule="evenodd" d="M44.7162 47.9339C44.4286 47.9339 44.1624 47.8842 43.921 47.7848C43.6796 47.6854 43.4701 47.5469 43.2926 47.3694C43.1151 47.1919 42.9784 46.9824 42.8826 46.7375C42.7867 46.4943 42.7388 46.228 42.7388 45.9405C42.7388 45.6529 42.7867 45.3867 42.8826 45.1452C42.9784 44.9038 43.1151 44.6944 43.2926 44.5169C43.4701 44.3394 43.6796 44.2009 43.921 44.1015C44.1624 44.0021 44.4286 43.9524 44.7162 43.9524C45.0038 43.9524 45.2682 44.0021 45.5097 44.1015C45.7493 44.2009 45.9587 44.3394 46.138 44.5169C46.3173 44.6944 46.454 44.9038 46.5498 45.1452C46.6457 45.3867 46.6936 45.6529 46.6936 45.9405C46.6936 46.228 46.6457 46.4943 46.5498 46.7375C46.454 46.9807 46.3155 47.1919 46.138 47.3694C45.9587 47.5469 45.7493 47.6854 45.5097 47.7848C45.27 47.8842 45.0055 47.9339 44.7162 47.9339ZM44.7162 47.5309C44.9416 47.5309 45.1493 47.4919 45.3393 47.412C45.5292 47.3321 45.6943 47.2203 45.8345 47.0765C45.9729 46.9327 46.083 46.7641 46.1593 46.5688C46.2374 46.3754 46.2765 46.1659 46.2765 45.9405C46.2765 45.715 46.2374 45.5056 46.1593 45.3139C46.0812 45.1222 45.9729 44.9535 45.8345 44.8098C45.696 44.666 45.531 44.5542 45.3393 44.4743C45.1493 44.3944 44.9416 44.3553 44.7162 44.3553C44.4908 44.3553 44.2831 44.3944 44.0932 44.4743C43.9032 44.5542 43.7364 44.666 43.5961 44.8098C43.4559 44.9535 43.3458 45.1222 43.2713 45.3139C43.195 45.5056 43.1577 45.715 43.1577 45.9405C43.1577 46.1659 43.195 46.3754 43.2713 46.5688C43.3476 46.7623 43.4559 46.931 43.5961 47.0765C43.7364 47.2203 43.9032 47.3321 44.0932 47.412C44.2831 47.4919 44.4908 47.5309 44.7162 47.5309Z" fill="white"/>
<path fill-rule="evenodd" clip-rule="evenodd" d="M36.8278 47.8221C36.8686 47.8629 36.9183 47.8842 36.9787 47.8842C37.0408 47.8842 37.0941 47.8629 37.1349 47.8221C37.1757 47.7812 37.197 47.7315 37.197 47.6712V46.5227H37.9727C38.2212 46.5227 38.4396 46.4677 38.6295 46.3612C38.8194 46.2547 38.9668 46.1056 39.075 45.9192C39.1833 45.731 39.2366 45.5269 39.2366 45.2748C39.2366 45.0228 39.1833 44.8009 39.075 44.611C38.9668 44.421 38.8194 44.2719 38.6295 44.1636C38.4396 44.0554 38.2212 44.0021 37.9727 44.0021H36.9787C36.9201 44.0021 36.8686 44.0234 36.8278 44.0625C36.787 44.1033 36.7657 44.1548 36.7657 44.2169V47.6712C36.7657 47.7298 36.787 47.7812 36.8278 47.8221ZM37.9727 46.1144H37.197V44.4086H37.9727C38.1378 44.4086 38.2834 44.4459 38.4094 44.5204C38.5354 44.595 38.6348 44.6962 38.7076 44.824C38.7804 44.95 38.8177 45.1009 38.8177 45.2731C38.8177 45.4364 38.7804 45.5801 38.7076 45.7062C38.6348 45.8322 38.5354 45.9316 38.4094 46.0044C38.2834 46.0772 38.1378 46.1144 37.9727 46.1144Z" fill="white"/>
<path fill-rule="evenodd" clip-rule="evenodd" d="M39.8898 47.8221C39.9306 47.8629 39.9803 47.8842 40.0407 47.8842V47.8824C40.1028 47.8824 40.1561 47.8611 40.1969 47.8203C40.2377 47.7795 40.259 47.7297 40.259 47.6694V46.3718H40.9602C40.9895 46.3718 41.0184 46.3711 41.047 46.3697L41.9276 47.7759C41.9471 47.8114 41.9719 47.8398 42.0021 47.8576C42.0321 47.8752 42.0691 47.8841 42.1114 47.8842C42.2085 47.884 42.272 47.8502 42.3074 47.783C42.3429 47.7156 42.3341 47.6392 42.2808 47.5522L41.4847 46.2805C41.5284 46.2636 41.5707 46.2443 41.6116 46.2227C41.8015 46.1233 41.9489 45.9866 42.0571 45.8109C42.1654 45.6352 42.2187 45.4346 42.2187 45.2092C42.2187 44.9713 42.1654 44.7618 42.0571 44.5808C41.9489 44.4015 41.7998 44.2595 41.6116 44.1565C41.4217 44.0536 41.2051 44.0021 40.9602 44.0021H40.0407C39.9821 44.0021 39.9306 44.0234 39.8898 44.0625C39.849 44.1033 39.8277 44.1548 39.8277 44.2169V47.6712C39.8277 47.7298 39.849 47.7812 39.8898 47.8221ZM40.9602 45.9653H40.259V44.4104H40.9602C41.1235 44.4104 41.2672 44.4441 41.3933 44.5116C41.5193 44.579 41.6187 44.6731 41.6915 44.792C41.7643 44.9109 41.8015 45.0494 41.8015 45.2092C41.8015 45.3547 41.7643 45.4861 41.6915 45.5997C41.6187 45.7133 41.5193 45.8038 41.3933 45.8677C41.2672 45.9334 41.1217 45.9653 40.9602 45.9653Z" fill="white"/>
<path d="M48.3977 47.7794C48.6302 47.8824 48.8823 47.9339 49.1503 47.9339L49.1485 47.9286C49.3722 47.9286 49.5888 47.8948 49.7964 47.8292C50.0041 47.7617 50.1941 47.6534 50.3662 47.5008C50.3893 47.4741 50.4053 47.4493 50.4142 47.4244C50.4227 47.4006 50.4263 47.3767 50.4266 47.3513L50.4284 47.3517L50.4301 47.3552V46.1375C50.4301 46.0736 50.4088 46.0221 50.3698 45.9831C50.329 45.9422 50.2775 45.9227 50.2154 45.9227H49.2657C49.2071 45.9227 49.1556 45.9387 49.1148 45.9742C49.074 46.0097 49.0527 46.0559 49.0527 46.1109C49.0527 46.1659 49.074 46.2121 49.1148 46.2493C49.1556 46.2866 49.2053 46.3044 49.2657 46.3044H50.0112V47.2532C49.8971 47.3307 49.7776 47.3928 49.6527 47.4386C49.4929 47.4972 49.326 47.5274 49.1503 47.5274C48.9426 47.5274 48.7474 47.4866 48.5645 47.4031C48.3817 47.3215 48.2202 47.2061 48.0817 47.0605C47.9433 46.915 47.835 46.7464 47.7569 46.5564C47.6788 46.3647 47.6397 46.1517 47.6397 45.9369C47.6397 45.7221 47.6788 45.518 47.7569 45.3263C47.8332 45.1328 47.9433 44.9642 48.0817 44.8186C48.222 44.6731 48.3817 44.5595 48.5645 44.476C48.7456 44.3926 48.9444 44.3518 49.1503 44.3518C49.3562 44.3518 49.532 44.3784 49.6775 44.4334C49.8231 44.4885 49.9597 44.5701 50.0858 44.6802C50.1248 44.7121 50.1674 44.7317 50.2118 44.7317C50.2562 44.7334 50.2952 44.7228 50.329 44.6997C50.3627 44.6766 50.3804 44.6447 50.384 44.6056C50.4035 44.5896 50.4159 44.5683 50.423 44.5417C50.4301 44.5151 50.4301 44.4885 50.4213 44.4601C50.4142 44.4334 50.3946 44.4068 50.3645 44.3837C50.1834 44.2311 49.9953 44.121 49.8035 44.0536C49.6118 43.9861 49.3935 43.9524 49.1521 43.9524C48.8805 43.9524 48.6285 44.0039 48.3941 44.1086C48.1598 44.2133 47.9557 44.3553 47.78 44.5364C47.6042 44.7175 47.4675 44.9287 47.3699 45.1683C47.2705 45.408 47.2226 45.6618 47.2226 45.9405C47.2226 46.2192 47.2723 46.4783 47.3699 46.718C47.4675 46.9576 47.6042 47.1688 47.7817 47.3517C47.9592 47.5345 48.1634 47.6765 48.3977 47.7794Z" fill="white"/>
<path fill-rule="evenodd" clip-rule="evenodd" d="M51.4615 47.8842C51.4011 47.8842 51.3514 47.8629 51.3106 47.8221C51.2698 47.7812 51.2485 47.7298 51.2485 47.6712V44.2169C51.2485 44.1548 51.2698 44.1033 51.3106 44.0625C51.3514 44.0234 51.4029 44.0021 51.4615 44.0021H52.3809C52.6259 44.0021 52.8425 44.0536 53.0324 44.1565C53.2206 44.2595 53.3697 44.4015 53.4779 44.5808C53.5862 44.7618 53.6395 44.9713 53.6395 45.2092C53.6395 45.4346 53.5862 45.6352 53.4779 45.8109C53.3697 45.9866 53.2223 46.1233 53.0324 46.2227C52.9915 46.2443 52.9492 46.2636 52.9055 46.2805L53.7016 47.5522C53.7549 47.6392 53.7637 47.7156 53.7282 47.783C53.6928 47.8502 53.6292 47.884 53.5322 47.8842C53.4899 47.8841 53.4529 47.8752 53.4229 47.8576C53.3927 47.8398 53.3679 47.8114 53.3484 47.7759L52.4678 46.3697C52.4537 46.3704 52.4395 46.3709 52.4252 46.3713C52.4106 46.3716 52.3958 46.3718 52.3809 46.3718H51.6798V47.6694C51.6798 47.7297 51.6585 47.7795 51.6177 47.8203C51.5768 47.8611 51.5236 47.8824 51.4615 47.8824V47.8842ZM51.6798 45.9653H52.3809C52.5425 45.9653 52.688 45.9334 52.8141 45.8677C52.9401 45.8038 53.0395 45.7133 53.1123 45.5997C53.1851 45.4861 53.2223 45.3547 53.2223 45.2092C53.2223 45.0494 53.1851 44.9109 53.1123 44.792C53.0395 44.6731 52.9401 44.579 52.8141 44.5116C52.688 44.4441 52.5443 44.4104 52.3809 44.4104H51.6798V45.9653Z" fill="white"/>
<path fill-rule="evenodd" clip-rule="evenodd" d="M53.9696 47.783C54.0069 47.8505 54.0673 47.8842 54.1507 47.8842H54.1525C54.1951 47.8842 54.2341 47.8735 54.2696 47.8522C54.3033 47.8309 54.3317 47.7972 54.3513 47.751L54.6685 46.9842H56.5473L56.8612 47.751C56.8807 47.7936 56.9074 47.8274 56.9429 47.8505C56.9784 47.8735 57.0174 47.8859 57.06 47.8859C57.1399 47.8859 57.2003 47.8522 57.2411 47.7883C57.2819 47.7244 57.2872 47.6552 57.2535 47.5824L55.8121 44.153C55.7713 44.0536 55.7074 44.0039 55.608 44.0039C55.5086 44.0039 55.4376 44.0536 55.3986 44.153L53.9572 47.5771C53.927 47.6463 53.9323 47.7155 53.9696 47.783ZM56.3969 46.6168L55.6129 44.7016L54.8206 46.6168H56.3969Z" fill="white"/>
<path d="M58.0523 47.8842C57.9919 47.8842 57.9422 47.8629 57.9014 47.8221C57.8606 47.7812 57.8393 47.7298 57.8393 47.6712V44.2169C57.8393 44.1548 57.8606 44.1033 57.9014 44.0625C57.9422 44.0234 57.9937 44.0021 58.0523 44.0021C58.1393 44.0021 58.2032 44.0394 58.2458 44.1157L59.7981 47.2069L61.3184 44.1157C61.361 44.0394 61.4267 44.0021 61.5119 44.0021C61.5722 44.0021 61.6219 44.0216 61.661 44.0625C61.7 44.1015 61.7213 44.153 61.7213 44.2169V47.6712C61.7213 47.7315 61.7 47.7812 61.6592 47.8221C61.6184 47.8629 61.5687 47.8842 61.5119 47.8842C61.448 47.8842 61.3965 47.8629 61.3557 47.8221C61.3149 47.7812 61.2936 47.7298 61.2936 47.6712V44.9698L59.9711 47.6712C59.9285 47.7404 59.8646 47.7759 59.783 47.7759C59.6907 47.7759 59.6232 47.7333 59.5842 47.6463L58.2724 45.0178V47.6712C58.2724 47.7315 58.2511 47.7812 58.2085 47.8221C58.1659 47.8629 58.1144 47.8842 58.0541 47.8842H58.0523Z" fill="white"/>
<path fill-rule="evenodd" clip-rule="evenodd" d="M62.3391 47.783C62.3763 47.8505 62.4367 47.8842 62.5201 47.8842H62.5219C62.5645 47.8842 62.6036 47.8735 62.6391 47.8522C62.6728 47.8309 62.7012 47.7972 62.7207 47.751L63.038 46.9842H64.9168L65.2306 47.751C65.2502 47.7936 65.2768 47.8274 65.3123 47.8505C65.3478 47.8735 65.3869 47.8859 65.4295 47.8859C65.5093 47.8859 65.5697 47.8522 65.6105 47.7883C65.6513 47.7244 65.6567 47.6552 65.6229 47.5824L64.1816 44.153C64.1408 44.0536 64.0769 44.0039 63.9774 44.0039C63.878 44.0039 63.807 44.0536 63.768 44.153L62.3266 47.5771C62.2965 47.6463 62.3018 47.7155 62.3391 47.783ZM64.7663 46.6168L63.9824 44.7016L63.19 46.6168H64.7663Z" fill="white"/>
<path fill-rule="evenodd" clip-rule="evenodd" d="M67.8631 47.8842C67.8027 47.8842 67.753 47.8629 67.7122 47.8221C67.6713 47.7812 67.65 47.7298 67.65 47.6712V44.2169C67.65 44.1548 67.6713 44.1033 67.7122 44.0625C67.753 44.0234 67.8045 44.0021 67.8631 44.0021H68.8571C69.1056 44.0021 69.3239 44.0554 69.5139 44.1636C69.702 44.2719 69.8511 44.421 69.9594 44.611C70.0677 44.8009 70.1209 45.0228 70.1209 45.2748C70.1209 45.5269 70.0677 45.731 69.9594 45.9192C69.8511 46.1056 69.7038 46.2547 69.5139 46.3612C69.3257 46.4695 69.1056 46.5227 68.8571 46.5227H68.0814V47.6712C68.0814 47.7315 68.0601 47.7812 68.0193 47.8221C67.9784 47.8629 67.9252 47.8842 67.8631 47.8842ZM68.0814 46.1144H68.8571C69.0222 46.1144 69.1677 46.0772 69.2938 46.0044C69.4198 45.9316 69.5192 45.8322 69.592 45.7062C69.6647 45.5801 69.702 45.4364 69.702 45.2731C69.702 45.1009 69.6647 44.95 69.592 44.824C69.5192 44.6962 69.4198 44.595 69.2938 44.5204C69.1677 44.4459 69.0222 44.4086 68.8571 44.4086H68.0814V46.1144Z" fill="white"/>
<path fill-rule="evenodd" clip-rule="evenodd" d="M70.7742 47.8221C70.815 47.8629 70.8647 47.8842 70.925 47.8842V47.8824C70.9872 47.8824 71.0404 47.8611 71.0812 47.8203C71.1221 47.7795 71.1434 47.7297 71.1434 47.6694V46.3718H71.8445C71.8739 46.3718 71.9028 46.3711 71.9314 46.3697L72.8119 47.7759C72.8315 47.8114 72.8563 47.8398 72.8865 47.8576C72.9165 47.8752 72.9535 47.8841 72.9957 47.8842C73.0911 47.884 73.1564 47.8502 73.1918 47.783C73.2273 47.7156 73.2184 47.6392 73.1652 47.5522L72.3691 46.2805C72.4128 46.2636 72.4551 46.2443 72.496 46.2227C72.6859 46.1233 72.8332 45.9866 72.9415 45.8109C73.0498 45.6352 73.103 45.4346 73.103 45.2092C73.103 44.9713 73.0498 44.7618 72.9415 44.5808C72.8332 44.4015 72.6841 44.2595 72.496 44.1565C72.306 44.0536 72.0895 44.0021 71.8445 44.0021H70.925C70.8665 44.0021 70.815 44.0234 70.7742 44.0625C70.7333 44.1033 70.712 44.1548 70.712 44.2169V47.6712C70.712 47.7298 70.7333 47.7812 70.7742 47.8221ZM71.8445 45.9653H71.1434V44.4104H71.8445C72.0078 44.4104 72.1516 44.4441 72.2776 44.5116C72.4037 44.579 72.5031 44.6731 72.5759 44.792C72.6486 44.9109 72.6859 45.0494 72.6859 45.2092C72.6859 45.3547 72.6486 45.4861 72.5759 45.5997C72.5031 45.7133 72.4037 45.8038 72.2776 45.8677C72.1516 45.9334 72.0078 45.9653 71.8445 45.9653Z" fill="white"/>
<path d="M74.0208 47.8842C73.9604 47.8842 73.9107 47.8629 73.8699 47.8221C73.8291 47.7812 73.8078 47.7298 73.8078 47.6712V44.2169C73.8078 44.1548 73.8291 44.1033 73.8699 44.0625C73.9107 44.0234 73.9622 44.0021 74.0208 44.0021C74.0829 44.0021 74.1362 44.0216 74.177 44.0625C74.2178 44.1015 74.2391 44.153 74.2391 44.2169V47.6712C74.2391 47.7315 74.2178 47.7812 74.177 47.8221C74.1362 47.8629 74.0829 47.8842 74.0208 47.8842Z" fill="white"/>
<path fill-rule="evenodd" clip-rule="evenodd" d="M76.2325 47.7848C76.4739 47.8842 76.7402 47.9339 77.0277 47.9339C77.3171 47.9339 77.5815 47.8842 77.8212 47.7848C78.0608 47.6854 78.2703 47.5469 78.4496 47.3694C78.6271 47.1919 78.7655 46.9807 78.8614 46.7375C78.9572 46.4943 79.0052 46.228 79.0052 45.9405C79.0052 45.6529 78.9572 45.3867 78.8614 45.1452C78.7655 44.9038 78.6288 44.6944 78.4496 44.5169C78.2703 44.3394 78.0608 44.2009 77.8212 44.1015C77.5798 44.0021 77.3153 43.9524 77.0277 43.9524C76.7402 43.9524 76.4739 44.0021 76.2325 44.1015C75.9911 44.2009 75.7816 44.3394 75.6041 44.5169C75.4266 44.6944 75.2899 44.9038 75.1941 45.1452C75.0982 45.3867 75.0503 45.6529 75.0503 45.9405C75.0503 46.228 75.0982 46.4943 75.1941 46.7375C75.2899 46.9824 75.4266 47.1919 75.6041 47.3694C75.7816 47.5469 75.9911 47.6854 76.2325 47.7848ZM77.6508 47.412C77.4608 47.4919 77.2532 47.5309 77.0277 47.5309C76.8041 47.5309 76.5946 47.4919 76.4047 47.412C76.2148 47.3321 76.0479 47.2203 75.9077 47.0765C75.7674 46.931 75.6592 46.7623 75.5828 46.5688C75.5065 46.3754 75.4692 46.1659 75.4692 45.9405C75.4692 45.715 75.5065 45.5056 75.5828 45.3139C75.6592 45.1222 75.7674 44.9535 75.9077 44.8098C76.0479 44.666 76.2148 44.5542 76.4047 44.4743C76.5946 44.3944 76.8041 44.3553 77.0277 44.3553C77.2514 44.3553 77.4591 44.3944 77.6508 44.4743C77.8425 44.5542 78.0076 44.666 78.146 44.8098C78.2845 44.9535 78.3928 45.1222 78.4709 45.3139C78.549 45.5056 78.588 45.715 78.588 45.9405C78.588 46.1659 78.5472 46.3736 78.4709 46.5688C78.3945 46.7641 78.2845 46.9327 78.146 47.0765C78.0058 47.2203 77.8407 47.3321 77.6508 47.412Z" fill="white"/>
<path fill-rule="evenodd" clip-rule="evenodd" d="M80.024 47.8842C79.9637 47.8842 79.914 47.8629 79.8732 47.8221C79.8323 47.7812 79.811 47.7298 79.811 47.6712V44.2169C79.811 44.1548 79.8323 44.1033 79.8732 44.0625C79.914 44.0234 79.9655 44.0021 80.024 44.0021H80.9435C81.1885 44.0021 81.405 44.0536 81.595 44.1565C81.7831 44.2595 81.9322 44.4015 82.0405 44.5808C82.1488 44.7618 82.202 44.9713 82.202 45.2092C82.202 45.4346 82.1488 45.6352 82.0405 45.8109C81.9322 45.9866 81.7849 46.1233 81.595 46.2227C81.5541 46.2443 81.5118 46.2636 81.4681 46.2805L82.2642 47.5522C82.3174 47.6392 82.3263 47.7156 82.2908 47.783C82.2554 47.8502 82.19 47.884 82.0947 47.8842C82.0525 47.8841 82.0155 47.8752 81.9855 47.8576C81.9553 47.8398 81.9304 47.8114 81.9109 47.7759L81.0304 46.3697C81.0018 46.3711 80.9729 46.3718 80.9435 46.3718H80.2424V47.6694C80.2424 47.7297 80.2211 47.7795 80.1802 47.8203C80.1394 47.8611 80.0862 47.8824 80.024 47.8824V47.8842ZM80.2424 45.9653H80.9435C81.1068 45.9653 81.2506 45.9334 81.3766 45.8677C81.5027 45.8038 81.6021 45.7133 81.6748 45.5997C81.7476 45.4861 81.7849 45.3547 81.7849 45.2092C81.7849 45.0494 81.7476 44.9109 81.6748 44.792C81.6021 44.6731 81.5027 44.579 81.3766 44.5116C81.2506 44.4441 81.1068 44.4104 80.9435 44.4104H80.2424V45.9653Z" fill="white"/>
<path d="M82.9706 47.8221C83.0115 47.8629 83.0612 47.8842 83.1215 47.8842C83.1837 47.8842 83.2369 47.8629 83.2777 47.8221C83.3186 47.7812 83.3399 47.7315 83.3399 47.6712V44.2169C83.3399 44.153 83.3186 44.1015 83.2777 44.0625C83.2369 44.0216 83.1837 44.0021 83.1215 44.0021C83.063 44.0021 83.0115 44.0234 82.9706 44.0625C82.9298 44.1033 82.9085 44.1548 82.9085 44.2169V47.6712C82.9085 47.7298 82.9298 47.7812 82.9706 47.8221Z" fill="white"/>
<path d="M84.1103 44.3944C84.0499 44.3944 84.002 44.3766 83.9665 44.3394C83.9292 44.3021 83.9114 44.2559 83.9114 44.2009C83.9114 44.1406 83.9292 44.0926 83.9665 44.0571C84.0037 44.0216 84.0517 44.0021 84.1103 44.0021H86.8297C86.89 44.0021 86.9379 44.0199 86.9734 44.0571C87.0089 44.0944 87.0285 44.1423 87.0285 44.2009C87.0285 44.2577 87.0107 44.3039 86.9734 44.3394C86.9362 44.3766 86.8882 44.3944 86.8297 44.3944H85.6865V47.6712C85.6865 47.7315 85.6652 47.7812 85.6244 47.8221C85.5835 47.8629 85.5303 47.8842 85.4682 47.8842H85.4664C85.406 47.8842 85.3563 47.8629 85.3155 47.8221C85.2747 47.7812 85.2534 47.7298 85.2534 47.6712V44.3944H84.1103Z" fill="white"/>
<path fill-rule="evenodd" clip-rule="evenodd" d="M90.9141 47.8842C90.8537 47.8842 90.804 47.8629 90.7632 47.8221C90.7224 47.7812 90.7011 47.7298 90.7011 47.6712V44.2169C90.7011 44.1548 90.7224 44.1033 90.7632 44.0625C90.804 44.0234 90.8555 44.0021 90.9141 44.0021H91.8336C92.0785 44.0021 92.2951 44.0536 92.485 44.1565C92.6732 44.2595 92.8223 44.4015 92.9305 44.5808C93.0388 44.7618 93.0921 44.9713 93.0921 45.2092C93.0921 45.4346 93.0388 45.6352 92.9305 45.8109C92.8223 45.9866 92.6749 46.1233 92.485 46.2227C92.4441 46.2443 92.4018 46.2636 92.3581 46.2805L93.1542 47.5522C93.2075 47.6392 93.2163 47.7156 93.1808 47.783C93.1455 47.8502 93.0801 47.884 92.9848 47.8842C92.9425 47.8841 92.9055 47.8752 92.8755 47.8576C92.8453 47.8398 92.8205 47.8114 92.801 47.7759L91.9204 46.3697C91.8918 46.3711 91.8629 46.3718 91.8336 46.3718H91.1324V47.6694C91.1324 47.7297 91.1111 47.7795 91.0703 47.8203C91.0295 47.8611 90.9762 47.8824 90.9141 47.8824V47.8842ZM91.1324 45.9653H91.8336C91.9969 45.9653 92.1406 45.9334 92.2667 45.8677C92.3927 45.8038 92.4921 45.7133 92.5649 45.5997C92.6377 45.4861 92.6749 45.3547 92.6749 45.2092C92.6749 45.0494 92.6377 44.9109 92.5649 44.792C92.4921 44.6731 92.3927 44.579 92.2667 44.5116C92.1406 44.4441 91.9969 44.4104 91.8336 44.4104H91.1324V45.9653Z" fill="white"/>
<path d="M93.8589 47.8221C93.8997 47.8629 93.9494 47.8842 94.0098 47.8842C94.0719 47.8842 94.1252 47.8629 94.166 47.8221C94.2068 47.7812 94.2281 47.7315 94.2281 47.6712V44.2169C94.2281 44.153 94.2068 44.1015 94.166 44.0625C94.1252 44.0216 94.0719 44.0021 94.0098 44.0021C93.9512 44.0021 93.8997 44.0234 93.8589 44.0625C93.8181 44.1033 93.7968 44.1548 93.7968 44.2169V47.6712C93.7968 47.7298 93.8181 47.7812 93.8589 47.8221Z" fill="white"/>
<path fill-rule="evenodd" clip-rule="evenodd" d="M97.0167 47.9339C96.7292 47.9339 96.4629 47.8842 96.2215 47.7848C95.9801 47.6854 95.7706 47.5469 95.5931 47.3694C95.4156 47.1919 95.2789 46.9824 95.1831 46.7375C95.0873 46.4943 95.0393 46.228 95.0393 45.9405C95.0393 45.6529 95.0873 45.3867 95.1831 45.1452C95.2789 44.9038 95.4156 44.6944 95.5931 44.5169C95.7706 44.3394 95.9801 44.2009 96.2215 44.1015C96.4629 44.0021 96.7292 43.9524 97.0167 43.9524C97.3043 43.9524 97.5688 44.0021 97.8102 44.1015C98.0498 44.2009 98.2593 44.3394 98.4386 44.5169C98.6179 44.6944 98.7545 44.9038 98.8504 45.1452C98.9462 45.3867 98.9942 45.6529 98.9942 45.9405C98.9942 46.228 98.9462 46.4943 98.8504 46.7375C98.7545 46.9807 98.6161 47.1919 98.4386 47.3694C98.2593 47.5469 98.0498 47.6854 97.8102 47.7848C97.5706 47.8842 97.3061 47.9339 97.0167 47.9339ZM97.0167 47.5309C97.2422 47.5309 97.4499 47.4919 97.6398 47.412C97.8297 47.3321 97.9948 47.2203 98.135 47.0765C98.2735 46.9327 98.3836 46.7641 98.4599 46.5688C98.5362 46.3736 98.577 46.1659 98.577 45.9405C98.577 45.715 98.538 45.5056 98.4599 45.3139C98.3818 45.1222 98.2735 44.9535 98.135 44.8098C97.9966 44.666 97.8315 44.5542 97.6398 44.4743C97.4481 44.3944 97.2404 44.3553 97.0167 44.3553C96.7931 44.3553 96.5836 44.3944 96.3937 44.4743C96.2038 44.5542 96.0369 44.666 95.8967 44.8098C95.7565 44.9535 95.6482 45.1222 95.5718 45.3139C95.4955 45.5056 95.4582 45.715 95.4582 45.9405C95.4582 46.1659 95.4955 46.3754 95.5718 46.5688C95.6482 46.7623 95.7565 46.931 95.8967 47.0765C96.0369 47.2203 96.2038 47.3321 96.3937 47.412C96.5836 47.4919 96.7931 47.5309 97.0167 47.5309Z" fill="white"/>
<path fill-rule="evenodd" clip-rule="evenodd" d="M36.8278 53.7863C36.8686 53.8271 36.9183 53.8484 36.9787 53.8484V53.8502H37.8786C38.1644 53.8502 38.4254 53.8022 38.6597 53.7082C38.894 53.6141 39.0981 53.4792 39.2703 53.3052C39.4425 53.1313 39.5756 52.9254 39.6697 52.6893C39.7638 52.4532 39.8117 52.1923 39.8117 51.9065C39.8117 51.6207 39.7638 51.3615 39.6697 51.1254C39.5756 50.8894 39.4425 50.6852 39.2703 50.5113C39.0981 50.3373 38.8958 50.2024 38.6597 50.1083C38.4236 50.0143 38.1644 49.9663 37.8786 49.9663H36.9787C36.9201 49.9663 36.8686 49.9876 36.8278 50.0267C36.787 50.0675 36.7657 50.119 36.7657 50.1811V53.6354C36.7657 53.694 36.787 53.7454 36.8278 53.7863ZM37.8786 53.465H37.197V50.348H37.8786C38.1733 50.348 38.4342 50.4136 38.6614 50.5468C38.8887 50.6799 39.0662 50.8627 39.1957 51.0988C39.3253 51.3349 39.3892 51.6029 39.3892 51.9047C39.3892 52.2065 39.3253 52.4745 39.1957 52.7106C39.0662 52.9449 38.8887 53.1295 38.6614 53.2644C38.4342 53.3975 38.1733 53.465 37.8786 53.465Z" fill="white"/>
<path d="M40.8253 53.8484C40.7649 53.8484 40.7152 53.8271 40.6744 53.7863C40.6336 53.7454 40.6123 53.694 40.6123 53.6354V50.1811C40.6123 50.119 40.6336 50.0675 40.6744 50.0267C40.7152 49.9876 40.7667 49.9663 40.8253 49.9663H43.1311C43.1914 49.9663 43.2411 49.9859 43.2819 50.0231C43.3228 50.0604 43.3441 50.1119 43.3441 50.174C43.3441 50.2308 43.3228 50.277 43.2819 50.316C43.2411 50.3533 43.1896 50.3728 43.1311 50.3728H41.0436V51.6899H42.5542C42.6163 51.6899 42.6678 51.7094 42.7086 51.7503C42.7477 51.7893 42.769 51.839 42.769 51.8941C42.769 51.9544 42.7494 52.0041 42.7086 52.0432C42.6696 52.0822 42.6181 52.1035 42.5542 52.1035H41.0436V53.4401H43.1311C43.1914 53.4401 43.2411 53.4597 43.2819 53.4969C43.3228 53.5342 43.3441 53.5821 43.3441 53.6389C43.3441 53.7011 43.3228 53.7525 43.2819 53.7898C43.2411 53.8271 43.1896 53.8466 43.1311 53.8466H40.8253V53.8484Z" fill="white"/>
<path fill-rule="evenodd" clip-rule="evenodd" d="M45.5895 53.788C45.6339 53.8289 45.6907 53.8484 45.7564 53.8484L45.7546 53.8466H47.0273C47.2652 53.8466 47.4764 53.7969 47.661 53.6975C47.8457 53.5981 47.9894 53.4614 48.0942 53.2893C48.1989 53.1171 48.2504 52.9165 48.2504 52.6875C48.2504 52.4354 48.1847 52.2278 48.0498 52.068C47.9149 51.9082 47.7374 51.8 47.5155 51.7432C47.6717 51.6668 47.7959 51.5621 47.8883 51.4254C47.9806 51.2905 48.0267 51.1361 48.0267 50.9639C48.0267 50.7687 47.9788 50.5965 47.8847 50.4474C47.7906 50.2983 47.661 50.1811 47.4977 50.0941C47.3344 50.0072 47.148 49.9646 46.9386 49.9646H45.7351C45.6765 49.9646 45.625 49.9859 45.5842 50.0249C45.5434 50.0657 45.5221 50.1172 45.5221 50.1793V53.6336C45.5221 53.6975 45.5452 53.749 45.5895 53.788ZM46.9386 51.5763H45.9552V50.3728H46.9386C47.1356 50.3728 47.2954 50.4225 47.4214 50.5219C47.5474 50.6213 47.6096 50.7687 47.6096 50.9639C47.6096 51.1592 47.5474 51.3101 47.4214 51.4166C47.2954 51.5231 47.1338 51.5763 46.9386 51.5763ZM47.0291 53.4401H45.9552V51.9864H47.0291C47.1871 51.9864 47.3273 52.0148 47.4463 52.0733C47.567 52.1301 47.661 52.2136 47.7303 52.3165C47.7995 52.4195 47.835 52.5455 47.835 52.6911C47.835 52.849 47.7995 52.9857 47.7303 53.0958C47.6593 53.2058 47.5652 53.291 47.4463 53.3514C47.3273 53.41 47.1889 53.4401 47.0291 53.4401Z" fill="white"/>
<path d="M49.2355 53.8484C49.1752 53.8484 49.1255 53.8271 49.0846 53.7863C49.0438 53.7454 49.0225 53.694 49.0225 53.6354V50.1811C49.0225 50.119 49.0438 50.0675 49.0846 50.0267C49.1255 49.9876 49.177 49.9663 49.2355 49.9663C49.2977 49.9663 49.3509 49.9859 49.3917 50.0267C49.4326 50.0657 49.4539 50.1172 49.4539 50.1811V53.6354C49.4539 53.6957 49.4326 53.7454 49.3917 53.7863C49.3509 53.8271 49.2977 53.8484 49.2355 53.8484Z" fill="white"/>
<path fill-rule="evenodd" clip-rule="evenodd" d="M51.4473 53.749C51.6887 53.8484 51.9549 53.8981 52.2425 53.8981C52.5318 53.8981 52.7963 53.8484 53.0359 53.749C53.2756 53.6496 53.485 53.5111 53.6643 53.3336C53.8418 53.1561 53.9803 52.9449 54.0761 52.7017C54.172 52.4585 54.2199 52.1923 54.2199 51.9047C54.2199 51.6171 54.172 51.3509 54.0761 51.1095C53.9803 50.8681 53.8436 50.6586 53.6643 50.4811C53.485 50.3036 53.2756 50.1651 53.0359 50.0657C52.7945 49.9663 52.53 49.9166 52.2425 49.9166C51.9549 49.9166 51.6887 49.9663 51.4473 50.0657C51.2058 50.1651 50.9964 50.3036 50.8189 50.4811C50.6414 50.6586 50.5047 50.8681 50.4088 51.1095C50.313 51.3509 50.2651 51.6171 50.2651 51.9047C50.2651 52.1923 50.313 52.4585 50.4088 52.7017C50.5047 52.9467 50.6414 53.1561 50.8189 53.3336C50.9964 53.5111 51.2058 53.6496 51.4473 53.749ZM52.8655 53.3762C52.6756 53.4561 52.4679 53.4952 52.2425 53.4952C52.0171 53.4952 51.8094 53.4561 51.6194 53.3762C51.4295 53.2964 51.2627 53.1845 51.1224 53.0407C50.9822 52.8952 50.8739 52.7266 50.7976 52.5331C50.7213 52.3396 50.684 52.1301 50.684 51.9047C50.684 51.6793 50.7213 51.4698 50.7976 51.2781C50.8721 51.0864 50.9822 50.9178 51.1224 50.774C51.2627 50.6302 51.4295 50.5184 51.6194 50.4385C51.8094 50.3586 52.0171 50.3196 52.2425 50.3196C52.4679 50.3196 52.6756 50.3586 52.8655 50.4385C53.0572 50.5184 53.2223 50.6302 53.3608 50.774C53.4992 50.9178 53.6075 51.0864 53.6856 51.2781C53.7637 51.4698 53.8028 51.6793 53.8028 51.9047C53.8028 52.1301 53.7637 52.3396 53.6856 52.5331C53.6093 52.7283 53.4992 52.897 53.3608 53.0407C53.2205 53.1845 53.0555 53.2964 52.8655 53.3762Z" fill="white"/>
<path d="M55.2388 53.8484C55.1785 53.8484 55.1288 53.8271 55.0879 53.7863C55.0471 53.7454 55.0258 53.694 55.0258 53.6354V50.1811C55.0258 50.119 55.0471 50.0675 55.0879 50.0267C55.1288 49.9876 55.1802 49.9663 55.2388 49.9663H57.5446C57.605 49.9663 57.6547 49.9859 57.6955 50.0231C57.7363 50.0604 57.7576 50.1119 57.7576 50.174C57.7576 50.2308 57.7363 50.277 57.6955 50.316C57.6547 50.3533 57.6032 50.3728 57.5446 50.3728H55.4571V51.6899H56.9677C57.0299 51.6899 57.0813 51.7094 57.1221 51.7503C57.1612 51.7893 57.1825 51.839 57.1825 51.8941C57.1825 51.9544 57.163 52.0041 57.1221 52.0432C57.0831 52.0822 57.0316 52.1035 56.9677 52.1035H55.4571V53.4401H57.5446C57.605 53.4401 57.6547 53.4597 57.6955 53.4969C57.7363 53.5342 57.7576 53.5821 57.7576 53.6389C57.7576 53.7011 57.7363 53.7525 57.6955 53.7898C57.6547 53.8271 57.6032 53.8466 57.5446 53.8466H55.2388V53.8484Z" fill="white"/>
<path d="M59.4706 53.7437C59.7031 53.8466 59.9551 53.8981 60.2232 53.8981V53.891C60.4468 53.891 60.6634 53.8573 60.8711 53.7898C61.0788 53.7224 61.2687 53.6141 61.4409 53.465C61.4604 53.4384 61.4746 53.4135 61.4852 53.3887C61.4941 53.3638 61.4995 53.339 61.4995 53.3123C61.4995 53.2538 61.4835 53.2058 61.448 53.1685C61.4142 53.133 61.3716 53.1117 61.3219 53.1046C61.2722 53.0975 61.2243 53.1117 61.1782 53.149C61.0362 53.2591 60.8853 53.3443 60.7255 53.4029C60.5658 53.4614 60.3989 53.4916 60.2232 53.4916C60.0155 53.4916 59.8202 53.4508 59.6374 53.3674C59.4546 53.2857 59.293 53.1703 59.1546 53.0248C59.0161 52.8792 58.9079 52.7106 58.8297 52.5206C58.7516 52.3289 58.7126 52.1159 58.7126 51.9012C58.7126 51.6864 58.7516 51.4822 58.8297 51.2905C58.9061 51.097 59.0161 50.9284 59.1546 50.7829C59.2948 50.6373 59.4546 50.5237 59.6374 50.4403C59.8185 50.3568 60.0173 50.316 60.2232 50.316C60.4291 50.316 60.6048 50.3426 60.7504 50.3977C60.8959 50.4527 61.0326 50.5344 61.1586 50.6444C61.2012 50.6764 61.2456 50.6959 61.2882 50.6959C61.3308 50.6977 61.3681 50.687 61.4018 50.6639C61.4355 50.6409 61.4533 50.6089 61.4568 50.5699C61.4764 50.5539 61.4888 50.5326 61.4959 50.5059C61.503 50.4793 61.503 50.4527 61.4941 50.4243C61.487 50.3977 61.4675 50.371 61.4373 50.348C61.2563 50.1953 61.0681 50.0853 60.8764 50.0178C60.6847 49.9504 60.4664 49.9166 60.225 49.9166C59.9534 49.9166 59.7013 49.9681 59.467 50.0728C59.2327 50.1776 59.0286 50.3196 58.8528 50.5006C58.6771 50.6817 58.5404 50.8929 58.4428 51.1325C58.3434 51.3722 58.2955 51.626 58.2955 51.9047C58.2955 52.1834 58.3452 52.4425 58.4428 52.6822C58.5404 52.9218 58.6771 53.133 58.8546 53.3159C59.0321 53.4987 59.2362 53.6407 59.4706 53.7437Z" fill="white"/>
<path fill-rule="evenodd" clip-rule="evenodd" d="M64.1159 53.8981C63.8283 53.8981 63.5621 53.8484 63.3207 53.749C63.0793 53.6496 62.8698 53.5111 62.6923 53.3336C62.5148 53.1561 62.3781 52.9467 62.2823 52.7017C62.1864 52.4585 62.1385 52.1923 62.1385 51.9047C62.1385 51.6171 62.1864 51.3509 62.2823 51.1095C62.3781 50.8681 62.5148 50.6586 62.6923 50.4811C62.8698 50.3036 63.0793 50.1651 63.3207 50.0657C63.5621 49.9663 63.8283 49.9166 64.1159 49.9166C64.4035 49.9166 64.6679 49.9663 64.9076 50.0657C65.1472 50.1651 65.3584 50.3036 65.536 50.4811C65.7135 50.6586 65.8519 50.8681 65.9478 51.1095C66.0436 51.3509 66.0915 51.6171 66.0915 51.9047C66.0915 52.1923 66.0436 52.4585 65.9478 52.7017C65.8519 52.9449 65.7135 53.1561 65.536 53.3336C65.3567 53.5111 65.1472 53.6496 64.9076 53.749C64.6679 53.8484 64.4035 53.8981 64.1159 53.8981ZM64.1159 53.4952C64.3413 53.4952 64.549 53.4561 64.739 53.3762C64.9289 53.2964 65.094 53.1845 65.2342 53.0407C65.3744 52.897 65.4827 52.7283 65.559 52.5331C65.6371 52.3396 65.6762 52.1301 65.6762 51.9047C65.6762 51.6793 65.6371 51.4698 65.559 51.2781C65.4809 51.0864 65.3726 50.9178 65.2342 50.774C65.0957 50.6302 64.9307 50.5184 64.739 50.4385C64.549 50.3586 64.3396 50.3196 64.1159 50.3196C63.8922 50.3196 63.6828 50.3586 63.4929 50.4385C63.3029 50.5184 63.1361 50.6302 62.9958 50.774C62.8556 50.9178 62.7456 51.0864 62.671 51.2781C62.5947 51.4698 62.5574 51.6793 62.5574 51.9047C62.5574 52.1301 62.5947 52.3396 62.671 52.5331C62.7473 52.7266 62.8556 52.8952 62.9958 53.0407C63.1361 53.1845 63.3029 53.2964 63.4929 53.3762C63.6828 53.4561 63.8922 53.4952 64.1159 53.4952Z" fill="white"/>
<path d="M66.9578 53.7863C66.9986 53.8271 67.0501 53.8484 67.1122 53.8484V53.8466C67.1708 53.8466 67.2223 53.8253 67.2631 53.7845C67.3039 53.7437 67.3252 53.694 67.3252 53.6336V50.7314L69.6363 53.7738C69.6559 53.8005 69.6825 53.8182 69.7109 53.8306C69.7393 53.8431 69.7695 53.8484 69.7997 53.8484C69.8582 53.8484 69.9097 53.8271 69.9505 53.7863C69.9914 53.7454 70.0127 53.6957 70.0127 53.6354V50.1811C70.0127 50.1172 69.9914 50.0657 69.9505 50.0267C69.9097 49.9859 69.86 49.9663 69.7997 49.9663C69.7375 49.9663 69.6843 49.9876 69.6434 50.0267C69.6026 50.0675 69.5813 50.119 69.5813 50.1811V53.0887L67.2755 50.0462C67.2329 49.993 67.1779 49.9663 67.1122 49.9663C67.0483 49.9663 66.9968 49.9876 66.9578 50.0267C66.9169 50.0675 66.8974 50.119 66.8974 50.1811V53.6354C66.8974 53.694 66.9187 53.7454 66.9578 53.7863Z" fill="white"/>
<path fill-rule="evenodd" clip-rule="evenodd" d="M72.8031 53.8981C72.5155 53.8981 72.2493 53.8484 72.0079 53.749C71.7664 53.6496 71.557 53.5111 71.3795 53.3336C71.202 53.1561 71.0653 52.9467 70.9694 52.7017C70.8736 52.4585 70.8257 52.1923 70.8257 51.9047C70.8257 51.6171 70.8736 51.3509 70.9694 51.1095C71.0653 50.8681 71.202 50.6586 71.3795 50.4811C71.557 50.3036 71.7664 50.1651 72.0079 50.0657C72.2493 49.9663 72.5155 49.9166 72.8031 49.9166C73.0906 49.9166 73.3551 49.9663 73.5965 50.0657C73.8362 50.1651 74.0456 50.3036 74.2249 50.4811C74.4042 50.6586 74.5409 50.8681 74.6367 51.1095C74.7326 51.3509 74.7805 51.6171 74.7805 51.9047C74.7805 52.1923 74.7326 52.4585 74.6367 52.7017C74.5409 52.9449 74.4024 53.1561 74.2249 53.3336C74.0456 53.5111 73.8362 53.6496 73.5965 53.749C73.3569 53.8484 73.0924 53.8981 72.8031 53.8981ZM72.8031 53.4952C73.0285 53.4952 73.2362 53.4561 73.4261 53.3762C73.6161 53.2964 73.7812 53.1845 73.9214 53.0407C74.0598 52.897 74.1699 52.7283 74.2462 52.5331C74.3225 52.3378 74.3634 52.1301 74.3634 51.9047C74.3634 51.6793 74.3243 51.4698 74.2462 51.2781C74.1681 51.0864 74.0598 50.9178 73.9214 50.774C73.7829 50.6302 73.6178 50.5184 73.4261 50.4385C73.2344 50.3586 73.0267 50.3196 72.8031 50.3196C72.5794 50.3196 72.37 50.3586 72.18 50.4385C71.9901 50.5184 71.8233 50.6302 71.683 50.774C71.5428 50.9178 71.4345 51.0864 71.3582 51.2781C71.2819 51.4698 71.2446 51.6793 71.2446 51.9047C71.2446 52.1301 71.2819 52.3396 71.3582 52.5331C71.4345 52.7266 71.5428 52.8952 71.683 53.0407C71.8233 53.1845 71.9901 53.2964 72.18 53.3762C72.37 53.4561 72.5794 53.4952 72.8031 53.4952Z" fill="white"/>
<path d="M75.6485 53.7863C75.6893 53.8271 75.739 53.8484 75.7994 53.8484H75.8012C75.8615 53.8484 75.913 53.8271 75.9556 53.7863C75.9982 53.7454 76.0195 53.6957 76.0195 53.6354V50.982L77.3313 53.6105C77.3703 53.6975 77.4378 53.7401 77.5301 53.7401C77.6117 53.7401 77.6756 53.7046 77.7182 53.6354L79.0407 50.934V53.6354C79.0407 53.694 79.062 53.7454 79.1028 53.7863C79.1436 53.8271 79.1951 53.8484 79.259 53.8484C79.3158 53.8484 79.3655 53.8271 79.4063 53.7863C79.4471 53.7454 79.4684 53.6957 79.4684 53.6354V50.1811C79.4684 50.1172 79.4471 50.0657 79.4081 50.0267C79.369 49.9859 79.3193 49.9663 79.259 49.9663C79.1738 49.9663 79.1081 50.0036 79.0655 50.0799L77.5452 53.1711L75.9929 50.0799C75.9503 50.0036 75.8864 49.9663 75.7994 49.9663C75.7408 49.9663 75.6893 49.9876 75.6485 50.0267C75.6077 50.0675 75.5864 50.119 75.5864 50.1811V53.6354C75.5864 53.694 75.6077 53.7454 75.6485 53.7863Z" fill="white"/>
<path d="M80.6755 53.8484C80.6151 53.8484 80.5654 53.8271 80.5246 53.7863C80.4838 53.7454 80.4625 53.694 80.4625 53.6354V50.1811C80.4625 50.119 80.4838 50.0675 80.5246 50.0267C80.5654 49.9876 80.6169 49.9663 80.6755 49.9663C80.7376 49.9663 80.7909 49.9859 80.8317 50.0267C80.8725 50.0657 80.8938 50.1172 80.8938 50.1811V53.6354C80.8938 53.6957 80.8725 53.7454 80.8317 53.7863C80.7909 53.8271 80.7376 53.8484 80.6755 53.8484Z" fill="white"/>
<path fill-rule="evenodd" clip-rule="evenodd" d="M81.5133 53.7472C81.5506 53.8147 81.611 53.8484 81.6944 53.8484H81.6962C81.7388 53.8484 81.7778 53.8377 81.8133 53.8164C81.847 53.7951 81.8754 53.7614 81.895 53.7153L82.2122 52.9484H84.091L84.4049 53.7153C84.4244 53.7579 84.4511 53.7916 84.4866 53.8147C84.5221 53.8378 84.5611 53.8502 84.6037 53.8502C84.6836 53.8502 84.7439 53.8164 84.7848 53.7525C84.8256 53.6886 84.8309 53.6194 84.7972 53.5466L83.3558 50.1172C83.315 50.0178 83.2511 49.9681 83.1517 49.9681C83.0523 49.9681 82.9813 50.0178 82.9423 50.1172L81.5009 53.5413C81.4707 53.6105 81.4761 53.6798 81.5133 53.7472ZM83.9406 52.581L83.1566 50.6658L82.3643 52.581H83.9406Z" fill="white"/>
<path fill-rule="evenodd" clip-rule="evenodd" d="M12.1029 38.3924C14.0146 40.2993 16.651 41.4797 19.5582 41.4797C25.3822 41.4797 30.1198 36.7421 30.1198 30.9181C30.1198 25.0941 25.3822 20.3565 19.5582 20.3565C16.651 20.3565 14.0146 21.5369 12.1029 23.4437V21.9096C12.1029 21.0523 11.4071 20.3565 10.5497 20.3565C9.69239 20.3565 8.99656 21.0523 8.99656 21.9096V46.915C8.99656 47.7724 9.69239 48.4682 10.5497 48.4682V48.47C11.4071 48.47 12.1029 47.7741 12.1029 46.9168V38.3924ZM12.1029 30.9181C12.1029 26.807 15.4472 23.4628 19.5582 23.4628C23.6693 23.4628 27.0135 26.807 27.0135 30.9181C27.0135 35.0291 23.6693 38.3734 19.5582 38.3734C15.4472 38.3734 12.1029 35.0291 12.1029 30.9181Z" fill="white"/>
<path d="M76.3656 41.1691C75.9361 41.1691 75.5881 40.8212 75.5881 40.3916V21.5901C75.5881 21.1606 75.9361 20.8126 76.3656 20.8126C76.7952 20.8126 77.1431 21.1606 77.1431 21.5901V40.3916C77.1431 40.8212 76.7952 41.1691 76.3656 41.1691Z" fill="white"/>
<path fill-rule="evenodd" clip-rule="evenodd" d="M34.041 38.3924C35.9526 40.2993 38.5891 41.4797 41.4962 41.4797C47.3202 41.4797 52.0579 36.7421 52.0579 30.9181C52.0579 25.0941 47.3202 20.3565 41.4962 20.3565C38.5891 20.3565 35.9526 21.5369 34.041 23.4437V21.9096C34.041 21.0523 33.3451 20.3565 32.4878 20.3565C31.6304 20.3565 30.9346 21.0523 30.9346 21.9096V46.915C30.9346 47.7724 31.6304 48.4682 32.4878 48.4682V48.47C33.3451 48.47 34.041 47.7741 34.041 46.9168V38.3924ZM34.041 30.9181C34.041 26.807 37.3852 23.4628 41.4962 23.4628C45.6073 23.4628 48.9515 26.807 48.9515 30.9181C48.9515 35.0291 45.6073 38.3734 41.4962 38.3734C37.3852 38.3734 34.041 35.0291 34.041 30.9181Z" fill="white"/>
<path fill-rule="evenodd" clip-rule="evenodd" d="M53.6501 40.3916C53.6501 40.8212 53.998 41.1691 54.4276 41.1691V41.1709C54.8572 41.1709 55.2051 40.823 55.2051 40.3934V36.6699C56.9475 39.3744 59.9857 41.1691 63.4361 41.1691C68.8305 41.1691 73.2202 36.7794 73.2202 31.3849C73.2202 25.9905 68.8305 21.6008 63.4361 21.6008C59.9865 21.6008 56.9478 23.3958 55.2051 26.1007V15.3863C55.2051 14.9567 54.8572 14.6088 54.4276 14.6088C53.998 14.6088 53.6501 14.9567 53.6501 15.3863V40.3916ZM55.2051 31.5573V31.2126C55.2971 26.7513 58.9548 23.1522 63.4361 23.1522C67.9767 23.1522 71.6688 26.8443 71.6688 31.3849C71.6688 35.9256 67.9767 39.6177 63.4361 39.6177C58.953 39.6177 55.2971 36.0186 55.2051 31.5573Z" fill="white"/>
<path d="M76.2822 21.9309C74.784 21.9309 73.5646 20.7115 73.5646 19.2133C73.5646 17.7152 74.784 16.4957 76.2822 16.4957C77.7804 16.4957 78.9998 17.7152 78.9998 19.2133C78.9998 20.7115 77.7804 21.9309 76.2822 21.9309ZM76.2822 17.7382C75.4692 17.7382 74.8071 18.4003 74.8071 19.2133C74.8071 20.0263 75.4692 20.6884 76.2822 20.6884C77.0952 20.6884 77.7573 20.0263 77.7573 19.2133C77.7573 18.4003 77.0952 17.7382 76.2822 17.7382Z" fill="white"/>
</svg>
