<svg width="990" height="508" viewBox="0 0 990 508" fill="none" xmlns="http://www.w3.org/2000/svg">
<path fill-rule="evenodd" clip-rule="evenodd" d="M32.27 64.54C14.48 64.54 0 50.06 0 32.27C0 14.48 14.48 0 32.27 0C50.06 0 64.54 14.48 64.54 32.27C64.54 36.9834 63.5236 41.4644 61.6984 45.5054L143.816 127.623C148.167 125.434 153.077 124.2 158.27 124.2C176.06 124.2 190.54 138.68 190.54 156.47C190.54 174.26 176.06 188.74 158.27 188.74C140.48 188.74 126 174.26 126 156.47C126 148.333 129.029 140.889 134.018 135.206L54.4748 55.6624C48.685 61.1611 40.8637 64.54 32.27 64.54ZM32.27 12.3C21.26 12.3 12.29 21.26 12.29 32.27C12.29 43.28 21.25 52.25 32.27 52.25C43.29 52.25 52.25 43.29 52.25 32.27C52.25 21.25 43.29 12.3 32.27 12.3ZM158.27 136.5C147.26 136.5 138.29 145.46 138.29 156.47C138.29 167.48 147.25 176.45 158.27 176.45C169.29 176.45 178.25 167.49 178.25 156.47C178.25 145.45 169.29 136.5 158.27 136.5Z" fill="white"/>
<path fill-rule="evenodd" clip-rule="evenodd" d="M618.35 373.12C618.35 376.62 621.19 379.46 624.69 379.46C628.19 379.46 631.03 376.62 631.03 373.12V342.724C645.264 364.808 670.079 379.46 698.25 379.46C742.32 379.46 778.16 343.62 778.16 299.56C778.16 255.5 742.32 219.65 698.25 219.65C670.074 219.65 645.262 234.304 631.03 256.389V168.92C631.03 165.42 628.19 162.58 624.69 162.58C621.19 162.58 618.35 165.42 618.35 168.92V298.285C618.343 298.71 618.34 299.134 618.34 299.56C618.34 299.986 618.343 300.41 618.35 300.834V373.12ZM631.03 299.459L631.03 299.55L631.03 299.641C631.08 336.66 661.221 366.77 698.25 366.77C735.31 366.77 765.47 336.61 765.47 299.55C765.47 262.49 735.31 232.33 698.25 232.33C661.211 232.33 631.08 262.44 631.03 299.459Z" fill="white"/>
<path fill-rule="evenodd" clip-rule="evenodd" d="M797.5 222.275C786.444 219.447 778.24 209.401 778.24 197.47C778.24 183.35 789.72 171.87 803.84 171.87C817.96 171.87 829.44 183.35 829.44 197.47C829.44 209.402 821.242 219.449 810.18 222.276V373.12C810.18 376.62 807.34 379.46 803.84 379.46C800.34 379.46 797.5 376.62 797.5 373.12V222.275ZM789.95 197.47C789.95 189.81 796.18 183.58 803.84 183.58C811.5 183.58 817.73 189.81 817.73 197.47C817.73 205.13 811.5 211.36 803.84 211.36C796.18 211.36 789.95 205.13 789.95 197.47Z" fill="white"/>
<path fill-rule="evenodd" clip-rule="evenodd" d="M328.67 379.46C303.625 379.46 280.91 369.287 264.44 352.857V426.3C264.44 433.69 258.45 439.68 251.06 439.68C243.67 439.68 237.68 433.69 237.68 426.3V210.87C237.68 203.48 243.67 197.49 251.06 197.49C258.45 197.49 264.44 203.48 264.44 210.87V224.083C280.91 207.653 303.625 197.48 328.67 197.48C378.84 197.48 419.66 238.3 419.66 288.47C419.66 338.64 378.84 379.46 328.67 379.46ZM328.67 224.24C293.25 224.24 264.44 253.05 264.44 288.47C264.44 323.89 293.25 352.7 328.67 352.7C364.09 352.7 392.9 323.89 392.9 288.47C392.9 253.05 364.09 224.24 328.67 224.24Z" fill="white"/>
<path fill-rule="evenodd" clip-rule="evenodd" d="M453.45 210.87V224.083C469.92 207.652 492.635 197.48 517.68 197.48C567.85 197.48 608.67 238.3 608.67 288.47C608.67 338.64 567.85 379.46 517.68 379.46C492.635 379.46 469.92 369.287 453.45 352.857V426.3C453.45 433.69 447.46 439.68 440.07 439.68C432.68 439.68 426.69 433.69 426.69 426.3V210.87C426.69 203.48 432.68 197.49 440.07 197.49C447.46 197.49 453.45 203.48 453.45 210.87ZM517.68 352.7C482.26 352.7 453.45 323.89 453.45 288.47C453.45 253.05 482.26 224.24 517.68 224.24C553.1 224.24 581.91 253.05 581.91 288.47C581.91 323.89 553.1 352.7 517.68 352.7Z" fill="white"/>
<path fill-rule="evenodd" clip-rule="evenodd" d="M909.43 375.66C865.37 375.66 829.52 339.81 829.52 295.75C829.52 251.69 865.36 215.84 909.43 215.84C953.5 215.84 989.34 251.69 989.34 295.75C989.34 339.81 953.5 375.66 909.43 375.66ZM909.43 228.53C872.36 228.53 842.21 258.69 842.21 295.75C842.21 332.81 872.37 362.97 909.43 362.97C946.49 362.97 976.65 332.81 976.65 295.75C976.65 258.69 946.49 228.53 909.43 228.53Z" fill="white"/>
<path fill-rule="evenodd" clip-rule="evenodd" d="M308.69 13.56C314.19 29.41 312.77 46.48 306.62 62.56V62.58C300.94 77.43 291.2 91.49 279.18 102.92C267.13 114.38 252.74 123.26 237.79 127.73C222.73 132.23 207.09 132.29 192.6 126.1L190.38 125.15L189.48 122.92C180.84 101.52 183.89 80.18 193.66 61.59C200.02 49.5 209.21 38.6 219.83 29.65C230.44 20.72 242.53 13.69 254.7 9.32998C273.03 2.76998 291.66 2.27998 306.04 10.38L307.96 11.46L308.69 13.56ZM277.03 48.21L204.95 118.84H204.93C214.41 120.93 224.37 120.18 234.13 117.26C247.49 113.26 260.46 105.23 271.41 94.82C282.38 84.39 291.25 71.62 296.39 58.19C301.39 45.11 302.81 31.44 299.08 18.83C287.97 13.55 273.48 14.41 258.85 19.64C247.85 23.58 236.85 29.99 227.14 38.17C217.44 46.34 209.09 56.22 203.37 67.09C196.25 80.63 193.24 95.77 196.9 111.03L269.16 40.23C271.25 38.18 274.71 38.3 276.88 40.5C279.06 42.7 279.12 46.15 277.03 48.21Z" fill="white"/>
<path fill-rule="evenodd" clip-rule="evenodd" d="M497.72 444.66C496.94 444.66 496.5 444.22 496.5 443.44V420.44C496.5 419.66 496.94 419.22 497.72 419.22H502.96C510.82 419.22 514.84 421.11 514.84 427.64C514.84 434.17 510.81 436.06 502.98 436.06H499.34V443.43C499.34 444.21 498.9 444.65 498.12 444.65H497.72V444.66ZM503.28 433.41C508.83 433.41 511.96 432.37 511.96 427.6C511.96 422.83 508.82 421.81 503.28 421.81H499.33V433.41H503.28Z" fill="white"/>
<path fill-rule="evenodd" clip-rule="evenodd" d="M536.01 444.66C537.18 444.66 537.44 444.12 536.78 443.17L536.75 443.18L530.83 435.14C535.16 434.28 537.45 431.96 537.45 427.35C537.45 421.12 533.58 419.23 525.95 419.23H520.02C519.24 419.23 518.8 419.67 518.8 420.45V443.45C518.8 444.23 519.24 444.67 520.02 444.67H520.44C521.22 444.67 521.66 444.23 521.66 443.45V435.55H525.92C526.58 435.55 527.2 435.53 527.8 435.5L533.86 443.88C534.22 444.4 534.67 444.66 535.33 444.66H536.01ZM534.61 427.44C534.61 432.15 531.46 433.06 525.91 433.06H521.65V421.76H525.91C531.45 421.76 534.61 422.73 534.61 427.44Z" fill="white"/>
<path fill-rule="evenodd" clip-rule="evenodd" d="M541.29 431.97C541.29 422.9 546.93 418.93 553.26 418.93C559.59 418.93 565.18 422.9 565.18 431.97C565.18 441.04 559.52 445.04 553.19 445.04C546.86 445.04 541.29 441.21 541.29 431.97ZM553.19 442.41C558.87 442.41 562.34 438.6 562.34 431.97C562.34 425.34 558.82 421.57 553.26 421.57C547.7 421.57 544.09 425.44 544.09 431.97C544.09 438.5 547.48 442.41 553.19 442.41Z" fill="white"/>
<path d="M569.13 431.87C569.13 439.808 573.748 444.938 580.935 444.94C588.252 444.938 592.8 440.248 592.8 432.61V432.02C592.8 431.33 592.36 431.01 591.58 431.01H582.33C581.57 431.01 581.11 431.43 581.11 432.19V432.31C581.11 433.09 581.55 433.53 582.33 433.53H589.87C589.68 439.28 586.59 442.41 581.03 442.41C575.47 442.41 571.96 438.22 571.96 431.89C571.96 425.56 575.62 421.39 581.08 421.39C584.26 421.39 586.55 422.44 588.14 424.62C588.58 425.21 589.01 425.43 589.72 425.26L590.1 425.17C590.94 424.97 591.26 424.33 590.8 423.59C588.81 420.39 585.42 418.83 581.05 418.83C573.96 418.83 569.13 423.93 569.13 431.87Z" fill="white"/>
<path fill-rule="evenodd" clip-rule="evenodd" d="M615.47 443.17C616.13 444.12 615.87 444.66 614.7 444.66H614.02C613.36 444.66 612.91 444.4 612.55 443.88L606.49 435.5C605.89 435.53 605.27 435.55 604.61 435.55H600.35V443.45C600.35 444.23 599.91 444.67 599.13 444.67H598.71C597.93 444.67 597.49 444.23 597.49 443.45V420.45C597.49 419.67 597.93 419.23 598.71 419.23H604.64C612.27 419.23 616.14 421.12 616.14 427.35C616.14 431.96 613.85 434.28 609.52 435.14L615.44 443.18L615.47 443.17ZM604.6 433.06C610.15 433.06 613.3 432.15 613.3 427.44C613.3 422.73 610.14 421.76 604.6 421.76H600.34V433.06H604.6Z" fill="white"/>
<path fill-rule="evenodd" clip-rule="evenodd" d="M639.94 444.66C640.83 444.66 641.2 444.08 640.85 443.24H640.84L630.75 420.17C630.48 419.53 630 419.22 629.33 419.22H628.6C627.92 419.22 627.45 419.53 627.18 420.17L617.11 443.24C616.77 444.08 617.15 444.66 618.06 444.66H618.55C619.23 444.66 619.72 444.33 619.97 443.71L621.96 439.02H636.01L638 443.71C638.27 444.33 638.75 444.66 639.42 444.66H639.94ZM622.98 436.61L628.98 422.43L634.99 436.61H622.98Z" fill="white"/>
<path d="M643.35 444.66C642.51 444.66 642.11 444.19 642.26 443.33L646.77 420.31C646.9 419.56 647.35 419.22 648.08 419.22H649.32C650.01 419.22 650.49 419.55 650.7 420.21L658.31 441.65L665.92 420.21C666.14 419.55 666.61 419.22 667.3 419.22H668.54C669.27 419.22 669.72 419.57 669.85 420.31L674.36 443.33C674.51 444.19 674.1 444.66 673.27 444.66H672.85C672.12 444.66 671.67 444.3 671.54 443.57L667.5 423.17L660.16 443.67C659.94 444.33 659.47 444.65 658.78 444.65H657.86C657.17 444.65 656.69 444.32 656.48 443.67L649.13 423.17L645.09 443.57C644.96 444.3 644.51 444.66 643.78 444.66H643.35Z" fill="white"/>
<path fill-rule="evenodd" clip-rule="evenodd" d="M698.6 444.66C699.49 444.66 699.86 444.08 699.51 443.24H699.5L689.41 420.17C689.14 419.53 688.66 419.22 687.99 419.22H687.26C686.58 419.22 686.11 419.53 685.84 420.17L675.77 443.24C675.43 444.08 675.81 444.66 676.72 444.66H677.21C677.89 444.66 678.38 444.33 678.63 443.71L680.62 439.02H694.67L696.66 443.71C696.93 444.33 697.41 444.66 698.08 444.66H698.6ZM681.64 436.61L687.64 422.43L693.65 436.61H681.64Z" fill="white"/>
<path fill-rule="evenodd" clip-rule="evenodd" d="M713.61 444.66C712.83 444.66 712.39 444.22 712.39 443.44V420.44C712.39 419.66 712.83 419.22 713.61 419.22H718.85C726.71 419.22 730.73 421.11 730.73 427.64C730.73 434.17 726.7 436.06 718.87 436.06H715.23V443.43C715.23 444.21 714.79 444.65 714.01 444.65H713.61V444.66ZM719.17 433.41C724.72 433.41 727.85 432.37 727.85 427.6C727.85 422.83 724.71 421.81 719.17 421.81H715.22V433.41H719.17Z" fill="white"/>
<path fill-rule="evenodd" clip-rule="evenodd" d="M751.9 444.66C753.07 444.66 753.33 444.12 752.67 443.17L752.64 443.18L746.72 435.14C751.05 434.28 753.34 431.96 753.34 427.35C753.34 421.12 749.47 419.23 741.84 419.23H735.91C735.13 419.23 734.69 419.67 734.69 420.45V443.45C734.69 444.23 735.13 444.67 735.91 444.67H736.33C737.11 444.67 737.55 444.23 737.55 443.45V435.55H741.81C742.47 435.55 743.09 435.53 743.69 435.5L749.75 443.88C750.11 444.4 750.56 444.66 751.22 444.66H751.9ZM750.5 427.44C750.5 432.15 747.35 433.06 741.8 433.06H737.54V421.76H741.8C747.34 421.76 750.5 422.73 750.5 427.44Z" fill="white"/>
<path d="M757.94 443.44V420.44C757.94 419.66 758.38 419.22 759.16 419.22H759.56C760.34 419.22 760.78 419.66 760.78 420.44V443.44C760.78 444.22 760.34 444.66 759.56 444.66H759.16C758.38 444.66 757.94 444.22 757.94 443.44Z" fill="white"/>
<path fill-rule="evenodd" clip-rule="evenodd" d="M777.48 418.93C771.15 418.93 765.51 422.9 765.51 431.97C765.51 441.21 771.08 445.04 777.41 445.04C783.74 445.04 789.4 441.04 789.4 431.97C789.4 422.9 783.81 418.93 777.48 418.93ZM786.56 431.97C786.56 438.6 783.09 442.41 777.41 442.41C771.7 442.41 768.31 438.5 768.31 431.97C768.31 425.44 771.92 421.57 777.48 421.57C783.04 421.57 786.56 425.34 786.56 431.97Z" fill="white"/>
<path fill-rule="evenodd" clip-rule="evenodd" d="M812.07 443.17C812.73 444.12 812.47 444.66 811.3 444.66H810.62C809.96 444.66 809.51 444.4 809.15 443.88L803.09 435.5C802.49 435.53 801.87 435.55 801.21 435.55H796.95V443.45C796.95 444.23 796.51 444.67 795.73 444.67H795.31C794.53 444.67 794.09 444.23 794.09 443.45V420.45C794.09 419.67 794.53 419.23 795.31 419.23H801.24C808.87 419.23 812.74 421.12 812.74 427.35C812.74 431.96 810.45 434.28 806.12 435.14L812.04 443.18L812.07 443.17ZM801.2 433.06C806.75 433.06 809.9 432.15 809.9 427.44C809.9 422.73 806.74 421.76 801.2 421.76H796.94V433.06H801.2Z" fill="white"/>
<path d="M817.33 420.44V443.44C817.33 444.22 817.77 444.66 818.55 444.66H818.95C819.73 444.66 820.17 444.22 820.17 443.44V420.44C820.17 419.66 819.73 419.22 818.95 419.22H818.55C817.77 419.22 817.33 419.66 817.33 420.44Z" fill="white"/>
<path d="M832.66 444.66C831.88 444.66 831.44 444.22 831.44 443.44V421.85H825.2C824.42 421.85 823.98 421.41 823.98 420.63V420.44C823.98 419.66 824.42 419.22 825.2 419.22H840.48C841.26 419.22 841.7 419.66 841.7 420.44V420.63C841.7 421.41 841.26 421.85 840.48 421.85H834.28V443.44C834.28 444.22 833.84 444.66 833.06 444.66H832.66Z" fill="white"/>
<path fill-rule="evenodd" clip-rule="evenodd" d="M862.65 444.66C863.54 444.66 863.9 444.08 863.56 443.24H863.55L853.46 420.17C853.19 419.53 852.71 419.22 852.04 419.22H851.31C850.63 419.22 850.16 419.53 849.89 420.17L839.82 443.24C839.48 444.08 839.86 444.66 840.77 444.66H841.26C841.94 444.66 842.43 444.33 842.68 443.71L844.67 439.02H858.72L860.71 443.71C860.98 444.33 861.46 444.66 862.13 444.66H862.65ZM845.69 436.61L851.69 422.43L857.7 436.61H845.69Z" fill="white"/>
<path d="M851.24 415.55C850.841 416.388 851.059 416.988 851.756 416.99C852.473 416.989 853.011 416.718 853.37 416.09L855.33 412.52C855.81 411.68 855.58 411.06 854.8 411.06H854.46C853.78 411.06 853.33 411.35 853.04 411.95L851.24 415.55Z" fill="white"/>
<path fill-rule="evenodd" clip-rule="evenodd" d="M884.5 443.17C885.16 444.12 884.9 444.66 883.73 444.66H883.05C882.39 444.66 881.94 444.4 881.58 443.88L875.52 435.5C874.92 435.53 874.3 435.55 873.64 435.55H869.38V443.45C869.38 444.23 868.94 444.67 868.16 444.67H867.74C866.96 444.67 866.52 444.23 866.52 443.45V420.45C866.52 419.67 866.96 419.23 867.74 419.23H873.67C881.3 419.23 885.17 421.12 885.17 427.35C885.17 431.96 882.88 434.28 878.55 435.14L884.47 443.18L884.5 443.17ZM873.63 433.06C879.18 433.06 882.33 432.15 882.33 427.44C882.33 422.73 879.17 421.76 873.63 421.76H869.37V433.06H873.63Z" fill="white"/>
<path d="M889.77 420.44V443.44C889.77 444.22 890.21 444.66 890.99 444.66H891.39C892.17 444.66 892.61 444.22 892.61 443.44V420.44C892.61 419.66 892.17 419.22 891.39 419.22H890.99C890.21 419.22 889.77 419.66 889.77 420.44Z" fill="white"/>
<path fill-rule="evenodd" clip-rule="evenodd" d="M897.34 431.97C897.34 422.9 902.98 418.93 909.31 418.93C915.64 418.93 921.23 422.9 921.23 431.97C921.23 441.04 915.57 445.04 909.24 445.04C902.91 445.04 897.34 441.21 897.34 431.97ZM909.24 442.41C914.92 442.41 918.39 438.6 918.39 431.97C918.39 425.34 914.87 421.57 909.31 421.57C903.75 421.57 900.14 425.44 900.14 431.97C900.14 438.5 903.53 442.41 909.24 442.41Z" fill="white"/>
<path fill-rule="evenodd" clip-rule="evenodd" d="M935.84 443.44C935.84 444.22 936.28 444.66 937.06 444.66H941.92C952.28 444.66 956.54 440.67 956.54 431.92C956.54 423.17 952.28 419.22 941.92 419.22H937.06C936.28 419.22 935.84 419.66 935.84 420.44V443.44ZM953.68 431.91C953.68 439.03 950.25 442.03 941.99 442.03V442.04H938.68V421.84H941.97C950.25 421.84 953.68 424.79 953.68 431.91Z" fill="white"/>
<path d="M962.47 444.66C961.69 444.66 961.25 444.22 961.25 443.44V420.44C961.25 419.66 961.69 419.22 962.47 419.22H976.4C977.18 419.22 977.62 419.66 977.62 420.44V420.63C977.62 421.41 977.18 421.85 976.4 421.85H964.08V430.45H975.76C976.54 430.45 976.98 430.89 976.98 431.67V431.79C976.98 432.57 976.54 432.99 975.76 432.99H964.08V442.03H976.4C977.18 442.03 977.62 442.47 977.62 443.25V443.44C977.62 444.22 977.18 444.66 976.4 444.66H962.47Z" fill="white"/>
<path fill-rule="evenodd" clip-rule="evenodd" d="M496.5 465.74V501.22L496.51 501.21C496.51 504.71 498.41 506.6 501.9 506.6H514.23C530.45 506.6 534.38 500.2 534.38 493.63C534.38 487.47 530.01 484.17 526 483.23C529.71 482.28 533.11 478.83 533.11 473C533.11 466.49 528.94 460.35 513.35 460.35H501.89C498.39 460.35 496.5 462.25 496.5 465.74ZM519.78 474.84C519.78 477.72 518.18 479.46 513.49 479.46H509.19V470.62H513.43C518.28 470.62 519.78 471.96 519.78 474.84ZM514.45 487.22C519.63 487.22 521.14 488.9 521.14 491.88H521.13C521.13 494.69 519.47 496.45 514.41 496.45H509.19V487.22H514.45Z" fill="white"/>
<path d="M541.16 501.22V465.74C541.16 462.25 543.05 460.35 546.55 460.35H548.76C552.25 460.35 554.15 462.24 554.15 465.74V501.22C554.15 504.71 552.26 506.61 548.76 506.61H546.55C543.06 506.61 541.16 504.72 541.16 501.22Z" fill="white"/>
<path fill-rule="evenodd" clip-rule="evenodd" d="M583.7 459.99C572.01 459.99 561.55 467.06 561.55 483.54C561.55 500.34 571.89 507.08 583.58 507.08C595.27 507.08 605.75 500.02 605.75 483.54C605.75 467.06 595.39 459.99 583.7 459.99ZM583.62 471.28C589.04 471.28 592.82 475.68 592.82 483.5C592.82 491.67 589.22 495.87 583.58 495.87C577.94 495.87 574.31 491.34 574.31 483.5C574.31 475.66 578.2 471.28 583.62 471.28Z" fill="white"/>
<path d="M613.16 465.74C613.16 462.25 615.05 460.35 618.55 460.35H638.85C642.34 460.35 644.24 462.24 644.24 465.74V466.41C644.24 469.9 642.35 471.8 638.85 471.8H626.09V478.66H637.7C641.19 478.66 643.09 480.34 643.09 483.34V483.4C643.09 486.45 641.2 488.11 637.7 488.11H626.09V495.21H638.85C642.34 495.21 644.24 497.1 644.24 500.6V501.23C644.24 504.72 642.35 506.62 638.85 506.62H618.55C615.06 506.62 613.16 504.73 613.16 501.23V465.74Z" fill="white"/>
<path d="M672.54 459.97C659.74 459.97 650.1 468.67 650.1 483.6H650.09C650.09 498.85 659.55 507.1 672.53 507.1C680.53 507.1 687.77 503.86 691.27 496.99C693.64 492.33 692.88 489.61 689.06 489.01L687.03 488.69C683.75 488.17 681.83 488.83 680.5 490.81C678.47 494.08 675.97 495.56 672.49 495.56C667.07 495.56 663.48 490.92 663.48 483.6C663.48 476.28 667.06 471.56 672.49 471.56C675.93 471.56 678.46 473.02 680.6 476.29C682.04 478.32 683.52 478.87 687 478.3L689.03 477.97C692.54 477.4 693.76 475.05 692.13 471.46C688.59 463.66 681.04 459.97 672.54 459.97Z" fill="white"/>
<path fill-rule="evenodd" clip-rule="evenodd" d="M698.08 483.54C698.08 467.06 708.54 459.99 720.23 459.99C731.92 459.99 742.28 467.06 742.28 483.54C742.28 500.02 731.8 507.08 720.11 507.08C708.42 507.08 698.08 500.34 698.08 483.54ZM729.35 483.5C729.35 475.68 725.57 471.28 720.15 471.28C714.73 471.28 710.84 475.66 710.84 483.5C710.84 491.34 714.47 495.87 720.11 495.87C725.75 495.87 729.35 491.67 729.35 483.5Z" fill="white"/>
<path d="M749.68 465.74V501.22H749.67C749.67 504.72 751.57 506.61 755.06 506.61H757.27C760.77 506.61 762.66 504.71 762.66 501.22V480.96L776.1 502.92C777.67 505.47 779.63 506.6 782.58 506.6H785.34C788.84 506.6 790.73 504.7 790.73 501.21V465.73C790.73 462.23 788.83 460.34 785.34 460.34H783.18C779.69 460.34 777.79 462.24 777.79 465.73V485.98L764.35 464.03C762.78 461.48 760.82 460.35 757.87 460.35H755.07C751.57 460.35 749.68 462.25 749.68 465.74Z" fill="white"/>
<path fill-rule="evenodd" clip-rule="evenodd" d="M798.12 483.54C798.12 467.06 808.58 459.99 820.27 459.99C831.96 459.99 842.32 467.06 842.32 483.54C842.32 500.02 831.84 507.08 820.15 507.08C808.46 507.08 798.12 500.34 798.12 483.54ZM829.39 483.5C829.39 475.68 825.61 471.28 820.19 471.28C814.77 471.28 810.88 475.66 810.88 483.5C810.88 491.34 814.51 495.87 820.15 495.87C825.79 495.87 829.39 491.67 829.39 483.5Z" fill="white"/>
<path d="M852.08 465.32L847.02 500.88C846.5 504.55 848.36 506.6 852.02 506.6H854.18C857.5 506.6 859.42 504.85 859.86 501.54L863.09 477.24L869.92 501.97C870.77 505.04 872.7 506.6 875.91 506.6H878.53C881.74 506.6 883.67 505.04 884.52 501.97L891.35 477.24L894.58 501.54C895.02 504.85 896.94 506.6 900.26 506.6H902.42C906.09 506.6 907.94 504.55 907.42 500.88L902.36 465.32C901.89 462.03 899.94 460.35 896.62 460.35H890.6C887.39 460.35 885.46 461.91 884.64 465.02L877.22 493.07L869.8 465.02C868.97 461.91 867.05 460.35 863.84 460.35H857.82C854.5 460.35 852.55 462.04 852.08 465.32Z" fill="white"/>
<path d="M914.64 501.22V465.74C914.64 462.25 916.53 460.35 920.03 460.35H922.24C925.73 460.35 927.63 462.24 927.63 465.74V501.22C927.63 504.71 925.74 506.61 922.24 506.61H920.03C916.54 506.61 914.64 504.72 914.64 501.22Z" fill="white"/>
<path fill-rule="evenodd" clip-rule="evenodd" d="M972.86 506.6C976.78 506.6 978.54 504.1 977.15 500.4H977.14L963.69 464.68C962.59 461.75 960.61 460.36 957.51 460.36H953.45C950.35 460.36 948.37 461.75 947.27 464.68L933.87 500.41C932.49 504.09 934.24 506.6 938.18 506.6H940.47C943.61 506.6 945.57 505.15 946.52 502.1L947.28 499.68H963.75L964.52 502.1C965.49 505.15 967.42 506.6 970.57 506.6H972.86ZM950.22 490.63L955.49 474.36L960.8 490.63H950.22Z" fill="white"/>
</svg>
