<svg width="160" height="72" viewBox="0 0 160 72" fill="none" xmlns="http://www.w3.org/2000/svg">
<path d="M111.792 28.7335C111.898 29.1728 112.065 29.5623 112.293 29.9075C112.522 30.2509 112.816 30.5315 113.174 30.7474C113.531 30.9634 113.962 31.0723 114.464 31.0723C115.022 31.0723 115.494 30.9634 115.88 30.7474C116.265 30.5315 116.579 30.2509 116.819 29.9075C117.058 29.5642 117.231 29.1728 117.339 28.7335C117.445 28.296 117.499 27.8548 117.499 27.41C117.499 26.9651 117.445 26.5258 117.339 26.0864C117.233 25.6489 117.06 25.2576 116.819 24.9124C116.579 24.5691 116.265 24.2885 115.88 24.0725C115.494 23.8565 115.023 23.7476 114.464 23.7476C113.96 23.7476 113.531 23.8565 113.174 24.0725C112.816 24.2885 112.522 24.5691 112.293 24.9124C112.065 25.2558 111.898 25.6471 111.792 26.0864C111.686 26.5239 111.632 26.9669 111.632 27.41C111.632 27.853 111.684 28.2942 111.792 28.7335Z" fill="#151313"/>
<path d="M122.893 24.0651C122.512 24.2756 122.198 24.5543 121.946 24.8976C121.695 25.241 121.505 25.6323 121.377 26.0717C121.249 26.511 121.184 26.9559 121.184 27.4118C121.184 27.8678 121.247 28.3126 121.377 28.752C121.505 29.1913 121.695 29.5808 121.946 29.926C122.197 30.2693 122.512 30.5481 122.893 30.7585C123.273 30.969 123.715 31.0742 124.217 31.0742C124.718 31.0742 125.161 30.969 125.54 30.7585C125.919 30.5481 126.235 30.2712 126.486 29.926C126.736 29.5827 126.926 29.1913 127.056 28.752C127.184 28.3145 127.249 27.8678 127.249 27.4118C127.249 26.9559 127.184 26.511 127.056 26.0717C126.928 25.6342 126.738 25.2428 126.486 24.8976C126.235 24.5543 125.919 24.2756 125.54 24.0651C125.161 23.8547 124.718 23.7495 124.217 23.7495C123.715 23.7495 123.273 23.8547 122.893 24.0651Z" fill="#151313"/>
<path fill-rule="evenodd" clip-rule="evenodd" d="M46.4643 7.33728C48.1811 7.92475 52.5567 6.2652 52.9124 0.0752384C52.9124 0.0752384 41.9228 -1.18275 45.7183 6.58916C45.7056 6.89502 45.7156 7.20839 45.7486 7.52911C46.0968 10.9228 49.0287 14.2181 50.1764 14.9594C50.1598 15.0772 50.1446 15.1959 50.1305 15.3154C49.5648 20.1449 51.2464 25.1876 52.6168 27.9149C50.4598 26.1252 48.4029 24.1119 46.36 22.1122C44.8483 20.6322 43.3715 19.1865 41.8844 17.8616C42.0361 16.554 42.3518 11.2358 37.7596 9.46183C34.738 8.29418 32.3924 8.95069 30.8343 9.38677C29.6853 9.70835 28.9646 9.91005 28.717 9.17201C28.717 9.17201 31.1142 16.8917 33.0915 18.1544C36.3995 20.2668 40.0902 18.9576 41.3741 18.3835C42.8524 19.6991 44.3243 21.1392 45.8313 22.6136L45.8499 22.6318C48.3327 25.0618 50.8982 27.5728 53.6946 29.6732C53.7841 29.7777 53.8642 29.8553 53.9327 29.9039C53.9827 29.9394 54.037 29.9607 54.0933 29.9686C55.6645 31.1172 57.3096 32.1309 59.0542 32.9246V41.7234C59.0542 42.5449 58.9595 43.2408 58.7736 43.8167C58.5878 44.3926 58.3146 44.8615 57.956 45.2252C57.5973 45.5888 57.1569 45.8546 56.6384 46.0189C56.1199 46.1832 55.5141 46.2663 54.8619 46.2663C54.2096 46.2663 53.6242 46.1851 53.1057 46.0189C52.5873 45.8528 52.1468 45.5888 51.7882 45.2252C51.4277 44.8615 51.1545 44.3926 50.9686 43.8167C50.7828 43.2408 50.6899 42.543 50.6899 41.7234V32.957H49.3333V42.0206C49.3333 42.7479 49.4355 43.4383 49.6418 44.0936C49.8481 44.7471 50.1733 45.3193 50.6193 45.8085C51.0653 46.2995 51.6376 46.6853 52.3364 46.9696C53.0351 47.2538 53.8639 47.396 54.8619 47.396C55.8598 47.396 56.709 47.2538 57.4078 46.9696C58.1065 46.6853 58.6789 46.2977 59.1249 45.8085C59.569 45.3211 59.8961 44.7489 60.1023 44.0936C60.3086 43.4383 60.4127 42.7479 60.4127 42.0206V33.4889C62.2561 34.1819 64.2112 34.6205 66.3056 34.7128C66.3561 34.7266 66.4056 34.7394 66.4541 34.7513C66.4838 34.7587 66.5117 34.7624 66.5414 34.7624H66.5433C66.6 34.7624 66.6546 34.7496 66.7037 34.7261C66.8472 34.7294 66.9913 34.731 67.1361 34.731C73.1144 34.731 80.2188 31.9105 89.057 24.2387C89.1105 24.1927 89.1471 24.1346 89.1663 24.072C93.4413 22.1888 101.333 20.2764 104.145 20.8993C107.709 21.6894 109.456 22.8929 109.101 27.3952C108.665 29.7405 109.044 31.8395 109.974 33.6054C109.921 33.5847 109.867 33.5643 109.813 33.544C109.564 33.4536 109.3 33.4074 109.025 33.4074C108.774 33.4074 108.549 33.4628 108.345 33.5736C108.142 33.6843 107.964 33.8283 107.813 34.0037C107.663 34.179 107.544 34.3784 107.458 34.5999C107.373 34.8214 107.317 35.0503 107.291 35.2848H108.058C108.058 34.958 108.155 34.7107 108.345 34.5408C108.534 34.371 108.779 34.2861 109.082 34.2861C109.253 34.2861 109.437 34.3323 109.634 34.4227C109.831 34.515 110.041 34.6184 110.264 34.7365C110.462 34.8411 110.669 34.9356 110.887 35.0186C114.079 39.1317 120.531 40.7955 125.486 38.4561C131.557 35.5893 133.255 29.003 128.721 22.0475C123.235 13.6307 112.607 13.977 106.292 15.0073C106.424 14.9459 106.547 14.8806 106.663 14.8114C107.038 14.5862 107.334 14.3314 107.549 14.0509C107.765 13.7703 107.93 13.4915 108.047 13.2165C108.166 12.9414 108.239 12.683 108.27 12.4375C108.3 12.192 108.317 11.9982 108.317 11.8505C108.317 11.3133 108.227 10.8537 108.049 10.4753C107.871 10.0968 107.625 9.77565 107.311 9.51353C106.997 9.2514 106.635 9.03174 106.222 8.85453C105.81 8.67916 105.371 8.52779 104.903 8.40596L101.692 7.61774C101.42 7.55683 101.166 7.47745 100.926 7.37962C100.686 7.28363 100.475 7.15441 100.289 6.99566C100.105 6.83691 99.9597 6.64493 99.8557 6.41788C99.7498 6.19083 99.6977 5.92686 99.6977 5.62043C99.6977 5.1331 99.7906 4.7233 99.9746 4.39288C100.159 4.06246 100.402 3.79664 100.703 3.59543C101.004 3.39423 101.355 3.2484 101.755 3.1561C102.154 3.06565 102.569 3.0195 103 3.0195C103.466 3.0195 103.912 3.08411 104.338 3.21148C104.762 3.34069 105.137 3.52898 105.462 3.78003C105.787 4.02923 106.053 4.34119 106.256 4.71408C106.46 5.08696 106.574 5.52444 106.598 6.02469H107.852C107.852 5.35277 107.72 4.76392 107.456 4.25628C107.192 3.74865 106.837 3.32408 106.395 2.98258C105.953 2.64108 105.436 2.38449 104.845 2.21282C104.254 2.04115 103.634 1.95624 102.981 1.95624C102.06 1.95624 101.303 2.08914 100.712 2.35127C100.121 2.61339 99.6568 2.93459 99.3186 3.313C98.9804 3.69142 98.75 4.09384 98.6273 4.5221C98.5028 4.95036 98.4415 5.32324 98.4415 5.64074C98.4415 6.15391 98.5251 6.58771 98.6905 6.94213C98.8578 7.29655 99.0752 7.59744 99.3465 7.8411C99.616 8.08661 99.9337 8.28228 100.296 8.42811C100.658 8.57579 101.032 8.69762 101.413 8.79546L104.347 9.50984C104.654 9.58367 104.968 9.67782 105.288 9.79411C105.607 9.91041 105.899 10.0599 106.165 10.2427C106.429 10.4254 106.644 10.6525 106.81 10.9201C106.975 11.1878 107.059 11.5071 107.059 11.8726C107.059 12.3489 106.942 12.755 106.707 13.091C106.475 13.4269 106.181 13.702 105.832 13.9161C105.481 14.1302 105.102 14.2853 104.697 14.3831C104.29 14.4828 103.914 14.5308 103.57 14.5308C102.967 14.5308 102.4 14.4736 101.872 14.3573C101.342 14.241 100.883 14.049 100.497 13.7795C100.108 13.51 99.8037 13.15 99.5825 12.6978L99.5844 12.6941C99.3632 12.2418 99.2573 11.6788 99.2703 11.0069H98.0159C97.9788 11.8136 98.0866 12.504 98.3393 13.078C98.592 13.654 98.9507 14.1247 99.419 14.4902C99.8873 14.8575 100.452 15.1289 101.117 15.3061C101.783 15.4833 102.502 15.5719 103.277 15.5719C103.296 15.5719 103.316 15.5719 103.335 15.5718C103.36 15.5717 103.384 15.5715 103.408 15.5712C102.832 15.7018 102.353 15.8203 101.993 15.9097C97.8899 16.9268 92.0709 21.0978 88.895 23.6107C88.7863 23.5871 88.6681 23.6133 88.5775 23.6923C79.6417 31.4487 72.6022 34.2085 66.6963 34.0708C66.6755 34.0613 66.6536 34.0536 66.6306 34.048C64.7965 33.5994 61.2749 31.6113 61.0687 27.2937C60.9817 25.4955 61.3756 23.9417 62.029 22.6585C63.4626 23.8162 69.7796 24.4532 72.1071 19.9006C73.6811 16.8179 72.6107 15.7546 72.6107 15.7546C72.6107 15.7546 62.7217 11.6063 61.7815 21.6124C60.839 23.1224 60.2273 25.0428 60.3365 27.3269C60.498 30.6786 62.4784 32.7542 64.3381 33.8576C60.5849 33.2623 57.2924 31.4985 54.2323 29.1947C53.4922 28.3559 51.316 24.0866 50.8385 19.1999C51.1182 19.2303 51.4748 19.2601 51.8811 19.2601C52.5705 19.2601 53.406 19.1749 54.2611 18.865C57.2478 20.5974 58.6405 18.3459 59.6265 16.5836C60.6403 14.7716 60.0697 14.7312 57.3292 14.5371C57.2667 14.5326 57.203 14.5281 57.1382 14.5235C54.4555 14.3324 52.8061 17.2207 53.553 18.33C52.5716 18.5868 51.5954 18.5546 50.78 18.4626C50.7187 17.4531 50.7349 16.4238 50.8553 15.3985C51.1636 12.7695 52.1222 10.5845 53.7175 8.86105C54.763 10.0616 62.9627 10.6852 65.642 4.22304C65.642 4.22304 56.2088 -1.63319 53.7947 7.74746C51.9875 9.41943 50.822 11.5613 50.3115 14.1559C49.2432 13.2795 46.7837 10.46 46.4752 7.45527C46.4712 7.41582 46.4675 7.37648 46.4643 7.33728ZM117.58 31.7055V30.0737H117.547C117.435 30.3506 117.27 30.6053 117.053 30.8397C116.835 31.0723 116.586 31.2698 116.307 31.4304C116.029 31.591 115.73 31.7166 115.41 31.8052C115.092 31.8938 114.776 31.9381 114.464 31.9381C113.804 31.9381 113.232 31.8181 112.747 31.58C112.262 31.3418 111.855 31.0132 111.532 30.5979C111.206 30.1826 110.967 29.6989 110.811 29.1507C110.654 28.6006 110.576 28.021 110.576 27.4118C110.576 26.8027 110.654 26.2212 110.811 25.6729C110.967 25.1228 111.206 24.641 111.532 24.2239C111.855 23.8085 112.26 23.4781 112.747 23.2344C113.234 22.9908 113.806 22.8689 114.464 22.8689C114.787 22.8689 115.103 22.9077 115.41 22.9852C115.717 23.0628 116.005 23.1828 116.272 23.3434C116.54 23.504 116.778 23.7015 116.984 23.9341C117.19 24.1666 117.35 24.4398 117.461 24.75H117.495V19.8231H118.55V31.7073H117.579L117.58 31.7055ZM125.967 23.2326C126.476 23.4763 126.904 23.8048 127.249 24.2146C127.595 24.6263 127.857 25.1044 128.037 25.6545C128.216 26.2046 128.305 26.7897 128.305 27.41C128.305 28.0302 128.216 28.6172 128.037 29.1655C127.859 29.7156 127.597 30.1955 127.249 30.6053C126.902 31.017 126.476 31.34 125.967 31.58C125.458 31.8199 124.874 31.9381 124.217 31.9381C123.559 31.9381 122.973 31.8181 122.466 31.58C121.957 31.3418 121.531 31.017 121.184 30.6053C120.838 30.1955 120.574 29.7156 120.396 29.1655C120.217 28.6154 120.128 28.0321 120.128 27.41C120.128 26.7879 120.217 26.2027 120.396 25.6545C120.574 25.1044 120.836 24.6263 121.184 24.2146C121.529 23.8048 121.957 23.4763 122.466 23.2326C122.973 22.9889 123.557 22.8671 124.217 22.8671C124.876 22.8671 125.46 22.9889 125.967 23.2326Z" fill="#151313"/>
<path d="M45.7084 57.4194C45.7084 57.2144 45.7813 57.0395 45.9269 56.8948C46.0726 56.7501 46.2471 56.6778 46.4505 56.6778C46.6568 56.6778 46.8329 56.7501 46.9785 56.8948C47.1242 57.0395 47.197 57.2144 47.197 57.4194C47.197 57.6213 47.1242 57.7962 46.9785 57.9439C46.8329 58.0886 46.6568 58.161 46.4505 58.161C46.2471 58.161 46.0726 58.0886 45.9269 57.9439C45.7813 57.7962 45.7084 57.6213 45.7084 57.4194Z" fill="#151313"/>
<path d="M47.1333 58.8076V63.0763H45.7813V58.8076H47.1333Z" fill="#151313"/>
<path fill-rule="evenodd" clip-rule="evenodd" d="M24.4092 56.7592L27.2316 63.0763H25.529L25.0055 61.8283H22.1603L21.6869 63.0763H20.0071L22.57 56.7592H24.4092ZM24.5366 60.7249L23.5124 58.2695L22.5792 60.7249H24.5366Z" fill="#151313"/>
<path d="M30.7312 59.0382V59.9923C30.2153 59.6788 29.7373 59.5221 29.2972 59.5221C28.9725 59.5221 28.8101 59.6321 28.8101 59.8522C28.8101 59.9094 28.8435 59.9667 28.9103 60.024C28.9801 60.0783 29.2426 60.1958 29.6978 60.3767C30.1531 60.5546 30.4748 60.7611 30.6629 60.9962C30.8511 61.2314 30.9452 61.4891 30.9452 61.7695C30.9452 62.2126 30.7934 62.5548 30.4899 62.796C30.1865 63.0371 29.754 63.1577 29.1925 63.1577C28.6159 63.1577 28.103 63.0537 27.6539 62.8457V61.9006C28.2062 62.1418 28.669 62.2624 29.0423 62.2624C29.4793 62.2624 29.6978 62.1569 29.6978 61.9458C29.6978 61.8644 29.6569 61.7876 29.5749 61.7152C29.496 61.6429 29.2259 61.5177 28.7646 61.3399C28.3033 61.162 27.9877 60.9661 27.8177 60.752C27.6478 60.538 27.5628 60.2998 27.5628 60.0376C27.5628 59.6487 27.7252 59.3321 28.0499 59.088C28.3777 58.8438 28.8086 58.7217 29.3428 58.7217C29.8557 58.7217 30.3185 58.8272 30.7312 59.0382Z" fill="#151313"/>
<path d="M34.6633 59.9923V59.0382C34.2506 58.8272 33.7877 58.7217 33.2749 58.7217C32.7407 58.7217 32.3098 58.8438 31.982 59.088C31.6573 59.3321 31.4949 59.6487 31.4949 60.0376C31.4949 60.2998 31.5799 60.538 31.7498 60.752C31.9198 60.9661 32.2354 61.162 32.6967 61.3399C33.158 61.5177 33.4281 61.6429 33.507 61.7152C33.589 61.7876 33.6299 61.8644 33.6299 61.9458C33.6299 62.1569 33.4114 62.2624 32.9744 62.2624C32.6011 62.2624 32.1383 62.1418 31.586 61.9006V62.8457C32.0351 63.0537 32.548 63.1577 33.1246 63.1577C33.6861 63.1577 34.1185 63.0371 34.422 62.796C34.7255 62.5548 34.8773 62.2126 34.8773 61.7695C34.8773 61.4891 34.7832 61.2314 34.595 60.9962C34.4069 60.7611 34.0852 60.5546 33.6299 60.3767C33.1747 60.1958 32.9122 60.0783 32.8424 60.024C32.7756 59.9667 32.7422 59.9094 32.7422 59.8522C32.7422 59.6321 32.9046 59.5221 33.2293 59.5221C33.6694 59.5221 34.1474 59.6788 34.6633 59.9923Z" fill="#151313"/>
<path fill-rule="evenodd" clip-rule="evenodd" d="M37.8579 58.7217C38.5317 58.7217 39.1022 58.9176 39.5696 59.3095C40.04 59.7014 40.2752 60.2471 40.2752 60.9465C40.2752 61.6489 40.0369 62.193 39.5605 62.5789C39.084 62.9648 38.5165 63.1577 37.8579 63.1577C37.1447 63.1577 36.5605 62.9527 36.1053 62.5427C35.6531 62.1297 35.427 61.5946 35.427 60.9374C35.427 60.2682 35.6576 59.7316 36.1189 59.3276C36.5833 58.9237 37.1629 58.7217 37.8579 58.7217ZM37.8579 62.3618C38.5043 62.3618 38.8276 61.878 38.8276 60.9103C38.8276 59.9848 38.5043 59.5221 37.8579 59.5221C37.5484 59.5221 37.3056 59.6442 37.1296 59.8883C36.9566 60.1325 36.8701 60.4822 36.8701 60.9374C36.8701 61.887 37.1994 62.3618 37.8579 62.3618Z" fill="#151313"/>
<path d="M44.8947 62.8728V61.9096C44.3727 62.1056 43.969 62.2036 43.6838 62.2036C43.2983 62.2036 42.9873 62.089 42.7505 61.8599C42.5138 61.6278 42.3955 61.3233 42.3955 60.9465C42.3955 60.5727 42.5169 60.2742 42.7596 60.0511C43.0024 59.828 43.3256 59.7165 43.7293 59.7165C44.0904 59.7165 44.4577 59.8115 44.8309 60.0014V59.002C44.3211 58.8151 43.8385 58.7217 43.3833 58.7217C42.6762 58.7217 42.0935 58.9327 41.6352 59.3547C41.18 59.7738 40.9524 60.3074 40.9524 60.9555C40.9524 61.6187 41.1785 62.1523 41.6307 62.5563C42.0829 62.9572 42.6868 63.1577 43.4425 63.1577C43.8825 63.1577 44.3666 63.0627 44.8947 62.8728Z" fill="#151313"/>
<path fill-rule="evenodd" clip-rule="evenodd" d="M52.6268 62.7688V62.0227C52.3992 62.1825 52.2293 62.2624 52.117 62.2624C51.9683 62.2624 51.8939 62.1629 51.8939 61.9639V60.0195C51.8939 59.1543 51.2869 58.7217 50.073 58.7217C49.3962 58.7217 48.7756 58.895 48.2111 59.2417V60.336C48.6937 59.8597 49.2217 59.6215 49.7953 59.6215C50.3234 59.6215 50.5722 59.8597 50.5419 60.336C49.3219 60.6948 48.5905 60.9887 48.3477 61.2178C48.1079 61.4439 47.988 61.7423 47.988 62.1131C47.988 62.3905 48.1049 62.6347 48.3386 62.8457C48.5723 63.0537 48.856 63.1577 49.1898 63.1577C49.6633 63.1577 50.1352 62.9979 50.6056 62.6784C50.6845 62.9979 50.9364 63.1577 51.3613 63.1577C51.7558 63.1577 52.1777 63.0281 52.6268 62.7688ZM50.5419 61.0098V62.0408C50.2991 62.2548 50.0502 62.3618 49.7953 62.3618C49.6739 62.3618 49.5707 62.3181 49.4858 62.2307C49.4008 62.1403 49.3583 62.0332 49.3583 61.9096C49.3583 61.7167 49.4417 61.5584 49.6087 61.4348C49.7786 61.3082 50.0897 61.1665 50.5419 61.0098Z" fill="#151313"/>
<path d="M56.9003 61.9096V62.8728C56.3844 63.0627 55.8685 63.1577 55.3526 63.1577L55.2979 63.2888C55.6834 63.4275 55.8761 63.6536 55.8761 63.9671C55.8761 64.1993 55.7865 64.3847 55.6075 64.5233C55.4284 64.665 55.1796 64.7359 54.8609 64.7359C54.5574 64.7359 54.3268 64.7072 54.169 64.6499V64.1797C54.6424 64.1947 54.8791 64.0983 54.8791 63.8903C54.8791 63.7184 54.7517 63.6325 54.4967 63.6325L54.8017 63.0944C54.216 62.9859 53.7623 62.7417 53.4406 62.3618C53.1189 61.979 52.9581 61.5102 52.9581 60.9555C52.9581 60.3074 53.1857 59.7738 53.6409 59.3547C54.0992 58.9327 54.6819 58.7217 55.389 58.7217C55.8442 58.7217 56.3267 58.8151 56.8366 59.002V60.0014C56.4633 59.8115 56.0961 59.7165 55.735 59.7165C55.3313 59.7165 55.0081 59.828 54.7653 60.0511C54.5225 60.2742 54.4011 60.5727 54.4011 60.9465C54.4011 61.3233 54.5195 61.6278 54.7562 61.8599C54.9929 62.089 55.304 62.2036 55.6894 62.2036C55.9747 62.2036 56.3783 62.1056 56.9003 61.9096Z" fill="#151313"/>
<path fill-rule="evenodd" clip-rule="evenodd" d="M62.148 62.7688V62.0227C61.9204 62.1825 61.7505 62.2624 61.6382 62.2624C61.4895 62.2624 61.4151 62.1629 61.4151 61.9639V60.0195C61.4151 59.1543 60.8081 58.7217 59.5942 58.7217C58.9174 58.7217 58.2968 58.895 57.7323 59.2417V60.336C58.2149 59.8597 58.7429 59.6215 59.3165 59.6215C59.8446 59.6215 60.0934 59.8597 60.0631 60.336C58.8431 60.6948 58.1117 60.9887 57.8689 61.2178C57.6291 61.4439 57.5093 61.7423 57.5093 62.1131C57.5093 62.3905 57.6261 62.6347 57.8598 62.8457C58.0935 63.0537 58.3772 63.1577 58.7111 63.1577C59.1845 63.1577 59.6564 62.9979 60.1268 62.6784C60.2057 62.9979 60.4576 63.1577 60.8825 63.1577C61.277 63.1577 61.6989 63.0281 62.148 62.7688ZM60.0631 61.0098V62.0408C59.8203 62.2548 59.5714 62.3618 59.3165 62.3618C59.1951 62.3618 59.0919 62.3181 59.007 62.2307C58.922 62.1403 58.8795 62.0332 58.8795 61.9096C58.8795 61.7167 58.9629 61.5584 59.1299 61.4348C59.2998 61.3082 59.6109 61.1665 60.0631 61.0098Z" fill="#151313"/>
<path d="M61.488 56.8632H60.8552C60.8006 57.1948 60.664 57.3606 60.4455 57.3606C60.3211 57.3606 60.0934 57.2777 59.7626 57.1119C59.4349 56.9461 59.1708 56.8632 58.9705 56.8632C58.661 56.8632 58.4076 56.9822 58.2103 57.2204C58.013 57.4585 57.8977 57.7992 57.8643 58.2424H58.4789C58.5214 57.9198 58.661 57.7585 58.8977 57.7585C59.0161 57.7585 59.2482 57.8429 59.5942 58.0117C59.9402 58.1775 60.2088 58.2604 60.4 58.2604C61.0616 58.2604 61.4242 57.7947 61.488 56.8632Z" fill="#151313"/>
<path fill-rule="evenodd" clip-rule="evenodd" d="M64.8829 58.7217C65.5566 58.7217 66.1272 58.9176 66.5945 59.3095C67.0649 59.7014 67.3001 60.2471 67.3001 60.9465C67.3001 61.6489 67.0619 62.193 66.5854 62.5789C66.109 62.9648 65.5414 63.1577 64.8829 63.1577C64.1697 63.1577 63.5855 62.9527 63.1302 62.5427C62.678 62.1297 62.452 61.5946 62.452 60.9374C62.452 60.2682 62.6826 59.7316 63.1439 59.3276C63.6082 58.9237 64.1879 58.7217 64.8829 58.7217ZM64.8829 62.3618C65.5293 62.3618 65.8525 61.878 65.8525 60.9103C65.8525 59.9848 65.5293 59.5221 64.8829 59.5221C64.5733 59.5221 64.3305 59.6442 64.1545 59.8883C63.9815 60.1325 63.895 60.4822 63.895 60.9374C63.895 61.887 64.2243 62.3618 64.8829 62.3618Z" fill="#151313"/>
<path fill-rule="evenodd" clip-rule="evenodd" d="M76.4663 63.0763L73.6439 56.7592H71.8047L69.2418 63.0763H70.9216L71.395 61.8283H74.2402L74.7637 63.0763H76.4663ZM72.7471 58.2695L73.7713 60.7249H71.8138L72.7471 58.2695Z" fill="#151313"/>
<path fill-rule="evenodd" clip-rule="evenodd" d="M81.3908 58.8076V59.7075H80.7762C80.9188 59.9486 80.9902 60.1853 80.9902 60.4174C80.9902 60.749 80.8657 61.055 80.6169 61.3354C80.368 61.6157 79.9993 61.783 79.5107 61.8373C79.0251 61.8885 78.7489 61.9383 78.6822 61.9865C78.6184 62.0317 78.5865 62.092 78.5865 62.1674C78.5865 62.2428 78.629 62.3046 78.714 62.3528C78.799 62.398 79.1328 62.4463 79.7155 62.4975C80.3012 62.5457 80.7079 62.698 80.9355 62.9542C81.1662 63.2074 81.2815 63.4803 81.2815 63.7727C81.2815 64.24 81.0858 64.5957 80.6943 64.8399C80.3058 65.0841 79.7428 65.2062 79.0054 65.2062C78.2527 65.2062 77.6822 65.0931 77.2937 64.867C76.9052 64.6409 76.711 64.3409 76.711 63.9671C76.711 63.4486 77.0934 63.0869 77.8582 62.8819C77.5122 62.7794 77.3392 62.594 77.3392 62.3257C77.3392 62.0121 77.6002 61.7966 78.1222 61.679C77.7732 61.6187 77.4849 61.468 77.2573 61.2268C77.0297 60.9857 76.9159 60.6978 76.9159 60.3631C76.9159 59.9532 77.0797 59.5914 77.4075 59.2779C77.7353 58.9644 78.2117 58.8076 78.8369 58.8076H81.3908ZM78.9598 59.6035C78.7383 59.6035 78.5517 59.6788 78.3999 59.8296C78.2512 59.9803 78.1768 60.1642 78.1768 60.3812C78.1768 60.5892 78.2542 60.7701 78.409 60.9239C78.5638 61.0746 78.7474 61.15 78.9598 61.15C79.1723 61.15 79.3544 61.0701 79.5061 60.9103C79.6579 60.7505 79.7337 60.5591 79.7337 60.336C79.7337 60.134 79.6594 59.9622 79.5107 59.8205C79.365 59.6758 79.1814 59.6035 78.9598 59.6035ZM79.0691 64.4103C79.3574 64.4103 79.5911 64.3575 79.7701 64.252C79.9492 64.1465 80.0387 64.0199 80.0387 63.8722C80.0387 63.5587 79.6882 63.4019 78.9871 63.4019C78.6685 63.4019 78.4181 63.4471 78.236 63.5376C78.0539 63.631 77.9629 63.7546 77.9629 63.9084C77.9629 64.243 78.3316 64.4103 79.0691 64.4103Z" fill="#151313"/>
<path d="M83.4063 60.0285V58.8076H82.0543V63.0763H83.4063V61.2314C83.4063 61.1681 83.5126 60.945 83.725 60.5621C83.9405 60.1762 84.2045 59.9833 84.5171 59.9833C84.7174 59.9833 84.9845 60.0888 85.3183 60.2998L85.6916 59.1106C85.3426 58.8513 85.0436 58.7217 84.7948 58.7217C84.2728 58.7217 83.816 59.1573 83.4245 60.0285H83.4063Z" fill="#151313"/>
<path fill-rule="evenodd" clip-rule="evenodd" d="M88.1305 58.7217C88.8043 58.7217 89.3748 58.9176 89.8422 59.3095C90.3126 59.7014 90.5478 60.2471 90.5478 60.9465C90.5478 61.6489 90.3096 62.193 89.8331 62.5789C89.3566 62.9648 88.7891 63.1577 88.1305 63.1577C87.4173 63.1577 86.8331 62.9527 86.3779 62.5427C85.9257 62.1297 85.6996 61.5946 85.6996 60.9374C85.6996 60.2682 85.9302 59.7316 86.3915 59.3276C86.8559 58.9237 87.4355 58.7217 88.1305 58.7217ZM88.1305 62.3618C88.7769 62.3618 89.1002 61.878 89.1002 60.9103C89.1002 59.9848 88.7769 59.5221 88.1305 59.5221C87.821 59.5221 87.5782 59.6442 87.4022 59.8883C87.2292 60.1325 87.1427 60.4822 87.1427 60.9374C87.1427 61.887 87.472 62.3618 88.1305 62.3618Z" fill="#151313"/>
<path fill-rule="evenodd" clip-rule="evenodd" d="M95.6043 62.597V61.7514C95.0489 62.1584 94.5178 62.3618 94.011 62.3618C93.5922 62.3618 93.2583 62.2578 93.0095 62.0498C92.7606 61.8418 92.6225 61.5449 92.5952 61.159H95.6817C95.709 60.4174 95.5102 59.8265 95.0853 59.3864C94.6635 58.9433 94.1218 58.7217 93.4602 58.7217C92.8016 58.7217 92.2599 58.9312 91.835 59.3502C91.4101 59.7693 91.1977 60.3044 91.1977 60.9555C91.1977 61.6187 91.4238 62.1523 91.876 62.5563C92.3282 62.9572 92.9321 63.1577 93.6878 63.1577C94.4495 63.1577 95.0884 62.9708 95.6043 62.597ZM94.489 60.4536H92.6225C92.6893 59.8326 93.0004 59.5221 93.5558 59.5221C94.1051 59.5221 94.4161 59.8326 94.489 60.4536Z" fill="#151313"/>
<path d="M100.847 58.8076L99.1494 60.8922L100.975 63.0763H99.4089L98.3938 61.7514L97.415 63.0763H95.8946L97.6472 60.8922L95.8946 58.8076H97.4696L98.3938 60.0376L99.2724 58.8076H100.847Z" fill="#151313"/>
<path d="M104.602 59.7255V58.8076H103.036V57.4646H102.868L101.069 59.4633V59.7255H101.684V61.5569C101.684 62.0815 101.83 62.4794 102.121 62.7507C102.412 63.022 102.822 63.1577 103.35 63.1577C103.754 63.1577 104.171 63.0688 104.602 62.8909V61.9187C104.277 62.0845 103.975 62.1674 103.696 62.1674C103.49 62.1674 103.327 62.1071 103.209 61.9865C103.094 61.8629 103.036 61.6956 103.036 61.4846V59.7255H104.602Z" fill="#151313"/>
<path d="M106.645 58.8076V60.0285H106.663C107.055 59.1573 107.511 58.7217 108.033 58.7217C108.282 58.7217 108.581 58.8513 108.93 59.1106L108.557 60.2998C108.223 60.0888 107.956 59.9833 107.756 59.9833C107.443 59.9833 107.179 60.1762 106.964 60.5621C106.751 60.945 106.645 61.1681 106.645 61.2314V63.0763H105.293V58.8076H106.645Z" fill="#151313"/>
<path fill-rule="evenodd" clip-rule="evenodd" d="M113.777 62.7688V62.0227C113.55 62.1825 113.38 62.2624 113.267 62.2624C113.119 62.2624 113.044 62.1629 113.044 61.9639V60.0195C113.044 59.1543 112.437 58.7217 111.223 58.7217C110.547 58.7217 109.926 58.895 109.361 59.2417V60.336C109.844 59.8597 110.372 59.6215 110.946 59.6215C111.474 59.6215 111.723 59.8597 111.692 60.336C110.472 60.6948 109.741 60.9887 109.498 61.2178C109.258 61.4439 109.138 61.7423 109.138 62.1131C109.138 62.3905 109.255 62.6347 109.489 62.8457C109.723 63.0537 110.006 63.1577 110.34 63.1577C110.814 63.1577 111.286 62.9979 111.756 62.6784C111.835 62.9979 112.087 63.1577 112.512 63.1577C112.906 63.1577 113.328 63.0281 113.777 62.7688ZM111.692 61.0098V62.0408C111.449 62.2548 111.201 62.3618 110.946 62.3618C110.824 62.3618 110.721 62.3181 110.636 62.2307C110.551 62.1403 110.509 62.0332 110.509 61.9096C110.509 61.7167 110.592 61.5584 110.759 61.4348C110.929 61.3082 111.24 61.1665 111.692 61.0098Z" fill="#151313"/>
<path d="M117.382 58.8076V59.7255H115.816V61.4846C115.816 61.6956 115.873 61.8629 115.989 61.9865C116.107 62.1071 116.269 62.1674 116.476 62.1674C116.755 62.1674 117.057 62.0845 117.382 61.9187V62.8909C116.951 63.0688 116.533 63.1577 116.13 63.1577C115.602 63.1577 115.192 63.022 114.901 62.7507C114.609 62.4794 114.464 62.0815 114.464 61.5569V59.7255H113.849V59.4633L115.647 57.4646H115.816V58.8076H117.382Z" fill="#151313"/>
<path d="M118.209 56.8948C118.063 57.0395 117.99 57.2144 117.99 57.4194C117.99 57.6213 118.063 57.7962 118.209 57.9439C118.355 58.0886 118.529 58.161 118.732 58.161C118.939 58.161 119.115 58.0886 119.261 57.9439C119.406 57.7962 119.479 57.6213 119.479 57.4194C119.479 57.2144 119.406 57.0395 119.261 56.8948C119.115 56.7501 118.939 56.6778 118.732 56.6778C118.529 56.6778 118.355 56.7501 118.209 56.8948Z" fill="#151313"/>
<path d="M119.415 63.0763V58.8076H118.063V63.0763H119.415Z" fill="#151313"/>
<path d="M121.964 63.1577L119.979 58.8076H121.426L122.337 61.159L123.261 58.8076H124.695L122.719 63.1577H121.964Z" fill="#151313"/>
<path d="M125.399 56.8948C125.254 57.0395 125.181 57.2144 125.181 57.4194C125.181 57.6213 125.254 57.7962 125.399 57.9439C125.545 58.0886 125.72 58.161 125.923 58.161C126.129 58.161 126.305 58.0886 126.451 57.9439C126.597 57.7962 126.669 57.6213 126.669 57.4194C126.669 57.2144 126.597 57.0395 126.451 56.8948C126.305 56.7501 126.129 56.6778 125.923 56.6778C125.72 56.6778 125.545 56.7501 125.399 56.8948Z" fill="#151313"/>
<path d="M126.606 63.0763V58.8076H125.254V63.0763H126.606Z" fill="#151313"/>
<path d="M130.665 59.0382V59.9923C130.149 59.6788 129.671 59.5221 129.231 59.5221C128.907 59.5221 128.744 59.6321 128.744 59.8522C128.744 59.9094 128.778 59.9667 128.844 60.024C128.914 60.0783 129.177 60.1958 129.632 60.3767C130.087 60.5546 130.409 60.7611 130.597 60.9962C130.785 61.2314 130.879 61.4891 130.879 61.7695C130.879 62.2126 130.728 62.5548 130.424 62.796C130.121 63.0371 129.688 63.1577 129.127 63.1577C128.55 63.1577 128.037 63.0537 127.588 62.8457V61.9006C128.14 62.1418 128.603 62.2624 128.976 62.2624C129.413 62.2624 129.632 62.1569 129.632 61.9458C129.632 61.8644 129.591 61.7876 129.509 61.7152C129.43 61.6429 129.16 61.5177 128.699 61.3399C128.237 61.162 127.922 60.9661 127.752 60.752C127.582 60.538 127.497 60.2998 127.497 60.0376C127.497 59.6487 127.659 59.3321 127.984 59.088C128.312 58.8438 128.743 58.7217 129.277 58.7217C129.79 58.7217 130.253 58.8272 130.665 59.0382Z" fill="#151313"/>
<path d="M134.729 59.7255V58.8076H133.163V57.4646H132.995L131.197 59.4633V59.7255H131.811V61.5569C131.811 62.0815 131.957 62.4794 132.248 62.7507C132.54 63.022 132.949 63.1577 133.478 63.1577C133.881 63.1577 134.298 63.0688 134.729 62.8909V61.9187C134.405 62.0845 134.103 62.1674 133.824 62.1674C133.617 62.1674 133.455 62.1071 133.336 61.9865C133.221 61.8629 133.163 61.6956 133.163 61.4846V59.7255H134.729Z" fill="#151313"/>
<path fill-rule="evenodd" clip-rule="evenodd" d="M139.772 62.0227V62.7688C139.323 63.0281 138.901 63.1577 138.507 63.1577C138.082 63.1577 137.83 62.9979 137.751 62.6784C137.281 62.9979 136.809 63.1577 136.335 63.1577C136.001 63.1577 135.718 63.0537 135.484 62.8457C135.25 62.6347 135.133 62.3905 135.133 62.1131C135.133 61.7423 135.253 61.4439 135.493 61.2178C135.736 60.9887 136.467 60.6948 137.687 60.336C137.718 59.8597 137.469 59.6215 136.941 59.6215C136.367 59.6215 135.839 59.8597 135.357 60.336V59.2417C135.921 58.895 136.542 58.7217 137.218 58.7217C138.432 58.7217 139.039 59.1543 139.039 60.0195V61.9639C139.039 62.1629 139.114 62.2624 139.262 62.2624C139.375 62.2624 139.545 62.1825 139.772 62.0227ZM137.687 62.0408V61.0098C137.235 61.1665 136.924 61.3082 136.754 61.4348C136.587 61.5584 136.504 61.7167 136.504 61.9096C136.504 62.0332 136.546 62.1403 136.631 62.2307C136.716 62.3181 136.819 62.3618 136.941 62.3618C137.196 62.3618 137.445 62.2548 137.687 62.0408Z" fill="#151313"/>
<path fill-rule="evenodd" clip-rule="evenodd" d="M22.4314 71.9387V67.1818H21.4133V68.8639C21.1368 68.7277 20.8557 68.6596 20.57 68.6596C20.1107 68.6596 19.7336 68.8151 19.4388 69.1261C19.1463 69.4371 19 69.8377 19 70.3281C19 70.8071 19.144 71.2055 19.4319 71.5233C19.7222 71.8411 20.0832 72 20.5152 72C20.8534 72 21.1528 71.8933 21.4133 71.6799V71.9387H22.4314ZM21.4133 69.5245V71.0602C21.219 71.2373 21.0179 71.3258 20.81 71.3258C20.5746 71.3258 20.386 71.2373 20.2444 71.0602C20.1027 70.8809 20.0318 70.6436 20.0318 70.3485C20.0318 70.0284 20.1027 69.7799 20.2444 69.6028C20.3883 69.4257 20.5883 69.3372 20.8442 69.3372C21.0385 69.3372 21.2282 69.3996 21.4133 69.5245Z" fill="#151313"/>
<path fill-rule="evenodd" clip-rule="evenodd" d="M26.5373 71.1453V71.7072C26.1991 71.9024 25.8814 72 25.5843 72C25.2644 72 25.0747 71.8797 25.0153 71.6391C24.661 71.8797 24.3057 72 23.9492 72C23.6978 72 23.4841 71.9217 23.3081 71.7651C23.1322 71.6061 23.0442 71.4223 23.0442 71.2134C23.0442 70.9342 23.1345 70.7095 23.315 70.5392C23.4978 70.3667 24.0486 70.1453 24.9673 69.8752C24.9901 69.5165 24.8027 69.3372 24.4051 69.3372C23.9732 69.3372 23.5755 69.5165 23.2122 69.8752V69.0512C23.6372 68.7901 24.1046 68.6596 24.6142 68.6596C25.5283 68.6596 25.9854 68.9853 25.9854 69.6368V71.1011C25.9854 71.2509 26.0414 71.3258 26.1534 71.3258C26.2379 71.3258 26.3659 71.2656 26.5373 71.1453ZM24.9673 71.1589V70.3826C24.6268 70.5006 24.3925 70.6073 24.2645 70.7027C24.1388 70.7957 24.076 70.9149 24.076 71.0602C24.076 71.1533 24.108 71.2338 24.172 71.302C24.236 71.3678 24.3137 71.4007 24.4051 71.4007C24.5971 71.4007 24.7845 71.3201 24.9673 71.1589Z" fill="#151313"/>
<path d="M29.152 69.6164V68.8979C28.8412 68.739 28.4927 68.6596 28.1065 68.6596C27.7043 68.6596 27.3797 68.7515 27.1329 68.9354C26.8884 69.1193 26.7661 69.3576 26.7661 69.6505C26.7661 69.848 26.8301 70.0273 26.9581 70.1885C27.0861 70.3497 27.3238 70.4972 27.6711 70.6311C28.0185 70.7651 28.2219 70.8593 28.2813 70.9138C28.343 70.9683 28.3739 71.0261 28.3739 71.0874C28.3739 71.2463 28.2093 71.3258 27.8802 71.3258C27.5991 71.3258 27.2506 71.235 26.8347 71.0534V71.7651C27.1729 71.9217 27.5591 72 27.9934 72C28.4161 72 28.7418 71.9092 28.9703 71.7276C29.1989 71.546 29.3131 71.2883 29.3131 70.9546C29.3131 70.7435 29.2423 70.5494 29.1006 70.3724C28.9589 70.1953 28.7167 70.0398 28.3739 69.9059C28.0311 69.7697 27.8334 69.6811 27.7808 69.6403C27.7305 69.5971 27.7054 69.554 27.7054 69.5109C27.7054 69.3451 27.8277 69.2623 28.0722 69.2623C28.4036 69.2623 28.7635 69.3803 29.152 69.6164Z" fill="#151313"/>
<path d="M36.3834 70.4881V71.5267C35.7846 71.8422 35.1573 72 34.5014 72C33.6513 72 32.9737 71.7673 32.4686 71.302C31.9659 70.8343 31.7145 70.2589 31.7145 69.5756C31.7145 68.8923 31.9796 68.3123 32.5098 67.8355C33.0423 67.3588 33.737 67.1205 34.594 67.1205C35.2773 67.1205 35.8555 67.2601 36.3285 67.5393V68.5983C35.7481 68.2737 35.1984 68.1114 34.6797 68.1114C34.1701 68.1114 33.753 68.2476 33.4285 68.52C33.1062 68.7901 32.9451 69.1352 32.9451 69.5551C32.9451 69.9774 33.104 70.3258 33.4216 70.6005C33.7416 70.8752 34.1506 71.0125 34.6488 71.0125C34.8956 71.0125 35.1333 70.9807 35.3618 70.9172C35.5904 70.8513 35.9309 70.7083 36.3834 70.4881Z" fill="#151313"/>
<path fill-rule="evenodd" clip-rule="evenodd" d="M40.1465 69.1022C39.7945 68.8071 39.3649 68.6596 38.8576 68.6596C38.3342 68.6596 37.8977 68.8117 37.5481 69.1159C37.2007 69.4201 37.027 69.8241 37.027 70.3281C37.027 70.823 37.1973 71.2259 37.5378 71.5369C37.8806 71.8456 38.3205 72 38.8576 72C39.3535 72 39.7808 71.8547 40.1396 71.5641C40.4984 71.2736 40.6778 70.8638 40.6778 70.3349C40.6778 69.8082 40.5007 69.3973 40.1465 69.1022ZM39.5877 70.3077C39.5877 71.0363 39.3443 71.4007 38.8576 71.4007C38.3616 71.4007 38.1137 71.0432 38.1137 70.3281C38.1137 69.9853 38.1788 69.722 38.3091 69.5381C38.4416 69.3542 38.6245 69.2623 38.8576 69.2623C39.3443 69.2623 39.5877 69.6107 39.5877 70.3077Z" fill="#151313"/>
<path d="M42.367 68.7243V69.1363C42.7121 68.8185 43.0868 68.6596 43.4913 68.6596C44.0467 68.6596 44.4352 68.8877 44.6569 69.344C45.0476 68.8877 45.4727 68.6596 45.9321 68.6596C46.3046 68.6596 46.6085 68.7719 46.8439 68.9967C47.0793 69.2214 47.197 69.5143 47.197 69.8752V71.9387H46.1789V70.0557C46.1789 69.8287 46.1263 69.6527 46.0212 69.5279C45.9161 69.4008 45.7698 69.3372 45.5824 69.3372C45.2853 69.3372 45.0179 69.5188 44.7803 69.882V71.9387H43.7656V70.0352C43.7656 69.8105 43.7085 69.638 43.5942 69.5177C43.4822 69.3974 43.3325 69.3372 43.1451 69.3372C42.8777 69.3372 42.6184 69.4859 42.367 69.7833V71.9387H41.3489V68.7243H42.367Z" fill="#151313"/>
<path d="M50.1819 71.479V71.9387H51.2V68.7243H50.1751V70.7742C50.1751 70.8445 50.1065 70.9546 49.9694 71.1045C49.8346 71.252 49.6712 71.3258 49.4792 71.3258C49.1387 71.3258 48.9684 71.1215 48.9684 70.7129V68.7243H47.9503V70.781C47.9503 71.1623 48.06 71.4609 48.2794 71.6765C48.4988 71.8922 48.7845 72 49.1364 72C49.534 72 49.8826 71.8263 50.1819 71.479Z" fill="#151313"/>
<path d="M53.0263 68.7243V69.184C53.3257 68.8344 53.6765 68.6596 54.0787 68.6596C54.4146 68.6596 54.6946 68.7663 54.9186 68.9797C55.1448 69.193 55.2579 69.4984 55.2579 69.8956V71.9387H54.2398V69.9808C54.2398 69.5517 54.0719 69.3372 53.7359 69.3372C53.496 69.3372 53.2594 69.5143 53.0263 69.8684V71.9387H52.0082V68.7243H53.0263Z" fill="#151313"/>
<path d="M56.1964 67.2839C56.0867 67.3929 56.0318 67.5245 56.0318 67.6789C56.0318 67.831 56.0867 67.9627 56.1964 68.0739C56.3061 68.1829 56.4375 68.2373 56.5906 68.2373C56.746 68.2373 56.8785 68.1829 56.9882 68.0739C57.0979 67.9627 57.1528 67.831 57.1528 67.6789C57.1528 67.5245 57.0979 67.3929 56.9882 67.2839C56.8785 67.1749 56.746 67.1205 56.5906 67.1205C56.4375 67.1205 56.3061 67.1749 56.1964 67.2839Z" fill="#151313"/>
<path d="M57.1048 71.9387V68.7243H56.0867V71.9387H57.1048Z" fill="#151313"/>
<path fill-rule="evenodd" clip-rule="evenodd" d="M61.1935 67.1818V71.9387H60.1754V71.6799C59.9149 71.8933 59.6155 72 59.2773 72C58.8454 72 58.4843 71.8411 58.1941 71.5233C57.9061 71.2055 57.7621 70.8071 57.7621 70.3281C57.7621 69.8377 57.9084 69.4371 58.2009 69.1261C58.4957 68.8151 58.8728 68.6596 59.3321 68.6596C59.6178 68.6596 59.8989 68.7277 60.1754 68.8639V67.1818H61.1935ZM60.1754 71.0602V69.5245C59.9903 69.3996 59.8006 69.3372 59.6064 69.3372C59.3504 69.3372 59.1505 69.4257 59.0065 69.6028C58.8648 69.7799 58.794 70.0284 58.794 70.3485C58.794 70.6436 58.8648 70.8809 59.0065 71.0602C59.1482 71.2373 59.3367 71.3258 59.5721 71.3258C59.7801 71.3258 59.9812 71.2373 60.1754 71.0602Z" fill="#151313"/>
<path fill-rule="evenodd" clip-rule="evenodd" d="M65.2994 71.7072V71.1453C65.128 71.2656 65 71.3258 64.9155 71.3258C64.8035 71.3258 64.7475 71.2509 64.7475 71.1011V69.6368C64.7475 68.9853 64.2905 68.6596 63.3763 68.6596C62.8667 68.6596 62.3994 68.7901 61.9743 69.0512V69.8752C62.3377 69.5165 62.7353 69.3372 63.1672 69.3372C63.5649 69.3372 63.7523 69.5165 63.7294 69.8752C62.8107 70.1453 62.2599 70.3667 62.0771 70.5392C61.8966 70.7095 61.8063 70.9342 61.8063 71.2134C61.8063 71.4223 61.8943 71.6061 62.0703 71.7651C62.2462 71.9217 62.4599 72 62.7113 72C63.0678 72 63.4232 71.8797 63.7774 71.6391C63.8368 71.8797 64.0265 72 64.3464 72C64.6435 72 64.9612 71.9024 65.2994 71.7072ZM63.7294 70.3826V71.1589C63.5466 71.3201 63.3592 71.4007 63.1672 71.4007C63.0758 71.4007 62.9981 71.3678 62.9341 71.302C62.8701 71.2338 62.8381 71.1533 62.8381 71.0602C62.8381 70.9149 62.901 70.7957 63.0267 70.7027C63.1547 70.6073 63.3889 70.5006 63.7294 70.3826Z" fill="#151313"/>
<path fill-rule="evenodd" clip-rule="evenodd" d="M68.946 67.1818V71.9387H67.9279V71.6799C67.6673 71.8933 67.3679 72 67.0297 72C66.5978 72 66.2367 71.8411 65.9465 71.5233C65.6585 71.2055 65.5146 70.8071 65.5146 70.3281C65.5146 69.8377 65.6608 69.4371 65.9533 69.1261C66.2481 68.8151 66.6252 68.6596 67.0846 68.6596C67.3702 68.6596 67.6513 68.7277 67.9279 68.8639V67.1818H68.946ZM67.9279 71.0602V69.5245C67.7427 69.3996 67.5531 69.3372 67.3588 69.3372C67.1029 69.3372 66.9029 69.4257 66.7589 69.6028C66.6172 69.7799 66.5464 70.0284 66.5464 70.3485C66.5464 70.6436 66.6172 70.8809 66.7589 71.0602C66.9006 71.2373 67.0891 71.3258 67.3245 71.3258C67.5325 71.3258 67.7336 71.2373 67.9279 71.0602Z" fill="#151313"/>
<path fill-rule="evenodd" clip-rule="evenodd" d="M72.9044 71.5778V70.941C72.4862 71.2475 72.0863 71.4007 71.7047 71.4007C71.3893 71.4007 71.1379 71.3224 70.9505 71.1657C70.7631 71.0091 70.6591 70.7855 70.6386 70.4949H72.9627C72.9833 69.9365 72.8336 69.4916 72.5137 69.1601C72.196 68.8264 71.7881 68.6596 71.2899 68.6596C70.794 68.6596 70.386 68.8174 70.0661 69.1329C69.7461 69.4484 69.5862 69.8514 69.5862 70.3417C69.5862 70.8411 69.7564 71.2429 70.0969 71.5471C70.4374 71.849 70.8922 72 71.4613 72C72.0349 72 72.5159 71.8593 72.9044 71.5778ZM71.3619 69.2623C71.7755 69.2623 72.0097 69.4961 72.0646 69.9637H70.6591C70.7094 69.4961 70.9436 69.2623 71.3619 69.2623Z" fill="#151313"/>
<path d="M75.8105 68.8979V69.6164C75.422 69.3803 75.0621 69.2623 74.7307 69.2623C74.4862 69.2623 74.3639 69.3451 74.3639 69.5109C74.3639 69.554 74.3891 69.5971 74.4394 69.6403C74.4919 69.6811 74.6896 69.7697 75.0324 69.9059C75.3752 70.0398 75.6174 70.1953 75.7591 70.3724C75.9008 70.5494 75.9717 70.7435 75.9717 70.9546C75.9717 71.2883 75.8574 71.546 75.6289 71.7276C75.4003 71.9092 75.0747 72 74.6519 72C74.2177 72 73.8315 71.9217 73.4932 71.7651V71.0534C73.9092 71.235 74.2577 71.3258 74.5388 71.3258C74.8678 71.3258 75.0324 71.2463 75.0324 71.0874C75.0324 71.0261 75.0015 70.9683 74.9398 70.9138C74.8804 70.8593 74.677 70.7651 74.3297 70.6311C73.9823 70.4972 73.7446 70.3497 73.6166 70.1885C73.4887 70.0273 73.4247 69.848 73.4247 69.6505C73.4247 69.3576 73.5469 69.1193 73.7915 68.9354C74.0383 68.7515 74.3628 68.6596 74.765 68.6596C75.1512 68.6596 75.4997 68.739 75.8105 68.8979Z" fill="#151313"/>
<path fill-rule="evenodd" clip-rule="evenodd" d="M81.7221 71.9387V67.1818H80.704V68.8639C80.4275 68.7277 80.1464 68.6596 79.8608 68.6596C79.4014 68.6596 79.0243 68.8151 78.7295 69.1261C78.437 69.4371 78.2907 69.8377 78.2907 70.3281C78.2907 70.8071 78.4347 71.2055 78.7227 71.5233C79.0129 71.8411 79.374 72 79.8059 72C80.1441 72 80.4435 71.8933 80.704 71.6799V71.9387H81.7221ZM80.704 69.5245V71.0602C80.5098 71.2373 80.3087 71.3258 80.1007 71.3258C79.8653 71.3258 79.6768 71.2373 79.5351 71.0602C79.3934 70.8809 79.3226 70.6436 79.3226 70.3485C79.3226 70.0284 79.3934 69.7799 79.5351 69.6028C79.6791 69.4257 79.879 69.3372 80.135 69.3372C80.3292 69.3372 80.5189 69.3996 80.704 69.5245Z" fill="#151313"/>
<path fill-rule="evenodd" clip-rule="evenodd" d="M85.828 71.1453V71.7072C85.4898 71.9024 85.1721 72 84.8751 72C84.5551 72 84.3654 71.8797 84.306 71.6391C83.9518 71.8797 83.5964 72 83.2399 72C82.9885 72 82.7749 71.9217 82.5989 71.7651C82.4229 71.6061 82.3349 71.4223 82.3349 71.2134C82.3349 70.9342 82.4252 70.7095 82.6057 70.5392C82.7886 70.3667 83.3393 70.1453 84.258 69.8752C84.2809 69.5165 84.0935 69.3372 83.6958 69.3372C83.2639 69.3372 82.8663 69.5165 82.5029 69.8752V69.0512C82.928 68.7901 83.3953 68.6596 83.9049 68.6596C84.8191 68.6596 85.2761 68.9853 85.2761 69.6368V71.1011C85.2761 71.2509 85.3321 71.3258 85.4441 71.3258C85.5287 71.3258 85.6566 71.2656 85.828 71.1453ZM84.258 71.1589V70.3826C83.9175 70.5006 83.6833 70.6073 83.5553 70.7027C83.4296 70.7957 83.3668 70.9149 83.3668 71.0602C83.3668 71.1533 83.3987 71.2338 83.4627 71.302C83.5267 71.3678 83.6044 71.4007 83.6958 71.4007C83.8878 71.4007 84.0752 71.3201 84.258 71.1589Z" fill="#151313"/>
<path fill-rule="evenodd" clip-rule="evenodd" d="M90.389 67.1818H88.25V71.9387H89.4429V70.008H89.7857C89.9434 70.008 90.0908 70.0704 90.2279 70.1953C90.3673 70.3201 90.533 70.6028 90.725 71.0432C90.9192 71.4836 91.0552 71.7821 91.1329 71.9387H92.4458C92.2447 71.5165 92.0356 71.067 91.8185 70.5903C91.6037 70.1136 91.3751 69.8219 91.1329 69.7152C91.6814 69.4632 91.9556 69.075 91.9556 68.5506C91.9556 68.1715 91.8105 67.8492 91.5202 67.5836C91.23 67.3157 90.8529 67.1818 90.389 67.1818ZM89.4429 69.1363V68.0535H90.0462C90.501 68.0535 90.7284 68.2328 90.7284 68.5915C90.7284 68.7663 90.669 68.9013 90.5501 68.9967C90.4336 69.0898 90.2748 69.1363 90.0736 69.1363H89.4429Z" fill="#151313"/>
<path fill-rule="evenodd" clip-rule="evenodd" d="M92.9592 67.1818H95.0708C95.8867 67.1818 96.5311 67.4042 97.0042 67.8492C97.4795 68.2918 97.7172 68.865 97.7172 69.5687C97.7172 70.3065 97.4761 70.8865 96.9939 71.3088C96.514 71.7287 95.8284 71.9387 94.9371 71.9387H92.9592V67.1818ZM94.1521 68.0535V71.067H94.9303C95.4353 71.067 95.8215 70.9297 96.0889 70.655C96.3563 70.378 96.49 70.0137 96.49 69.5619C96.49 69.0943 96.354 68.7265 96.0821 68.4587C95.8124 68.1885 95.4239 68.0535 94.9166 68.0535H94.1521Z" fill="#151313"/>
<path d="M101.809 68.4178V67.4882C101.24 67.243 100.7 67.1205 100.188 67.1205C99.6326 67.1205 99.1893 67.2465 98.8579 67.4984C98.5265 67.7481 98.3608 68.0773 98.3608 68.4859C98.3608 68.8015 98.4363 69.0602 98.5871 69.2623C98.7402 69.4643 98.9208 69.6198 99.1287 69.7288C99.339 69.8377 99.6223 69.9558 99.9789 70.0829C100.338 70.2101 100.564 70.3179 100.658 70.4064C100.751 70.4949 100.798 70.5891 100.798 70.689C100.798 70.9819 100.564 71.1283 100.095 71.1283C99.8189 71.1283 99.5572 71.0795 99.3104 70.9819C99.0636 70.8843 98.7802 70.7288 98.4603 70.5154V71.5403C99.0179 71.8468 99.5938 72 100.188 72C100.739 72 101.182 71.8695 101.518 71.6084C101.856 71.3474 102.025 70.9966 102.025 70.5562C102.025 70.2475 101.948 69.9921 101.792 69.7901C101.639 69.588 101.456 69.4314 101.244 69.3202C101.031 69.2089 100.748 69.0886 100.394 68.9592C100.039 68.8298 99.8166 68.7243 99.7252 68.6426C99.6338 68.5608 99.5881 68.4746 99.5881 68.3838C99.5881 68.2657 99.6509 68.1715 99.7766 68.1011C99.9046 68.0285 100.076 67.9922 100.291 67.9922C100.668 67.9922 101.174 68.1341 101.809 68.4178Z" fill="#151313"/>
<path fill-rule="evenodd" clip-rule="evenodd" d="M107.831 67.1818V71.9387H106.813V71.6799C106.552 71.8933 106.253 72 105.914 72C105.483 72 105.121 71.8411 104.831 71.5233C104.543 71.2055 104.399 70.8071 104.399 70.3281C104.399 69.8377 104.546 69.4371 104.838 69.1261C105.133 68.8151 105.51 68.6596 105.969 68.6596C106.255 68.6596 106.536 68.7277 106.813 68.8639V67.1818H107.831ZM106.813 71.0602V69.5245C106.627 69.3996 106.438 69.3372 106.244 69.3372C105.988 69.3372 105.788 69.4257 105.644 69.6028C105.502 69.7799 105.431 70.0284 105.431 70.3485C105.431 70.6436 105.502 70.8809 105.644 71.0602C105.785 71.2373 105.974 71.3258 106.209 71.3258C106.417 71.3258 106.618 71.2373 106.813 71.0602Z" fill="#151313"/>
<path fill-rule="evenodd" clip-rule="evenodd" d="M111.59 69.1022C111.238 68.8071 110.809 68.6596 110.301 68.6596C109.778 68.6596 109.342 68.8117 108.992 69.1159C108.645 69.4201 108.471 69.8241 108.471 70.3281C108.471 70.823 108.641 71.2259 108.982 71.5369C109.324 71.8456 109.764 72 110.301 72C110.797 72 111.225 71.8547 111.583 71.5641C111.942 71.2736 112.122 70.8638 112.122 70.3349C112.122 69.8082 111.945 69.3973 111.59 69.1022ZM111.032 70.3077C111.032 71.0363 110.788 71.4007 110.301 71.4007C109.806 71.4007 109.558 71.0432 109.558 70.3281C109.558 69.9853 109.623 69.722 109.753 69.5381C109.885 69.3542 110.068 69.2623 110.301 69.2623C110.788 69.2623 111.032 69.6107 111.032 70.3077Z" fill="#151313"/>
<path d="M118.356 67.1818H119.548V69.882C119.548 70.5767 119.342 71.1033 118.928 71.462C118.514 71.8207 117.924 72 117.156 72C116.397 72 115.807 71.8184 115.387 71.4552C114.969 71.092 114.76 70.5699 114.76 69.8888V67.1818H115.956V69.9161C115.956 70.2475 116.064 70.5131 116.282 70.7129C116.501 70.9126 116.788 71.0125 117.142 71.0125C117.51 71.0125 117.804 70.9104 118.023 70.7061C118.245 70.5018 118.356 70.2112 118.356 69.8343V67.1818Z" fill="#151313"/>
<path fill-rule="evenodd" clip-rule="evenodd" d="M123.74 71.7072V71.1453C123.569 71.2656 123.441 71.3258 123.356 71.3258C123.244 71.3258 123.188 71.2509 123.188 71.1011V69.6368C123.188 68.9853 122.731 68.6596 121.817 68.6596C121.307 68.6596 120.84 68.7901 120.415 69.0512V69.8752C120.778 69.5165 121.176 69.3372 121.608 69.3372C122.005 69.3372 122.193 69.5165 122.17 69.8752C121.251 70.1453 120.701 70.3667 120.518 70.5392C120.337 70.7095 120.247 70.9342 120.247 71.2134C120.247 71.4223 120.335 71.6061 120.511 71.7651C120.687 71.9217 120.901 72 121.152 72C121.508 72 121.864 71.8797 122.218 71.6391C122.277 71.8797 122.467 72 122.787 72C123.084 72 123.402 71.9024 123.74 71.7072ZM122.17 70.3826V71.1589C121.987 71.3201 121.8 71.4007 121.608 71.4007C121.516 71.4007 121.439 71.3678 121.375 71.302C121.311 71.2338 121.279 71.1533 121.279 71.0602C121.279 70.9149 121.342 70.7957 121.467 70.7027C121.595 70.6073 121.83 70.5006 122.17 70.3826Z" fill="#151313"/>
<path d="M126.454 68.7243V69.4155H125.275V70.7401C125.275 70.899 125.318 71.025 125.405 71.1181C125.494 71.2089 125.617 71.2543 125.772 71.2543C125.982 71.2543 126.21 71.1919 126.454 71.067V71.7991C126.13 71.933 125.815 72 125.511 72C125.114 72 124.805 71.8979 124.586 71.6935C124.367 71.4892 124.257 71.1896 124.257 70.7946V69.4155H123.794V69.218L125.148 67.713H125.275V68.7243H126.454Z" fill="#151313"/>
<path d="M129.179 71.479V71.9387H130.197V68.7243H129.172V70.7742C129.172 70.8445 129.103 70.9546 128.966 71.1045C128.831 71.252 128.668 71.3258 128.476 71.3258C128.135 71.3258 127.965 71.1215 127.965 70.7129V68.7243H126.947V70.781C126.947 71.1623 127.057 71.4609 127.276 71.6765C127.495 71.8922 127.781 72 128.133 72C128.531 72 128.879 71.8263 129.179 71.479Z" fill="#151313"/>
<path d="M132.044 68.7243V69.1363C132.389 68.8185 132.763 68.6596 133.168 68.6596C133.723 68.6596 134.112 68.8877 134.333 69.344C134.724 68.8877 135.149 68.6596 135.609 68.6596C135.981 68.6596 136.285 68.7719 136.52 68.9967C136.756 69.2214 136.874 69.5143 136.874 69.8752V71.9387H135.855V70.0557C135.855 69.8287 135.803 69.6527 135.698 69.5279C135.593 69.4008 135.446 69.3372 135.259 69.3372C134.962 69.3372 134.695 69.5188 134.457 69.882V71.9387H133.442V70.0352C133.442 69.8105 133.385 69.638 133.271 69.5177C133.159 69.3974 133.009 69.3372 132.822 69.3372C132.554 69.3372 132.295 69.4859 132.044 69.7833V71.9387H131.025V68.7243H132.044Z" fill="#151313"/>
<path fill-rule="evenodd" clip-rule="evenodd" d="M141 71.7072V71.1453C140.829 71.2656 140.701 71.3258 140.616 71.3258C140.504 71.3258 140.448 71.2509 140.448 71.1011V69.6368C140.448 68.9853 139.991 68.6596 139.077 68.6596C138.567 68.6596 138.1 68.7901 137.675 69.0512V69.8752C138.038 69.5165 138.436 69.3372 138.868 69.3372C139.265 69.3372 139.453 69.5165 139.43 69.8752C138.511 70.1453 137.961 70.3667 137.778 70.5392C137.597 70.7095 137.507 70.9342 137.507 71.2134C137.507 71.4223 137.595 71.6061 137.771 71.7651C137.947 71.9217 138.161 72 138.412 72C138.768 72 139.124 71.8797 139.478 71.6391C139.537 71.8797 139.727 72 140.047 72C140.344 72 140.662 71.9024 141 71.7072ZM139.43 70.3826V71.1589C139.247 71.3201 139.06 71.4007 138.868 71.4007C138.776 71.4007 138.699 71.3678 138.635 71.302C138.571 71.2338 138.539 71.1533 138.539 71.0602C138.539 70.9149 138.602 70.7957 138.727 70.7027C138.855 70.6073 139.089 70.5006 139.43 70.3826Z" fill="#151313"/>
<path d="M140.503 67.2601H140.026C139.985 67.5098 139.882 67.6346 139.718 67.6346C139.624 67.6346 139.453 67.5722 139.204 67.4474C138.957 67.3225 138.758 67.2601 138.607 67.2601C138.374 67.2601 138.183 67.3497 138.035 67.5291C137.886 67.7084 137.799 67.9649 137.774 68.2986H138.237C138.269 68.0557 138.374 67.9343 138.552 67.9343C138.642 67.9343 138.816 67.9978 139.077 68.125C139.337 68.2498 139.54 68.3123 139.684 68.3123C140.182 68.3123 140.455 67.9615 140.503 67.2601Z" fill="#151313"/>
<path fill-rule="evenodd" clip-rule="evenodd" d="M81.3021 2.43072C80.8171 2.29782 80.3023 2.22952 79.7615 2.22952H73.7238V15.3209H74.9782V9.50992H79.7392C80.3302 9.48592 80.7948 9.58376 81.133 9.80342C81.4712 10.0231 81.7295 10.3147 81.9079 10.6747C82.0863 11.0347 82.2034 11.4445 82.2591 11.9023C82.313 12.3601 82.3539 12.8215 82.3781 13.2867C82.3905 13.4159 82.4013 13.5671 82.4136 13.7404L82.4152 13.763C82.4282 13.9476 82.4431 14.1322 82.4617 14.3223C82.4803 14.5124 82.5119 14.6952 82.5546 14.8724C82.5992 15.0496 82.6568 15.1991 82.7312 15.3209H84.1156C83.98 15.164 83.8722 14.9407 83.7923 14.6527C83.7124 14.3647 83.6548 14.0583 83.6176 13.7353C83.5804 13.4122 83.5544 13.091 83.5433 12.7735C83.5302 12.456 83.5191 12.1865 83.5061 11.9669C83.4819 11.5755 83.4299 11.2119 83.35 10.8759C83.2682 10.54 83.14 10.2428 82.9616 9.98617C82.7832 9.72959 82.5528 9.51915 82.2703 9.35301C81.9878 9.18688 81.631 9.07428 81.1999 9.01336V8.97644C82.0492 8.80477 82.6884 8.41343 83.1196 7.80242C83.5507 7.19141 83.7663 6.46965 83.7663 5.63897C83.7663 5.05381 83.6585 4.54248 83.4429 4.10869C83.2273 3.67489 82.9374 3.32047 82.5751 3.04542C82.2127 2.77038 81.7871 2.56548 81.3021 2.43072ZM80.7576 8.27129C80.4138 8.38758 80.0496 8.44481 79.6686 8.44481L79.6705 8.44665H74.9838V3.29463H79.6705C80.6294 3.29463 81.343 3.52537 81.8113 3.99055C82.2777 4.45572 82.5119 5.09073 82.5119 5.89741C82.5119 6.30167 82.4357 6.65793 82.2814 6.9699C82.1272 7.28186 81.9209 7.54768 81.6626 7.76735C81.4043 7.98701 81.1014 8.155 80.7576 8.27129Z" fill="#151313"/>
<path fill-rule="evenodd" clip-rule="evenodd" d="M90.5938 2.22952C92.5989 2.27936 94.1097 2.83868 95.1244 3.90748C96.139 4.97628 96.6463 6.59887 96.6463 8.77523C96.6463 10.9516 96.139 12.5723 95.1244 13.643C94.1097 14.7118 92.5989 15.2711 90.5938 15.3209H86.0353V2.22952H90.5938ZM89.9656 14.2558C90.9134 14.2558 91.7273 14.1543 92.4112 13.9531C93.0932 13.7519 93.6563 13.4307 94.1004 12.9914C94.5427 12.552 94.8698 11.9835 95.0779 11.2857C95.286 10.5898 95.392 9.75174 95.392 8.77523C95.392 7.79873 95.2879 6.96067 95.0779 6.2629C94.8679 5.56698 94.5427 4.99843 94.1004 4.55725C93.6581 4.11792 93.0951 3.79672 92.4112 3.59552C91.7292 3.39431 90.9134 3.29278 89.9656 3.29278H87.2897V14.2558H89.9656Z" fill="#151313"/>
<path fill-rule="evenodd" clip-rule="evenodd" d="M64.0364 37.4002C63.6704 37.6771 63.3804 38.0352 63.1686 38.4708L63.1649 38.4727C62.953 38.9083 62.8248 39.4252 62.7858 40.0196H64.0439C64.0717 39.1871 64.3375 38.5816 64.843 38.205C65.3484 37.8284 66.0007 37.6402 66.7998 37.6402C67.1714 37.6402 67.5208 37.6697 67.8479 37.7288C68.1731 37.7878 68.4593 37.8967 68.7064 38.0555C68.9536 38.2142 69.1469 38.4284 69.2862 38.6997C69.4275 38.9711 69.4962 39.3181 69.4962 39.7408C69.4962 40.0177 69.4591 40.2429 69.3866 40.4146C69.3141 40.5863 69.21 40.721 69.0781 40.8207C68.9443 40.9204 68.7789 40.9905 68.5782 41.0293C68.3794 41.0699 68.1452 41.1031 67.8795 41.129C67.1993 41.2084 66.5303 41.2914 65.8725 41.3763C65.2146 41.4631 64.6218 41.6126 64.0959 41.8231C63.57 42.0353 63.1482 42.3436 62.8285 42.746C62.5089 43.1503 62.3491 43.7078 62.3491 44.4221C62.3491 44.9372 62.4383 45.3839 62.6185 45.7605C62.7969 46.137 63.0441 46.449 63.3563 46.6927C63.6685 46.9382 64.0346 47.1154 64.4546 47.228C64.8727 47.3406 65.3224 47.396 65.8019 47.396C66.3073 47.396 66.744 47.3498 67.1101 47.2575C67.4744 47.1652 67.8014 47.0323 68.0876 46.8606C68.3738 46.689 68.634 46.4748 68.8662 46.2164C69.1004 45.958 69.329 45.6645 69.5557 45.334H69.5966C69.5966 45.598 69.6133 45.8398 69.6467 46.0577C69.6802 46.2755 69.7489 46.4638 69.8567 46.6225C69.9627 46.7813 70.1132 46.9049 70.3064 46.9899C70.4997 47.0766 70.7562 47.1191 71.0758 47.1191C71.2486 47.1191 71.3917 47.1117 71.5051 47.0988C71.6166 47.0858 71.7467 47.0674 71.8935 47.0397V45.9875C71.7745 46.041 71.6407 46.0669 71.4939 46.0669C71.0015 46.0669 70.7562 45.8158 70.7562 45.3137V39.8793C70.7562 39.1907 70.6428 38.6333 70.4161 38.2032C70.1894 37.7731 69.8958 37.4389 69.5371 37.2008C69.1784 36.9627 68.7715 36.8021 68.3199 36.7153C67.8665 36.6286 67.413 36.5861 66.9615 36.5861C66.3631 36.5861 65.8167 36.6526 65.3243 36.7855C64.8318 36.9184 64.4025 37.1233 64.0364 37.4002ZM69 41.8434C69.2249 41.7769 69.3791 41.6717 69.459 41.5259L69.4572 41.5222H69.4962V43.1484C69.4962 43.6524 69.3996 44.101 69.2063 44.4978C69.0131 44.8947 68.7529 45.2325 68.4277 45.5094C68.1006 45.7881 67.7178 45.9986 67.2792 46.1444C66.8407 46.2902 66.3817 46.3622 65.9022 46.3622C65.6086 46.3622 65.3224 46.3161 65.0437 46.2238C64.7649 46.1315 64.5177 45.9967 64.3059 45.8177C64.094 45.6386 63.9231 45.4282 63.7967 45.1827C63.6703 44.9372 63.6072 44.6566 63.6072 44.3391C63.6072 43.837 63.7577 43.4512 64.0569 43.1798C64.3561 42.9103 64.7389 42.7017 65.2053 42.5559C65.6718 42.4119 66.1884 42.3012 66.7533 42.2292C67.3201 42.1572 67.8683 42.0741 68.4017 41.9818C68.5745 41.956 68.7733 41.9098 69 41.8434Z" fill="#151313"/>
<path d="M77.3643 36.8834V37.9356H75.2681V44.8376C75.2681 45.2474 75.3239 45.5686 75.4373 45.7993C75.5506 46.0319 75.8331 46.1611 76.2865 46.187C76.6452 46.187 77.0057 46.1666 77.3643 46.1279V47.1801C77.1785 47.1801 76.9908 47.1875 76.805 47.2004C76.6191 47.2133 76.4315 47.2207 76.2456 47.2207C75.4075 47.2207 74.8203 47.0601 74.4876 46.7352C74.155 46.4122 73.9952 45.8122 74.0082 44.9409V37.9393H72.2112V36.8871H74.0082V33.8136H75.2663V36.8871H77.3625L77.3643 36.8834Z" fill="#151313"/>
<path d="M86.3699 45.2731V47.1172L86.3736 47.1191H87.5313V36.8852H86.2732V42.2606C86.2732 42.7756 86.2119 43.2814 86.093 43.7779C85.9722 44.2726 85.7863 44.712 85.5336 45.0959C85.2809 45.4799 84.9612 45.7882 84.5747 46.0189C84.1882 46.2515 83.7236 46.3659 83.1772 46.3659C82.1775 46.3659 81.4769 46.1278 81.0699 45.6516C80.6648 45.1753 80.4474 44.4757 80.4213 43.549V36.8852H79.1633V43.5287C79.1633 44.1379 79.2302 44.6787 79.364 45.155C79.4959 45.6313 79.7059 46.0337 79.9921 46.3641C80.2783 46.6964 80.6518 46.9493 81.1108 47.1283C81.5698 47.3074 82.1254 47.396 82.7777 47.396C83.5489 47.396 84.2514 47.2132 84.8832 46.8496C85.515 46.4859 85.9982 45.9617 86.3308 45.2731H86.3699Z" fill="#151313"/>
<path d="M91.0621 36.8833V38.6093H91.1216C91.4542 37.9743 91.8909 37.4796 92.4298 37.1214C92.9687 36.7652 93.6582 36.5861 94.4963 36.5861C95.1746 36.5861 95.7897 36.7523 96.3435 37.0827C96.8954 37.4131 97.2652 37.9152 97.451 38.589C97.7577 37.9152 98.2092 37.4131 98.8095 37.0827C99.4079 36.7523 100.047 36.5861 100.725 36.5861C103.002 36.5861 104.139 37.7823 104.139 40.1765V47.1172H102.881V40.2355C102.881 39.3901 102.701 38.744 102.342 38.301C101.982 37.858 101.35 37.6365 100.445 37.6365C99.8985 37.6365 99.4469 37.7398 99.0864 37.9447C98.7277 38.1496 98.4397 38.4247 98.2278 38.768C98.0141 39.1114 97.8654 39.5046 97.7781 39.9476C97.6908 40.3906 97.648 40.8502 97.648 41.3265V47.1172H96.3899V40.1765C96.3899 39.8331 96.3528 39.5064 96.2803 39.1944C96.2059 38.8843 96.087 38.613 95.9216 38.3822C95.7544 38.1515 95.5314 37.9687 95.2526 37.8377C94.9739 37.7048 94.6338 37.6383 94.2343 37.6383C93.7009 37.6383 93.2382 37.7343 92.8461 37.9263C92.454 38.1182 92.1344 38.3822 91.8872 38.72C91.64 39.0578 91.4579 39.4547 91.339 39.9107C91.2182 40.3666 91.1587 40.8669 91.1587 41.4077V47.1191H89.9006V36.8852H91.0584L91.0621 36.8833Z" fill="#151313"/>
<path fill-rule="evenodd" clip-rule="evenodd" d="M107.664 37.4002C107.298 37.6771 107.008 38.0352 106.797 38.4708V38.4727C106.585 38.9083 106.458 39.4252 106.417 40.0196H107.676C107.7 39.1871 107.967 38.5816 108.473 38.205C108.978 37.8284 109.631 37.6402 110.43 37.6402C110.801 37.6402 111.151 37.6697 111.478 37.7288C111.803 37.7878 112.089 37.8967 112.336 38.0555C112.583 38.2142 112.777 38.4284 112.916 38.6997C113.055 38.9711 113.126 39.3181 113.126 39.7408C113.126 40.0177 113.089 40.2429 113.016 40.4146C112.944 40.5863 112.84 40.721 112.708 40.8207C112.574 40.9204 112.409 40.9905 112.208 41.0293C112.007 41.0699 111.775 41.1031 111.509 41.129C110.831 41.2084 110.162 41.2914 109.502 41.3763C108.844 41.4631 108.252 41.6126 107.726 41.8231C107.2 42.0353 106.778 42.3436 106.458 42.746C106.139 43.1503 105.979 43.7078 105.979 44.4221C105.979 44.9372 106.068 45.3839 106.248 45.7605C106.429 46.137 106.676 46.449 106.988 46.6927C107.3 46.9382 107.666 47.1154 108.086 47.228C108.504 47.3406 108.954 47.396 109.434 47.396C109.939 47.396 110.376 47.3498 110.742 47.2575C111.106 47.1652 111.433 47.0323 111.719 46.8606C112.005 46.689 112.266 46.4748 112.498 46.2164C112.732 45.958 112.961 45.6645 113.187 45.334H113.228C113.228 45.598 113.245 45.8398 113.278 46.0577C113.312 46.2755 113.381 46.4638 113.488 46.6225C113.594 46.7813 113.743 46.9049 113.936 46.9899C114.13 47.0766 114.386 47.1191 114.706 47.1191C114.878 47.1191 115.022 47.1117 115.135 47.0988C115.246 47.0858 115.376 47.0674 115.523 47.0397V45.9875C115.403 46.041 115.271 46.0669 115.124 46.0669C114.631 46.0669 114.384 45.8158 114.384 45.3137V39.8793C114.384 39.1907 114.271 38.6333 114.044 38.2032C113.817 37.7731 113.524 37.4389 113.165 37.2008C112.806 36.9627 112.399 36.8021 111.948 36.7153C111.494 36.6286 111.041 36.5861 110.589 36.5861C109.989 36.5861 109.445 36.6526 108.952 36.7855C108.46 36.9184 108.03 37.1233 107.664 37.4002ZM112.626 41.8434C112.853 41.7769 113.005 41.6717 113.085 41.5259V41.5222H113.126V43.1484C113.126 43.6524 113.029 44.101 112.836 44.4978C112.643 44.8947 112.383 45.2325 112.058 45.5094C111.73 45.7881 111.348 45.9986 110.909 46.1444C110.47 46.2902 110.011 46.3622 109.532 46.3622C109.24 46.3622 108.952 46.3161 108.673 46.2238C108.393 46.1315 108.148 45.9967 107.934 45.8177C107.72 45.6386 107.551 45.4282 107.425 45.1827C107.298 44.9372 107.235 44.6566 107.235 44.3391C107.235 43.837 107.386 43.4512 107.685 43.1798C107.986 42.9103 108.367 42.7017 108.833 42.5559C109.3 42.4119 109.816 42.3012 110.381 42.2292C110.946 42.1572 111.496 42.0741 112.028 41.9818C112.201 41.956 112.399 41.9098 112.626 41.8434Z" fill="#151313"/>
</svg>
