<svg width="374" height="466" viewBox="0 0 374 466" fill="none" xmlns="http://www.w3.org/2000/svg">
<path opacity="0.5" d="M115.511 126.867C171.12 202.346 270.415 232.074 357.775 198.142C362.905 196.166 368.062 194.04 373.337 191.693C373.337 191.693 373.042 188.638 372.258 183.301C357.587 83.8118 273.758 9.13286 173.341 5.4926L22.0166 0L115.511 126.867Z" fill="#FFA400"/>
<path d="M287.329 232.602C287.253 231.915 286.339 231.534 285.73 231.686C284.968 231.915 284.74 232.602 284.816 233.289C286.034 240.54 284.055 247.943 280.4 254.278C278.572 257.56 276.288 260.537 273.699 263.284C272.404 264.658 271.034 265.956 269.587 267.177C268.14 268.398 266.618 269.543 265.171 270.688C263.724 271.909 262.353 273.206 261.364 274.885C260.221 276.717 259.765 278.778 259.688 280.839C259.536 283.052 259.841 285.266 259.993 287.479C260.145 289.845 260.374 292.211 260.526 294.577C261.287 303.965 262.201 313.353 263.191 322.664C264.181 332.052 265.323 341.44 266.541 350.828C266.694 351.972 266.846 353.117 266.998 354.262C267.074 354.949 267.531 355.56 268.293 355.56C268.902 355.56 269.663 354.949 269.587 354.262C268.369 344.874 267.227 335.486 266.161 326.099C265.095 316.635 264.181 307.17 263.42 297.706C263.039 293.051 262.582 288.395 262.353 283.739C262.201 281.678 262.201 279.541 262.963 277.48C263.572 275.801 264.79 274.428 266.085 273.206C267.455 271.909 268.978 270.84 270.425 269.695C271.871 268.474 273.318 267.177 274.689 265.879C277.354 263.132 279.79 260.155 281.846 256.873C285.806 250.462 288.242 242.906 287.709 235.35C287.709 234.358 287.481 233.442 287.329 232.45V232.602Z" fill="white"/>
<path d="M108.924 334.647C110.827 335.105 112.731 335.868 114.178 337.242C116.005 338.921 116.995 341.134 117.452 343.5C117.985 346.095 118.137 348.843 118.289 351.514C118.518 354.491 118.746 357.391 118.898 360.368C119.279 366.245 119.66 372.122 119.964 377.922C120.574 389.6 120.954 401.278 120.65 412.955C120.421 424.556 119.508 436.157 117.68 447.606C117.604 448.293 117.376 448.98 117.299 449.667L119.812 450.354C121.716 439.058 122.782 427.609 123.162 416.161C123.543 404.178 123.239 392.119 122.706 380.136C122.401 374.106 122.02 368.153 121.64 362.123C121.411 359.147 121.183 356.17 121.03 353.194C120.802 350.293 120.65 347.469 120.269 344.569C119.888 341.898 119.127 339.226 117.452 337.089C116.081 335.258 114.254 333.884 112.122 332.968C107.858 331.212 102.984 331.289 98.4919 331.823C97.3497 331.976 96.1314 332.128 94.9892 332.281C94.3039 332.357 93.9232 333.273 94.0755 333.884C94.3039 334.647 94.9892 334.876 95.6745 334.8C99.9386 334.113 104.583 333.578 108.847 334.571L108.924 334.647Z" fill="white"/>
<path d="M127.807 327.854C127.807 331.441 127.807 334.723 127.807 338.005C127.96 343.272 128.036 348.461 128.493 353.728C129.178 361.742 130.092 369.756 130.929 377.77C131.386 382.273 131.767 386.7 132.224 391.203C132.985 399.14 133.975 407.002 134.508 414.939C134.736 418.832 134.356 422.801 133.899 426.617C133.061 434.02 132.528 441.576 131.081 448.827C130.244 452.949 129.33 457.146 128.416 461.268L142.122 462.489C143.264 457.604 144.483 452.72 145.549 447.835C146.082 445.469 146.158 442.95 146.234 440.508C146.539 432.799 147.148 425.09 146.767 417.382C146.31 408.986 145.016 400.591 143.797 392.271C142.122 381.357 140.143 370.443 138.239 359.605C137.782 356.857 136.945 354.186 136.031 350.599C142.884 353.499 148.823 356.094 154.914 358.536C166.412 363.116 177.834 367.619 190.474 368C196.794 368.229 202.733 366.779 208.748 365.253C219.028 362.734 229.383 360.292 239.739 358.002C241.947 357.544 244.46 358.002 247.049 358.002C247.429 365.024 247.049 371.817 245.373 378.457C242.708 388.76 240.119 399.064 237.302 409.291C234.942 417.763 232.505 426.235 229.84 434.631C227.936 440.584 225.271 446.385 223.749 452.414C223.139 454.704 222.683 457.07 222.226 459.36L245.297 452.872C245.526 450.964 245.754 448.98 245.983 447.072C247.353 437.455 248.876 427.838 250.856 418.298C253.673 404.33 255.196 390.287 255.729 376.167C256.186 362.963 256.567 349.606 254.739 336.402C253.673 328.541 253.14 320.527 252.836 312.589C252.379 302.209 252.379 291.829 252.226 281.373C252.226 275.878 252.226 270.306 252.226 264.734C257.861 267.329 260.831 266.49 264.562 261.605C265.171 260.766 265.932 260.079 266.694 259.392C277.582 249.393 281.161 232.221 273.623 217.795C269.054 209.018 265.399 199.707 261.44 190.548C257.023 180.32 252.759 170.017 248.419 159.713C244.536 150.402 237.835 143.838 228.926 139.411C227.251 138.571 225.348 138.19 223.292 137.579C222.759 140.403 222.226 142.693 221.845 144.983C219.484 158.645 218.266 172.535 214.002 185.816C213.774 186.503 214.459 187.876 215.068 188.487C222.15 195.051 229.307 201.538 236.465 208.026C237.683 209.171 238.597 210.621 240.043 212.376C235.17 211.995 231.287 212.758 227.936 215.353C226.261 216.651 224.738 216.727 223.216 214.819C222.15 213.369 220.703 212.071 219.408 210.85C215.982 207.568 212.479 204.286 209.053 201.004C200.905 214.971 192.073 227.794 180.956 239.013C180.575 239.471 180.042 239.853 179.433 240.006C174.483 241.456 169.61 242.83 164.737 244.28C170.6 235.35 176.692 226.573 182.25 217.337C187.809 208.179 192.682 198.638 198.012 189.021C192.986 185.434 188.57 182.381 184.306 179.252C172.884 171.009 160.549 164.445 147.3 159.56C142.198 157.729 137.325 157.958 132.376 159.866C123.162 163.453 115.929 169.177 110.446 177.573C105.954 184.442 102.604 191.54 102.299 199.707C102.071 205.355 102.299 211.079 102.756 216.651C104.203 232.831 105.802 249.012 107.629 265.116C108.314 271.069 109.609 276.946 111.208 282.747C113.264 290.456 116.614 292.822 124.533 293.279C127.046 293.432 128.34 294.959 128.264 297.859C128.112 301.293 128.036 304.652 127.807 308.086C127.807 308.773 127.503 309.384 127.427 309.765C122.401 309.46 117.604 309.155 112.883 308.926C108.01 308.697 103.213 307.628 99.4056 304.728C92.8572 299.691 86.4611 294.348 80.3696 288.776C74.9634 283.892 71.3846 277.938 70.014 270.382C67.1206 254.889 63.4657 239.471 60.3438 223.978C58.9732 217.261 57.9833 210.392 57.0696 203.599C56.1559 196.959 59.1255 192.227 64.8363 189.098C72.7552 184.747 80.6742 180.473 88.6693 176.275C99.4056 170.627 109.609 164.14 119.279 156.736C124.761 152.539 130.015 147.807 137.021 146.356C139.153 145.898 141.513 145.364 143.493 145.975C158.493 150.554 172.199 157.805 185.22 166.353C190.626 169.94 195.88 173.757 201.134 177.344C206.692 163.606 207.987 149.104 208.977 134.603C209.129 132.618 208.291 131.931 206.54 131.473C205.017 131.092 203.037 130.328 202.504 129.184C201.362 126.741 200.677 123.994 200.449 121.322C200.144 118.346 200.601 115.522 201.362 112.774C221.845 101.707 233.267 84.6105 236.541 71.4829C240.5 55.6839 230.525 38.5874 215.525 34.4659C207.758 32.3288 199.916 31.7946 191.692 32.4815C187.504 27.5204 183.697 22.7884 178.976 20.346C170.219 15.8429 159.483 12.561 139.305 25.6887C119.888 38.2821 118.365 43.3194 115.32 56.6761C107.172 61.2555 103.67 64.8427 101.081 67.8193C94.9892 74.6121 86.918 84.6105 85.6235 89.4189C79.0752 113.461 88.0602 123.154 109.609 128.726C120.65 131.55 134.66 130.939 148.29 128.726C148.518 130.481 147.985 132.313 146.919 134.297C145.092 137.503 143.264 141.243 138.848 141.395C132.985 141.701 127.807 143.761 122.629 146.28C115.32 149.867 108.01 153.302 100.624 156.66C88.9739 162.003 77.0954 166.964 65.6738 172.688C52.6532 179.176 44.8104 189.403 45.648 204.82C45.8003 208.026 43.5921 209.323 41.0794 210.239C37.8813 211.461 35.6732 213.75 34.7594 216.879C33.998 219.551 33.6173 222.604 33.998 225.351C35.597 237.258 37.3483 249.164 39.5565 260.918C41.0794 269.161 43.1353 277.404 47.3232 284.808C49.2268 288.166 51.5111 290.837 55.5467 291.371C59.2778 291.829 63.0088 292.135 66.7399 292.669C67.8059 292.822 69.0242 293.356 69.6333 294.119C74.6588 299.996 79.6082 305.949 82.8062 313.2C84.8621 317.779 88.4409 321.214 93.3902 322.282C98.035 323.351 102.832 323.58 107.553 324.267C114.33 325.335 121.107 326.48 127.883 327.549L127.807 327.854ZM218.495 228.939C223.216 226.191 227.784 223.214 232.277 220.161C234.333 218.788 235.855 219.169 237.378 220.696C237.911 221.23 238.444 221.688 238.825 222.298C241.185 225.809 244.079 227.412 248.267 225.428C248.571 225.275 249.028 225.428 249.561 225.504C249.561 227.031 249.333 228.557 249.561 229.931C249.714 230.77 250.475 231.839 251.236 232.221C253.369 233.365 253.216 235.121 251.998 236.495C250.323 238.479 251.465 239.7 252.455 241.303C252.988 242.219 253.749 243.669 253.445 244.28C252.683 245.654 251.389 247.256 250.094 247.562C247.81 248.02 246.059 248.172 246.516 251.149C246.592 251.759 246.135 252.599 245.678 253.057C242.251 256.034 238.368 258.018 233.8 258.476C232.353 258.629 228.393 254.125 227.936 252.446C227.327 250.157 226.794 247.638 225.652 245.577C223.216 241.379 220.55 237.334 217.657 233.518C215.982 231.305 216.363 230.389 218.495 229.091V228.939ZM196.108 141.93C192.149 145.975 187.428 148.265 181.641 148.493C171.285 148.875 161.691 146.433 152.782 141.243C152.326 141.014 151.945 140.632 151.716 140.479C153.468 136.816 155.143 133.229 157.047 129.336C167.935 135.442 179.281 136.358 190.321 129.184C192.453 132.542 194.585 135.747 196.413 139.106C196.794 139.793 196.641 141.395 196.032 141.93H196.108ZM123.162 52.7836C126.894 39.2743 132.071 35.0001 147.757 27.7494C161.234 21.5672 166.26 22.7884 175.549 25.9176C178.748 26.9862 182.098 29.5812 185.753 33.2447C175.854 34.4659 167.021 37.0609 155.219 40.8771C140.904 45.4565 130.701 49.4253 123.162 52.9362C123.162 52.9362 123.162 52.8599 123.162 52.7836ZM125.295 121.628C64.3033 110.637 99.4056 78.8863 111.817 68.3536C123.619 58.3552 145.168 50.6465 163.899 45.0749C186.819 38.2057 212.251 41.1824 219.256 46.754C240.576 63.8505 229.079 84.7632 206.312 100.257C208.444 95.0669 210.043 89.7242 209.433 83.9236C209.205 82.0919 208.52 80.1074 207.454 78.6573C205.398 75.8333 198.621 73.9252 196.717 64.7664C196.184 62.0951 195.042 60.0343 193.519 58.5842C187.123 52.5546 161.234 54.3864 142.731 67.6667C135.498 72.8567 130.396 78.6573 130.396 78.6573C130.396 78.6573 131.158 95.3722 130.853 96.4407C129.33 102.318 131.386 107.431 134.66 112.011C137.325 115.751 140.371 119.338 143.797 122.391C137.325 122.849 131.081 122.696 125.371 121.704L125.295 121.628ZM142.275 105.142C138.848 100.028 137.706 78.9626 137.706 78.9626C137.706 78.9626 142.884 72.704 148.975 69.5748C163.747 62.1714 188.57 55.7602 193.139 72.3224C193.367 73.0093 196.641 79.6495 197.25 80.1074C202.352 83.6947 202.124 88.8847 199.611 94.3037C197.707 98.2725 197.174 102.928 194.966 106.744C191.54 112.621 187.504 118.193 183.24 123.459C181.946 125.062 179.204 125.825 176.996 126.131C170.143 127.123 164.052 124.375 157.884 122.009C149.813 118.956 146.539 111.476 142.351 105.142H142.275Z" fill="white"/>
<path d="M203.19 391.661C203.037 392.729 202.504 393.721 202.124 394.79C199.383 402.957 196.794 411.2 193.9 419.29C190.778 427.914 187.58 436.539 183.925 445.011C181.032 451.804 177.148 458.215 174.179 465.008L188.113 466C190.169 459.284 192.682 452.567 193.672 445.698C196.032 429.975 200.982 415.016 204.636 399.675C205.474 396.24 206.312 392.729 207.225 389.218C204.484 388.837 203.418 389.6 203.114 391.661H203.19Z" fill="white"/>
<path opacity="0.22" d="M23.9147 148.641C-3.17687 178.047 -7.67157 222.128 13.4717 256.105C14.7054 258.099 16.0087 260.093 17.4086 262.125C17.4086 262.125 18.6637 261.759 20.8252 260.999C61.2131 246.862 85.7194 205.669 79.2294 163.204L69.4462 99.207L23.9093 148.641H23.9147Z" fill="#FFA400"/>
</svg>
