<svg width="170" height="119" viewBox="0 0 170 119" fill="none" xmlns="http://www.w3.org/2000/svg">
<path fill-rule="evenodd" clip-rule="evenodd" d="M16.081 73.6432C14.1134 84.9371 13.702 91.4664 16.081 104C49.8102 102.103 41.5192 98.3783 127.444 104V73.6432C66.3922 70.2703 45.4763 75.8918 16.081 73.6432ZM32.4745 79.2648L31.344 96.6918C69.7563 94.6546 79.3939 95.5675 115.573 96.6918L117.269 77.5783C81.5245 79.3157 73.0208 79.4693 32.4745 79.2648Z" fill="white"/>
<path fill-rule="evenodd" clip-rule="evenodd" d="M37.5622 39.9135V70.2702C71.2913 68.373 128.801 65.7167 150.056 70.2702L153.447 39.9135C113.198 43.7081 64.5078 41.4946 37.5622 39.9135ZM56.7822 47.977V62.2067C95.1946 60.1695 101.468 59.6131 139.88 62.2067L141.011 47.977H56.7822Z" fill="white"/>
<path fill-rule="evenodd" clip-rule="evenodd" d="M150.056 1.68649V33.1676C115.573 29.2324 72.6104 33.1676 20.6034 34.854C19.555 22.6138 20.09 14.8528 22.2993 0C63.5551 0.944522 124.186 0.126401 150.056 1.68649ZM133.097 8.99459L135.923 24.8054C135.923 24.8054 70.9145 24.8054 32.4745 24.8054V6.74594C74.392 4.30128 97.4113 6.46394 133.097 8.99459Z" fill="white"/>
<path fill-rule="evenodd" clip-rule="evenodd" d="M154.983 80.526C149.143 86.3609 143.947 91.5521 143.947 102H141.947C141.947 90.6527 147.831 84.7984 153.751 78.9086C155.134 77.5325 156.519 76.1545 157.831 74.7041C161.326 70.8406 164.436 66.3898 166.024 59.9935C167.615 53.5812 167.7 45.1229 164.973 33.2234L166.922 32.7766C169.695 44.8771 169.654 53.6688 167.965 60.4753C166.271 67.2978 162.943 72.0344 159.314 76.0459C157.876 77.6352 156.41 79.0998 154.983 80.526ZM6.0224 62.6199C6.0224 62.6199 6.02277 62.619 6.94736 63C7.87195 63.381 7.87211 63.3806 7.87211 63.3806L7.87127 63.3826L7.86718 63.3927L7.84906 63.4378C7.83266 63.4789 7.80775 63.542 7.7751 63.6266C7.70982 63.7959 7.6136 64.0513 7.49268 64.3888C7.25082 65.0641 6.9102 66.0681 6.52049 67.37C5.74097 69.9743 4.76564 73.769 3.99126 78.5083C2.47618 87.7809 1.73248 100.656 4.71873 115.303C18.3647 112.323 30.2379 112.588 38.7645 113.619C43.1315 114.148 46.6231 114.878 49.0289 115.478C50.2318 115.778 51.1637 116.046 51.7981 116.239C52.1154 116.336 52.3583 116.415 52.5236 116.47C52.6063 116.497 52.6695 116.519 52.713 116.534L52.7633 116.551L52.7772 116.556L52.7826 116.558C52.7826 116.558 52.7835 116.558 52.4474 117.5C52.1112 118.442 52.1116 118.442 52.1116 118.442L52.11 118.441L52.1013 118.438L52.0616 118.425C52.0253 118.412 51.9692 118.393 51.8939 118.368C51.7433 118.318 51.5155 118.244 51.2139 118.152C50.6107 117.968 49.7123 117.71 48.5449 117.419C46.2098 116.836 42.7999 116.122 38.5242 115.605C29.9718 114.57 17.9655 114.322 4.17018 117.475L3.18193 117.701L2.96956 116.709C-0.319513 101.358 0.437787 87.8535 2.01743 78.1858C2.80739 73.3512 3.80357 69.4723 4.60448 66.7965C5.00497 65.4585 5.35679 64.4208 5.60982 63.7144C5.73634 63.3612 5.83819 63.0907 5.90909 62.9069C5.94454 62.815 5.97227 62.7447 5.99147 62.6966L6.0138 62.641L6.01999 62.6258L6.0224 62.6199Z" fill="#FFA400"/>
</svg>
