<svg width="63" height="80" viewBox="0 0 63 80" fill="none" xmlns="http://www.w3.org/2000/svg">
<path fill-rule="evenodd" clip-rule="evenodd" d="M63 0H0V80H63V0ZM48.7762 27.674C48.7708 27.2863 48.9971 27.2586 49.1372 27.7294V27.7239C51.3951 35.361 47.4936 49.2508 44.3789 51.3609C41.345 53.41 37.0663 53.9804 38.4189 48.2761C40.4774 38.3129 33.2025 40.7165 36.2041 50.9344C36.2584 51.1932 36.4095 51.4949 36.5694 51.814C37.1381 52.9495 37.8174 54.3056 34.6413 54.7336C28.061 55.2204 25.9797 50.3523 23.5522 44.6745C23.3835 44.2799 23.2129 43.8809 23.0392 43.48C22.9045 43.0646 22.6674 43.1588 22.6674 43.3637C22.6059 44.5254 22.9371 45.6085 23.2204 46.5349C23.7813 48.3688 24.1543 49.5886 20.9214 49.5886C18.2539 49.3782 16.3625 48.8299 14.1423 41.8186C13.6081 39.9569 13.6523 38.9818 13.6948 38.0468C13.729 37.2935 13.762 36.5661 13.4902 35.4219C12.2562 30.144 12.9406 22.2909 20.3933 18.248C21.0992 17.8216 21.1747 18.0597 20.9807 18.2314C12.3748 24.3456 15.3602 35.433 20.8837 39.0716C21.0723 39.1879 21.331 39.199 21.2178 38.8279C20.4011 36.1532 20.5071 35.3006 20.6689 34.0005C20.7643 33.2332 20.8792 32.31 20.8352 30.7643C20.7112 26.8377 21.6166 22.3186 26.9192 18.6468C25.0277 16.2764 26.0623 14.2716 27.5335 13.0255C28.8376 11.9179 31.6829 11.0096 33.084 14.2051C34.1617 16.6641 33.4827 17.2124 32.2325 17.6997C31.7044 17.9046 30.7398 18.5028 30.1686 19.0455C29.0639 20.0867 28.6813 19.9925 27.6574 19.3556C22.4357 26.1122 24.3217 34.4804 30.244 35.9924C30.8476 36.1474 31.3272 36.4853 31.6397 37.3437C32.4612 39.0322 33.1879 38.863 34.0353 38.6657C34.6721 38.5175 35.3771 38.3533 36.2418 38.9498C37.9512 39.7249 38.4447 39.0829 38.9195 38.4652C39.2215 38.0723 39.5159 37.6892 40.111 37.6871C46.1033 37.6538 48.9109 32.4922 48.7762 27.674ZM33.0085 39.2433C33.1163 41.0155 36.6136 41.6413 37.2872 39.8137C37.3011 39.7328 37.2354 39.7378 37.1961 39.7408C37.1897 39.7413 37.184 39.7417 37.1794 39.7417C36.1771 39.7473 34.7006 39.57 33.1432 39.199C33.1055 39.1879 33.0085 39.1658 33.0085 39.2433ZM42.9886 16.0715C44.5352 13.4298 47.2242 13.9393 48.5768 15.2574C50.0479 16.6918 50.285 18.3422 49.7138 19.5052C48.9432 21.0725 46.9655 22.961 45.6776 21.1279C45.1118 20.3193 43.8993 19.3556 43.2472 19.0677C42.2395 18.6357 42.0402 17.6887 42.9886 16.0715ZM34.1024 29.6345C33.7463 29.9401 33.4222 30.3979 33.0867 30.8718C32.2545 32.0473 31.352 33.3222 29.7159 32.6196C27.8676 31.6504 27.6898 27.8845 30.8799 26.1399C33.1055 25.0877 34.2318 27.17 34.2425 29.3798C34.2425 29.4573 34.1725 29.5791 34.1024 29.6345ZM39.6074 31.9849C39.3413 31.3278 39.0831 30.6903 38.7314 30.288H38.7368C38.656 30.1994 38.6614 30.0444 38.7153 29.8948C39.4158 27.9509 40.4774 26.367 42.412 27.5466C44.7938 29.0253 44.8154 33.1236 43.0263 34.0928C40.9225 35.2324 40.2424 33.5529 39.6074 31.9849ZM25.1893 59.1309C25.3025 58.8263 25.5881 58.6104 25.9222 58.6104L25.9438 58.5937C26.3803 58.5937 26.7359 58.9537 26.7359 59.4023C26.7359 59.5297 26.709 59.646 26.6605 59.7512L23.3518 68.4074C23.2548 68.7452 22.9584 68.9945 22.5919 68.9945C22.2255 68.9945 21.9183 68.7397 21.8321 68.3908L20.1885 63.3621L20.07 62.9191L19.9299 63.3677L17.9791 68.4406C17.8767 68.7619 17.5965 69 17.2301 69C16.8636 69 16.5565 68.7452 16.4702 68.3963L13.6735 59.8509C13.6303 59.718 13.5872 59.5574 13.5872 59.4411C13.5872 59.0091 13.916 58.6602 14.3309 58.6325H16.1954C16.5349 58.6325 16.8205 58.8596 16.9337 59.1697V59.1808C16.9391 59.1919 16.9445 59.2196 16.9445 59.2196L18.0977 62.9966L18.2108 63.4397L18.3563 63.0021L19.267 60.6429L19.0192 59.8564C18.976 59.7235 18.9329 59.5629 18.9329 59.4466C18.9329 59.0146 19.2617 58.6657 19.6766 58.638H21.5411C21.8806 58.638 22.1662 58.8651 22.2794 59.1752V59.1863C22.2848 59.1974 22.2902 59.2251 22.2902 59.2251L23.4434 63.0021L23.5619 63.4507L23.7074 63.0077L25.1893 59.1309ZM39.0817 59.1309C39.1949 58.8263 39.4805 58.6104 39.8146 58.6104L39.8415 58.5937C40.278 58.5937 40.6283 58.9537 40.6283 59.4023C40.6283 59.5297 40.6013 59.646 40.5528 59.7512L37.2441 68.4074C37.1471 68.7452 36.8507 68.9945 36.4843 68.9945C36.1179 68.9945 35.8107 68.7397 35.7245 68.3908L34.0809 63.3621L33.9623 62.9191L33.8222 63.3677L31.8715 68.4406C31.7691 68.7619 31.4889 69 31.1224 69C30.756 69 30.4488 68.7452 30.3626 68.3963L27.5658 59.8509C27.5227 59.718 27.4796 59.5574 27.4796 59.4411C27.4796 59.0091 27.8083 58.6602 28.2232 58.6325H30.0878C30.4273 58.6325 30.7129 58.8596 30.826 59.1697V59.1808C30.8314 59.1919 30.8368 59.2196 30.8368 59.2196L31.99 62.9966L32.1032 63.4397L32.2487 63.0021L33.1648 60.6429L32.9169 59.8564C32.8738 59.7235 32.8307 59.5629 32.8307 59.4466C32.8307 59.0146 33.1594 58.6657 33.5743 58.638H35.4389C35.7784 58.638 36.064 58.8651 36.1771 59.1752V59.1863C36.1825 59.1974 36.1879 59.2251 36.1879 59.2251L37.3411 63.0021L37.4543 63.4507L37.5998 63.0077L39.0817 59.1309ZM48.8408 58.627H42.3258C41.9539 58.627 41.6468 58.9371 41.6468 59.3248V68.2191C41.6629 68.6234 41.9863 68.9446 42.3796 68.9446H44.2226C44.6214 68.9446 44.9393 68.6068 44.9447 68.2025V64.0433H47.6014C47.9894 64.0378 48.302 63.711 48.302 63.3123C48.302 62.9135 47.9786 62.5757 47.5852 62.5757H44.9447V60.2054H48.8732C49.2827 60.1887 49.606 59.8454 49.606 59.4189C49.606 58.9925 49.2665 58.6325 48.8408 58.6325V58.627ZM37.2064 35.4607C38.1387 35.7487 38.4135 36.9228 37.1794 37.0502L37.1848 37.0446C36.2429 37.1516 35.8367 37.5316 35.6005 37.7524C35.372 37.9662 35.3029 38.0309 35.0616 37.5541C34.5715 36.8993 34.1883 36.7713 33.6607 36.5952L33.5829 36.5691L33.4989 36.5407C32.6744 36.3302 32.6313 35.0896 34.2156 35.0509C35.1155 35.0343 36.3711 35.2004 37.2064 35.4607ZM21.6812 52.1916C21.6812 52.9282 21.0938 53.5318 20.3771 53.5318C19.6604 53.5318 19.073 52.9337 19.073 52.1916C19.073 51.4495 19.655 50.8569 20.3771 50.8569C21.0992 50.8569 21.6812 51.455 21.6812 52.1916ZM20.3771 50.591C19.5149 50.591 18.8198 51.311 18.8198 52.1916C18.8198 53.0722 19.5149 53.7921 20.3771 53.7921C21.2393 53.7921 21.9345 53.0777 21.9345 52.1916C21.9345 51.3055 21.234 50.591 20.3771 50.591ZM20.4256 52.7731C20.6358 52.7731 20.7921 52.6346 20.8244 52.4408L20.8298 52.4463H21.0615C20.9968 52.7897 20.7436 53.0057 20.431 53.0057C19.973 53.0057 19.6766 52.6623 19.6766 52.1971C19.6766 51.7319 19.9568 51.3941 20.4149 51.3941C20.7382 51.3941 21.0022 51.5824 21.0507 51.9368H20.8244C20.7813 51.7485 20.625 51.6212 20.4149 51.6212C20.0969 51.6212 19.9299 51.8814 19.9299 52.1916C19.9299 52.5017 20.1185 52.7731 20.4256 52.7731ZM49.0995 56.0185C49.0995 56.7606 48.5121 57.3587 47.7954 57.3587C47.0787 57.3587 46.4913 56.7606 46.4913 56.0185C46.4913 55.2764 47.0733 54.6782 47.7954 54.6782C48.5175 54.6782 49.0995 55.2764 49.0995 56.0185ZM47.7954 54.4179C46.9332 54.4179 46.238 55.1324 46.238 56.0185C46.238 56.9046 46.9332 57.619 47.7954 57.619C48.6576 57.619 49.3528 56.9046 49.3528 56.0185C49.3528 55.1324 48.6576 54.4179 47.7954 54.4179ZM47.7846 56.1237H47.526V56.7772H47.305V55.2653H47.8655C48.2103 55.2653 48.3828 55.3982 48.3828 55.6973C48.3828 55.9686 48.2157 56.0849 48.0002 56.1126L48.4205 56.7772H48.1726L47.7846 56.1237ZM47.526 55.4591V55.9299H47.7954C47.984 55.9299 48.1511 55.9133 48.1511 55.6806C48.1511 55.4979 47.984 55.4591 47.8277 55.4591H47.526Z" fill="white"/>
</svg>
