<svg width="1000" height="1000" viewBox="0 0 1000 1000" fill="none" xmlns="http://www.w3.org/2000/svg">
<g clip-path="url(#clip0_1642_3272)">
<path fill-rule="evenodd" clip-rule="evenodd" d="M750 625C750 832.107 582.107 1000 375 1000C167.893 1000 0 832.107 0 625C0 417.893 167.893 250 375 250C582.107 250 750 417.893 750 625ZM375 425C348.736 425 322.728 430.173 298.463 440.224C274.198 450.275 252.15 465.007 233.579 483.579C215.007 502.15 200.275 524.198 190.224 548.463C180.173 572.728 175 598.736 175 625C175 645.711 158.211 662.5 137.5 662.5C116.789 662.5 100 645.711 100 625C100 588.887 107.113 553.127 120.933 519.762C134.753 486.398 155.01 456.082 180.546 430.546C206.082 405.01 236.398 384.753 269.762 370.933C303.127 357.113 338.886 350 375 350C395.711 350 412.5 366.789 412.5 387.5C412.5 408.211 395.711 425 375 425ZM548.205 525C565.759 555.404 575 589.893 575 625C575 645.711 591.789 662.5 612.5 662.5C633.211 662.5 650 645.711 650 625C650 576.727 637.293 529.305 613.157 487.5C602.802 469.564 579.867 463.419 561.931 473.774C543.995 484.129 537.85 507.064 548.205 525Z" fill="#653024"/>
<path fill-rule="evenodd" clip-rule="evenodd" d="M798.012 583.624C915.568 543.007 1000 431.364 1000 300C1000 134.315 865.685 0 700 0C568.636 0 456.993 84.4316 416.376 201.988C450.654 205.3 483.741 212.684 515.147 223.649L515.224 223.463C525.275 199.198 540.007 177.15 558.579 158.579C577.15 140.007 599.198 125.275 623.463 115.224C647.728 105.173 673.736 100 700 100C720.711 100 737.5 116.789 737.5 137.5C737.5 158.211 720.711 175 700 175C683.585 175 667.33 178.233 652.165 184.515C636.999 190.797 623.219 200.004 611.612 211.612C600.004 223.219 590.797 236.999 584.515 252.165C584.181 252.971 583.855 253.781 583.538 254.594C701.404 321.095 784.351 442.228 798.012 583.624ZM825 300C825 278.058 819.224 256.502 808.253 237.5C797.898 219.564 804.043 196.629 821.979 186.274C839.915 175.919 862.85 182.064 873.205 200C890.759 230.404 900 264.893 900 300C900 320.711 883.211 337.5 862.5 337.5C841.789 337.5 825 320.711 825 300Z" fill="#653024"/>
</g>
<defs>
<clipPath id="clip0_1642_3272">
<rect width="1000" height="1000" fill="white"/>
</clipPath>
</defs>
</svg>
