<svg width="1000" height="1000" viewBox="0 0 1000 1000" fill="none" xmlns="http://www.w3.org/2000/svg">
<g clip-path="url(#clip0_1642_3288)">
<path fill-rule="evenodd" clip-rule="evenodd" d="M500 1000C776.142 1000 1000 776.142 1000 500C1000 435.441 987.765 373.74 965.486 317.089C943.48 261.129 933.551 199.348 952.566 142.303C972.11 83.6707 916.329 27.8902 857.697 47.4342C800.652 66.4493 738.871 56.5204 682.912 34.514C626.26 12.2355 564.559 0 500 0C223.858 0 0 223.858 0 500C0 564.559 12.2353 626.26 34.5135 682.91C56.5197 738.87 66.4479 800.652 47.4329 857.697C27.8889 916.329 83.6694 972.11 142.301 952.566C199.347 933.551 261.129 943.479 317.088 965.486C373.739 987.764 435.441 1000 500 1000ZM500 900C720.914 900 900 720.914 900 500C900 279.086 720.914 100 500 100C279.086 100 100 279.086 100 500C100 720.914 279.086 900 500 900Z" fill="#653024"/>
<path d="M307.407 360.434C275.691 328.718 222.527 331.796 204.813 373.004C170.049 453.878 170.049 546.121 204.813 626.995C222.527 668.203 275.691 671.281 307.407 639.565L393.94 553.032C423.229 523.743 423.229 476.256 393.94 446.966L307.407 360.434Z" fill="#653024"/>
<path d="M360.44 692.598C328.724 724.314 331.802 777.478 373.01 795.192C453.884 829.956 546.127 829.956 627.001 795.192C668.209 777.478 671.287 724.314 639.571 692.598L553.039 606.065C523.749 576.776 476.262 576.776 446.973 606.066L360.44 692.598Z" fill="#653024"/>
<path d="M692.604 639.565C724.32 671.281 777.484 668.203 795.198 626.995C829.962 546.121 829.962 453.878 795.198 373.004C777.484 331.796 724.32 328.718 692.604 360.434L606.072 446.967C576.782 476.256 576.782 523.743 606.072 553.032L692.604 639.565Z" fill="#653024"/>
</g>
<defs>
<clipPath id="clip0_1642_3288">
<rect width="1000" height="1000" fill="white"/>
</clipPath>
</defs>
</svg>
