<svg width="1000" height="1000" viewBox="0 0 1000 1000" fill="none" xmlns="http://www.w3.org/2000/svg">
<g clip-path="url(#clip0_1642_3310)">
<path fill-rule="evenodd" clip-rule="evenodd" d="M714.693 957.253L966.561 686.011C987.649 663.3 997.016 632.096 991.921 601.526L968.528 461.168C956.747 390.481 915.198 328.248 854.429 290.268L771.883 238.677C757.529 229.706 745.688 217.238 737.467 202.441L667.204 75.966C642.999 32.3981 590.408 13.3042 543.89 31.1957L375.677 95.8928C326.487 114.812 284.534 148.793 255.811 192.982L11.7709 568.429C-10.4505 602.616 -9.69041 646.87 13.6921 680.274L95.5183 797.169C130.615 847.307 182.884 882.829 242.421 897.005L618.252 986.488C653.319 994.837 690.165 983.668 714.693 957.253ZM610.57 161.856C617.119 142.208 606.501 120.971 586.853 114.422C567.205 107.873 545.968 118.491 539.419 138.139L514.419 213.139C507.869 232.787 518.488 254.024 538.136 260.573C557.783 267.122 579.02 256.504 585.57 236.856L610.57 161.856ZM485.57 186.856C492.119 167.208 481.501 145.971 461.853 139.422C442.205 132.873 420.968 143.491 414.419 163.139L364.419 313.139C357.869 332.787 368.488 354.024 388.136 360.573C407.783 367.122 429.02 356.504 435.57 336.856L485.57 186.856ZM311.984 368.833C308.579 348.404 289.258 334.603 268.829 338.008C248.4 341.413 234.6 360.734 238.004 381.162L258.71 505.398L106.389 592.438C88.4071 602.714 82.1597 625.621 92.4351 643.603C102.71 661.585 125.617 667.832 143.599 657.557L299.801 568.299L565.083 723.047L587.784 904.649C590.353 925.2 609.095 939.777 629.645 937.208C650.196 934.639 664.773 915.897 662.205 895.346L639.344 712.461L877.742 450.223C891.673 434.898 890.544 411.181 875.219 397.25C859.895 383.318 836.178 384.448 822.246 399.772L592.667 652.309L334.091 501.473L311.984 368.833Z" fill="#653024"/>
</g>
<defs>
<clipPath id="clip0_1642_3310">
<rect width="1000" height="1000" fill="white"/>
</clipPath>
</defs>
</svg>
