<svg width="1000" height="1000" viewBox="0 0 1000 1000" fill="none" xmlns="http://www.w3.org/2000/svg">
<path d="M570.315 6.50481C573.964 7.12218 577.572 7.76959 581.131 8.44081C591.628 10.4208 601.689 12.6076 611.068 14.8386C617.691 16.4141 623.974 18.0116 629.828 19.574C649.224 24.7499 652.441 48.4734 634.844 58.1363C629.329 61.165 623.374 64.2945 617.062 67.4152C608.306 71.7441 598.865 76.0561 588.96 80.0591C585.36 81.5137 581.7 82.9273 577.989 84.2862C553.19 93.3673 526.133 100 500.003 100C473.873 100 446.816 93.3674 422.016 84.2863C418.305 82.9274 414.645 81.5136 411.046 80.0591C401.141 76.0561 391.699 71.7441 382.944 67.4152C376.632 64.2945 370.676 61.165 365.161 58.1362C347.565 48.4734 350.781 24.7499 370.177 19.574C376.032 18.0116 382.314 16.4141 388.937 14.8386C398.316 12.6076 408.378 10.4208 418.875 8.4408C422.433 7.76958 426.042 7.12218 429.69 6.50481C452.339 2.67287 476.544 0 500.003 0C523.461 0 547.667 2.67287 570.315 6.50481Z" fill="#653024"/>
<path d="M729.42 19.2473C724.51 17.7285 719.888 22.25 720.562 27.3452C725.697 66.1946 706.506 104.348 670.945 123.876C634.075 144.123 568.356 175 500.003 175C431.65 175 365.931 144.123 329.06 123.876C293.499 104.348 274.309 66.1947 279.443 27.3452C280.117 22.2504 275.496 17.7292 270.586 19.2478C241.351 28.2907 215.549 41.5821 193.587 61.1179C72.6274 168.714 50.0027 342.934 50.0027 500C50.0027 576.409 66.5815 658.265 100.292 733.164C105.739 745.266 119.987 750.365 132.15 745.057L215.22 708.808C230.256 702.247 234.993 683.226 225.498 669.848C202.354 637.237 182.315 602.257 165.777 565.325C157.313 546.423 165.775 524.239 184.677 515.775C203.579 507.311 225.764 515.772 234.228 534.675C252.413 575.285 275.42 613.208 302.567 647.723C309.818 656.943 322.685 659.417 332.869 653.596C369.949 632.406 404.687 607.408 436.525 579.028C443.169 573.106 443.693 562.985 438.071 556.086L370.931 473.688C357.849 457.632 360.259 434.011 376.315 420.929C392.371 407.846 415.992 410.257 429.074 426.312L496.213 508.71C498.172 511.114 501.834 511.114 503.792 508.71L570.931 426.312C584.014 410.257 607.635 407.846 623.69 420.929C639.746 434.011 642.156 457.632 629.074 473.688L561.935 556.086C556.313 562.985 556.836 573.105 563.48 579.028C595.318 607.408 630.056 632.406 667.136 653.596C677.321 659.417 690.187 656.943 697.439 647.723C724.585 613.208 747.593 575.285 765.777 534.675C774.241 515.772 796.426 507.311 815.328 515.775C834.23 524.239 842.692 546.423 834.228 565.325C817.691 602.257 797.652 637.237 774.507 669.848C765.013 683.226 769.749 702.247 784.785 708.808L867.855 745.057C880.019 750.365 894.267 745.266 899.713 733.164C933.424 658.265 950.003 576.409 950.003 500C950.003 342.934 927.377 168.715 806.419 61.1179C784.456 41.5816 758.655 28.2901 729.42 19.2473Z" fill="#653024"/>
<path d="M271.563 921.234C263.391 925.418 253.544 924.836 246.172 919.364C216.692 897.483 190.604 871.97 167.861 843.866C157.894 831.55 162.958 813.443 177.48 807.106L282.588 761.241C291.9 757.178 302.713 759.19 310.184 766.075C331.976 786.159 355.246 804.691 379.832 821.498C396.172 832.669 395.419 857.823 377.8 866.843L271.563 921.234Z" fill="#653024"/>
<path d="M480.778 794.436C451.024 779.202 422.926 761.33 396.775 741.124C383.209 730.642 385.293 710.009 399.731 700.763C428.887 682.091 456.59 661.244 482.602 638.402C492.53 629.683 507.475 629.683 517.404 638.402C543.416 661.244 571.118 682.091 600.275 700.763C614.712 710.009 616.796 730.642 603.23 741.124C577.079 761.33 548.982 779.202 519.227 794.436L511.396 798.446C504.242 802.108 495.763 802.108 488.61 798.446L480.778 794.436Z" fill="#653024"/>
<path d="M832.144 843.866C842.111 831.55 837.047 813.443 822.525 807.106L717.417 761.241C708.105 757.178 697.292 759.19 689.821 766.075C668.029 786.159 644.759 804.691 620.174 821.498C603.834 832.669 604.587 857.823 622.205 866.843L728.442 921.234C736.615 925.418 746.461 924.836 753.833 919.364C783.313 897.483 809.401 871.97 832.144 843.866Z" fill="#653024"/>
<path d="M500.003 1000C461.493 1000 425.531 995.628 392.087 987.532C371.142 982.462 369.402 955.401 388.584 945.58L488.61 894.369C495.763 890.707 504.242 890.707 511.396 894.369L611.421 945.58C630.603 955.401 628.863 982.462 607.918 987.532C574.474 995.628 538.512 1000 500.003 1000Z" fill="#653024"/>
</svg>
