<svg width="1000" height="1000" viewBox="0 0 1000 1000" fill="none" xmlns="http://www.w3.org/2000/svg">
<g clip-path="url(#clip0_1642_3408)">
<path fill-rule="evenodd" clip-rule="evenodd" d="M943.316 496.349C953.598 470.581 962.579 444.153 970.179 417.145C989.607 348.096 1000 275.261 1000 200V100C1000 44.7715 955.228 0 900 0H800C724.739 0 651.904 10.3928 582.854 29.8215C555.847 37.4205 529.419 46.4018 503.651 56.6843C447.317 79.1636 394.138 107.861 344.963 141.93C324.195 156.317 304.142 171.661 284.867 187.9C240.788 225.035 200.776 266.843 165.596 312.563C150.125 332.668 135.588 353.53 122.051 375.084C96.5798 415.637 74.6467 458.637 56.6843 503.651C46.4018 529.419 37.4205 555.847 29.8215 582.854C10.3928 651.904 0 724.739 0 800V900C0 955.228 44.7715 1000 100 1000H200C275.261 1000 348.096 989.607 417.145 970.179C444.153 962.579 470.581 953.598 496.349 943.316C541.363 925.353 584.363 903.42 624.916 877.949C646.469 864.412 667.332 849.875 687.437 834.404C733.156 799.224 774.966 759.212 812.1 715.133C828.339 695.858 843.683 675.804 858.07 655.037C892.139 605.861 920.836 552.683 943.316 496.349ZM659.467 318.566C688.756 289.277 736.244 289.277 765.533 318.566L813.461 366.494C833.094 386.127 840.6 415.131 830.682 441.064C825.176 455.458 819.193 469.615 812.75 483.516C792.642 526.901 736.011 532.978 702.199 499.166L643.566 440.533C614.277 411.244 614.277 363.756 643.566 334.467L659.467 318.566ZM559.467 568.566C588.756 539.277 636.244 539.277 665.533 568.566L675.404 578.437C702.62 605.653 705.119 649.401 677.941 676.653C668.298 686.321 658.364 695.699 648.152 704.772C620.503 729.338 578.862 725.829 552.709 699.676L543.566 690.533C514.277 661.244 514.277 613.756 543.566 584.467L559.467 568.566ZM301.517 651.517C328.293 624.74 371.707 624.74 398.483 651.517L464.284 717.317C499.275 752.308 491.25 811.126 445.146 829.105C443.787 829.635 442.427 830.16 441.064 830.682C415.131 840.6 386.127 833.094 366.494 813.461L301.517 748.484C274.74 721.707 274.74 678.293 301.517 651.517ZM125 800C125 752.606 180.836 733.87 214.349 767.382L232.618 785.651C266.13 819.163 247.394 875 200 875C158.579 875 125 841.421 125 800ZM228.327 618.64C212.682 634.285 187.318 634.285 171.673 618.64C161.187 608.154 157.257 592.698 162.118 578.687C168.313 560.827 175.238 543.309 182.855 526.166C196.596 495.244 236.777 489.81 260.704 513.737C280.731 533.764 280.731 566.236 260.704 586.263L228.327 618.64ZM490.533 531.434C461.244 560.723 413.756 560.723 384.467 531.434L300.324 447.291C274.171 421.138 270.662 379.497 295.228 351.848C304.301 341.636 313.679 331.702 323.347 322.059C350.599 294.881 394.347 297.38 421.563 324.596L506.434 409.467C535.723 438.756 535.723 486.244 506.434 515.533L490.533 531.434ZM583.226 288.741C557.972 313.995 517.028 313.995 491.774 288.741C462.621 259.588 467.842 210.795 504.911 192.748C526.78 182.101 549.31 172.601 572.423 164.325C590.232 157.949 609.96 162.993 623.336 176.369C643.291 196.324 643.291 228.676 623.336 248.631L583.226 288.741ZM875 200C875 247.394 819.163 266.13 785.651 232.618L767.382 214.349C733.87 180.837 752.606 125 800 125C841.421 125 875 158.579 875 200Z" fill="#653024"/>
</g>
<defs>
<clipPath id="clip0_1642_3408">
<rect width="1000" height="1000" fill="white"/>
</clipPath>
</defs>
</svg>
