<svg width="1000" height="1000" viewBox="0 0 1000 1000" fill="none" xmlns="http://www.w3.org/2000/svg">
<path fill-rule="evenodd" clip-rule="evenodd" d="M139.463 864.676C133.391 890.717 143.193 918.19 165.998 932.151C330.763 1033.02 591.069 974.62 782.845 782.845C943.307 622.382 1010.4 413.941 968.935 253.633C954.856 199.196 886.376 203.604 849.274 245.853C847.251 248.157 845.208 250.43 843.145 252.675C800.205 299.396 750.925 330.931 698.364 357.766C665.022 374.788 631.243 389.734 596.229 405.226C517.852 439.905 433.293 477.32 333.619 546.883C239.962 612.246 187.229 711.972 157.969 799.272C150.128 822.667 144.093 844.82 139.463 864.676ZM450.004 824.998C460.259 850.637 489.464 863.296 514.408 851.45C616.218 803.099 702.475 733.085 770.923 616.324C784.888 592.502 774.703 562.348 750.004 549.998C725.305 537.649 695.473 547.836 681.243 571.502C626.008 663.364 558.635 718.739 477.182 758.406C452.355 770.497 439.748 799.359 450.004 824.998Z" fill="#653024"/>
<path d="M63.1533 767.493C58.9313 780.09 41.7832 781.144 37.598 768.535C-16.4627 605.663 49.1929 385.126 217.159 217.16C390.284 44.0353 619.257 -20.3981 783.374 42.9186C817.123 55.939 829.916 95.8174 811.764 127.107C798.582 149.83 784.462 168.747 769.518 185.006C737.615 219.718 699.708 244.801 652.893 268.702C627.048 281.897 597.622 294.95 565.269 309.302C483.996 345.354 384.25 389.601 276.388 464.879C158.199 547.364 95.9316 669.697 63.1533 767.493Z" fill="#653024"/>
</svg>
