<svg width="1000" height="1000" viewBox="0 0 1000 1000" fill="none" xmlns="http://www.w3.org/2000/svg">
<path d="M770.805 368.796C788.038 380.284 792.694 403.567 781.206 420.799L681.206 570.799C669.718 588.031 646.435 592.688 629.203 581.199C611.97 569.711 607.314 546.429 618.802 529.196L718.802 379.196C730.29 361.964 753.573 357.308 770.805 368.796Z" fill="#653024"/>
<path fill-rule="evenodd" clip-rule="evenodd" d="M472.729 211.108L556.303 108.963C600.129 55.3978 664.19 22.3867 733.245 17.783C877.609 8.15881 1000 122.662 1000 267.346V286.684C1000 328.322 990.306 369.388 971.684 406.63L850 649.999L762.359 781.461C753.493 794.76 743.924 807.457 733.718 819.514C662.275 903.914 559.592 956.954 448.039 965.535L317.065 975.61C306.376 976.432 295.784 976.675 285.319 976.365C138.433 972.019 16.6083 858.863 1.56255 712.57C0.529675 702.528 1.30311e-05 692.329 0 681.998C0 681.998 0 681.998 0 681.998C0 654.113 3.9387 626.826 11.4056 600.801C33.7915 522.78 87.8895 456.107 162.637 418.681C162.686 418.656 162.735 418.632 162.784 418.607L297.161 351.419C364.917 317.541 424.747 269.726 472.729 211.108ZM759.861 650H611.577C570.949 650 530.745 658.252 493.401 674.256L409.088 710.391C310.108 752.811 200 680.206 200 572.519V483.852L330.702 418.501C382.402 392.651 430.053 359.68 472.312 320.66L528.237 336.638C558.633 345.323 590.997 344.182 620.706 333.379L715.826 298.79C781.044 275.074 850 323.373 850 392.769V482.294L785.006 612.282L759.861 650Z" fill="#653024"/>
</svg>
