<svg width="1000" height="1000" viewBox="0 0 1000 1000" fill="none" xmlns="http://www.w3.org/2000/svg">
<g clip-path="url(#clip0_1733_3426)">
<path fill-rule="evenodd" clip-rule="evenodd" d="M766.646 22.3305C781.928 45.331 775.67 76.3646 752.67 91.6461C671.239 145.749 614.65 227.55 581.089 362.102C569.537 408.417 560.807 460.643 554.8 519.642C577.246 473.247 602.513 433.644 630.23 400.153C722.313 288.886 837.329 250 950 250C977.614 250 1000 272.386 1000 300C1000 327.614 977.614 350 950 350C862.67 350 777.686 378.823 707.269 463.91C675.992 501.702 646.877 551.459 621.922 616.219C627.925 611.487 634.049 606.96 640.289 602.64C735.331 536.842 850.652 523.624 962.126 551.491C988.916 558.188 1005.2 585.335 998.507 612.124C991.81 638.914 964.664 655.203 937.874 648.506C849.348 626.375 764.669 638.157 697.21 684.859C658.945 711.35 624.028 750.612 596.706 805.232C621.582 795.129 646.774 788.726 671.007 785.12C742.97 774.413 811.783 787.49 847.36 805.278C872.059 817.627 882.071 847.661 869.721 872.36C857.372 897.059 827.339 907.07 802.64 894.721C788.216 887.509 740.684 875.854 685.724 884.031C633.49 891.803 579.735 916.629 543.054 975.446C542.528 976.334 541.976 977.204 541.399 978.054C538.249 982.711 534.283 986.88 529.58 990.322C525.959 992.984 521.953 995.176 517.645 996.798C517.296 996.929 516.946 997.057 516.593 997.18C515.809 997.456 515.017 997.713 514.216 997.95C512.964 998.322 511.692 998.646 510.405 998.919C510.16 998.971 509.916 999.021 509.67 999.07C509.606 999.082 509.541 999.095 509.477 999.107L509.382 999.126C508.842 999.229 508.3 999.323 507.756 999.408C504.447 999.929 501.122 1000.11 497.83 999.962C491.816 999.709 486.034 998.377 480.697 996.138C479.411 995.601 478.153 995.011 476.927 994.373C475.101 993.423 473.344 992.365 471.664 991.207C468.493 989.031 465.553 986.473 462.919 983.56C461.597 982.1 460.371 980.572 459.243 978.986C457.518 976.565 456.001 973.979 454.721 971.25C411.347 885.28 342.243 838.331 277.418 820.578C208.602 801.732 155.968 817.546 136.226 838.298C117.192 858.305 85.5438 859.094 65.5369 840.061C45.5301 821.027 44.741 789.379 63.7744 769.372C119.032 711.288 216.398 700.184 303.832 724.129C336.837 733.168 370.095 747.486 401.786 767.455C383.679 727.711 360.904 691.806 333.526 660.621C268.425 586.465 174.465 535.66 45.8133 524.826C18.2964 522.509 -2.1319 498.324 0.185273 470.807C2.50247 443.29 26.6877 422.862 54.2046 425.179C197.12 437.214 310.162 492.091 392.387 576.982C346.018 419.396 264.411 257.99 122.962 167.059C99.7336 152.126 93.0084 121.191 107.941 97.9621C122.874 74.7336 153.809 68.0085 177.038 82.9411C319.588 174.58 406.801 321.08 460.495 465.014C466.512 419.214 474.326 376.932 484.062 337.9C522.212 184.952 590.617 79.2539 697.33 8.35394C720.331 -6.92754 751.365 -0.670033 766.646 22.3305Z" fill="#653024"/>
</g>
<defs>
<clipPath id="clip0_1733_3426">
<rect width="1000" height="1000" fill="white"/>
</clipPath>
</defs>
</svg>
