<svg width="1000" height="1000" viewBox="0 0 1000 1000" fill="none" xmlns="http://www.w3.org/2000/svg">
<path fill-rule="evenodd" clip-rule="evenodd" d="M825 125C825 55.9644 645.914 0 425 0C204.086 0 25 55.9644 25 125L0 325L25 800C25 938.071 204.086 1000 425 1000C536.113 1000 630.32 993.676 699.699 965.122C677.206 918.878 672.64 863.413 693.522 809.719L756.853 646.867L368.47 471.129C305.574 442.669 277.658 368.61 306.117 305.714C334.577 242.818 408.636 214.901 471.532 243.361L838.15 409.251L850 350L825 125ZM475 62.5C495.711 62.5 512.5 79.2893 512.5 100V125C512.5 145.711 495.711 162.5 475 162.5C454.289 162.5 437.5 145.711 437.5 125V100C437.5 79.2893 454.289 62.5 475 62.5ZM175 112.5C195.711 112.5 212.5 129.289 212.5 150V300C212.5 320.711 195.711 337.5 175 337.5C154.289 337.5 137.5 320.711 137.5 300V150C137.5 129.289 154.289 112.5 175 112.5ZM700 112.5C720.711 112.5 737.5 129.289 737.5 150V225C737.5 245.711 720.711 262.5 700 262.5C679.289 262.5 662.5 245.711 662.5 225V150C662.5 129.289 679.289 112.5 700 112.5ZM150 512.5C170.711 512.5 187.5 529.289 187.5 550V750C187.5 770.711 170.711 787.5 150 787.5C129.289 787.5 112.5 770.711 112.5 750V550C112.5 529.289 129.289 512.5 150 512.5ZM350 637.5C370.711 637.5 387.5 654.289 387.5 675V775C387.5 795.711 370.711 812.5 350 812.5C329.289 812.5 312.5 795.711 312.5 775V675C312.5 654.289 329.289 637.5 350 637.5ZM550 662.5C570.711 662.5 587.5 679.289 587.5 700V875C587.5 895.711 570.711 912.5 550 912.5C529.289 912.5 512.5 895.711 512.5 875V700C512.5 679.289 529.289 662.5 550 662.5Z" fill="#653024"/>
<path d="M850.596 497.203C860.965 501.895 868.957 509.685 873.973 518.984C837.763 519.34 801.726 538.659 784.24 576.939L399.389 402.799C374.23 391.415 363.064 361.791 374.448 336.633C385.832 311.474 415.455 300.308 440.614 311.691L850.596 497.203Z" fill="#653024"/>
<path d="M763.428 836.899L851.7 609.915C859.965 588.663 890.035 588.663 898.3 609.914L986.572 836.899C1017.09 915.375 959.201 1000 875 1000C790.799 1000 732.91 915.375 763.428 836.899Z" fill="#653024"/>
</svg>
