<svg width="1000" height="1000" viewBox="0 0 1000 1000" fill="none" xmlns="http://www.w3.org/2000/svg">
<g clip-path="url(#clip0_1648_3498)">
<path d="M513.984 846.589C477.213 896.077 401.405 877.899 387.882 821.51C512.849 657.944 589.054 460.784 605.367 253.008L613.61 148.007C614.604 135.35 614.025 123.151 612.074 111.531C634.952 87.7176 659.368 65.1358 685.254 43.9426C728.082 8.87888 791.999 42.5988 787.236 97.744L774.406 246.304C758.447 431.088 691.413 607.793 580.797 756.668L513.984 846.589Z" fill="#653024"/>
<path fill-rule="evenodd" clip-rule="evenodd" d="M0 867.449V928.293C0 993.737 77.9562 1027.79 125.967 983.315L213.227 902.485C397.615 731.683 510.924 497.709 530.597 247.138L538.84 142.137C543.412 83.913 479.296 45.67 430.237 77.3587C162.008 250.617 0 548.129 0 867.449ZM328.805 374.008C342.064 358.097 339.914 334.451 324.004 321.193C308.093 307.934 284.447 310.084 271.188 325.994C185.303 429.056 123.798 550.181 91.2598 680.332L88.6163 690.906C83.5932 710.998 95.8093 731.358 115.902 736.381C135.994 741.404 156.354 729.188 161.377 709.096L164.02 698.522C193.82 579.325 250.148 468.396 328.805 374.008Z" fill="#653024"/>
<path d="M586.161 875.197L587.831 896.29C592.526 955.595 665.225 981.343 706.198 938.212L724.999 918.422C901.556 732.572 1000 486.017 1000 229.672V185.152C1000 131.134 937.222 101.397 895.425 135.617C881.994 146.613 868.95 157.974 856.303 169.68L849.128 252.753C831.973 451.395 759.911 641.353 640.998 801.393L586.161 875.197Z" fill="#653024"/>
</g>
<defs>
<clipPath id="clip0_1648_3498">
<rect width="1000" height="1000" fill="white"/>
</clipPath>
</defs>
</svg>
