<svg width="1000" height="1000" viewBox="0 0 1000 1000" fill="none" xmlns="http://www.w3.org/2000/svg">
<path d="M181.896 499.447C177.265 461.439 175 419.995 175 375C175 362.525 175.174 350.322 175.525 338.39C97.7874 360.857 50 391.378 50 425C50 431.225 51.6384 437.345 54.8019 443.326C77.2625 485.793 134.275 493.106 181.896 499.447Z" fill="#653024"/>
<path d="M818.094 499.53C865.41 493.251 921.58 485.929 944.731 444.189C948.2 437.933 950 431.525 950 425C950 391.378 902.213 360.857 824.475 338.39C824.826 350.322 825 362.525 825 375C825 420.028 822.732 461.499 818.094 499.53Z" fill="#653024"/>
<path fill-rule="evenodd" clip-rule="evenodd" d="M750 375C750 425.517 746.971 469.562 741.296 507.896C671.267 514.069 589.232 517.764 500.307 517.764C411.107 517.764 328.852 514.046 258.696 507.841C253.026 469.52 250 425.493 250 375C250 67.8932 361.929 0 500 0C638.071 0 750 67.8932 750 375ZM394.796 268.123L394.177 267.771C376.436 257.216 353.482 262.987 342.85 280.705C332.194 298.464 337.952 321.499 355.711 332.155L356.104 332.375C357.688 333.266 361.307 335.3 363.319 336.346C367.72 338.635 373.936 341.68 381.717 345.015C397.222 351.66 419.263 359.596 445.775 364.899C498.877 375.521 571.568 375.801 644.299 332.162C662.059 321.506 667.817 298.471 657.162 280.712C646.506 262.953 623.471 257.194 605.712 267.85C553.444 299.211 501.134 299.487 460.486 291.356C440.123 287.283 423.102 281.154 411.263 276.08C405.372 273.555 400.846 271.326 397.923 269.806C396.464 269.047 395.411 268.469 394.796 268.123Z" fill="#653024"/>
<path fill-rule="evenodd" clip-rule="evenodd" d="M289.655 904.333C122.945 828.589 58.8512 703.003 50 550C136.489 575.465 305.71 592.763 500.307 592.763C694.445 592.763 863.326 575.546 950 550.18C936.445 704.105 843.138 835.568 710.959 904.333C662.362 929.616 563.075 972.954 520.465 991.343C507.595 996.897 493.092 996.724 480.329 990.929C441.026 973.084 352.061 932.687 289.655 904.333ZM591.072 788.575L590.745 788.664C570.76 793.764 558.616 814.066 563.624 834.098C568.647 854.191 589.007 866.407 609.099 861.384L609.505 861.271C610.89 860.886 613.918 860.044 615.514 859.549C619.067 858.446 623.956 856.811 629.872 854.535C641.674 849.996 657.748 842.839 675.548 832.159C711.086 810.836 754.521 774.823 783.545 716.774C792.807 698.25 785.299 675.724 766.775 666.462C748.25 657.2 725.725 664.709 716.463 683.233C695.487 725.184 663.922 751.671 636.96 767.847C623.51 775.918 611.458 781.261 602.949 784.534C598.709 786.165 595.394 787.264 593.284 787.919C592.23 788.246 591.481 788.461 591.072 788.575Z" fill="#653024"/>
</svg>
