<svg width="32" height="32" viewBox="0 0 32 32" fill="none" xmlns="http://www.w3.org/2000/svg">
<g clip-path="url(#clip0_380_438)">
<path d="M4.914 0.313244C4.32028 -0.149245 3.47658 -0.0929965 2.93911 0.438241L0.439247 2.93818C-0.0919738 3.46942 -0.148221 4.31315 0.308004 4.91314L5.30773 11.413C5.58896 11.7817 6.03269 12.0005 6.49516 12.0005H9.87622L16.6883 18.8128C15.7696 20.6253 16.0634 22.9002 17.582 24.4127L24.5817 31.4125C25.3629 32.1937 26.6315 32.1937 27.4128 31.4125L31.4125 27.4126C32.1937 26.6314 32.1937 25.3627 31.4125 24.5814L24.4129 17.5816C22.9005 16.0691 20.6256 15.7691 18.8132 16.6879L12.0011 9.87552V6.5006C12.0011 6.03186 11.7824 5.59437 11.4136 5.31313L4.914 0.313244ZM1.24545 24.7564C0.451746 25.5502 0.00177102 26.6314 0.00177102 27.7564C0.00177102 30.1 1.90167 32 4.24529 32C5.37022 32 6.45141 31.55 7.24512 30.7563L14.6072 23.394C14.1197 22.0877 14.0447 20.669 14.3822 19.3253L10.5262 15.4691L1.24545 24.7564ZM32 9.00054C32 8.34431 31.9313 7.70682 31.8 7.09433C31.65 6.39435 30.7938 6.21311 30.2876 6.71934L26.2941 10.713C26.1066 10.9005 25.8503 11.0067 25.5879 11.0067H22.0006C21.4506 11.0067 21.0006 10.5568 21.0006 10.0068V6.4131C21.0006 6.15061 21.1069 5.89436 21.2943 5.70687L25.2879 1.71321C25.7941 1.20697 25.6129 0.350743 24.9129 0.200747C24.2942 0.0694997 23.6567 0.000751304 23.0005 0.000751304C18.032 0.000751304 14.001 4.03191 14.001 9.00054V9.05054L19.332 14.3817C21.5818 13.8129 24.0692 14.4129 25.8316 16.1754L26.8128 17.1566C29.8751 15.7191 32 12.6067 32 9.00054ZM6.50141 27.0001C6.50141 27.8313 5.8327 28.5001 5.00149 28.5001C4.17029 28.5001 3.50158 27.8313 3.50158 27.0001C3.50158 26.1689 4.17029 25.5002 5.00149 25.5002C5.8327 25.5002 6.50141 26.1689 6.50141 27.0001Z" fill="#653024"/>
</g>
<defs>
<clipPath id="clip0_380_438">
<rect width="32" height="32" fill="white"/>
</clipPath>
</defs>
</svg>
