<svg width="32" height="32" viewBox="0 0 32 32" fill="none" xmlns="http://www.w3.org/2000/svg">
<path fill-rule="evenodd" clip-rule="evenodd" d="M12 32C18.6274 32 24 26.6274 24 20C24 13.3726 18.6274 8 12 8C5.37258 8 0 13.3726 0 20C0 26.6274 5.37258 32 12 32ZM7.75736 15.7574C8.88258 14.6321 10.4087 14 12 14C12.6627 14 13.2 13.4627 13.2 12.8C13.2 12.1373 12.6627 11.6 12 11.6C9.77218 11.6 7.63561 12.485 6.0603 14.0603C4.485 15.6356 3.6 17.7722 3.6 20C3.6 20.6627 4.13726 21.2 4.8 21.2C5.46274 21.2 6 20.6627 6 20C6 18.4087 6.63214 16.8826 7.75736 15.7574Z" fill="#653024"/>
<path d="M29.788 0H25.1465C21.6888 0 18.7119 2.44052 18.0338 5.83099C17.8094 6.95309 18.6676 8 19.812 8H24.4535C27.9112 8 30.8881 5.55948 31.5662 2.16901C31.7906 1.04691 30.9324 0 29.788 0Z" fill="#653024"/>
</svg>
