<svg width="32" height="32" viewBox="0 0 32 32" fill="none" xmlns="http://www.w3.org/2000/svg">
<path d="M19.1998 4.79998C19.1998 6.56729 17.7671 7.99998 15.9998 7.99998C14.2325 7.99998 12.7998 6.56729 12.7998 4.79998C12.7998 3.03266 14.2325 1.59998 15.9998 1.59998C17.7671 1.59998 19.1998 3.03266 19.1998 4.79998Z" fill="#653024"/>
<path d="M19.1998 16C19.1998 17.7673 17.7671 19.2 15.9998 19.2C14.2325 19.2 12.7998 17.7673 12.7998 16C12.7998 14.2327 14.2325 12.8 15.9998 12.8C17.7671 12.8 19.1998 14.2327 19.1998 16Z" fill="#653024"/>
<path d="M19.1998 27.2C19.1998 28.9673 17.7671 30.4 15.9998 30.4C14.2325 30.4 12.7998 28.9673 12.7998 27.2C12.7998 25.4327 14.2325 24 15.9998 24C17.7671 24 19.1998 25.4327 19.1998 27.2Z" fill="#653024"/>
</svg>
