<svg width="32" height="32" viewBox="0 0 32 32" fill="none" xmlns="http://www.w3.org/2000/svg">
<path d="M15.9998 0C14.8935 0 13.9998 0.89375 13.9998 2V3.2C9.43728 4.125 5.99978 8.1625 5.99978 13V14.175C5.99978 17.1125 4.91853 19.95 2.96853 22.15L2.50603 22.6688C1.98103 23.2563 1.85603 24.1 2.17478 24.8188C2.49353 25.5375 3.21228 26 3.99978 26H27.9998C28.7873 26 29.4998 25.5375 29.8248 24.8188C30.1498 24.1 30.0185 23.2563 29.4935 22.6688L29.031 22.15C27.081 19.95 25.9998 17.1188 25.9998 14.175V13C25.9998 8.1625 22.5623 4.125 17.9998 3.2V2C17.9998 0.89375 17.106 0 15.9998 0ZM18.831 30.8312C19.581 30.0812 19.9998 29.0625 19.9998 28H15.9998H11.9998C11.9998 29.0625 12.4185 30.0812 13.1685 30.8312C13.9185 31.5812 14.9373 32 15.9998 32C17.0623 32 18.081 31.5812 18.831 30.8312Z" fill="#653024"/>
</svg>
