<svg width="32" height="32" viewBox="0 0 32 32" fill="none" xmlns="http://www.w3.org/2000/svg">
<path d="M30.4001 5.71426C30.4001 3.44498 28.5551 1.59998 26.2858 1.59998C25.8615 1.59998 25.4501 1.66426 25.0644 1.7864C23.618 2.2364 21.9722 2.74426 20.5001 2.36498C15.6658 1.13712 10.4458 3.07212 6.76224 6.75569C3.07867 10.4393 1.13724 15.6657 2.3651 20.5C2.73795 21.9721 2.23653 23.6114 1.78653 25.0643C1.66438 25.45 1.6001 25.8614 1.6001 26.2857C1.6001 28.555 3.4451 30.4 5.71438 30.4C6.13867 30.4 6.5501 30.3357 6.94224 30.2135C8.38867 29.7635 10.0344 29.2557 11.5065 29.635C16.3408 30.8628 21.5608 28.9278 25.2444 25.2443C28.928 21.5607 30.8694 16.3407 29.6351 11.5064C29.2622 10.0343 29.7637 8.39498 30.2137 6.94212C30.3358 6.5564 30.4001 6.14498 30.4001 5.71426ZM15.2608 7.73283C11.7508 8.7614 8.76153 11.7507 7.73295 15.2607C7.57224 15.8071 7.0001 16.1157 6.45367 15.9614C5.90724 15.8071 5.59867 15.2285 5.75295 14.6821C6.98081 10.4971 10.4908 6.98069 14.6822 5.75283C15.2287 5.59212 15.8008 5.90712 15.9615 6.45355C16.1222 6.99998 15.8072 7.57212 15.2608 7.73283Z" fill="#653024"/>
</svg>
