<svg width="32" height="32" viewBox="0 0 32 32" fill="none" xmlns="http://www.w3.org/2000/svg">
<g clip-path="url(#clip0_380_437)">
<path d="M31.0207 10.4145C31.2208 10.9584 31.052 11.5648 30.6207 11.9523L27.9139 14.4153C27.9826 14.9342 28.0202 15.4655 28.0202 16.0031C28.0202 16.5407 27.9826 17.0721 27.9139 17.5909L30.6207 20.0539C31.052 20.4415 31.2208 21.0479 31.0207 21.5917C30.7457 22.3356 30.4144 23.0483 30.033 23.7359L29.7392 24.2422C29.3267 24.9299 28.8641 25.58 28.3577 26.1926C27.9889 26.6427 27.3763 26.7927 26.8262 26.6177L23.3442 25.5112C22.5066 26.1551 21.5814 26.6927 20.5937 27.099L19.8123 30.6685C19.6873 31.2374 19.2497 31.6874 18.6746 31.7812C17.8119 31.925 16.9242 32 16.0178 32C15.1114 32 14.2237 31.925 13.361 31.7812C12.7859 31.6874 12.3483 31.2374 12.2233 30.6685L11.4419 27.099C10.4542 26.6927 9.52904 26.1551 8.69137 25.5112L5.2157 26.624C4.66559 26.799 4.05297 26.6427 3.68415 26.1989C3.1778 25.5862 2.71521 24.9361 2.30263 24.2485L2.00882 23.7421C1.62749 23.0545 1.29618 22.3419 1.02113 21.598C0.821087 21.0541 0.98987 20.4477 1.4212 20.0602L4.12798 17.5972C4.05922 17.0721 4.02171 16.5407 4.02171 16.0031C4.02171 15.4655 4.05922 14.9342 4.12798 14.4153L1.4212 11.9523C0.98987 11.5648 0.821087 10.9584 1.02113 10.4145C1.29618 9.67064 1.62749 8.958 2.00882 8.27037L2.30263 7.76402C2.71521 7.07638 3.1778 6.42626 3.68415 5.81364C4.05297 5.36355 4.66559 5.21352 5.2157 5.38855L8.69763 6.49502C9.53529 5.85114 10.4605 5.31354 11.4482 4.90721L12.2296 1.33776C12.3546 0.7689 12.7922 0.318812 13.3673 0.225044C14.23 0.0750146 15.1176 0 16.0241 0C16.9305 0 17.8182 0.0750147 18.6808 0.218793C19.2559 0.312561 19.6935 0.762649 19.8185 1.33151L20.6 4.90096C21.5876 5.30729 22.5128 5.84489 23.3505 6.48877L26.8324 5.3823C27.3825 5.20727 27.9951 5.36355 28.364 5.80738C28.8703 6.42 29.3329 7.07013 29.7455 7.75777L30.0393 8.26411C30.4206 8.95175 30.7519 9.66439 31.027 10.4083L31.0207 10.4145ZM16.0241 21.0041C18.7871 21.0041 21.025 18.7662 21.025 16.0031C21.025 13.2401 18.7871 11.0021 16.0241 11.0021C13.261 11.0021 11.0231 13.2401 11.0231 16.0031C11.0231 18.7662 13.261 21.0041 16.0241 21.0041Z" fill="#653024"/>
</g>
<defs>
<clipPath id="clip0_380_437">
<rect width="32" height="32" fill="white"/>
</clipPath>
</defs>
</svg>
