<svg width="32" height="32" viewBox="0 0 32 32" fill="none" xmlns="http://www.w3.org/2000/svg">
<path fill-rule="evenodd" clip-rule="evenodd" d="M20.5721 0.417388C29.3785 2.08937 32.2282 8.00031 31.9859 15.593C31.8836 18.7994 30.9348 21.6706 29.9177 23.6392C28.9212 25.5679 26.8348 28.6557 23.0688 27.3714C18.7387 25.8947 18.417 20.5212 18.417 20.5212C17.6922 21.2849 16.9956 21.8271 16.3272 22.1478C15.6023 22.5077 14.7393 22.6949 13.7382 22.7094C11.8771 22.7364 10.4289 22.1362 9.39374 20.9088C8.37469 19.6553 7.99146 18.0368 8.24406 16.0531C8.49831 14.0564 9.34332 12.4007 10.7791 11.0857C12.2277 9.77061 13.9211 9.09901 15.8592 9.07093C16.9374 9.05531 18.0906 9.35566 19.3189 9.97199C19.3743 9.73825 19.4135 9.53062 19.4366 9.3491L23.0274 9.29708L22.1751 16.0648C22.1751 16.0648 21.5458 21.5333 23.1547 23.0599C24.7635 24.5864 25.8526 22.9566 26.626 21.4597C27.3788 20.0027 27.7753 18.5697 28.0663 15.7271C28.597 10.5429 26.0166 5.07654 19.0909 4.15698C13.1997 3.37477 8.72466 5.24727 5.92129 10.2953C2.46282 16.5229 3.81401 23.1193 8.38146 25.9854C12.423 28.5216 18.108 27.2266 18.108 27.2266L20.2936 31.3884C20.2936 31.3884 12.126 33.6269 5.92129 29.5387C-0.681546 25.1883 -1.49059 15.7125 2.14813 8.73536C6.6245 0.15206 14.33 -0.76775 20.5721 0.417388ZM18.108 13.4449C17.56 12.8187 16.7726 12.513 15.7458 12.5279C14.7446 12.5424 13.8626 12.8787 13.0998 13.5368C12.3515 14.1818 11.9154 14.9905 11.7916 15.9629C11.6678 16.9353 11.8966 17.7537 12.4782 18.4182C13.0598 19.0828 13.8383 19.4079 14.8138 19.3938C15.7893 19.3797 16.6593 19.0371 17.4237 18.366C18.2027 17.6818 18.6549 16.847 18.7804 15.8616C18.9058 14.8763 18.6817 14.0707 18.108 13.4449Z" fill="#653024"/>
</svg>
