<svg width="32" height="32" viewBox="0 0 32 32" fill="none" xmlns="http://www.w3.org/2000/svg">
<path d="M2.4 3.1875C1.075 3.1875 0 4.2625 0 5.5875V21.5875C0 22.9125 1.075 23.9875 2.4 23.9875H3.2C3.2 26.6375 5.35 28.7875 8 28.7875C10.65 28.7875 12.8 26.6375 12.8 23.9875H19.2C19.2 26.6375 21.35 28.7875 24 28.7875C26.65 28.7875 28.8 26.6375 28.8 23.9875H30.4C31.285 23.9875 32 23.2725 32 22.3875C32 21.5025 31.285 20.7875 30.4 20.7875V17.5875V15.9875V15.0525C30.4 14.2025 30.065 13.3875 29.465 12.7875L25.6 8.9225C25 8.3225 24.185 7.9875 23.335 7.9875H20.8V5.5875C20.8 4.2625 19.725 3.1875 18.4 3.1875H2.4ZM20.8 11.1875H23.335L27.2 15.0525V15.9875H20.8V11.1875ZM10.4 23.9875C10.4 25.3125 9.325 26.3875 8 26.3875C6.675 26.3875 5.6 25.3125 5.6 23.9875C5.6 22.6625 6.675 21.5875 8 21.5875C9.325 21.5875 10.4 22.6625 10.4 23.9875ZM24 26.3875C22.675 26.3875 21.6 25.3125 21.6 23.9875C21.6 22.6625 22.675 21.5875 24 21.5875C25.325 21.5875 26.4 22.6625 26.4 23.9875C26.4 25.3125 25.325 26.3875 24 26.3875Z" fill="#653024"/>
</svg>
