<svg width="32" height="32" viewBox="0 0 32 32" fill="none" xmlns="http://www.w3.org/2000/svg">
<path d="M18.2811 31.2C21.4873 27.1875 28.7998 17.4625 28.7998 12C28.7998 5.375 23.4248 0 16.7998 0C10.1748 0 4.7998 5.375 4.7998 12C4.7998 17.4625 12.1123 27.1875 15.3186 31.2C16.0873 32.1562 17.5123 32.1562 18.2811 31.2ZM16.7998 8C17.8607 8 18.8781 8.42143 19.6282 9.17157C20.3784 9.92172 20.7998 10.9391 20.7998 12C20.7998 13.0609 20.3784 14.0783 19.6282 14.8284C18.8781 15.5786 17.8607 16 16.7998 16C15.7389 16 14.7215 15.5786 13.9714 14.8284C13.2212 14.0783 12.7998 13.0609 12.7998 12C12.7998 10.9391 13.2212 9.92172 13.9714 9.17157C14.7215 8.42143 15.7389 8 16.7998 8Z" fill="#653024"/>
</svg>
