<svg width="32" height="32" viewBox="0 0 32 32" fill="none" xmlns="http://www.w3.org/2000/svg">
<path d="M10.9259 2.5956L10.5145 3.39998H5.02877C4.01734 3.39998 3.2002 4.20435 3.2002 5.19998C3.2002 6.1956 4.01734 6.99998 5.02877 6.99998H26.9716C27.9831 6.99998 28.8002 6.1956 28.8002 5.19998C28.8002 4.20435 27.9831 3.39998 26.9716 3.39998H21.4859L21.0745 2.5956C20.7659 1.98248 20.1316 1.59998 19.4402 1.59998H12.5602C11.8688 1.59998 11.2345 1.98248 10.9259 2.5956ZM26.9716 8.79998H5.02877L6.2402 27.8687C6.33162 29.2918 7.53162 30.4 8.97734 30.4H23.0231C24.4688 30.4 25.6688 29.2918 25.7602 27.8687L26.9716 8.79998Z" fill="#653024"/>
</svg>
