<svg width="32" height="32" viewBox="0 0 32 32" fill="none" xmlns="http://www.w3.org/2000/svg">
<path d="M15.9394 0C17.0456 0 17.9394 0.89375 17.9394 2V4.23125C18.0394 4.24375 18.1331 4.25625 18.2331 4.275C18.8956 4.375 20.8644 4.69375 21.6769 4.9C22.7456 5.16875 23.3956 6.25625 23.1269 7.33125C22.8581 8.40625 21.7706 9.05 20.6956 8.78125C20.1144 8.63125 18.3456 8.34375 17.6394 8.2375C15.6331 7.9375 13.9144 8.0875 12.7331 8.54375C11.5894 8.98125 11.1144 9.6 10.9894 10.2937C10.8706 10.9625 10.9581 11.3438 11.0706 11.5813C11.1894 11.8313 11.4206 12.1125 11.8769 12.4187C12.8894 13.0937 14.4456 13.5375 16.4581 14.0875L16.6331 14.1375C18.4081 14.6187 20.5831 15.2125 22.1956 16.2812C23.0769 16.8687 23.9019 17.6625 24.4144 18.7625C24.9331 19.875 25.0456 21.125 24.8081 22.4562C24.3769 24.8312 22.7394 26.4187 20.7081 27.25C19.8519 27.6 18.9206 27.825 17.9331 27.9375V30C17.9331 31.1063 17.0394 32 15.9331 32C14.8269 32 13.9331 31.1063 13.9331 30V27.8188C13.9081 27.8125 13.8769 27.8125 13.8519 27.8062H13.8394C12.3144 27.5687 9.80811 26.9125 8.12061 26.1625C7.10811 25.7125 6.65811 24.5312 7.10811 23.525C7.55811 22.5187 8.73936 22.0625 9.74561 22.5125C11.0519 23.0938 13.2019 23.6625 14.4456 23.8625C16.4394 24.1562 18.0831 23.9875 19.1956 23.5312C20.2519 23.1 20.7331 22.475 20.8706 21.725C20.9894 21.0563 20.9019 20.675 20.7894 20.4375C20.6706 20.1875 20.4394 19.9063 19.9831 19.6C18.9706 18.925 17.4144 18.4812 15.4019 17.9312L15.2269 17.8813C13.4519 17.4 11.2769 16.8063 9.66436 15.7375C8.78311 15.15 7.95811 14.3563 7.44561 13.2563C6.92686 12.1438 6.81436 10.8937 7.05186 9.5625C7.50186 7.13125 9.25186 5.58125 11.3144 4.79375C12.1269 4.48125 13.0144 4.28125 13.9394 4.16875V2C13.9394 0.89375 14.8331 0 15.9394 0Z" fill="#653024"/>
</svg>
