<svg width="32" height="32" viewBox="0 0 32 32" fill="none" xmlns="http://www.w3.org/2000/svg">
<path d="M8.68591 1.59998C5.65734 1.59998 3.2002 4.01873 3.2002 6.99998V25C3.2002 27.9812 5.65734 30.4 8.68591 30.4H25.1431H26.9716C27.9831 30.4 28.8002 29.5956 28.8002 28.6C28.8002 27.6043 27.9831 26.8 26.9716 26.8V23.2C27.9831 23.2 28.8002 22.3956 28.8002 21.4V3.39998C28.8002 2.40435 27.9831 1.59998 26.9716 1.59998H25.1431H8.68591ZM8.68591 23.2H23.3145V26.8H8.68591C7.67448 26.8 6.85734 25.9956 6.85734 25C6.85734 24.0043 7.67448 23.2 8.68591 23.2ZM10.5145 9.69998C10.5145 9.20498 10.9259 8.79998 11.4288 8.79998H22.4002C22.9031 8.79998 23.3145 9.20498 23.3145 9.69998C23.3145 10.195 22.9031 10.6 22.4002 10.6H11.4288C10.9259 10.6 10.5145 10.195 10.5145 9.69998ZM11.4288 12.4H22.4002C22.9031 12.4 23.3145 12.805 23.3145 13.3C23.3145 13.795 22.9031 14.2 22.4002 14.2H11.4288C10.9259 14.2 10.5145 13.795 10.5145 13.3C10.5145 12.805 10.9259 12.4 11.4288 12.4Z" fill="#653024"/>
</svg>
