<svg width="32" height="32" viewBox="0 0 32 32" fill="none" xmlns="http://www.w3.org/2000/svg">
<path d="M24 14C27.3125 14 30 11.3125 30 8C30 4.6875 27.3125 2 24 2C20.6875 2 18 4.6875 18 8C18 8.25 18.0125 8.5 18.0438 8.74375L12.1625 11.6812C11.0875 10.6375 9.61875 10 8 10C4.6875 10 2 12.6875 2 16C2 19.3125 4.6875 22 8 22C9.61875 22 11.0875 21.3625 12.1625 20.3188L18.0438 23.2563C18.0125 23.5 18 23.7438 18 24C18 27.3125 20.6875 30 24 30C27.3125 30 30 27.3125 30 24C30 20.6875 27.3125 18 24 18C22.3813 18 20.9125 18.6375 19.8375 19.6812L13.9563 16.7437C13.9875 16.5 14 16.2562 14 16C14 15.7438 13.9875 15.5 13.9563 15.2563L19.8375 12.3188C20.9125 13.3625 22.3813 14 24 14Z" fill="#653024"/>
</svg>
