<svg width="32" height="32" viewBox="0 0 32 32" fill="none" xmlns="http://www.w3.org/2000/svg">
<path d="M9.2 7.6125C9.2 9.1575 7.945 10.4125 6.4 10.4125C4.855 10.4125 3.6 9.1575 3.6 7.6125C3.6 6.0675 4.855 4.8125 6.4 4.8125C7.945 4.8125 9.2 6.0675 9.2 7.6125ZM3.2 15.4975C2.7 16.0575 2.4 16.8025 2.4 17.6125C2.4 18.4225 2.7 19.1675 3.2 19.7275V15.4975ZM10.42 13.0325C8.935 14.3475 8 16.2725 8 18.4125C8 20.1275 8.6 21.7025 9.6 22.9375V24.0125C9.6 24.8975 8.885 25.6125 8 25.6125H4.8C3.915 25.6125 3.2 24.8975 3.2 24.0125V22.6725C1.31 21.7725 0 19.8475 0 17.6125C0 14.5175 2.505 12.0125 5.6 12.0125H7.2C8.4 12.0125 9.51 12.3875 10.42 13.0275V13.0325ZM22.4 24.0125V22.9375C23.4 21.7025 24 20.1275 24 18.4125C24 16.2725 23.065 14.3475 21.58 13.0275C22.49 12.3875 23.6 12.0125 24.8 12.0125H26.4C29.495 12.0125 32 14.5175 32 17.6125C32 19.8475 30.69 21.7725 28.8 22.6725V24.0125C28.8 24.8975 28.085 25.6125 27.2 25.6125H24C23.115 25.6125 22.4 24.8975 22.4 24.0125ZM28.4 7.6125C28.4 9.1575 27.145 10.4125 25.6 10.4125C24.055 10.4125 22.8 9.1575 22.8 7.6125C22.8 6.0675 24.055 4.8125 25.6 4.8125C27.145 4.8125 28.4 6.0675 28.4 7.6125ZM28.8 15.4975V19.7325C29.3 19.1675 29.6 18.4275 29.6 17.6175C29.6 16.8075 29.3 16.0625 28.8 15.5025V15.4975ZM16 11.2125C14.235 11.2125 12.8 9.7775 12.8 8.0125C12.8 6.2475 14.235 4.8125 16 4.8125C17.765 4.8125 19.2 6.2475 19.2 8.0125C19.2 9.7775 17.765 11.2125 16 11.2125ZM12 18.4125C12 19.2225 12.3 19.9625 12.8 20.5275V16.2975C12.3 16.8625 12 17.6025 12 18.4125ZM19.2 16.2975V20.5325C19.7 19.9675 20 19.2275 20 18.4175C20 17.6075 19.7 16.8625 19.2 16.3025V16.2975ZM22.4 18.4125C22.4 20.6475 21.09 22.5725 19.2 23.4725V25.6125C19.2 26.4975 18.485 27.2125 17.6 27.2125H14.4C13.515 27.2125 12.8 26.4975 12.8 25.6125V23.4725C10.91 22.5725 9.6 20.6475 9.6 18.4125C9.6 15.3175 12.105 12.8125 15.2 12.8125H16.8C19.895 12.8125 22.4 15.3175 22.4 18.4125Z" fill="#653024"/>
</svg>
