<svg width="32" height="32" viewBox="0 0 32 32" fill="none" xmlns="http://www.w3.org/2000/svg">
<path d="M17.6 9.5875C17.6 13.1225 14.735 15.9875 11.2 15.9875C7.665 15.9875 4.8 13.1225 4.8 9.5875C4.8 6.0525 7.665 3.1875 11.2 3.1875C14.735 3.1875 17.6 6.0525 17.6 9.5875ZM0 27.3025C0 22.3775 3.99 18.3875 8.915 18.3875H13.485C18.41 18.3875 22.4 22.3775 22.4 27.3025C22.4 28.1225 21.735 28.7875 20.915 28.7875H1.485C0.665 28.7875 0 28.1225 0 27.3025ZM30.465 28.7875H23.57C23.84 28.3175 24 27.7725 24 27.1875V26.7875C24 23.7525 22.645 21.0275 20.51 19.1975C20.63 19.1925 20.745 19.1875 20.865 19.1875H23.935C28.39 19.1875 32 22.7975 32 27.2525C32 28.1025 31.31 28.7875 30.465 28.7875ZM21.6 15.9875C20.05 15.9875 18.65 15.3575 17.635 14.3425C18.62 13.0125 19.2 11.3675 19.2 9.5875C19.2 8.2475 18.87 6.9825 18.285 5.8725C19.215 5.1925 20.36 4.7875 21.6 4.7875C24.695 4.7875 27.2 7.2925 27.2 10.3875C27.2 13.4825 24.695 15.9875 21.6 15.9875Z" fill="#653024"/>
</svg>
