<svg width="32" height="32" viewBox="0 0 32 32" fill="none" xmlns="http://www.w3.org/2000/svg">
<path d="M17 6.13801C12.0875 6.13801 7.93125 9.35675 6.51875 13.7943C8.61875 12.7318 10.9875 12.138 13.5 12.138H19C19.55 12.138 20 12.588 20 13.138C20 13.688 19.55 14.138 19 14.138H18H13.5C12.4625 14.138 11.4562 14.2568 10.4812 14.4755C8.8625 14.8443 7.3625 15.5005 6.01875 16.3943C2.39375 18.813 0 22.9443 0 27.638V28.638C0 29.4693 0.66875 30.138 1.5 30.138C2.33125 30.138 3 29.4693 3 28.638V27.638C3 24.5943 4.29375 21.8568 6.3625 19.938C7.6 24.6568 11.8938 28.138 17 28.138H17.0625C25.3188 28.0943 32 19.9568 32 9.92551C32 7.26301 31.5312 4.73176 30.6812 2.45051C30.5187 2.01926 29.8875 2.03801 29.6688 2.44426C28.4938 4.64426 26.1688 6.13801 23.5 6.13801H17Z" fill="#653024"/>
</svg>
