<svg width="32" height="32" viewBox="0 0 32 32" fill="none" xmlns="http://www.w3.org/2000/svg">
<path d="M25.4123 9.41255C26.1936 8.6313 26.1936 7.36255 25.4123 6.5813C24.6311 5.80005 23.3623 5.80005 22.5811 6.5813L15.9998 13.1688L9.4123 6.58755C8.63105 5.8063 7.3623 5.8063 6.58105 6.58755C5.7998 7.3688 5.7998 8.63755 6.58105 9.4188L13.1686 16L6.5873 22.5875C5.80605 23.3688 5.80605 24.6376 6.5873 25.4188C7.36855 26.2001 8.6373 26.2001 9.41855 25.4188L15.9998 18.8313L22.5873 25.4125C23.3686 26.1938 24.6373 26.1938 25.4186 25.4125C26.1998 24.6313 26.1998 23.3625 25.4186 22.5813L18.8311 16L25.4123 9.41255Z" fill="#653024"/>
</svg>
