<svg width="32" height="32" viewBox="0 0 32 32" fill="none" xmlns="http://www.w3.org/2000/svg">
<path d="M16.2666 32C9.6416 32 4.2666 26.625 4.2666 20C4.2666 14.3 12.4041 3.60625 14.6791 0.73125C15.0541 0.2625 15.6104 0 16.2104 0H16.3229C16.9229 0 17.4791 0.2625 17.8541 0.73125C20.1291 3.60625 28.2666 14.3 28.2666 20C28.2666 26.625 22.8916 32 16.2666 32ZM10.2666 21C10.2666 20.45 9.8166 20 9.2666 20C8.7166 20 8.2666 20.45 8.2666 21C8.2666 24.8688 11.3979 28 15.2666 28C15.8166 28 16.2666 27.55 16.2666 27C16.2666 26.45 15.8166 26 15.2666 26C12.5041 26 10.2666 23.7625 10.2666 21Z" fill="#653024"/>
</svg>
