<svg width="32" height="32" viewBox="0 0 32 32" fill="none" xmlns="http://www.w3.org/2000/svg">
<g clip-path="url(#clip0_352_354)">
<path d="M23 3C23 1.34375 21.6562 0 20 0C18.3438 0 17 1.34375 17 3C17 4.65625 18.3438 6 20 6C21.6562 6 23 4.65625 23 3ZM10.8562 10.9688C11.475 10.35 12.3187 10 13.2 10C13.3187 10 13.4375 10.0063 13.55 10.0188L11.6 15.875C11.0188 17.625 11.7062 19.55 13.275 20.5312L18.6625 23.9L17.075 29.45C16.7687 30.5125 17.3875 31.6187 18.45 31.925C19.5125 32.2312 20.6187 31.6125 20.925 30.55L22.7188 24.275C23.0875 22.9875 22.5562 21.6125 21.425 20.9062L17.875 18.6875L19.8062 13.5375L20.125 14.3062C21.0625 16.5437 23.2438 18 25.6688 18H27C28.1063 18 29 17.1063 29 16C29 14.8937 28.1063 14 27 14H25.6688C24.8625 14 24.1313 13.5125 23.825 12.7688L23.4312 11.8313C22.5187 9.6375 20.675 7.9625 18.4 7.2625L15.3562 6.325C14.6625 6.1125 13.9375 6 13.2063 6C11.2688 6 9.40625 6.76875 8.0375 8.14375L6.5875 9.5875C5.80625 10.3687 5.80625 11.6375 6.5875 12.4187C7.36875 13.2 8.6375 13.2 9.41875 12.4187L10.8625 10.975L10.8562 10.9688ZM8.7 22H5C3.89375 22 3 22.8937 3 24C3 25.1063 3.89375 26 5 26H9.35C10.5375 26 11.6125 25.3 12.0938 24.2188L12.8125 22.6L12.2188 22.225C11.125 21.5438 10.3125 20.55 9.85 19.4188L8.7 22Z" fill="#653024"/>
</g>
<defs>
<clipPath id="clip0_352_354">
<rect width="32" height="32" fill="white"/>
</clipPath>
</defs>
</svg>
