<svg width="32" height="32" viewBox="0 0 32 32" fill="none" xmlns="http://www.w3.org/2000/svg">
<g clip-path="url(#clip0_341_113)">
<path d="M32 16C32 24.8375 24.8375 32 16 32C7.1625 32 0 24.8375 0 16C0 7.1625 7.1625 0 16 0C24.8375 0 32 7.1625 32 16ZM20 22C20 20.3188 18.9688 18.8813 17.5 18.2938V5.5C17.5 4.66875 16.8313 4 16 4C15.1688 4 14.5 4.66875 14.5 5.5V18.2938C13.0313 18.8875 12 20.325 12 22C12 24.2063 13.7938 26 16 26C18.2063 26 20 24.2063 20 22ZM9 11C10.1063 11 11 10.1063 11 9C11 7.89375 10.1063 7 9 7C7.89375 7 7 7.89375 7 9C7 10.1063 7.89375 11 9 11ZM8 16C8 14.8938 7.10625 14 6 14C4.89375 14 4 14.8938 4 16C4 17.1063 4.89375 18 6 18C7.10625 18 8 17.1063 8 16ZM26 18C27.1063 18 28 17.1063 28 16C28 14.8938 27.1063 14 26 14C24.8938 14 24 14.8938 24 16C24 17.1063 24.8938 18 26 18ZM25 9C25 7.89375 24.1063 7 23 7C21.8938 7 21 7.89375 21 9C21 10.1063 21.8938 11 23 11C24.1063 11 25 10.1063 25 9Z" fill="#653024"/>
</g>
<defs>
<clipPath id="clip0_341_113">
<rect width="32" height="32" fill="white"/>
</clipPath>
</defs>
</svg>
