<svg width="32" height="32" viewBox="0 0 32 32" fill="none" xmlns="http://www.w3.org/2000/svg">
<path d="M14.1903 2.50197C14.1903 2.10825 14.4448 1.75952 14.8237 1.64141C15.2026 1.52329 15.6098 1.66391 15.836 1.98451L28.504 19.9832C28.6963 20.2588 28.719 20.6188 28.5663 20.9169C28.4136 21.215 28.1025 21.4006 27.7632 21.4006H15.0951C14.5975 21.4006 14.1903 20.9956 14.1903 20.5007V2.50197ZM11.7076 7.02977C12.1034 7.13664 12.3806 7.49099 12.3806 7.90158V20.5007C12.3806 20.9956 11.9734 21.4006 11.4757 21.4006H4.23681C3.91445 21.4006 3.61472 21.2319 3.45636 20.9506C3.29801 20.6694 3.29236 20.3319 3.45071 20.0507L10.6896 7.45162C10.8932 7.09727 11.3117 6.9229 11.7076 7.02977ZM0.0348593 24.3423C-0.129147 23.7686 0.306318 23.2005 0.905788 23.2005H31.0942C31.6937 23.2005 32.1291 23.7686 31.9651 24.3423L31.7389 25.1466C30.8567 28.257 28.012 30.4 24.7658 30.4H7.23416C3.98797 30.4 1.14331 28.257 0.261074 25.1522L0.0348593 24.3479V24.3423Z" fill="#653024"/>
</svg>
