<svg width="32" height="32" viewBox="0 0 32 32" fill="none" xmlns="http://www.w3.org/2000/svg">
<path d="M10.1333 0C11.2396 0 12.1333 0.89375 12.1333 2V4H20.1333V2C20.1333 0.89375 21.0271 0 22.1333 0C23.2396 0 24.1333 0.89375 24.1333 2V4H27.1333C28.7896 4 30.1333 5.34375 30.1333 7V10H2.1333V7C2.1333 5.34375 3.47705 4 5.1333 4H8.1333V2C8.1333 0.89375 9.02705 0 10.1333 0ZM2.1333 12H30.1333V29C30.1333 30.6562 28.7896 32 27.1333 32H5.1333C3.47705 32 2.1333 30.6562 2.1333 29V12ZM6.1333 17V19C6.1333 19.55 6.5833 20 7.1333 20H9.1333C9.6833 20 10.1333 19.55 10.1333 19V17C10.1333 16.45 9.6833 16 9.1333 16H7.1333C6.5833 16 6.1333 16.45 6.1333 17ZM14.1333 17V19C14.1333 19.55 14.5833 20 15.1333 20H17.1333C17.6833 20 18.1333 19.55 18.1333 19V17C18.1333 16.45 17.6833 16 17.1333 16H15.1333C14.5833 16 14.1333 16.45 14.1333 17ZM23.1333 16C22.5833 16 22.1333 16.45 22.1333 17V19C22.1333 19.55 22.5833 20 23.1333 20H25.1333C25.6833 20 26.1333 19.55 26.1333 19V17C26.1333 16.45 25.6833 16 25.1333 16H23.1333ZM6.1333 25V27C6.1333 27.55 6.5833 28 7.1333 28H9.1333C9.6833 28 10.1333 27.55 10.1333 27V25C10.1333 24.45 9.6833 24 9.1333 24H7.1333C6.5833 24 6.1333 24.45 6.1333 25ZM15.1333 24C14.5833 24 14.1333 24.45 14.1333 25V27C14.1333 27.55 14.5833 28 15.1333 28H17.1333C17.6833 28 18.1333 27.55 18.1333 27V25C18.1333 24.45 17.6833 24 17.1333 24H15.1333ZM22.1333 25V27C22.1333 27.55 22.5833 28 23.1333 28H25.1333C25.6833 28 26.1333 27.55 26.1333 27V25C26.1333 24.45 25.6833 24 25.1333 24H23.1333C22.5833 24 22.1333 24.45 22.1333 25Z" fill="#653024"/>
</svg>
