<svg width="32" height="32" viewBox="0 0 32 32" fill="none" xmlns="http://www.w3.org/2000/svg">
<path d="M16 0C13.3875 0 11.1625 1.66875 10.3438 4H8C5.79375 4 4 5.79375 4 8V28C4 30.2062 5.79375 32 8 32H24C26.2062 32 28 30.2062 28 28V8C28 5.79375 26.2062 4 24 4H21.6562C20.8375 1.66875 18.6125 0 16 0ZM16 4C16.5304 4 17.0391 4.21071 17.4142 4.58579C17.7893 4.96086 18 5.46957 18 6C18 6.53043 17.7893 7.03914 17.4142 7.41421C17.0391 7.78929 16.5304 8 16 8C15.4696 8 14.9609 7.78929 14.5858 7.41421C14.2107 7.03914 14 6.53043 14 6C14 5.46957 14.2107 4.96086 14.5858 4.58579C14.9609 4.21071 15.4696 4 16 4ZM8.5 17C8.5 16.6022 8.65804 16.2206 8.93934 15.9393C9.22064 15.658 9.60218 15.5 10 15.5C10.3978 15.5 10.7794 15.658 11.0607 15.9393C11.342 16.2206 11.5 16.6022 11.5 17C11.5 17.3978 11.342 17.7794 11.0607 18.0607C10.7794 18.342 10.3978 18.5 10 18.5C9.60218 18.5 9.22064 18.342 8.93934 18.0607C8.65804 17.7794 8.5 17.3978 8.5 17ZM15 16H23C23.55 16 24 16.45 24 17C24 17.55 23.55 18 23 18H15C14.45 18 14 17.55 14 17C14 16.45 14.45 16 15 16ZM8.5 23C8.5 22.6022 8.65804 22.2206 8.93934 21.9393C9.22064 21.658 9.60218 21.5 10 21.5C10.3978 21.5 10.7794 21.658 11.0607 21.9393C11.342 22.2206 11.5 22.6022 11.5 23C11.5 23.3978 11.342 23.7794 11.0607 24.0607C10.7794 24.342 10.3978 24.5 10 24.5C9.60218 24.5 9.22064 24.342 8.93934 24.0607C8.65804 23.7794 8.5 23.3978 8.5 23ZM14 23C14 22.45 14.45 22 15 22H23C23.55 22 24 22.45 24 23C24 23.55 23.55 24 23 24H15C14.45 24 14 23.55 14 23Z" fill="#653024"/>
</svg>
