<svg width="32" height="32" viewBox="0 0 32 32" fill="none" xmlns="http://www.w3.org/2000/svg">
<g clip-path="url(#clip0_647_529)">
<path d="M2.35477 4.47688C2.51153 4.14781 2.85642 3.959 3.20654 4.00756L15.9988 5.6583L28.7911 4.00756C29.1413 3.9644 29.4862 4.15321 29.6429 4.47688L31.822 8.97597C32.2923 9.94161 31.7906 11.1122 30.7873 11.4089L22.2487 13.9282C21.5223 14.144 20.7437 13.8257 20.357 13.1568L15.9988 5.6583L11.6407 13.1568C11.254 13.8257 10.4754 14.144 9.74901 13.9282L1.21558 11.4089C0.207038 11.1122 -0.289395 9.94161 0.175684 8.97597L2.35477 4.47688ZM16.0563 9.11084L18.9252 14.0415C19.7038 15.3794 21.2558 16.0159 22.7138 15.5843L29.3764 13.6207V22.6297C29.3764 23.8165 28.5926 24.8523 27.4743 25.1436L16.8088 27.8948C16.2758 28.0351 15.7167 28.0351 15.1889 27.8948L4.52339 25.1436C3.40511 24.8469 2.62127 23.8111 2.62127 22.6243V13.6153L9.28916 15.5843C10.7419 16.0159 12.2991 15.3794 13.0777 14.0415L15.9414 9.11084H16.0563Z" fill="#653024"/>
</g>
<defs>
<clipPath id="clip0_647_529">
<rect width="32" height="32" fill="white"/>
</clipPath>
</defs>
</svg>
