<svg width="32" height="32" viewBox="0 0 32 32" fill="none" xmlns="http://www.w3.org/2000/svg">
<g clip-path="url(#clip0_352_374)">
<path d="M25.6437 14.4388L26.3499 13.7325L24.2312 11.6138L20.3499 7.73254L18.2312 5.61379L17.5249 6.32004L16.1124 7.73254L3.66244 20.1825C3.01244 20.8325 2.53744 21.6388 2.27494 22.52L0.0624366 30.045C-0.0938135 30.57 0.0499365 31.1388 0.443687 31.5263C0.837437 31.9138 1.39994 32.0575 1.92494 31.9075L9.44369 29.695C10.3249 29.4325 11.1312 28.9575 11.7812 28.3075L24.2312 15.8575L25.6437 14.4388ZM9.99994 24.9638L9.43119 26.3825C9.18119 26.5763 8.89994 26.72 8.59994 26.8138L3.71244 28.2513L5.14994 23.37C5.23744 23.0638 5.38744 22.7825 5.58119 22.5388L6.99994 21.97V23.97C6.99994 24.52 7.44994 24.97 7.99994 24.97H9.99994V24.9638ZM22.6687 1.17004L21.7687 2.07629L20.3562 3.48879L19.6437 4.19504L21.7624 6.31379L25.6437 10.195L27.7624 12.3138L28.4687 11.6075L29.8812 10.195L30.7874 9.28879C32.3499 7.72629 32.3499 5.19504 30.7874 3.63254L28.3312 1.17004C26.7687 -0.392456 24.2374 -0.392456 22.6749 1.17004H22.6687ZM19.7062 11.67L10.7062 20.67C10.3187 21.0575 9.68119 21.0575 9.29369 20.67C8.90619 20.2825 8.90619 19.645 9.29369 19.2575L18.2937 10.2575C18.6812 9.87004 19.3187 9.87004 19.7062 10.2575C20.0937 10.645 20.0937 11.2825 19.7062 11.67Z" fill="#653024"/>
</g>
<defs>
<clipPath id="clip0_352_374">
<rect width="32" height="32" fill="white"/>
</clipPath>
</defs>
</svg>
