<svg width="32" height="32" viewBox="0 0 32 32" fill="none" xmlns="http://www.w3.org/2000/svg">
<g clip-path="url(#clip0_729_795)">
<path d="M15.5424 10.0834C15.9037 9.76286 16.0461 9.2592 15.8579 8.81151C15.7409 8.54187 15.6137 8.27733 15.4712 8.02295L15.3135 7.74823C15.1609 7.49386 14.993 7.24458 14.8149 7.00547C14.525 6.61882 14.0162 6.49163 13.5583 6.64426L12.1237 7.11739C11.5793 6.66969 10.9536 6.3034 10.282 6.05411L9.9717 4.57876C9.87504 4.10562 9.50874 3.72915 9.03052 3.67319C8.69475 3.62741 8.35389 3.60706 8.00795 3.60706H7.97234C7.62639 3.60706 7.28553 3.62741 6.94976 3.6681C6.47154 3.72407 6.10525 4.10562 6.00858 4.57367L5.69825 6.05411C5.02162 6.30849 4.40095 6.66969 3.8566 7.11739L2.41685 6.64934C1.95898 6.49672 1.45024 6.62391 1.16025 7.01055C0.982194 7.24966 0.814308 7.49895 0.656597 7.75332L0.503974 8.02295C0.361526 8.27733 0.23434 8.54187 0.117329 8.81659C-0.0709065 9.2592 0.0715419 9.76286 0.43275 10.0885L1.56216 11.0958C1.5062 11.4366 1.47568 11.7927 1.47568 12.154C1.47568 12.5152 1.5062 12.8713 1.56216 13.2172L0.43275 14.2245C0.0715419 14.5451 -0.0709065 15.0487 0.117329 15.4964C0.23434 15.766 0.361526 16.0306 0.503974 16.29L0.656597 16.5546C0.809221 16.8141 0.977106 17.0582 1.16025 17.2974C1.45024 17.684 1.95898 17.8112 2.41685 17.6586L3.85151 17.1854C4.39587 17.6331 5.02162 17.9994 5.69316 18.2487L6.0035 19.7292C6.10016 20.2023 6.46645 20.5788 6.94467 20.6347C7.28553 20.6754 7.63148 20.6958 7.98251 20.6958C8.33354 20.6958 8.67949 20.6754 9.02035 20.6347C9.49857 20.5788 9.86486 20.1972 9.96153 19.7292L10.2719 18.2487C10.9485 17.9943 11.5692 17.6331 12.1135 17.1854L13.5482 17.6586C14.006 17.8112 14.5148 17.684 14.8048 17.2974C14.9828 17.0582 15.1507 16.8141 15.3033 16.5546L15.461 16.2799C15.6035 16.0255 15.7307 15.761 15.8477 15.4913C16.0359 15.0487 15.8935 14.5451 15.5323 14.2195L14.4029 13.2121C14.4588 12.8662 14.4893 12.5101 14.4893 12.1489C14.4893 11.7877 14.4588 11.4315 14.4029 11.0856L15.5323 10.0783L15.5424 10.0834ZM5.54563 12.154C5.54563 11.5063 5.80291 10.8852 6.26086 10.4272C6.71882 9.96926 7.33995 9.71198 7.9876 9.71198C8.63525 9.71198 9.25637 9.96926 9.71433 10.4272C10.1723 10.8852 10.4296 11.5063 10.4296 12.154C10.4296 12.8016 10.1723 13.4227 9.71433 13.8807C9.25637 14.3386 8.63525 14.5959 7.9876 14.5959C7.33995 14.5959 6.71882 14.3386 6.26086 13.8807C5.80291 13.4227 5.54563 12.8016 5.54563 12.154ZM25.524 28.6627C25.8445 29.0239 26.3482 29.1664 26.7959 28.9781C27.0655 28.8611 27.33 28.7339 27.5844 28.5915L27.8591 28.4338C28.1135 28.2811 28.3628 28.1133 28.6019 27.9352C28.9886 27.6452 29.1157 27.1365 28.9631 26.6786L28.49 25.2439C28.9377 24.6996 29.304 24.0738 29.5533 23.4023L31.0337 23.092C31.5068 22.9953 31.8833 22.629 31.9393 22.1508C31.98 21.8099 32.0003 21.464 32.0003 21.1129C32.0003 20.7619 31.98 20.416 31.9393 20.0751C31.8833 19.5969 31.5017 19.2306 31.0337 19.1339L29.5533 18.8185C29.2989 18.1419 28.9377 17.5212 28.49 16.9768L28.9631 15.5422C29.1157 15.0843 28.9886 14.5756 28.6019 14.2856C28.3628 14.1075 28.1135 13.9396 27.8591 13.7819L27.5895 13.6293C27.3351 13.4869 27.0706 13.3597 26.7959 13.2427C26.3533 13.0544 25.8496 13.1969 25.524 13.5581L24.5167 14.6875C24.1707 14.6315 23.8146 14.601 23.4534 14.601C23.0922 14.601 22.7361 14.6315 22.3901 14.6875L21.3828 13.5581C21.0623 13.1969 20.5587 13.0544 20.111 13.2427C19.8413 13.3597 19.5768 13.4869 19.3173 13.6293L19.0528 13.7819C18.7933 13.9346 18.5491 14.1024 18.31 14.2856C17.9234 14.5756 17.7962 15.0843 17.9488 15.5422L18.4219 16.9768C17.9742 17.5212 17.6079 18.147 17.3587 18.8185L15.8782 19.1237C15.4051 19.2204 15.0286 19.5867 14.9727 20.0649C14.932 20.4058 14.9116 20.7517 14.9116 21.1028C14.9116 21.4538 14.932 21.7997 14.9727 22.1406C15.0286 22.6188 15.4102 22.9851 15.8782 23.0818L17.3587 23.3921C17.613 24.0687 17.9742 24.6894 18.4219 25.2338L17.9488 26.6684C17.7962 27.1263 17.9234 27.635 18.31 27.925C18.5491 28.1031 18.7933 28.271 19.0528 28.4236L19.3275 28.5813C19.5819 28.7237 19.8464 28.8509 20.1161 28.9679C20.5587 29.1562 21.0623 29.0137 21.3879 28.6525L22.3952 27.5231C22.7412 27.5791 23.0973 27.6096 23.4585 27.6096C23.8197 27.6096 24.1758 27.5791 24.5218 27.5231L25.5291 28.6525L25.524 28.6627ZM23.4534 18.6659C23.7741 18.6659 24.0916 18.729 24.3879 18.8518C24.6842 18.9745 24.9534 19.1544 25.1802 19.3811C25.4069 19.6079 25.5868 19.8771 25.7095 20.1733C25.8322 20.4696 25.8954 20.7872 25.8954 21.1078C25.8954 21.4285 25.8322 21.7461 25.7095 22.0424C25.5868 22.3386 25.4069 22.6078 25.1802 22.8346C24.9534 23.0613 24.6842 23.2412 24.3879 23.3639C24.0916 23.4867 23.7741 23.5498 23.4534 23.5498C23.1327 23.5498 22.8152 23.4867 22.5189 23.3639C22.2226 23.2412 21.9534 23.0613 21.7267 22.8346C21.4999 22.6078 21.3201 22.3386 21.1973 22.0424C21.0746 21.7461 21.0114 21.4285 21.0114 21.1078C21.0114 20.7872 21.0746 20.4696 21.1973 20.1733C21.3201 19.8771 21.4999 19.6079 21.7267 19.3811C21.9534 19.1544 22.2226 18.9745 22.5189 18.8518C22.8152 18.729 23.1327 18.6659 23.4534 18.6659Z" fill="#653024"/>
</g>
<defs>
<clipPath id="clip0_729_795">
<rect width="32" height="32" fill="white"/>
</clipPath>
</defs>
</svg>
