<svg xmlns="http://www.w3.org/2000/svg" width="694" height="385" viewBox="0 0 694 385" fill="none">
  <path d="M680.72 255.878C675.057 255.878 670.926 251.42 670.926 245.808C670.926 240.276 675.057 235.744 680.644 235.744C686.229 235.744 690.287 240.276 690.287 245.886C690.287 251.42 686.229 255.878 680.72 255.878ZM680.644 233.207C673.449 233.207 667.713 238.819 667.713 245.808C667.713 252.955 673.449 258.567 680.644 258.567C687.913 258.567 693.5 252.955 693.5 245.808C693.5 238.819 687.913 233.207 680.644 233.207Z" fill="#653024"/>
  <path d="M680.108 245.271H678.73V241.662C679.037 241.586 679.574 241.508 680.339 241.508C682.172 241.508 683.015 242.275 683.015 243.426C683.015 244.734 681.715 245.271 680.108 245.271ZM683.552 246.196V246.042C685.083 245.579 686.155 244.505 686.155 243.121C686.155 241.891 685.618 240.891 684.93 240.352C684.011 239.817 682.94 239.434 680.568 239.434C678.5 239.434 676.896 239.585 675.746 239.817V252.416H678.653V247.345H680.033C681.639 247.345 682.405 247.96 682.633 249.344C683.015 250.803 683.246 251.957 683.63 252.416H686.765C686.458 251.957 686.23 251.191 685.846 249.268C685.465 247.577 684.777 246.657 683.552 246.196Z" fill="#653024"/>
  <path d="M342.129 180.235C342.129 180.235 341.645 180.563 340.818 181.173C325.405 192.586 320.348 213.452 328.723 230.743L341.343 256.797L354.309 229.612C362.021 213.436 358.136 193.993 344.611 182.282C343.82 181.6 342.995 180.916 342.129 180.235Z" fill="#653024"/>
  <path d="M590.124 118.854C582.562 135.101 586.634 154.507 600.269 166.09C601.064 166.764 601.896 167.439 602.769 168.114C602.769 168.114 603.251 167.781 604.071 167.161C619.377 155.604 624.235 134.688 615.695 117.477L602.828 91.5451L590.124 118.854Z" fill="#653024"/>
  <path d="M30.7947 73.4641L35.2962 43.6636C37.9743 25.932 28.6079 8.47345 12.2698 1.23443C11.317 0.812244 10.3276 0.399236 9.30157 0C9.30157 0 8.93368 0.456601 8.319 1.2849C-3.10621 16.7152 -1.88143 38.1546 11.1525 52.2403L30.7947 73.4641Z" fill="#653024"/>
  <path d="M0.500031 81.3043C2.14069 101.796 3.18039 274.544 3.18039 274.544H37.7142L35.6006 80.593L0.500031 81.3043Z" fill="#653024"/>
  <path d="M198.942 79.9733C198.942 79.9733 207.595 167.156 199.782 216.462C199.782 216.462 117.971 123.584 106.571 111.788C93.2766 98.0307 86.9996 88.7703 73.7372 83.8601C73.7372 83.8601 47.1348 172.236 60.9547 274.544H94.9402C94.9402 274.544 86.0239 195.146 93.7725 147.24C93.7725 147.24 170.15 235.141 182.88 247.882C196.992 262.009 211.285 270.446 220.903 275.443C220.903 275.443 247.702 180.973 231.705 79.3882L198.942 79.9733Z" fill="#653024"/>
  <path d="M341.998 80.0318C341.852 79.956 341.664 79.956 341.449 80.0318C341.449 80.0318 272.649 103.683 243.538 274.542H277.818C277.818 274.542 297.947 159.466 341.724 121.38C386.478 160.714 405.629 274.542 405.629 274.542H439.853C410.741 103.683 341.998 80.0318 341.998 80.0318Z" fill="#653024"/>
  <path d="M620.231 39.101L596.096 14.564C502.622 109.222 398.079 74.6835 393.5 73.1186L394.784 107.402C397.126 108.217 410.416 113.386 447.909 113.386C450.866 113.386 453.891 113.334 456.987 113.217C459.604 158.392 459.839 274.543 459.839 274.543L494.074 274.465L492.623 109.16C532.273 101.568 577.686 82.191 620.231 39.101Z" fill="#653024"/>
  <path d="M690.105 80.5782H656.166C660.265 234.268 610.737 241.012 599.988 240.743C597.975 240.794 594.538 240.596 590.313 239.231C580.279 236.675 572.496 229.475 566.425 219.714C555.414 201.402 545.448 170.613 543.794 113.602C533.333 117.946 522.587 121.553 511.584 124.435C514.216 207.095 540.835 245.261 564.638 261.802C590.089 279.494 623.887 278.448 645.926 256.623C693.999 209.013 690.437 88.9599 690.105 80.5782Z" fill="#653024"/>
  <path d="M2.49257 349.483C2.49257 349.483 2.66395 349.226 2.98386 348.79C8.95924 340.649 19.8886 337.979 28.9442 342.402L42.5905 349.068L28.3501 355.914C19.8795 359.985 9.69731 357.936 3.56426 350.791C3.20551 350.376 2.84904 349.94 2.49257 349.483Z" fill="#653024"/>
  <path d="M656.91 349.483C656.91 349.483 656.741 349.226 656.419 348.79C650.443 340.649 639.514 337.979 630.458 342.402L616.812 349.068L631.052 355.914C639.523 359.985 649.705 357.936 655.838 350.791C656.197 350.376 656.553 349.94 656.91 349.483Z" fill="#653024"/>
  <path d="M67.5226 359.508H89.8315C86.1754 351.401 82.3297 343.288 78.6736 335.753C74.9216 343.288 71.1718 351.401 67.5226 359.508ZM95.0208 371.095H62.2327C60.3064 375.443 58.387 379.791 56.7509 384.033H41.8433C52.8046 359.898 66.2704 332.862 78.196 311.615H79.0621C90.9831 332.862 104.449 359.898 115.41 384.033H100.503C98.8665 379.687 96.9471 375.443 95.0208 371.095Z" fill="#653024"/>
  <path d="M203.496 311.615V384.033H189.649L189.939 342.515C181.281 352.269 170.224 367.137 163.88 376.31H163.11C156.767 367.04 145.703 352.269 137.145 342.515L137.438 384.033H123.49V311.615C129.646 311.615 150.897 338.268 163.492 354.971C176.094 338.268 197.443 311.615 203.496 311.615Z" fill="#653024"/>
  <path d="M237.357 359.508H259.665C256.009 351.401 252.164 343.288 248.508 335.753C244.756 343.288 241.006 351.401 237.357 359.508ZM264.853 371.095H232.067C230.14 375.443 228.221 379.791 226.585 384.033H211.677C222.645 359.898 236.104 332.862 248.025 311.615H248.896C260.817 332.862 274.281 359.898 285.242 384.033H270.341C268.701 379.687 266.779 375.443 264.853 371.095Z" fill="#653024"/>
  <path d="M341.502 372.448V384.035H288.135C288.135 372.934 311.982 341.645 321.214 324.172H288.709V312.578H340.924C340.924 323.688 316.982 354.971 307.75 372.448H341.502Z" fill="#653024"/>
  <path d="M408.532 348.311C408.532 333.246 399.3 323.203 385.547 323.203C371.702 323.203 362.47 333.246 362.47 348.311C362.47 363.37 371.702 373.413 385.547 373.413C399.3 373.413 408.532 363.37 408.532 348.311ZM348.042 348.311C348.042 326.291 363.044 311.616 385.547 311.616C407.858 311.616 422.953 326.291 422.953 348.311C422.953 370.324 407.858 385 385.547 385C363.044 385 348.042 370.324 348.042 348.311Z" fill="#653024"/>
  <path d="M503.06 385C495.944 385 466.904 354.394 449.885 338.172L450.074 384.034H436.131V311.616C443.251 311.616 472.191 342.227 489.21 358.448L489.021 312.58H503.06V385Z" fill="#653024"/>
  <path d="M534.515 384.033H520.567V312.577H534.515V384.033Z" fill="#653024"/>
  <path d="M568.46 359.508H590.769C587.113 351.401 583.268 343.288 579.611 335.753C575.859 343.288 572.11 351.401 568.46 359.508ZM595.959 371.095H563.171C561.244 375.443 559.325 379.791 557.689 384.033H542.781C553.743 359.898 567.208 332.862 579.134 311.615H580C591.921 332.862 605.387 359.898 616.348 384.033H601.44C599.804 379.687 597.885 375.443 595.959 371.095Z" fill="#653024"/>
  <path d="M409.465 307.51L404.655 297.059C401.791 290.839 395.147 287.255 388.419 288.397C388.026 288.464 387.626 288.542 387.217 288.632C387.217 288.632 387.195 288.854 387.172 289.249C386.76 296.582 391.646 303.16 398.755 304.895L409.465 307.51Z" fill="#653024"/>
  <path d="M364.043 306.323L375.249 303.877C381.914 302.42 386.845 296.686 387.193 289.844C387.213 289.447 387.225 289.034 387.227 288.612C387.227 288.612 387.014 288.543 386.637 288.435C379.597 286.444 372.141 289.803 368.912 296.393L364.043 306.323Z" fill="#653024"/>
</svg>