<svg width="32" height="32" viewBox="0 0 32 32" fill="none" xmlns="http://www.w3.org/2000/svg">
<g clip-path="url(#clip0_380_435)">
<path d="M2 4C2 1.79375 3.79375 0 6 0H16C18.2062 0 20 1.79375 20 4V16H20.5C23.5375 16 26 18.4625 26 21.5V23.5C26 24.3313 26.6687 25 27.5 25C28.3313 25 29 24.3313 29 23.5V13.875C27.275 13.4313 26 11.8625 26 10V6L24 4C23.45 3.45 23.45 2.55 24 2C24.55 1.45 25.45 1.45 26 2L30.8312 6.83125C31.5812 7.58125 32 8.6 32 9.6625V10.5V12V14V23.5C32 25.9875 29.9875 28 27.5 28C25.0125 28 23 25.9875 23 23.5V21.5C23 20.1187 21.8813 19 20.5 19H20V28C21.1063 28 22 28.8937 22 30C22 31.1063 21.1063 32 20 32H2C0.89375 32 0 31.1063 0 30C0 28.8937 0.89375 28 2 28V4ZM6 5V11C6 11.55 6.45 12 7 12H15C15.55 12 16 11.55 16 11V5C16 4.45 15.55 4 15 4H7C6.45 4 6 4.45 6 5Z" fill="#653024"/>
</g>
<defs>
<clipPath id="clip0_380_435">
<rect width="32" height="32" fill="white"/>
</clipPath>
</defs>
</svg>
