<svg width="1000" height="1000" viewBox="0 0 1000 1000" fill="none" xmlns="http://www.w3.org/2000/svg">
<g clip-path="url(#clip0_1648_3502)">
<path d="M965.165 823.741C1004.22 862.793 1004.22 926.11 965.165 965.162C926.113 1004.21 862.796 1004.21 823.744 965.162C800.658 942.077 786.334 878.333 778.48 830.067C773.471 799.285 799.288 773.468 830.07 778.477C878.336 786.331 942.079 800.655 965.165 823.741Z" fill="#653024"/>
<path d="M285.355 14.6447C265.829 -4.88155 234.171 -4.88155 214.645 14.6447C195.118 34.1709 195.118 65.8291 214.645 85.3553C231.896 102.607 237.92 128.124 230.204 151.27L227.847 158.343C198.008 135.042 158.182 127.902 121.689 140.066C116.673 141.738 111.143 140.432 107.404 136.694L85.3553 114.645C65.8291 95.1184 34.1709 95.1184 14.6447 114.645C-4.88155 134.171 -4.88155 165.829 14.6447 185.355L36.6938 207.404C67.2155 237.926 112.362 248.584 153.311 234.934C158.327 233.262 163.857 234.568 167.595 238.306L215.596 286.306L140.897 323.656C122.377 332.916 100.009 329.286 85.3675 314.645C65.8413 295.118 34.1831 295.118 14.6569 314.645C-4.86935 334.171 -4.86935 365.829 14.6569 385.355C59.7344 430.433 128.599 441.608 185.618 413.098L277.927 366.944C285.072 363.372 293.673 364.672 299.44 370.15L314.645 385.355L315.165 385.868L361.448 432.156L167.177 511.472C139.07 522.948 106.823 516.448 85.3553 494.981C65.8291 475.455 34.1709 475.455 14.6447 494.981C-4.88155 514.507 -4.88156 546.165 14.6447 565.692C64.581 615.628 139.594 630.747 204.976 604.053L407.386 521.414C426.023 513.805 447.406 518.115 461.641 532.349L512.073 582.782L220.806 705.415C174.244 725.019 120.315 710.419 90.0029 670.003C73.4344 647.911 42.0943 643.434 20.0029 660.003C-2.08845 676.571 -6.5656 707.911 10.0029 730.003C67.847 807.128 170.758 834.989 259.61 797.579L557.437 672.184C576.174 664.295 597.822 668.537 612.197 682.913L676.939 749.996C696.464 769.523 728.122 769.525 747.65 750C775 722.653 767.039 697.495 752.457 682.913C743.589 674.045 739.597 651.273 747.65 632.482L890.261 299.678C931.955 202.379 910.216 89.5 835.368 14.6461C815.842 -4.88091 784.184 -4.88219 764.657 14.6432C745.13 34.1687 745.129 65.8269 764.654 85.3539C810.592 131.295 823.934 200.574 798.345 260.29L658.158 587.435L608.89 538.173C594.267 523.552 590.153 501.439 598.539 482.538L704.977 242.632L705.182 242.143C732.313 177.311 720.691 119.451 703.157 79.5954C694.482 59.8766 684.25 44.1769 676.157 33.3358C672.08 27.8749 668.458 23.5307 665.71 20.4042C664.333 18.8377 663.167 17.5674 662.263 16.6059L661.105 15.3934L660.683 14.9615L660.513 14.7895L660.438 14.7146L660.371 14.647C640.846 -4.88051 609.188 -4.88259 589.66 14.6423C570.228 34.0716 570.131 65.5159 589.37 85.0654L589.428 85.1264C589.602 85.3113 590.007 85.7479 590.601 86.4233C591.794 87.7806 593.711 90.0601 596.025 93.1592C600.712 99.4381 606.669 108.603 611.623 119.865C621.304 141.869 626.699 170.271 613.12 203.09L508.843 438.125L457.826 387.113C444.009 373.297 440.212 352.36 448.297 334.573L516.259 185.058C542.482 127.367 530.171 59.4612 485.365 14.6475C465.84 -4.88027 434.182 -4.88283 414.654 14.6418C395.126 34.1664 395.124 65.8247 414.648 85.3525C429.984 100.69 434.197 123.932 425.222 143.677L359.339 288.62L331.938 261.219C316.781 246.062 311.489 223.642 318.267 203.307L325.072 182.894C344.766 123.815 329.39 58.6797 285.355 14.6447Z" fill="#653024"/>
</g>
<defs>
<clipPath id="clip0_1648_3502">
<rect width="1000" height="1000" fill="white"/>
</clipPath>
</defs>
</svg>
