<svg width="1000" height="1000" viewBox="0 0 1000 1000" fill="none" xmlns="http://www.w3.org/2000/svg">
<path fill-rule="evenodd" clip-rule="evenodd" d="M525.229 695.109L484.815 75.4246C481.683 27.4012 419.163 11.0938 392.973 51.4691L55.0298 572.465C-36.0975 712.953 29.9792 901.661 188.841 954.615C361.307 1012.1 537.06 876.52 525.229 695.109ZM381.937 344.654C392.792 327.015 387.292 303.917 369.654 293.063C352.015 282.208 328.917 287.708 318.063 305.346L118.063 630.346C107.208 647.985 112.708 671.083 130.346 681.937C147.985 692.792 171.083 687.292 181.937 669.654L381.937 344.654Z" fill="#653024"/>
<path fill-rule="evenodd" clip-rule="evenodd" d="M871.432 325.548L586.972 371.43C538.995 379.169 509.295 320.834 543.778 286.59L748.23 83.5573C816.844 15.4192 931.942 33.8732 975.814 120.047C1019.69 206.22 966.897 310.15 871.432 325.548ZM826.505 123.479C841.15 138.124 841.15 161.867 826.505 176.512L751.505 251.512C736.86 266.157 713.116 266.157 698.472 251.512C683.827 236.867 683.827 213.124 698.472 198.479L773.472 123.479C788.116 108.834 811.86 108.834 826.505 123.479Z" fill="#653024"/>
<path fill-rule="evenodd" clip-rule="evenodd" d="M528.865 505.183L659.859 821.751C710.693 944.601 875.899 965.457 955.67 859.096C1018.53 775.276 992.253 655.178 900.126 605.276L598.88 442.101C557.482 419.677 510.864 461.679 528.865 505.183ZM676.516 548.483C661.872 533.839 638.128 533.839 623.484 548.483C608.839 563.128 608.839 586.872 623.484 601.516L723.483 701.516C738.128 716.161 761.872 716.161 776.516 701.516C791.161 686.872 791.161 663.128 776.516 648.483L676.516 548.483Z" fill="#653024"/>
</svg>
