<svg width="1000" height="1000" viewBox="0 0 1000 1000" fill="none" xmlns="http://www.w3.org/2000/svg">
<path d="M497.366 47.3667C471.205 21.2059 428.79 21.2059 402.629 47.3667C358.111 91.8847 327.798 145.228 311.688 201.765C311.491 202.457 311.296 203.149 311.103 203.842C305.785 222.944 302.084 242.403 300 262C298.314 277.854 297.687 293.799 298.117 309.721C321.844 309.907 345.849 316.052 367.865 328.763C390.599 341.888 411.689 356.766 431.064 373.129C465.902 305.1 519.144 245.552 588.581 202.731C587.26 198.047 585.843 193.384 584.327 188.747C584.207 188.379 584.087 188.013 583.966 187.646C583.092 185 582.186 182.363 581.249 179.735C564.016 131.411 536.055 86.0559 497.366 47.3667Z" fill="#653024"/>
<path d="M187.321 258.073C199.956 249.86 213.508 242.097 227.893 234.859C223.127 266.297 221.833 298.161 224.01 329.83C203.884 341.835 186.454 358.998 173.905 380.735C145.614 429.735 128.007 481.973 120.362 534.749C108.528 520.997 99.0863 506.941 91.9519 492.847C80.4969 470.119 75 447.189 75 425C75 369.029 109.974 308.349 187.321 258.073Z" fill="#653024"/>
<path d="M190.938 594.249C200.22 600.139 209.98 605.788 220.184 611.169C227.292 614.917 234.616 618.534 242.144 622.011C286.452 642.476 337.85 658.077 394.162 666.888C377.352 593.451 380.403 517.807 401.327 447.376C380.462 427.042 356.753 408.95 330.365 393.715C298.325 375.216 257.355 386.194 238.857 418.235C206.781 473.791 191.323 534.381 190.938 594.249Z" fill="#653024"/>
<path d="M793.506 248.159C852.907 351.045 865.207 468.199 837.096 574.654C838.44 573.617 839.767 572.577 841.078 571.534C872.251 546.698 894.368 519.859 908.032 492.88C919.498 470.141 925 447.2 925 425C925 369.029 890.026 308.349 812.679 258.073C806.004 253.734 799.074 249.521 791.899 245.445C792.443 246.341 792.979 247.246 793.506 248.159Z" fill="#653024"/>
<path d="M734.66 632.015C790.407 526.902 792.432 396.298 728.554 285.659C710.056 253.619 669.086 242.641 637.045 261.139C490.264 345.884 426.364 519.054 473.785 674.513C482.445 674.834 491.185 674.998 500 674.998C587.702 674.998 668.033 658.799 734.66 632.015Z" fill="#653024"/>
<path d="M997.962 454.545C974.997 620.192 760.82 750 500 750C239.183 750 25.0078 620.194 2.03905 454.55C0.689622 469.52 0 484.679 0 500C0 776.142 223.858 1000 500 1000C776.142 1000 1000 776.142 1000 500C1000 484.677 999.311 469.516 997.962 454.545Z" fill="#653024"/>
</svg>
