<svg width="1000" height="1000" viewBox="0 0 1000 1000" fill="none" xmlns="http://www.w3.org/2000/svg">
<path fill-rule="evenodd" clip-rule="evenodd" d="M720.771 33.8881C727.649 47.6451 740.562 57.2136 755.321 61.5428C895.967 102.798 1000 249.882 1000 425.003C1000 631.205 855.761 798.535 677.351 799.993C708.055 724.981 725 639.596 725 550.009C725 491.245 717.722 434.522 704.177 381.46C703.066 377.11 701.588 372.931 699.78 368.953C693.959 288.957 573.086 222.581 411.95 204.728C455.886 134.995 520.141 83.4069 594.679 61.5428C609.438 57.2136 622.351 47.645 629.229 33.888L630.279 31.7897C648.705 -5.06273 701.295 -5.06271 719.721 31.7897L720.771 33.8881ZM714.422 163.139C720.972 143.492 742.209 132.873 761.857 139.422C811.238 155.883 848.875 195.602 873.641 241.594C898.599 287.946 912.498 344.097 912.498 399.998C912.498 420.709 895.709 437.498 874.998 437.498C854.287 437.498 837.498 420.709 837.498 399.998C837.498 355.899 826.397 312.05 807.605 277.152C788.621 241.894 763.758 219.113 738.139 210.574C718.492 204.024 707.873 182.787 714.422 163.139Z" fill="#653024"/>
<path fill-rule="evenodd" clip-rule="evenodd" d="M558.449 430.78C620.409 401.865 625 376.877 625 375C625 373.123 620.409 348.135 558.449 319.22C502.578 293.147 420.121 275 325 275C229.879 275 147.422 293.147 91.5514 319.22C29.591 348.135 25 373.123 25 375C25 376.877 29.591 401.865 91.5514 430.78C147.422 456.853 229.879 475 325 475C420.121 475 502.578 456.853 558.449 430.78ZM234.133 325.962L297.528 307.849C315.483 302.719 334.517 302.719 352.472 307.849L415.867 325.962C440.043 332.869 440.043 367.131 415.867 374.038L352.472 392.151C334.517 397.281 315.483 397.281 297.528 392.151L234.133 374.038C209.957 367.131 209.957 332.869 234.133 325.962Z" fill="#653024"/>
<path fill-rule="evenodd" clip-rule="evenodd" d="M325 550C460.046 550 578.419 516.687 644.444 466.709C648.092 493.701 650 521.546 650 550.004C650 570.613 648.999 590.904 647.062 610.778C625.632 830.561 489.607 1000 325 1000C145.509 1000 0.00182053 798.533 0 550.009C0 532.223 0.745226 514.675 2.19486 497.425C2.71694 491.212 3.33038 485.038 4.03328 478.906C4.50142 474.822 5.00933 470.756 5.55627 466.709C71.5808 516.687 189.954 550 325 550ZM562.5 625C562.5 604.289 545.711 587.5 525 587.5C504.289 587.5 487.5 604.289 487.5 625C487.5 692.557 464.859 757.107 423.484 798.483C408.839 813.128 408.839 836.872 423.484 851.517C438.128 866.161 461.872 866.161 476.516 851.517C535.141 792.893 562.5 707.443 562.5 625Z" fill="#653024"/>
</svg>
