<svg width="1000" height="1000" viewBox="0 0 1000 1000" fill="none" xmlns="http://www.w3.org/2000/svg">
<path d="M466.9 250.928L264.413 103.664C251.999 94.636 258.385 74.9969 273.735 74.9969C290.549 74.9969 306.674 81.6763 318.564 93.5657L408.019 183.021C415.013 190.015 426.991 186.023 428.39 176.23C440.111 94.183 380.348 19.193 297.754 12.3102L165.799 1.31396C157.742 0.642553 151.177 7.68071 152.406 15.6715L172.68 147.452C186.515 237.376 281.479 290.075 365.104 254.236C371.377 251.547 378.515 251.757 384.619 254.809L410.97 267.984C449.026 287.013 470.222 328.636 463.227 370.605L458.577 398.506C454.683 421.868 477.048 440.979 499.517 433.49C514.189 428.599 523.122 413.761 520.58 398.506L506.722 315.362C502.411 289.493 488.11 266.353 466.9 250.928Z" fill="#653024"/>
<path fill-rule="evenodd" clip-rule="evenodd" d="M628.303 455.148L644.362 358.796C648.013 336.888 658.853 316.82 675.173 301.756L897.769 96.2823C916.379 79.104 945.369 99.0626 935.963 122.577C928.819 140.436 916.427 155.709 900.423 166.378L789.103 240.591C782.392 245.066 782.392 254.928 789.103 259.402C879.249 319.499 999.995 254.878 999.995 146.537V14.9746C999.995 7.17581 992.932 1.28114 985.259 2.67623L848.009 27.6307C776.774 40.5825 724.995 102.625 724.995 175.028C724.995 190.746 717.594 205.547 705.02 214.978L642.106 262.164C632.288 269.527 618.549 268.551 609.871 259.873L590.446 240.448C581.912 231.915 568.077 231.915 559.544 240.448C553.692 246.3 551.648 254.957 554.265 262.808L564.454 293.374C571.296 313.901 571.296 336.093 564.454 356.62L544.924 415.209C532.746 451.743 500.672 478.037 462.459 482.814L404.604 490.046C352.832 496.517 304.381 519.025 266.043 554.414L23.3393 778.448C11.4458 789.427 12.9613 808.641 26.4288 817.62L43.2781 828.852C63.093 842.062 74.9948 864.301 74.9948 888.116C74.9948 933.062 116.115 966.773 160.189 957.958L184.582 953.079C194.572 951.082 204.942 952.47 214.053 957.026L252.083 976.041C277.993 988.996 309.456 977.291 320.598 950.55L399.692 760.725C416.127 721.279 444.765 688.135 481.408 666.149L516.4 645.154C538.586 631.842 557.978 614.353 573.501 593.655L599.958 558.38C614.456 539.049 640.705 532.852 662.318 543.659L888.049 656.524C909.708 667.353 902.002 699.997 877.787 699.997C859.665 699.997 841.949 694.633 826.871 684.581L715.527 610.352C708.443 605.629 698.874 610.088 697.933 618.55C687.097 716.076 779.74 792.768 873.527 763.91L988.131 728.647C994.697 726.627 998.402 719.688 996.428 713.108L967.534 616.793C943.95 538.181 861.567 493.119 782.652 515.666L758.212 522.649C752.885 524.171 747.204 523.88 742.06 521.823L643.678 482.47C632.77 478.107 626.372 466.737 628.303 455.148ZM123.223 751.777L261.612 613.388C269.006 605.994 280.994 605.994 288.388 613.388C295.051 620.051 295.801 630.599 290.147 638.137L172.721 794.706C160.729 810.695 137.356 812.356 123.223 798.223C110.397 785.397 110.397 764.603 123.223 751.777Z" fill="#653024"/>
</svg>
