<svg width="1000" height="1000" viewBox="0 0 1000 1000" fill="none" xmlns="http://www.w3.org/2000/svg">
<path fill-rule="evenodd" clip-rule="evenodd" d="M969.326 17.8546C987.076 28.5254 992.815 51.5651 982.144 69.3152C956.449 112.057 932.369 146.582 899.578 180.028C868.221 212.01 829.995 241.893 776.904 277.165C908.736 354.625 924.221 532.833 750 625.004C629.08 688.977 557.07 779.504 533.557 929.672C526.666 973.681 472.322 994.53 445.648 958.855C252.378 700.37 312.628 436.413 488.467 316.528C415.001 306.18 343.113 322.816 280.109 357.439C182.403 411.134 108.555 506.92 86.6486 607.944C82.6764 626.262 65.7887 638.834 47.1009 637.385C28.4131 635.936 13.6656 620.911 12.5651 602.199C-1.09391 369.956 137.323 225.547 302.697 164.798C454.097 109.183 636.192 120.745 751.795 203.64C793.619 174.986 822.666 151.345 846.023 127.521C873.132 99.8716 893.752 70.7823 917.865 30.6726C928.536 12.9226 951.576 7.18372 969.326 17.8546ZM680.942 247.702L674.547 251.539C645.757 253.987 618.1 259.324 591.837 267.269C469.925 217.971 345.689 235.821 243.988 291.711C215.274 307.491 188.206 326.373 163.332 347.753C206.477 295.991 264.488 258.734 328.557 235.199C451.161 190.162 589.03 197.914 680.942 247.702ZM666.771 383.538C685.295 374.275 692.803 351.75 683.541 333.226C674.279 314.702 651.754 307.193 633.229 316.455C546.894 359.623 504.233 431.58 483.388 490.641C472.964 520.174 467.775 547.01 465.173 566.525C463.867 576.317 463.2 584.363 462.859 590.107C462.688 592.981 462.599 595.288 462.551 596.957C462.528 597.792 462.515 598.468 462.508 598.977L462.501 599.615L462.5 599.838L462.5 599.926V599.996C462.5 620.707 479.289 637.496 500 637.496C520.701 637.496 537.485 620.704 537.501 600.007L537.522 599.069C537.548 598.138 537.605 596.611 537.727 594.554C537.972 590.435 538.477 584.223 539.515 576.437C541.6 560.796 545.786 539.194 554.112 515.602C570.767 468.413 603.106 415.37 666.771 383.538Z" fill="#653024"/>
</svg>
