<svg width="1000" height="1000" viewBox="0 0 1000 1000" fill="none" xmlns="http://www.w3.org/2000/svg">
<path d="M769.933 253.453C769.933 253.454 769.934 253.453 769.933 253.453C817.388 243.41 860.456 221.947 896.164 192.04C945.099 151.055 980.217 94.2098 993.878 29.1569C997.034 14.1273 985.566 0 970.208 0H914.359C772.294 0 644.903 81.2974 583.64 205.609C583.639 205.609 583.64 205.61 583.64 205.609C581.724 209.496 579.872 213.425 578.088 217.394L577.945 217.712C576.646 220.61 575.381 223.53 574.153 226.472C570.55 235.096 567.257 243.904 564.287 252.884C564.287 252.884 564.287 252.884 564.287 252.884C563.203 256.162 562.163 259.463 561.166 262.786C557.148 276.182 565.763 289.111 578.125 291.914C581.231 292.618 584.574 292.683 588.012 291.955L769.933 253.453Z" fill="#653024"/>
<path d="M485.16 273.622C484.739 263.095 486.038 252.202 489.328 241.235C495.675 220.079 503.501 199.675 512.673 180.121C494.695 176.91 473.94 175 450 175C372.723 175 328.622 194.906 304.024 214.207C352.106 235.174 405.833 263.456 449.997 299.58C461.235 290.385 473.046 281.737 485.16 273.622Z" fill="#653024"/>
<path d="M357.162 325.713C301.102 322.115 244.634 331.638 195.282 365.681C109.717 424.704 75 536.562 75 683.877C75 790.634 89.4196 875.19 122.857 938.218C46.6954 885.875 0 789.594 0 612.903C0 373.473 73.0615 278.211 203.572 255.59C217.259 260.309 232.493 265.886 248.573 272.318C284.238 286.584 322.577 304.479 357.162 325.713Z" fill="#653024"/>
<path d="M777.143 938.218C810.58 875.19 825 790.634 825 683.877C825 536.562 790.283 424.704 704.718 365.681C695.871 359.578 686.794 354.263 677.533 349.67L785.462 326.828C797.302 324.323 808.924 321.252 820.3 317.646C872.213 372.419 900 465.245 900 612.903C900 789.594 853.305 885.875 777.143 938.218Z" fill="#653024"/>
<path d="M449.498 999.997C405.396 999.445 350 926.115 350 725C350 523.122 405.817 450 450 450C494.183 450 550 523.122 550 725C550 926.115 494.604 999.445 450.502 999.997H449.498Z" fill="#653024"/>
<path d="M328.092 994.313C223.158 978.301 150 917.18 150 683.877C150 448.901 244.618 385.673 372.988 402.571C347.267 422.902 328.031 451.987 314.976 481.155C289.539 537.986 275 618.452 275 725C275 831.548 289.539 912.014 314.976 968.845C318.812 977.415 323.181 985.977 328.092 994.313Z" fill="#653024"/>
<path d="M750 683.877C750 917.18 676.842 978.301 571.908 994.313C576.819 985.977 581.188 977.415 585.024 968.845C610.461 912.014 625 831.548 625 725C625 618.452 610.461 537.986 585.024 481.155C571.969 451.987 552.733 422.902 527.012 402.571C655.382 385.672 750 448.901 750 683.877Z" fill="#653024"/>
</svg>
