<svg width="1000" height="1000" viewBox="0 0 1000 1000" fill="none" xmlns="http://www.w3.org/2000/svg">
<path d="M550 0V118.328C603.292 94.8069 663.325 93.3589 716.942 112.486C736.58 95.1472 766.577 95.8668 785.355 114.645L810.355 139.645C824.283 153.572 828.276 173.672 822.335 191.139C825.628 195.639 828.786 200.3 831.798 205.119C842.775 222.682 837.436 245.818 819.873 256.794C802.31 267.771 779.175 262.432 768.198 244.869C720.679 168.839 618.945 152.218 550 204.918V293.374C571.899 288.902 594.121 287.204 616.154 288.197C625.059 280.003 636.945 275 650 275H675C699.576 275 720.011 292.731 724.21 316.099C746.754 327.288 767.949 341.741 787.054 359.341L823.306 352.09C832.502 350.251 841.515 347.762 850.285 344.658C851.456 333.696 856.242 323.047 864.645 314.645L889.645 289.645C908.842 270.447 939.767 270.124 959.359 288.676C965.645 290.289 971.593 293.557 976.515 298.478C991.159 313.123 991.159 336.866 976.515 351.511C963.943 364.083 950.228 375.324 935.594 385.117L935.355 385.355C929.346 391.365 922.187 395.525 914.586 397.835C890.736 410.836 864.939 420.249 838.015 425.634L825.101 428.217C847.06 462.769 890.72 480.225 932.405 466.33L938.139 464.419C957.787 457.87 979.024 468.488 985.574 488.136C992.123 507.784 981.504 529.021 961.857 535.57L956.122 537.482C862.568 568.666 763.522 512.669 740.559 418.605C720.476 398.95 696.916 384.319 671.648 375H650C637.832 375 626.679 370.653 618.009 363.428C595.341 361.798 572.314 364.115 550 370.553V466.87C559.223 472.436 569.077 476.732 579.292 479.701C587.075 462.202 604.613 450 625 450H650C664.103 450 676.843 455.839 685.933 465.232L686.071 465.177C705.3 457.485 727.124 466.838 734.816 486.067C742.508 505.297 733.154 527.121 713.925 534.812L687.405 545.42C642.589 563.347 593.898 563.977 550 549.09V630.811C553.798 634.784 557.378 639.002 560.717 643.453C575.219 662.789 599.019 672.218 622.337 668.684C629.654 653.607 639.097 640.217 650.134 628.695C650.045 627.475 650 626.243 650 625C650 597.386 672.386 575 700 575H725C733.391 575 741.299 577.067 748.243 580.719C783.275 577.016 819.989 584.919 852.358 606.498L870.799 618.793C888.032 630.281 892.688 653.563 881.2 670.796C869.712 688.028 846.429 692.685 829.197 681.196L810.755 668.902C796.516 659.409 780.677 654.946 765.095 654.878C755.979 667.092 741.413 675 725 675H710.262C709.923 675.291 709.586 675.584 709.251 675.881C733.218 687.344 753.347 705.545 767.186 728.032C786.334 735.04 800 753.424 800 775V800C800 827.614 777.614 850 750 850C722.386 850 700 827.614 700 800V775C700 771.265 700.41 767.626 701.186 764.124C690.847 749.398 674.315 739.335 655.372 737.722C619.76 749.152 582.021 745.631 550 729.611V770.311L554.488 771.059C630.871 783.789 680.16 858.964 661.378 934.09C656.355 954.182 635.995 966.398 615.903 961.375C595.811 956.352 583.595 935.992 588.618 915.899C596.118 885.897 578.641 855.876 550 846.908V950C550 977.614 527.614 1000 500 1000C472.386 1000 450 977.614 450 950V662.511C449.515 662.5 449.03 662.494 448.544 662.494C439.974 662.494 431.828 664.085 424.354 666.964C426.835 682.286 422.169 698.541 410.355 710.355L385.355 735.355C384.256 736.454 383.119 737.491 381.948 738.467C382.024 739.006 382.107 739.547 382.197 740.088L385.203 758.121C418.971 799.785 422.275 859.184 391.977 904.631L381.2 920.796C369.712 938.028 346.429 942.685 329.197 931.196C311.964 919.708 307.308 896.426 318.796 879.193L329.573 863.028C338.754 849.256 340.103 832.232 334.182 817.638C307.487 822.447 280.23 821.722 254.078 815.685C234.544 829.681 207.194 827.905 189.645 810.355L164.645 785.355C145.118 765.829 145.118 734.171 164.645 714.645C184.171 695.118 215.829 695.118 235.355 714.645L260.355 739.645C260.347 739.637 260.363 739.653 260.355 739.645C275.448 744.567 291.384 746.578 307.237 745.509C306.401 738.388 306.114 731.337 306.34 724.395C295.689 705.357 298.458 680.832 314.645 664.645L334.127 645.162C359.931 610.408 401.36 587.494 448.544 587.494L450 587.502V479.679L443.24 478.552C423.505 475.263 403.788 477.61 386.023 484.675C385.803 484.903 385.58 485.13 385.355 485.355L360.355 510.355C353.762 516.948 345.786 521.315 337.36 523.456C335.664 525.92 334.061 528.469 332.557 531.1C302.75 583.262 249.834 616.45 191.94 622.057C186.65 623.962 180.946 625 175 625H150C139.838 625 130.385 621.969 122.494 616.761L93.833 611.984C73.4041 608.579 59.6034 589.258 63.0082 568.829C66.413 548.401 85.734 534.6 106.163 538.005L114.84 539.451C123.872 530.517 136.292 525 150 525H175C189.558 525 202.662 531.221 211.8 541.151C234.794 532.579 254.702 516.178 267.439 493.889C269.93 489.53 272.582 485.303 275.385 481.214C273.545 466.435 278.298 450.991 289.645 439.645L314.645 414.645C331.829 397.46 358.411 395.399 377.849 408.463C400.92 402.188 425.403 400.405 450 403.732V297.857L438.762 294.111C409.457 284.343 378.325 285.152 350.347 295.364L335.355 310.355C327.833 317.878 318.51 322.502 308.774 324.229C290.326 405.477 223.435 463.295 145.859 474.852L135.355 485.355C115.829 504.882 84.1709 504.882 64.6447 485.355C58.9989 479.71 54.9856 473.05 52.6046 465.962C51.1042 465.439 49.6051 464.897 48.1077 464.336L36.8308 460.107C17.4388 452.835 7.61361 431.219 14.8856 411.827C22.1576 392.435 43.7731 382.61 63.1651 389.882L74.442 394.111C77.1117 395.112 79.7899 396.013 82.4729 396.816L89.6447 389.645C109.171 370.118 140.829 370.118 160.355 389.645C161.371 390.661 162.334 391.709 163.244 392.787C185.82 383.497 205.444 367.528 219.027 346.747C174.691 351.01 130.46 342.993 90.9651 324.182C81.3234 322.419 72.0998 317.81 64.6447 310.355L62.4694 308.18C48.5508 299.084 35.4716 288.501 23.4815 276.511C8.83679 261.866 8.83679 238.123 23.4815 223.478C28.404 218.555 34.3545 215.288 40.642 213.674C60.2344 195.124 91.1582 195.447 110.355 214.645L135.355 239.645C142.903 247.193 147.533 256.553 149.246 266.325C173.031 273.149 198.355 274.751 223.456 270.568L250.811 266.008C252.567 256.351 257.178 247.111 264.645 239.645L289.645 214.645C309.171 195.118 340.829 195.118 360.355 214.645C360.555 214.844 360.752 215.045 360.947 215.247C390.157 210.226 420.516 211.394 450 219.226V178.029L448.482 176.511C394.091 122.12 305.905 122.12 251.514 176.511C236.87 191.156 213.126 191.156 198.481 176.511C183.837 161.866 183.837 138.123 198.481 123.478C200.153 121.806 201.846 120.167 203.559 118.562C201.263 112.823 200 106.559 200 100C200 72.3858 222.386 50 250 50H275C288.7 50 301.114 55.5103 310.145 64.4355C357.225 55.5683 406.704 62.5631 450 85.4198V0H550Z" fill="#653024"/>
</svg>
