<svg width="1000" height="1000" viewBox="0 0 1000 1000" fill="none" xmlns="http://www.w3.org/2000/svg">
<path d="M734.346 368.442C736.933 367.379 739.51 366.301 742.075 365.208C758.184 358.344 776.592 368.623 777.24 386.121C779.806 455.366 776.063 600.005 700 600.005C667.217 600.005 658.219 578.712 649.617 558.357C643.727 544.421 638.024 530.925 625 525.005C606.415 516.557 590.461 519.242 574.656 521.902C551.921 525.727 529.496 529.501 500 500.005C499.485 499.49 498.953 498.936 498.415 498.357L497.568 497.43C490.056 489.076 480.557 475.129 472.025 461.692C463.01 447.492 471.111 429.758 486.174 424.835C490.753 424.944 495.362 425 500 425C593.855 425 676.035 402.244 734.346 368.442Z" fill="#653024"/>
<path fill-rule="evenodd" clip-rule="evenodd" d="M900 650L925 500L900 250C900 111.929 720.914 0 500 0C279.086 0 100 111.929 100 250L75 400L100 750C100 888.071 279.086 1000 500 1000C720.914 1000 875 925 900 750V650ZM398.648 415.769C388.853 441.949 390.14 472.645 408.709 501.892C417.576 515.858 432.393 538.463 446.967 553.038C466.309 572.38 488.078 586.744 513.194 594.091C538.056 601.364 559.737 599.794 574.156 597.873C578.172 597.339 581.553 596.882 584.391 596.491C584.841 597.5 585.297 598.506 585.751 599.487C591.075 610.98 601.435 631.357 621.653 648.099C643.987 666.595 671.166 675.005 700 675.005C747.209 675.005 782.318 650.854 804.468 621.391C824.646 594.549 835.175 562.505 841.263 535.555C853.598 480.944 853.53 419.536 852.189 383.344C850.838 346.912 832.427 319.837 807.229 304.105C819.682 285.118 825 266.582 825 250C825 223.448 811.364 191.886 776.638 161.485L733.038 242.729C723.244 260.977 700.511 267.832 682.262 258.038C664.014 248.245 657.159 225.512 666.953 207.263L713.533 120.467C686.41 107.185 655.196 96.1548 620.837 88.2864L567.879 192.044C558.463 210.491 535.877 217.812 517.43 208.397C498.983 198.981 491.662 176.395 501.077 157.948L542.605 76.5852C528.712 75.5428 514.495 75 500 75C476.597 75 453.921 76.4148 432.159 79.063L358.067 217.674C348.304 235.939 325.582 242.831 307.317 233.068C289.052 223.304 282.16 200.583 291.923 182.318L335.69 100.44C305.973 110.353 279.445 122.737 256.907 136.823C197.157 174.167 175 216.155 175 250C175 283.845 197.157 325.833 256.907 363.177C294.362 386.586 342.835 405.295 398.648 415.769ZM237.5 500.005C237.5 479.294 220.711 462.505 200 462.505C179.289 462.505 162.5 479.294 162.5 500.005V750.005C162.5 770.716 179.289 787.505 200 787.505C220.711 787.505 237.5 770.716 237.5 750.005V500.005ZM387.5 625.005C387.5 604.294 370.711 587.505 350 587.505C329.289 587.505 312.5 604.294 312.5 625.005V725.005C312.5 745.716 329.289 762.505 350 762.505C370.711 762.505 387.5 745.716 387.5 725.005V625.005Z" fill="#653024"/>
</svg>
