<svg width="1000" height="1000" viewBox="0 0 1000 1000" fill="none" xmlns="http://www.w3.org/2000/svg">
<g clip-path="url(#clip0_1648_3524)">
<path fill-rule="evenodd" clip-rule="evenodd" d="M500 1000C776.142 1000 1000 776.142 1000 500C1000 223.858 776.142 0 500 0C223.858 0 0 223.858 0 500C0 776.142 223.858 1000 500 1000ZM360.577 336.854C379.443 280.231 413.712 228.204 446.722 190.226C463.165 171.308 478.653 156.621 490.822 147.024C496.48 142.562 500.879 139.63 503.896 137.918C512.666 139.715 526.675 147.906 543.533 173.912C552.819 188.235 561.859 206.43 570.187 228.296C575.582 242.46 580.614 257.995 585.19 274.765C591.909 299.386 597.601 326.506 602.021 355.628C605.129 376.104 624.248 390.183 644.724 387.075C665.201 383.967 679.28 364.848 676.172 344.372C671.361 312.682 665.1 282.706 657.545 255.021C652.397 236.158 646.629 218.282 640.275 201.6C634.4 186.177 627.968 171.623 620.978 158.167C642.023 165.615 662.171 174.952 681.223 185.973C699.15 196.343 722.09 190.217 732.46 172.29C742.831 154.363 736.704 131.423 718.777 121.053C654.389 83.8058 579.626 62.5 500 62.5C424.628 62.5 353.603 81.5912 291.61 115.232C262.437 131.062 235.277 150.106 210.603 171.885C191.702 188.567 174.254 206.858 158.472 226.545C145.518 242.704 148.117 266.305 164.276 279.259C180.436 292.213 204.037 289.615 216.991 273.455C230.08 257.127 244.553 241.954 260.233 228.115C280.702 210.049 303.218 194.263 327.381 181.151C342.48 172.958 358.227 165.805 374.529 159.791C341.772 201.046 309.078 254.154 289.423 313.146C282.876 332.795 293.497 354.03 313.146 360.577C332.795 367.124 354.03 356.503 360.577 336.854ZM853.969 242.829C841.783 226.082 818.329 222.386 801.583 234.571C784.836 246.757 781.139 270.211 793.325 286.958C810.578 310.667 825.018 336.535 836.164 364.071C846.252 388.993 853.648 415.294 857.99 442.622C861.24 463.076 880.456 477.023 900.91 473.773C921.364 470.523 935.311 451.307 932.061 430.853C926.816 397.844 917.878 366.054 905.684 335.929C892.214 302.653 874.777 271.425 853.969 242.829ZM486.772 382.354C490.833 362.046 477.663 342.29 457.354 338.228C437.046 334.167 417.29 347.337 413.228 367.646C399.853 434.523 399.957 500.6 403.208 549.369C404.843 573.893 407.297 594.372 409.361 608.819C410.394 616.049 411.332 621.788 412.026 625.789C412.372 627.79 412.658 629.358 412.865 630.462L413.113 631.767L413.188 632.152L413.228 632.354C413.228 632.354 413.228 632.354 450 625L413.228 632.354C417.29 652.663 437.046 665.833 457.354 661.772C477.659 657.711 490.826 637.95 486.772 617.646L486.745 617.508L486.586 616.669C486.438 615.881 486.212 614.641 485.924 612.98C485.348 609.657 484.528 604.654 483.607 598.212C481.765 585.316 479.532 566.732 478.042 544.381C475.043 499.4 475.147 440.477 486.772 382.354ZM148.918 409.347C154.08 389.29 142.006 368.846 121.949 363.684C101.892 358.521 81.4477 370.596 76.2854 390.653C67.2796 425.643 62.5 462.291 62.5 500C62.5 523.359 64.334 546.315 67.8725 568.726C71.1024 589.183 90.3047 603.149 110.762 599.919C131.219 596.689 145.185 577.486 141.955 557.029C139.025 538.473 137.5 519.427 137.5 500C137.5 468.65 141.471 438.281 148.918 409.347ZM292.522 422.243C295.218 401.708 280.757 382.876 260.223 380.181C239.688 377.485 220.856 391.946 218.16 412.48C214.446 440.776 212.5 470.049 212.5 500C212.5 527.102 214.093 553.648 217.148 579.415C219.587 599.982 238.236 614.678 258.802 612.239C279.369 609.801 294.065 591.152 291.627 570.585C288.921 547.765 287.5 524.168 287.5 500C287.5 473.29 289.236 447.278 292.522 422.243ZM785.452 447.086C783.843 426.438 765.8 411.004 745.152 412.613C724.504 414.223 709.07 432.266 710.679 452.914C711.88 468.322 712.5 484.037 712.5 500C712.5 550.033 706.41 597.573 695.473 640.803C690.393 660.881 702.552 681.275 722.63 686.355C742.708 691.434 763.103 679.276 768.182 659.198C780.684 609.784 787.5 556.057 787.5 500C787.5 482.097 786.805 464.438 785.452 447.086ZM637.5 500C637.5 479.289 620.711 462.5 600 462.5C579.289 462.5 562.5 479.289 562.5 500C562.5 525.049 561.911 549.528 560.787 573.224C559.806 593.911 575.781 611.477 596.469 612.458C617.156 613.439 634.722 597.464 635.703 576.776C636.883 551.884 637.5 526.22 637.5 500ZM905.684 664.071C913.455 644.873 904.192 623.011 884.995 615.24C865.797 607.469 843.935 616.732 836.164 635.929C825.018 663.465 810.578 689.333 793.325 713.042C781.571 729.195 768.514 744.343 754.307 758.33C732.462 779.836 707.912 798.588 681.223 814.027C662.164 825.052 642.015 834.387 620.978 841.833C635.881 813.145 648.35 779.28 658.297 742.2C663.664 722.196 651.798 701.63 631.795 696.264C611.792 690.897 591.225 702.763 585.859 722.766C572.908 771.039 556.47 808.255 539.179 832.499C521.337 857.515 507.437 862.5 500 862.5C476.939 862.5 450.905 849.671 424.782 817.692C398.744 785.82 375.671 738.225 359.75 678.691C354.4 658.683 333.843 646.801 313.835 652.152C293.827 657.502 281.946 678.059 287.296 698.067C305.054 764.472 332.018 822.688 366.699 865.141C401.293 907.489 446.659 937.5 500 937.5C539.773 937.5 578.364 932.183 615.072 922.199C651.795 912.212 686.589 897.567 718.777 878.947C750.991 860.312 780.596 837.696 806.925 811.775C824.05 794.915 839.793 776.653 853.969 757.171C874.777 728.576 892.214 697.347 905.684 664.071ZM191.064 689.752C180.207 672.116 157.107 666.62 139.471 677.478C121.835 688.336 116.34 711.435 127.197 729.071C157.3 777.968 196.743 820.476 243.043 854.125C259.796 866.301 283.248 862.59 295.424 845.837C307.6 829.083 303.889 805.631 287.135 793.456C248.732 765.546 216.017 730.282 191.064 689.752Z" fill="#653024"/>
</g>
<defs>
<clipPath id="clip0_1648_3524">
<rect width="1000" height="1000" fill="white"/>
</clipPath>
</defs>
</svg>
