<svg width="1000" height="1000" viewBox="0 0 1000 1000" fill="none" xmlns="http://www.w3.org/2000/svg">
<g clip-path="url(#clip0_1648_3522)">
<path fill-rule="evenodd" clip-rule="evenodd" d="M516.462 233.229C507.199 251.754 514.708 274.279 533.232 283.541L571.183 302.517C578.815 306.332 580.465 316.503 574.432 322.536L563.128 333.839C560.784 336.183 557.605 337.5 554.29 337.5H450.004C443.1 337.5 437.504 331.903 437.504 325L437.505 300.001C437.506 279.291 420.717 262.501 400.006 262.5C379.296 262.499 362.506 279.288 362.505 299.999L362.504 324.997C362.503 373.323 401.678 412.5 450.004 412.5H554.29C577.496 412.5 599.751 403.282 616.161 386.873L627.464 375.57C669.696 333.339 658.143 262.144 604.724 235.435L566.773 216.459C548.249 207.197 525.724 214.705 516.462 233.229Z" fill="#653024"/>
<path fill-rule="evenodd" clip-rule="evenodd" d="M500 1000C776.142 1000 1000 776.142 1000 500C1000 223.858 776.142 0 500 0C223.858 0 0 223.858 0 500C0 776.142 223.858 1000 500 1000ZM137.505 337.5C137.505 269.107 174.38 204.33 239.663 155.368C304.956 106.398 396.878 75 500.005 75C603.133 75 695.054 106.398 760.348 155.368C825.63 204.33 862.505 269.107 862.505 337.5C862.505 405.893 825.63 470.67 760.348 519.632C695.054 568.602 603.133 600 500.005 600C396.878 600 304.956 568.602 239.663 519.632C174.38 470.67 137.505 405.893 137.505 337.5ZM905.69 664.071C913.461 644.873 904.198 623.011 885 615.24C865.802 607.469 843.94 616.732 836.169 635.929C825.023 663.465 810.584 689.333 793.331 713.042C781.577 729.195 768.519 744.343 754.312 758.33C732.468 779.836 707.917 798.588 681.228 814.027C662.169 825.052 642.02 834.387 620.983 841.833C635.887 813.145 648.355 779.28 658.303 742.2C663.669 722.196 651.804 701.63 631.8 696.264C611.797 690.897 591.231 702.763 585.864 722.766C572.914 771.039 556.475 808.255 539.184 832.499C521.342 857.515 507.443 862.5 500.005 862.5C476.944 862.5 450.911 849.671 424.787 817.692C398.749 785.82 375.676 738.225 359.755 678.691C354.405 658.683 333.848 646.801 313.84 652.152C293.833 657.502 281.951 678.059 287.301 698.067C305.059 764.472 332.023 822.688 366.704 865.141C401.299 907.489 446.664 937.5 500.005 937.5C539.779 937.5 578.369 932.183 615.077 922.199C651.8 912.212 686.594 897.567 718.782 878.947C750.996 860.313 780.602 837.696 806.93 811.775C824.055 794.915 839.798 776.653 853.974 757.171C874.783 728.576 892.22 697.347 905.69 664.071ZM191.07 689.752C180.212 672.116 157.113 666.62 139.476 677.478C121.84 688.336 116.345 711.435 127.203 729.071C157.306 777.968 196.748 820.476 243.048 854.125C259.801 866.301 283.253 862.59 295.429 845.837C307.605 829.083 303.894 805.631 287.141 793.456C248.738 765.546 216.022 730.282 191.07 689.752Z" fill="#653024"/>
</g>
<defs>
<clipPath id="clip0_1648_3522">
<rect width="1000" height="1000" fill="white"/>
</clipPath>
</defs>
</svg>
