<svg width="1000" height="1000" viewBox="0 0 1000 1000" fill="none" xmlns="http://www.w3.org/2000/svg">
<g clip-path="url(#clip0_1648_3526)">
<path d="M683.229 233.543C664.705 224.281 657.197 201.756 666.459 183.231C675.721 164.707 698.246 157.199 716.771 166.461C776.591 196.371 807.138 241.876 822.318 279.825C829.829 298.603 833.597 315.514 835.501 327.894C836.458 334.108 836.956 339.257 837.216 343.027C837.346 344.915 837.417 346.465 837.455 347.638L837.492 349.114L837.498 349.633L837.5 349.836L837.5 349.924V350.002C837.5 370.713 820.711 387.502 800 387.502C779.382 387.502 762.65 370.862 762.501 350.279L762.496 350.096C762.485 349.78 762.459 349.132 762.394 348.187C762.263 346.293 761.98 343.24 761.374 339.298C760.153 331.365 757.671 320.151 752.682 307.679C742.862 283.128 723.409 253.633 683.229 233.543Z" fill="#653024"/>
<path d="M333.541 183.231C342.803 201.756 335.295 224.281 316.771 233.543C276.591 253.633 257.138 283.128 247.318 307.679C242.329 320.151 239.847 331.365 238.626 339.298C238.02 343.24 237.737 346.293 237.606 348.187C237.541 349.132 237.515 349.78 237.504 350.096L237.499 350.279C237.35 370.862 220.618 387.502 200 387.502C179.289 387.502 162.5 370.713 162.5 350.002V349.924L162.5 349.836L162.502 349.633L162.508 349.114L162.545 347.638C162.583 346.465 162.654 344.915 162.784 343.027C163.044 339.257 163.543 334.108 164.499 327.894C166.403 315.514 170.171 298.603 177.682 279.825C192.862 241.876 223.409 196.371 283.229 166.461C301.754 157.199 324.279 164.707 333.541 183.231Z" fill="#653024"/>
<path fill-rule="evenodd" clip-rule="evenodd" d="M206.788 724.377C82.1503 704.306 0 574.953 0 400.005C0 264.834 54.6967 135.571 151.603 64.215C200.662 28.0915 259.965 7.47419 325.768 9.51402C350.543 9.51402 375.514 19.7676 394.208 29.9547C413.423 40.4258 437.402 41.7339 455.61 29.5953L472.265 18.492C489.06 7.2953 510.94 7.29533 527.735 18.492L544.389 29.5951C562.597 41.7338 586.576 40.4257 605.792 29.9545C624.486 19.7672 649.456 9.51345 674.232 9.51345C740.035 7.47321 799.338 28.0899 848.396 64.2129C945.303 135.568 1000 264.83 1000 400.001C1000 574.95 917.85 704.303 793.213 724.375C763.986 881.948 643.81 1000 500 1000C356.191 1000 236.015 881.949 206.788 724.377ZM550 287.704C550 203.372 593.039 112.079 677.331 109.465C719.34 108.163 756.912 121.035 789.104 144.738C854.697 193.036 900 288.776 900 400.001C900 531.352 849.706 597.657 798.844 619.068C786.881 459.691 683.357 330.943 550 304.841V287.704ZM450 304.841V287.703C450 203.371 406.961 112.079 322.67 109.466C280.66 108.164 243.088 121.036 210.897 144.74C145.303 193.039 100 288.78 100 400.005C100 531.356 150.294 597.66 201.156 619.07C213.118 459.692 316.642 330.943 450 304.841ZM484.967 453.045C486.649 432.403 471.278 414.306 450.636 412.624C429.994 410.942 411.897 426.313 410.215 446.955C403.303 531.789 409.965 602.385 420.923 657.334C424.974 677.645 444.722 690.826 465.033 686.776C485.344 682.725 498.525 662.977 494.475 642.666C484.799 594.149 478.653 530.544 484.967 453.045ZM687.5 525C687.5 504.289 670.711 487.5 650 487.5C629.289 487.5 612.5 504.289 612.5 525C612.5 581.34 594.753 625.265 572.403 658.624C560.875 675.83 565.478 699.123 582.684 710.651C599.89 722.179 623.183 717.576 634.711 700.37C664.141 656.444 687.5 598.217 687.5 525ZM356.202 729.199C344.714 711.966 321.431 707.31 304.199 718.798C286.966 730.286 282.31 753.569 293.798 770.801C330.496 825.847 392.79 831.46 434.364 827.995C440.61 827.475 446.677 826.735 452.483 825.852C446.538 842.503 437.382 859.585 423.484 873.483C408.839 888.128 408.839 911.872 423.484 926.517C438.128 941.161 461.872 941.161 476.517 926.517C504.289 898.744 519.162 865.637 527.224 838.484C528.673 839.174 530.147 839.852 531.645 840.518C566.749 856.12 618.894 865.807 670.801 831.202C688.034 819.714 692.69 796.431 681.202 779.199C669.714 761.966 646.431 757.31 629.199 768.798C606.106 784.193 583.251 781.38 562.105 771.982C551.431 767.238 542.233 761.149 535.617 756.109C532.362 753.629 529.87 751.508 528.283 750.097C527.493 749.395 526.937 748.878 526.635 748.591L526.383 748.35C515.795 737.868 499.999 734.646 486.147 740.152L486.094 740.174L485.417 740.431C484.758 740.678 483.68 741.073 482.231 741.577C479.324 742.586 474.967 744.013 469.535 745.541C458.536 748.635 443.8 751.949 428.136 753.255C394.71 756.04 369.504 749.153 356.202 729.199Z" fill="#653024"/>
</g>
<defs>
<clipPath id="clip0_1648_3526">
<rect width="1000" height="1000" fill="white"/>
</clipPath>
</defs>
</svg>
