<svg width="300" height="83" viewBox="0 0 300 83" fill="none" xmlns="http://www.w3.org/2000/svg">
<path d="M34.1731 54.4747C34.5101 55.1206 34.6786 55.6985 34.6786 56.2084C34.7123 56.6843 34.5775 57.1092 34.2742 57.4831C33.971 57.823 33.4655 58.1799 32.7579 58.5539C31.6796 59.0638 30.8372 59.1997 30.2307 58.9618C29.6578 58.7238 29.1187 58.061 28.6132 56.9732L17.3418 32.9573L6.12094 56.9732C5.61549 58.027 5.0595 58.6558 4.45297 58.8598C3.84644 59.0977 3.00403 58.9788 1.92575 58.5029C1.25182 58.1629 0.746374 57.806 0.40941 57.4321C0.106143 57.0582 -0.0286419 56.6163 0.00505445 56.1064C0.0724471 55.5625 0.291473 54.9166 0.662133 54.1688L14.5619 24.952C14.8314 24.4082 15.2189 23.9833 15.7244 23.6773C16.2635 23.3374 16.8195 23.1674 17.3924 23.1674C17.7967 23.1674 18.1674 23.2354 18.5043 23.3714C18.8413 23.5074 19.1446 23.7113 19.4141 23.9833C19.7174 24.2552 19.9701 24.5951 20.1723 25.003L34.1731 54.4747ZM8.3449 49.5288L10.771 44.2769H23.9631L26.3893 49.5288H8.3449Z" fill="white"/>
<path d="M41.151 58.7578C40.2075 58.7578 39.5168 58.6218 39.0787 58.3499C38.6407 58.078 38.3711 57.704 38.27 57.2281C38.1689 56.7183 38.1184 56.1914 38.1184 55.6475V26.2268C38.1184 25.6829 38.1689 25.19 38.27 24.7481C38.4048 24.2722 38.6912 23.8983 39.1293 23.6263C39.5673 23.3204 40.2581 23.1674 41.2016 23.1674H51.917C53.3996 23.1674 54.8486 23.4224 56.2638 23.9323C57.6791 24.4422 58.9427 25.207 60.0547 26.2268C61.2003 27.2466 62.0933 28.5043 62.7335 30C63.4075 31.4956 63.7444 33.2463 63.7444 35.2518C63.7444 37.2234 63.4075 38.9571 62.7335 40.4527C62.0933 41.9144 61.2003 43.1552 60.0547 44.1749C58.909 45.1947 57.6285 45.9596 56.2133 46.4694C54.8317 46.9793 53.3828 47.2343 51.8665 47.2343H44.2343V55.6985C44.2343 56.2424 44.1669 56.7522 44.0321 57.2281C43.931 57.704 43.6614 58.078 43.2234 58.3499C42.819 58.6218 42.1282 58.7578 41.151 58.7578ZM44.2343 41.0136H51.917C52.9616 41.0136 53.9051 40.8097 54.7475 40.4017C55.6236 39.9598 56.3312 39.314 56.8704 38.4642C57.4095 37.5803 57.6791 36.4756 57.6791 35.1499C57.6791 33.9601 57.4264 32.9403 56.9209 32.0905C56.4492 31.2067 55.7752 30.5269 54.8991 30.051C54.0567 29.5751 53.0458 29.3371 51.8665 29.3371H44.2343V41.0136Z" fill="white"/>
<path d="M95.9223 54.4747C96.2593 55.1206 96.4278 55.6985 96.4278 56.2084C96.4615 56.6843 96.3267 57.1092 96.0234 57.4831C95.7201 57.823 95.2147 58.1799 94.5071 58.5539C93.4288 59.0638 92.5864 59.1997 91.9798 58.9618C91.407 58.7238 90.8679 58.061 90.3624 56.9732L79.091 32.9573L67.8701 56.9732C67.3647 58.027 66.8087 58.6558 66.2021 58.8598C65.5956 59.0977 64.7532 58.9788 63.6749 58.5029C63.001 58.1629 62.4955 57.806 62.1586 57.4321C61.8553 57.0582 61.7205 56.6163 61.7542 56.1064C61.8216 55.5625 62.0407 54.9166 62.4113 54.1688L76.311 24.952C76.5806 24.4082 76.9681 23.9833 77.4736 23.6773C78.0127 23.3374 78.5687 23.1674 79.1415 23.1674C79.5459 23.1674 79.9166 23.2354 80.2535 23.3714C80.5905 23.5074 80.8937 23.7113 81.1633 23.9833C81.4666 24.2552 81.7193 24.5951 81.9215 25.003L95.9223 54.4747ZM70.0941 49.5288L72.5202 44.2769H85.7123L88.1385 49.5288H70.0941Z" fill="white"/>
<path d="M102.647 58.7578C101.771 58.7578 101.114 58.6049 100.676 58.2989C100.238 58.027 99.9518 57.653 99.817 57.1772C99.6822 56.7013 99.6148 56.1914 99.6148 55.6475V26.1758C99.6148 25.6319 99.6654 25.139 99.7665 24.6971C99.9013 24.2212 100.188 23.8473 100.626 23.5753C101.064 23.2694 101.755 23.1164 102.698 23.1164L112.2 23.1674C114.66 23.1674 116.918 23.5923 118.973 24.4422C121.063 25.292 122.865 26.4987 124.382 28.0624C125.898 29.626 127.06 31.4956 127.869 33.6712C128.712 35.8127 129.133 38.1752 129.133 40.7587C129.133 43.4101 128.712 45.8406 127.869 48.0501C127.027 50.2596 125.847 52.1632 124.331 53.7609C122.815 55.3585 121.012 56.5993 118.923 57.4831C116.867 58.3329 114.576 58.7578 112.049 58.7578H102.647ZM105.731 52.5881H112.2C114.357 52.5881 116.244 52.1122 117.861 51.1604C119.479 50.1747 120.726 48.8149 121.602 47.0813C122.511 45.3477 122.966 43.3251 122.966 41.0136C122.966 38.6681 122.511 36.6285 121.602 34.8949C120.726 33.1273 119.462 31.7676 117.811 30.8158C116.193 29.83 114.306 29.3371 112.15 29.3371H105.731V52.5881Z" fill="white"/>
<path d="M137.457 58.7578C136.513 58.7578 135.823 58.6218 135.385 58.3499C134.98 58.078 134.711 57.704 134.576 57.2281C134.475 56.7183 134.424 56.1914 134.424 55.6475V26.2268C134.424 25.6829 134.492 25.19 134.626 24.7481C134.761 24.2722 135.031 23.8983 135.435 23.6263C135.873 23.3204 136.564 23.1674 137.507 23.1674H148.324C149.874 23.1674 151.34 23.4224 152.721 23.9323C154.137 24.4082 155.4 25.156 156.512 26.1758C157.624 27.1616 158.5 28.4193 159.14 29.949C159.814 31.4447 160.151 33.1953 160.151 35.2009C160.151 36.5266 159.949 37.8523 159.545 39.178C159.14 40.4697 158.534 41.6765 157.725 42.7982C156.95 43.886 155.956 44.8208 154.743 45.6026C153.53 46.3845 152.098 46.8944 150.447 47.1323H140.54V55.6985C140.54 56.2424 140.473 56.7522 140.338 57.2281C140.237 57.704 139.967 58.078 139.529 58.3499C139.125 58.6218 138.434 58.7578 137.457 58.7578ZM158.989 57.993C158.012 58.6728 157.203 58.9278 156.563 58.7578C155.956 58.5879 155.35 58.044 154.743 57.1262L146.252 44.1749L153.075 43.2571L159.798 53.5569C160.269 54.2368 160.556 54.8147 160.657 55.2906C160.758 55.7665 160.674 56.2084 160.404 56.6163C160.134 57.0242 159.663 57.4831 158.989 57.993ZM140.54 41.0136H149.082C149.689 41.0136 150.278 40.9116 150.851 40.7077C151.458 40.4697 151.997 40.1128 152.469 39.6369C152.94 39.127 153.311 38.5151 153.581 37.8013C153.884 37.0535 154.035 36.1696 154.035 35.1499C154.035 33.9261 153.8 32.8893 153.328 32.0395C152.856 31.1557 152.182 30.4929 151.306 30.051C150.464 29.5751 149.436 29.3371 148.223 29.3371H140.54V41.0136Z" fill="white"/>
<path d="M168.196 58.8088C167.253 58.8088 166.562 58.6558 166.124 58.3499C165.686 58.078 165.416 57.704 165.315 57.2281C165.214 56.7522 165.164 56.2254 165.164 55.6475V26.2268C165.164 25.6829 165.214 25.173 165.315 24.6971C165.45 24.2212 165.72 23.8473 166.124 23.5753C166.562 23.3034 167.27 23.1674 168.247 23.1674C169.19 23.1674 169.864 23.3034 170.269 23.5753C170.707 23.8473 170.976 24.2212 171.077 24.6971C171.212 25.173 171.279 25.6999 171.279 26.2778V55.6985C171.279 56.2764 171.212 56.8032 171.077 57.2791C170.976 57.721 170.707 58.078 170.269 58.3499C169.83 58.6558 169.14 58.8088 168.196 58.8088Z" fill="white"/>
<path d="M202.851 23.1164C203.357 23.1164 203.795 23.1674 204.165 23.2694C204.57 23.3714 204.89 23.6263 205.126 24.0342C205.362 24.4082 205.479 25.02 205.479 25.8698C205.479 26.7197 205.362 27.3485 205.126 27.7564C204.89 28.1304 204.57 28.3683 204.165 28.4703C203.761 28.5383 203.306 28.5723 202.801 28.5723H193.5V55.7495C193.5 56.3273 193.433 56.8542 193.298 57.3301C193.197 57.772 192.928 58.1289 192.49 58.4009C192.085 58.6728 191.394 58.8088 190.417 58.8088C189.507 58.8088 188.833 58.6558 188.395 58.3499C187.957 58.078 187.688 57.721 187.587 57.2791C187.486 56.8032 187.435 56.2764 187.435 55.6985V28.5723H178.034C177.562 28.5723 177.124 28.5213 176.72 28.4193C176.315 28.3173 175.978 28.0794 175.709 27.7055C175.473 27.3315 175.355 26.7197 175.355 25.8698C175.355 25.02 175.473 24.4082 175.709 24.0342C175.945 23.6263 176.265 23.3714 176.669 23.2694C177.107 23.1674 177.562 23.1164 178.034 23.1164H202.851Z" fill="white"/>
<path d="M262.58 70.7308L257.444 81.0023C257.171 81.5488 257.568 82.1918 258.179 82.1918H268.038C268.599 82.1918 268.995 81.6422 268.818 81.11L267.225 76.3334C266.246 73.3966 268.758 70.4009 271.851 70.5286C276.402 70.7164 281.863 70.3558 283.562 67.8082C285.385 65.074 287.511 62.3398 288.729 60.8159C289.122 60.3251 288.772 59.5891 288.143 59.5891C285.335 59.5891 282.917 61.2949 281.152 63.4788C278.055 67.3106 274.739 67.083 270.374 64.4587C269.834 64.1336 269.897 63.3729 270.514 63.2377C274.237 62.4212 278.804 64.5816 279.389 58.8654C279.452 58.2576 278.807 57.8558 278.249 58.1035C275.296 59.4132 273.366 59.5683 270.424 59.5866C269.612 59.5917 268.818 59.8292 268.143 60.2793L264.844 62.4787C263.7 63.2409 263.014 64.524 263.014 65.8981V68.8929C263.014 69.5309 262.865 70.1601 262.58 70.7308Z" fill="white"/>
<path d="M259.614 72.5523L260.713 70.355C262.045 67.6903 261.281 64.4542 258.898 62.6667L255.89 60.411C255.179 59.8775 254.313 59.5926 253.424 59.5858C250.551 59.5636 248.634 59.3945 245.724 58.1035C245.165 57.8558 244.521 58.2576 244.583 58.8654C245.169 64.5816 249.736 62.4212 253.459 63.2377C254.076 63.3729 254.139 64.1336 253.598 64.4587C249.233 67.083 245.918 67.3106 242.821 63.4788C241.056 61.2949 238.637 59.5891 235.829 59.5891C235.201 59.5891 234.851 60.3251 235.243 60.8159C236.462 62.3398 238.588 65.074 240.411 67.8082C242.564 71.0374 249.756 70.7529 253.878 70.2914C255.646 70.0935 257.399 70.9618 258.194 72.5523C258.487 73.1375 259.322 73.1375 259.614 72.5523Z" fill="white"/>
<path d="M254.795 46.2325C254.795 46.7999 254.335 47.2599 253.767 47.2599C253.2 47.2599 252.74 46.7999 252.74 46.2325C252.74 45.6651 253.2 45.2051 253.767 45.2051C254.335 45.2051 254.795 45.6651 254.795 46.2325Z" fill="white"/>
<path d="M243.141 47.1029L243.219 47.4114C243.754 49.5525 242.134 51.6266 239.927 51.6266C239.258 51.6266 238.603 51.4284 238.046 51.0569L236.247 49.8574C235.998 49.692 235.764 49.5106 235.544 49.315H236.635C237.585 49.315 238.356 48.5443 238.356 47.5936C238.356 46.4187 239.507 45.5891 240.622 45.9606L243.04 46.7667C243.079 46.8768 243.113 46.989 243.141 47.1029Z" fill="white"/>
<path d="M238.685 41.7353C238.609 41.6303 238.535 41.5239 238.463 41.416L235.889 37.5547C235.545 37.0391 234.967 36.7294 234.347 36.7294C233.219 36.7294 232.353 37.7284 232.512 38.845L232.927 41.7483C233.557 41.3193 234.461 41.3107 235.098 41.9469L235.274 42.1232C235.841 42.6906 236.761 42.6906 237.329 42.1232C237.697 41.7552 238.213 41.6259 238.685 41.7353Z" fill="white"/>
<path fill-rule="evenodd" clip-rule="evenodd" d="M278.074 4.15361C276.601 4.2511 275.126 3.88089 273.873 3.09979C270.723 1.13515 267.001 0 263.014 0C259.027 0 255.305 1.13515 252.154 3.09979C250.901 3.88089 249.426 4.25111 247.953 4.15361C247.498 4.12347 247.038 4.10816 246.575 4.10816C235.227 4.10816 226.027 13.3046 226.027 24.649C226.027 26.894 226.388 29.0549 227.054 31.0771C227.567 32.6348 227.516 34.3342 226.973 35.8815C226.36 37.6242 226.027 39.4983 226.027 41.4501C226.027 50.8842 234.574 58.0149 243.86 56.3273L247.04 55.7492C248.086 55.5591 249.162 55.6121 250.184 55.9041L259.627 58.601C261.84 59.2333 264.187 59.2333 266.401 58.601L275.843 55.9041C276.866 55.6121 277.941 55.5591 278.987 55.7492L282.168 56.3273C291.453 58.0149 300 50.8842 300 41.4501C300 39.4983 299.667 37.6242 299.055 35.8815C298.511 34.3342 298.461 32.6348 298.974 31.0771C299.64 29.0549 300 26.894 300 24.649C300 13.3046 290.8 4.10816 279.452 4.10816C278.989 4.10816 278.53 4.12347 278.074 4.15361ZM259.138 7.33193L259.776 10.5255C260.523 14.2561 262.949 17.4334 266.352 19.1348L268.075 19.9964C268.429 20.173 268.803 19.7983 268.627 19.445L265.663 13.5181C265.39 12.9716 265.787 12.3286 266.398 12.3286H266.567C266.903 12.3286 267.205 12.5332 267.33 12.8453L270.711 21.2981C271.049 22.1437 271.097 23.0777 270.847 23.9534L267.423 35.9384C267.273 36.4634 267.667 36.9861 268.213 36.9861H270.411C270.865 36.9861 271.233 36.6181 271.233 36.1642V31.9851C271.233 31.2633 271.612 30.5945 272.231 30.2231L280.262 25.4042C280.81 25.0755 281.507 25.4701 281.507 26.109V26.2221C281.507 26.524 281.341 26.8016 281.076 26.9452L277.277 28.9985C277.033 29.1306 277.007 29.471 277.228 29.6386C279.322 31.2228 282.352 30.2698 283.162 27.7726L284.38 24.0194C284.501 23.6443 284.339 23.2357 283.994 23.0457L282.759 22.3664C280.889 21.3379 278.543 21.9119 277.359 23.6877L275.403 26.6213C275.363 26.6808 275.309 26.729 275.245 26.7609L272.12 28.3232C271.793 28.487 271.431 28.173 271.547 27.8257L272.211 25.8323C272.9 23.7643 272.74 21.5072 271.765 19.5575L271.276 18.5797C271.248 18.5227 271.233 18.4598 271.233 18.396V15.1817C271.233 11.1639 268.328 7.7349 264.365 7.07437L260.079 6.36001C259.511 6.26545 259.025 6.76791 259.138 7.33193ZM237.329 9.24657C237.329 8.67915 237.789 8.21917 238.356 8.21917C238.969 8.21917 239.571 8.22915 240.163 8.24919C240.243 8.22958 240.326 8.21917 240.411 8.21917C250.556 8.21917 256.975 11.8925 260.623 17.0478C264.237 22.1539 265.018 28.5546 264.242 33.856C264.088 34.9045 263.57 35.8282 262.86 36.5378L261.698 37.7005C261.674 37.7249 261.649 37.748 261.623 37.7699C261.51 37.8659 261.382 37.9336 261.246 37.9728C261.111 38.0123 260.966 38.0244 260.82 38.0042C260.697 37.9875 260.576 37.9483 260.464 37.8868C260.353 37.8257 260.255 37.7452 260.175 37.6507C260.079 37.5377 260.012 37.4089 259.972 37.2735C259.933 37.1385 259.921 36.9937 259.941 36.8471C259.946 36.8134 259.952 36.7798 259.96 36.7466C261.319 30.6185 261.275 25.6471 260.011 21.7493C259.138 22.0259 258.326 22.3548 257.576 22.7351C258.352 23.0287 258.904 23.7787 258.904 24.6575C258.904 25.7923 257.984 26.7123 256.849 26.7123C255.714 26.7123 254.795 25.7923 254.795 24.6575C254.795 24.6497 254.795 24.6419 254.795 24.6341C254.108 25.2611 253.513 25.9603 253.013 26.7303C254.019 26.8641 254.795 27.725 254.795 28.7671C254.795 29.9019 253.875 30.8219 252.74 30.8219C252.262 30.8219 251.823 30.6589 251.474 30.3856C251.227 31.414 251.087 32.5321 251.064 33.7425C251.436 33.2185 252.048 32.8767 252.74 32.8767C253.875 32.8767 254.795 33.7966 254.795 34.9314C254.795 36.0663 253.875 36.9862 252.74 36.9862C252.111 36.9862 251.548 36.7036 251.171 36.2583C251.254 37.0904 251.385 37.959 251.566 38.8647C251.664 39.3515 251.348 39.8251 250.861 39.9225C250.374 40.0199 249.901 39.7041 249.803 39.2173C249.771 39.0554 249.74 38.8945 249.71 38.7344C249.397 38.9288 249.026 39.041 248.63 39.041C247.495 39.041 246.575 38.1211 246.575 36.9862C246.575 35.8514 247.495 34.9314 248.63 34.9314C248.858 34.9314 249.077 34.9685 249.282 35.037C249.215 33.4448 249.319 31.9593 249.59 30.5842C249.304 30.7359 248.977 30.8219 248.63 30.8219C247.495 30.8219 246.575 29.9019 246.575 28.7671C246.575 27.6322 247.495 26.7123 248.63 26.7123C249.408 26.7123 250.086 27.1449 250.434 27.7828C250.656 27.2534 250.909 26.7454 251.193 26.2593C251.532 25.6766 251.914 25.1295 252.335 24.6176C251.394 24.4296 250.685 23.599 250.685 22.6027C250.685 21.4679 251.605 20.5479 252.74 20.5479C253.784 20.5479 254.647 21.3273 254.777 22.3362C256.105 21.3791 257.643 20.6252 259.362 20.0695C258.82 18.8756 258.145 17.7999 257.344 16.8392C256.894 16.2985 256.4 15.7897 255.862 15.3133C255.425 15.3405 254.984 15.3856 254.541 15.4489C254.703 15.7424 254.795 16.0796 254.795 16.4383C254.795 17.5732 253.875 18.4931 252.74 18.4931C251.617 18.4931 250.704 17.5921 250.685 16.4735C249.389 16.9877 248.136 17.6722 246.987 18.5344C247.925 18.7252 248.63 19.5542 248.63 20.5479C248.63 21.6827 247.71 22.6027 246.575 22.6027C245.543 22.6027 244.689 21.8421 244.543 20.851C243.632 21.9432 242.851 23.2115 242.26 24.6676C242.328 24.6609 242.396 24.6575 242.466 24.6575C243.601 24.6575 244.521 25.5774 244.521 26.7123C244.521 27.8471 243.601 28.7671 242.466 28.7671C242.014 28.7671 241.597 28.6214 241.258 28.3746C241.114 29.3229 241.04 30.3288 241.043 31.3941C241.412 31.0397 241.914 30.8219 242.466 30.8219C243.601 30.8219 244.521 31.7418 244.521 32.8767C244.521 34.0115 243.601 34.9314 242.466 34.9314C242.017 34.9314 241.602 34.7875 241.264 34.5434C241.275 34.6302 241.287 34.7173 241.3 34.8048C241.37 35.2963 241.029 35.7516 240.537 35.8218C240.046 35.892 239.59 35.5505 239.52 35.059C239.402 34.2337 239.323 33.4331 239.281 32.657C239.003 32.7975 238.689 32.8767 238.356 32.8767C237.221 32.8767 236.301 31.9567 236.301 30.8219C236.301 29.687 237.221 28.7671 238.356 28.7671C238.722 28.7671 239.065 28.8626 239.363 29.03C239.475 27.9581 239.664 26.9437 239.924 25.9861C239.547 26.4303 238.984 26.7123 238.356 26.7123C237.221 26.7123 236.301 25.7923 236.301 24.6575C236.301 23.5227 237.221 22.6027 238.356 22.6027C239.432 22.6027 240.315 23.4296 240.404 24.4826C240.944 23.0222 241.656 21.7116 242.501 20.5476C242.489 20.5478 242.478 20.5479 242.466 20.5479C241.331 20.5479 240.411 19.628 240.411 18.4931C240.411 17.3583 241.331 16.4383 242.466 16.4383C243.526 16.4383 244.398 17.241 244.509 18.2718C245.419 17.4173 246.409 16.6833 247.449 16.065C246.921 15.6932 246.575 15.0787 246.575 14.3835C246.575 13.2487 247.495 12.3288 248.63 12.3288C249.765 12.3288 250.685 13.2487 250.685 14.3835C250.685 14.4418 250.683 14.4995 250.678 14.5566C251.695 14.197 252.729 13.9303 253.757 13.7529C251.964 12.6406 249.829 11.7865 247.348 11.203C245.016 11.3122 242.228 11.7384 239.68 12.8119C240.127 13.1889 240.411 13.753 240.411 14.3835C240.411 15.5184 239.491 16.4383 238.356 16.4383C237.354 16.4383 236.52 15.7213 236.338 14.7723C235.069 15.7946 233.982 17.0985 233.223 18.766C233.524 18.5924 233.874 18.4931 234.247 18.4931C235.381 18.4931 236.301 19.4131 236.301 20.5479C236.301 21.6827 235.381 22.6027 234.247 22.6027C233.415 22.6027 232.699 22.1092 232.376 21.3991C232.173 22.3869 232.063 23.4699 232.063 24.6575V24.6614C232.106 24.6588 232.149 24.6575 232.192 24.6575C233.327 24.6575 234.247 25.5774 234.247 26.7123C234.247 27.8471 233.327 28.7671 232.192 28.7671C231.057 28.7671 230.137 27.8471 230.137 26.7123C230.137 26.2035 230.322 25.7379 230.628 25.3791C230.408 25.2152 230.265 24.953 230.265 24.6575C230.265 18.1505 233.281 14.2666 237.14 12.0619C238.453 11.3116 239.857 10.7587 241.262 10.3564C240.327 10.3016 239.359 10.274 238.356 10.274C237.789 10.274 237.329 9.81398 237.329 9.24657ZM278.601 9.42284L278.813 9.63518C277.951 10.6459 277.592 12.0545 277.937 13.3735L274.275 10.9324C273.979 10.7352 274.119 10.274 274.475 10.274C274.795 10.274 274.955 9.88682 274.729 9.6604L274.315 9.24657C273.936 8.86743 274.204 8.21917 274.74 8.21917H275.695C276.785 8.21917 277.83 8.65215 278.601 9.42284ZM288.875 25.0906C289.572 25.7875 290.402 26.164 291.243 26.2705L290.777 27.6678C290.294 29.1169 288.455 29.551 287.375 28.4709L286.773 27.8691C286.346 27.4422 286.648 26.7123 287.252 26.7123C287.509 26.7123 287.743 26.5673 287.858 26.3377L288.613 24.8287L288.875 25.0906ZM292.162 26.2818L293.897 27.4383C294.548 27.8724 295.38 27.2369 295.133 26.4945L294.673 25.1153C293.995 25.7747 293.1 26.1876 292.162 26.2818ZM279.019 15.2347C278.771 14.9864 278.563 14.7213 278.394 14.4449L277.584 16.0637C277.47 16.2933 277.235 16.4383 276.978 16.4383C276.374 16.4383 276.072 17.1683 276.499 17.5951L277.101 18.197C278.181 19.2771 280.02 18.8429 280.503 17.3938L280.672 16.8878L279.019 15.2347ZM283.561 10.0171L281.925 10.0171C279.865 10.0171 278.834 12.5071 280.29 13.9633L290.146 23.8193C291.602 25.2755 294.092 24.2441 294.092 22.1847V20.5479C294.092 14.7319 289.377 10.0171 283.561 10.0171ZM295.178 39.0407H295.369C295.657 39.0407 295.891 38.8071 295.891 38.5188C295.891 35.1492 293.734 32.1576 290.538 31.0921L290.427 31.0553C290.082 30.9403 289.726 31.197 289.726 31.5606V33.5894C289.726 34.4485 289.385 35.2725 288.777 35.88C288.369 36.2881 287.671 35.999 287.671 35.4218V34.803C287.671 34.092 286.812 33.736 286.309 34.2387L285.998 34.5493C284.385 36.1632 282.521 37.5063 280.48 38.527C279.799 38.8673 279.178 39.315 278.64 39.853L278.55 39.9434C277.812 40.6811 276.811 41.0955 275.768 41.0955H270.458C268.249 41.0955 266.055 41.4516 263.96 42.15L262.378 42.6772C261.855 42.8518 261.803 43.5725 262.297 43.8194C263.828 44.5847 264.448 46.4459 263.683 47.9765L262.581 50.1794C261.655 52.0332 262.253 54.287 263.978 55.4366L265.355 56.3546C265.98 56.7713 266.79 56.2002 266.608 55.4713L265.502 51.0484C265.332 50.3671 266.039 49.7998 266.667 50.1139L267.443 50.5018C268.584 51.0724 269.843 51.3695 271.119 51.3695H273.342C274.667 51.3695 275.984 51.5831 277.241 52.0021L279.625 52.7968C280.319 53.0283 280.947 52.3044 280.62 51.6495L280.004 50.4174C279.827 50.0642 280.202 49.6894 280.555 49.866L282.039 50.6082C283.014 51.0956 284.143 51.1758 285.177 50.8312L287.29 50.1266C288.876 49.5979 290.264 48.5982 291.267 47.2607L294.904 42.4106C295.311 41.8688 294.924 41.0955 294.247 41.0955H293.345C292.768 41.0955 292.479 40.3977 292.887 39.9895C293.494 39.382 294.318 39.0407 295.178 39.0407ZM248.151 44.9425L257.586 43.37C258.443 43.2272 259.323 43.3595 260.1 43.748L260.463 43.9299C261.927 44.6616 262.63 46.358 262.112 47.9102L261.188 50.6811C261.057 51.0744 260.654 51.3085 260.248 51.2272L253.125 49.8027C251.534 49.4845 250.073 48.7024 248.925 47.555L247.705 46.3345C247.232 45.8617 247.491 45.0524 248.151 44.9425ZM231.672 45.677L230.732 39.0993C230.418 36.8995 232.125 34.9314 234.347 34.9314C235.568 34.9314 236.708 35.5416 237.385 36.5574L239.959 40.4186C240.26 40.869 240.604 41.2886 240.986 41.6713L243.455 44.1402C244.152 44.8372 244.647 45.7105 244.886 46.6668L244.963 46.9754C245.782 50.2512 243.304 53.4245 239.927 53.4245C238.903 53.4245 237.901 53.1212 237.048 52.5528L235.249 51.3534C233.304 50.0563 232.003 47.9919 231.672 45.677Z" fill="white"/>
</svg>
