<svg width="294" height="150" viewBox="0 0 294 150" fill="none" xmlns="http://www.w3.org/2000/svg">
<path d="M31.1418 124.671H31.4204C31.7155 124.671 31.8575 124.599 31.9613 124.285L35.6544 114.101H38.0472L41.7184 124.279C41.8222 124.599 41.9643 124.665 42.2593 124.665H42.5379V126.622H41.1721C40.298 126.622 39.9812 126.391 39.7025 125.597L38.9322 123.408H34.7366L33.9663 125.597C33.6876 126.391 33.3872 126.622 32.5131 126.622H31.1418V124.665V124.671ZM38.4133 121.511L37.3479 118.369C37.1185 117.679 36.8563 116.499 36.8563 116.499H36.8235C36.8235 116.499 36.5613 117.679 36.3318 118.369L35.2665 121.511H38.4133Z" fill="white"/>
<path d="M44.2205 123.772C44.2205 123.772 45.3569 125.095 46.8756 125.095C47.5585 125.095 48.083 124.814 48.083 124.213C48.083 122.945 43.3792 122.961 43.3792 120.05C43.3792 118.253 44.9854 117.42 46.8428 117.42C48.0502 117.42 49.9732 117.828 49.9732 119.289V120.227H48.0174V119.786C48.0174 119.361 47.3892 119.152 46.8975 119.152C46.1108 119.152 45.5699 119.433 45.5699 119.962C45.5699 121.373 50.3065 121.092 50.3065 124.092C50.3065 125.784 48.8205 126.843 46.8811 126.843C44.4336 126.843 43.1771 125.239 43.1771 125.239L44.226 123.772H44.2205Z" fill="white"/>
<path d="M52.3988 123.772C52.3988 123.772 53.5352 125.095 55.0539 125.095C55.7368 125.095 56.2613 124.814 56.2613 124.213C56.2613 122.945 51.5575 122.961 51.5575 120.05C51.5575 118.253 53.1637 117.42 55.0211 117.42C56.2285 117.42 58.1515 117.828 58.1515 119.289V120.227H56.1957V119.786C56.1957 119.361 55.5675 119.152 55.0758 119.152C54.2891 119.152 53.7482 119.433 53.7482 119.962C53.7482 121.373 58.4848 121.092 58.4848 124.092C58.4848 125.784 56.9988 126.843 55.0594 126.843C52.6119 126.843 51.3554 125.239 51.3554 125.239L52.4043 123.772H52.3988Z" fill="white"/>
<path d="M64.5324 117.42C67.2585 117.42 69.4274 119.378 69.4274 122.129C69.4274 124.88 67.2585 126.837 64.5324 126.837C61.8063 126.837 59.6539 124.897 59.6539 122.129C59.6539 119.361 61.8227 117.42 64.5324 117.42ZM64.5324 124.935C65.9856 124.935 67.1875 123.805 67.1875 122.129C67.1875 120.453 65.9802 119.322 64.5324 119.322C63.0847 119.322 61.8938 120.469 61.8938 122.129C61.8938 123.788 63.1011 124.935 64.5324 124.935Z" fill="white"/>
<path d="M75.4204 117.42C76.5732 117.42 78.6546 117.894 78.6546 119.449V120.508H76.6988V120.012C76.6988 119.515 75.9668 119.306 75.4204 119.306C73.8798 119.306 72.7818 120.486 72.7818 122.112C72.7818 123.948 74.1257 124.88 75.5625 124.88C77.0812 124.88 78.2012 123.662 78.2012 123.662L79.1299 125.216C79.1299 125.216 77.8024 126.837 75.3713 126.837C72.4321 126.837 70.5473 124.737 70.5473 122.129C70.5473 119.521 72.3666 117.42 75.4259 117.42H75.4204Z" fill="white"/>
<path d="M80.9109 119.923C80.9109 119.659 80.7688 119.537 80.5285 119.537H79.8292V117.63H81.9434C82.7629 117.63 83.1125 117.999 83.1125 118.832V124.351C83.1125 124.599 83.2546 124.737 83.4949 124.737H84.1942V126.622H82.08C81.2605 126.622 80.9109 126.27 80.9109 125.42V119.918V119.923ZM81.0147 114.101H82.9377V116.163H81.0147V114.101Z" fill="white"/>
<path d="M90.4932 120.982H90.7718V120.91C90.7718 119.62 90.2638 119.146 89.1274 119.146C88.7232 119.146 87.9365 119.251 87.9365 119.747V120.221H85.8714V119.267C85.8714 117.591 88.2151 117.415 89.1383 117.415C92.1103 117.415 92.9844 118.986 92.9844 120.999V124.351C92.9844 124.599 93.1264 124.737 93.3668 124.737H94.0661V126.622H92.072C91.2526 126.622 90.9357 126.165 90.9357 125.635C90.9357 125.404 90.9521 125.25 90.9521 125.25H90.9193C90.9193 125.25 90.2364 126.837 88.226 126.837C86.6362 126.837 85.183 125.834 85.183 124.031C85.183 121.208 89.0291 120.976 90.4823 120.976L90.4932 120.982ZM88.7778 125.095C89.9687 125.095 90.8046 123.827 90.8046 122.73V122.52H90.4222C89.2695 122.52 87.4339 122.68 87.4339 123.932C87.4339 124.533 87.8709 125.095 88.7778 125.095Z" fill="white"/>
<path d="M99.8461 117.42C100.999 117.42 103.08 117.894 103.08 119.449V120.508H101.124V120.012C101.124 119.515 100.392 119.306 99.8461 119.306C98.3055 119.306 97.2074 120.486 97.2074 122.112C97.2074 123.948 98.5513 124.88 99.9881 124.88C101.507 124.88 102.627 123.662 102.627 123.662L103.556 125.216C103.556 125.216 102.261 126.804 99.8679 126.837L99.7477 127.4C100.447 127.488 101.004 127.913 101.004 128.74C101.004 129.903 100.059 130.294 99.1359 130.294C98.524 130.294 98.0542 130.173 98.0542 130.173V128.938C98.0542 128.938 98.4202 129.081 98.8245 129.081C99.2287 129.081 99.5784 128.96 99.5784 128.585C99.5784 128.249 99.2123 128.111 98.7371 128.111C98.5622 128.111 98.371 128.144 98.371 128.144L98.7534 126.733C96.4262 126.308 94.9784 124.439 94.9784 122.129C94.9784 119.587 96.7976 117.42 99.857 117.42H99.8461Z" fill="white"/>
<path d="M109.685 120.982H109.964V120.91C109.964 119.62 109.456 119.146 108.319 119.146C107.915 119.146 107.128 119.251 107.128 119.747V120.221H105.063V119.267C105.063 117.591 107.407 117.415 108.33 117.415C111.302 117.415 112.176 118.986 112.176 120.999V124.351C112.176 124.599 112.318 124.737 112.559 124.737H113.258V126.622H111.264C110.445 126.622 110.128 126.165 110.128 125.635C110.128 125.404 110.144 125.25 110.144 125.25H110.111C110.111 125.25 109.428 126.837 107.418 126.837C105.828 126.837 104.375 125.834 104.375 124.031C104.375 121.208 108.221 120.976 109.674 120.976L109.685 120.982ZM107.38 114.085C108.587 114.085 108.882 115.231 109.62 115.231C110.111 115.231 110.335 114.702 110.335 114.14H111.717C111.717 115.728 111.051 116.555 109.723 116.555C108.516 116.555 108.221 115.408 107.484 115.408C106.992 115.408 106.768 115.921 106.768 116.499H105.386C105.386 114.895 106.052 114.085 107.38 114.085ZM107.975 125.095C109.166 125.095 110.002 123.827 110.002 122.73V122.52H109.62C108.467 122.52 106.631 122.68 106.631 123.932C106.631 124.533 107.068 125.095 107.975 125.095Z" fill="white"/>
<path d="M119.038 117.42C121.764 117.42 123.933 119.378 123.933 122.129C123.933 124.88 121.764 126.837 119.038 126.837C116.312 126.837 114.159 124.897 114.159 122.129C114.159 119.361 116.328 117.42 119.038 117.42ZM119.038 124.935C120.491 124.935 121.693 123.805 121.693 122.129C121.693 120.453 120.486 119.322 119.038 119.322C117.59 119.322 116.399 120.469 116.399 122.129C116.399 123.788 117.607 124.935 119.038 124.935Z" fill="white"/>
<path d="M133.739 117.42C135.679 117.42 136.307 118.512 136.307 118.512H136.34C136.34 118.512 136.323 118.28 136.323 117.983V116.395C136.323 116.13 136.181 116.009 135.941 116.009H135.242V114.101H137.356C138.175 114.101 138.547 114.47 138.547 115.303V124.356C138.547 124.604 138.689 124.742 138.929 124.742H139.612V126.628H137.569C136.766 126.628 136.465 126.242 136.465 125.713V125.376H136.433C136.433 125.376 135.701 126.843 133.652 126.843C131.237 126.843 129.686 124.919 129.686 122.134C129.686 119.35 131.379 117.426 133.739 117.426V117.42ZM136.378 122.112C136.378 120.717 135.662 119.344 134.176 119.344C132.953 119.344 131.936 120.348 131.936 122.134C131.936 123.921 132.827 124.957 134.138 124.957C135.291 124.957 136.378 124.108 136.378 122.118V122.112Z" fill="white"/>
<path d="M145.436 117.42C148.162 117.42 150.331 119.378 150.331 122.129C150.331 124.88 148.162 126.837 145.436 126.837C142.71 126.837 140.557 124.897 140.557 122.129C140.557 119.361 142.726 117.42 145.436 117.42ZM145.436 124.935C146.889 124.935 148.091 123.805 148.091 122.129C148.091 120.453 146.884 119.322 145.436 119.322C143.988 119.322 142.797 120.469 142.797 122.129C142.797 123.788 144.004 124.935 145.436 124.935Z" fill="white"/>
<path d="M152.379 123.772C152.379 123.772 153.516 125.095 155.035 125.095C155.717 125.095 156.242 124.814 156.242 124.213C156.242 122.945 151.538 122.961 151.538 120.05C151.538 118.253 153.144 117.42 155.002 117.42C156.209 117.42 158.132 117.828 158.132 119.289V120.227H156.176V119.786C156.176 119.361 155.548 119.152 155.056 119.152C154.27 119.152 153.729 119.433 153.729 119.962C153.729 121.373 158.465 121.092 158.465 124.092C158.465 125.784 156.979 126.843 155.04 126.843C152.593 126.843 151.336 125.239 151.336 125.239L152.385 123.772H152.379Z" fill="white"/>
<path d="M165.436 116.058H164.3V114.101H169.982C172.309 114.101 173.931 115.744 173.931 118.176C173.931 120.607 172.303 122.305 169.982 122.305H167.725V126.628H165.436V116.058ZM169.561 120.326C170.856 120.326 171.588 119.477 171.588 118.176C171.588 116.874 170.856 116.058 169.594 116.058H167.725V120.326H169.561Z" fill="white"/>
<path d="M175.734 119.923C175.734 119.659 175.592 119.537 175.352 119.537H174.653V117.63H176.679C177.466 117.63 177.87 117.966 177.87 118.721V119.251C177.87 119.587 177.838 119.813 177.838 119.813H177.87C178.275 118.528 179.34 117.503 180.7 117.503C180.891 117.503 181.105 117.536 181.105 117.536V119.741C181.105 119.741 180.875 119.708 180.564 119.708C179.619 119.708 178.537 120.254 178.133 121.594C178.012 122.035 177.941 122.531 177.941 123.061V126.622H175.74V119.918L175.734 119.923Z" fill="white"/>
<path d="M186.59 117.42C189.316 117.42 191.484 119.378 191.484 122.129C191.484 124.88 189.316 126.837 186.59 126.837C183.863 126.837 181.711 124.897 181.711 122.129C181.711 119.361 183.88 117.42 186.59 117.42ZM186.59 124.935C188.043 124.935 189.245 123.805 189.245 122.129C189.245 120.453 188.037 119.322 186.59 119.322C185.142 119.322 183.951 120.469 183.951 122.129C183.951 123.788 185.158 124.935 186.59 124.935Z" fill="white"/>
<path d="M196.658 117.42C198.597 117.42 199.226 118.512 199.226 118.512H199.259C199.259 118.512 199.242 118.28 199.242 117.983V116.395C199.242 116.13 199.1 116.009 198.86 116.009H198.16V114.101H200.275C201.094 114.101 201.466 114.47 201.466 115.303V124.356C201.466 124.604 201.608 124.742 201.848 124.742H202.531V126.628H200.488C199.685 126.628 199.384 126.242 199.384 125.713V125.376H199.351C199.351 125.376 198.619 126.843 196.571 126.843C194.156 126.843 192.604 124.919 192.604 122.134C192.604 119.35 194.298 117.426 196.658 117.426V117.42ZM199.297 122.112C199.297 120.717 198.581 119.344 197.095 119.344C195.871 119.344 194.855 120.348 194.855 122.134C194.855 123.921 195.746 124.957 197.057 124.957C198.21 124.957 199.297 124.108 199.297 122.118V122.112Z" fill="white"/>
<path d="M204.334 119.923C204.334 119.659 204.192 119.537 203.951 119.537H203.252V117.63H205.366C206.186 117.63 206.535 117.999 206.535 118.81V122.956C206.535 124.048 206.814 124.792 207.918 124.792C209.524 124.792 210.42 123.364 210.42 121.759V117.63H212.638V124.351C212.638 124.599 212.78 124.737 213.02 124.737H213.719V126.622H211.676C210.906 126.622 210.507 126.253 210.507 125.619V125.371C210.507 125.161 210.523 124.963 210.523 124.963H210.491C210.07 125.9 208.95 126.832 207.415 126.832C205.508 126.832 204.339 125.862 204.339 123.408V119.912L204.334 119.923Z" fill="white"/>
<path d="M215.555 119.411H214.402V117.63H215.61V115.176H217.779V117.63H219.805V119.411H217.779V123.044C217.779 124.527 218.931 124.737 219.543 124.737C219.789 124.737 219.947 124.704 219.947 124.704V126.661C219.947 126.661 219.669 126.716 219.264 126.716C218.024 126.716 215.56 126.347 215.56 123.331V119.416L215.555 119.411Z" fill="white"/>
<path d="M225.837 117.42C228.563 117.42 230.732 119.378 230.732 122.129C230.732 124.88 228.563 126.837 225.837 126.837C223.111 126.837 220.958 124.897 220.958 122.129C220.958 119.361 223.127 117.42 225.837 117.42ZM225.837 124.935C227.29 124.935 228.492 123.805 228.492 122.129C228.492 120.453 227.284 119.322 225.837 119.322C224.389 119.322 223.198 120.469 223.198 122.129C223.198 123.788 224.405 124.935 225.837 124.935Z" fill="white"/>
<path d="M232.742 119.923C232.742 119.659 232.6 119.537 232.36 119.537H231.66V117.63H233.687C234.474 117.63 234.878 117.966 234.878 118.721V119.251C234.878 119.587 234.845 119.813 234.845 119.813H234.878C235.282 118.528 236.348 117.503 237.708 117.503C237.899 117.503 238.112 117.536 238.112 117.536V119.741C238.112 119.741 237.883 119.708 237.571 119.708C236.626 119.708 235.545 120.254 235.14 121.594C235.02 122.035 234.949 122.531 234.949 123.061V126.622H232.747V119.918L232.742 119.923Z" fill="white"/>
<path d="M243.248 117.42C245.799 117.42 247.197 119.306 247.197 121.688C247.197 121.952 247.143 122.515 247.143 122.515H240.991C241.166 124.103 242.319 124.93 243.668 124.93C245.1 124.93 246.17 123.926 246.17 123.926L247.099 125.481C247.099 125.481 245.733 126.837 243.515 126.837C240.56 126.837 238.724 124.687 238.724 122.129C238.724 119.361 240.576 117.42 243.253 117.42H243.248ZM244.925 120.965C244.892 119.89 244.154 119.146 243.248 119.146C242.111 119.146 241.308 119.835 241.062 120.965H244.925Z" fill="white"/>
<path d="M249.383 123.772C249.383 123.772 250.519 125.095 252.038 125.095C252.721 125.095 253.245 124.814 253.245 124.213C253.245 122.945 248.541 122.961 248.541 120.05C248.541 118.253 250.148 117.42 252.005 117.42C253.212 117.42 255.135 117.828 255.135 119.289V120.227H253.18V119.786C253.18 119.361 252.551 119.152 252.06 119.152C251.273 119.152 250.732 119.433 250.732 119.962C250.732 121.373 255.469 121.092 255.469 124.092C255.469 125.784 253.983 126.843 252.043 126.843C249.596 126.843 248.339 125.239 248.339 125.239L249.388 123.772H249.383Z" fill="white"/>
<path d="M53.7482 139.215V137.258H60.8284C61.6698 137.258 62.0194 137.628 62.0194 138.46V140.368H59.9543V139.607C59.9543 139.359 59.8123 139.221 59.5719 139.221H57.1791V142.766H61.1453V144.724H57.1791V149.785H54.89V139.215H53.7482Z" fill="white"/>
<path d="M67.9578 144.139H68.2364V144.067C68.2364 142.777 67.7284 142.303 66.592 142.303C66.1878 142.303 65.4011 142.408 65.4011 142.904V143.378H63.336V142.424C63.336 140.748 65.6797 140.572 66.603 140.572C69.5749 140.572 70.449 142.143 70.449 144.156V147.508C70.449 147.756 70.591 147.894 70.8314 147.894H71.5307V149.779H69.5367C68.7172 149.779 68.4003 149.322 68.4003 148.793C68.4003 148.561 68.4167 148.407 68.4167 148.407H68.3839C68.3839 148.407 67.7011 149.994 65.6906 149.994C64.1009 149.994 62.6477 148.991 62.6477 147.188C62.6477 144.365 66.4937 144.134 67.9469 144.134L67.9578 144.139ZM66.2424 148.252C67.4334 148.252 68.2692 146.984 68.2692 145.887V145.677H67.8868C66.7341 145.677 64.8985 145.837 64.8985 147.089C64.8985 147.69 65.3355 148.252 66.2424 148.252Z" fill="white"/>
<path d="M73.3281 143.08C73.3281 142.816 73.186 142.694 72.9456 142.694H72.2464V140.787H74.2896C75.0763 140.787 75.4587 141.156 75.4587 141.79V142.055C75.4587 142.248 75.4423 142.441 75.4423 142.441H75.4751C75.8957 141.559 76.961 140.572 78.3596 140.572C79.7582 140.572 80.5776 141.206 80.9655 142.424H80.9983C81.4681 141.454 82.6263 140.572 84.0413 140.572C85.8933 140.572 86.9586 141.63 86.9586 143.996V147.508C86.9586 147.756 87.1006 147.894 87.341 147.894H88.0239V149.779H85.926C85.0847 149.779 84.7351 149.427 84.7351 148.578V144.415C84.7351 143.389 84.5439 142.617 83.5113 142.617C82.4078 142.617 81.6211 143.555 81.3807 144.679C81.2769 145.032 81.2387 145.402 81.2387 145.826V149.779H79.0206V144.415C79.0206 143.444 78.8786 142.617 77.8133 142.617C76.6934 142.617 75.9449 143.555 75.6608 144.701C75.5734 145.054 75.5188 145.424 75.5188 145.832V149.785H73.3171V143.08H73.3281Z" fill="white"/>
<path d="M89.8813 143.08C89.8813 142.816 89.7393 142.694 89.4989 142.694H88.7996V140.787H90.9139C91.7333 140.787 92.083 141.156 92.083 141.989V147.508C92.083 147.756 92.225 147.894 92.4654 147.894H93.1647V149.779H91.0504C90.231 149.779 89.8813 149.427 89.8813 148.578V143.075V143.08ZM89.9851 137.258H91.9082V139.32H89.9851V137.258Z" fill="white"/>
<path d="M94.9839 139.552C94.9839 139.287 94.8418 139.166 94.6015 139.166H93.9022V137.258H96.0164C96.8359 137.258 97.2074 137.628 97.2074 138.46V147.513C97.2074 147.761 97.3494 147.899 97.5898 147.899H98.2727V149.785H96.1749C95.3335 149.785 94.9839 149.432 94.9839 148.583V139.552Z" fill="white"/>
<path d="M100.196 143.08C100.196 142.816 100.054 142.694 99.8133 142.694H99.114V140.787H101.228C102.048 140.787 102.397 141.156 102.397 141.989V147.508C102.397 147.756 102.539 147.894 102.78 147.894H103.479V149.779H101.365C100.545 149.779 100.196 149.427 100.196 148.578V143.075V143.08ZM100.3 137.258H102.223V139.32H100.3V137.258Z" fill="white"/>
<path d="M109.773 144.139H110.051V144.067C110.051 142.777 109.543 142.303 108.407 142.303C108.003 142.303 107.216 142.408 107.216 142.904V143.378H105.151V142.424C105.151 140.748 107.494 140.572 108.418 140.572C111.39 140.572 112.264 142.143 112.264 144.156V147.508C112.264 147.756 112.406 147.894 112.646 147.894H113.345V149.779H111.351C110.532 149.779 110.215 149.322 110.215 148.793C110.215 148.561 110.231 148.407 110.231 148.407H110.199C110.199 148.407 109.516 149.994 107.505 149.994C105.916 149.994 104.462 148.991 104.462 147.188C104.462 144.365 108.308 144.134 109.762 144.134L109.773 144.139ZM108.057 148.252C109.248 148.252 110.084 146.984 110.084 145.887V145.677H109.702C108.549 145.677 106.713 145.837 106.713 147.089C106.713 147.69 107.15 148.252 108.057 148.252Z" fill="white"/>
<path d="M115.143 143.08C115.143 142.816 115.001 142.694 114.76 142.694H114.061V140.787H116.088C116.875 140.787 117.279 141.123 117.279 141.879V142.408C117.279 142.744 117.246 142.97 117.246 142.97H117.279C117.683 141.686 118.748 140.66 120.109 140.66C120.3 140.66 120.513 140.693 120.513 140.693V142.899C120.513 142.899 120.284 142.865 119.972 142.865C119.027 142.865 117.945 143.411 117.541 144.751C117.421 145.192 117.35 145.688 117.35 146.218V149.779H115.148V143.075L115.143 143.08Z" fill="white"/>
<path d="M125.648 140.577C128.2 140.577 129.598 142.463 129.598 144.845C129.598 145.109 129.544 145.672 129.544 145.672H123.392C123.567 147.26 124.72 148.087 126.069 148.087C127.5 148.087 128.571 147.083 128.571 147.083L129.5 148.638C129.5 148.638 128.134 149.994 125.916 149.994C122.961 149.994 121.125 147.844 121.125 145.286C121.125 142.518 122.977 140.577 125.654 140.577H125.648ZM127.326 144.123C127.293 143.047 126.555 142.303 125.648 142.303C124.512 142.303 123.709 142.992 123.463 144.123H127.326Z" fill="white"/>
<path d="M131.783 146.929C131.783 146.929 132.92 148.252 134.439 148.252C135.121 148.252 135.646 147.971 135.646 147.37C135.646 146.102 130.942 146.118 130.942 143.207C130.942 141.41 132.548 140.577 134.406 140.577C135.613 140.577 137.536 140.985 137.536 142.446V143.384H135.58V142.943C135.58 142.518 134.952 142.309 134.46 142.309C133.674 142.309 133.133 142.59 133.133 143.119C133.133 144.531 137.869 144.249 137.869 147.249C137.869 148.941 136.383 150 134.444 150C131.997 150 130.74 148.396 130.74 148.396L131.789 146.929H131.783Z" fill="white"/>
<path d="M150.052 137.049C153.707 137.049 156.466 139.855 156.466 143.433C156.466 147.012 153.702 149.994 150.052 149.994C146.403 149.994 143.638 147.116 143.638 143.433C143.638 139.75 146.403 137.049 150.052 137.049ZM150.052 147.844C152.292 147.844 154.089 145.936 154.089 143.433C154.089 140.93 152.287 139.199 150.052 139.199C147.818 139.199 146.015 141.035 146.015 143.433C146.015 145.832 147.818 147.844 150.052 147.844Z" fill="white"/>
<path d="M158.531 143.08C158.531 142.816 158.389 142.694 158.149 142.694H157.449V140.787H159.563C160.383 140.787 160.733 141.156 160.733 141.967V146.113C160.733 147.205 161.011 147.949 162.115 147.949C163.721 147.949 164.617 146.521 164.617 144.916V140.787H166.835V147.508C166.835 147.756 166.977 147.894 167.217 147.894H167.917V149.779H165.873C165.103 149.779 164.704 149.41 164.704 148.776V148.528C164.704 148.318 164.721 148.12 164.721 148.12H164.688C164.267 149.057 163.147 149.989 161.612 149.989C159.706 149.989 158.536 149.019 158.536 146.565V143.069L158.531 143.08Z" fill="white"/>
<path d="M169.719 143.08C169.719 142.816 169.577 142.694 169.337 142.694H168.638V140.787H170.665C171.451 140.787 171.856 141.123 171.856 141.879V142.408C171.856 142.744 171.823 142.97 171.823 142.97H171.856C172.26 141.686 173.325 140.66 174.685 140.66C174.877 140.66 175.09 140.693 175.09 140.693V142.899C175.09 142.899 174.86 142.865 174.549 142.865C173.604 142.865 172.522 143.411 172.118 144.751C171.998 145.192 171.927 145.688 171.927 146.218V149.779H169.725V143.075L169.719 143.08Z" fill="white"/>
<path d="M180.575 140.577C183.301 140.577 185.47 142.535 185.47 145.286C185.47 148.037 183.301 149.994 180.575 149.994C177.849 149.994 175.696 148.054 175.696 145.286C175.696 142.518 177.865 140.577 180.575 140.577ZM180.575 148.092C182.028 148.092 183.23 146.962 183.23 145.286C183.23 143.61 182.022 142.479 180.575 142.479C179.127 142.479 177.936 143.626 177.936 145.286C177.936 146.945 179.143 148.092 180.575 148.092Z" fill="white"/>
<path d="M191.31 139.607C191.206 139.309 191.064 139.221 190.769 139.221H190.452V137.264H191.905C192.779 137.264 193.096 137.495 193.375 138.289L195.751 145.275C195.997 145.981 196.221 147.111 196.221 147.111H196.254C196.254 147.111 196.483 145.981 196.724 145.275L199.1 138.289C199.379 137.495 199.679 137.264 200.553 137.264H202.023V139.221H201.69C201.395 139.221 201.253 139.309 201.149 139.607L197.445 149.785H195.03L191.304 139.607H191.31Z" fill="white"/>
<path d="M206.377 140.577C208.928 140.577 210.327 142.463 210.327 144.845C210.327 145.109 210.272 145.672 210.272 145.672H204.121C204.296 147.26 205.448 148.087 206.798 148.087C208.229 148.087 209.3 147.083 209.3 147.083L210.228 148.638C210.228 148.638 208.863 149.994 206.645 149.994C203.689 149.994 201.854 147.844 201.854 145.286C201.854 142.518 203.705 140.577 206.382 140.577H206.377ZM208.054 144.123C208.021 143.047 207.284 142.303 206.377 142.303C205.241 142.303 204.438 142.992 204.192 144.123H208.054Z" fill="white"/>
<path d="M212.479 143.08C212.479 142.816 212.337 142.694 212.097 142.694H211.398V140.787H213.424C214.211 140.787 214.615 141.123 214.615 141.879V142.408C214.615 142.744 214.583 142.97 214.583 142.97H214.615C215.02 141.686 216.085 140.66 217.445 140.66C217.636 140.66 217.85 140.693 217.85 140.693V142.899C217.85 142.899 217.62 142.865 217.309 142.865C216.364 142.865 215.282 143.411 214.878 144.751C214.757 145.192 214.686 145.688 214.686 146.218V149.779H212.485V143.075L212.479 143.08Z" fill="white"/>
<path d="M222.515 140.577C224.454 140.577 225.083 141.669 225.083 141.669H225.115C225.115 141.669 225.099 141.437 225.099 141.14V139.552C225.099 139.287 224.957 139.166 224.717 139.166H224.017V137.258H226.132C226.951 137.258 227.323 137.628 227.323 138.46V147.513C227.323 147.761 227.465 147.899 227.705 147.899H228.388V149.785H226.345C225.542 149.785 225.241 149.399 225.241 148.87V148.533H225.208C225.208 148.533 224.476 150 222.428 150C220.013 150 218.461 148.076 218.461 145.291C218.461 142.507 220.155 140.583 222.515 140.583V140.577ZM225.154 145.269C225.154 143.874 224.438 142.502 222.952 142.502C221.728 142.502 220.712 143.505 220.712 145.291C220.712 147.078 221.603 148.114 222.914 148.114C224.067 148.114 225.154 147.265 225.154 145.275V145.269Z" fill="white"/>
<path d="M233.862 140.577C236.413 140.577 237.812 142.463 237.812 144.845C237.812 145.109 237.757 145.672 237.757 145.672H231.606C231.78 147.26 232.933 148.087 234.283 148.087C235.714 148.087 236.785 147.083 236.785 147.083L237.713 148.638C237.713 148.638 236.348 149.994 234.13 149.994C231.174 149.994 229.338 147.844 229.338 145.286C229.338 142.518 231.19 140.577 233.867 140.577H233.862ZM235.539 144.123C235.506 143.047 234.769 142.303 233.862 142.303C232.726 142.303 231.923 142.992 231.677 144.123H235.539Z" fill="white"/>
<path fill-rule="evenodd" clip-rule="evenodd" d="M256.115 28.3601C257.142 28.8332 257.852 28.8332 258.404 28.6755C258.404 29.2275 258.72 29.7795 259.588 30.4103C263.613 33.4857 271.19 28.9909 275.847 21.4208C280.504 13.8506 280.898 5.3342 276.478 2.88968C275.926 2.57424 275.689 2.65313 275.373 2.65313C275.058 2.10113 274.663 1.54914 273.874 0.997151C269.849 -2.07825 261.404 2.25884 256.747 9.90784C252.09 17.478 251.538 26.3887 256.115 28.439V28.3601ZM265.271 14.0872C266.409 13.1684 267.475 12.3285 268.458 11.554C271.017 9.5368 273.014 7.96341 274.268 6.59589V7.54217C274.193 10.878 270.761 13.6308 267.269 16.4311L266.849 16.7683C263.219 19.686 261.719 22.2882 260.614 24.3385L260.726 23.7576C261.33 20.6097 262.081 16.6894 265.35 14.166L265.271 14.0872ZM278.767 28.2024C280.267 24.023 281.845 22.8402 286.502 22.8402H294V33.0914H292.264C290.685 33.0914 289.975 33.5646 289.422 35.1417L269.77 88.6059H256.984L237.252 35.1417C236.7 33.5646 235.989 33.0914 234.411 33.0914H232.753V22.8402H240.488C245.145 22.8402 246.802 24.023 248.302 28.2024L260.93 64.8703C262.272 68.5765 263.456 74.4907 263.456 74.4907H263.613C263.613 74.4907 264.876 68.5765 266.139 64.8703L278.767 28.2024ZM45.4615 83.3226C46.9612 87.5019 48.6187 88.6848 53.2753 88.6848H60.5363V78.4335H59.0368C57.4582 78.4335 56.7479 78.0392 56.1953 76.3833L36.7008 22.919H23.9935L4.34092 76.3044C3.78835 77.9604 3.07805 78.3546 1.49972 78.3546H0V88.6059H7.3401C11.9967 88.6059 13.5753 87.4231 15.0748 83.2437L19.1791 71.7308H41.4363L45.5403 83.2437L45.4615 83.3226ZM21.9414 61.7949L27.6241 45.3141C28.8081 41.6867 30.2287 35.4571 30.2287 35.4571H30.3867C30.3867 35.4571 31.8073 41.6867 32.991 45.3141L38.6739 61.7949H21.9414ZM123.598 88.6848H135.753V62.1103H156.826V51.8591H135.753V33.2491H148.46C149.723 33.2491 150.512 33.9588 150.512 35.2994V39.321H161.483V29.3064C161.483 24.9693 159.668 22.9979 155.169 22.9979H117.6V33.2491H123.598V88.6848ZM92.5015 45.3929L92.9618 45.0235C96.0376 42.5573 98.9772 40.2002 99.0522 37.2708V36.4823C97.9486 37.7009 96.1177 39.1331 93.8131 40.9361L93.8007 40.9458L93.7984 40.9475L93.7714 40.9685L93.7172 41.011C93.3402 41.306 92.9505 41.6109 92.5495 41.9264C92.1 42.2798 91.6363 42.6464 91.1598 43.0273C88.1606 45.4718 87.5292 49.178 87.0555 52.0168L87.1063 51.9272C88.1232 50.128 89.3975 47.8749 92.5804 45.3929H92.5015ZM81.2151 88.6848H69.0604V33.1703H63.062V22.919H93.2118C105.603 22.919 114.206 31.5143 114.206 44.289C114.206 57.0636 105.524 65.9743 93.2118 65.9743H81.2151V88.6848ZM98.6576 31.5932C95.1061 28.9121 87.6869 32.6972 83.5829 39.3999C79.4788 46.1026 79.0051 53.9093 83.0303 55.7231C83.9774 56.1173 84.6089 56.1173 85.0823 55.9596C85.0823 56.4328 85.3192 56.9847 86.1086 57.5367C89.6601 60.2178 96.2899 56.3539 100.394 49.6511C104.498 42.9484 104.814 35.4571 100.947 33.328C100.552 33.0914 100.236 33.0914 99.9994 33.0914L99.9007 32.9417C99.6138 32.5045 99.2942 32.0172 98.6576 31.5932ZM231.569 55.3288C231.569 74.6484 216.968 89.7887 197.552 89.7887C178.215 89.7887 163.535 74.0964 163.535 55.3288C163.535 36.5611 178.215 21.8151 197.552 21.8151C216.889 21.8151 231.569 36.0091 231.569 55.3288ZM209.661 74.4649C210.63 73.4147 211.1 72.5292 211.182 71.7478C211.876 71.8388 212.709 71.5753 213.833 70.7941C219.535 66.8374 217.035 55.0515 209.166 45.6642C201.291 36.2824 190.419 32.0848 185.335 36.8149C184.81 37.3033 184.482 37.7227 184.317 38.0888C183.532 38.2794 182.662 38.7091 181.676 39.3929C175.973 43.3551 177.961 56.234 185.831 65.6157C193.7 74.9974 204.95 79.5705 209.661 74.4649ZM199.163 55.427C201.362 61.4052 204.134 64.5282 206.276 66.8918L205.917 66.6938C202.024 64.5458 197.066 61.8106 195.042 56.3068H195.036C194.359 54.4637 193.746 52.7381 193.179 51.1403L193.174 51.1283C191.67 46.8885 190.484 43.5485 189.247 41.2949C189.639 41.4222 190.037 41.5567 190.431 41.7019C194.708 43.2759 196.807 49.0028 198.954 54.8606L199.163 55.427Z" fill="white"/>
</svg>
