<svg width="238" height="150" viewBox="0 0 238 150" fill="none" xmlns="http://www.w3.org/2000/svg">
<path d="M26.0049 127.683L30.3804 115.912H31.3169L35.6924 127.683H34.9369L30.7424 116.302H30.9391L26.7447 127.683H26.0049ZM28.0038 123.571L28.2005 122.919H33.4967L33.6856 123.571H28.0038Z" fill="white"/>
<path d="M39.0824 127.826C38.6837 127.826 38.306 127.8 37.9492 127.747C37.5924 127.694 37.2383 127.611 36.8868 127.5V126.84C37.3065 126.967 37.6895 127.057 38.0358 127.11C38.3873 127.163 38.744 127.19 39.106 127.19C39.9192 127.19 40.5147 127.041 40.8924 126.744C41.2754 126.442 41.4669 126.018 41.4669 125.472C41.4669 125 41.3462 124.639 41.1049 124.39C40.8688 124.136 40.4701 123.948 39.9087 123.826L38.8621 123.595C38.0961 123.42 37.5531 123.144 37.2331 122.768C36.913 122.386 36.753 121.906 36.753 121.328C36.753 120.644 37.0049 120.08 37.5085 119.634C38.0174 119.183 38.7965 118.958 39.8458 118.958C40.1868 118.958 40.5121 118.977 40.8216 119.014C41.1311 119.051 41.4354 119.112 41.7345 119.197V119.849C41.3882 119.753 41.0682 119.687 40.7744 119.65C40.4858 119.613 40.1789 119.594 39.8536 119.594C39.2765 119.594 38.8122 119.671 38.4607 119.825C38.1145 119.973 37.8626 120.178 37.7052 120.437C37.5479 120.692 37.4692 120.978 37.4692 121.296C37.4692 121.71 37.5793 122.052 37.7997 122.322C38.02 122.593 38.4083 122.792 38.9644 122.919L40.011 123.142C40.8085 123.317 41.3672 123.592 41.6872 123.969C42.0125 124.34 42.1752 124.825 42.1752 125.424C42.1752 126.161 41.9155 126.747 41.3961 127.182C40.8819 127.611 40.1107 127.826 39.0824 127.826Z" fill="white"/>
<path d="M45.9068 127.826C45.5081 127.826 45.1303 127.8 44.7736 127.747C44.4168 127.694 44.0627 127.611 43.7112 127.5V126.84C44.1309 126.967 44.5139 127.057 44.8601 127.11C45.2117 127.163 45.5684 127.19 45.9304 127.19C46.7436 127.19 47.3391 127.041 47.7168 126.744C48.0998 126.442 48.2913 126.018 48.2913 125.472C48.2913 125 48.1706 124.639 47.9293 124.39C47.6932 124.136 47.2945 123.948 46.7331 123.826L45.6865 123.595C44.9205 123.42 44.3775 123.144 44.0575 122.768C43.7374 122.386 43.5774 121.906 43.5774 121.328C43.5774 120.644 43.8292 120.08 44.3329 119.634C44.8418 119.183 45.6209 118.958 46.6702 118.958C47.0112 118.958 47.3364 118.977 47.646 119.014C47.9555 119.051 48.2598 119.112 48.5588 119.197V119.849C48.2126 119.753 47.8926 119.687 47.5988 119.65C47.3102 119.613 47.0033 119.594 46.678 119.594C46.1009 119.594 45.6366 119.671 45.2851 119.825C44.9388 119.973 44.687 120.178 44.5296 120.437C44.3722 120.692 44.2935 120.978 44.2935 121.296C44.2935 121.71 44.4037 122.052 44.6241 122.322C44.8444 122.593 45.2326 122.792 45.7888 122.919L46.8354 123.142C47.6329 123.317 48.1916 123.592 48.5116 123.969C48.8369 124.34 48.9995 124.825 48.9995 125.424C48.9995 126.161 48.7398 126.747 48.2205 127.182C47.7063 127.611 46.9351 127.826 45.9068 127.826Z" fill="white"/>
<path d="M53.8251 127.826C53.1483 127.826 52.5554 127.678 52.0465 127.381C51.5376 127.078 51.1415 126.601 50.8582 125.949C50.5802 125.297 50.4411 124.443 50.4411 123.388C50.4411 122.338 50.5802 121.487 50.8582 120.835C51.1415 120.183 51.5376 119.708 52.0465 119.411C52.5554 119.109 53.1483 118.958 53.8251 118.958C54.5071 118.958 55.1026 119.107 55.6114 119.404C56.1203 119.7 56.5138 120.175 56.7919 120.827C57.0752 121.474 57.2168 122.328 57.2168 123.388C57.2168 124.433 57.0752 125.284 56.7919 125.941C56.5086 126.593 56.1125 127.071 55.6036 127.373C55.0999 127.675 54.5071 127.826 53.8251 127.826ZM53.8251 127.182C54.3654 127.182 54.835 127.065 55.2337 126.832C55.6324 126.593 55.9393 126.198 56.1544 125.647C56.3695 125.095 56.4771 124.348 56.4771 123.404C56.4771 122.45 56.3695 121.697 56.1544 121.145C55.9393 120.589 55.6324 120.194 55.2337 119.96C54.835 119.722 54.3654 119.602 53.8251 119.602C53.2899 119.602 52.823 119.719 52.4243 119.952C52.0255 120.186 51.716 120.578 51.4957 121.129C51.2806 121.676 51.173 122.42 51.173 123.364C51.173 124.319 51.2806 125.074 51.4957 125.631C51.716 126.188 52.0255 126.585 52.4243 126.824C52.823 127.063 53.2899 127.182 53.8251 127.182Z" fill="white"/>
<path d="M62.3578 127.826C61.618 127.826 60.9885 127.675 60.4691 127.373C59.9497 127.071 59.5536 126.593 59.2808 125.941C59.0132 125.289 58.8794 124.438 58.8794 123.388C58.8794 122.333 59.0237 121.482 59.3122 120.835C59.606 120.183 60.0362 119.708 60.6028 119.411C61.1747 119.109 61.8751 118.958 62.704 118.958C62.9768 118.958 63.2575 118.977 63.5461 119.014C63.8399 119.051 64.1153 119.107 64.3724 119.181V119.849C64.0943 119.769 63.8162 119.711 63.5382 119.674C63.2654 119.632 63.0004 119.61 62.7434 119.61C62.0456 119.61 61.4659 119.73 61.0042 119.968C60.5425 120.207 60.1962 120.599 59.9654 121.145C59.7346 121.691 59.6191 122.428 59.6191 123.356C59.6191 124.295 59.7241 125.045 59.9339 125.607C60.149 126.164 60.4664 126.564 60.8861 126.808C61.3059 127.052 61.8226 127.174 62.4364 127.174C62.7145 127.174 63.0109 127.145 63.3257 127.086C63.6405 127.023 63.9894 126.925 64.3724 126.792V127.46C64.0366 127.582 63.6982 127.672 63.3572 127.731C63.0214 127.794 62.6883 127.826 62.3578 127.826Z" fill="white"/>
<path d="M65.9687 127.683V119.085H66.669V127.683H65.9687ZM66.3149 116.938C66.1418 116.938 66.0001 116.888 65.89 116.787C65.785 116.686 65.7326 116.548 65.7326 116.373C65.7326 116.198 65.785 116.058 65.89 115.952C66.0001 115.846 66.1418 115.793 66.3149 115.793C66.488 115.793 66.6271 115.846 66.732 115.952C66.8422 116.058 66.8973 116.198 66.8973 116.373C66.8973 116.548 66.8422 116.686 66.732 116.787C66.6271 116.888 66.488 116.938 66.3149 116.938Z" fill="white"/>
<path d="M71.3032 127.81C70.532 127.81 69.9208 127.611 69.4696 127.214C69.0237 126.816 68.8007 126.257 68.8007 125.536C68.8007 124.814 69.0316 124.252 69.4932 123.849C69.9549 123.441 70.6868 123.181 71.6888 123.07L74.1992 122.776L74.2465 123.372L71.6967 123.674C70.936 123.759 70.3877 123.95 70.052 124.247C69.7162 124.539 69.5483 124.947 69.5483 125.472C69.5483 126.029 69.7031 126.453 70.0126 126.744C70.3222 127.036 70.7812 127.182 71.3898 127.182C71.8357 127.182 72.2764 127.084 72.7119 126.888C73.1473 126.686 73.5382 126.357 73.8845 125.901V121.797C73.8845 121.22 73.7953 120.771 73.6169 120.453C73.4385 120.135 73.1762 119.915 72.8299 119.793C72.4889 119.666 72.0692 119.602 71.5708 119.602C71.2508 119.602 70.8914 119.634 70.4927 119.698C70.0939 119.756 69.69 119.857 69.2808 120V119.34C69.6165 119.218 69.9943 119.125 70.414 119.062C70.8337 118.993 71.2324 118.958 71.6101 118.958C72.245 118.958 72.7827 119.046 73.2234 119.221C73.6693 119.396 74.0077 119.692 74.2386 120.111C74.4694 120.525 74.5848 121.092 74.5848 121.813V127.683H73.971L73.9159 126.681H73.8451C73.5618 127.036 73.1946 127.314 72.7434 127.516C72.2974 127.712 71.8174 127.81 71.3032 127.81Z" fill="white"/>
<path d="M80.0796 127.826C79.3399 127.826 78.7103 127.675 78.1909 127.373C77.6716 127.071 77.2755 126.593 77.0026 125.941C76.7351 125.289 76.6013 124.438 76.6013 123.388C76.6013 122.333 76.7456 121.482 77.0341 120.835C77.3279 120.183 77.7581 119.708 78.3247 119.411C78.8966 119.109 79.597 118.958 80.4259 118.958C80.6987 118.958 80.9794 118.977 81.2679 119.014C81.5617 119.051 81.8372 119.107 82.0943 119.181V119.849C81.8162 119.769 81.5381 119.711 81.2601 119.674C80.9873 119.632 80.7223 119.61 80.4653 119.61C79.7675 119.61 79.1878 119.73 78.7261 119.968C78.2644 120.207 77.9181 120.599 77.6873 121.145C77.4565 121.691 77.341 122.428 77.341 123.356C77.341 124.295 77.446 125.045 77.6558 125.607C77.8709 126.164 78.1883 126.564 78.608 126.808C79.0277 127.052 79.5445 127.174 80.1583 127.174C80.4364 127.174 80.7328 127.145 81.0476 127.086C81.3624 127.023 81.7113 126.925 82.0943 126.792V127.46C81.7585 127.582 81.4201 127.672 81.0791 127.731C80.7433 127.794 80.4102 127.826 80.0796 127.826ZM79.7806 130.896C79.5603 130.896 79.332 130.87 79.0959 130.817C78.8599 130.764 78.6553 130.692 78.4821 130.602V130.109C78.7182 130.231 78.9438 130.315 79.1589 130.363C79.3793 130.411 79.5891 130.435 79.7885 130.435C80.098 130.435 80.3288 130.374 80.481 130.252C80.6331 130.135 80.7092 129.958 80.7092 129.719C80.7092 129.236 80.3997 128.995 79.7806 128.995H79.513V127.524H80.0246V128.804L79.8042 128.558C80.2606 128.558 80.6095 128.661 80.8509 128.868C81.0974 129.075 81.2207 129.361 81.2207 129.727C81.2207 130.087 81.0948 130.371 80.843 130.578C80.5912 130.79 80.237 130.896 79.7806 130.896Z" fill="white"/>
<path d="M85.6898 127.81C84.9186 127.81 84.3074 127.611 83.8562 127.214C83.4102 126.816 83.1873 126.257 83.1873 125.536C83.1873 124.814 83.4181 124.252 83.8798 123.849C84.3415 123.441 85.0733 123.181 86.0754 123.07L88.5858 122.776L88.633 123.372L86.0833 123.674C85.3225 123.759 84.7743 123.95 84.4385 124.247C84.1027 124.539 83.9349 124.947 83.9349 125.472C83.9349 126.029 84.0896 126.453 84.3992 126.744C84.7087 127.036 85.1678 127.182 85.7763 127.182C86.2223 127.182 86.663 127.084 87.0984 126.888C87.5339 126.686 87.9247 126.357 88.271 125.901V121.797C88.271 121.22 88.1818 120.771 88.0034 120.453C87.825 120.135 87.5627 119.915 87.2165 119.793C86.8755 119.666 86.4557 119.602 85.9573 119.602C85.6373 119.602 85.2779 119.634 84.8792 119.698C84.4805 119.756 84.0765 119.857 83.6673 120V119.34C84.0031 119.218 84.3808 119.125 84.8005 119.062C85.2202 118.993 85.6189 118.958 85.9967 118.958C86.6315 118.958 87.1693 119.046 87.61 119.221C88.0559 119.396 88.3943 119.692 88.6251 120.111C88.856 120.525 88.9714 121.092 88.9714 121.813V127.683H88.3576L88.3025 126.681H88.2316C87.9483 127.036 87.5811 127.314 87.1299 127.516C86.684 127.712 86.2039 127.81 85.6898 127.81ZM87.303 116.771C87.0879 116.771 86.8807 116.736 86.6813 116.668C86.4872 116.593 86.2984 116.516 86.1147 116.437C85.9521 116.368 85.7921 116.304 85.6347 116.246C85.4773 116.188 85.3173 116.159 85.1547 116.159C84.9186 116.159 84.7035 116.206 84.5093 116.302C84.3152 116.392 84.1316 116.535 83.9585 116.731V116.111C84.2523 115.777 84.6536 115.61 85.1625 115.61C85.3776 115.61 85.5822 115.647 85.7763 115.721C85.9757 115.79 86.1672 115.864 86.3508 115.944C86.5187 116.018 86.6813 116.084 86.8387 116.143C86.9961 116.201 87.1535 116.23 87.3109 116.23C87.5522 116.23 87.7673 116.182 87.9562 116.087C88.1503 115.992 88.334 115.846 88.5071 115.65V116.278C88.2133 116.607 87.8119 116.771 87.303 116.771Z" fill="white"/>
<path d="M94.3718 127.826C93.695 127.826 93.1021 127.678 92.5932 127.381C92.0843 127.078 91.6882 126.601 91.4049 125.949C91.1269 125.297 90.9878 124.443 90.9878 123.388C90.9878 122.338 91.1269 121.487 91.4049 120.835C91.6882 120.183 92.0843 119.708 92.5932 119.411C93.1021 119.109 93.695 118.958 94.3718 118.958C95.0538 118.958 95.6492 119.107 96.1581 119.404C96.667 119.7 97.0605 120.175 97.3386 120.827C97.6219 121.474 97.7635 122.328 97.7635 123.388C97.7635 124.433 97.6219 125.284 97.3386 125.941C97.0553 126.593 96.6592 127.071 96.1503 127.373C95.6466 127.675 95.0538 127.826 94.3718 127.826ZM94.3718 127.182C94.9121 127.182 95.3817 127.065 95.7804 126.832C96.1791 126.593 96.486 126.198 96.7011 125.647C96.9162 125.095 97.0238 124.348 97.0238 123.404C97.0238 122.45 96.9162 121.697 96.7011 121.145C96.486 120.589 96.1791 120.194 95.7804 119.96C95.3817 119.722 94.9121 119.602 94.3718 119.602C93.8366 119.602 93.3697 119.719 92.971 119.952C92.5722 120.186 92.2627 120.578 92.0424 121.129C91.8273 121.676 91.7197 122.42 91.7197 123.364C91.7197 124.319 91.8273 125.074 92.0424 125.631C92.2627 126.188 92.5722 126.585 92.971 126.824C93.3697 127.063 93.8366 127.182 94.3718 127.182Z" fill="white"/>
<path d="M102.656 127.683L107.032 115.912H107.968L112.344 127.683H111.588L107.394 116.302H107.591L103.396 127.683H102.656ZM104.655 123.571L104.852 122.919H110.148L110.337 123.571H104.655Z" fill="white"/>
<path d="M116.301 131.341C115.939 131.341 115.543 131.307 115.112 131.238C114.682 131.169 114.294 131.071 113.948 130.944V130.276C114.373 130.419 114.777 130.525 115.16 130.594C115.548 130.663 115.926 130.697 116.293 130.697C117.248 130.697 117.959 130.477 118.426 130.037C118.892 129.602 119.126 128.836 119.126 127.739V126.784H119.079C118.816 127.076 118.481 127.322 118.071 127.524C117.662 127.72 117.19 127.818 116.655 127.818C116.067 127.818 115.527 127.683 115.034 127.413C114.546 127.142 114.155 126.697 113.861 126.076C113.573 125.456 113.428 124.616 113.428 123.555C113.428 121.986 113.777 120.827 114.475 120.08C115.178 119.332 116.188 118.958 117.505 118.958C117.772 118.958 118.04 118.971 118.308 118.998C118.58 119.024 118.845 119.064 119.102 119.117C119.365 119.17 119.609 119.231 119.834 119.3V127.659C119.834 128.985 119.538 129.928 118.945 130.49C118.352 131.058 117.471 131.341 116.301 131.341ZM116.765 127.158C117.211 127.158 117.646 127.06 118.071 126.864C118.496 126.662 118.848 126.357 119.126 125.949V119.809C118.916 119.751 118.664 119.703 118.37 119.666C118.082 119.624 117.778 119.602 117.458 119.602C116.387 119.602 115.569 119.907 115.002 120.517C114.441 121.121 114.16 122.11 114.16 123.484C114.16 124.438 114.276 125.183 114.507 125.718C114.737 126.249 115.05 126.622 115.443 126.84C115.836 127.052 116.277 127.158 116.765 127.158Z" fill="white"/>
<path d="M122.454 127.683V119.085H123.06L123.123 120.247H123.186C123.501 119.849 123.889 119.544 124.351 119.332C124.818 119.12 125.293 119.014 125.775 119.014C125.901 119.014 126.017 119.019 126.122 119.03C126.226 119.035 126.331 119.048 126.436 119.069V119.761C126.326 119.746 126.216 119.735 126.106 119.73C126.001 119.724 125.883 119.722 125.752 119.722C125.458 119.722 125.148 119.772 124.823 119.873C124.503 119.973 124.196 120.127 123.902 120.334C123.614 120.541 123.365 120.801 123.155 121.113V127.683H122.454Z" fill="white"/>
<path d="M130.492 127.826C129.815 127.826 129.222 127.678 128.713 127.381C128.204 127.078 127.808 126.601 127.525 125.949C127.247 125.297 127.108 124.443 127.108 123.388C127.108 122.338 127.247 121.487 127.525 120.835C127.808 120.183 128.204 119.708 128.713 119.411C129.222 119.109 129.815 118.958 130.492 118.958C131.174 118.958 131.769 119.107 132.278 119.404C132.787 119.7 133.181 120.175 133.459 120.827C133.742 121.474 133.884 122.328 133.884 123.388C133.884 124.433 133.742 125.284 133.459 125.941C133.175 126.593 132.779 127.071 132.27 127.373C131.767 127.675 131.174 127.826 130.492 127.826ZM130.492 127.182C131.032 127.182 131.502 127.065 131.9 126.832C132.299 126.593 132.606 126.198 132.821 125.647C133.036 125.095 133.144 124.348 133.144 123.404C133.144 122.45 133.036 121.697 132.821 121.145C132.606 120.589 132.299 120.194 131.9 119.96C131.502 119.722 131.032 119.602 130.492 119.602C129.957 119.602 129.49 119.719 129.091 119.952C128.692 120.186 128.383 120.578 128.162 121.129C127.947 121.676 127.84 122.42 127.84 123.364C127.84 124.319 127.947 125.074 128.162 125.631C128.383 126.188 128.692 126.585 129.091 126.824C129.49 127.063 129.957 127.182 130.492 127.182Z" fill="white"/>
<path d="M139.284 127.826C138.487 127.826 137.807 127.678 137.246 127.381C136.69 127.078 136.268 126.601 135.979 125.949C135.69 125.297 135.546 124.441 135.546 123.38C135.546 122.346 135.68 121.503 135.948 120.851C136.215 120.199 136.588 119.722 137.065 119.419C137.548 119.112 138.112 118.958 138.757 118.958C139.402 118.958 139.956 119.112 140.417 119.419C140.879 119.722 141.233 120.199 141.48 120.851C141.732 121.503 141.858 122.349 141.858 123.388V123.666H135.9V123.062H141.37L141.141 123.261C141.141 122.354 141.047 121.633 140.858 121.098C140.669 120.557 140.396 120.167 140.04 119.928C139.683 119.69 139.255 119.571 138.757 119.571C138.253 119.571 137.815 119.69 137.443 119.928C137.075 120.162 136.79 120.549 136.585 121.09C136.38 121.625 136.278 122.349 136.278 123.261V123.46C136.278 124.366 136.396 125.093 136.632 125.639C136.868 126.185 137.215 126.58 137.671 126.824C138.127 127.063 138.686 127.182 139.347 127.182C139.667 127.182 139.998 127.15 140.339 127.086C140.68 127.023 141.052 126.927 141.456 126.8V127.46C141.068 127.587 140.695 127.68 140.339 127.739C139.987 127.797 139.636 127.826 139.284 127.826Z" fill="white"/>
<path d="M148.836 127.683L146.105 123.897L145.68 123.348L142.603 119.085H143.461L146.121 122.784L146.538 123.332L149.694 127.683H148.836ZM142.548 127.683L145.68 123.348L146.121 122.784L148.789 119.085H149.623L146.538 123.332L146.105 123.897L143.39 127.683H142.548Z" fill="white"/>
<path d="M154.08 127.826C153.282 127.826 152.658 127.617 152.207 127.198C151.756 126.779 151.53 126.1 151.53 125.162V119.085L151.632 115.912H152.238V125.042C152.238 125.822 152.401 126.371 152.726 126.689C153.057 127.007 153.537 127.166 154.166 127.166C154.334 127.166 154.505 127.155 154.678 127.134C154.856 127.108 155.05 127.071 155.26 127.023V127.691C155.056 127.739 154.856 127.773 154.662 127.794C154.473 127.815 154.279 127.826 154.08 127.826ZM149.83 119.722V119.085H155.103V119.722H149.83Z" fill="white"/>
<path d="M156.638 127.683V119.085H157.244L157.307 120.247H157.37C157.684 119.849 158.073 119.544 158.534 119.332C159.001 119.12 159.476 119.014 159.959 119.014C160.085 119.014 160.2 119.019 160.305 119.03C160.41 119.035 160.515 119.048 160.62 119.069V119.761C160.51 119.746 160.399 119.735 160.289 119.73C160.184 119.724 160.066 119.722 159.935 119.722C159.641 119.722 159.332 119.772 159.006 119.873C158.686 119.973 158.379 120.127 158.086 120.334C157.797 120.541 157.548 120.801 157.338 121.113V127.683H156.638Z" fill="white"/>
<path d="M163.771 127.81C162.999 127.81 162.388 127.611 161.937 127.214C161.491 126.816 161.268 126.257 161.268 125.536C161.268 124.814 161.499 124.252 161.961 123.849C162.422 123.441 163.154 123.181 164.156 123.07L166.667 122.776L166.714 123.372L164.164 123.674C163.403 123.759 162.855 123.95 162.519 124.247C162.184 124.539 162.016 124.947 162.016 125.472C162.016 126.029 162.17 126.453 162.48 126.744C162.79 127.036 163.249 127.182 163.857 127.182C164.303 127.182 164.744 127.084 165.179 126.888C165.615 126.686 166.006 126.357 166.352 125.901V121.797C166.352 121.22 166.263 120.771 166.084 120.453C165.906 120.135 165.644 119.915 165.297 119.793C164.956 119.666 164.537 119.602 164.038 119.602C163.718 119.602 163.359 119.634 162.96 119.698C162.561 119.756 162.157 119.857 161.748 120V119.34C162.084 119.218 162.462 119.125 162.881 119.062C163.301 118.993 163.7 118.958 164.077 118.958C164.712 118.958 165.25 119.046 165.691 119.221C166.137 119.396 166.475 119.692 166.706 120.111C166.937 120.525 167.052 121.092 167.052 121.813V127.683H166.438L166.383 126.681H166.312C166.029 127.036 165.662 127.314 165.211 127.516C164.765 127.712 164.285 127.81 163.771 127.81Z" fill="white"/>
<path d="M172.555 127.826C171.757 127.826 171.133 127.617 170.682 127.198C170.231 126.779 170.005 126.1 170.005 125.162V119.085L170.107 115.912H170.713V125.042C170.713 125.822 170.876 126.371 171.201 126.689C171.532 127.007 172.012 127.166 172.641 127.166C172.809 127.166 172.98 127.155 173.153 127.134C173.331 127.108 173.525 127.071 173.735 127.023V127.691C173.531 127.739 173.331 127.773 173.137 127.794C172.948 127.815 172.754 127.826 172.555 127.826ZM168.305 119.722V119.085H173.578V119.722H168.305Z" fill="white"/>
<path d="M175.128 127.683V119.085H175.828V127.683H175.128ZM175.474 116.938C175.301 116.938 175.16 116.888 175.049 116.787C174.944 116.686 174.892 116.548 174.892 116.373C174.892 116.198 174.944 116.058 175.049 115.952C175.16 115.846 175.301 115.793 175.474 115.793C175.647 115.793 175.787 115.846 175.891 115.952C176.002 116.058 176.057 116.198 176.057 116.373C176.057 116.548 176.002 116.686 175.891 116.787C175.787 116.888 175.647 116.938 175.474 116.938Z" fill="white"/>
<path d="M180.644 127.683L177.323 119.085H178.094L181.202 127.246H181.061L184.169 119.085H184.909L181.588 127.683H180.644Z" fill="white"/>
<path d="M186.394 127.683V119.085H187.095V127.683H186.394ZM186.741 116.938C186.568 116.938 186.426 116.888 186.316 116.787C186.211 116.686 186.158 116.548 186.158 116.373C186.158 116.198 186.211 116.058 186.316 115.952C186.426 115.846 186.568 115.793 186.741 115.793C186.914 115.793 187.053 115.846 187.158 115.952C187.268 116.058 187.323 116.198 187.323 116.373C187.323 116.548 187.268 116.686 187.158 116.787C187.053 116.888 186.914 116.938 186.741 116.938Z" fill="white"/>
<path d="M191.524 127.826C191.126 127.826 190.748 127.8 190.391 127.747C190.034 127.694 189.68 127.611 189.329 127.5V126.84C189.749 126.967 190.132 127.057 190.478 127.11C190.829 127.163 191.186 127.19 191.548 127.19C192.361 127.19 192.957 127.041 193.334 126.744C193.717 126.442 193.909 126.018 193.909 125.472C193.909 125 193.788 124.639 193.547 124.39C193.311 124.136 192.912 123.948 192.351 123.826L191.304 123.595C190.538 123.42 189.995 123.144 189.675 122.768C189.355 122.386 189.195 121.906 189.195 121.328C189.195 120.644 189.447 120.08 189.951 119.634C190.459 119.183 191.239 118.958 192.288 118.958C192.629 118.958 192.954 118.977 193.264 119.014C193.573 119.051 193.877 119.112 194.176 119.197V119.849C193.83 119.753 193.51 119.687 193.216 119.65C192.928 119.613 192.621 119.594 192.296 119.594C191.719 119.594 191.254 119.671 190.903 119.825C190.556 119.973 190.305 120.178 190.147 120.437C189.99 120.692 189.911 120.978 189.911 121.296C189.911 121.71 190.021 122.052 190.242 122.322C190.462 122.593 190.85 122.792 191.406 122.919L192.453 123.142C193.251 123.317 193.809 123.592 194.129 123.969C194.455 124.34 194.617 124.825 194.617 125.424C194.617 126.161 194.357 126.747 193.838 127.182C193.324 127.611 192.553 127.826 191.524 127.826Z" fill="white"/>
<path d="M199.453 127.826C198.655 127.826 198.031 127.617 197.58 127.198C197.129 126.779 196.903 126.1 196.903 125.162V119.085L197.005 115.912H197.611V125.042C197.611 125.822 197.774 126.371 198.099 126.689C198.43 127.007 198.91 127.166 199.539 127.166C199.707 127.166 199.878 127.155 200.051 127.134C200.229 127.108 200.423 127.071 200.633 127.023V127.691C200.429 127.739 200.229 127.773 200.035 127.794C199.846 127.815 199.652 127.826 199.453 127.826ZM195.203 119.722V119.085H200.476V119.722H195.203Z" fill="white"/>
<path d="M204.025 127.81C203.254 127.81 202.643 127.611 202.192 127.214C201.746 126.816 201.523 126.257 201.523 125.536C201.523 124.814 201.754 124.252 202.215 123.849C202.677 123.441 203.409 123.181 204.411 123.07L206.921 122.776L206.968 123.372L204.419 123.674C203.658 123.759 203.11 123.95 202.774 124.247C202.438 124.539 202.27 124.947 202.27 125.472C202.27 126.029 202.425 126.453 202.735 126.744C203.044 127.036 203.503 127.182 204.112 127.182C204.558 127.182 204.998 127.084 205.434 126.888C205.869 126.686 206.26 126.357 206.606 125.901V121.797C206.606 121.22 206.517 120.771 206.339 120.453C206.161 120.135 205.898 119.915 205.552 119.793C205.211 119.666 204.791 119.602 204.293 119.602C203.973 119.602 203.613 119.634 203.215 119.698C202.816 119.756 202.412 119.857 202.003 120V119.34C202.339 119.218 202.716 119.125 203.136 119.062C203.556 118.993 203.954 118.958 204.332 118.958C204.967 118.958 205.505 119.046 205.945 119.221C206.391 119.396 206.73 119.692 206.961 120.111C207.191 120.525 207.307 121.092 207.307 121.813V127.683H206.693L206.638 126.681H206.567C206.284 127.036 205.917 127.314 205.465 127.516C205.019 127.712 204.539 127.81 204.025 127.81Z" fill="white"/>
<path d="M61.5328 146.555L65.9025 134.967H66.8377L71.2074 146.555H70.453L66.264 135.351H66.4605L62.2715 146.555H61.5328ZM63.529 142.507L63.7255 141.865H69.0147L69.2033 142.507H63.529Z" fill="white"/>
<path d="M72.7854 146.555V138.091H73.3906L73.4535 139.234H73.5163C73.8307 138.843 74.2184 138.543 74.6795 138.334C75.1458 138.125 75.62 138.021 76.102 138.021C76.2277 138.021 76.343 138.026 76.4478 138.036C76.5526 138.042 76.6574 138.055 76.7622 138.076V138.757C76.6521 138.741 76.5421 138.731 76.4321 138.725C76.3273 138.72 76.2094 138.718 76.0784 138.718C75.785 138.718 75.4759 138.767 75.151 138.866C74.8314 138.966 74.5249 139.117 74.2315 139.32C73.9433 139.524 73.6945 139.78 73.4849 140.088V146.555H72.7854Z" fill="white"/>
<path d="M78.1886 146.555V138.091H78.8881V146.555H78.1886ZM78.5344 135.977C78.3615 135.977 78.22 135.928 78.11 135.829C78.0052 135.729 77.9528 135.594 77.9528 135.421C77.9528 135.249 78.0052 135.111 78.11 135.006C78.22 134.902 78.3615 134.85 78.5344 134.85C78.7073 134.85 78.8462 134.902 78.951 135.006C79.061 135.111 79.116 135.249 79.116 135.421C79.116 135.594 79.061 135.729 78.951 135.829C78.8462 135.928 78.7073 135.977 78.5344 135.977Z" fill="white"/>
<path d="M81.5042 150V138.091H82.1172L82.1801 139.031H82.2351C82.4971 138.718 82.8324 138.462 83.2411 138.264C83.6498 138.065 84.1082 137.966 84.6164 137.966C85.2242 137.966 85.777 138.099 86.2747 138.365C86.7725 138.626 87.1681 139.065 87.4615 139.681C87.7549 140.291 87.9016 141.119 87.9016 142.163C87.9016 143.196 87.7444 144.05 87.43 144.723C87.1209 145.391 86.6572 145.887 86.039 146.211C85.4259 146.534 84.6688 146.696 83.7676 146.696C83.5004 146.696 83.2306 146.683 82.9582 146.657C82.6857 146.631 82.4342 146.602 82.2037 146.571V150H81.5042ZM83.7912 146.062C84.9072 146.062 85.7482 145.762 86.314 145.161C86.8851 144.561 87.1707 143.588 87.1707 142.241C87.1707 141.296 87.0554 140.563 86.8249 140.041C86.5943 139.514 86.28 139.143 85.8818 138.929C85.4836 138.715 85.033 138.608 84.53 138.608C84.0951 138.608 83.6681 138.71 83.2489 138.913C82.835 139.112 82.4866 139.43 82.2037 139.869V145.889C82.4185 145.942 82.6674 145.983 82.9503 146.015C83.2385 146.046 83.5188 146.062 83.7912 146.062Z" fill="white"/>
<path d="M92.5537 146.696C92.0455 146.696 91.5923 146.607 91.1941 146.43C90.8011 146.247 90.492 145.947 90.2667 145.529C90.0414 145.112 89.9288 144.553 89.9288 143.854V138.091H90.6361V143.846C90.6361 144.665 90.8221 145.237 91.1941 145.561C91.5661 145.879 92.0455 146.038 92.6323 146.038C92.9205 146.038 93.2244 145.994 93.544 145.905C93.8688 145.816 94.1806 145.675 94.4792 145.482C94.7831 145.289 95.053 145.033 95.2887 144.715V138.091H95.9882V146.555H95.383L95.3202 145.592H95.2573C94.8958 145.963 94.4792 146.239 94.0077 146.422C93.5361 146.605 93.0515 146.696 92.5537 146.696Z" fill="white"/>
<path d="M100.616 146.68C99.8458 146.68 99.2354 146.485 98.7848 146.093C98.3395 145.702 98.1168 145.151 98.1168 144.441C98.1168 143.731 98.3473 143.178 98.8084 142.781C99.2695 142.379 100 142.123 101.001 142.014L103.508 141.724L103.555 142.311L101.009 142.609C100.249 142.692 99.7017 142.88 99.3664 143.173C99.0311 143.46 98.8634 143.862 98.8634 144.378C98.8634 144.926 99.018 145.344 99.3271 145.631C99.6362 145.918 100.095 146.062 100.702 146.062C101.148 146.062 101.588 145.965 102.023 145.772C102.458 145.574 102.848 145.25 103.194 144.801V140.761C103.194 140.192 103.105 139.751 102.927 139.438C102.748 139.125 102.487 138.908 102.141 138.788C101.8 138.663 101.381 138.6 100.883 138.6C100.564 138.6 100.205 138.632 99.8065 138.694C99.4083 138.752 99.0049 138.851 98.5962 138.992V138.342C98.9315 138.222 99.3088 138.13 99.7279 138.068C100.147 138 100.545 137.966 100.923 137.966C101.557 137.966 102.094 138.052 102.534 138.224C102.979 138.397 103.317 138.689 103.548 139.101C103.778 139.508 103.893 140.067 103.893 140.777V146.555H103.28L103.225 145.568H103.155C102.872 145.918 102.505 146.192 102.054 146.391C101.609 146.584 101.13 146.68 100.616 146.68Z" fill="white"/>
<path d="M106.387 146.555V138.091H106.992L107.047 139.086H107.117C107.479 138.725 107.895 138.449 108.367 138.256C108.844 138.063 109.342 137.966 109.86 137.966C110.384 137.966 110.845 138.057 111.243 138.24C111.647 138.423 111.961 138.723 112.187 139.14C112.412 139.553 112.525 140.111 112.525 140.816V146.555H111.817V140.832C111.817 140.007 111.634 139.433 111.267 139.109C110.9 138.785 110.405 138.624 109.782 138.624C109.499 138.624 109.195 138.665 108.87 138.749C108.545 138.832 108.226 138.971 107.911 139.164C107.602 139.357 107.327 139.618 107.086 139.947V146.555H106.387Z" fill="white"/>
<path d="M117.041 146.68C116.27 146.68 115.66 146.485 115.209 146.093C114.764 145.702 114.541 145.151 114.541 144.441C114.541 143.731 114.772 143.178 115.233 142.781C115.694 142.379 116.425 142.123 117.426 142.014L119.933 141.724L119.98 142.311L117.433 142.609C116.674 142.692 116.126 142.88 115.791 143.173C115.456 143.46 115.288 143.862 115.288 144.378C115.288 144.926 115.442 145.344 115.752 145.631C116.061 145.918 116.519 146.062 117.127 146.062C117.572 146.062 118.012 145.965 118.447 145.772C118.882 145.574 119.273 145.25 119.618 144.801V140.761C119.618 140.192 119.529 139.751 119.351 139.438C119.173 139.125 118.911 138.908 118.565 138.788C118.225 138.663 117.805 138.6 117.308 138.6C116.988 138.6 116.629 138.632 116.231 138.694C115.833 138.752 115.429 138.851 115.021 138.992V138.342C115.356 138.222 115.733 138.13 116.152 138.068C116.572 138 116.97 137.966 117.347 137.966C117.981 137.966 118.518 138.052 118.958 138.224C119.403 138.397 119.741 138.689 119.972 139.101C120.203 139.508 120.318 140.067 120.318 140.777V146.555H119.705L119.65 145.568H119.579C119.296 145.918 118.929 146.192 118.479 146.391C118.033 146.584 117.554 146.68 117.041 146.68ZM118.652 135.813C118.437 135.813 118.23 135.779 118.031 135.711C117.837 135.638 117.648 135.562 117.465 135.484C117.302 135.416 117.143 135.354 116.985 135.296C116.828 135.239 116.669 135.21 116.506 135.21C116.27 135.21 116.055 135.257 115.862 135.351C115.668 135.44 115.484 135.581 115.311 135.774V135.163C115.605 134.834 116.006 134.67 116.514 134.67C116.729 134.67 116.933 134.706 117.127 134.779C117.326 134.847 117.517 134.92 117.701 134.999C117.868 135.072 118.031 135.137 118.188 135.194C118.345 135.252 118.502 135.28 118.659 135.28C118.901 135.28 119.115 135.233 119.304 135.14C119.498 135.046 119.681 134.902 119.854 134.709V135.327C119.561 135.651 119.16 135.813 118.652 135.813Z" fill="white"/>
<path d="M131.868 146.641C130.632 146.641 129.594 146.44 128.756 146.038C127.918 145.631 127.281 144.997 126.846 144.136C126.416 143.274 126.202 142.155 126.202 140.777C126.202 139.341 126.424 138.19 126.87 137.324C127.315 136.452 127.936 135.818 128.732 135.421C129.529 135.025 130.453 134.826 131.507 134.826C131.941 134.826 132.374 134.858 132.803 134.92C133.233 134.978 133.665 135.066 134.1 135.186V135.852C133.602 135.711 133.144 135.615 132.725 135.562C132.311 135.505 131.907 135.476 131.514 135.476C130.603 135.476 129.804 135.646 129.117 135.985C128.436 136.319 127.904 136.872 127.522 137.645C127.139 138.417 126.948 139.459 126.948 140.769C126.948 142.016 127.132 143.024 127.498 143.791C127.865 144.553 128.41 145.109 129.133 145.459C129.861 145.809 130.768 145.983 131.852 145.983C132.251 145.983 132.615 145.968 132.945 145.936C133.28 145.905 133.597 145.861 133.896 145.803L133.644 146.132V140.918H134.336V146.422C133.849 146.505 133.416 146.563 133.039 146.594C132.662 146.625 132.272 146.641 131.868 146.641Z" fill="white"/>
<path d="M139.433 146.696C138.924 146.696 138.471 146.607 138.073 146.43C137.68 146.247 137.371 145.947 137.146 145.529C136.92 145.112 136.808 144.553 136.808 143.854V138.091H137.515V143.846C137.515 144.665 137.701 145.237 138.073 145.561C138.445 145.879 138.924 146.038 139.511 146.038C139.799 146.038 140.103 145.994 140.423 145.905C140.748 145.816 141.059 145.675 141.358 145.482C141.662 145.289 141.932 145.033 142.168 144.715V138.091H142.867V146.555H142.262L142.199 145.592H142.136C141.775 145.963 141.358 146.239 140.887 146.422C140.415 146.605 139.93 146.696 139.433 146.696Z" fill="white"/>
<path d="M147.495 146.68C146.725 146.68 146.114 146.485 145.664 146.093C145.218 145.702 144.996 145.151 144.996 144.441C144.996 143.731 145.226 143.178 145.687 142.781C146.148 142.379 146.879 142.123 147.88 142.014L150.387 141.724L150.434 142.311L147.888 142.609C147.128 142.692 146.581 142.88 146.245 143.173C145.91 143.46 145.742 143.862 145.742 144.378C145.742 144.926 145.897 145.344 146.206 145.631C146.515 145.918 146.974 146.062 147.581 146.062C148.027 146.062 148.467 145.965 148.902 145.772C149.337 145.574 149.727 145.25 150.073 144.801V140.761C150.073 140.192 149.984 139.751 149.805 139.438C149.627 139.125 149.365 138.908 149.02 138.788C148.679 138.663 148.26 138.6 147.762 138.6C147.442 138.6 147.084 138.632 146.685 138.694C146.287 138.752 145.884 138.851 145.475 138.992V138.342C145.81 138.222 146.188 138.13 146.607 138.068C147.026 138 147.424 137.966 147.801 137.966C148.435 137.966 148.972 138.052 149.412 138.224C149.858 138.397 150.196 138.689 150.426 139.101C150.657 139.508 150.772 140.067 150.772 140.777V146.555H150.159L150.104 145.568H150.033C149.75 145.918 149.384 146.192 148.933 146.391C148.488 146.584 148.008 146.68 147.495 146.68Z" fill="white"/>
<path d="M153.265 146.555V138.091H153.871L153.933 139.234H153.996C154.311 138.843 154.698 138.543 155.159 138.334C155.626 138.125 156.1 138.021 156.582 138.021C156.708 138.021 156.823 138.026 156.928 138.036C157.033 138.042 157.137 138.055 157.242 138.076V138.757C157.132 138.741 157.022 138.731 156.912 138.725C156.807 138.72 156.689 138.718 156.558 138.718C156.265 138.718 155.956 138.767 155.631 138.866C155.311 138.966 155.005 139.117 154.711 139.32C154.423 139.524 154.174 139.78 153.965 140.088V146.555H153.265Z" fill="white"/>
<path d="M158.669 146.555V138.091H159.368V146.555H158.669ZM159.014 135.977C158.841 135.977 158.7 135.928 158.59 135.829C158.485 135.729 158.433 135.594 158.433 135.421C158.433 135.249 158.485 135.111 158.59 135.006C158.7 134.902 158.841 134.85 159.014 134.85C159.187 134.85 159.326 134.902 159.431 135.006C159.541 135.111 159.596 135.249 159.596 135.421C159.596 135.594 159.541 135.729 159.431 135.829C159.326 135.928 159.187 135.977 159.014 135.977Z" fill="white"/>
<path d="M164.303 146.696C163.91 146.696 163.511 146.667 163.108 146.61C162.71 146.552 162.335 146.469 161.984 146.359V133.902H162.684V138.984H162.739C163.001 138.692 163.336 138.449 163.745 138.256C164.159 138.063 164.63 137.966 165.159 137.966C165.746 137.966 166.283 138.099 166.77 138.365C167.263 138.626 167.653 139.065 167.941 139.681C168.235 140.291 168.382 141.119 168.382 142.163C168.382 143.713 168.03 144.856 167.328 145.592C166.632 146.328 165.623 146.696 164.303 146.696ZM164.35 146.062C165.424 146.062 166.241 145.762 166.802 145.161C167.368 144.561 167.651 143.588 167.651 142.241C167.651 141.296 167.535 140.563 167.305 140.041C167.074 139.514 166.763 139.146 166.37 138.937C165.977 138.723 165.536 138.616 165.049 138.616C164.599 138.616 164.161 138.712 163.737 138.906C163.318 139.099 162.967 139.399 162.684 139.806V145.835C162.898 145.897 163.153 145.952 163.446 145.999C163.739 146.041 164.041 146.062 164.35 146.062Z" fill="white"/>
<path d="M172.531 146.68C171.76 146.68 171.15 146.485 170.699 146.093C170.254 145.702 170.031 145.151 170.031 144.441C170.031 143.731 170.262 143.178 170.723 142.781C171.184 142.379 171.915 142.123 172.916 142.014L175.423 141.724L175.47 142.311L172.924 142.609C172.164 142.692 171.616 142.88 171.281 143.173C170.946 143.46 170.778 143.862 170.778 144.378C170.778 144.926 170.933 145.344 171.242 145.631C171.551 145.918 172.009 146.062 172.617 146.062C173.062 146.062 173.503 145.965 173.937 145.772C174.372 145.574 174.763 145.25 175.108 144.801V140.761C175.108 140.192 175.019 139.751 174.841 139.438C174.663 139.125 174.401 138.908 174.055 138.788C173.715 138.663 173.296 138.6 172.798 138.6C172.478 138.6 172.119 138.632 171.721 138.694C171.323 138.752 170.92 138.851 170.511 138.992V138.342C170.846 138.222 171.223 138.13 171.643 138.068C172.062 138 172.46 137.966 172.837 137.966C173.471 137.966 174.008 138.052 174.448 138.224C174.894 138.397 175.232 138.689 175.462 139.101C175.693 139.508 175.808 140.067 175.808 140.777V146.555H175.195L175.14 145.568H175.069C174.786 145.918 174.419 146.192 173.969 146.391C173.524 146.584 173.044 146.68 172.531 146.68Z" fill="white"/>
<path fill-rule="evenodd" clip-rule="evenodd" d="M39.022 40.3756C50.1821 40.3756 59.2326 31.339 59.2326 20.1878C59.2326 9.04025 50.1821 0 39.022 0C27.8618 0 18.8114 9.04025 18.8114 20.1878C18.8114 31.3354 27.8618 40.3756 39.022 40.3756ZM49.4349 13.9573V13.9793C51.7278 14.7037 53.3943 16.8439 53.3943 19.3756C53.3943 21.7683 51.9072 23.8061 49.8049 24.6329C49.1639 24.4354 48.6181 23.9634 48.3618 23.2902L48.3215 23.3085H48.2922C48.413 23.9488 48.7866 24.4756 49.2884 24.8085L49.2591 24.8159C48.5376 26.6744 46.7355 27.9951 44.6222 27.9951C43.6003 27.9951 42.6553 27.6915 41.8679 27.1646C41.6811 31.0793 42.6407 36.1939 43.7615 36.1939H34.2825C35.3996 36.1939 36.3592 31.0793 36.1761 27.1646C35.3849 27.6915 34.44 27.9988 33.4217 27.9988C31.682 27.9988 30.151 27.1024 29.2646 25.7451C28.9496 24.7902 29.3122 23.7037 30.2059 23.1476L30.184 23.111L30.1766 23.0854C29.4075 23.3854 28.8984 24.0549 28.7592 24.8085C26.3858 24.1354 24.6497 21.9585 24.6497 19.3756C24.6497 16.9463 26.188 14.8756 28.3416 14.0744C29.1291 14.0122 29.9202 14.3671 30.3854 15.0695L30.4184 15.0476L30.444 15.0366C30.1034 14.2427 29.3672 13.7378 28.5614 13.6537C28.5358 13.4488 28.5211 13.2439 28.5211 13.0317C28.5211 9.93658 31.0081 7.42682 34.0993 7.37926V7.36463C34.4619 7.86951 34.6121 8.52073 34.4619 9.17194L34.5022 9.18292L34.5279 9.1939C34.8795 8.38536 34.7257 7.4817 34.2056 6.8378C34.755 4.69024 36.6998 3.10243 39.0183 3.10243C41.5309 3.10243 43.604 4.96463 43.9373 7.38292H43.9482C43.9373 8.11463 43.5637 8.82438 42.8971 9.24146L42.919 9.27438L42.93 9.29999C43.7541 8.97438 44.2852 8.22438 44.3731 7.40121C47.2593 7.66097 49.5192 10.0793 49.5192 13.028C49.5192 13.1817 49.5118 13.3317 49.4972 13.4817C48.9954 13.8878 48.3251 14.0744 47.6439 13.9354L47.6366 13.9756L47.6256 14.0012C48.2336 14.2463 48.8855 14.2097 49.4349 13.9573Z" fill="white"/>
<path d="M143.401 7.41219C144.082 7.25121 144.738 6.9439 145.997 6.9439C144.738 6.9439 144.086 7.25487 143.401 7.41219ZM143.232 7.44877C143.276 7.44146 143.32 7.43048 143.36 7.42316C143.316 7.43414 143.276 7.44146 143.232 7.44877ZM143.207 7.45243C143.207 7.45243 143.214 7.45243 143.218 7.45243C143.218 7.45243 143.21 7.45243 143.207 7.45243ZM145.818 25.0024C145.818 25.0024 148.682 24.5744 150.265 23.078C148.686 24.578 145.818 25.0024 145.818 25.0024Z" fill="white"/>
<path fill-rule="evenodd" clip-rule="evenodd" d="M145.657 40.3756C156.817 40.3756 165.867 31.339 165.867 20.1878C165.867 9.04025 156.821 0 145.657 0C134.493 0 125.446 9.04025 125.446 20.1878C125.446 31.3354 134.497 40.3756 145.657 40.3756ZM133.629 30.4427C133.629 30.4427 134.182 31.3537 136.881 32.1659H136.878C139.581 32.9781 140.54 32.5244 140.54 32.5244C139.965 34.4305 137.951 35.5098 136.042 34.9354C134.134 34.361 133.054 32.3488 133.629 30.4427ZM143.218 34.1378C143.218 34.1378 144.075 34.7634 146.88 34.4744C149.686 34.1854 150.396 33.3951 150.396 33.3951C150.601 35.3744 149.162 37.1488 147.181 37.3537C145.199 37.5585 143.423 36.1207 143.218 34.1378ZM136.183 34.1284C133.945 33.6169 133.871 31.0976 133.871 31.0976C133.394 32.2981 134.601 34.3943 136.183 34.7561C138.083 35.1902 139.62 34.1274 140.097 32.9268C140.097 32.9268 138.422 34.6423 136.183 34.1308V34.1284ZM143.576 34.5734C143.576 34.5734 144.499 36.8007 147.069 36.5854C149.638 36.3728 150.151 34.0244 150.151 34.0244C150.339 35.4804 148.88 36.9834 147.065 37.1341C145.25 37.2876 143.764 36.0321 143.576 34.5734ZM132.347 22.2512C132.574 22.961 133.204 23.2939 133.204 23.2939L133.206 23.2973C133.202 23.3 133.2 23.3012 133.2 23.3012L133.845 24.3988C133.845 24.3988 133.925 24.7866 134.167 25.0134C134.409 25.2439 134.878 25.3902 134.878 25.3902L134.884 25.3976C134.909 25.5131 135.079 26.2758 135.303 26.411C135.407 26.4739 135.599 26.5273 135.794 26.5818C136.019 26.6445 136.249 26.7085 136.355 26.7898C136.367 26.8045 136.378 26.8197 136.39 26.8354L136.408 26.8593L136.422 26.8775C136.596 27.1136 137.127 27.8306 137.702 28.0939C137.999 28.2318 138.402 28.2113 138.83 28.1896L138.841 28.189C139.299 28.1671 139.789 28.1451 140.218 28.3098C140.285 28.3363 140.352 28.3659 140.418 28.395C140.688 28.514 140.941 28.6257 141.156 28.4963C141.17 28.4879 141.182 28.4784 141.193 28.468C141.228 28.4453 141.261 28.4222 141.293 28.3998C141.469 28.2769 141.612 28.1769 141.919 28.3089C141.942 28.3246 141.967 28.3396 141.994 28.3537C142.028 28.3708 142.08 28.4118 142.147 28.4655C142.412 28.6755 142.919 29.0784 143.529 28.9939C144.789 28.8146 146.51 27.7171 146.51 27.7171C146.51 27.7171 147.569 26.7146 147.983 26.7549C148.011 26.7576 148.037 26.756 148.062 26.7506C148.404 26.7463 148.816 26.5089 149.072 26.3616C149.106 26.3421 149.137 26.3242 149.165 26.3087L149.168 26.3075C149.171 26.3062 149.174 26.3048 149.177 26.3033C149.18 26.3015 149.184 26.2996 149.188 26.2976C149.195 26.2933 149.203 26.2885 149.211 26.2835C149.315 26.2315 149.531 26.1622 149.762 26.0878C150.108 25.9765 150.49 25.8537 150.587 25.7605C150.597 25.756 150.604 25.7475 150.609 25.7341L150.611 25.7277L150.615 25.7177C150.711 25.5448 151.629 24.8701 151.725 24.7998L151.733 24.7976C151.733 24.7976 154.092 22.8732 154.682 22.0427C155.145 21.3906 155.244 21.1265 155.473 20.5189C155.536 20.3527 155.608 20.1607 155.7 19.928C156.017 19.1262 156.136 17.8068 156.215 16.9294C156.242 16.6219 156.265 16.3686 156.29 16.211C156.349 15.8325 156.282 15.6189 156.223 15.4311C156.187 15.3175 156.154 15.2133 156.154 15.0878V13.2951C156.154 13.2951 156.074 12.2378 155.887 11.689C155.796 11.4218 155.718 11.2968 155.646 11.1819C155.571 11.0609 155.502 10.9509 155.433 10.6976C155.425 10.6688 155.416 10.6414 155.407 10.615C155.281 10.1617 155.168 9.8277 154.891 9.52316C154.748 9.36616 154.551 9.32922 154.354 9.29228C154.155 9.25499 153.956 9.2177 153.813 9.05698C153.808 9.05148 153.804 9.04589 153.799 9.04024C153.79 9.02857 153.78 9.01658 153.771 9.00437C153.658 8.84883 153.594 8.64354 153.53 8.43821C153.448 8.17672 153.367 7.91508 153.184 7.75609C152.872 7.48212 152.739 7.36843 152.285 7.02193C152.256 6.99809 152.225 6.97333 152.191 6.94756C151.83 6.67328 151.551 6.42404 151.286 6.18743C151.158 6.07371 151.034 5.96291 150.906 5.85365C150.796 5.75853 150.642 5.64512 150.473 5.52804C151.612 5.80975 154.905 6.95487 156.78 9.10243V9.10609C161.032 14.7952 160.058 20.1091 159.575 22.7459C159.553 22.8645 159.532 22.9778 159.513 23.0854C159.19 24.2963 157.103 29.9598 150.854 32.1805C149.393 32.7 147.477 32.9671 145.836 33.0732C144.192 33.1793 140.086 32.0378 140.086 32.0378C140.086 32.0378 137.211 31.0939 136.229 30.0768C135.248 29.0598 134.409 27.9549 134.409 27.9549C134.409 27.9549 131.827 25.8402 131.233 22.0976C130.768 19.1575 131.451 16.8156 131.793 15.6449C131.833 15.5065 131.869 15.3843 131.897 15.2795C131.866 15.485 131.847 15.7321 131.867 16.0024C131.895 16.3859 131.952 16.5303 131.996 16.6419C132.038 16.7486 132.068 16.8254 132.05 17.0524C132.036 17.2357 131.975 17.3421 131.905 17.4638C131.797 17.6505 131.669 17.8731 131.658 18.4646C131.65 18.9306 131.766 19.1926 131.877 19.4425C131.998 19.7164 132.113 19.9757 132.05 20.4732C132.025 20.6744 132.006 20.8536 131.992 21.0146C131.992 21.0146 132.116 21.5415 132.343 22.2512H132.347ZM137.969 24.8195C137.969 24.8195 135.46 23.0671 134.94 22.0903L134.951 22.0939C134.696 21.615 134.679 21.2328 134.661 20.8383C134.642 20.4281 134.623 20.0046 134.336 19.4451C133.839 18.472 134.105 16.705 134.276 15.5672C134.298 15.4217 134.319 15.2866 134.336 15.1646C134.486 14.089 135.969 12.2744 135.969 12.2744L137.951 10.3207C137.951 10.3207 139.181 9.06586 140.038 8.76952C140.343 8.66544 140.655 8.49012 140.993 8.30014C141.605 7.95588 142.302 7.5635 143.199 7.45976C143.44 7.4165 143.669 7.34957 143.914 7.27817C144.497 7.10806 145.168 6.91257 146.279 6.95123C147.858 7.00611 148.635 7.43415 148.635 7.43415C148.635 7.43415 150.268 7.67562 150.752 8.37074C151.041 8.83435 151.306 9.02649 151.579 9.22434C151.935 9.48239 152.305 9.75017 152.759 10.6427C152.891 10.9425 153.002 11.1371 153.096 11.3033C153.365 11.7759 153.503 12.019 153.641 13.8C153.697 14.2245 153.767 14.5194 153.829 14.7789C153.974 15.3897 154.072 15.8046 153.828 17.25C153.48 19.3098 152.81 19.9244 152.81 19.9244C152.81 19.9244 151.847 21.5817 150.264 23.0817C148.682 24.5781 145.818 25.0061 145.818 25.0061C145.818 25.0061 143.782 25.9427 141.13 25.8622C138.478 25.7817 137.969 24.8195 137.969 24.8195Z" fill="white"/>
<path d="M94.4675 10.2915C94.7422 13.522 93.757 14.0451 93.2771 15.2305C92.5007 17.111 92.5739 20.1878 93.7643 20.1878C95.3209 20.0488 97.2108 17.3671 102.551 15.2854C106.027 13.9317 108.005 14.0634 111.191 14.7732C111.415 14.8244 111.638 14.8866 111.858 14.9561C109.591 6.48294 101.939 0.212206 92.7863 0.0109863C92.3102 0.980499 91.9256 1.80001 91.7828 2.39635C91.5337 5.35611 94.1745 6.82318 94.4675 10.2915Z" fill="white"/>
<path d="M87.7062 25.4707C88.5303 22.5732 87.1421 22.5476 88.2116 19.5293C89.1383 16.9098 91.9365 15.9915 92.2112 11.2061C92.3871 8.12926 89.0687 7.60975 89.7389 2.21341C89.8378 1.40122 90.0136 0.71341 90.2334 0.109752C80.0622 1.16341 72.1325 9.75 72.1325 20.1878C72.1325 27.3183 75.8391 33.5817 81.4284 37.1744C81.5199 35.4768 81.6884 33.4098 83.3329 30.9951C86.4645 26.3927 87.263 27.0512 87.7135 25.4707" fill="white"/>
<path d="M101.408 19.4012C97.2913 21.8342 97.5624 24.2232 93.8557 27.2744C89.4862 30.8707 88.9734 27.2634 85.6147 31.9866C84.3987 33.6988 84.3475 36.3549 84.1753 38.6524C86.6733 39.7573 89.4312 40.372 92.3394 40.372C103.503 40.372 112.55 31.3317 112.55 20.1842C112.55 19.3829 112.499 18.5964 112.407 17.8207C111.883 17.6817 111.418 17.5573 110.92 17.4549C106.829 16.6024 104.869 17.3524 101.408 19.3976" fill="white"/>
<path d="M93.757 22.3939C93.7313 21.2122 92.779 20.8098 91.9733 20.4841C90.5668 19.9171 89.0248 21.8451 89.6182 23.1512C90.3544 24.4354 89.7207 25.95 90.6693 26.4329C91.618 26.9195 94.3796 24.8415 94.6214 24.2049C94.8631 23.5683 93.7863 23.5756 93.7606 22.3939" fill="white"/>
<path d="M36.9343 103.968L33.3522 91.7707H15.9875L12.4421 103.968H0L15.3576 54.5085H34.158L49.5156 103.968H36.9343ZM18.936 81.6768H30.4111L24.6571 62.0963L18.936 81.6768Z" fill="white"/>
<path d="M59.5659 104.071C57.079 103.694 54.8008 103.156 52.7241 102.465V92.1403C54.7752 92.8317 57.1083 93.3768 59.7161 93.7793C62.3239 94.178 64.7669 94.3793 67.0414 94.3793C69.9386 94.3793 72.008 93.9915 73.246 93.2122C74.484 92.4329 75.103 91.2951 75.103 89.8024C75.103 88.9793 74.9235 88.2951 74.5682 87.7463C74.2129 87.2012 73.5866 86.711 72.6929 86.2793C71.7992 85.8439 70.5173 85.4049 68.8471 84.9585L64.7669 83.8902C60.3058 82.8 56.9618 81.0659 54.7312 78.6951C52.5006 76.3207 51.3872 73.2183 51.3872 69.3878C51.3872 64.4195 53.2112 60.589 56.8556 57.8927C60.5036 55.1963 65.906 53.85 73.0628 53.85C75.3154 53.85 77.48 53.9781 79.5531 54.2341C81.6262 54.4902 83.5014 54.8415 85.1753 55.2878V65.6159C83.637 65.1476 81.8642 64.778 79.8571 64.511C77.85 64.2439 75.8428 64.1085 73.8357 64.1085C70.2902 64.1085 67.785 64.511 66.3235 65.3122C64.8621 66.1171 64.1333 67.2512 64.1333 68.7219C64.1333 69.4793 64.2908 70.1195 64.6021 70.6427C64.9134 71.1658 65.4555 71.6305 66.2247 72.0293C66.9938 72.428 68.0816 72.8195 69.4881 73.2L73.5683 74.2354C78.4763 75.439 82.084 77.2244 84.3915 79.5988C86.699 81.9695 87.8527 85.0866 87.8527 88.939C87.8527 92.1476 87.0286 94.9317 85.3767 97.2951C83.7249 99.6585 81.3441 101.473 78.2345 102.743C75.1249 104.012 71.4147 104.649 67.111 104.649C64.5691 104.649 62.0529 104.459 59.5659 104.082V104.071Z" fill="white"/>
<path d="M126.695 103.968L123.117 91.7707H105.752L102.207 103.968H89.7609L105.119 54.5085H123.919L139.277 103.968H126.695ZM108.697 81.6768H120.172L114.418 62.0963L108.697 81.6768Z" fill="white"/>
<path d="M184.236 79.9061V103.467C179.573 104.224 175.302 104.601 171.42 104.601C161.586 104.601 154.235 102.52 149.374 98.3524C144.514 94.1854 142.082 87.8598 142.082 79.3719C142.082 70.8841 144.576 64.6463 149.561 60.3256C154.546 56.0049 161.879 53.8427 171.559 53.8427C175.46 53.8427 179.185 54.2415 182.73 55.0463V65.5061C179.43 64.7707 176.094 64.4012 172.728 64.4012C168.622 64.4012 165.311 64.9207 162.791 65.9561C160.271 66.9915 158.414 68.6195 157.22 70.8366C156.026 73.0537 155.44 75.9659 155.462 79.5732C155.462 84.5634 156.682 88.2402 159.125 90.6037C161.568 92.9671 165.318 94.1451 170.384 94.1451C171.23 94.1451 171.878 94.1341 172.325 94.1122V79.9098H184.236V79.9061Z" fill="white"/>
<path d="M225.419 103.968L221.837 91.7707H204.476L200.93 103.968H188.484L203.842 54.5085H222.642L238 103.968H225.419ZM207.42 81.6768H218.896L213.141 62.0963L207.42 81.6768Z" fill="white"/>
<path fill-rule="evenodd" clip-rule="evenodd" d="M219.027 20.0876C219.027 31.232 210.059 40.2439 198.883 40.2439C187.776 40.2439 178.738 31.1632 178.738 20.0876C178.738 9.01188 187.776 0 198.883 0C209.99 0 219.027 8.94309 219.027 20.0876ZM208.519 35.214C208.474 36.1282 208.435 36.9278 208.541 37.4922V37.4234C209.438 36.9418 210.266 36.3915 211.094 35.7724C209.727 33.9104 209.594 30.8193 209.502 28.6958C209.455 27.6026 209.419 26.7659 209.231 26.4853C208.679 25.7286 207.989 25.1782 206.816 24.9719C206.747 25.247 206.224 25.43 205.911 25.53C204.849 25.8693 203.461 25.7927 202.362 25.2439C201.263 24.6951 200.469 23.8712 199.78 22.9081L199.366 23.1144C198.489 23.5514 197.58 23.7256 196.702 23.8937C195.783 24.0698 194.899 24.2393 194.123 24.6967C193.64 24.9719 193.157 25.4534 192.743 26.2101C192.191 27.3108 191.156 34.7405 191.156 38.1113C192.273 38.7304 192.776 38.8481 193.922 39.116C194.049 39.1459 194.184 39.1776 194.329 39.212C194.881 39.3496 195.433 39.4872 195.985 39.556C195.985 39.3496 196.261 36.3227 196.399 35.566C196.511 35.9562 196.442 38.2442 196.411 39.2441C196.404 39.478 196.399 39.6414 196.399 39.6936C197.089 39.8311 198.193 39.8311 198.952 39.8311C201.366 39.8311 203.712 39.4184 205.851 38.5929C206.678 38.3177 207.506 37.9049 208.265 37.4922C208.181 36.9049 208.225 35.6014 208.272 34.2057C208.303 33.3124 208.334 32.3813 208.334 31.576C208.357 31.6677 208.388 31.7594 208.418 31.8512C208.48 32.0346 208.541 32.2181 208.541 32.4015C208.608 33.3735 208.561 34.3454 208.519 35.214ZM209.783 22.9769C210.611 22.8393 211.094 22.4953 211.301 21.8762V22.0826C211.508 21.4634 212.267 15.6848 212.267 14.6529V14.2402C212.267 14.2402 208.61 14.8593 206.402 14.0338C205.713 14.2402 205.299 14.5841 205.092 14.9281C204.954 15.272 204.816 15.616 204.609 15.96C204.471 16.4415 204.195 16.8543 203.367 17.1295C203.229 17.1983 203.091 17.267 202.884 17.267C203.022 18.7117 202.401 18.9869 202.332 18.9869C202.194 20.2251 201.366 22.1513 200.262 22.9769C200.952 24.0088 201.918 24.7655 202.953 25.1782C203.01 25.1972 203.072 25.2213 203.137 25.2463C203.307 25.3123 203.493 25.3846 203.643 25.3846C204.54 25.6598 205.918 25.3158 206.47 24.9719C206.47 24.9719 206.609 24.2839 206.816 23.7336C207.134 22.7824 207.269 22.813 207.788 22.931C208.17 23.0178 208.759 23.1518 209.783 22.9769ZM210.128 10.319C208.265 9.35585 205.506 9.42464 203.367 10.3877H203.505C202.056 11.2133 201.711 12.7267 201.711 14.3777V14.9969C201.734 15.1574 201.765 15.3179 201.796 15.4784C201.857 15.7994 201.918 16.1205 201.918 16.4415V16.7167C201.947 16.8875 201.999 17.07 202.05 17.2498C202.123 17.5044 202.194 17.7533 202.194 17.955V18.7117C202.401 18.5741 202.614 18.1129 202.545 17.0122C202.683 16.9434 203.022 16.8543 203.16 16.8543C203.988 16.5791 204.264 15.96 204.471 15.4784C204.525 15.3438 204.579 15.2302 204.629 15.1253C204.706 14.9623 204.774 14.8204 204.816 14.6529C204.954 14.3089 205.644 13.7586 206.333 13.5522C208.61 14.3089 212.267 13.7586 212.267 13.7586C212.539 11.5196 210.999 10.7528 210.162 10.3361C210.151 10.3303 210.139 10.3246 210.128 10.319ZM196.744 12.8643H196.606V13.2083H196.951C197.158 13.2083 197.71 13.277 198.055 13.5522C198.4 13.8274 198.607 14.1714 198.745 14.5153C198.814 14.6529 198.814 14.7905 198.814 14.8593C198.794 14.8786 198.77 14.9088 198.741 14.9437C198.667 15.0331 198.568 15.1538 198.469 15.2033C198.469 15.2033 198.331 15.272 198.331 15.3408C198.331 15.1345 198.262 14.9281 198.124 14.6529C197.986 14.4465 197.848 14.2401 197.641 14.0338C197.296 13.7586 196.813 13.621 196.606 13.621H196.054C195.94 13.621 195.847 13.6627 195.764 13.7002C195.695 13.7308 195.633 13.7586 195.571 13.7586C195.433 13.8274 195.088 13.965 195.019 13.965L194.812 14.1713C195.226 13.621 195.226 12.9331 195.226 12.7955C195.221 12.7653 195.216 12.7325 195.211 12.6974C195.142 12.2533 195.018 11.4431 194.123 10.8693C193.709 10.6629 193.226 10.6629 193.019 10.6629C193.019 10.7035 192.922 10.7202 192.801 10.7412C192.717 10.7557 192.621 10.7723 192.536 10.8005C192.398 10.8464 192.321 10.8922 192.244 10.9381C192.206 10.961 192.168 10.9839 192.122 11.0069C192.067 11.0344 191.989 11.0839 191.912 11.1335C191.796 11.2078 191.68 11.2821 191.639 11.2821C191.604 11.3164 191.553 11.4024 191.501 11.4884C191.449 11.5744 191.397 11.6604 191.363 11.6948C191.363 11.7292 191.328 11.798 191.294 11.8668C191.26 11.9356 191.225 12.0044 191.225 12.0388C191.207 12.0572 191.188 12.0707 191.171 12.0832C191.124 12.1174 191.087 12.1444 191.087 12.2452V12.5203C191.018 12.5891 191.018 12.6579 191.018 12.7267V13.0707C191.044 13.1226 191.06 13.2136 191.081 13.3328C191.116 13.5295 191.165 13.8027 191.294 14.1026V14.2402C191.363 14.3089 191.432 14.4465 191.432 14.4465C191.501 14.3777 191.777 14.2402 191.777 14.2402C191.984 14.1714 192.26 14.1714 192.26 14.1714C192.398 14.1026 192.674 14.1026 192.95 14.1714C193.019 14.1714 193.157 14.2401 193.295 14.3089C193.571 14.5153 193.778 14.7217 193.916 14.9281C193.997 14.8738 194.079 14.8302 194.156 14.7889C194.275 14.7255 194.384 14.6674 194.467 14.5841L194.261 14.7905C194.192 14.9281 194.192 15.0657 194.192 15.0657C194.123 15.0657 194.054 15.1345 194.054 15.2033V15.6848C194.033 15.6432 194.012 15.5952 193.989 15.5428C193.936 15.4223 193.874 15.2784 193.778 15.1345C193.64 14.9281 193.433 14.7217 193.157 14.5153C192.812 14.3089 192.26 14.3089 192.053 14.3089C191.984 14.3089 191.708 14.3777 191.501 14.4465C191.403 14.479 191.336 14.5269 191.278 14.5683C191.213 14.6146 191.16 14.6529 191.087 14.6529C191.032 14.6804 190.955 14.73 190.877 14.7795C190.761 14.8538 190.646 14.9281 190.604 14.9281C190.57 14.9625 190.518 15.0485 190.466 15.1345C190.414 15.2205 190.363 15.3064 190.328 15.3408C190.328 15.3752 190.294 15.444 190.259 15.5128C190.225 15.5816 190.19 15.6504 190.19 15.6848C190.19 15.7536 190.121 15.8224 190.121 15.8224V15.5472L190.052 15.4784V15.3408L189.914 15.2033C189.875 15.2033 189.858 15.1599 189.839 15.1096C189.823 15.0704 189.806 15.027 189.776 14.9969C189.73 14.9051 189.684 14.8746 189.638 14.844C189.615 14.8287 189.592 14.8134 189.569 14.7905L189.293 14.5153H189.155C189.086 14.4465 188.948 14.3089 188.879 14.3089C188.81 14.2402 188.465 14.1714 188.327 14.1714C188.19 14.1026 188.052 14.1026 187.845 14.1026H187.293C187.269 14.1106 187.24 14.1195 187.207 14.1296C186.961 14.2061 186.502 14.3489 186.258 14.6529C186.218 14.7232 186.177 14.792 186.138 14.8593C185.907 15.2534 185.706 15.5974 185.706 15.8912L185.568 15.7536C185.505 15.722 185.427 15.6616 185.355 15.6053C185.269 15.5389 185.191 15.4784 185.154 15.4784C185.125 15.4784 185.05 15.4548 184.961 15.4272C184.835 15.3881 184.683 15.3408 184.602 15.3408C184.464 15.272 184.326 15.272 184.119 15.272H183.429C183.399 15.2117 183.356 15.1514 183.316 15.0969C183.266 15.027 183.222 14.9667 183.222 14.9281C181.636 15.1345 180.739 15.5472 180.739 15.5472L180.394 15.6848C180.394 15.6848 180.67 16.0976 181.981 16.5103C183.222 16.9231 185.499 17.4046 189.5 17.611H189.707C190.397 17.6798 191.087 17.6798 191.846 17.6798H194.812C195.916 17.6798 196.882 17.611 197.71 17.5422L197.848 17.4046V17.4734C199.308 17.3521 200.124 17.1238 200.817 16.93C200.91 16.9041 201.001 16.8787 201.09 16.8543C201.064 16.6668 201.016 16.4689 200.967 16.2686C200.892 15.9546 200.814 15.6349 200.814 15.3408V14.7217C200.676 14.6529 200.642 14.6185 200.625 14.6013C200.607 14.5841 200.607 14.5841 200.538 14.5841H199.849C199.735 14.5841 199.642 14.6258 199.558 14.6633C199.49 14.6939 199.428 14.7217 199.366 14.7217C199.337 14.7217 199.285 14.7453 199.224 14.773C199.137 14.8121 199.033 14.8593 198.952 14.8593H198.814C198.883 14.7217 198.952 14.6529 198.952 14.6529L199.297 14.3089C199.325 14.3089 199.401 14.2735 199.49 14.2321C199.616 14.1734 199.768 14.1026 199.849 14.1026C199.952 14.1026 200.021 14.0682 200.09 14.0338C200.159 13.9994 200.228 13.965 200.332 13.965H201.021C201.228 13.6898 201.228 13.3458 201.228 13.277C201.228 12.8643 201.228 11.97 200.4 11.2133C200.056 10.9381 199.504 10.8693 199.297 10.8693H198.745C198.631 10.8693 198.538 10.911 198.454 10.9485C198.386 10.9791 198.324 11.0069 198.262 11.0069C198.181 11.0069 198.029 11.0777 197.903 11.1364C197.814 11.1779 197.739 11.2133 197.71 11.2133C197.691 11.2326 197.666 11.2627 197.637 11.2976C197.563 11.3871 197.464 11.5077 197.365 11.5572C197.296 11.5572 197.158 11.7636 197.158 11.8324C197.135 11.8553 197.112 11.8706 197.089 11.8859C197.043 11.9165 196.997 11.9471 196.951 12.0388C196.882 12.1764 196.882 12.3139 196.882 12.3139C196.813 12.3827 196.744 12.4515 196.744 12.5203V12.8643ZM194.467 14.5841C194.605 14.4465 194.743 14.3089 194.812 14.1713L194.674 14.3089C194.674 14.3089 194.467 14.5153 194.467 14.5841ZM187.983 12.9331C187.983 12.9482 187.976 12.9734 187.967 13.0071C187.935 13.1264 187.875 13.3528 187.983 13.621C187.983 13.6898 188.052 13.8274 188.052 13.8274C188.121 13.793 188.121 13.8102 188.121 13.836C188.121 13.8618 188.121 13.8962 188.19 13.8962H188.534C188.672 13.8962 189.017 13.965 189.224 14.1714L189.362 14.3089C189.39 14.3632 189.427 14.4068 189.463 14.4481C189.519 14.5115 189.569 14.5696 189.569 14.6529C189.621 14.6273 189.691 14.5731 189.767 14.5151C189.894 14.4174 190.035 14.3089 190.121 14.3089C190.19 14.2402 190.259 14.2402 190.259 14.2402C190.742 13.8962 190.88 13.4146 190.88 13.277C190.88 13.2516 190.881 13.2239 190.881 13.194C190.887 12.9002 190.898 12.4007 190.397 11.9012C190.19 11.6948 189.845 11.626 189.707 11.626H189.362C189.293 11.626 189.242 11.6432 189.19 11.6604C189.138 11.6776 189.086 11.6948 189.017 11.6948C188.948 11.6948 188.672 11.8324 188.672 11.8324C188.638 11.8324 188.586 11.884 188.534 11.9356C188.483 11.9872 188.431 12.0388 188.396 12.0388C188.396 12.1076 188.258 12.2452 188.258 12.2452L188.121 12.3827C188.052 12.4515 188.052 12.5203 188.052 12.5203C187.983 12.5891 187.983 12.6579 187.983 12.6579V12.9331ZM184.602 11.9012C184.395 11.9012 183.636 12.3827 183.636 12.3827V12.1076C183.119 12.8521 183.176 13.549 183.21 13.96C183.217 14.0426 183.222 14.1138 183.222 14.1714C183.222 14.1999 183.246 14.2402 183.274 14.2874C183.313 14.3541 183.36 14.4347 183.36 14.5153C183.36 14.5578 183.387 14.6004 183.423 14.6591C183.446 14.6954 183.472 14.7379 183.498 14.7905H184.05C184.164 14.7905 184.257 14.8113 184.341 14.8301C184.409 14.8454 184.471 14.8593 184.533 14.8593C184.664 14.8593 184.823 14.9146 184.94 14.9551C185.007 14.9784 185.06 14.9969 185.085 14.9969C185.14 15.0244 185.195 15.0739 185.251 15.1235C185.333 15.1978 185.416 15.272 185.499 15.272L185.637 15.4096C185.706 15.0657 185.913 14.7217 186.189 14.3089C186.258 14.2402 186.327 14.1714 186.327 14.1026C186.603 13.7586 186.948 13.6898 187.086 13.6898H187.569C187.5 13.5522 187.293 13.277 187.293 13.277L187.224 13.2083V13.0707C187.155 12.9331 187.086 12.9331 187.086 12.9331C187.047 12.9331 187.03 12.8897 187.01 12.8395C186.995 12.8003 186.978 12.7569 186.948 12.7267C186.907 12.7066 186.873 12.6923 186.844 12.6805C186.775 12.652 186.741 12.6378 186.741 12.5891L186.534 12.3827C186.471 12.3512 186.393 12.2907 186.32 12.2345C186.235 12.1681 186.157 12.1076 186.12 12.1076C185.982 12.0388 185.706 11.97 185.568 11.97C185.361 11.9012 185.292 11.9012 185.085 11.9012H184.602ZM181.485 17.1951L180.759 16.5118L185.9 35.2171L185.934 35.2513C186.418 35.7346 187.177 36.1576 188.036 36.4821C188.898 36.8077 189.875 37.0401 190.807 37.1332L190.843 36.7692C189.944 36.6793 188.998 36.4544 188.165 36.1399C187.352 35.8323 186.661 35.4445 186.227 35.026L181.485 17.1951Z" fill="white"/>
</svg>
