<svg width="300" height="88" viewBox="0 0 300 88" fill="none" xmlns="http://www.w3.org/2000/svg">
<path d="M27.0877 18.7815C26.4608 22.5606 29.3924 27.6044 31.4425 29.4267C32.3134 30.2009 32.0231 30.7816 31.1522 30.2977C26.2471 27.5726 20.5297 22.5666 14.3135 30.7816C9.30907 37.395 10.249 43.2654 13.7328 45.1041C16.3319 46.4759 22.1602 42.4487 23.9909 41.717C31.7061 38.6334 36.6335 39.9092 35.1199 42.8783C32.6037 47.8138 22.7111 40.8459 15.378 53.5235C9.66838 63.3945 22.6982 72.5673 28.8296 64.6525C36.3729 54.9152 34.7832 51.7699 44.2166 52.5558C49.9703 53.0352 53.2413 55.4067 50.2166 62.2332C47.5564 68.2365 54.6424 69.7324 58.8294 66.9751C62.7971 64.3622 70.2965 54.6392 63.9584 48.7816C59.2643 44.4433 58.5708 40.3499 61.3455 38.5235C66.2149 35.3183 68.8036 38.4384 70.9261 42.588C72.3195 45.312 74.3834 45.583 76.0551 45.2009C79.4422 44.4267 80.1827 40.8942 78.9584 36.9751C77.3887 31.9506 75.0175 29.6472 73.6358 28.2654C68.1197 22.7493 62.9317 28.4523 57.1843 30.4913C54.0183 31.6145 52.1149 30.601 53.5069 29.6203C57.7649 26.6203 61.8662 24.3905 62.7972 21.4913C63.4051 19.598 61.6666 15.9724 57.3778 14.5235C52.7399 12.9567 48.9414 13.6823 47.3134 16.2655C45.9365 18.4501 45.765 28.6526 44.4102 28.6526C42.5715 28.6526 46.2865 17.332 38.7973 13.9429C33.3177 11.4632 27.8903 13.9429 27.0877 18.7815ZM35.4102 16.6295C38.1199 16.6295 39.5234 18.2327 40.0553 20.7171C40.5556 23.0541 40.4424 28.1687 41.2166 29.8139C43.1024 33.8212 47.6414 32.33 48.0875 28.459C48.3621 26.0773 49.5392 19.8461 50.2166 18.201C51.4767 15.1405 57.4003 16.8926 58.7327 19.6526C60.0875 22.459 54.9767 25.679 52.0553 27.3945C49.1338 29.11 49.4361 32.4495 51.2811 33.3945C55.2488 35.4268 58.6499 33.1571 63.4746 30.8266C71.634 26.8854 74.7163 35.5714 75.5713 38.1364C76.4422 40.7493 75.0314 42.852 73.6358 40.459C71.1776 36.244 66.7085 31.2453 59.7972 34.9429C55.0553 37.4799 53.6762 43.2572 58.152 48.1042C62.6957 53.0247 63.8464 55.7144 61.0552 59.5235C57.0089 65.0454 52.6549 66.052 53.7972 62.9106C57.6681 52.2655 52.8737 49.661 47.4101 48.4913C39.3112 46.7576 35.8902 48.078 32.7973 51.1042C28.8561 54.9604 26.1222 62.5586 23.0232 62.4268C18.4748 62.2332 14.6821 58.912 20.9909 51.7816C26.7935 45.2233 34.4425 51.201 38.3134 44.7171C42.3205 38.0051 32.5975 33.2387 22.5393 38.6203C19.7689 40.1026 14.6922 41.6203 14.4103 39.0074C14.3128 38.1041 14.7676 35.7427 16.1522 33.4913C20.9158 25.7458 26.0917 31.1596 30.9554 33.1042C34.4425 34.4983 36.4854 29.8139 34.5392 27.9752C31.8707 25.454 30.3338 22.7993 30.8618 20.33C31.2123 18.6912 32.7005 16.6295 35.4102 16.6295Z" fill="white"/>
<path d="M65.7104 16.3382C66.701 14.0209 66.2515 11.7831 64.9429 9.7853C63.6454 7.8046 61.4946 6.03808 59.0142 4.57548C54.0606 1.65452 47.6089 -0.15877 43.4639 0.0109659C38.8379 0.200397 32.384 0.674361 27.8769 2.62467C25.6197 3.60139 23.7699 4.98246 22.9309 6.96221C22.0846 8.95892 22.319 11.4356 23.9476 14.4752C24.1138 14.7854 24.3782 14.9812 24.6794 15.0584C24.9693 15.1327 25.2663 15.0914 25.5192 14.9866C26.0114 14.7826 26.4754 14.2676 26.4152 13.5801C26.1273 10.2922 27.1642 7.98159 28.9831 6.38098C30.8258 4.75951 33.5195 3.82509 36.603 3.42354C42.7708 2.62032 50.2674 3.97852 54.8784 5.8606C58.9791 7.53442 61.9193 11.0716 63.1719 15.9934C63.3246 16.5932 63.8039 16.9867 64.3182 17.083C64.8507 17.1826 65.4445 16.9603 65.7104 16.3382Z" fill="white"/>
<path d="M43.0262 4.94638C42.0012 4.84673 41.0005 4.93127 40.2331 5.25691C39.4481 5.59002 38.852 6.21106 38.852 7.14993C38.852 8.32651 39.7266 9.41032 40.8217 9.93658C41.9497 10.4786 43.4062 10.4808 44.6197 9.3901C45.189 8.87845 45.5422 8.35086 45.6802 7.81827C45.8212 7.2743 45.7261 6.76755 45.476 6.34155C44.9947 5.52159 43.9739 5.03853 43.0262 4.94638Z" fill="white"/>
<path d="M68.4043 7.98279C67.8735 7.50344 67.1709 7.46137 66.6652 7.74498C66.4113 7.88742 66.1968 8.1195 66.1022 8.4263C66.0059 8.73871 66.0498 9.07672 66.2203 9.39545C67.8202 12.3874 70.1842 14.2319 72.415 15.7812C72.75 16.0139 73.0798 16.2384 73.403 16.4585L73.4035 16.4588C74.1671 16.9787 74.8947 17.4741 75.5701 17.9942C76.5251 18.7295 77.3365 19.4861 77.9331 20.3672C81.5243 25.6712 83.1646 31.8232 83.3502 36.8124C83.3768 37.5264 83.8387 38.0526 84.4021 38.1935C84.684 38.264 84.9978 38.2373 85.2731 38.073C85.552 37.9066 85.7448 37.6272 85.8353 37.279C87.5557 30.6533 84.6229 22.171 79.3037 16.2838C77.7283 14.5401 76.005 13.384 74.1901 12.2095C74.0679 12.1304 73.9452 12.0512 73.822 11.9717L73.8179 11.969C72.1093 10.866 70.3132 9.7064 68.4043 7.98279Z" fill="white"/>
<path d="M16.8997 15.2614C12.6474 14.9204 9.29424 16.0883 6.73668 18.1916C4.18956 20.2864 2.4635 23.2817 1.3979 26.5529C-0.726596 33.0745 -0.275443 40.8526 1.71496 45.2195C2.24644 46.3855 3.83501 46.3055 4.3268 45.1756C4.86716 43.934 5.05393 42.8661 4.9964 41.7141C4.93992 40.5834 4.64742 39.3832 4.26174 37.8952C2.85501 32.4679 3.74139 28.0142 6.07526 24.6777C8.41596 21.3314 12.251 19.0547 16.8337 18.0717C17.6035 17.9066 18.0541 17.2755 18.1049 16.6557C18.1305 16.3436 18.0566 16.0102 17.8442 15.7394C17.626 15.4612 17.2962 15.2932 16.8997 15.2614Z" fill="white"/>
<path d="M74.3957 23.1333C75.2328 22.903 75.7489 22.3803 75.9366 21.7072C76.1153 21.0661 75.9763 20.3629 75.6818 19.7607C75.385 19.1538 74.905 18.5943 74.3166 18.2336C73.7235 17.8699 72.9964 17.6966 72.248 17.9259C69.8856 18.6496 68.9933 20.6633 69.5736 22.0043C69.9028 22.7652 70.6086 23.1947 71.4502 23.3577C72.2863 23.5198 73.305 23.4334 74.3957 23.1333Z" fill="white"/>
<path d="M10.6894 25.4376C9.89355 25.3341 9.1168 25.4696 8.41291 25.8843C7.71341 26.2965 7.11623 26.9663 6.6399 27.8835C6.13037 28.8647 6.15026 30.1195 6.73361 30.8841C7.04294 31.2895 7.51134 31.5487 8.09283 31.5168C8.6493 31.4864 9.24275 31.1935 9.85491 30.6554C11.0434 29.6105 11.7416 28.4731 11.9308 27.5144C12.0254 27.0353 11.9998 26.5582 11.7892 26.166C11.568 25.7541 11.1768 25.501 10.6894 25.4376Z" fill="white"/>
<path d="M83.7962 43.7364C83.5741 43.4511 83.2864 43.2724 82.9706 43.2175C82.659 43.1633 82.3544 43.2357 82.1063 43.3904C81.6047 43.7031 81.3283 44.3512 81.5642 45.0408C84.1967 52.7375 83.1799 57.7669 80.3892 61.3811C77.5612 65.0435 72.8501 67.3444 67.8675 69.4145C67.356 69.627 67.0365 70.0794 66.9999 70.5662C66.9621 71.07 67.234 71.5643 67.7848 71.7855C70.3862 72.8304 73.3416 72.3673 76.1041 70.9531C78.8699 69.5373 81.4922 67.1464 83.4793 64.2335C87.4481 58.4158 88.9611 50.3729 83.7962 43.7364Z" fill="white"/>
<path d="M7.36839 49.7389C7.79529 49.1466 7.73288 48.4166 7.40492 47.9234C7.23874 47.6735 6.99074 47.463 6.67676 47.3695C6.35411 47.2734 6.00403 47.314 5.67409 47.4977C2.87691 49.0545 1.29411 51.4303 0.681673 54.1666C0.072463 56.8885 0.425706 59.9485 1.4505 62.9129C3.49462 68.8259 8.27222 74.5252 13.8266 76.584C15.3616 77.153 17.1488 77.5891 19.0486 77.3878C20.9606 77.1853 22.9465 76.3413 24.8757 74.4193C25.1564 74.1397 25.2957 73.7959 25.2632 73.4385C25.2319 73.0946 25.0478 72.8056 24.8151 72.6014C24.3558 72.1982 23.5993 72.0289 22.9152 72.3847C20.6901 73.5422 18.6472 73.903 16.7947 73.6859C14.9399 73.4685 13.2404 72.6675 11.712 71.4446C8.64368 68.9894 6.3044 64.8625 4.8805 60.5467C4.52113 59.4575 4.43097 57.7356 4.79738 55.7751C5.16202 53.824 5.97185 51.6766 7.36839 49.7389Z" fill="white"/>
<path d="M78.2557 55.585C77.2922 55.3597 76.5263 55.3673 75.8839 55.6872C75.2497 56.0031 74.8287 56.5792 74.4512 57.2601C73.8678 58.3121 74.0541 59.738 74.6956 60.6869C75.0242 61.1731 75.4984 61.5745 76.1013 61.7252C76.7133 61.8782 77.3864 61.7549 78.0669 61.3233C79.3502 60.5092 80.1128 59.3018 80.2006 58.1591C80.2449 57.5835 80.1163 57.0166 79.7807 56.5475C79.4434 56.076 78.9238 55.7411 78.2557 55.585Z" fill="white"/>
<path d="M13.9825 63.9356C13.3091 63.254 12.5782 62.7827 11.8228 62.5951C11.0543 62.4043 10.2879 62.5151 9.5918 62.9514C8.9763 63.3371 8.73571 63.9272 8.7661 64.5455C8.79489 65.1313 9.06191 65.7302 9.41503 66.2481C9.77245 66.7723 10.2468 67.2562 10.7507 67.6128C11.2442 67.9621 11.8205 68.2274 12.3766 68.2274C13.0148 68.2274 13.5536 68.0703 13.9713 67.7776C14.3908 67.4838 14.6599 67.0725 14.7848 66.6174C15.0314 65.7192 14.7165 64.6787 13.9825 63.9356Z" fill="white"/>
<path d="M65.3797 75.7124C65.5496 75.0782 65.2441 74.5393 64.7736 74.2819C64.3176 74.0325 63.7095 74.0416 63.2144 74.4008C51.7625 82.7078 42.8959 84.0345 35.6248 82.8802C31.6742 82.253 28.5372 80.6476 26.6544 78.4479C26.2379 77.9612 25.5966 77.7795 25.0617 77.8729C24.7893 77.9204 24.5129 78.0451 24.3096 78.2744C24.0985 78.5125 24.0003 78.8261 24.0341 79.1731C24.2638 81.5273 25.849 83.1328 27.9649 84.2463C30.0754 85.3568 32.7922 86.0237 35.4683 86.4855C41.4358 87.5153 48.2221 87.2677 53.8526 85.5617C59.4675 83.8604 64.0528 80.6657 65.3797 75.7124Z" fill="white"/>
<path d="M46.9641 76.1083C45.4093 74.9995 43.6999 75.2271 42.9952 75.4998C41.5425 76.0396 40.5376 77.1763 40.2941 78.315C40.1706 78.8925 40.2416 79.4938 40.5913 79.9903C40.9416 80.4877 41.5229 80.8108 42.2841 80.9299C44.2071 81.2306 45.8799 80.4916 46.8427 79.48C47.3217 78.9767 47.6533 78.3752 47.7163 77.7676C47.782 77.1339 47.5479 76.5247 46.9641 76.1083Z" fill="white"/>
<path fill-rule="evenodd" clip-rule="evenodd" d="M277.424 39.3291C278.498 40.1712 280.405 41.0079 283.39 40.3458C293.925 38.008 299.697 42.6761 299.985 49.6209C300.128 53.0708 299.247 56.881 296.73 59.2558C294.259 61.5864 290.641 62.8837 286.121 62.8837C280.761 62.8837 276.106 60.9297 272.938 58.7432C271.34 57.6401 269.044 55.8883 267.89 54.4057C266.762 52.9567 266.502 50.8041 267.998 49.1239C268.884 48.1294 270.142 47.4197 272.416 49.6209C276.755 53.8223 287.173 60.1657 292.838 54.4057C296.198 50.9896 294.746 44.4842 284.182 46.7293C280.186 47.5786 276.774 46.6224 274.268 44.6586C271.75 42.6851 270.377 39.6923 270.172 36.5886C269.753 30.2549 274.109 24.1935 281.452 24.1935C285.264 24.1935 291.1 24.7845 293.925 29.6849C295.181 31.8613 293.925 33.7111 291.222 32.4063C288.424 31.056 284.633 30.3098 281.452 30.6419C276.787 31.1289 275.609 33.7961 275.761 36.1001C275.841 37.3153 276.362 38.4968 277.424 39.3291ZM111.894 55.0495C112.255 57.7116 114.825 56.0718 116.184 55.0495C116.82 54.5707 117.46 54.0297 118.167 53.4318L118.207 53.3974C118.903 52.8091 119.675 52.1572 120.453 51.5863C121.895 50.5287 124.205 48.6195 126.6 49.0908C129.18 49.5982 130.731 51.8783 131.646 54.7307C131.954 55.6905 132.498 57.9857 130.873 59.8749C129.785 61.1408 128.172 61.0444 127.106 58.5927C126.616 57.4639 126.139 56.7949 125.534 56.6083C124.93 56.4217 123.991 56.4549 121.528 58.5927C120.658 59.3472 120.02 59.8685 119.251 60.4464C117.708 61.6073 115.64 62.9035 113.271 62.9032C111.239 62.903 109.326 62.1771 108.001 60.3743C106.741 58.6581 106.409 56.4927 106.456 54.5509C106.549 50.7246 108.138 46.1318 110.268 41.9328C112.442 37.6458 115.401 33.3337 118.65 30.0515C121.811 26.8588 125.675 24.2123 129.624 24.2119C131.211 24.2118 132.622 24.8636 133.692 26.1595C134.659 27.331 135.163 28.8091 135.47 30.1202C135.941 32.1283 136.147 34.7455 136.347 37.284C136.398 37.9312 136.449 38.5732 136.503 39.1988C137.086 45.8976 137.724 52.4832 142.578 56.9584C143.786 58.0719 145.875 60.4308 143.452 61.8343C142.069 62.6351 139.524 62.6011 137.569 61.0551C133.943 58.1867 131.646 50.8751 130.731 37.4803C130.586 35.3513 130.295 32.7843 128.977 32.123C127.658 31.4618 125.173 32.0445 122.348 34.8973C119.613 37.6605 117.048 40.8204 115.134 44.5938C113.176 48.4553 111.607 52.9399 111.894 55.0495ZM148.456 37.4208C148.752 41.0585 152.197 40.8612 154.724 40.3767C165.538 38.3033 168.744 41.4386 170.908 46.6304C173.097 51.8822 170.761 57.8396 165.807 60.4581C163.184 61.844 159.276 62.3956 155.518 61.8343C151.745 61.2707 147.536 58.731 144.804 54.7307C143.847 53.3305 143.519 51.1742 144.804 50.5534C146.088 49.9326 147.71 51.6298 148.996 52.6226C151.558 54.5985 153.27 54.9961 156.24 55.4396C159.225 55.8854 162.022 55.3622 163.466 54.5985C166.135 53.1881 166.261 50.8965 165.854 49.4181C165.369 47.6579 163.466 44.5938 155.526 46.1608C151.853 46.8857 148.477 47.0678 146.144 44.9955C143.781 42.8977 142.844 39.2468 143.31 35.8812C144.249 29.1043 150.962 24.2119 161.587 24.2119C163.135 24.2119 166.02 25.6626 164.616 30.3543C164.113 32.0381 163.119 31.4854 161.587 31.2307C152.217 29.6729 148.187 34.1224 148.456 37.4208ZM207.946 54.1887C208.765 53.9431 209.291 52.2088 211.158 50.2851C214.674 46.6631 217.385 46.2296 220.057 46.1164C222.383 46.018 223.442 46.2148 223.954 46.9338C225.742 49.444 225.268 52.2797 223.45 52.2797C219.15 52.2797 217.099 52.915 214.022 56.3008C211.314 59.2804 210.947 61.7911 207.782 61.7911C204.454 61.7911 202.412 59.2771 201.94 55.6039C201.554 52.5957 202.097 45.7697 203.343 39.657C206.263 25.3313 212.057 24.2116 215.237 24.2111C220.802 24.2104 224.506 27.2393 228.264 33.7111C231.896 39.9658 233.87 51.1313 233.87 59.676C233.87 61.4567 232.694 61.7903 231.146 61.7903C229.598 61.7903 227.753 61.4506 227.883 59.676C228.455 51.8848 226.615 43.6987 223.954 38.1849C221.23 32.5401 218.392 30.6603 215.237 30.6603C214.218 30.6603 210.968 31.0217 208.837 41.7068C206.928 51.2816 207.08 54.4484 207.946 54.1887ZM236.956 30.0945C239.129 26.0957 243.16 24.2111 248.179 24.2111C253.67 24.2111 258.979 25.6069 261.643 28.4032C263.016 29.8453 263.928 31.6568 264.214 33.7111C264.433 35.281 264.008 37.5732 263.579 38.7402C262.975 40.3799 261.809 41.6837 260.265 41.1701C259.102 40.7828 258.679 39.3539 258.679 37.5732C258.679 36.5886 258.786 35.4997 258.679 34.731C258.615 34.2699 258.406 33.7351 257.864 33.1666C256.698 31.9417 253.063 30.6595 248.179 30.6595C245.023 30.6595 242.88 31.6647 241.768 33.7111C240.564 35.9278 240.357 39.6229 240.741 43.1559C241.122 46.6637 242.329 50.0227 244.105 52.5153C245.857 54.9752 248.037 56.3723 250.512 56.3723C252.865 56.3723 256.148 55.5759 259.742 51.2366C261.492 49.1239 263.352 49.7377 264.187 51.2366C265.093 52.8646 264.903 55.0233 263.592 56.3723C259.742 60.3347 254.386 62.9002 250.512 62.9002C245.982 62.9002 241.811 60.8404 239.257 57.2551C236.727 53.7026 235.673 48.5078 235.179 43.9555C234.687 39.4283 234.876 33.9229 236.956 30.0945ZM193.837 35.5344C191.152 28.5233 178.056 30.1744 171.954 33.0006C170.518 33.6656 169.597 32.3212 168.744 30.6603C167.709 28.6459 168.157 26.7459 169.651 26.2815C177.031 23.9876 183.683 24.0112 188.765 25.01C194.978 26.2309 197.853 29.3811 199.312 34.1253C200.529 38.0868 200.395 41.9032 198.85 45.0673C197.283 48.2788 194.454 49.5142 189.337 49.5142C186.488 49.5142 184.728 50.1644 183.304 51.2388C182.328 51.9748 181.793 53.3892 181.592 54.1887C180.9 56.9398 180.728 58.2097 180.199 60.5049C179.802 62.226 179.158 62.4294 177.008 62.4294C174.531 62.4294 174.384 60.572 174.781 58.8509C175.246 56.8359 175.72 53.6161 175.813 50.2126C175.889 47.451 175.813 43.2881 174.534 39.5712C173.964 37.9156 172.931 36.6648 175.176 35.5344C177.667 34.2802 179.624 35.1379 180.211 37.3296C181.031 40.3922 181.136 46.1172 181.136 46.1172C181.136 46.1172 183.614 42.9633 189.337 43.1969C195.39 43.4439 194.628 37.6003 193.837 35.5344Z" fill="white"/>
</svg>
