<svg width="56" height="56" viewBox="0 0 56 56" fill="none" xmlns="http://www.w3.org/2000/svg">
<rect width="56" height="56" rx="28" fill="#EDF6E0"/>
<path d="M28.875 19.3708C24.5766 19.3708 20.9398 22.1872 19.7039 26.07C21.5414 25.1403 23.6141 24.6208 25.8125 24.6208H30.625C31.1063 24.6208 31.5 25.0146 31.5 25.4958C31.5 25.9771 31.1063 26.3708 30.625 26.3708H29.75H25.8125C24.9047 26.3708 24.0242 26.4747 23.1711 26.6661C21.7547 26.9888 20.4422 27.563 19.2664 28.345C16.0945 30.4614 14 34.0763 14 38.1833V39.0583C14 39.7857 14.5852 40.3708 15.3125 40.3708C16.0398 40.3708 16.625 39.7857 16.625 39.0583V38.1833C16.625 35.52 17.757 33.1247 19.5672 31.4458C20.65 35.5747 24.407 38.6208 28.875 38.6208H28.9297C36.1539 38.5825 42 31.4622 42 22.6849C42 20.3552 41.5898 18.1403 40.8461 16.1443C40.7039 15.7669 40.1516 15.7833 39.9602 16.1388C38.932 18.0638 36.8977 19.3708 34.5625 19.3708H28.875Z" fill="#00491E"/>
</svg>
