<svg width="274" height="150" viewBox="0 0 274 150" fill="none" xmlns="http://www.w3.org/2000/svg">
<path d="M268.465 99.6928C266.235 99.6928 264.607 97.9559 264.607 95.7693C264.607 93.614 266.235 91.8485 268.436 91.8485C270.636 91.8485 272.234 93.614 272.234 95.7997C272.234 97.9559 270.636 99.6928 268.465 99.6928ZM268.436 90.8597C265.601 90.8597 263.342 93.0463 263.342 95.7693C263.342 98.5539 265.601 100.741 268.436 100.741C271.299 100.741 273.5 98.5539 273.5 95.7693C273.5 93.0463 271.299 90.8597 268.436 90.8597Z" fill="white"/>
<path d="M268.225 95.5602H267.682V94.154C267.802 94.1245 268.014 94.0941 268.315 94.0941C269.037 94.0941 269.37 94.3927 269.37 94.8414C269.37 95.351 268.857 95.5602 268.225 95.5602ZM269.581 95.9204V95.8605C270.184 95.68 270.606 95.2616 270.606 94.7225C270.606 94.2434 270.395 93.8536 270.124 93.6436C269.762 93.4353 269.34 93.286 268.405 93.286C267.591 93.286 266.959 93.345 266.506 93.4353V98.3439H267.651V96.3683H268.195C268.828 96.3683 269.129 96.6079 269.219 97.1469C269.37 97.7155 269.46 98.1651 269.612 98.3439H270.847C270.726 98.1651 270.636 97.8666 270.485 97.1174C270.335 96.4586 270.064 96.1001 269.581 95.9204Z" fill="white"/>
<path d="M135.081 70.2214C135.081 70.2214 134.89 70.3492 134.565 70.587C128.493 75.0335 126.501 83.1631 129.8 89.8998L134.772 100.051L139.879 89.4591C142.917 83.1568 141.387 75.5815 136.059 71.0188C135.747 70.7533 135.422 70.4869 135.081 70.2214Z" fill="white"/>
<path d="M232.776 46.3067C229.797 52.6367 231.401 60.1977 236.773 64.7104C237.086 64.9732 237.414 65.236 237.757 65.4988C237.757 65.4988 237.947 65.3692 238.271 65.1278C244.3 60.625 246.214 52.4758 242.85 45.7703L237.781 35.6669L232.776 46.3067Z" fill="white"/>
<path d="M12.4343 28.6224L14.2076 17.0118C15.2626 10.1034 11.5728 3.30134 5.13659 0.480945C4.76122 0.316459 4.37145 0.155547 3.96727 0C3.96727 0 3.82235 0.177897 3.5802 0.500611C-0.920641 6.5124 -0.438151 14.8654 4.69641 20.3534L12.4343 28.6224Z" fill="white"/>
<path d="M0.5 31.677C1.14632 39.6608 1.5559 106.965 1.5559 106.965H15.1601L14.3275 31.3999L0.5 31.677Z" fill="white"/>
<path d="M78.674 31.1584C78.674 31.1584 82.0829 65.1257 79.0052 84.3357C79.0052 84.3357 46.7765 48.1497 42.2855 43.5539C37.0484 38.1938 34.5756 34.5858 29.351 32.6728C29.351 32.6728 18.8713 67.1049 24.3155 106.965H37.7037C37.7037 106.965 34.1912 76.031 37.2437 57.3663C37.2437 57.3663 67.3318 91.6133 72.3467 96.5774C77.9061 102.081 83.5367 105.368 87.3255 107.315C87.3255 107.315 97.8826 70.5091 91.5806 30.9305L78.674 31.1584Z" fill="white"/>
<path d="M135.029 31.1812C134.972 31.1517 134.898 31.1517 134.813 31.1812C134.813 31.1812 107.71 40.396 96.2421 106.965H109.746C109.746 106.965 117.676 62.1296 134.921 47.291C152.552 62.6159 160.096 106.965 160.096 106.965H173.578C162.11 40.396 135.029 31.1812 135.029 31.1812Z" fill="white"/>
<path d="M244.636 15.2341L235.129 5.67428C198.306 42.554 157.122 29.0975 155.318 28.4878L155.824 41.8451C156.747 42.1625 161.982 44.1765 176.752 44.1765C177.917 44.1765 179.109 44.156 180.328 44.1104C181.359 61.7113 181.452 106.965 181.452 106.965L194.938 106.934L194.366 42.5299C209.986 39.5718 227.876 32.0225 244.636 15.2341Z" fill="white"/>
<path d="M272.163 31.3941H258.793C260.407 91.2733 240.896 93.9006 236.662 93.796C235.869 93.8157 234.515 93.7388 232.851 93.2069C228.898 92.211 225.832 89.4058 223.44 85.603C219.102 78.4684 215.177 66.4725 214.525 44.2607C210.404 45.9529 206.17 47.3582 201.836 48.481C202.873 80.6863 213.359 95.5562 222.736 102.001C232.762 108.894 246.077 108.486 254.759 99.983C273.697 81.4336 272.293 34.6597 272.163 31.3941Z" fill="white"/>
<path d="M1.28494 136.162C1.28494 136.162 1.35245 136.062 1.47848 135.892C3.83242 132.721 8.13792 131.68 11.7053 133.403L17.0811 136L11.4712 138.668C8.13432 140.254 4.12317 139.456 1.70712 136.672C1.56579 136.51 1.42537 136.34 1.28494 136.162Z" fill="white"/>
<path d="M259.086 136.162C259.086 136.162 259.019 136.062 258.892 135.892C256.538 132.721 252.233 131.68 248.665 133.403L243.29 136L248.899 138.668C252.236 140.254 256.247 139.456 258.664 136.672C258.805 136.51 258.945 136.34 259.086 136.162Z" fill="white"/>
<path d="M26.9028 140.068H35.6912C34.2509 136.91 32.7359 133.749 31.2957 130.813C29.8176 133.749 28.3404 136.91 26.9028 140.068ZM37.7355 144.582H24.8189C24.0601 146.276 23.304 147.97 22.6594 149.623H16.7867C21.1049 140.22 26.4095 129.687 31.1075 121.409H31.4487C36.1449 129.687 41.4496 140.22 45.7677 149.623H39.895C39.2504 147.93 38.4943 146.276 37.7355 144.582Z" fill="white"/>
<path d="M80.4682 121.409V149.623H75.0131L75.1275 133.447C71.7167 137.247 67.3608 143.04 64.862 146.614H64.5586C62.0597 143.003 57.7011 137.247 54.33 133.447L54.4452 149.623H48.9506V121.409C51.3756 121.409 59.7472 131.793 64.7089 138.301C69.6733 131.793 78.0836 121.409 80.4682 121.409Z" fill="white"/>
<path d="M93.8071 140.068H102.595C101.155 136.91 99.6402 133.749 98.2 130.813C96.7219 133.749 95.2447 136.91 93.8071 140.068ZM104.639 144.582H91.7233C90.9644 146.276 90.2083 147.97 89.5637 149.623H83.691C88.0119 140.22 93.3138 129.687 98.01 121.409H98.353C103.049 129.687 108.353 140.22 112.671 149.623H106.801C106.155 147.93 105.398 146.276 104.639 144.582Z" fill="white"/>
<path d="M134.834 145.109V149.624H113.811C113.811 145.299 123.205 133.108 126.842 126.301H114.037V121.784H134.607C134.607 126.112 125.175 138.3 121.538 145.109H134.834Z" fill="white"/>
<path d="M161.24 135.706C161.24 129.836 157.603 125.923 152.185 125.923C146.731 125.923 143.094 129.836 143.094 135.706C143.094 141.573 146.731 145.485 152.185 145.485C157.603 145.485 161.24 141.573 161.24 135.706ZM137.411 135.706C137.411 127.126 143.32 121.409 152.185 121.409C160.974 121.409 166.921 127.126 166.921 135.706C166.921 144.282 160.974 150 152.185 150C143.32 150 137.411 144.282 137.411 135.706Z" fill="white"/>
<path d="M198.478 150C195.675 150 184.235 138.076 177.53 131.755L177.605 149.624H172.112V121.409C174.917 121.409 186.318 133.335 193.022 139.655L192.948 121.784H198.478V150Z" fill="white"/>
<path d="M210.87 149.623H205.375V121.783H210.87V149.623Z" fill="white"/>
<path d="M224.242 140.068H233.03C231.59 136.91 230.075 133.749 228.635 130.813C227.157 133.749 225.68 136.91 224.242 140.068ZM235.075 144.582H222.158C221.399 146.276 220.643 147.97 219.999 149.623H214.126C218.444 140.22 223.749 129.687 228.447 121.409H228.788C233.484 129.687 238.789 140.22 243.107 149.623H237.234C236.59 147.93 235.833 146.276 235.075 144.582Z" fill="white"/>
<path d="M161.607 119.809L159.712 115.737C158.585 113.314 155.967 111.917 153.317 112.363C153.162 112.389 153.004 112.419 152.843 112.454C152.843 112.454 152.834 112.541 152.825 112.694C152.663 115.551 154.588 118.114 157.388 118.79L161.607 119.809Z" fill="white"/>
<path d="M143.714 119.347L148.128 118.394C150.754 117.826 152.697 115.592 152.833 112.926C152.842 112.772 152.846 112.611 152.847 112.446C152.847 112.446 152.763 112.419 152.615 112.377C149.841 111.601 146.904 112.91 145.632 115.478L143.714 119.347Z" fill="white"/>
</svg>
