<svg width="238" height="150" viewBox="0 0 238 150" fill="none" xmlns="http://www.w3.org/2000/svg">
<path d="M25.9957 127.683L30.3696 115.912H31.3057L35.6797 127.683H34.9245L30.7315 116.302H30.9281L26.7352 127.683H25.9957ZM27.9938 123.571L28.1905 122.919H33.4848L33.6736 123.571H27.9938Z" fill="white"/>
<path d="M39.0685 127.826C38.6699 127.826 38.2923 127.8 37.9357 127.747C37.5791 127.694 37.2251 127.611 36.8737 127.5V126.84C37.2933 126.967 37.6761 127.057 38.0222 127.11C38.3736 127.163 38.7303 127.19 39.0921 127.19C39.905 127.19 40.5003 127.041 40.8779 126.744C41.2607 126.442 41.4522 126.018 41.4522 125.472C41.4522 125 41.3315 124.639 41.0903 124.39C40.8543 124.136 40.4557 123.948 39.8945 123.826L38.8483 123.595C38.0826 123.42 37.5397 123.144 37.2198 122.768C36.8999 122.386 36.74 121.906 36.74 121.328C36.74 120.644 36.9917 120.08 37.4952 119.634C38.0039 119.183 38.7827 118.958 39.8316 118.958C40.1725 118.958 40.4977 118.977 40.8071 119.014C41.1165 119.051 41.4207 119.112 41.7196 119.197V119.849C41.3735 119.753 41.0536 119.687 40.7599 119.65C40.4714 119.613 40.1646 119.594 39.8395 119.594C39.2626 119.594 38.7984 119.671 38.4471 119.825C38.1009 119.973 37.8492 120.178 37.6918 120.437C37.5345 120.692 37.4558 120.978 37.4558 121.296C37.4558 121.71 37.566 122.052 37.7862 122.322C38.0065 122.593 38.3946 122.792 38.9505 122.919L39.9968 123.142C40.794 123.317 41.3525 123.592 41.6724 123.969C41.9976 124.34 42.1602 124.825 42.1602 125.424C42.1602 126.161 41.9006 126.747 41.3814 127.182C40.8674 127.611 40.0964 127.826 39.0685 127.826Z" fill="white"/>
<path d="M45.8905 127.826C45.4919 127.826 45.1143 127.8 44.7577 127.747C44.401 127.694 44.047 127.611 43.6957 127.5V126.84C44.1152 126.967 44.4981 127.057 44.8442 127.11C45.1956 127.163 45.5522 127.19 45.9141 127.19C46.727 127.19 47.3222 127.041 47.6998 126.744C48.0827 126.442 48.2741 126.018 48.2741 125.472C48.2741 125 48.1535 124.639 47.9122 124.39C47.6762 124.136 47.2777 123.948 46.7165 123.826L45.6702 123.595C44.9045 123.42 44.3617 123.144 44.0418 122.768C43.7219 122.386 43.5619 121.906 43.5619 121.328C43.5619 120.644 43.8137 120.08 44.3171 119.634C44.8258 119.183 45.6047 118.958 46.6536 118.958C46.9945 118.958 47.3196 118.977 47.629 119.014C47.9385 119.051 48.2426 119.112 48.5416 119.197V119.849C48.1954 119.753 47.8755 119.687 47.5818 119.65C47.2934 119.613 46.9866 119.594 46.6614 119.594C46.0845 119.594 45.6204 119.671 45.269 119.825C44.9229 119.973 44.6711 120.178 44.5138 120.437C44.3565 120.692 44.2778 120.978 44.2778 121.296C44.2778 121.71 44.3879 122.052 44.6082 122.322C44.8285 122.593 45.2166 122.792 45.7725 122.919L46.8188 123.142C47.6159 123.317 48.1745 123.592 48.4944 123.969C48.8195 124.34 48.9821 124.825 48.9821 125.424C48.9821 126.161 48.7225 126.747 48.2033 127.182C47.6894 127.611 46.9184 127.826 45.8905 127.826Z" fill="white"/>
<path d="M53.8059 127.826C53.1294 127.826 52.5368 127.678 52.028 127.381C51.5193 127.078 51.1234 126.601 50.8402 125.949C50.5622 125.297 50.4232 124.443 50.4232 123.388C50.4232 122.338 50.5622 121.487 50.8402 120.835C51.1234 120.183 51.5193 119.708 52.028 119.411C52.5368 119.109 53.1294 118.958 53.8059 118.958C54.4877 118.958 55.083 119.107 55.5917 119.404C56.1004 119.7 56.4937 120.175 56.7717 120.827C57.0549 121.474 57.1965 122.328 57.1965 123.388C57.1965 124.433 57.0549 125.284 56.7717 125.941C56.4885 126.593 56.0925 127.071 55.5838 127.373C55.0803 127.675 54.4877 127.826 53.8059 127.826ZM53.8059 127.182C54.3461 127.182 54.8155 127.065 55.2141 126.832C55.6127 126.593 55.9195 126.198 56.1345 125.647C56.3495 125.095 56.457 124.348 56.457 123.404C56.457 122.45 56.3495 121.697 56.1345 121.145C55.9195 120.589 55.6127 120.194 55.2141 119.96C54.8155 119.722 54.3461 119.602 53.8059 119.602C53.271 119.602 52.8042 119.719 52.4056 119.952C52.0071 120.186 51.6976 120.578 51.4774 121.129C51.2623 121.676 51.1548 122.42 51.1548 123.364C51.1548 124.319 51.2623 125.074 51.4774 125.631C51.6976 126.188 52.0071 126.585 52.4056 126.824C52.8042 127.063 53.271 127.182 53.8059 127.182Z" fill="white"/>
<path d="M62.3356 127.826C61.5961 127.826 60.9668 127.675 60.4476 127.373C59.9284 127.071 59.5324 126.593 59.2597 125.941C58.9922 125.289 58.8585 124.438 58.8585 123.388C58.8585 122.333 59.0027 121.482 59.2912 120.835C59.5848 120.183 60.0149 119.708 60.5813 119.411C61.153 119.109 61.8531 118.958 62.6817 118.958C62.9544 118.958 63.235 118.977 63.5235 119.014C63.8172 119.051 64.0925 119.107 64.3495 119.181V119.849C64.0715 119.769 63.7936 119.711 63.5156 119.674C63.2429 119.632 62.978 119.61 62.7211 119.61C62.0235 119.61 61.444 119.73 60.9825 119.968C60.521 120.207 60.1749 120.599 59.9441 121.145C59.7133 121.691 59.598 122.428 59.598 123.356C59.598 124.295 59.7028 125.045 59.9126 125.607C60.1277 126.164 60.4449 126.564 60.8645 126.808C61.2841 127.052 61.8006 127.174 62.4143 127.174C62.6922 127.174 62.9885 127.145 63.3032 127.086C63.6179 127.023 63.9666 126.925 64.3495 126.792V127.46C64.0138 127.582 63.6756 127.672 63.3347 127.731C62.999 127.794 62.666 127.826 62.3356 127.826Z" fill="white"/>
<path d="M65.9452 127.683V119.085H66.6453V127.683H65.9452ZM66.2913 116.938C66.1183 116.938 65.9767 116.888 65.8665 116.787C65.7616 116.686 65.7092 116.548 65.7092 116.373C65.7092 116.198 65.7616 116.058 65.8665 115.952C65.9767 115.846 66.1183 115.793 66.2913 115.793C66.4644 115.793 66.6034 115.846 66.7083 115.952C66.8184 116.058 66.8735 116.198 66.8735 116.373C66.8735 116.548 66.8184 116.686 66.7083 116.787C66.6034 116.888 66.4644 116.938 66.2913 116.938Z" fill="white"/>
<path d="M71.2779 127.81C70.5069 127.81 69.896 127.611 69.4449 127.214C68.9991 126.816 68.7763 126.257 68.7763 125.536C68.7763 124.814 69.007 124.252 69.4685 123.849C69.9301 123.441 70.6617 123.181 71.6634 123.07L74.1729 122.776L74.2201 123.372L71.6712 123.674C70.9108 123.759 70.3627 123.95 70.0271 124.247C69.6914 124.539 69.5236 124.947 69.5236 125.472C69.5236 126.029 69.6783 126.453 69.9877 126.744C70.2972 127.036 70.7561 127.182 71.3644 127.182C71.8102 127.182 72.2507 127.084 72.686 126.888C73.1213 126.686 73.5121 126.357 73.8582 125.901V121.797C73.8582 121.22 73.769 120.771 73.5907 120.453C73.4124 120.135 73.1502 119.915 72.804 119.793C72.4631 119.666 72.0436 119.602 71.5454 119.602C71.2254 119.602 70.8662 119.634 70.4676 119.698C70.069 119.756 69.6652 119.857 69.2561 120V119.34C69.5918 119.218 69.9694 119.125 70.3889 119.062C70.8085 118.993 71.2071 118.958 71.5847 118.958C72.2193 118.958 72.7568 119.046 73.1974 119.221C73.6432 119.396 73.9814 119.692 74.2122 120.111C74.443 120.525 74.5583 121.092 74.5583 121.813V127.683H73.9447L73.8897 126.681H73.8189C73.5357 127.036 73.1685 127.314 72.7175 127.516C72.2717 127.712 71.7919 127.81 71.2779 127.81Z" fill="white"/>
<path d="M80.0512 127.826C79.3117 127.826 78.6824 127.675 78.1632 127.373C77.6439 127.071 77.248 126.593 76.9753 125.941C76.7078 125.289 76.5741 124.438 76.5741 123.388C76.5741 122.333 76.7183 121.482 77.0067 120.835C77.3004 120.183 77.7305 119.708 78.2969 119.411C78.8685 119.109 79.5687 118.958 80.3973 118.958C80.67 118.958 80.9506 118.977 81.2391 119.014C81.5328 119.051 81.8081 119.107 82.0651 119.181V119.849C81.7871 119.769 81.5092 119.711 81.2312 119.674C80.9585 119.632 80.6936 119.61 80.4367 119.61C79.7391 119.61 79.1596 119.73 78.6981 119.968C78.2366 120.207 77.8904 120.599 77.6597 121.145C77.4289 121.691 77.3135 122.428 77.3135 123.356C77.3135 124.295 77.4184 125.045 77.6282 125.607C77.8432 126.164 78.1605 126.564 78.5801 126.808C78.9997 127.052 79.5162 127.174 80.1299 127.174C80.4078 127.174 80.7041 127.145 81.0188 127.086C81.3335 127.023 81.6822 126.925 82.0651 126.792V127.46C81.7294 127.582 81.3911 127.672 81.0503 127.731C80.7146 127.794 80.3816 127.826 80.0512 127.826ZM79.7522 130.896C79.532 130.896 79.3038 130.87 79.0678 130.817C78.8318 130.764 78.6273 130.692 78.4542 130.602V130.109C78.6902 130.231 78.9157 130.315 79.1308 130.363C79.351 130.411 79.5608 130.435 79.7601 130.435C80.0695 130.435 80.3003 130.374 80.4524 130.252C80.6045 130.135 80.6805 129.958 80.6805 129.719C80.6805 129.236 80.3711 128.995 79.7522 128.995H79.4848V127.524H79.9961V128.804L79.7758 128.558C80.2321 128.558 80.5809 128.661 80.8221 128.868C81.0686 129.075 81.1919 129.361 81.1919 129.727C81.1919 130.087 81.066 130.371 80.8143 130.578C80.5625 130.79 80.2085 130.896 79.7522 130.896Z" fill="white"/>
<path d="M85.6593 127.81C84.8884 127.81 84.2774 127.611 83.8264 127.214C83.3806 126.816 83.1577 126.257 83.1577 125.536C83.1577 124.814 83.3884 124.252 83.85 123.849C84.3115 123.441 85.0431 123.181 86.0448 123.07L88.5543 122.776L88.6015 123.372L86.0527 123.674C85.2922 123.759 84.7442 123.95 84.4085 124.247C84.0729 124.539 83.905 124.947 83.905 125.472C83.905 126.029 84.0598 126.453 84.3692 126.744C84.6786 127.036 85.1375 127.182 85.7459 127.182C86.1916 127.182 86.6322 127.084 87.0675 126.888C87.5028 126.686 87.8935 126.357 88.2396 125.901V121.797C88.2396 121.22 88.1505 120.771 87.9721 120.453C87.7938 120.135 87.5316 119.915 87.1855 119.793C86.8446 119.666 86.425 119.602 85.9268 119.602C85.6069 119.602 85.2476 119.634 84.849 119.698C84.4505 119.756 84.0466 119.857 83.6376 120V119.34C83.9732 119.218 84.3508 119.125 84.7704 119.062C85.1899 118.993 85.5885 118.958 85.9661 118.958C86.6007 118.958 87.1383 119.046 87.5788 119.221C88.0246 119.396 88.3629 119.692 88.5936 120.111C88.8244 120.525 88.9398 121.092 88.9398 121.813V127.683H88.3261L88.2711 126.681H88.2003C87.9171 127.036 87.55 127.314 87.0989 127.516C86.6532 127.712 86.1733 127.81 85.6593 127.81ZM87.272 116.771C87.057 116.771 86.8498 116.736 86.6505 116.668C86.4565 116.593 86.2677 116.516 86.0841 116.437C85.9215 116.368 85.7616 116.304 85.6043 116.246C85.4469 116.188 85.287 116.159 85.1244 116.159C84.8884 116.159 84.6734 116.206 84.4793 116.302C84.2853 116.392 84.1017 116.535 83.9286 116.731V116.111C84.2223 115.777 84.6235 115.61 85.1322 115.61C85.3473 115.61 85.5518 115.647 85.7459 115.721C85.9451 115.79 86.1366 115.864 86.3201 115.944C86.488 116.018 86.6505 116.084 86.8079 116.143C86.9652 116.201 87.1225 116.23 87.2799 116.23C87.5211 116.23 87.7361 116.182 87.9249 116.087C88.119 115.992 88.3026 115.846 88.4756 115.65V116.278C88.1819 116.607 87.7807 116.771 87.272 116.771Z" fill="white"/>
<path d="M94.3382 127.826C93.6617 127.826 93.069 127.678 92.5603 127.381C92.0516 127.078 91.6556 126.601 91.3724 125.949C91.0945 125.297 90.9555 124.443 90.9555 123.388C90.9555 122.338 91.0945 121.487 91.3724 120.835C91.6556 120.183 92.0516 119.708 92.5603 119.411C93.069 119.109 93.6617 118.958 94.3382 118.958C95.02 118.958 95.6152 119.107 96.124 119.404C96.6327 119.7 97.026 120.175 97.304 120.827C97.5872 121.474 97.7288 122.328 97.7288 123.388C97.7288 124.433 97.5872 125.284 97.304 125.941C97.0208 126.593 96.6248 127.071 96.1161 127.373C95.6126 127.675 95.02 127.826 94.3382 127.826ZM94.3382 127.182C94.8784 127.182 95.3478 127.065 95.7464 126.832C96.1449 126.593 96.4518 126.198 96.6668 125.647C96.8818 125.095 96.9893 124.348 96.9893 123.404C96.9893 122.45 96.8818 121.697 96.6668 121.145C96.4518 120.589 96.1449 120.194 95.7464 119.96C95.3478 119.722 94.8784 119.602 94.3382 119.602C93.8033 119.602 93.3365 119.719 92.9379 119.952C92.5393 120.186 92.2299 120.578 92.0096 121.129C91.7946 121.676 91.6871 122.42 91.6871 123.364C91.6871 124.319 91.7946 125.074 92.0096 125.631C92.2299 126.188 92.5393 126.585 92.9379 126.824C93.3365 127.063 93.8033 127.182 94.3382 127.182Z" fill="white"/>
<path d="M102.62 127.683L106.994 115.912H107.93L112.304 127.683H111.549L107.356 116.302H107.552L103.359 127.683H102.62ZM104.618 123.571L104.815 122.919H110.109L110.298 123.571H104.618Z" fill="white"/>
<path d="M116.259 131.341C115.898 131.341 115.502 131.307 115.072 131.238C114.642 131.169 114.253 131.071 113.907 130.944V130.276C114.332 130.419 114.736 130.525 115.119 130.594C115.507 130.663 115.884 130.697 116.252 130.697C117.206 130.697 117.917 130.477 118.383 130.037C118.85 129.602 119.084 128.836 119.084 127.739V126.784H119.036C118.774 127.076 118.439 127.322 118.029 127.524C117.62 127.72 117.148 127.818 116.613 127.818C116.026 127.818 115.486 127.683 114.993 127.413C114.505 127.142 114.114 126.697 113.821 126.076C113.532 125.456 113.388 124.616 113.388 123.555C113.388 121.986 113.737 120.827 114.434 120.08C115.137 119.332 116.147 118.958 117.463 118.958C117.731 118.958 117.998 118.971 118.265 118.998C118.538 119.024 118.803 119.064 119.06 119.117C119.322 119.17 119.566 119.231 119.792 119.3V127.659C119.792 128.985 119.495 129.928 118.903 130.49C118.31 131.058 117.429 131.341 116.259 131.341ZM116.724 127.158C117.169 127.158 117.605 127.06 118.029 126.864C118.454 126.662 118.806 126.357 119.084 125.949V119.809C118.874 119.751 118.622 119.703 118.328 119.666C118.04 119.624 117.736 119.602 117.416 119.602C116.346 119.602 115.528 119.907 114.961 120.517C114.4 121.121 114.12 122.11 114.12 123.484C114.12 124.438 114.235 125.183 114.466 125.718C114.697 126.249 115.009 126.622 115.402 126.84C115.795 127.052 116.236 127.158 116.724 127.158Z" fill="white"/>
<path d="M122.411 127.683V119.085H123.017L123.079 120.247H123.142C123.457 119.849 123.845 119.544 124.307 119.332C124.773 119.12 125.248 119.014 125.731 119.014C125.856 119.014 125.972 119.019 126.077 119.03C126.182 119.035 126.286 119.048 126.391 119.069V119.761C126.281 119.746 126.171 119.735 126.061 119.73C125.956 119.724 125.838 119.722 125.707 119.722C125.413 119.722 125.104 119.772 124.779 119.873C124.459 119.973 124.152 120.127 123.858 120.334C123.57 120.541 123.321 120.801 123.111 121.113V127.683H122.411Z" fill="white"/>
<path d="M130.445 127.826C129.769 127.826 129.176 127.678 128.668 127.381C128.159 127.078 127.763 126.601 127.48 125.949C127.202 125.297 127.063 124.443 127.063 123.388C127.063 122.338 127.202 121.487 127.48 120.835C127.763 120.183 128.159 119.708 128.668 119.411C129.176 119.109 129.769 118.958 130.445 118.958C131.127 118.958 131.722 119.107 132.231 119.404C132.74 119.7 133.133 120.175 133.411 120.827C133.694 121.474 133.836 122.328 133.836 123.388C133.836 124.433 133.694 125.284 133.411 125.941C133.128 126.593 132.732 127.071 132.223 127.373C131.72 127.675 131.127 127.826 130.445 127.826ZM130.445 127.182C130.986 127.182 131.455 127.065 131.854 126.832C132.252 126.593 132.559 126.198 132.774 125.647C132.989 125.095 133.097 124.348 133.097 123.404C133.097 122.45 132.989 121.697 132.774 121.145C132.559 120.589 132.252 120.194 131.854 119.96C131.455 119.722 130.986 119.602 130.445 119.602C129.91 119.602 129.444 119.719 129.045 119.952C128.647 120.186 128.337 120.578 128.117 121.129C127.902 121.676 127.794 122.42 127.794 123.364C127.794 124.319 127.902 125.074 128.117 125.631C128.337 126.188 128.647 126.585 129.045 126.824C129.444 127.063 129.91 127.182 130.445 127.182Z" fill="white"/>
<path d="M139.235 127.826C138.438 127.826 137.758 127.678 137.197 127.381C136.641 127.078 136.219 126.601 135.931 125.949C135.642 125.297 135.498 124.441 135.498 123.38C135.498 122.346 135.632 121.503 135.899 120.851C136.167 120.199 136.539 119.722 137.016 119.419C137.499 119.112 138.063 118.958 138.708 118.958C139.353 118.958 139.906 119.112 140.368 119.419C140.829 119.722 141.183 120.199 141.43 120.851C141.681 121.503 141.807 122.349 141.807 123.388V123.666H135.852V123.062H141.319L141.091 123.261C141.091 122.354 140.997 121.633 140.808 121.098C140.619 120.557 140.347 120.167 139.99 119.928C139.633 119.69 139.206 119.571 138.708 119.571C138.204 119.571 137.766 119.69 137.394 119.928C137.027 120.162 136.741 120.549 136.536 121.09C136.332 121.625 136.23 122.349 136.23 123.261V123.46C136.23 124.366 136.348 125.093 136.584 125.639C136.82 126.185 137.166 126.58 137.622 126.824C138.078 127.063 138.637 127.182 139.298 127.182C139.618 127.182 139.948 127.15 140.289 127.086C140.63 127.023 141.002 126.927 141.406 126.8V127.46C141.018 127.587 140.645 127.68 140.289 127.739C139.937 127.797 139.586 127.826 139.235 127.826Z" fill="white"/>
<path d="M148.783 127.683L146.053 123.897L145.628 123.348L142.553 119.085H143.41L146.069 122.784L146.486 123.332L149.64 127.683H148.783ZM142.497 127.683L145.628 123.348L146.069 122.784L148.736 119.085H149.57L146.486 123.332L146.053 123.897L143.339 127.683H142.497Z" fill="white"/>
<path d="M154.025 127.826C153.228 127.826 152.604 127.617 152.153 127.198C151.702 126.779 151.476 126.1 151.476 125.162V119.085L151.579 115.912H152.184V125.042C152.184 125.822 152.347 126.371 152.672 126.689C153.002 127.007 153.482 127.166 154.112 127.166C154.279 127.166 154.45 127.155 154.623 127.134C154.801 127.108 154.995 127.071 155.205 127.023V127.691C155.001 127.739 154.801 127.773 154.607 127.794C154.418 127.815 154.224 127.826 154.025 127.826ZM149.777 119.722V119.085H155.048V119.722H149.777Z" fill="white"/>
<path d="M156.582 127.683V119.085H157.188L157.251 120.247H157.314C157.628 119.849 158.016 119.544 158.478 119.332C158.945 119.12 159.419 119.014 159.902 119.014C160.028 119.014 160.143 119.019 160.248 119.03C160.353 119.035 160.458 119.048 160.563 119.069V119.761C160.452 119.746 160.342 119.735 160.232 119.73C160.127 119.724 160.009 119.722 159.878 119.722C159.585 119.722 159.275 119.772 158.95 119.873C158.63 119.973 158.323 120.127 158.03 120.334C157.741 120.541 157.492 120.801 157.282 121.113V127.683H156.582Z" fill="white"/>
<path d="M163.712 127.81C162.941 127.81 162.33 127.611 161.879 127.214C161.434 126.816 161.211 126.257 161.211 125.536C161.211 124.814 161.442 124.252 161.903 123.849C162.365 123.441 163.096 123.181 164.098 123.07L166.607 122.776L166.655 123.372L164.106 123.674C163.345 123.759 162.797 123.95 162.462 124.247C162.126 124.539 161.958 124.947 161.958 125.472C161.958 126.029 162.113 126.453 162.422 126.744C162.732 127.036 163.191 127.182 163.799 127.182C164.245 127.182 164.685 127.084 165.121 126.888C165.556 126.686 165.947 126.357 166.293 125.901V121.797C166.293 121.22 166.204 120.771 166.025 120.453C165.847 120.135 165.585 119.915 165.239 119.793C164.898 119.666 164.478 119.602 163.98 119.602C163.66 119.602 163.301 119.634 162.902 119.698C162.504 119.756 162.1 119.857 161.691 120V119.34C162.026 119.218 162.404 119.125 162.823 119.062C163.243 118.993 163.642 118.958 164.019 118.958C164.654 118.958 165.191 119.046 165.632 119.221C166.078 119.396 166.416 119.692 166.647 120.111C166.877 120.525 166.993 121.092 166.993 121.813V127.683H166.379L166.324 126.681H166.253C165.97 127.036 165.603 127.314 165.152 127.516C164.706 127.712 164.226 127.81 163.712 127.81Z" fill="white"/>
<path d="M172.494 127.826C171.696 127.826 171.072 127.617 170.621 127.198C170.17 126.779 169.945 126.1 169.945 125.162V119.085L170.047 115.912H170.653V125.042C170.653 125.822 170.815 126.371 171.14 126.689C171.471 127.007 171.951 127.166 172.58 127.166C172.748 127.166 172.918 127.155 173.091 127.134C173.27 127.108 173.464 127.071 173.674 127.023V127.691C173.469 127.739 173.27 127.773 173.076 127.794C172.887 127.815 172.693 127.826 172.494 127.826ZM168.245 119.722V119.085H173.516V119.722H168.245Z" fill="white"/>
<path d="M175.066 127.683V119.085H175.766V127.683H175.066ZM175.412 116.938C175.239 116.938 175.097 116.888 174.987 116.787C174.882 116.686 174.83 116.548 174.83 116.373C174.83 116.198 174.882 116.058 174.987 115.952C175.097 115.846 175.239 115.793 175.412 115.793C175.585 115.793 175.724 115.846 175.829 115.952C175.939 116.058 175.994 116.198 175.994 116.373C175.994 116.548 175.939 116.686 175.829 116.787C175.724 116.888 175.585 116.938 175.412 116.938Z" fill="white"/>
<path d="M180.579 127.683L177.26 119.085H178.031L181.138 127.246H180.996L184.104 119.085H184.843L181.523 127.683H180.579Z" fill="white"/>
<path d="M186.328 127.683V119.085H187.028V127.683H186.328ZM186.674 116.938C186.501 116.938 186.36 116.888 186.25 116.787C186.145 116.686 186.092 116.548 186.092 116.373C186.092 116.198 186.145 116.058 186.25 115.952C186.36 115.846 186.501 115.793 186.674 115.793C186.847 115.793 186.986 115.846 187.091 115.952C187.201 116.058 187.257 116.198 187.257 116.373C187.257 116.548 187.201 116.686 187.091 116.787C186.986 116.888 186.847 116.938 186.674 116.938Z" fill="white"/>
<path d="M191.456 127.826C191.058 127.826 190.68 127.8 190.324 127.747C189.967 127.694 189.613 127.611 189.262 127.5V126.84C189.681 126.967 190.064 127.057 190.41 127.11C190.761 127.163 191.118 127.19 191.48 127.19C192.293 127.19 192.888 127.041 193.266 126.744C193.649 126.442 193.84 126.018 193.84 125.472C193.84 125 193.719 124.639 193.478 124.39C193.242 124.136 192.844 123.948 192.282 123.826L191.236 123.595C190.47 123.42 189.928 123.144 189.608 122.768C189.288 122.386 189.128 121.906 189.128 121.328C189.128 120.644 189.38 120.08 189.883 119.634C190.392 119.183 191.171 118.958 192.219 118.958C192.56 118.958 192.885 118.977 193.195 119.014C193.504 119.051 193.809 119.112 194.107 119.197V119.849C193.761 119.753 193.441 119.687 193.148 119.65C192.859 119.613 192.552 119.594 192.227 119.594C191.65 119.594 191.186 119.671 190.835 119.825C190.489 119.973 190.237 120.178 190.08 120.437C189.922 120.692 189.844 120.978 189.844 121.296C189.844 121.71 189.954 122.052 190.174 122.322C190.394 122.593 190.782 122.792 191.338 122.919L192.385 123.142C193.182 123.317 193.74 123.592 194.06 123.969C194.385 124.34 194.548 124.825 194.548 125.424C194.548 126.161 194.288 126.747 193.769 127.182C193.255 127.611 192.484 127.826 191.456 127.826Z" fill="white"/>
<path d="M199.382 127.826C198.585 127.826 197.961 127.617 197.51 127.198C197.059 126.779 196.833 126.1 196.833 125.162V119.085L196.935 115.912H197.541V125.042C197.541 125.822 197.704 126.371 198.029 126.689C198.359 127.007 198.839 127.166 199.468 127.166C199.636 127.166 199.807 127.155 199.98 127.134C200.158 127.108 200.352 127.071 200.562 127.023V127.691C200.357 127.739 200.158 127.773 199.964 127.794C199.775 127.815 199.581 127.826 199.382 127.826ZM195.134 119.722V119.085H200.405V119.722H195.134Z" fill="white"/>
<path d="M203.953 127.81C203.182 127.81 202.571 127.611 202.12 127.214C201.674 126.816 201.451 126.257 201.451 125.536C201.451 124.814 201.682 124.252 202.143 123.849C202.605 123.441 203.336 123.181 204.338 123.07L206.848 122.776L206.895 123.372L204.346 123.674C203.586 123.759 203.038 123.95 202.702 124.247C202.366 124.539 202.198 124.947 202.198 125.472C202.198 126.029 202.353 126.453 202.663 126.744C202.972 127.036 203.431 127.182 204.039 127.182C204.485 127.182 204.926 127.084 205.361 126.888C205.796 126.686 206.187 126.357 206.533 125.901V121.797C206.533 121.22 206.444 120.771 206.266 120.453C206.087 120.135 205.825 119.915 205.479 119.793C205.138 119.666 204.718 119.602 204.22 119.602C203.9 119.602 203.541 119.634 203.142 119.698C202.744 119.756 202.34 119.857 201.931 120V119.34C202.267 119.218 202.644 119.125 203.064 119.062C203.483 118.993 203.882 118.958 204.26 118.958C204.894 118.958 205.432 119.046 205.872 119.221C206.318 119.396 206.656 119.692 206.887 120.111C207.118 120.525 207.233 121.092 207.233 121.813V127.683H206.62L206.564 126.681H206.494C206.21 127.036 205.843 127.314 205.392 127.516C204.947 127.712 204.467 127.81 203.953 127.81Z" fill="white"/>
<path d="M61.5109 146.555L65.8791 134.967H66.814L71.1821 146.555H70.4279L66.2405 135.351H66.4369L62.2494 146.555H61.5109ZM63.5064 142.507L63.7028 141.865H68.9902L69.1788 142.507H63.5064Z" fill="white"/>
<path d="M72.7595 146.555V138.091H73.3645L73.4273 139.234H73.4902C73.8044 138.843 74.192 138.543 74.6529 138.334C75.1191 138.125 75.5931 138.021 76.0749 138.021C76.2006 138.021 76.3159 138.026 76.4206 138.036C76.5254 138.042 76.6301 138.055 76.7349 138.076V138.757C76.6249 138.741 76.5149 138.731 76.4049 138.725C76.3002 138.72 76.1823 138.718 76.0514 138.718C75.7581 138.718 75.4491 138.767 75.1243 138.866C74.8048 138.966 74.4984 139.117 74.2051 139.32C73.9171 139.524 73.6683 139.78 73.4588 140.088V146.555H72.7595Z" fill="white"/>
<path d="M78.1608 146.555V138.091H78.86V146.555H78.1608ZM78.5065 135.977C78.3337 135.977 78.1922 135.928 78.0823 135.829C77.9775 135.729 77.9251 135.594 77.9251 135.421C77.9251 135.249 77.9775 135.111 78.0823 135.006C78.1922 134.902 78.3337 134.85 78.5065 134.85C78.6793 134.85 78.8181 134.902 78.9229 135.006C79.0329 135.111 79.0879 135.249 79.0879 135.421C79.0879 135.594 79.0329 135.729 78.9229 135.829C78.8181 135.928 78.6793 135.977 78.5065 135.977Z" fill="white"/>
<path d="M81.4752 150V138.091H82.088L82.1509 139.031H82.2059C82.4678 138.718 82.803 138.462 83.2115 138.264C83.62 138.065 84.0783 137.966 84.5864 137.966C85.1939 137.966 85.7465 138.099 86.2441 138.365C86.7416 138.626 87.1371 139.065 87.4304 139.681C87.7237 140.291 87.8703 141.119 87.8703 142.163C87.8703 143.196 87.7132 144.05 87.399 144.723C87.0899 145.391 86.6264 145.887 86.0084 146.211C85.3956 146.534 84.6387 146.696 83.7379 146.696C83.4708 146.696 83.201 146.683 82.9287 146.657C82.6563 146.631 82.4049 146.602 82.1745 146.571V150H81.4752ZM83.7614 146.062C84.877 146.062 85.7177 145.762 86.2833 145.161C86.8542 144.561 87.1397 143.588 87.1397 142.241C87.1397 141.296 87.0245 140.563 86.794 140.041C86.5636 139.514 86.2493 139.143 85.8512 138.929C85.4532 138.715 85.0028 138.608 84.5 138.608C84.0652 138.608 83.6384 138.71 83.2194 138.913C82.8056 139.112 82.4573 139.43 82.1745 139.869V145.889C82.3892 145.942 82.638 145.983 82.9208 146.015C83.2089 146.046 83.4891 146.062 83.7614 146.062Z" fill="white"/>
<path d="M92.5208 146.696C92.0128 146.696 91.5597 146.607 91.1617 146.43C90.7689 146.247 90.4598 145.947 90.2346 145.529C90.0094 145.112 89.8968 144.553 89.8968 143.854V138.091H90.6039V143.846C90.6039 144.665 90.7898 145.237 91.1617 145.561C91.5335 145.879 92.0128 146.038 92.5994 146.038C92.8875 146.038 93.1912 145.994 93.5107 145.905C93.8355 145.816 94.1471 145.675 94.4457 145.482C94.7494 145.289 95.0192 145.033 95.2549 144.715V138.091H95.9541V146.555H95.3491L95.2863 145.592H95.2234C94.862 145.963 94.4457 146.239 93.9743 146.422C93.5029 146.605 93.0184 146.696 92.5208 146.696Z" fill="white"/>
<path d="M100.58 146.68C99.8103 146.68 99.2002 146.485 98.7497 146.093C98.3045 145.702 98.0819 145.151 98.0819 144.441C98.0819 143.731 98.3124 143.178 98.7733 142.781C99.2342 142.379 99.9649 142.123 100.965 142.014L103.471 141.724L103.519 142.311L100.973 142.609C100.214 142.692 99.6663 142.88 99.3311 143.173C98.9959 143.46 98.8283 143.862 98.8283 144.378C98.8283 144.926 98.9828 145.344 99.2918 145.631C99.6008 145.918 100.059 146.062 100.667 146.062C101.112 146.062 101.552 145.965 101.987 145.772C102.421 145.574 102.811 145.25 103.157 144.801V140.761C103.157 140.192 103.068 139.751 102.89 139.438C102.712 139.125 102.45 138.908 102.104 138.788C101.764 138.663 101.345 138.6 100.847 138.6C100.528 138.6 100.169 138.632 99.7711 138.694C99.373 138.752 98.9697 138.851 98.5612 138.992V138.342C98.8964 138.222 99.2735 138.13 99.6925 138.068C100.112 138 100.51 137.966 100.887 137.966C101.52 137.966 102.057 138.052 102.497 138.224C102.942 138.397 103.28 138.689 103.511 139.101C103.741 139.508 103.856 140.067 103.856 140.777V146.555H103.244L103.189 145.568H103.118C102.835 145.918 102.468 146.192 102.018 146.391C101.573 146.584 101.094 146.68 100.58 146.68Z" fill="white"/>
<path d="M106.349 146.555V138.091H106.954L107.009 139.086H107.079C107.441 138.725 107.857 138.449 108.329 138.256C108.805 138.063 109.303 137.966 109.821 137.966C110.345 137.966 110.806 138.057 111.204 138.24C111.607 138.423 111.922 138.723 112.147 139.14C112.372 139.553 112.485 140.111 112.485 140.816V146.555H111.777V140.832C111.777 140.007 111.594 139.433 111.228 139.109C110.861 138.785 110.366 138.624 109.743 138.624C109.46 138.624 109.156 138.665 108.831 138.749C108.507 138.832 108.187 138.971 107.873 139.164C107.564 139.357 107.289 139.618 107.048 139.947V146.555H106.349Z" fill="white"/>
<path d="M116.999 146.68C116.229 146.68 115.619 146.485 115.168 146.093C114.723 145.702 114.501 145.151 114.501 144.441C114.501 143.731 114.731 143.178 115.192 142.781C115.653 142.379 116.383 142.123 117.384 142.014L119.89 141.724L119.937 142.311L117.392 142.609C116.632 142.692 116.085 142.88 115.75 143.173C115.415 143.46 115.247 143.862 115.247 144.378C115.247 144.926 115.401 145.344 115.71 145.631C116.019 145.918 116.478 146.062 117.085 146.062C117.531 146.062 117.97 145.965 118.405 145.772C118.84 145.574 119.23 145.25 119.576 144.801V140.761C119.576 140.192 119.487 139.751 119.309 139.438C119.131 139.125 118.869 138.908 118.523 138.788C118.183 138.663 117.764 138.6 117.266 138.6C116.947 138.6 116.588 138.632 116.19 138.694C115.792 138.752 115.388 138.851 114.98 138.992V138.342C115.315 138.222 115.692 138.13 116.111 138.068C116.53 138 116.928 137.966 117.305 137.966C117.939 137.966 118.476 138.052 118.916 138.224C119.361 138.397 119.699 138.689 119.929 139.101C120.16 139.508 120.275 140.067 120.275 140.777V146.555H119.662L119.607 145.568H119.537C119.254 145.918 118.887 146.192 118.437 146.391C117.991 146.584 117.512 146.68 116.999 146.68ZM118.609 135.813C118.395 135.813 118.188 135.779 117.989 135.711C117.795 135.638 117.606 135.562 117.423 135.484C117.261 135.416 117.101 135.354 116.944 135.296C116.787 135.239 116.627 135.21 116.465 135.21C116.229 135.21 116.014 135.257 115.82 135.351C115.627 135.44 115.443 135.581 115.27 135.774V135.163C115.564 134.834 115.964 134.67 116.473 134.67C116.687 134.67 116.892 134.706 117.085 134.779C117.284 134.847 117.476 134.92 117.659 134.999C117.826 135.072 117.989 135.137 118.146 135.194C118.303 135.252 118.46 135.28 118.617 135.28C118.858 135.28 119.073 135.233 119.262 135.14C119.455 135.046 119.639 134.902 119.812 134.709V135.327C119.518 135.651 119.118 135.813 118.609 135.813Z" fill="white"/>
<path d="M131.821 146.641C130.585 146.641 129.548 146.44 128.71 146.038C127.872 145.631 127.236 144.997 126.801 144.136C126.372 143.274 126.157 142.155 126.157 140.777C126.157 139.341 126.379 138.19 126.825 137.324C127.27 136.452 127.89 135.818 128.687 135.421C129.483 135.025 130.407 134.826 131.46 134.826C131.895 134.826 132.327 134.858 132.756 134.92C133.186 134.978 133.618 135.066 134.052 135.186V135.852C133.555 135.711 133.097 135.615 132.678 135.562C132.264 135.505 131.861 135.476 131.468 135.476C130.556 135.476 129.758 135.646 129.071 135.985C128.391 136.319 127.859 136.872 127.477 137.645C127.094 138.417 126.903 139.459 126.903 140.769C126.903 142.016 127.086 143.024 127.453 143.791C127.82 144.553 128.364 145.109 129.087 145.459C129.815 145.809 130.721 145.983 131.806 145.983C132.204 145.983 132.568 145.968 132.898 145.936C133.233 145.905 133.55 145.861 133.848 145.803L133.597 146.132V140.918H134.288V146.422C133.801 146.505 133.369 146.563 132.992 146.594C132.615 146.625 132.225 146.641 131.821 146.641Z" fill="white"/>
<path d="M139.383 146.696C138.875 146.696 138.422 146.607 138.024 146.43C137.631 146.247 137.322 145.947 137.097 145.529C136.872 145.112 136.759 144.553 136.759 143.854V138.091H137.466V143.846C137.466 144.665 137.652 145.237 138.024 145.561C138.396 145.879 138.875 146.038 139.462 146.038C139.75 146.038 140.053 145.994 140.373 145.905C140.698 145.816 141.009 145.675 141.308 145.482C141.612 145.289 141.881 145.033 142.117 144.715V138.091H142.816V146.555H142.211L142.148 145.592H142.086C141.724 145.963 141.308 146.239 140.836 146.422C140.365 146.605 139.881 146.696 139.383 146.696Z" fill="white"/>
<path d="M147.442 146.68C146.672 146.68 146.062 146.485 145.612 146.093C145.167 145.702 144.944 145.151 144.944 144.441C144.944 143.731 145.175 143.178 145.635 142.781C146.096 142.379 146.827 142.123 147.827 142.014L150.334 141.724L150.381 142.311L147.835 142.609C147.076 142.692 146.528 142.88 146.193 143.173C145.858 143.46 145.69 143.862 145.69 144.378C145.69 144.926 145.845 145.344 146.154 145.631C146.463 145.918 146.921 146.062 147.529 146.062C147.974 146.062 148.414 145.965 148.849 145.772C149.283 145.574 149.674 145.25 150.019 144.801V140.761C150.019 140.192 149.93 139.751 149.752 139.438C149.574 139.125 149.312 138.908 148.967 138.788C148.626 138.663 148.207 138.6 147.71 138.6C147.39 138.6 147.031 138.632 146.633 138.694C146.235 138.752 145.832 138.851 145.423 138.992V138.342C145.759 138.222 146.136 138.13 146.555 138.068C146.974 138 147.372 137.966 147.749 137.966C148.383 137.966 148.919 138.052 149.359 138.224C149.805 138.397 150.142 138.689 150.373 139.101C150.603 139.508 150.719 140.067 150.719 140.777V146.555H150.106L150.051 145.568H149.98C149.697 145.918 149.331 146.192 148.88 146.391C148.435 146.584 147.956 146.68 147.442 146.68Z" fill="white"/>
<path d="M153.211 146.555V138.091H153.816L153.879 139.234H153.942C154.256 138.843 154.643 138.543 155.104 138.334C155.57 138.125 156.044 138.021 156.526 138.021C156.652 138.021 156.767 138.026 156.872 138.036C156.977 138.042 157.081 138.055 157.186 138.076V138.757C157.076 138.741 156.966 138.731 156.856 138.725C156.751 138.72 156.634 138.718 156.503 138.718C156.209 138.718 155.9 138.767 155.576 138.866C155.256 138.966 154.95 139.117 154.656 139.32C154.368 139.524 154.12 139.78 153.91 140.088V146.555H153.211Z" fill="white"/>
<path d="M158.612 146.555V138.091H159.311V146.555H158.612ZM158.958 135.977C158.785 135.977 158.644 135.928 158.534 135.829C158.429 135.729 158.376 135.594 158.376 135.421C158.376 135.249 158.429 135.111 158.534 135.006C158.644 134.902 158.785 134.85 158.958 134.85C159.131 134.85 159.269 134.902 159.374 135.006C159.484 135.111 159.539 135.249 159.539 135.421C159.539 135.594 159.484 135.729 159.374 135.829C159.269 135.928 159.131 135.977 158.958 135.977Z" fill="white"/>
<path d="M164.244 146.696C163.851 146.696 163.453 146.667 163.05 146.61C162.652 146.552 162.277 146.469 161.927 146.359V133.902H162.626V138.984H162.681C162.943 138.692 163.278 138.449 163.686 138.256C164.1 138.063 164.572 137.966 165.101 137.966C165.687 137.966 166.224 138.099 166.711 138.365C167.203 138.626 167.594 139.065 167.882 139.681C168.175 140.291 168.322 141.119 168.322 142.163C168.322 143.713 167.971 144.856 167.269 145.592C166.572 146.328 165.564 146.696 164.244 146.696ZM164.291 146.062C165.365 146.062 166.182 145.762 166.743 145.161C167.308 144.561 167.591 143.588 167.591 142.241C167.591 141.296 167.476 140.563 167.245 140.041C167.015 139.514 166.703 139.146 166.31 138.937C165.918 138.723 165.478 138.616 164.991 138.616C164.54 138.616 164.103 138.712 163.679 138.906C163.26 139.099 162.909 139.399 162.626 139.806V145.835C162.841 145.897 163.095 145.952 163.388 145.999C163.681 146.041 163.982 146.062 164.291 146.062Z" fill="white"/>
<path d="M172.469 146.68C171.699 146.68 171.089 146.485 170.639 146.093C170.194 145.702 169.971 145.151 169.971 144.441C169.971 143.731 170.201 143.178 170.662 142.781C171.123 142.379 171.854 142.123 172.854 142.014L175.361 141.724L175.408 142.311L172.862 142.609C172.103 142.692 171.555 142.88 171.22 143.173C170.885 143.46 170.717 143.862 170.717 144.378C170.717 144.926 170.872 145.344 171.181 145.631C171.49 145.918 171.948 146.062 172.556 146.062C173.001 146.062 173.441 145.965 173.876 145.772C174.31 145.574 174.701 145.25 175.046 144.801V140.761C175.046 140.192 174.957 139.751 174.779 139.438C174.601 139.125 174.339 138.908 173.993 138.788C173.653 138.663 173.234 138.6 172.736 138.6C172.417 138.6 172.058 138.632 171.66 138.694C171.262 138.752 170.859 138.851 170.45 138.992V138.342C170.785 138.222 171.163 138.13 171.582 138.068C172.001 138 172.399 137.966 172.776 137.966C173.409 137.966 173.946 138.052 174.386 138.224C174.831 138.397 175.169 138.689 175.4 139.101C175.63 139.508 175.745 140.067 175.745 140.777V146.555H175.133L175.078 145.568H175.007C174.724 145.918 174.357 146.192 173.907 146.391C173.462 146.584 172.983 146.68 172.469 146.68Z" fill="white"/>
<path fill-rule="evenodd" clip-rule="evenodd" d="M39.0081 40.3756C50.1643 40.3756 59.2115 31.339 59.2115 20.1878C59.2115 9.04025 50.1643 0 39.0081 0C27.8519 0 18.8047 9.04025 18.8047 20.1878C18.8047 31.3354 27.8519 40.3756 39.0081 40.3756ZM49.4174 13.9573V13.9793C51.7094 14.7037 53.3753 16.8439 53.3753 19.3756C53.3753 21.7683 51.8888 23.8061 49.7872 24.6329C49.1464 24.4354 48.6009 23.9634 48.3446 23.2902L48.3043 23.3085H48.275C48.3958 23.9488 48.7693 24.4756 49.2709 24.8085L49.2416 24.8159C48.5203 26.6744 46.7189 27.9951 44.6063 27.9951C43.5848 27.9951 42.6402 27.6915 41.853 27.1646C41.6662 31.0793 42.6255 36.1939 43.7459 36.1939H34.2703C35.387 36.1939 36.3463 31.0793 36.1632 27.1646C35.3724 27.6915 34.4277 27.9988 33.4099 27.9988C31.6707 27.9988 30.1403 27.1024 29.2542 25.7451C28.9393 24.7902 29.3018 23.7037 30.1952 23.1476L30.1732 23.111L30.1659 23.0854C29.397 23.3854 28.8881 24.0549 28.749 24.8085C26.3764 24.1354 24.6409 21.9585 24.6409 19.3756C24.6409 16.9463 26.1787 14.8756 28.3316 14.0744C29.1188 14.0122 29.9096 14.3671 30.3746 15.0695L30.4076 15.0476L30.4332 15.0366C30.0927 14.2427 29.3567 13.7378 28.5512 13.6537C28.5256 13.4488 28.511 13.2439 28.511 13.0317C28.511 9.93658 30.997 7.42682 34.0872 7.37926V7.36463C34.4497 7.86951 34.5998 8.52073 34.4497 9.17194L34.49 9.18292L34.5156 9.1939C34.8671 8.38536 34.7133 7.4817 34.1934 6.8378C34.7426 4.69024 36.6868 3.10243 39.0044 3.10243C41.5161 3.10243 43.5885 4.96463 43.9216 7.38292H43.9326C43.9216 8.11463 43.5482 8.82438 42.8818 9.24146L42.9038 9.27438L42.9148 9.29999C43.7386 8.97438 44.2695 8.22438 44.3573 7.40121C47.2425 7.66097 49.5016 10.0793 49.5016 13.028C49.5016 13.1817 49.4942 13.3317 49.4796 13.4817C48.978 13.8878 48.308 14.0744 47.6269 13.9354L47.6196 13.9756L47.6086 14.0012C48.2164 14.2463 48.8681 14.2097 49.4174 13.9573Z" fill="white"/>
<path d="M143.35 7.41219C144.031 7.25121 144.686 6.9439 145.946 6.9439C144.686 6.9439 144.034 7.25487 143.35 7.41219ZM143.181 7.44877C143.225 7.44146 143.269 7.43048 143.309 7.42316C143.265 7.43414 143.225 7.44146 143.181 7.44877ZM143.156 7.45243C143.156 7.45243 143.163 7.45243 143.167 7.45243C143.167 7.45243 143.159 7.45243 143.156 7.45243ZM145.766 25.0024C145.766 25.0024 148.629 24.5744 150.211 23.078C148.633 24.578 145.766 25.0024 145.766 25.0024Z" fill="white"/>
<path fill-rule="evenodd" clip-rule="evenodd" d="M145.605 40.3756C156.761 40.3756 165.809 31.339 165.809 20.1878C165.809 9.04025 156.765 0 145.605 0C134.445 0 125.402 9.04025 125.402 20.1878C125.402 31.3354 134.449 40.3756 145.605 40.3756ZM133.581 30.4427C133.581 30.4427 134.134 31.3537 136.833 32.1659H136.829C139.531 32.9781 140.49 32.5244 140.49 32.5244C139.915 34.4305 137.902 35.5098 135.994 34.9354C134.087 34.361 133.006 32.3488 133.581 30.4427ZM143.167 34.1378C143.167 34.1378 144.023 34.7634 146.828 34.4744C149.633 34.1854 150.343 33.3951 150.343 33.3951C150.548 35.3744 149.109 37.1488 147.128 37.3537C145.147 37.5585 143.372 36.1207 143.167 34.1378ZM136.135 34.1284C133.897 33.6169 133.823 31.0976 133.823 31.0976C133.346 32.2981 134.553 34.3943 136.135 34.7561C138.033 35.1902 139.57 34.1274 140.047 32.9268C140.047 32.9268 138.373 34.6423 136.135 34.1308V34.1284ZM143.525 34.5734C143.525 34.5734 144.448 36.8007 147.016 36.5854C149.585 36.3728 150.098 34.0244 150.098 34.0244C150.286 35.4804 148.827 36.9834 147.013 37.1341C145.199 37.2876 143.713 36.0321 143.525 34.5734ZM132.3 22.2512C132.527 22.961 133.157 23.2939 133.157 23.2939L133.159 23.2973C133.155 23.3 133.153 23.3012 133.153 23.3012L133.797 24.3988C133.797 24.3988 133.878 24.7866 134.119 25.0134C134.361 25.2439 134.83 25.3902 134.83 25.3902L134.837 25.3976C134.861 25.5131 135.031 26.2758 135.255 26.411C135.358 26.4739 135.55 26.5273 135.746 26.5818C135.971 26.6445 136.201 26.7085 136.306 26.7898C136.318 26.8045 136.33 26.8197 136.342 26.8354L136.36 26.8593L136.373 26.8775C136.548 27.1136 137.078 27.8306 137.653 28.0939C137.95 28.2318 138.353 28.2113 138.781 28.1896L138.791 28.189C139.249 28.1671 139.74 28.1451 140.168 28.3098C140.236 28.3363 140.302 28.3659 140.368 28.395C140.638 28.514 140.891 28.6257 141.105 28.4963C141.119 28.4879 141.132 28.4784 141.143 28.468C141.178 28.4453 141.211 28.4222 141.243 28.3998C141.419 28.2769 141.561 28.1769 141.868 28.3089C141.891 28.3246 141.916 28.3396 141.944 28.3537C141.977 28.3708 142.029 28.4118 142.097 28.4655C142.361 28.6755 142.869 29.0784 143.478 28.9939C144.737 28.8146 146.458 27.7171 146.458 27.7171C146.458 27.7171 147.516 26.7146 147.93 26.7549C147.958 26.7576 147.985 26.756 148.009 26.7506C148.351 26.7463 148.763 26.5089 149.019 26.3616C149.053 26.3421 149.084 26.3242 149.112 26.3087L149.115 26.3075C149.118 26.3062 149.121 26.3048 149.124 26.3033C149.127 26.3015 149.131 26.2996 149.135 26.2976C149.142 26.2933 149.15 26.2885 149.158 26.2835C149.262 26.2315 149.478 26.1622 149.709 26.0878C150.055 25.9765 150.437 25.8537 150.534 25.7605C150.543 25.756 150.55 25.7475 150.555 25.7341L150.558 25.7277L150.561 25.7177C150.657 25.5448 151.575 24.8701 151.671 24.7998L151.679 24.7976C151.679 24.7976 154.037 22.8732 154.627 22.0427C155.09 21.3906 155.189 21.1265 155.418 20.5189C155.48 20.3527 155.553 20.1607 155.645 19.928C155.962 19.1262 156.08 17.8068 156.159 16.9294C156.187 16.6219 156.209 16.3686 156.234 16.211C156.293 15.8325 156.226 15.6189 156.167 15.4311C156.131 15.3175 156.099 15.2133 156.099 15.0878V13.2951C156.099 13.2951 156.018 12.2378 155.831 11.689C155.74 11.4218 155.662 11.2968 155.591 11.1819C155.515 11.0609 155.447 10.9509 155.377 10.6976C155.37 10.6688 155.361 10.6414 155.352 10.615C155.226 10.1617 155.113 9.8277 154.835 9.52316C154.693 9.36616 154.496 9.32922 154.299 9.29228C154.1 9.25499 153.901 9.2177 153.758 9.05698C153.754 9.05148 153.749 9.04589 153.744 9.04024C153.735 9.02857 153.725 9.01658 153.716 9.00437C153.603 8.84883 153.539 8.64354 153.475 8.43821C153.394 8.17672 153.312 7.91508 153.129 7.75609C152.817 7.48212 152.685 7.36843 152.231 7.02193C152.202 6.99809 152.171 6.97333 152.137 6.94756C151.776 6.67328 151.497 6.42404 151.232 6.18743C151.104 6.07371 150.98 5.96291 150.852 5.85365C150.742 5.75853 150.588 5.64512 150.42 5.52804C151.559 5.80975 154.85 6.95487 156.725 9.10243V9.10609C160.975 14.7952 160.001 20.1091 159.518 22.7459C159.496 22.8645 159.475 22.9778 159.456 23.0854C159.134 24.2963 157.047 29.9598 150.801 32.1805C149.34 32.7 147.425 32.9671 145.785 33.0732C144.141 33.1793 140.036 32.0378 140.036 32.0378C140.036 32.0378 137.162 31.0939 136.181 30.0768C135.2 29.0598 134.361 27.9549 134.361 27.9549C134.361 27.9549 131.78 25.8402 131.187 22.0976C130.722 19.1575 131.404 16.8156 131.746 15.6449C131.786 15.5065 131.822 15.3843 131.85 15.2795C131.819 15.485 131.8 15.7321 131.82 16.0024C131.848 16.3859 131.905 16.5303 131.949 16.6419C131.991 16.7486 132.021 16.8254 132.003 17.0524C131.989 17.2357 131.928 17.3421 131.858 17.4638C131.75 17.6505 131.623 17.8731 131.611 18.4646C131.603 18.9306 131.719 19.1926 131.83 19.4425C131.951 19.7164 132.066 19.9757 132.003 20.4732C131.978 20.6744 131.959 20.8536 131.945 21.0146C131.945 21.0146 132.069 21.5415 132.296 22.2512H132.3ZM137.92 24.8195C137.92 24.8195 135.412 23.0671 134.892 22.0903L134.903 22.0939C134.648 21.615 134.631 21.2328 134.613 20.8383C134.594 20.4281 134.575 20.0046 134.288 19.4451C133.791 18.472 134.057 16.705 134.229 15.5672C134.25 15.4217 134.271 15.2866 134.288 15.1646C134.438 14.089 135.921 12.2744 135.921 12.2744L137.902 10.3207C137.902 10.3207 139.132 9.06586 139.989 8.76952C140.293 8.66544 140.605 8.49012 140.942 8.30014C141.554 7.95588 142.252 7.5635 143.148 7.45976C143.389 7.4165 143.618 7.34957 143.863 7.27817C144.446 7.10806 145.116 6.91257 146.227 6.95123C147.806 7.00611 148.582 7.43415 148.582 7.43415C148.582 7.43415 150.215 7.67562 150.698 8.37074C150.987 8.83435 151.252 9.02649 151.525 9.22434C151.881 9.48239 152.251 9.75017 152.704 10.6427C152.837 10.9425 152.947 11.1371 153.042 11.3033C153.311 11.7759 153.449 12.019 153.587 13.8C153.643 14.2245 153.713 14.5194 153.774 14.7789C153.919 15.3897 154.018 15.8046 153.774 17.25C153.426 19.3098 152.756 19.9244 152.756 19.9244C152.756 19.9244 151.793 21.5817 150.211 23.0817C148.629 24.5781 145.766 25.0061 145.766 25.0061C145.766 25.0061 143.73 25.9427 141.08 25.8622C138.429 25.7817 137.92 24.8195 137.92 24.8195Z" fill="white"/>
<path d="M94.4339 10.2915C94.7085 13.522 93.7236 14.0451 93.244 15.2305C92.4678 17.111 92.541 20.1878 93.7309 20.1878C95.287 20.0488 97.1763 17.3671 102.515 15.2854C105.989 13.9317 107.966 14.0634 111.152 14.7732C111.375 14.8244 111.598 14.8866 111.818 14.9561C109.552 6.48294 101.903 0.212206 92.7534 0.0109863C92.2774 0.980499 91.8929 1.80001 91.7501 2.39635C91.5012 5.35611 94.141 6.82318 94.4339 10.2915Z" fill="white"/>
<path d="M87.675 25.4707C88.4988 22.5732 87.1111 22.5476 88.1803 19.5293C89.1066 16.9098 91.9039 15.9915 92.1785 11.2061C92.3542 8.12926 89.037 7.60975 89.707 2.21341C89.8059 1.40122 89.9817 0.71341 90.2013 0.109752C80.0337 1.16341 72.1069 9.75 72.1069 20.1878C72.1069 27.3183 75.8122 33.5817 81.3994 37.1744C81.491 35.4768 81.6594 33.4098 83.3033 30.9951C86.4338 26.3927 87.232 27.0512 87.6823 25.4707" fill="white"/>
<path d="M101.372 19.4012C97.2567 21.8342 97.5277 24.2232 93.8224 27.2744C89.4544 30.8707 88.9418 27.2634 85.5843 31.9866C84.3687 33.6988 84.3175 36.3549 84.1454 38.6524C86.6424 39.7573 89.3995 40.372 92.3066 40.372C103.466 40.372 112.51 31.3317 112.51 20.1842C112.51 19.3829 112.459 18.5964 112.367 17.8207C111.844 17.6817 111.379 17.5573 110.881 17.4549C106.791 16.6024 104.832 17.3524 101.372 19.3976" fill="white"/>
<path d="M93.7236 22.3939C93.698 21.2122 92.7461 20.8098 91.9406 20.4841C90.5346 19.9171 88.9932 21.8451 89.5863 23.1512C90.3222 24.4354 89.6888 25.95 90.6371 26.4329C91.5854 26.9195 94.3461 24.8415 94.5877 24.2049C94.8294 23.5683 93.7529 23.5756 93.7273 22.3939" fill="white"/>
<path d="M36.9212 103.968L33.3404 91.7707H15.9819L12.4377 103.968H0L15.3521 54.5085H34.1459L49.498 103.968H36.9212ZM18.9293 81.6768H30.4003L24.6483 62.0963L18.9293 81.6768Z" fill="white"/>
<path d="M59.5448 104.071C57.0587 103.694 54.7813 103.156 52.7053 102.465V92.1403C54.7557 92.8317 57.088 93.3768 59.6949 93.7793C62.3018 94.178 64.7439 94.3793 67.0176 94.3793C69.9137 94.3793 71.9824 93.9915 73.2199 93.2122C74.4575 92.4329 75.0763 91.2951 75.0763 89.8024C75.0763 88.9793 74.8969 88.2951 74.5417 87.7463C74.1865 87.2012 73.5605 86.711 72.6671 86.2793C71.7737 85.8439 70.4922 85.4049 68.8227 84.9585L64.7439 83.8902C60.2844 82.8 56.9415 81.0659 54.7118 78.6951C52.482 76.3207 51.3689 73.2183 51.3689 69.3878C51.3689 64.4195 53.1923 60.589 56.8353 57.8927C60.4821 55.1963 65.8826 53.85 73.0369 53.85C75.2886 53.85 77.4525 53.9781 79.5248 54.2341C81.5971 54.4902 83.4718 54.8415 85.145 55.2878V65.6159C83.6072 65.1476 81.8351 64.778 79.8287 64.511C77.8223 64.2439 75.8159 64.1085 73.8094 64.1085C70.2652 64.1085 67.7609 64.511 66.3 65.3122C64.8391 66.1171 64.1105 67.2512 64.1105 68.7219C64.1105 69.4793 64.2679 70.1195 64.5791 70.6427C64.8903 71.1658 65.4322 71.6305 66.2011 72.0293C66.97 72.428 68.0574 72.8195 69.4634 73.2L73.5422 74.2354C78.4484 75.439 82.0548 77.2244 84.3615 79.5988C86.6681 81.9695 87.8215 85.0866 87.8215 88.939C87.8215 92.1476 86.9977 94.9317 85.3464 97.2951C83.6951 99.6585 81.3152 101.473 78.2067 102.743C75.0982 104.012 71.3893 104.649 67.0872 104.649C64.5462 104.649 62.0308 104.459 59.5448 104.082V104.071Z" fill="white"/>
<path d="M126.65 103.968L123.073 91.7707H105.715L102.17 103.968H89.729L105.081 54.5085H123.875L139.227 103.968H126.65ZM108.658 81.6768H120.129L114.377 62.0963L108.658 81.6768Z" fill="white"/>
<path d="M184.17 79.9061V103.467C179.509 104.224 175.24 104.601 171.359 104.601C161.528 104.601 154.18 102.52 149.321 98.3524C144.463 94.1854 142.032 87.8598 142.032 79.3719C142.032 70.8841 144.525 64.6463 149.508 60.3256C154.491 56.0049 161.821 53.8427 171.498 53.8427C175.398 53.8427 179.121 54.2415 182.665 55.0463V65.5061C179.367 64.7707 176.031 64.4012 172.666 64.4012C168.562 64.4012 165.252 64.9207 162.733 65.9561C160.214 66.9915 158.358 68.6195 157.164 70.8366C155.97 73.0537 155.385 75.9659 155.407 79.5732C155.407 84.5634 156.626 88.2402 159.068 90.6037C161.51 92.9671 165.259 94.1451 170.323 94.1451C171.169 94.1451 171.817 94.1341 172.263 94.1122V79.9098H184.17V79.9061Z" fill="white"/>
<path d="M225.339 103.968L221.758 91.7707H204.403L200.859 103.968H188.417L203.77 54.5085H222.563L237.915 103.968H225.339ZM207.347 81.6768H218.818L213.066 62.0963L207.347 81.6768Z" fill="white"/>
<path fill-rule="evenodd" clip-rule="evenodd" d="M218.95 20.0876C218.95 31.232 209.984 40.2439 198.812 40.2439C187.709 40.2439 178.675 31.1632 178.675 20.0876C178.675 9.01188 187.709 0 198.812 0C209.915 0 218.95 8.94309 218.95 20.0876ZM208.444 35.214C208.4 36.1282 208.361 36.9278 208.467 37.4922V37.4234C209.364 36.9418 210.191 36.3915 211.019 35.7724C209.653 33.9104 209.519 30.8193 209.428 28.6958C209.38 27.6026 209.344 26.7659 209.157 26.4853C208.605 25.7286 207.915 25.1782 206.743 24.9719C206.674 25.247 206.151 25.43 205.838 25.53C204.776 25.8693 203.389 25.7927 202.29 25.2439C201.192 24.6951 200.398 23.8712 199.709 22.9081L199.295 23.1144C198.419 23.5514 197.51 23.7256 196.632 23.8937C195.714 24.0698 194.83 24.2393 194.054 24.6967C193.571 24.9719 193.088 25.4534 192.674 26.2101C192.123 27.3108 191.088 34.7405 191.088 38.1113C192.205 38.7304 192.708 38.8481 193.853 39.116C193.98 39.1459 194.115 39.1776 194.26 39.212C194.812 39.3496 195.364 39.4872 195.916 39.556C195.916 39.3496 196.191 36.3227 196.329 35.566C196.441 35.9562 196.372 38.2442 196.341 39.2441C196.334 39.478 196.329 39.6414 196.329 39.6936C197.019 39.8311 198.122 39.8311 198.881 39.8311C201.295 39.8311 203.64 39.4184 205.777 38.5929C206.605 38.3177 207.433 37.9049 208.191 37.4922C208.107 36.9049 208.151 35.6014 208.198 34.2057C208.229 33.3124 208.26 32.3813 208.26 31.576C208.283 31.6677 208.314 31.7594 208.344 31.8512C208.406 32.0346 208.467 32.2181 208.467 32.4015C208.534 33.3735 208.487 34.3454 208.444 35.214ZM209.708 22.9769C210.536 22.8393 211.019 22.4953 211.226 21.8762V22.0826C211.432 21.4634 212.191 15.6848 212.191 14.6529V14.2402C212.191 14.2402 208.536 14.8593 206.329 14.0338C205.639 14.2402 205.226 14.5841 205.019 14.9281C204.881 15.272 204.743 15.616 204.536 15.96C204.398 16.4415 204.122 16.8543 203.295 17.1295C203.157 17.1983 203.019 17.267 202.812 17.267C202.95 18.7117 202.329 18.9869 202.26 18.9869C202.122 20.2251 201.295 22.1513 200.191 22.9769C200.881 24.0088 201.846 24.7655 202.881 25.1782C202.938 25.1972 203 25.2213 203.064 25.2463C203.234 25.3123 203.421 25.3846 203.571 25.3846C204.467 25.6598 205.845 25.3158 206.397 24.9719C206.397 24.9719 206.536 24.2839 206.743 23.7336C207.061 22.7824 207.196 22.813 207.714 22.931C208.096 23.0178 208.685 23.1518 209.708 22.9769ZM210.053 10.319C208.191 9.35585 205.433 9.42464 203.295 10.3877H203.433C201.984 11.2133 201.64 12.7267 201.64 14.3777V14.9969C201.663 15.1574 201.693 15.3179 201.724 15.4784C201.785 15.7994 201.846 16.1205 201.846 16.4415V16.7167C201.875 16.8875 201.927 17.07 201.978 17.2498C202.051 17.5044 202.122 17.7533 202.122 17.955V18.7117C202.329 18.5741 202.542 18.1129 202.473 17.0122C202.611 16.9434 202.95 16.8543 203.088 16.8543C203.915 16.5791 204.191 15.96 204.398 15.4784C204.452 15.3438 204.506 15.2302 204.556 15.1253C204.633 14.9623 204.701 14.8204 204.743 14.6529C204.881 14.3089 205.571 13.7586 206.26 13.5522C208.536 14.3089 212.191 13.7586 212.191 13.7586C212.463 11.5196 210.924 10.7528 210.088 10.3361C210.076 10.3303 210.065 10.3246 210.053 10.319ZM196.674 12.8643H196.536V13.2083H196.881C197.088 13.2083 197.64 13.277 197.984 13.5522C198.329 13.8274 198.536 14.1714 198.674 14.5153C198.743 14.6529 198.743 14.7905 198.743 14.8593C198.724 14.8786 198.699 14.9088 198.67 14.9437C198.597 15.0331 198.497 15.1538 198.398 15.2033C198.398 15.2033 198.26 15.272 198.26 15.3408C198.26 15.1345 198.191 14.9281 198.053 14.6529C197.916 14.4465 197.778 14.2401 197.571 14.0338C197.226 13.7586 196.743 13.621 196.536 13.621H195.985C195.871 13.621 195.778 13.6627 195.694 13.7002C195.626 13.7308 195.564 13.7586 195.502 13.7586C195.364 13.8274 195.019 13.965 194.95 13.965L194.743 14.1713C195.157 13.621 195.157 12.9331 195.157 12.7955C195.152 12.7653 195.147 12.7325 195.141 12.6974C195.073 12.2533 194.948 11.4431 194.054 10.8693C193.64 10.6629 193.157 10.6629 192.95 10.6629C192.95 10.7035 192.854 10.7202 192.732 10.7412C192.648 10.7557 192.552 10.7723 192.467 10.8005C192.329 10.8464 192.253 10.8922 192.176 10.9381C192.138 10.961 192.1 10.9839 192.054 11.0069C191.998 11.0344 191.921 11.0839 191.844 11.1335C191.728 11.2078 191.612 11.2821 191.571 11.2821C191.536 11.3164 191.485 11.4024 191.433 11.4884C191.381 11.5744 191.329 11.6604 191.295 11.6948C191.295 11.7292 191.26 11.798 191.226 11.8668C191.192 11.9356 191.157 12.0044 191.157 12.0388C191.139 12.0572 191.12 12.0707 191.103 12.0832C191.056 12.1174 191.019 12.1444 191.019 12.2452V12.5203C190.95 12.5891 190.95 12.6579 190.95 12.7267V13.0707C190.976 13.1226 190.992 13.2136 191.014 13.3328C191.049 13.5295 191.097 13.8027 191.226 14.1026V14.2402C191.295 14.3089 191.364 14.4465 191.364 14.4465C191.433 14.3777 191.709 14.2402 191.709 14.2402C191.916 14.1714 192.191 14.1714 192.191 14.1714C192.329 14.1026 192.605 14.1026 192.881 14.1714C192.95 14.1714 193.088 14.2401 193.226 14.3089C193.502 14.5153 193.709 14.7217 193.847 14.9281C193.928 14.8738 194.01 14.8302 194.087 14.7889C194.206 14.7255 194.315 14.6674 194.398 14.5841L194.191 14.7905C194.122 14.9281 194.122 15.0657 194.122 15.0657C194.054 15.0657 193.985 15.1345 193.985 15.2033V15.6848C193.964 15.6432 193.943 15.5952 193.92 15.5428C193.868 15.4223 193.805 15.2784 193.709 15.1345C193.571 14.9281 193.364 14.7217 193.088 14.5153C192.743 14.3089 192.191 14.3089 191.985 14.3089C191.916 14.3089 191.64 14.3777 191.433 14.4465C191.335 14.479 191.268 14.5269 191.21 14.5683C191.145 14.6146 191.092 14.6529 191.019 14.6529C190.964 14.6804 190.887 14.73 190.809 14.7795C190.694 14.8538 190.578 14.9281 190.536 14.9281C190.502 14.9625 190.45 15.0485 190.398 15.1345C190.347 15.2205 190.295 15.3064 190.26 15.3408C190.26 15.3752 190.226 15.444 190.192 15.5128C190.157 15.5816 190.123 15.6504 190.123 15.6848C190.123 15.7536 190.054 15.8224 190.054 15.8224V15.5472L189.985 15.4784V15.3408L189.847 15.2033C189.808 15.2033 189.791 15.1599 189.771 15.1096C189.756 15.0704 189.739 15.027 189.709 14.9969C189.663 14.9051 189.617 14.8746 189.571 14.844C189.548 14.8287 189.525 14.8134 189.502 14.7905L189.226 14.5153H189.088C189.019 14.4465 188.881 14.3089 188.812 14.3089C188.743 14.2402 188.398 14.1714 188.261 14.1714C188.123 14.1026 187.985 14.1026 187.778 14.1026H187.226C187.202 14.1106 187.173 14.1195 187.141 14.1296C186.895 14.2061 186.435 14.3489 186.192 14.6529C186.151 14.7232 186.111 14.792 186.072 14.8593C185.841 15.2534 185.64 15.5974 185.64 15.8912L185.502 15.7536C185.439 15.722 185.361 15.6616 185.289 15.6053C185.203 15.5389 185.126 15.4784 185.088 15.4784C185.06 15.4784 184.984 15.4548 184.895 15.4272C184.769 15.3881 184.617 15.3408 184.536 15.3408C184.399 15.272 184.261 15.272 184.054 15.272H183.364C183.334 15.2117 183.29 15.1514 183.251 15.0969C183.201 15.027 183.157 14.9667 183.157 14.9281C181.571 15.1345 180.674 15.5472 180.674 15.5472L180.33 15.6848C180.33 15.6848 180.606 16.0976 181.916 16.5103C183.157 16.9231 185.433 17.4046 189.433 17.611H189.64C190.329 17.6798 191.019 17.6798 191.778 17.6798H194.743C195.847 17.6798 196.812 17.611 197.64 17.5422L197.778 17.4046V17.4734C199.237 17.3521 200.053 17.1238 200.746 16.93C200.839 16.9041 200.929 16.8787 201.019 16.8543C200.992 16.6668 200.944 16.4689 200.896 16.2686C200.82 15.9546 200.743 15.6349 200.743 15.3408V14.7217C200.605 14.6529 200.571 14.6185 200.553 14.6013C200.536 14.5841 200.536 14.5841 200.467 14.5841H199.778C199.664 14.5841 199.571 14.6258 199.487 14.6633C199.419 14.6939 199.357 14.7217 199.295 14.7217C199.266 14.7217 199.214 14.7453 199.153 14.773C199.066 14.8121 198.962 14.8593 198.881 14.8593H198.743C198.812 14.7217 198.881 14.6529 198.881 14.6529L199.226 14.3089C199.254 14.3089 199.33 14.2735 199.419 14.2321C199.545 14.1734 199.697 14.1026 199.778 14.1026C199.881 14.1026 199.95 14.0682 200.019 14.0338C200.088 13.9994 200.157 13.965 200.26 13.965H200.95C201.157 13.6898 201.157 13.3458 201.157 13.277C201.157 12.8643 201.157 11.97 200.329 11.2133C199.984 10.9381 199.433 10.8693 199.226 10.8693H198.674C198.56 10.8693 198.467 10.911 198.384 10.9485C198.315 10.9791 198.253 11.0069 198.191 11.0069C198.111 11.0069 197.959 11.0777 197.833 11.1364C197.744 11.1779 197.668 11.2133 197.64 11.2133C197.62 11.2326 197.596 11.2627 197.567 11.2976C197.493 11.3871 197.394 11.5077 197.295 11.5572C197.226 11.5572 197.088 11.7636 197.088 11.8324C197.065 11.8553 197.042 11.8706 197.019 11.8859C196.973 11.9165 196.927 11.9471 196.881 12.0388C196.812 12.1764 196.812 12.3139 196.812 12.3139C196.743 12.3827 196.674 12.4515 196.674 12.5203V12.8643ZM194.398 14.5841C194.536 14.4465 194.674 14.3089 194.743 14.1713L194.605 14.3089C194.605 14.3089 194.398 14.5153 194.398 14.5841ZM187.916 12.9331C187.916 12.9482 187.909 12.9734 187.9 13.0071C187.868 13.1264 187.808 13.3528 187.916 13.621C187.916 13.6898 187.985 13.8274 187.985 13.8274C188.054 13.793 188.054 13.8102 188.054 13.836C188.054 13.8618 188.054 13.8962 188.123 13.8962H188.467C188.605 13.8962 188.95 13.965 189.157 14.1714L189.295 14.3089C189.322 14.3632 189.36 14.4068 189.396 14.4481C189.451 14.5115 189.502 14.5696 189.502 14.6529C189.553 14.6273 189.624 14.5731 189.699 14.5151C189.826 14.4174 189.967 14.3089 190.054 14.3089C190.123 14.2402 190.192 14.2402 190.192 14.2402C190.674 13.8962 190.812 13.4146 190.812 13.277C190.812 13.2516 190.813 13.2239 190.813 13.194C190.82 12.9002 190.83 12.4007 190.329 11.9012C190.123 11.6948 189.778 11.626 189.64 11.626H189.295C189.226 11.626 189.174 11.6432 189.123 11.6604C189.071 11.6776 189.019 11.6948 188.95 11.6948C188.881 11.6948 188.605 11.8324 188.605 11.8324C188.571 11.8324 188.519 11.884 188.467 11.9356C188.416 11.9872 188.364 12.0388 188.33 12.0388C188.33 12.1076 188.192 12.2452 188.192 12.2452L188.054 12.3827C187.985 12.4515 187.985 12.5203 187.985 12.5203C187.916 12.5891 187.916 12.6579 187.916 12.6579V12.9331ZM184.536 11.9012C184.33 11.9012 183.571 12.3827 183.571 12.3827V12.1076C183.054 12.8521 183.111 13.549 183.145 13.96C183.151 14.0426 183.157 14.1138 183.157 14.1714C183.157 14.1999 183.181 14.2402 183.209 14.2874C183.248 14.3541 183.295 14.4347 183.295 14.5153C183.295 14.5578 183.321 14.6004 183.358 14.6591C183.38 14.6954 183.407 14.7379 183.433 14.7905H183.985C184.099 14.7905 184.192 14.8113 184.275 14.8301C184.344 14.8454 184.406 14.8593 184.468 14.8593C184.599 14.8593 184.758 14.9146 184.874 14.9551C184.941 14.9784 184.994 14.9969 185.019 14.9969C185.074 15.0244 185.13 15.0739 185.185 15.1235C185.268 15.1978 185.35 15.272 185.433 15.272L185.571 15.4096C185.64 15.0657 185.847 14.7217 186.123 14.3089C186.192 14.2402 186.261 14.1714 186.261 14.1026C186.536 13.7586 186.881 13.6898 187.019 13.6898H187.502C187.433 13.5522 187.226 13.277 187.226 13.277L187.157 13.2083V13.0707C187.088 12.9331 187.019 12.9331 187.019 12.9331C186.98 12.9331 186.963 12.8897 186.944 12.8395C186.928 12.8003 186.911 12.7569 186.881 12.7267C186.841 12.7066 186.806 12.6923 186.778 12.6805C186.709 12.652 186.674 12.6378 186.674 12.5891L186.467 12.3827C186.404 12.3512 186.326 12.2907 186.254 12.2345C186.169 12.1681 186.091 12.1076 186.054 12.1076C185.916 12.0388 185.64 11.97 185.502 11.97C185.295 11.9012 185.226 11.9012 185.019 11.9012H184.536ZM181.421 17.1951L180.695 16.5118L185.833 35.2171L185.868 35.2513C186.351 35.7346 187.111 36.1576 187.969 36.4821C188.83 36.8077 189.807 37.0401 190.739 37.1332L190.775 36.7692C189.876 36.6793 188.931 36.4544 188.099 36.1399C187.285 35.8323 186.595 35.4445 186.161 35.026L181.421 17.1951Z" fill="white"/>
</svg>
