<svg width="254" height="150" viewBox="0 0 254 150" fill="none" xmlns="http://www.w3.org/2000/svg">
<path d="M192.552 59.8615C192.772 60.7767 193.119 61.5882 193.593 62.3073C194.067 63.0227 194.677 63.6072 195.421 64.0572C196.161 64.5071 197.056 64.734 198.097 64.734C199.254 64.734 200.234 64.5071 201.036 64.0572C201.834 63.6072 202.486 63.0227 202.983 62.3073C203.481 61.592 203.839 60.7767 204.063 59.8615C204.283 58.95 204.394 58.0309 204.394 57.1041C204.394 56.1773 204.283 55.262 204.063 54.3467C203.843 53.4353 203.484 52.62 202.983 51.9008C202.486 51.1855 201.834 50.601 201.036 50.151C200.234 49.7011 199.258 49.4742 198.097 49.4742C197.052 49.4742 196.161 49.7011 195.421 50.151C194.677 50.601 194.067 51.1855 193.593 51.9008C193.119 52.6161 192.772 53.4314 192.552 54.3467C192.332 55.2582 192.22 56.1811 192.22 57.1041C192.22 58.0271 192.328 58.9462 192.552 59.8615Z" fill="white"/>
<path d="M215.589 50.1357C214.799 50.5741 214.147 51.1548 213.622 51.8701C213.102 52.5854 212.708 53.4007 212.442 54.316C212.176 55.2313 212.041 56.1581 212.041 57.108C212.041 58.0579 212.172 58.9847 212.442 59.9C212.708 60.8152 213.102 61.6267 213.622 62.3458C214.143 63.0611 214.799 63.6418 215.589 64.0802C216.376 64.5187 217.294 64.7379 218.335 64.7379C219.376 64.7379 220.294 64.5187 221.08 64.0802C221.867 63.6418 222.523 63.065 223.043 62.3458C223.564 61.6305 223.957 60.8152 224.227 59.9C224.493 58.9885 224.628 58.0579 224.628 57.108C224.628 56.1581 224.493 55.2313 224.227 54.316C223.961 53.4045 223.568 52.5892 223.043 51.8701C222.523 51.1548 221.867 50.5741 221.08 50.1357C220.294 49.6973 219.376 49.4781 218.335 49.4781C217.294 49.4781 216.376 49.6973 215.589 50.1357Z" fill="white"/>
<path fill-rule="evenodd" clip-rule="evenodd" d="M56.9911 15.286C60.5536 16.5099 69.6334 13.0525 70.3716 0.156747C70.3716 0.156747 47.567 -2.46407 55.4432 13.7274C55.4167 14.3646 55.4375 15.0175 55.506 15.6856C56.2285 22.7559 62.3126 29.621 64.6941 31.1655C64.6598 31.4109 64.628 31.6581 64.5989 31.9071C63.425 41.9686 66.9145 52.4741 69.7583 58.1561C65.2823 54.4275 61.014 50.2331 56.7747 46.067C53.6378 42.9838 50.5732 39.9719 47.4874 37.2116C47.8021 34.4875 48.4574 23.4079 38.928 19.7121C32.6579 17.2795 27.7905 18.6473 24.5573 19.5558C22.1731 20.2257 20.6776 20.6459 20.1637 19.1084C20.1637 19.1084 25.1382 35.1911 29.2412 37.8216C36.1057 42.2225 43.7643 39.495 46.4284 38.2989C49.4961 41.0399 52.5504 44.04 55.6777 47.1118L55.7162 47.1496C60.8683 52.2121 66.192 57.4434 71.9947 61.8191C72.1804 62.0369 72.3466 62.1986 72.4888 62.2998C72.5925 62.3737 72.7053 62.418 72.822 62.4346C76.0824 64.8275 79.4961 66.9394 83.1165 68.5929V86.9238C83.1165 88.6351 82.9198 90.0849 82.5342 91.2848C82.1486 92.4847 81.5817 93.4615 80.8375 94.2191C80.0932 94.9767 79.1793 95.5305 78.1034 95.8727C77.0275 96.215 75.7704 96.3881 74.4169 96.3881C73.0633 96.3881 71.8486 96.2189 70.7727 95.8727C69.6969 95.5266 68.7829 94.9767 68.0387 94.2191C67.2906 93.4615 66.7237 92.4847 66.3381 91.2848C65.9525 90.0849 65.7597 88.6312 65.7597 86.9238V68.6605H62.9446V87.5429C62.9446 89.0581 63.1567 90.4964 63.5848 91.8617C64.0128 93.223 64.6876 94.4152 65.6131 95.4343C66.5386 96.4573 67.7263 97.261 69.1763 97.8533C70.6262 98.4455 72.3461 98.7416 74.4169 98.7416C76.4877 98.7416 78.25 98.4455 79.6999 97.8533C81.1498 97.261 82.3376 96.4534 83.263 95.4343C84.1847 94.4191 84.8634 93.2269 85.2914 91.8617C85.7194 90.4964 85.9354 89.0581 85.9354 87.5429V69.7686C89.7607 71.2123 93.8177 72.126 98.1637 72.3183C98.2686 72.3471 98.3714 72.3738 98.472 72.3985C98.5337 72.4139 98.5915 72.4216 98.6532 72.4216H98.6571C98.7746 72.4216 98.8881 72.395 98.9899 72.3461C99.2876 72.3529 99.5867 72.3564 99.8872 72.3564C112.293 72.3564 127.035 66.4801 145.375 50.4973C145.486 50.4014 145.562 50.2803 145.602 50.1499C154.473 46.2268 170.849 42.2425 176.684 43.5402C184.08 45.1862 187.705 47.6936 186.968 57.0733C186.064 61.9594 186.851 66.3322 188.781 70.0113C188.671 69.9682 188.559 69.9256 188.445 69.8834C187.928 69.695 187.381 69.5988 186.81 69.5988C186.289 69.5988 185.823 69.7142 185.399 69.9449C184.978 70.1757 184.608 70.4757 184.296 70.841C183.983 71.2063 183.737 71.6217 183.559 72.0832C183.382 72.5446 183.266 73.0215 183.212 73.5099H184.805C184.805 72.8292 185.005 72.3139 185.399 71.9601C185.792 71.6063 186.301 71.4294 186.93 71.4294C187.284 71.4294 187.666 71.5255 188.075 71.714C188.484 71.9063 188.919 72.1216 189.382 72.3677C189.792 72.5856 190.223 72.7824 190.675 72.9555C197.299 81.5244 210.687 84.9905 220.969 80.1168C233.567 74.1444 237.091 60.4229 227.682 45.9323C216.297 28.3972 194.243 29.1188 181.139 31.2653C181.413 31.1373 181.67 31.0012 181.909 30.8571C182.688 30.3879 183.301 29.8572 183.748 29.2726C184.196 28.6881 184.539 28.1074 184.782 27.5344C185.029 26.9613 185.179 26.4229 185.244 25.9115C185.306 25.4 185.341 24.9962 185.341 24.6885C185.341 23.5694 185.156 22.6118 184.786 21.8235C184.415 21.0351 183.906 20.3659 183.255 19.8199C182.603 19.2738 181.851 18.8161 180.995 18.4469C180.139 18.0816 179.229 17.7662 178.257 17.5124L171.593 15.8703C171.03 15.7434 170.502 15.578 170.005 15.3742C169.507 15.1742 169.068 14.905 168.682 14.5743C168.3 14.2436 167.999 13.8436 167.784 13.3706C167.564 12.8976 167.456 12.3476 167.456 11.7092C167.456 10.694 167.649 9.84022 168.03 9.15183C168.412 8.46345 168.917 7.90967 169.542 7.49048C170.167 7.0713 170.895 6.76749 171.725 6.57521C172.554 6.38677 173.414 6.29062 174.308 6.29062C175.276 6.29062 176.202 6.42522 177.085 6.69058C177.964 6.95978 178.743 7.35204 179.418 7.87506C180.093 8.39423 180.644 9.04415 181.064 9.82099C181.489 10.5978 181.724 11.5093 181.774 12.5514H184.377C184.377 11.1516 184.103 9.92482 183.555 8.86725C183.008 7.80968 182.271 6.92517 181.354 6.21371C180.436 5.50225 179.364 4.9677 178.137 4.61004C176.911 4.25239 175.623 4.07549 174.27 4.07549C172.357 4.07549 170.788 4.35238 169.561 4.89847C168.335 5.44456 167.371 6.11372 166.669 6.90209C165.967 7.69046 165.489 8.52883 165.235 9.42103C164.976 10.3132 164.849 11.0901 164.849 11.7515C164.849 12.8206 165.022 13.7244 165.366 14.4628C165.713 15.2011 166.164 15.828 166.727 16.3356C167.286 16.8471 167.945 17.2548 168.697 17.5586C169.449 17.8662 170.225 18.12 171.015 18.3239L177.104 19.8122C177.74 19.966 178.392 20.1621 179.055 20.4044C179.719 20.6467 180.324 20.9582 180.875 21.3389C181.423 21.7196 181.87 22.1927 182.214 22.7503C182.557 23.3079 182.73 23.9732 182.73 24.7347C182.73 25.7269 182.487 26.5729 182.001 27.2728C181.519 27.9728 180.91 28.5458 180.185 28.9919C179.456 29.438 178.67 29.761 177.829 29.9648C176.984 30.1725 176.206 30.2725 175.492 30.2725C174.239 30.2725 173.063 30.1533 171.968 29.911C170.869 29.6687 169.916 29.2688 169.114 28.7073C168.308 28.1458 167.676 27.3959 167.217 26.4537L167.221 26.446C166.762 25.5038 166.542 24.3309 166.569 22.931H163.966C163.889 24.6116 164.112 26.0499 164.637 27.2459C165.161 28.4458 165.906 29.4264 166.877 30.1879C167.849 30.9532 169.021 31.5185 170.402 31.8877C171.782 32.2569 173.275 32.4415 174.883 32.4415C174.923 32.4415 174.964 32.4414 175.004 32.4412C175.054 32.441 175.104 32.4406 175.154 32.4401C173.959 32.7121 172.966 32.9589 172.218 33.1452C163.704 35.2641 151.629 43.9537 145.039 49.189C144.813 49.1399 144.568 49.1944 144.38 49.359C125.838 65.5181 111.23 71.2678 98.9745 70.9809C98.9314 70.9611 98.8859 70.9451 98.8383 70.9333C95.0322 69.9988 87.7247 65.857 87.2966 56.8618C87.1162 53.1155 87.9336 49.8786 89.2895 47.2052C92.2643 49.6172 105.373 50.9441 110.202 41.4596C113.469 35.0372 111.247 32.8221 111.247 32.8221C111.247 32.8221 90.7269 24.1798 88.7758 45.0259C86.8201 48.1716 85.5507 52.1725 85.7773 56.931C86.1124 63.9138 90.2221 68.2379 94.081 70.5367C86.2928 69.2964 79.4606 65.6219 73.1106 60.8224C71.5747 59.0747 67.0588 50.1805 66.068 39.9997C66.6485 40.0632 67.3885 40.1252 68.2314 40.1252C69.6621 40.1252 71.3958 39.9478 73.1703 39.302C79.3679 42.9112 82.2579 38.2207 84.3041 34.5491C86.4078 30.7741 85.2236 30.6899 79.5369 30.2855C79.4072 30.2763 79.2751 30.2669 79.1406 30.2573C73.5737 29.8592 70.1511 35.8765 71.7008 38.1874C69.6644 38.7225 67.6387 38.6553 65.9466 38.4637C65.8195 36.3607 65.8531 34.2162 66.1029 32.0802C66.7426 26.603 68.7319 22.051 72.0423 18.4605C74.2117 20.9617 91.2269 22.2608 96.7868 8.79799C96.7868 8.79799 77.212 -3.40247 72.2024 16.1405C68.4523 19.6238 66.0337 24.0861 64.9745 29.4914C62.7576 27.6656 57.654 21.7916 57.0137 15.5318C57.0054 15.4496 56.9978 15.3677 56.9911 15.286ZM204.564 66.0531V62.6535H204.495C204.263 63.2303 203.92 63.761 203.469 64.2494C203.018 64.734 202.501 65.1455 201.923 65.4801C201.344 65.8146 200.723 66.0761 200.06 66.2607C199.401 66.4453 198.745 66.5376 198.097 66.5376C196.728 66.5376 195.541 66.2877 194.534 65.7916C193.528 65.2955 192.683 64.6109 192.012 63.7456C191.337 62.8804 190.84 61.8728 190.516 60.7306C190.192 59.5846 190.03 58.377 190.03 57.1079C190.03 55.8389 190.192 54.6275 190.516 53.4853C190.84 52.3393 191.337 51.3355 192.012 50.4664C192.683 49.6011 193.524 48.9127 194.534 48.4051C195.544 47.8974 196.732 47.6436 198.097 47.6436C198.768 47.6436 199.424 47.7244 200.06 47.8859C200.696 48.0474 201.294 48.2974 201.849 48.632C202.405 48.9666 202.898 49.3781 203.326 49.8626C203.754 50.3472 204.086 50.9163 204.317 51.5624H204.387V41.2982H206.577V66.0569H204.56L204.564 66.0531ZM221.967 48.4013C223.024 48.9089 223.911 49.5934 224.628 50.4472C225.345 51.3048 225.889 52.3008 226.263 53.4468C226.633 54.5929 226.818 55.812 226.818 57.1041C226.818 58.3963 226.633 59.6192 226.263 60.7614C225.893 61.9074 225.349 62.9073 224.628 63.761C223.907 64.6186 223.024 65.2916 221.967 65.7916C220.911 66.2915 219.7 66.5377 218.335 66.5377C216.97 66.5377 215.755 66.2877 214.702 65.7916C213.646 65.2955 212.762 64.6186 212.041 63.761C211.324 62.9073 210.776 61.9074 210.406 60.7614C210.036 59.6154 209.851 58.4001 209.851 57.1041C209.851 55.8081 210.036 54.589 210.406 53.4468C210.776 52.3008 211.32 51.3048 212.041 50.4472C212.759 49.5934 213.646 48.9089 214.702 48.4013C215.755 47.8936 216.966 47.6398 218.335 47.6398C219.704 47.6398 220.915 47.8936 221.967 48.4013Z" fill="white"/>
<path d="M55.4226 119.624C55.4226 119.197 55.5738 118.832 55.8761 118.531C56.1784 118.229 56.5405 118.079 56.9624 118.079C57.3906 118.079 57.7559 118.229 58.0582 118.531C58.3605 118.832 58.5116 119.197 58.5116 119.624C58.5116 120.044 58.3605 120.409 58.0582 120.716C57.7559 121.018 57.3906 121.169 56.9624 121.169C56.5405 121.169 56.1784 121.018 55.8761 120.716C55.5738 120.409 55.4226 120.044 55.4226 119.624Z" fill="white"/>
<path d="M58.3794 122.516V131.409H55.5738V122.516H58.3794Z" fill="white"/>
<path fill-rule="evenodd" clip-rule="evenodd" d="M11.2246 118.248L17.0814 131.409H13.5484L12.4621 128.809H6.55802L5.57559 131.409H2.08985L7.4082 118.248H11.2246ZM11.4891 126.51L9.36362 121.395L7.42709 126.51H11.4891Z" fill="white"/>
<path d="M24.3434 122.996V124.984C23.2728 124.331 22.2809 124.004 21.3678 124.004C20.6939 124.004 20.357 124.234 20.357 124.692C20.357 124.811 20.4263 124.931 20.5648 125.05C20.7097 125.163 21.2544 125.408 22.1991 125.785C23.1437 126.155 23.8113 126.586 24.2017 127.075C24.5922 127.565 24.7874 128.102 24.7874 128.686C24.7874 129.61 24.4725 130.322 23.8428 130.825C23.213 131.327 22.3156 131.579 21.1505 131.579C19.954 131.579 18.8897 131.362 17.9576 130.929V128.96C19.1038 129.462 20.0642 129.713 20.8388 129.713C21.7457 129.713 22.1991 129.493 22.1991 129.054C22.1991 128.884 22.1141 128.724 21.944 128.573C21.7803 128.423 21.2198 128.162 20.2626 127.791C19.3053 127.421 18.6504 127.013 18.2977 126.567C17.945 126.121 17.7687 125.625 17.7687 125.078C17.7687 124.268 18.1056 123.609 18.7795 123.1C19.4596 122.591 20.3539 122.337 21.4623 122.337C22.5266 122.337 23.4869 122.557 24.3434 122.996Z" fill="white"/>
<path d="M32.5029 124.984V122.996C31.6464 122.557 30.686 122.337 29.6217 122.337C28.5133 122.337 27.6191 122.591 26.9389 123.1C26.2651 123.609 25.9282 124.268 25.9282 125.078C25.9282 125.625 26.1045 126.121 26.4572 126.567C26.8098 127.013 27.4648 127.421 28.422 127.791C29.3793 128.162 29.9398 128.423 30.1035 128.573C30.2735 128.724 30.3586 128.884 30.3586 129.054C30.3586 129.493 29.9051 129.713 28.9983 129.713C28.2237 129.713 27.2633 129.462 26.1171 128.96V130.929C27.0491 131.362 28.1134 131.579 29.31 131.579C30.4751 131.579 31.3725 131.327 32.0022 130.825C32.632 130.322 32.9469 129.61 32.9469 128.686C32.9469 128.102 32.7517 127.565 32.3612 127.075C31.9707 126.586 31.3032 126.155 30.3586 125.785C29.4139 125.408 28.8692 125.163 28.7243 125.05C28.5858 124.931 28.5165 124.811 28.5165 124.692C28.5165 124.234 28.8534 124.004 29.5273 124.004C30.4404 124.004 31.4323 124.331 32.5029 124.984Z" fill="white"/>
<path fill-rule="evenodd" clip-rule="evenodd" d="M39.132 122.337C40.5301 122.337 41.7141 122.745 42.6839 123.562C43.66 124.378 44.1481 125.515 44.1481 126.972C44.1481 128.435 43.6537 129.569 42.665 130.373C41.6763 131.177 40.4986 131.579 39.132 131.579C37.6521 131.579 36.4398 131.151 35.4952 130.297C34.5568 129.437 34.0876 128.322 34.0876 126.953C34.0876 125.559 34.5663 124.441 35.5235 123.599C36.487 122.758 37.6899 122.337 39.132 122.337ZM39.132 129.921C40.4734 129.921 41.1441 128.912 41.1441 126.896C41.1441 124.968 40.4734 124.004 39.132 124.004C38.4897 124.004 37.9859 124.259 37.6206 124.767C37.2616 125.276 37.0822 126.005 37.0822 126.953C37.0822 128.931 37.7655 129.921 39.132 129.921Z" fill="white"/>
<path d="M53.734 130.985V128.978C52.6508 129.387 51.8132 129.591 51.2212 129.591C50.4214 129.591 49.7759 129.352 49.2847 128.875C48.7935 128.391 48.5479 127.757 48.5479 126.972C48.5479 126.193 48.7998 125.571 49.3036 125.107C49.8074 124.642 50.4781 124.409 51.3157 124.409C52.0651 124.409 52.8271 124.607 53.6017 125.003V122.921C52.5437 122.532 51.5424 122.337 50.5978 122.337C49.1304 122.337 47.9213 122.776 46.9703 123.656C46.0257 124.529 45.5534 125.64 45.5534 126.991C45.5534 128.372 46.0225 129.484 46.9609 130.326C47.8992 131.161 49.1525 131.579 50.7206 131.579C51.6337 131.579 52.6382 131.381 53.734 130.985Z" fill="white"/>
<path fill-rule="evenodd" clip-rule="evenodd" d="M69.779 130.768V129.214C69.3067 129.547 68.954 129.713 68.721 129.713C68.4124 129.713 68.2581 129.506 68.2581 129.091V125.041C68.2581 123.238 66.9986 122.337 64.4795 122.337C63.0752 122.337 61.7873 122.698 60.6159 123.42V125.7C61.6173 124.708 62.713 124.212 63.9033 124.212C64.9991 124.212 65.5155 124.708 65.4525 125.7C62.9209 126.447 61.4031 127.06 60.8993 127.537C60.4018 128.008 60.1531 128.63 60.1531 129.402C60.1531 129.98 60.3955 130.489 60.8804 130.929C61.3653 131.362 61.9542 131.579 62.6469 131.579C63.6293 131.579 64.6086 131.246 65.5848 130.58C65.7485 131.246 66.2712 131.579 67.1529 131.579C67.9716 131.579 68.8469 131.308 69.779 130.768ZM65.4525 127.104V129.252C64.9487 129.698 64.4323 129.921 63.9033 129.921C63.6514 129.921 63.4373 129.829 63.2609 129.647C63.0846 129.459 62.9964 129.236 62.9964 128.978C62.9964 128.576 63.1696 128.247 63.516 127.989C63.8687 127.725 64.5142 127.43 65.4525 127.104Z" fill="white"/>
<path d="M78.6469 128.978V130.985C77.5764 131.381 76.5057 131.579 75.4352 131.579L75.3218 131.852C76.1216 132.141 76.5215 132.612 76.5215 133.265C76.5215 133.748 76.3357 134.135 75.9641 134.424C75.5926 134.719 75.0762 134.866 74.4149 134.866C73.7852 134.866 73.3065 134.807 72.9791 134.687V133.708C73.9615 133.739 74.4527 133.538 74.4527 133.105C74.4527 132.747 74.1882 132.568 73.6592 132.568L74.2921 131.447C73.0767 131.221 72.1352 130.712 71.4676 129.921C70.8001 129.123 70.4663 128.146 70.4663 126.991C70.4663 125.64 70.9386 124.529 71.8833 123.656C72.8342 122.776 74.0434 122.337 75.5107 122.337C76.4554 122.337 77.4567 122.532 78.5147 122.921V125.003C77.7401 124.607 76.9781 124.409 76.2286 124.409C75.3911 124.409 74.7204 124.642 74.2166 125.107C73.7127 125.571 73.4608 126.193 73.4608 126.972C73.4608 127.757 73.7064 128.391 74.1977 128.875C74.6889 129.352 75.3344 129.591 76.1342 129.591C76.7262 129.591 77.5638 129.387 78.6469 128.978Z" fill="white"/>
<path fill-rule="evenodd" clip-rule="evenodd" d="M89.5364 130.768V129.214C89.0641 129.547 88.7115 129.713 88.4784 129.713C88.1699 129.713 88.0156 129.506 88.0156 129.091V125.041C88.0156 123.238 86.756 122.337 84.237 122.337C82.8326 122.337 81.5447 122.698 80.3734 123.42V125.7C81.3747 124.708 82.4705 124.212 83.6607 124.212C84.7565 124.212 85.2729 124.708 85.21 125.7C82.6783 126.447 81.1606 127.06 80.6568 127.537C80.1593 128.008 79.9105 128.63 79.9105 129.402C79.9105 129.98 80.153 130.489 80.6379 130.929C81.1228 131.362 81.7116 131.579 82.4044 131.579C83.3868 131.579 84.3661 131.246 85.3422 130.58C85.5059 131.246 86.0287 131.579 86.9103 131.579C87.729 131.579 88.6044 131.308 89.5364 130.768ZM85.21 127.104V129.252C84.7061 129.698 84.1897 129.921 83.6607 129.921C83.4088 129.921 83.1947 129.829 83.0184 129.647C82.842 129.459 82.7539 129.236 82.7539 128.978C82.7539 128.576 82.9271 128.247 83.2734 127.989C83.6261 127.725 84.2716 127.43 85.21 127.104Z" fill="white"/>
<path d="M88.1667 118.465H86.8536C86.7403 119.156 86.4569 119.501 86.0035 119.501C85.7453 119.501 85.2729 119.328 84.5865 118.983C83.9063 118.638 83.3585 118.465 82.9428 118.465C82.3005 118.465 81.7746 118.713 81.3652 119.209C80.9559 119.705 80.7166 120.415 80.6473 121.338H81.9226C82.0108 120.666 82.3005 120.33 82.7917 120.33C83.0373 120.33 83.519 120.506 84.237 120.858C84.9549 121.203 85.5122 121.376 85.909 121.376C87.2819 121.376 88.0345 120.406 88.1667 118.465Z" fill="white"/>
<path fill-rule="evenodd" clip-rule="evenodd" d="M95.2115 122.337C96.6096 122.337 97.7935 122.745 98.7633 123.562C99.7395 124.378 100.228 125.515 100.228 126.972C100.228 128.435 99.7332 129.569 98.7445 130.373C97.7557 131.177 96.5781 131.579 95.2115 131.579C93.7315 131.579 92.5192 131.151 91.5746 130.297C90.6363 129.437 90.1671 128.322 90.1671 126.953C90.1671 125.559 90.6457 124.441 91.6029 123.599C92.5665 122.758 93.7693 122.337 95.2115 122.337ZM95.2115 129.921C96.5529 129.921 97.2236 128.912 97.2236 126.896C97.2236 124.968 96.5529 124.004 95.2115 124.004C94.5691 124.004 94.0653 124.259 93.7001 124.767C93.3411 125.276 93.1616 126.005 93.1616 126.953C93.1616 128.931 93.8449 129.921 95.2115 129.921Z" fill="white"/>
<path fill-rule="evenodd" clip-rule="evenodd" d="M119.248 131.409L113.391 118.248H109.575L104.257 131.409H107.742L108.725 128.809H114.629L115.715 131.409H119.248ZM111.53 121.395L113.656 126.51H109.594L111.53 121.395Z" fill="white"/>
<path fill-rule="evenodd" clip-rule="evenodd" d="M129.467 122.516V124.391H128.192C128.488 124.893 128.636 125.386 128.636 125.87C128.636 126.56 128.377 127.198 127.861 127.782C127.345 128.366 126.58 128.715 125.566 128.828C124.558 128.934 123.985 129.038 123.846 129.139C123.714 129.233 123.648 129.358 123.648 129.515C123.648 129.672 123.736 129.801 123.912 129.902C124.089 129.996 124.782 130.096 125.991 130.203C127.206 130.304 128.05 130.621 128.522 131.155C129.001 131.682 129.24 132.251 129.24 132.86C129.24 133.833 128.834 134.574 128.022 135.083C127.216 135.592 126.047 135.846 124.517 135.846C122.955 135.846 121.771 135.611 120.965 135.14C120.159 134.669 119.756 134.044 119.756 133.265C119.756 132.185 120.55 131.431 122.137 131.004C121.419 130.79 121.06 130.404 121.06 129.845C121.06 129.192 121.601 128.743 122.684 128.498C121.96 128.372 121.362 128.058 120.89 127.556C120.417 127.053 120.181 126.454 120.181 125.757C120.181 124.902 120.521 124.149 121.201 123.496C121.881 122.842 122.87 122.516 124.168 122.516H129.467ZM124.423 124.174C123.963 124.174 123.576 124.331 123.261 124.645C122.952 124.959 122.798 125.342 122.798 125.794C122.798 126.228 122.958 126.604 123.28 126.925C123.601 127.239 123.982 127.396 124.423 127.396C124.863 127.396 125.241 127.229 125.556 126.896C125.871 126.564 126.028 126.165 126.028 125.7C126.028 125.279 125.874 124.921 125.566 124.626C125.263 124.325 124.882 124.174 124.423 124.174ZM124.649 134.188C125.248 134.188 125.732 134.078 126.104 133.858C126.476 133.639 126.661 133.375 126.661 133.067C126.661 132.414 125.934 132.087 124.479 132.087C123.818 132.087 123.298 132.181 122.921 132.37C122.543 132.565 122.354 132.822 122.354 133.142C122.354 133.84 123.119 134.188 124.649 134.188Z" fill="white"/>
<path d="M133.65 125.059V122.516H130.844V131.409H133.65V127.565C133.65 127.433 133.87 126.969 134.311 126.171C134.758 125.367 135.306 124.965 135.954 124.965C136.37 124.965 136.924 125.185 137.617 125.625L138.392 123.147C137.667 122.607 137.047 122.337 136.531 122.337C135.447 122.337 134.5 123.244 133.687 125.059H133.65Z" fill="white"/>
<path fill-rule="evenodd" clip-rule="evenodd" d="M143.453 122.337C144.851 122.337 146.035 122.745 147.005 123.562C147.981 124.378 148.469 125.515 148.469 126.972C148.469 128.435 147.974 129.569 146.986 130.373C145.997 131.177 144.819 131.579 143.453 131.579C141.973 131.579 140.76 131.151 139.816 130.297C138.877 129.437 138.408 128.322 138.408 126.953C138.408 125.559 138.887 124.441 139.844 123.599C140.808 122.758 142.01 122.337 143.453 122.337ZM143.453 129.921C144.794 129.921 145.465 128.912 145.465 126.896C145.465 124.968 144.794 124.004 143.453 124.004C142.81 124.004 142.306 124.259 141.941 124.767C141.582 125.276 141.403 126.005 141.403 126.953C141.403 128.931 142.086 129.921 143.453 129.921Z" fill="white"/>
<path fill-rule="evenodd" clip-rule="evenodd" d="M158.961 130.41V128.649C157.809 129.497 156.707 129.921 155.655 129.921C154.786 129.921 154.093 129.704 153.577 129.27C153.061 128.837 152.774 128.218 152.717 127.415H159.122C159.179 125.87 158.766 124.639 157.885 123.722C157.009 122.798 155.885 122.337 154.512 122.337C153.146 122.337 152.021 122.773 151.14 123.646C150.258 124.519 149.817 125.634 149.817 126.991C149.817 128.372 150.286 129.484 151.225 130.326C152.163 131.161 153.416 131.579 154.985 131.579C156.565 131.579 157.891 131.189 158.961 130.41ZM156.647 125.945H152.774C152.913 124.651 153.558 124.004 154.711 124.004C155.85 124.004 156.496 124.651 156.647 125.945Z" fill="white"/>
<path d="M169.842 122.516L166.318 126.859L170.106 131.409H166.856L164.75 128.649L162.719 131.409H159.564L163.201 126.859L159.564 122.516H162.832L164.75 125.078L166.573 122.516H169.842Z" fill="white"/>
<path d="M177.633 124.428V122.516H174.383V119.718H174.033L170.302 123.882V124.428H171.577V128.244C171.577 129.336 171.88 130.165 172.484 130.731C173.089 131.296 173.939 131.579 175.035 131.579C175.872 131.579 176.738 131.393 177.633 131.023V128.997C176.959 129.343 176.332 129.515 175.753 129.515C175.324 129.515 174.988 129.39 174.742 129.139C174.503 128.881 174.383 128.533 174.383 128.093V124.428H177.633Z" fill="white"/>
<path d="M181.872 122.516V125.059H181.91C182.722 123.244 183.67 122.337 184.753 122.337C185.269 122.337 185.89 122.607 186.614 123.147L185.839 125.625C185.147 125.185 184.592 124.965 184.177 124.965C183.528 124.965 182.98 125.367 182.533 126.171C182.092 126.969 181.872 127.433 181.872 127.565V131.409H179.066V122.516H181.872Z" fill="white"/>
<path fill-rule="evenodd" clip-rule="evenodd" d="M196.672 130.768V129.214C196.2 129.547 195.847 129.713 195.614 129.713C195.305 129.713 195.151 129.506 195.151 129.091V125.041C195.151 123.238 193.892 122.337 191.373 122.337C189.968 122.337 188.68 122.698 187.509 123.42V125.7C188.51 124.708 189.606 124.212 190.796 124.212C191.892 124.212 192.409 124.708 192.346 125.7C189.814 126.447 188.296 127.06 187.792 127.537C187.295 128.008 187.046 128.63 187.046 129.402C187.046 129.98 187.289 130.489 187.774 130.929C188.258 131.362 188.847 131.579 189.54 131.579C190.522 131.579 191.502 131.246 192.478 130.58C192.642 131.246 193.164 131.579 194.046 131.579C194.865 131.579 195.74 131.308 196.672 130.768ZM192.346 127.104V129.252C191.842 129.698 191.325 129.921 190.796 129.921C190.544 129.921 190.33 129.829 190.154 129.647C189.978 129.459 189.89 129.236 189.89 128.978C189.89 128.576 190.063 128.247 190.409 127.989C190.762 127.725 191.407 127.43 192.346 127.104Z" fill="white"/>
<path d="M204.151 122.516V124.428H200.902V128.093C200.902 128.533 201.022 128.881 201.261 129.139C201.506 129.39 201.843 129.515 202.272 129.515C202.851 129.515 203.478 129.343 204.151 128.997V131.023C203.257 131.393 202.391 131.579 201.554 131.579C200.458 131.579 199.608 131.296 199.003 130.731C198.399 130.165 198.096 129.336 198.096 128.244V124.428H196.821V123.882L200.552 119.718H200.902V122.516H204.151Z" fill="white"/>
<path d="M205.868 118.531C205.566 118.832 205.415 119.197 205.415 119.624C205.415 120.044 205.566 120.409 205.868 120.716C206.171 121.018 206.533 121.169 206.955 121.169C207.383 121.169 207.748 121.018 208.051 120.716C208.353 120.409 208.504 120.044 208.504 119.624C208.504 119.197 208.353 118.832 208.051 118.531C207.748 118.229 207.383 118.079 206.955 118.079C206.533 118.079 206.171 118.229 205.868 118.531Z" fill="white"/>
<path d="M208.372 131.409V122.516H205.566V131.409H208.372Z" fill="white"/>
<path d="M213.659 131.579L209.541 122.516H212.545L214.434 127.415L216.352 122.516H219.327L215.228 131.579H213.659Z" fill="white"/>
<path d="M220.789 118.531C220.487 118.832 220.336 119.197 220.336 119.624C220.336 120.044 220.487 120.409 220.789 120.716C221.092 121.018 221.454 121.169 221.876 121.169C222.304 121.169 222.669 121.018 222.971 120.716C223.274 120.409 223.425 120.044 223.425 119.624C223.425 119.197 223.274 118.832 222.971 118.531C222.669 118.229 222.304 118.079 221.876 118.079C221.454 118.079 221.092 118.229 220.789 118.531Z" fill="white"/>
<path d="M223.293 131.409V122.516H220.487V131.409H223.293Z" fill="white"/>
<path d="M231.717 122.996V124.984C230.646 124.331 229.654 124.004 228.741 124.004C228.067 124.004 227.73 124.234 227.73 124.692C227.73 124.811 227.799 124.931 227.938 125.05C228.083 125.163 228.628 125.408 229.572 125.785C230.517 126.155 231.184 126.586 231.575 127.075C231.965 127.565 232.161 128.102 232.161 128.686C232.161 129.61 231.846 130.322 231.216 130.825C230.586 131.327 229.689 131.579 228.524 131.579C227.327 131.579 226.263 131.362 225.331 130.929V128.96C226.477 129.462 227.437 129.713 228.212 129.713C229.119 129.713 229.572 129.493 229.572 129.054C229.572 128.884 229.487 128.724 229.317 128.573C229.153 128.423 228.593 128.162 227.636 127.791C226.678 127.421 226.023 127.013 225.671 126.567C225.318 126.121 225.142 125.625 225.142 125.078C225.142 124.268 225.479 123.609 226.153 123.1C226.833 122.591 227.727 122.337 228.835 122.337C229.9 122.337 230.86 122.557 231.717 122.996Z" fill="white"/>
<path d="M240.15 124.428V122.516H236.9V119.718H236.551L232.82 123.882V124.428H234.095V128.244C234.095 129.336 234.397 130.165 235.002 130.731C235.606 131.296 236.456 131.579 237.552 131.579C238.39 131.579 239.256 131.393 240.15 131.023V128.997C239.476 129.343 238.85 129.515 238.27 129.515C237.842 129.515 237.505 129.39 237.259 129.139C237.02 128.881 236.9 128.533 236.9 128.093V124.428H240.15Z" fill="white"/>
<path fill-rule="evenodd" clip-rule="evenodd" d="M250.614 129.214V130.768C249.682 131.308 248.807 131.579 247.988 131.579C247.107 131.579 246.584 131.246 246.42 130.58C245.444 131.246 244.465 131.579 243.482 131.579C242.79 131.579 242.201 131.362 241.716 130.929C241.231 130.489 240.988 129.98 240.988 129.402C240.988 128.63 241.237 128.008 241.735 127.537C242.239 127.06 243.756 126.447 246.288 125.7C246.351 124.708 245.834 124.212 244.739 124.212C243.548 124.212 242.453 124.708 241.451 125.7V123.42C242.623 122.698 243.911 122.337 245.315 122.337C247.834 122.337 249.093 123.238 249.093 125.041V129.091C249.093 129.506 249.248 129.713 249.556 129.713C249.789 129.713 250.142 129.547 250.614 129.214ZM246.288 129.252V127.104C245.35 127.43 244.704 127.725 244.351 127.989C244.005 128.247 243.832 128.576 243.832 128.978C243.832 129.236 243.92 129.459 244.096 129.647C244.273 129.829 244.487 129.921 244.739 129.921C245.268 129.921 245.784 129.698 246.288 129.252Z" fill="white"/>
<path fill-rule="evenodd" clip-rule="evenodd" d="M7.12049 149.872V139.962H5.00782V143.466C4.43401 143.183 3.85071 143.041 3.25793 143.041C2.30473 143.041 1.52226 143.365 0.910513 144.013C0.303504 144.661 0 145.495 0 146.517C0 147.515 0.298762 148.345 0.896286 149.007C1.49855 149.669 2.24783 150 3.14411 150C3.84597 150 4.4672 149.778 5.00782 149.333V149.872H7.12049ZM5.00782 144.843V148.042C4.60473 148.411 4.18741 148.595 3.75586 148.595C3.26741 148.595 2.87618 148.411 2.58216 148.042C2.28814 147.668 2.14113 147.174 2.14113 146.559C2.14113 145.893 2.28814 145.375 2.58216 145.006C2.88092 144.637 3.29587 144.452 3.827 144.452C4.23009 144.452 4.6237 144.583 5.00782 144.843Z" fill="white"/>
<path fill-rule="evenodd" clip-rule="evenodd" d="M15.6406 148.219V149.39C14.9388 149.797 14.2796 150 13.6631 150C12.9992 150 12.6056 149.749 12.4823 149.248C11.7472 149.749 11.0098 150 10.27 150C9.74836 150 9.30496 149.837 8.93981 149.511C8.57466 149.179 8.39208 148.796 8.39208 148.361C8.39208 147.78 8.5794 147.311 8.95404 146.957C9.33342 146.597 10.4763 146.136 12.3827 145.573C12.4301 144.826 12.0412 144.452 11.2161 144.452C10.3198 144.452 9.49465 144.826 8.74064 145.573V143.857C9.6227 143.313 10.5925 143.041 11.65 143.041C13.5469 143.041 14.4954 143.719 14.4954 145.077V148.127C14.4954 148.439 14.6115 148.595 14.8439 148.595C15.0194 148.595 15.2849 148.47 15.6406 148.219ZM12.3827 148.248V146.63C11.6761 146.876 11.19 147.099 10.9244 147.297C10.6636 147.491 10.5332 147.739 10.5332 148.042C10.5332 148.236 10.5996 148.404 10.7324 148.546C10.8652 148.683 11.0264 148.751 11.2161 148.751C11.6144 148.751 12.0033 148.584 12.3827 148.248Z" fill="white"/>
<path d="M21.0664 145.034V143.537C20.4215 143.206 19.6983 143.041 18.8968 143.041C18.0622 143.041 17.3888 143.232 16.8766 143.615C16.3692 143.998 16.1155 144.495 16.1155 145.105C16.1155 145.517 16.2483 145.89 16.5139 146.226C16.7794 146.562 17.2726 146.869 17.9934 147.148C18.7143 147.427 19.1363 147.624 19.2596 147.737C19.3877 147.851 19.4517 147.971 19.4517 148.099C19.4517 148.43 19.1102 148.595 18.4274 148.595C17.8441 148.595 17.1209 148.406 16.2578 148.028V149.511C16.9596 149.837 17.7611 150 18.6621 150C19.5394 150 20.2152 149.811 20.6894 149.432C21.1636 149.054 21.4007 148.517 21.4007 147.822C21.4007 147.382 21.2537 146.978 20.9597 146.609C20.6657 146.24 20.163 145.916 19.4517 145.637C18.7403 145.353 18.3301 145.169 18.2211 145.084C18.1167 144.994 18.0646 144.904 18.0646 144.814C18.0646 144.469 18.3183 144.296 18.8257 144.296C19.5133 144.296 20.2602 144.542 21.0664 145.034Z" fill="white"/>
<path d="M36.0722 146.85V149.014C34.8298 149.671 33.528 150 32.167 150C30.4029 150 28.9968 149.515 27.9488 148.546C26.9055 147.571 26.3838 146.373 26.3838 144.949C26.3838 143.526 26.9339 142.317 28.0341 141.324C29.1391 140.331 30.5807 139.834 32.359 139.834C33.777 139.834 34.9768 140.125 35.9584 140.707V142.913C34.7539 142.237 33.6134 141.899 32.5369 141.899C31.4794 141.899 30.6139 142.182 29.9405 142.75C29.2718 143.313 28.9375 144.032 28.9375 144.907C28.9375 145.786 29.2671 146.512 29.9263 147.084C30.5902 147.657 31.4391 147.943 32.4729 147.943C32.985 147.943 33.4782 147.877 33.9524 147.744C34.4267 147.607 35.1333 147.309 36.0722 146.85Z" fill="white"/>
<path fill-rule="evenodd" clip-rule="evenodd" d="M43.881 143.963C43.1507 143.348 42.2592 143.041 41.2064 143.041C40.1204 143.041 39.2146 143.358 38.4891 143.991C37.7683 144.625 37.4078 145.467 37.4078 146.517C37.4078 147.548 37.7611 148.387 38.4677 149.035C39.1791 149.678 40.092 150 41.2064 150C42.2355 150 43.1223 149.697 43.8668 149.092C44.6113 148.487 44.9836 147.633 44.9836 146.531C44.9836 145.434 44.6161 144.578 43.881 143.963ZM42.7215 146.474C42.7215 147.992 42.2165 148.751 41.2064 148.751C40.1773 148.751 39.6628 148.007 39.6628 146.517C39.6628 145.803 39.7979 145.254 40.0682 144.871C40.3433 144.488 40.7227 144.296 41.2064 144.296C42.2165 144.296 42.7215 145.022 42.7215 146.474Z" fill="white"/>
<path d="M48.4888 143.176V144.034C49.2049 143.372 49.9826 143.041 50.822 143.041C51.9743 143.041 52.7805 143.516 53.2405 144.467C54.0514 143.516 54.9335 143.041 55.8867 143.041C56.6597 143.041 57.2904 143.275 57.7789 143.743C58.2673 144.211 58.5115 144.821 58.5115 145.573V149.872H56.3989V145.949C56.3989 145.476 56.2898 145.11 56.0716 144.85C55.8535 144.585 55.55 144.452 55.1611 144.452C54.5446 144.452 53.9898 144.831 53.4966 145.588V149.872H51.391V145.907C51.391 145.439 51.2725 145.079 51.0354 144.828C50.803 144.578 50.4924 144.452 50.1035 144.452C49.5487 144.452 49.0104 144.762 48.4888 145.382V149.872H46.3761V143.176H48.4888Z" fill="white"/>
<path d="M64.7056 148.915V149.872H66.8183V143.176H64.6914V147.446C64.6914 147.593 64.5491 147.822 64.2645 148.134C63.9848 148.442 63.6457 148.595 63.2473 148.595C62.5407 148.595 62.1874 148.17 62.1874 147.318V143.176H60.0748V147.46C60.0748 148.255 60.3024 148.877 60.7577 149.326C61.2129 149.775 61.8057 150 62.536 150C63.3612 150 64.0843 149.638 64.7056 148.915Z" fill="white"/>
<path d="M70.608 143.176V144.133C71.2292 143.405 71.9571 143.041 72.7918 143.041C73.4889 143.041 74.0698 143.263 74.5346 143.708C75.004 144.152 75.2388 144.788 75.2388 145.616V149.872H73.1261V145.793C73.1261 144.899 72.7776 144.452 72.0804 144.452C71.5825 144.452 71.0917 144.821 70.608 145.559V149.872H68.4953V143.176H70.608Z" fill="white"/>
<path d="M77.1861 140.175C76.9585 140.402 76.8447 140.676 76.8447 140.998C76.8447 141.315 76.9585 141.589 77.1861 141.821C77.4138 142.048 77.6864 142.161 78.0042 142.161C78.3266 142.161 78.6017 142.048 78.8293 141.821C79.057 141.589 79.1708 141.315 79.1708 140.998C79.1708 140.676 79.057 140.402 78.8293 140.175C78.6017 139.948 78.3266 139.834 78.0042 139.834C77.6864 139.834 77.4138 139.948 77.1861 140.175Z" fill="white"/>
<path d="M79.0712 149.872V143.176H76.9585V149.872H79.0712Z" fill="white"/>
<path fill-rule="evenodd" clip-rule="evenodd" d="M87.5557 139.962V149.872H85.4431V149.333C84.9025 149.778 84.2812 150 83.5794 150C82.6831 150 81.9338 149.669 81.3315 149.007C80.734 148.345 80.4353 147.515 80.4353 146.517C80.4353 145.495 80.7388 144.661 81.3458 144.013C81.9575 143.365 82.74 143.041 83.6932 143.041C84.286 143.041 84.8693 143.183 85.4431 143.466V139.962H87.5557ZM85.4431 148.042V144.843C85.0589 144.583 84.6653 144.452 84.2622 144.452C83.7311 144.452 83.3162 144.637 83.0174 145.006C82.7234 145.375 82.5764 145.893 82.5764 146.559C82.5764 147.174 82.7234 147.668 83.0174 148.042C83.3114 148.411 83.7027 148.595 84.1911 148.595C84.6227 148.595 85.04 148.411 85.4431 148.042Z" fill="white"/>
<path fill-rule="evenodd" clip-rule="evenodd" d="M96.0759 149.39V148.219C95.7202 148.47 95.4546 148.595 95.2792 148.595C95.0468 148.595 94.9306 148.439 94.9306 148.127V145.077C94.9306 143.719 93.9822 143.041 92.0853 143.041C91.0277 143.041 90.0579 143.313 89.1759 143.857V145.573C89.9299 144.826 90.755 144.452 91.6513 144.452C92.4765 144.452 92.8654 144.826 92.8179 145.573C90.9115 146.136 89.7687 146.597 89.3893 146.957C89.0146 147.311 88.8273 147.78 88.8273 148.361C88.8273 148.796 89.0099 149.179 89.3751 149.511C89.7402 149.837 90.1836 150 90.7053 150C91.445 150 92.1825 149.749 92.9175 149.248C93.0408 149.749 93.4344 150 94.0983 150C94.7148 150 95.374 149.797 96.0759 149.39ZM92.8179 146.63V148.248C92.4385 148.584 92.0497 148.751 91.6513 148.751C91.4616 148.751 91.3004 148.683 91.1676 148.546C91.0348 148.404 90.9685 148.236 90.9685 148.042C90.9685 147.739 91.0989 147.491 91.3597 147.297C91.6253 147.099 92.1113 146.876 92.8179 146.63Z" fill="white"/>
<path fill-rule="evenodd" clip-rule="evenodd" d="M103.643 139.962V149.872H101.53V149.333C100.989 149.778 100.368 150 99.6664 150C98.7701 150 98.0209 149.669 97.4186 149.007C96.8211 148.345 96.5223 147.515 96.5223 146.517C96.5223 145.495 96.8258 144.661 97.4328 144.013C98.0446 143.365 98.827 143.041 99.7802 143.041C100.373 143.041 100.956 143.183 101.53 143.466V139.962H103.643ZM101.53 148.042V144.843C101.146 144.583 100.752 144.452 100.349 144.452C99.8182 144.452 99.4032 144.637 99.1045 145.006C98.8104 145.375 98.6634 145.893 98.6634 146.559C98.6634 147.174 98.8104 147.668 99.1045 148.042C99.3985 148.411 99.7897 148.595 100.278 148.595C100.71 148.595 101.127 148.411 101.53 148.042Z" fill="white"/>
<path fill-rule="evenodd" clip-rule="evenodd" d="M111.857 149.12V147.794C110.989 148.432 110.159 148.751 109.367 148.751C108.713 148.751 108.191 148.588 107.802 148.262C107.414 147.936 107.198 147.47 107.155 146.864H111.978C112.021 145.701 111.71 144.774 111.046 144.084C110.387 143.388 109.54 143.041 108.507 143.041C107.478 143.041 106.631 143.369 105.967 144.027C105.303 144.684 104.971 145.524 104.971 146.545C104.971 147.586 105.325 148.423 106.031 149.057C106.738 149.685 107.681 150 108.862 150C110.053 150 111.051 149.707 111.857 149.12ZM108.656 144.296C109.514 144.296 110 144.784 110.114 145.758H107.198C107.302 144.784 107.788 144.296 108.656 144.296Z" fill="white"/>
<path d="M117.887 143.537V145.034C117.081 144.542 116.334 144.296 115.647 144.296C115.139 144.296 114.886 144.469 114.886 144.814C114.886 144.904 114.938 144.994 115.042 145.084C115.151 145.169 115.561 145.353 116.273 145.637C116.984 145.916 117.487 146.24 117.781 146.609C118.075 146.978 118.222 147.382 118.222 147.822C118.222 148.517 117.985 149.054 117.51 149.432C117.036 149.811 116.36 150 115.483 150C114.582 150 113.781 149.837 113.079 149.511V148.028C113.942 148.406 114.665 148.595 115.248 148.595C115.931 148.595 116.273 148.43 116.273 148.099C116.273 147.971 116.209 147.851 116.081 147.737C115.957 147.624 115.535 147.427 114.814 147.148C114.094 146.869 113.6 146.562 113.335 146.226C113.069 145.89 112.937 145.517 112.937 145.105C112.937 144.495 113.19 143.998 113.698 143.615C114.21 143.232 114.883 143.041 115.718 143.041C116.519 143.041 117.243 143.206 117.887 143.537Z" fill="white"/>
<path fill-rule="evenodd" clip-rule="evenodd" d="M130.155 149.872V139.962H128.042V143.466C127.468 143.183 126.885 143.041 126.292 143.041C125.339 143.041 124.556 143.365 123.945 144.013C123.338 144.661 123.034 145.495 123.034 146.517C123.034 147.515 123.333 148.345 123.93 149.007C124.533 149.669 125.282 150 126.178 150C126.88 150 127.501 149.778 128.042 149.333V149.872H130.155ZM128.042 144.843V148.042C127.639 148.411 127.222 148.595 126.79 148.595C126.302 148.595 125.91 148.411 125.616 148.042C125.322 147.668 125.175 147.174 125.175 146.559C125.175 145.893 125.322 145.375 125.616 145.006C125.915 144.637 126.33 144.452 126.861 144.452C127.264 144.452 127.658 144.583 128.042 144.843Z" fill="white"/>
<path fill-rule="evenodd" clip-rule="evenodd" d="M138.675 148.219V149.39C137.973 149.797 137.314 150 136.697 150C136.033 150 135.64 149.749 135.516 149.248C134.781 149.749 134.044 150 133.304 150C132.783 150 132.339 149.837 131.974 149.511C131.609 149.179 131.426 148.796 131.426 148.361C131.426 147.78 131.614 147.311 131.988 146.957C132.368 146.597 133.51 146.136 135.417 145.573C135.464 144.826 135.075 144.452 134.25 144.452C133.354 144.452 132.529 144.826 131.775 145.573V143.857C132.657 143.313 133.627 143.041 134.684 143.041C136.581 143.041 137.53 143.719 137.53 145.077V148.127C137.53 148.439 137.646 148.595 137.878 148.595C138.054 148.595 138.319 148.47 138.675 148.219ZM135.417 148.248V146.63C134.71 146.876 134.224 147.099 133.959 147.297C133.698 147.491 133.567 147.739 133.567 148.042C133.567 148.236 133.634 148.404 133.767 148.546C133.899 148.683 134.061 148.751 134.25 148.751C134.649 148.751 135.037 148.584 135.417 148.248Z" fill="white"/>
<path fill-rule="evenodd" clip-rule="evenodd" d="M148.139 139.962H143.701V149.872H146.176V145.85H146.887C147.215 145.85 147.52 145.98 147.805 146.24C148.094 146.5 148.438 147.089 148.836 148.007C149.239 148.924 149.522 149.546 149.683 149.872H152.407C151.99 148.993 151.556 148.056 151.106 147.063C150.66 146.07 150.186 145.462 149.683 145.24C150.821 144.715 151.39 143.906 151.39 142.814C151.39 142.024 151.089 141.352 150.487 140.799C149.884 140.241 149.102 139.962 148.139 139.962ZM146.176 144.034V141.778H147.428C148.372 141.778 148.843 142.152 148.843 142.899C148.843 143.263 148.72 143.544 148.474 143.743C148.232 143.937 147.902 144.034 147.485 144.034H146.176Z" fill="white"/>
<path fill-rule="evenodd" clip-rule="evenodd" d="M153.473 139.962H157.854C159.547 139.962 160.885 140.425 161.866 141.352C162.853 142.275 163.346 143.469 163.346 144.935C163.346 146.472 162.846 147.68 161.845 148.56C160.849 149.435 159.426 149.872 157.577 149.872H153.473V139.962ZM155.948 141.778V148.056H157.563C158.611 148.056 159.412 147.77 159.967 147.198C160.522 146.621 160.799 145.862 160.799 144.921C160.799 143.946 160.517 143.18 159.953 142.622C159.393 142.059 158.587 141.778 157.534 141.778H155.948Z" fill="white"/>
<path d="M171.838 142.537V140.6C170.657 140.09 169.535 139.834 168.473 139.834C167.321 139.834 166.401 140.097 165.713 140.622C165.025 141.142 164.682 141.828 164.682 142.679C164.682 143.336 164.838 143.876 165.151 144.296C165.469 144.717 165.843 145.041 166.275 145.268C166.711 145.495 167.299 145.741 168.039 146.006C168.784 146.271 169.253 146.496 169.448 146.68C169.642 146.864 169.739 147.061 169.739 147.269C169.739 147.879 169.253 148.184 168.281 148.184C167.707 148.184 167.164 148.082 166.652 147.879C166.14 147.676 165.552 147.352 164.888 146.907V149.042C166.045 149.681 167.24 150 168.473 150C169.616 150 170.536 149.728 171.233 149.184C171.935 148.64 172.286 147.91 172.286 146.992C172.286 146.349 172.125 145.817 171.802 145.396C171.484 144.975 171.105 144.649 170.664 144.417C170.223 144.185 169.635 143.935 168.9 143.665C168.165 143.395 167.702 143.176 167.513 143.005C167.323 142.835 167.228 142.655 167.228 142.466C167.228 142.22 167.359 142.024 167.619 141.877C167.885 141.726 168.241 141.65 168.686 141.65C169.469 141.65 170.519 141.946 171.838 142.537Z" fill="white"/>
<path fill-rule="evenodd" clip-rule="evenodd" d="M184.332 139.962V149.872H182.22V149.333C181.679 149.778 181.058 150 180.356 150C179.46 150 178.71 149.669 178.108 149.007C177.511 148.345 177.212 147.515 177.212 146.517C177.212 145.495 177.515 144.661 178.122 144.013C178.734 143.365 179.517 143.041 180.47 143.041C181.063 143.041 181.646 143.183 182.22 143.466V139.962H184.332ZM182.22 148.042V144.843C181.836 144.583 181.442 144.452 181.039 144.452C180.508 144.452 180.093 144.637 179.794 145.006C179.5 145.375 179.353 145.893 179.353 146.559C179.353 147.174 179.5 147.668 179.794 148.042C180.088 148.411 180.479 148.595 180.968 148.595C181.399 148.595 181.817 148.411 182.22 148.042Z" fill="white"/>
<path fill-rule="evenodd" clip-rule="evenodd" d="M192.134 143.963C191.404 143.348 190.512 143.041 189.459 143.041C188.373 143.041 187.468 143.358 186.742 143.991C186.021 144.625 185.661 145.467 185.661 146.517C185.661 147.548 186.014 148.387 186.721 149.035C187.432 149.678 188.345 150 189.459 150C190.489 150 191.375 149.697 192.12 149.092C192.864 148.487 193.237 147.633 193.237 146.531C193.237 145.434 192.869 144.578 192.134 143.963ZM190.975 146.474C190.975 147.992 190.47 148.751 189.459 148.751C188.43 148.751 187.916 148.007 187.916 146.517C187.916 145.803 188.051 145.254 188.321 144.871C188.596 144.488 188.976 144.296 189.459 144.296C190.47 144.296 190.975 145.022 190.975 146.474Z" fill="white"/>
<path d="M206.172 139.962H208.648V145.588C208.648 147.035 208.219 148.132 207.36 148.879C206.502 149.626 205.276 150 203.683 150C202.108 150 200.885 149.622 200.012 148.865C199.144 148.108 198.711 147.021 198.711 145.602V139.962H201.193V145.658C201.193 146.349 201.418 146.902 201.869 147.318C202.324 147.735 202.919 147.943 203.654 147.943C204.418 147.943 205.027 147.73 205.482 147.304C205.942 146.879 206.172 146.273 206.172 145.488V139.962Z" fill="white"/>
<path fill-rule="evenodd" clip-rule="evenodd" d="M217.346 149.39V148.219C216.99 148.47 216.725 148.595 216.549 148.595C216.317 148.595 216.201 148.439 216.201 148.127V145.077C216.201 143.719 215.252 143.041 213.355 143.041C212.298 143.041 211.328 143.313 210.446 143.857V145.573C211.2 144.826 212.025 144.452 212.921 144.452C213.747 144.452 214.135 144.826 214.088 145.573C212.182 146.136 211.039 146.597 210.659 146.957C210.285 147.311 210.097 147.78 210.097 148.361C210.097 148.796 210.28 149.179 210.645 149.511C211.01 149.837 211.454 150 211.975 150C212.715 150 213.453 149.749 214.188 149.248C214.311 149.749 214.704 150 215.368 150C215.985 150 216.644 149.797 217.346 149.39ZM214.088 146.63V148.248C213.709 148.584 213.32 148.751 212.921 148.751C212.732 148.751 212.57 148.683 212.438 148.546C212.305 148.404 212.238 148.236 212.238 148.042C212.238 147.739 212.369 147.491 212.63 147.297C212.895 147.099 213.381 146.876 214.088 146.63Z" fill="white"/>
<path d="M222.978 143.176V144.616H220.531V147.375C220.531 147.706 220.621 147.969 220.801 148.163C220.986 148.352 221.24 148.446 221.562 148.446C221.999 148.446 222.471 148.316 222.978 148.056V149.581C222.305 149.86 221.653 150 221.022 150C220.197 150 219.556 149.787 219.101 149.362C218.646 148.936 218.418 148.312 218.418 147.489V144.616H217.458V144.204L220.268 141.069H220.531V143.176H222.978Z" fill="white"/>
<path d="M228.631 148.915V149.872H230.744V143.176H228.617V147.446C228.617 147.593 228.475 147.822 228.19 148.134C227.911 148.442 227.572 148.595 227.173 148.595C226.467 148.595 226.113 148.17 226.113 147.318V143.176H224.001V147.46C224.001 148.255 224.228 148.877 224.684 149.326C225.139 149.775 225.732 150 226.462 150C227.287 150 228.01 149.638 228.631 148.915Z" fill="white"/>
<path d="M234.576 143.176V144.034C235.293 143.372 236.07 143.041 236.91 143.041C238.062 143.041 238.868 143.516 239.328 144.467C240.139 143.516 241.021 143.041 241.974 143.041C242.747 143.041 243.378 143.275 243.867 143.743C244.355 144.211 244.599 144.821 244.599 145.573V149.872H242.487V145.949C242.487 145.476 242.377 145.11 242.159 144.85C241.941 144.585 241.638 144.452 241.249 144.452C240.632 144.452 240.078 144.831 239.584 145.588V149.872H237.479V145.907C237.479 145.439 237.36 145.079 237.123 144.828C236.891 144.578 236.58 144.452 236.191 144.452C235.636 144.452 235.098 144.762 234.576 145.382V149.872H232.464V143.176H234.576Z" fill="white"/>
<path fill-rule="evenodd" clip-rule="evenodd" d="M253.162 149.39V148.219C252.806 148.47 252.541 148.595 252.365 148.595C252.133 148.595 252.017 148.439 252.017 148.127V145.077C252.017 143.719 251.068 143.041 249.171 143.041C248.114 143.041 247.144 143.313 246.262 143.857V145.573C247.016 144.826 247.841 144.452 248.738 144.452C249.563 144.452 249.952 144.826 249.904 145.573C247.998 146.136 246.855 146.597 246.475 146.957C246.101 147.311 245.914 147.78 245.914 148.361C245.914 148.796 246.096 149.179 246.461 149.511C246.826 149.837 247.27 150 247.791 150C248.531 150 249.269 149.749 250.004 149.248C250.127 149.749 250.521 150 251.185 150C251.801 150 252.46 149.797 253.162 149.39ZM249.904 146.63V148.248C249.525 148.584 249.136 148.751 248.738 148.751C248.548 148.751 248.387 148.683 248.254 148.546C248.121 148.404 248.055 148.236 248.055 148.042C248.055 147.739 248.185 147.491 248.446 147.297C248.711 147.099 249.198 146.876 249.904 146.63Z" fill="white"/>
<path d="M252.131 140.125H251.142C251.056 140.645 250.843 140.905 250.502 140.905C250.307 140.905 249.952 140.775 249.435 140.515C248.922 140.255 248.51 140.125 248.197 140.125C247.713 140.125 247.317 140.312 247.009 140.686C246.701 141.059 246.521 141.594 246.468 142.289H247.429C247.495 141.783 247.713 141.53 248.083 141.53C248.268 141.53 248.631 141.662 249.171 141.927C249.712 142.187 250.132 142.317 250.431 142.317C251.464 142.317 252.031 141.587 252.131 140.125Z" fill="white"/>
<path fill-rule="evenodd" clip-rule="evenodd" d="M129.283 5.06401C128.277 4.78712 127.208 4.64483 126.086 4.64483H113.557V31.9186H116.16V19.8123H126.04C127.266 19.7623 128.23 19.9662 128.932 20.4238C129.634 20.8814 130.17 21.4891 130.54 22.239C130.91 22.9889 131.153 23.8426 131.269 24.7964C131.381 25.7501 131.466 26.7115 131.516 27.6807C131.542 27.9498 131.564 28.2648 131.59 28.6258L131.593 28.6729C131.62 29.0574 131.651 29.442 131.689 29.8381C131.728 30.2342 131.793 30.6149 131.882 30.9841C131.975 31.3533 132.094 31.6648 132.248 31.9186H135.121C134.84 31.5918 134.616 31.1264 134.45 30.5265C134.285 29.9266 134.165 29.2882 134.088 28.6152C134.011 27.9422 133.957 27.273 133.934 26.6116C133.907 25.9501 133.883 25.3886 133.856 24.931C133.806 24.1157 133.698 23.3581 133.533 22.6582C133.363 21.9582 133.097 21.3391 132.727 20.8045C132.356 20.27 131.878 19.8316 131.292 19.4854C130.706 19.1393 129.966 18.9047 129.071 18.7778V18.7009C130.833 18.3433 132.16 17.528 133.054 16.255C133.949 14.9821 134.396 13.4784 134.396 11.7479C134.396 10.5288 134.173 9.46351 133.725 8.55976C133.278 7.65602 132.676 6.91764 131.925 6.34463C131.173 5.77162 130.289 5.34475 129.283 5.06401ZM128.153 17.2319C127.44 17.4741 126.684 17.5933 125.893 17.5933L125.897 17.5972H116.172V6.8638H125.897C127.887 6.8638 129.368 7.34452 130.34 8.31364C131.308 9.28276 131.793 10.6057 131.793 12.2863C131.793 13.1285 131.635 13.8707 131.315 14.5206C130.995 15.1705 130.567 15.7243 130.031 16.182C129.495 16.6396 128.867 16.9896 128.153 17.2319Z" fill="white"/>
<path fill-rule="evenodd" clip-rule="evenodd" d="M148.564 4.64483C152.725 4.74866 155.86 5.91391 157.966 8.14058C160.071 10.3673 161.124 13.7476 161.124 18.2817C161.124 22.8158 160.071 26.1924 157.966 28.4229C155.86 30.6496 152.725 31.8148 148.564 31.9186H139.105V4.64483H148.564ZM147.261 29.6997C149.227 29.6997 150.916 29.4881 152.335 29.069C153.751 28.6498 154.919 27.9806 155.841 27.0653C156.759 26.1501 157.437 24.9656 157.869 23.5119C158.301 22.0621 158.521 20.3161 158.521 18.2817C158.521 16.2474 158.305 14.5014 157.869 13.0477C157.433 11.5979 156.759 10.4134 155.841 9.49427C154.923 8.57899 153.755 7.90984 152.335 7.49066C150.92 7.07147 149.227 6.85996 147.261 6.85996H141.708V29.6997H147.261Z" fill="white"/>
<path fill-rule="evenodd" clip-rule="evenodd" d="M93.4551 77.917C92.6954 78.4939 92.0938 79.24 91.6542 80.1475L91.6465 80.1514C91.2069 81.059 90.9408 82.1358 90.8598 83.3741H93.4705C93.5283 81.6397 94.0798 80.3783 95.1287 79.5938C96.1775 78.8092 97.5311 78.417 99.1893 78.417C99.9605 78.417 100.685 78.4785 101.364 78.6016C102.039 78.7246 102.633 78.9515 103.146 79.2823C103.659 79.613 104.06 80.0591 104.349 80.6244C104.642 81.1897 104.785 81.9127 104.785 82.7934C104.785 83.3703 104.708 83.8394 104.557 84.1971C104.407 84.5547 104.191 84.8355 103.917 85.0431C103.639 85.2508 103.296 85.397 102.88 85.4777C102.467 85.5623 101.981 85.6315 101.43 85.6854C100.018 85.8507 98.6301 86.0238 97.265 86.2007C95.8999 86.3815 94.6698 86.693 93.5785 87.1314C92.4871 87.5736 91.6118 88.2159 90.9485 89.0542C90.2852 89.8964 89.9536 91.0578 89.9536 92.5461C89.9536 93.6191 90.1387 94.5498 90.5128 95.3343C90.883 96.1188 91.3958 96.7687 92.0437 97.2764C92.6915 97.7878 93.4512 98.157 94.3227 98.3916C95.1903 98.6262 96.1236 98.7416 97.1185 98.7416C98.1674 98.7416 99.0736 98.6454 99.8332 98.4532C100.589 98.2609 101.268 97.984 101.862 97.6263C102.455 97.2687 102.995 96.8226 103.477 96.2842C103.963 95.7458 104.438 95.1343 104.908 94.4459H104.993C104.993 94.9958 105.028 95.4996 105.097 95.9534C105.166 96.4072 105.309 96.7995 105.533 97.1302C105.753 97.461 106.065 97.7186 106.466 97.8955C106.867 98.0763 107.399 98.1647 108.062 98.1647C108.421 98.1647 108.718 98.1493 108.953 98.1224C109.185 98.0955 109.455 98.057 109.759 97.9994V95.8073C109.512 95.9188 109.235 95.9727 108.93 95.9727C107.908 95.9727 107.399 95.4496 107.399 94.4036V83.0818C107.399 81.6474 107.164 80.486 106.693 79.5899C106.223 78.6939 105.614 77.9978 104.869 77.5017C104.125 77.0056 103.281 76.671 102.344 76.4903C101.403 76.3095 100.462 76.2211 99.5247 76.2211C98.283 76.2211 97.1493 76.3595 96.1274 76.6364C95.1055 76.9133 94.2147 77.3402 93.4551 77.917ZM103.755 87.1737C104.222 87.0352 104.542 86.816 104.708 86.5122L104.704 86.5045H104.785V89.8926C104.785 90.9425 104.584 91.877 104.183 92.7038C103.782 93.5306 103.242 94.2344 102.567 94.8113C101.889 95.392 101.094 95.8304 100.184 96.1342C99.2741 96.438 98.3216 96.588 97.3267 96.588C96.7174 96.588 96.1236 96.4918 95.5451 96.2995C94.9667 96.1073 94.4538 95.8265 94.0142 95.4535C93.5746 95.0805 93.2198 94.6421 92.9576 94.1306C92.6954 93.6191 92.5643 93.0345 92.5643 92.3731C92.5643 91.327 92.8766 90.5233 93.4975 89.958C94.1183 89.3965 94.9127 88.9619 95.8806 88.6581C96.8485 88.3581 97.9206 88.1274 99.0928 87.9774C100.269 87.8274 101.407 87.6544 102.513 87.4621C102.872 87.4083 103.285 87.3121 103.755 87.1737Z" fill="white"/>
<path d="M121.112 76.8404V79.0325H116.762V93.4116C116.762 94.2654 116.878 94.9345 117.113 95.4152C117.348 95.8998 117.934 96.169 118.875 96.2228C119.619 96.2228 120.368 96.1805 121.112 96.0998V98.2918C120.726 98.2918 120.337 98.3072 119.951 98.3341C119.565 98.361 119.176 98.3764 118.79 98.3764C117.051 98.3764 115.833 98.0418 115.142 97.365C114.452 96.692 114.12 95.4421 114.147 93.627V79.0402H110.418V76.8481H114.147V70.445H116.758V76.8481H121.108L121.112 76.8404Z" fill="white"/>
<path d="M139.799 94.319V98.1609L139.807 98.1648H142.209V76.8441H139.599V88.0428C139.599 89.1158 139.471 90.1695 139.225 91.204C138.974 92.2347 138.588 93.1499 138.064 93.9499C137.539 94.7498 136.876 95.392 136.074 95.8727C135.272 96.3573 134.308 96.5957 133.174 96.5957C131.099 96.5957 129.646 96.0996 128.801 95.1074C127.961 94.1152 127.509 92.6577 127.455 90.7271V76.8441H124.845V90.6848C124.845 91.9539 124.984 93.0807 125.261 94.0729C125.535 95.0651 125.971 95.9035 126.565 96.5919C127.158 97.2841 127.934 97.811 128.886 98.184C129.838 98.557 130.991 98.7416 132.345 98.7416C133.945 98.7416 135.403 98.3609 136.714 97.6033C138.025 96.8457 139.028 95.7535 139.718 94.319H139.799Z" fill="white"/>
<path d="M149.536 76.8402V80.436H149.659C150.35 79.113 151.256 78.0824 152.374 77.3363C153.492 76.5941 154.923 76.2211 156.662 76.2211C158.07 76.2211 159.346 76.5672 160.495 77.2556C161.641 77.944 162.408 78.99 162.794 80.3937C163.43 78.99 164.367 77.944 165.613 77.2556C166.854 76.5672 168.181 76.2211 169.588 76.2211C174.312 76.2211 176.672 78.7131 176.672 83.701V98.1609H174.062V83.8241C174.062 82.0627 173.687 80.7167 172.943 79.7937C172.195 78.8708 170.884 78.4093 169.006 78.4093C167.872 78.4093 166.935 78.6246 166.187 79.0515C165.443 79.4784 164.845 80.0514 164.406 80.7667C163.962 81.482 163.654 82.3012 163.472 83.2241C163.291 84.1471 163.202 85.1047 163.202 86.0969V98.1609H160.592V83.701C160.592 82.9857 160.515 82.305 160.364 81.6551C160.21 81.009 159.963 80.4437 159.62 79.963C159.273 79.4822 158.81 79.1015 158.232 78.8285C157.653 78.5516 156.948 78.4131 156.119 78.4131C155.012 78.4131 154.052 78.6131 153.238 79.0131C152.424 79.413 151.761 79.963 151.248 80.6667C150.735 81.3705 150.357 82.1973 150.111 83.1472C149.86 84.0971 149.736 85.1393 149.736 86.2661V98.1647H147.126V76.8441H149.528L149.536 76.8402Z" fill="white"/>
<path fill-rule="evenodd" clip-rule="evenodd" d="M183.987 77.917C183.228 78.4939 182.626 79.24 182.187 80.1475V80.1514C181.747 81.059 181.485 82.1358 181.4 83.3741H184.011C184.061 81.6397 184.616 80.3783 185.665 79.5938C186.714 78.8092 188.067 78.417 189.725 78.417C190.497 78.417 191.222 78.4785 191.9 78.6016C192.575 78.7246 193.169 78.9515 193.682 79.2823C194.195 79.613 194.596 80.0591 194.885 80.6244C195.174 81.1897 195.321 81.9127 195.321 82.7934C195.321 83.3703 195.244 83.8394 195.093 84.1971C194.943 84.5547 194.727 84.8355 194.453 85.0431C194.176 85.2508 193.832 85.397 193.416 85.4777C192.999 85.5623 192.517 85.6315 191.966 85.6854C190.558 85.8507 189.17 86.0238 187.801 86.2007C186.436 86.3815 185.206 86.693 184.115 87.1314C183.023 87.5736 182.148 88.2159 181.485 89.0542C180.821 89.8964 180.49 91.0578 180.49 92.5461C180.49 93.6191 180.675 94.5498 181.049 95.3343C181.423 96.1188 181.936 96.7687 182.584 97.2764C183.232 97.7878 183.991 98.157 184.863 98.3916C185.73 98.6262 186.664 98.7416 187.659 98.7416C188.707 98.7416 189.614 98.6454 190.373 98.4532C191.129 98.2609 191.808 97.984 192.402 97.6263C192.996 97.2687 193.535 96.8226 194.017 96.2842C194.503 95.7458 194.978 95.1343 195.448 94.4459H195.533C195.533 94.9958 195.568 95.4996 195.637 95.9534C195.706 96.4072 195.849 96.7995 196.073 97.1302C196.293 97.461 196.601 97.7186 197.002 97.8955C197.403 98.0763 197.935 98.1647 198.599 98.1647C198.957 98.1647 199.254 98.1493 199.489 98.1224C199.721 98.0955 199.991 98.057 200.295 97.9994V95.8073C200.045 95.9188 199.771 95.9727 199.466 95.9727C198.444 95.9727 197.931 95.4496 197.931 94.4036V83.0818C197.931 81.6474 197.696 80.486 197.226 79.5899C196.755 78.6939 196.146 77.9978 195.402 77.5017C194.658 77.0056 193.813 76.671 192.876 76.4903C191.935 76.3095 190.994 76.2211 190.057 76.2211C188.812 76.2211 187.682 76.3595 186.66 76.6364C185.638 76.9133 184.747 77.3402 183.987 77.917ZM194.283 87.1737C194.754 87.0352 195.07 86.816 195.236 86.5122V86.5045H195.321V89.8926C195.321 90.9425 195.12 91.877 194.719 92.7038C194.318 93.5306 193.778 94.2344 193.104 94.8113C192.425 95.392 191.63 95.8304 190.72 96.1342C189.81 96.438 188.858 96.588 187.863 96.588C187.257 96.588 186.66 96.4918 186.081 96.2995C185.499 96.1073 184.99 95.8265 184.547 95.4535C184.103 95.0805 183.752 94.6421 183.49 94.1306C183.228 93.6191 183.097 93.0345 183.097 92.3731C183.097 91.327 183.409 90.5233 184.03 89.958C184.655 89.3965 185.445 88.9619 186.413 88.6581C187.381 88.3581 188.453 88.1274 189.625 87.9774C190.797 87.8274 191.939 87.6544 193.042 87.4621C193.4 87.4083 193.813 87.3121 194.283 87.1737Z" fill="white"/>
</svg>
