<svg width="250" height="250" viewBox="0 0 250 250" fill="none" xmlns="http://www.w3.org/2000/svg">
<g id="Group 1">
<rect id="Rectangle 7" width="250" height="250" fill="#653024"/>
<g id="acai">
<path d="M241.486 78.083C239.209 88.0582 244.553 84.123 242.095 92.1812C224.442 94.9124 217.522 101.487 217.522 101.487C217.522 101.487 207.833 103.217 201.201 115.051C212.368 124.072 199.431 137.43 190.911 128.069L184.99 141.035C191.33 144.081 191.33 152.868 185.911 155.65C185.911 155.65 194.259 159.165 190.451 167.074C187.77 172.643 179.508 169.167 179.508 169.167L178.811 178.922C188.291 180.351 187.021 192.164 178.653 193.174L179.463 205.593C185.145 212.065 179.692 223.363 169.693 218.558C160.74 214.256 165.646 201.153 174.324 202.985L174.489 192.827C168.841 191.443 167.463 182.506 174.332 178.823L175.659 155.504C169.801 150.671 173.17 141.591 178.769 140.709C184.635 125.486 188.203 118.614 199.975 104.771C199.975 104.771 181.896 110.747 172.509 119.281C183.249 125.037 172.415 138.122 163.739 128.938L155.313 137.94C157.806 142.786 153.431 147.539 148.072 147.857C156.546 148.054 155.752 157.695 152.604 160.667C149.26 163.824 141.662 162.136 141.643 155.629L137.035 161.751C144.918 166.678 139.597 181.557 128.111 176.794L123.794 186.195C131.316 190.144 127.96 202.492 117.354 202.471L115.493 209.551C128.708 210.381 127.27 229.596 111.439 225.516L111.658 228.008C122.577 228.008 118.937 246.206 107.885 243.523C97.6873 241.048 97.0331 228.946 107.639 226.412L109.391 213.41C95.2754 212.281 97.0616 193.62 111.272 196.325C107.754 191.964 113.331 184.638 117.895 184.113L123.372 172.688C121.598 167.072 125.507 160.667 129.846 159.446L140.583 143.476C137.92 138.987 142.957 129.882 150.888 132.922L164.543 118.155C146.588 122.94 142.436 130.552 130.467 135.517C136.467 144.768 124.764 152.446 118.921 144.219C118.087 148.392 113.079 150.181 109.414 148.755C110.53 156.571 101.439 160.558 96.0161 155.295L90.6079 159.766C90.7674 165.827 86.142 169.495 80.7126 169.035L77.955 171.819C84.5372 173.942 84.3971 182.462 80.7126 184.996C75.5008 188.58 68.4721 185.877 67.8745 180.138L59.2477 190.295C64.9605 198.693 54.4102 204.317 49.8317 201.651L43.9331 211.713C49.6493 212.129 54.3154 220.528 50.8726 224.898C46.1887 230.844 38.3298 231.158 36.6466 223.51L33.4695 223.307C36.7244 214.685 41.2006 206.369 46.6574 198.376C43.7158 192.782 47.6563 187.364 51.8465 187.499C46.4272 175.237 59.6655 169.655 64.1939 176.972C67.9093 173.095 71.6153 168.956 75.7141 165.271C70.8571 158.309 80.2815 149.196 87.3412 154.411L93.8494 149.447C95.1577 143.824 99.3814 141.892 104.883 141.624C103.672 134.401 111.487 131.53 116.363 134.124C116.363 134.124 139.762 122.445 155.333 112.756L203.86 88.4925C203.86 88.4925 228.324 81.7928 241.486 78.083Z" fill="white"/>
<path d="M52.8964 113.773C39.7022 115.921 16.9685 135.636 7.25098 145.225C32.7856 139.496 49.3468 122.657 54.4356 114.954L81.4555 101.195C80.6799 101.886 79.846 102.582 78.9678 103.315C74.029 107.438 67.6907 112.73 62.4466 124.733C57.5696 135.896 52.0133 140.804 42.601 149.118L41.3929 150.186C60.0253 142.733 68.3252 134.941 72.8986 123.084C76.5573 113.599 81.5265 103.862 84.1237 100.249L99.5307 94.4818C96.877 96.6273 90.2097 104.079 86.9575 118.172C83.7053 132.265 75.5523 148.21 71.8822 154.42C72.9906 153.685 74.0534 152.934 75.0725 152.171C75.3956 151.897 75.7355 151.637 76.0899 151.393C92.7646 138.39 97.1954 121.973 98.1369 112.244C98.95 103.842 101.525 96.0955 102.71 93.2724L119.988 87.8521C116.882 91.8044 108.639 104.191 109.655 122.068C109.813 124.855 109.856 127.434 109.803 129.826C111.903 129.377 114.143 129.461 116.212 130.126C116.837 129.81 117.645 129.399 118.606 128.908L119.089 128.661C119.07 127.688 119.031 126.676 118.971 125.625C117.887 106.654 121.907 91.8609 124.053 86.8358L147.189 81.0683C139.953 88.6781 134.539 103.986 136.707 118.892L136.766 119.298C140.167 117.431 143.656 115.472 146.995 113.523L146.92 113.09C144.345 98.4556 144.569 89.8008 150.183 80.8188L169.519 78.1991C165.895 82.2114 161.809 91.8917 161.762 105.473L171.822 100.443C169.92 88.6982 169.457 82.4014 172.388 77.9496L192.473 77.2011C189.899 81.1487 187.701 86.156 186.974 92.8675L195.512 88.5983C195.189 83.8261 195.298 79.9689 195.533 77.689L203.825 78.3238L207.568 73.2091L196.771 73.528C179.019 32.6046 148.783 11.4596 135.91 6.2088L193.724 73.528L171.887 74.7684L163.011 61.7671C139.467 29.0737 117.503 22.2437 107.961 22.1306C111.484 27.822 149.714 59.845 168.685 75.2026L149.689 77.6449C146.67 75.3508 143.72 72.0297 140.407 68.2999C134.733 61.9133 127.995 54.3285 118.026 48.6502C104.885 41.1649 83.231 36.1934 83.231 36.1934C88.6548 41.0284 96.3199 45.6899 104.08 50.4094C111.502 54.9227 119.011 59.4891 124.73 64.3113C134.298 72.3774 146.976 78.4048 146.976 78.4048L122.698 84.1294C103.896 64.1419 91.0433 58.2441 80.0127 55.5033C74.6144 54.1619 57.8233 54.1489 57.8233 54.1489C57.8233 54.1489 72.0743 63.3651 89.1595 67.7002C107.033 72.2353 120.665 85.1468 120.665 85.1468L101.259 91.3184C101.259 91.3184 89.4443 72.8349 72.221 74.6454C66.4378 75.2533 61.3619 76.3103 56.2961 77.3653C48.7884 78.9288 41.3026 80.4878 31.5686 80.5733C31.5686 80.5733 46.4186 86.2435 66.8586 82.0291C86.2463 78.0316 99.1532 92.4311 99.1532 92.4311L83.0048 98.4411C75.2131 92.3433 59.4319 87.705 42.4934 98.715C28.9425 107.523 17.1985 111.532 13.0203 112.435C20.1345 113.451 36.8715 111.89 48.4466 103.184C60.1007 94.4182 72.3407 96.3395 80.6903 99.3746L52.8964 113.773Z" fill="white"/>
<path d="M160.809 160.518C163.7 150.399 165.262 143.62 164.886 134.384C166.638 135.318 168.48 135.775 170.325 135.753C171.793 135.735 173.178 135.413 174.428 134.86C174.125 136.443 173.731 137.966 173.246 139.456C171.345 141.103 170.028 143.38 169.406 145.672C169.143 146.643 168.988 147.664 168.961 148.704C166.8 152.363 164.081 156.164 160.809 160.518Z" fill="white"/>
<path d="M201.65 134.073C200.162 141.627 196.81 148.687 192.289 154.15C194.283 150.179 193.823 145.087 191.009 141.369C191.333 139.33 191.58 137.217 191.72 135.062L192.347 133.69C194.097 134.556 195.952 134.955 197.81 134.891C199.16 134.844 200.453 134.555 201.65 134.073Z" fill="white"/>
<path fill-rule="evenodd" clip-rule="evenodd" d="M174.255 19.0406C174.677 18.7682 175.241 18.8899 175.513 19.3122C179.947 26.1889 184.304 31.5858 188.244 36.4655C190.039 38.6887 191.748 40.8045 193.337 42.904C198.176 49.2965 201.83 55.4503 203.069 63.7153C208.027 62.022 211.144 62.2778 213.093 63.9602C214.108 64.837 214.692 66.0155 215.069 67.2134C215.435 68.38 215.629 69.648 215.803 70.7867L215.815 70.8606C215.998 72.0587 216.161 73.0837 216.451 73.8869C216.737 74.6776 217.084 75.0744 217.522 75.2431C217.997 75.426 218.835 75.4433 220.332 74.8511C221.809 74.2663 223.788 73.1433 226.44 71.2784C226.851 70.9894 227.419 71.0883 227.708 71.4994C227.997 71.9105 227.898 72.4781 227.487 72.7671C224.788 74.6646 222.674 75.8813 221.001 76.5432C219.347 77.1977 217.977 77.3685 216.868 76.9413C215.722 76.5 215.108 75.523 214.74 74.5059C214.379 73.5072 214.194 72.2986 214.019 71.1561L214.016 71.1359C213.834 69.949 213.657 68.7917 213.333 67.7591C213.009 66.7307 212.564 65.9078 211.904 65.3376C210.637 64.2443 208.122 63.7344 202.639 65.8036C202.378 65.9023 202.085 65.8753 201.846 65.7304C201.607 65.5855 201.448 65.3387 201.415 65.0611C200.406 56.6827 196.858 50.5703 191.886 44.0024C190.355 41.9794 188.679 39.9038 186.903 37.7035C182.937 32.7906 178.47 27.2563 173.983 20.2983C173.711 19.876 173.833 19.3129 174.255 19.0406ZM209.612 146.691C207.276 152.11 203.743 156.722 197.895 158.929C197.425 159.106 196.9 158.869 196.723 158.399C196.545 157.929 196.782 157.404 197.253 157.226C202.475 155.256 205.718 151.128 207.941 145.97C210.159 140.825 211.313 134.768 212.409 129.015L212.43 128.902C213.517 123.197 214.565 117.702 216.647 114.03C217.704 112.165 219.071 110.684 220.922 109.899C222.777 109.111 224.982 109.08 227.599 109.854C228.081 109.996 228.356 110.502 228.214 110.984C228.071 111.466 227.565 111.741 227.083 111.599C224.743 110.907 222.992 110.997 221.633 111.574C220.268 112.153 219.163 113.28 218.23 114.927C216.33 118.278 215.327 123.421 214.218 129.242L214.177 129.457C213.095 135.138 211.91 141.36 209.612 146.691ZM90.4014 171.433C90.8983 171.359 91.3616 171.701 91.4362 172.198C92.1431 176.911 90.6172 183.863 86.6663 188.682C84.6741 191.112 82.0394 193.029 78.7347 193.813C75.7761 194.515 72.3552 194.291 68.4798 192.813C68.7649 199.532 65.9649 204.034 62.9745 206.873C61.3815 208.385 59.7417 209.421 58.501 210.079C58.0778 210.303 57.6996 210.484 57.3836 210.626C59.9619 215.369 60.5194 219.788 59.6363 223.631C58.6992 227.71 56.1634 231.038 52.9131 233.36C46.473 237.959 36.9132 238.779 30.9034 233.282C30.5327 232.943 30.507 232.367 30.8462 231.996C31.1854 231.625 31.7609 231.6 32.1317 231.939C37.3264 236.691 45.893 236.137 51.8555 231.879C54.8065 229.771 57.0411 226.799 57.8627 223.224C58.6817 219.659 58.1204 215.393 55.2974 210.638C55.1568 210.402 55.131 210.114 55.2271 209.856C55.3231 209.598 55.5305 209.398 55.7913 209.311L55.8146 209.303L55.9071 209.269C55.9911 209.238 56.1182 209.189 56.2819 209.121C56.6095 208.984 57.0824 208.771 57.6483 208.471C58.7822 207.87 60.2766 206.925 61.7216 205.553C64.5897 202.83 67.2923 198.406 66.5579 191.504C66.5235 191.18 66.6645 190.863 66.9278 190.671C67.1911 190.48 67.5365 190.444 67.8336 190.576C71.9966 192.435 75.4707 192.717 78.3146 192.043C81.1607 191.368 83.469 189.711 85.2591 187.528C88.873 183.12 90.2698 176.69 89.6365 172.468C89.562 171.971 89.9044 171.508 90.4014 171.433Z" fill="#FFA400"/>
</g>
</g>
</svg>
