<svg width="250" height="250" viewBox="0 0 250 250" fill="none" xmlns="http://www.w3.org/2000/svg">
<g id="Group 2">
<rect id="image 11" width="250" height="250" fill="#BE6A14"/>
<g id="andiroba">
<path d="M157.416 193.645C148.942 193.396 140.504 191.755 132.59 188.703H132.583C132.123 188.526 131.808 188.098 131.95 187.588C132.073 187.15 132.608 186.777 133.064 186.954C134.005 187.316 134.953 187.664 135.908 187.986C143.742 190.644 151.974 191.929 160.268 191.864C168.561 191.799 176.829 190.365 184.649 187.588C191.773 185.057 198.677 181.204 204.46 176.743C210.242 172.282 215.387 166.945 219.636 161.003C223.884 155.061 227.274 148.515 229.59 141.585C229.959 140.484 231.703 140.958 231.334 142.066C231.045 142.935 230.737 143.801 230.415 144.659C227.777 151.669 224.086 158.251 219.513 164.182C214.921 170.135 209.775 175.197 203.381 179.788C196.988 184.38 189.863 187.924 182.344 190.26C174.307 192.758 165.891 193.895 157.416 193.645Z" fill="#653024"/>
<path d="M5.56783 159.884C4.88394 166.42 5.06847 173.057 6.19019 179.535V179.531C6.27342 180.016 6.06717 180.505 5.55697 180.646C5.11551 180.766 4.52572 180.494 4.4425 180.013C4.29776 179.184 4.16751 178.351 4.05172 177.518C3.13263 170.827 3.14707 164.048 4.06254 157.368C4.97801 150.687 6.81619 144.163 9.49747 137.978C11.9978 132.214 15.2798 126.822 19.1841 121.902C22.9617 117.144 27.3618 112.871 32.149 109.192C36.9362 105.514 42.1794 102.439 47.7337 100.068C48.186 99.8758 48.6998 99.9265 48.9712 100.394C49.1955 100.777 49.0942 101.44 48.6455 101.632C47.9689 101.922 47.2994 102.219 46.6337 102.526C41.2747 105.007 36.2089 108.16 31.6279 111.89C27.047 115.619 23.0558 119.675 19.3469 124.632C15.638 129.589 12.5587 135.031 10.2754 140.792C7.8547 146.9 6.25172 153.349 5.56783 159.884Z" fill="#653024"/>
<path d="M161.549 57.0011C165.225 55.2849 169.202 55.1038 173.142 55.455C182.438 56.2878 191.611 57.7651 199.354 63.573C206.852 69.1962 212.941 76.1229 215.974 85.0737C218.416 92.272 220.381 99.6948 221.799 107.165C223.659 116.97 222.599 126.616 218.583 135.922C215.138 143.906 210.897 151.451 206.435 158.871C203.823 163.216 200.744 167.376 196.684 170.483C193.894 172.615 190.623 174.129 187.522 175.838C182.767 178.463 177.415 179.195 172.263 180.542C168.851 181.436 165.464 182.464 162.004 183.134C158.523 183.808 154.952 184.611 151.453 184.467C145.703 184.231 140.073 182.939 134.985 179.991C133.176 178.945 131.418 177.804 129.547 176.653C128.838 178.387 128.161 180.462 127.173 182.37C123.859 188.761 120.425 195.09 117.052 201.448C116.141 203.168 115.547 205.131 114.342 206.597C112.421 208.933 110.257 211.127 107.919 213.046C104.485 215.863 100.86 218.463 97.2197 221.012C92.3203 224.441 86.8238 226.527 80.9439 227.428C77.434 227.968 73.8662 228.322 70.3201 228.362C63.6585 228.438 57.3407 226.595 51.2146 224.151C46.7277 222.359 42.7655 219.705 39.1145 216.522C37.8951 215.458 36.3066 214.751 34.7905 214.1C31.1792 212.546 29.0806 209.559 27.4342 206.261C25.3716 202.125 23.414 197.922 21.717 193.627C20.1032 189.539 18.8222 185.314 17.5051 181.114C16.4992 177.902 15.334 174.683 14.8492 171.373C14.3752 168.14 14.6755 164.794 14.6393 161.499C14.6357 161.083 14.6791 160.663 14.6538 160.25C14.3896 155.681 15.2291 151.278 17.2193 147.204C19.4917 142.548 21.9884 137.996 24.5828 133.514C25.4187 132.069 26.8661 130.975 28.0601 129.748C32.4095 125.298 36.6178 120.663 41.7415 117.089C47.4767 113.092 53.8851 110.514 60.6878 108.914C64.7621 107.954 68.8365 107.045 73.0701 107.346C73.2764 107.36 73.4862 107.338 73.6961 107.349C74.6477 107.393 75.8129 107.795 76.4895 107.382C77.101 107.013 77.177 105.756 77.4846 104.891C79.6593 98.8222 81.6639 92.6812 84.081 86.7067C85.3583 83.5457 87.2653 80.6237 89.0347 77.6835C91.7124 73.2262 94.2163 68.6169 97.339 64.4891C102.579 57.5588 107.619 50.4148 114.14 44.5526C118.869 40.2981 123.985 36.565 129.551 33.4764C133.77 31.1373 138.003 28.8236 142.295 26.6257C147.35 24.0332 152.716 22.3277 158.368 21.6579C159.367 21.5384 160.409 21.9041 161.433 21.9186C164.038 21.962 166.647 22.0489 169.245 21.9113C176.022 21.5492 182.384 23.1569 188.578 25.7132C197.491 29.3884 205.567 34.4214 212.934 40.6203C215.228 42.5503 217.924 44.1326 219.816 46.392C223.757 51.0919 227.343 56.0923 230.961 61.0493C234.489 65.8831 237.221 71.3072 241.733 75.3988C242.967 76.5176 244.096 77.7813 245.453 78.7155C246.445 79.3926 246.785 80.2 246.571 81.1813C246.336 82.2567 245.953 83.3611 245.359 84.2771C244.61 85.4322 243.55 85.0701 242.577 84.4002C237.764 81.0727 233.577 77.1332 230.288 72.2486C226.279 66.2995 222.234 60.3541 217.175 55.2269C214.237 52.2506 211.226 49.3104 207.977 46.6925C203.237 42.8725 198.319 39.2698 193.358 35.7358C188.459 32.2489 182.955 29.975 177.108 28.6389C175.613 28.2985 173.728 28.0414 172.48 28.6642C170.797 29.5043 169.35 31.0685 168.17 32.6074C165.048 36.6772 163.282 41.3445 162.826 46.4753C162.598 49.0425 162.446 51.6205 162.185 54.1841C162.091 55.0966 161.78 55.9873 161.541 56.9975L161.549 57.0011ZM164.577 28.0777C162.272 28.2297 160.315 28.4832 158.357 28.4651C153.783 28.4289 149.546 29.7505 145.483 31.6297C143.167 32.7015 141.086 34.273 138.817 35.4678C131.874 39.1285 125.849 44.0312 120.059 49.2525C115.106 53.7206 111.263 59.1447 107.091 64.3044C100.9 71.9626 95.9749 80.3992 91.3179 88.9843C89.3169 92.6703 88.3074 96.8995 86.8673 100.89C85.6659 104.217 84.4935 107.556 83.2596 111.032C90.5942 110.021 97.4259 110.619 104.294 113.682C102.966 110.199 102.698 106.871 103.548 103.75C104.952 98.623 106.476 93.4524 108.697 88.6439C111.017 83.6254 114.071 78.9182 117.085 74.2546C119.477 70.5577 122.104 66.8789 125.769 64.3624C134.247 58.5364 143.257 53.9307 154.196 53.6229C154.854 44.2485 157.698 35.5185 164.574 28.074L164.577 28.0777ZM180.346 75.12C180.346 77.6944 180.6 80.2254 180.288 82.684C179.804 86.4895 179.25 90.3385 178.157 93.9992C175.552 102.729 174.184 111.618 173.761 120.696C173.526 125.743 174.43 130.668 175.063 135.625C175.32 137.638 175.534 139.752 176.315 141.581C177.52 144.394 179 147.143 180.744 149.648C182.123 151.625 183.375 153.874 185.857 154.88C188.329 155.883 190.898 155.97 193.485 155.807C194.209 155.76 195.139 155.438 195.551 154.909C196.202 154.08 196.438 153.005 195.428 152.063C194.947 151.614 194.607 151.01 194.223 150.459C188.933 142.848 185.836 134.607 186.917 125.153C187.457 120.45 187.934 115.739 188.51 111.039C189.215 105.285 190.019 99.521 189.081 93.7385C188.43 89.7121 187.558 85.7074 186.566 81.7498C185.763 78.5562 183.871 76.1555 180.35 75.1236L180.346 75.12ZM95.0341 202.857C93.3117 199.674 91.5314 196.709 90.0841 193.591C89.1686 191.614 88.6946 189.423 88.1156 187.305C87.5005 185.053 83.5853 182.298 80.8461 182.088C78.4724 181.903 76.3918 182.605 74.3366 183.655C70.0016 185.871 65.5184 187.827 61.3427 190.307C59.139 191.614 57.0729 193.055 54.587 193.801C53.7222 194.062 52.9117 194.609 52.1808 195.166C51.8623 195.409 51.5801 196.068 51.6778 196.43C52.3581 198.928 53.6897 201.112 55.8318 202.531C57.3334 203.527 59.1463 204.07 60.8542 204.74C65.6378 206.615 70.472 208.281 75.726 208.107C77.7198 208.042 79.7353 208.256 81.7146 208.056C84.1462 207.81 86.538 207.09 88.9696 206.898C91.9222 206.662 94.1259 205.591 95.0305 202.861L95.0341 202.857ZM115.764 189.92C116.919 187.7 117.975 185.585 119.108 183.507C124.669 173.274 125.939 162.408 123.663 151.107C122.817 146.907 121.235 142.856 120.432 138.652C119.498 133.753 115.764 131.392 112.186 128.303C111.133 132.047 109.993 135.483 109.226 138.999C108.404 142.761 107.471 146.545 107.818 150.459C108.006 152.563 108.227 154.663 108.44 156.763C108.763 159.888 108.896 163.049 109.457 166.13C110.438 171.518 111.614 176.877 112.848 182.214C113.452 184.825 113.785 187.584 115.764 189.916V189.92ZM44.4373 171.732C44.9041 171.768 45.1103 171.804 45.3129 171.797C49.6478 171.594 53.9864 171.413 58.3177 171.156C59.5407 171.084 60.7963 170.943 61.9578 170.581C67.8486 168.752 71.3839 164.331 74.0398 159.117C75.6464 155.959 75.7079 152.473 75.6717 148.971C75.6464 146.513 74.275 145.024 72.4079 144.112C68.1815 142.041 62.5874 144.481 60.4344 147.092C58.8206 149.051 57.3009 151.111 55.5134 152.9C50.234 158.183 47.759 165.059 44.4409 171.732H44.4373ZM154.63 84.2989C150.44 84.8203 146.702 85.2149 142.989 85.7653C139.527 86.2795 136.161 87.1268 133.209 89.1943C129.695 91.6565 126.811 94.7233 124.224 98.1125C122.599 100.238 122.064 102.689 122.241 105.235C122.429 107.943 123.768 110.04 126.395 111.158C126.902 111.376 127.322 111.799 127.77 112.14C128.754 112.889 129.692 114.182 130.719 114.254C131.79 114.33 132.945 113.23 134.066 112.65C137.214 111.014 140.142 109.044 142.139 106.06C144.654 102.309 147.1 98.5035 149.354 94.593C151.243 91.3233 152.817 87.869 154.634 84.2952L154.63 84.2989ZM54.967 126.297C54.8114 126.131 54.6521 125.964 54.4965 125.801C50.784 128.271 46.7893 130.411 43.4313 133.293C39.4727 136.686 35.9267 140.596 32.4602 144.507C29.4207 147.932 26.942 151.832 25.4729 156.198C24.7022 158.498 24.6081 161.021 24.0979 163.418C23.4032 166.681 23.6637 169.969 23.7506 173.249C23.7831 174.448 24.04 175.639 24.2463 177.225C24.8904 175.371 25.2124 173.76 25.9651 172.384C30.0684 164.896 33.9908 157.281 38.5356 150.068C42.9645 143.037 48.081 136.439 52.8719 129.636C53.6281 128.564 54.2722 127.413 54.967 126.297ZM177.589 167.832C176.938 166.891 176.428 166.134 175.899 165.388C173.269 161.662 171.586 157.487 170.102 153.211C169.951 152.773 169.458 152.129 169.126 152.129C166.386 152.129 163.77 152.578 161.429 154.232C159.153 155.844 157.742 158.117 156.342 160.395C154.46 163.451 153.689 166.713 155.043 170.229C155.372 171.084 155.708 171.565 156.877 171.544C160.228 171.475 163.553 171.471 166.828 170.562C170.345 169.588 173.906 168.759 177.589 167.829V167.832ZM213.585 129.408C217.501 119.19 214.32 104.648 211.447 97.5549C211.494 98.6737 211.541 99.9989 211.613 101.324C211.708 102.975 211.657 104.655 211.964 106.267C212.981 111.626 213.054 117.039 213.187 122.459C213.242 124.686 213.437 126.909 213.585 129.408Z" fill="white"/>
</g>
</g>
</svg>
