<svg width="250" height="250" viewBox="0 0 250 250" fill="none" xmlns="http://www.w3.org/2000/svg">
<g id="Group 3">
<rect id="image 10" width="250" height="250" fill="#BE6A14"/>
<g id="breu">
<path d="M197.835 207.865C192.121 204.324 186.217 201.051 180.74 197.173C174.846 192.996 170.752 187.128 167.614 180.658C167.037 179.463 166.539 179.059 165.218 179.326C163.609 179.652 161.93 179.624 160.309 179.907C159.711 180.012 159.141 180.503 158.641 180.918C156.299 182.874 154.197 185.208 151.625 186.776C145.76 190.35 139.83 193.894 133.629 196.821C125.886 200.474 117.773 203.356 109.025 203.32C99.5919 203.282 90.2808 201.908 81.0858 199.904C72.5925 198.055 64.1578 195.93 55.6854 193.985C52.6773 193.294 49.618 192.835 46.6237 192.105C45.9428 191.939 45.4307 191.091 44.8432 190.558C45.4411 189.912 45.9219 188.91 46.6497 188.681C60.7046 184.239 74.6932 179.548 88.9041 175.662C96.1891 173.669 103.879 173.158 111.383 171.965C124.774 169.833 137.907 172.096 150.968 174.614C155.542 175.496 159.978 176.896 164.822 176.339C165.151 173.888 163.202 172.52 161.933 170.961C158.818 167.141 155.54 163.452 152.209 159.816C149.311 156.649 146.28 153.598 143.255 150.551C141.277 148.563 139.254 146.607 137.133 144.774C136.54 144.259 135.476 143.884 134.725 144.015C131.007 144.663 127.502 146.398 123.559 145.995C122.848 145.922 121.959 146.579 121.308 147.099C118.12 149.627 115.039 152.289 111.822 154.778C106.809 158.661 100.716 159.774 94.7241 160.832C89.7877 161.702 84.7414 161.945 79.7393 162.411C73.6559 162.974 67.6176 163.394 61.5062 162.114C52.0847 160.14 43.1914 157.004 34.548 152.682C26.0869 148.454 17.1255 145.235 8.38228 141.573C7.72177 141.296 6.91586 141.155 6.44734 140.685C5.82607 140.054 5.47017 139.159 5 138.381C5.90358 137.844 6.77554 136.922 7.71501 136.847C10.4926 136.626 13.3076 136.871 16.093 136.699C26.1611 136.076 36.072 134.342 45.7797 131.696C51.9454 130.015 58.1563 130.324 64.3849 130.098C68.7561 129.94 73.1585 129.981 77.481 129.429C82.619 128.774 87.6507 128.979 92.7047 129.869C101.335 131.389 110.068 132.545 118.087 136.4C120.911 137.759 123.528 139.603 126.433 140.729C128.12 141.382 130.19 141.052 132.09 141.161C132.184 140.936 132.278 140.712 132.372 140.487C130.549 139.217 128.816 137.79 126.89 136.707C118.85 132.181 110.799 127.665 102.631 123.374C100.939 122.484 98.7268 122.256 96.7582 122.269C88.621 122.321 80.8097 120.321 72.9127 118.822C67.6196 117.819 62.512 116.093 58.3268 112.758C53.2958 108.749 48.5303 104.349 44.0173 99.7533C38.367 93.9976 33.7972 87.2995 30.2717 80.0956C25.2578 69.8466 19.6991 59.8089 16.3638 48.8017C15.5958 46.2717 14.5149 43.8191 13.9685 41.2496C13.7725 40.3299 14.6447 39.1112 15.2488 38.1656C15.3409 38.0229 16.7418 38.4767 17.3281 38.9296C19.311 40.4521 21.046 42.3484 23.1559 43.6436C27.0502 46.0329 31.1298 48.1247 35.156 50.2957C43.2085 54.6377 51.41 58.7289 59.2877 63.3664C63.4449 65.8134 67.0728 69.1731 70.8973 72.1713C73.0389 73.8506 75.2295 75.4993 77.1693 77.3962C86.6278 86.6374 94.2357 97.228 100.056 109.107C101.732 112.524 103.546 115.87 105.346 119.225C105.6 119.692 106.069 120.128 106.541 120.385C113.892 124.359 121.263 128.3 128.632 132.246C128.677 132.271 128.768 132.211 129.167 132.094C128.232 128.463 127.573 124.708 126.238 121.209C125.517 119.317 123.525 117.942 122.311 116.195C119.331 111.912 116.002 107.784 113.661 103.166C109.081 94.1314 104.783 84.9282 100.93 75.5643C97.9729 68.3757 96.6878 60.687 96.1315 52.8837C95.692 46.7337 94.4331 40.6164 94.3094 34.4723C94.1347 25.5202 94.6528 16.5581 94.8783 7.59685C94.8844 7.38133 94.8386 7.11301 94.9456 6.96226C95.4473 6.25362 95.8899 5.20281 96.563 5.01442C97.0558 4.87771 98.1357 5.74128 98.4989 6.40809C100.514 10.1083 102.12 14.0575 104.378 17.5947C107.173 21.9747 110.471 26.0342 113.549 30.2331C120.178 39.2804 125.175 49.0523 126.671 60.3183C128.314 72.6966 129.89 85.0849 131.426 97.4791C132.237 104.036 133.087 110.6 132.132 117.23C131.923 118.694 132.195 120.271 131.776 121.648C130.692 125.208 131.055 128.715 131.599 132.273C131.824 133.748 132.533 134.689 133.706 135.68C139.086 140.217 144.502 144.742 149.531 149.655C153.915 153.935 157.809 158.72 161.903 163.296C163.57 165.16 165.465 166.889 166.797 168.973C169.332 172.95 171.536 177.138 173.885 181.231C174.229 181.827 174.623 182.396 175.408 182.88C175.442 182.198 175.566 181.506 175.492 180.832C174.887 175.185 174.005 169.731 170.195 165.039C162.813 155.946 159.464 145.035 156.689 133.873C152.91 118.663 153.363 103.424 155.642 88.0851C156.984 79.0491 157.326 69.9399 156.624 60.8073C156.507 59.2814 156.051 57.2608 158.187 56.8948C160.227 56.5457 160.703 58.4823 161.054 59.9925C161.767 63.0309 163.792 64.9977 165.982 67.0361C172.262 72.8779 176.823 79.7157 178.165 88.4654C179.022 94.0567 180.709 99.5286 181.391 105.133C182.146 111.317 182.177 117.588 182.534 123.821C182.878 129.838 183.449 135.855 183.529 141.876C183.621 148.833 183.375 155.795 183.075 162.748C182.991 164.719 182.347 166.704 181.71 168.602C179.667 174.693 179.384 181.047 178.789 187.354C178.736 187.907 179.252 188.707 179.74 189.086C182.899 191.535 185.999 194.095 189.358 196.246C193.967 199.196 198.758 201.865 203.522 204.569C209.365 207.886 215.254 211.124 221.132 214.379C223.143 215.493 224.371 217.187 225.522 219.173C227.473 222.545 229.57 225.919 232.125 228.84C235.794 233.034 239.937 236.815 243.854 240.797C244.45 241.403 245.015 242.087 245.41 242.833C245.745 243.469 245.813 244.246 246 244.959C245.123 244.922 244.106 245.159 243.408 244.79C242.095 244.095 240.904 243.126 239.776 242.138C232.436 235.696 225.628 228.772 219.831 220.862C218.671 219.278 216.59 218.326 214.838 217.234C213.082 216.143 211.055 215.447 209.418 214.219C206.629 212.124 203.703 212.029 200.483 212.706C197.409 213.355 194.134 213.349 191.22 214.397C188.535 215.362 186.029 217.11 183.776 218.925C177.713 223.814 171.531 228.59 164.049 230.964C155.786 233.584 147.44 236.59 138.64 236.269C125.957 235.802 113.214 236.552 100.59 234.529C97.4149 234.021 94.141 234.146 90.9249 233.845C89.6114 233.722 87.6364 234.248 87.3888 232.284C87.1495 230.385 88.9225 230.069 90.3834 229.549C96.0548 227.527 101.737 225.518 107.328 223.285C117.815 219.094 127.662 213.579 137.718 208.491C141.224 206.716 145.321 205.685 149.25 205.255C159.359 204.146 169.448 204.214 179.339 207.39C184.975 209.2 190.805 210.028 196.733 208.726C197.057 208.654 197.377 208.577 197.699 208.502C197.745 208.296 197.794 208.088 197.84 207.881L197.835 207.865ZM75.7756 194.114C80.1029 194.613 84.4055 195.271 88.7279 195.541C91.4965 195.715 94.2984 195.148 97.0825 195.201C101.017 195.277 104.953 195.56 108.881 195.856C115.331 196.335 121.578 194.973 127.844 193.831C129.181 193.587 130.44 192.922 131.734 192.45C131.744 192.22 131.753 191.988 131.763 191.759C127.376 189.691 123.105 187.325 118.582 185.617C109.949 182.355 101.338 181.758 92.7574 186.345C87.4125 189.2 81.7253 191.42 75.7772 194.117L75.7756 194.114ZM167.017 80.3163C166.736 80.3533 166.455 80.3902 166.175 80.4226C165.739 83.094 165.256 85.7565 164.88 88.4334C164.276 92.7239 164.293 96.8006 166.378 100.941C168.585 105.328 170.352 110.046 171.538 114.81C172.767 119.752 172.244 124.859 169.584 129.391C166.052 135.412 166.571 141.468 168.894 147.937C169.711 146.05 170.324 144.378 171.136 142.807C175.189 134.951 177.966 126.934 175.866 117.847C173.333 106.882 171.109 95.8463 168.683 84.8579C168.339 83.2974 167.585 81.8282 167.021 80.3177L167.017 80.3163ZM73.5738 101.619C71.0692 97.0199 68.9085 92.1875 65.9787 87.8773C61.6095 81.4483 56.9834 75.1359 51.8981 69.2698C49.3547 66.3352 45.5866 64.4328 42.2932 62.1761C39.9416 60.5647 37.4586 59.1443 34.6347 57.3885C44.0696 75.7204 58.6358 88.8209 73.5738 101.619ZM115.405 141.211C99.0368 134.34 82.5332 133.655 65.4625 135.712C66.1758 136.022 66.6802 136.261 67.1984 136.462C71.8018 138.261 76.4556 139.94 81.0042 141.866C92.3559 146.675 103.594 146.33 115.405 141.211ZM103.23 22.8061L102.645 23.0081C102.697 24.2148 102.734 25.4175 102.804 26.622C103.032 30.6838 103.273 34.7467 103.513 38.8095C103.734 42.5319 103.571 46.3282 104.274 49.9582C105.196 54.727 106.798 59.3693 108.124 64.0575C108.202 64.3278 108.434 64.5563 108.912 65.292C108.996 63.4332 109.035 62.1658 109.114 60.9001C109.546 54.0333 111.357 47.4739 113.764 41.0806C114.369 39.4708 114.231 38.211 113.294 36.8998C109.935 32.2056 106.585 27.5065 103.229 22.8107L103.23 22.8061ZM93.8058 114.664C86.8467 96.2869 76.3097 80.7994 59.7184 69.6137C59.9177 70.0223 59.9766 70.2296 60.1004 70.386C64.3476 75.7548 69.1023 80.8013 72.7291 86.5613C77.4865 94.1142 81.3546 102.224 85.6087 110.092C85.7433 110.34 85.851 110.686 86.0657 110.797C88.6359 112.108 91.2245 113.382 93.8074 114.667L93.8058 114.664ZM158.856 98.5718C158.619 109.568 157.806 119.995 160.501 130.47C168.225 120.292 165.225 108.886 158.856 98.5718ZM182.949 213.24C170.796 208.879 158.363 207.384 145.861 209.994C157.846 215.243 170.395 215.605 182.949 213.24ZM23.527 142.4C23.4792 142.595 23.4284 142.793 23.379 142.985C24.2941 143.383 25.1952 143.819 26.1314 144.171C29.8974 145.58 33.8019 146.699 37.4194 148.417C44.7174 151.876 52.1693 154.789 60.1176 156.325C61.7779 156.646 63.4405 156.949 65.1035 157.261C63.6408 156.254 62.0003 155.892 60.5531 155.155C53.9934 151.811 47.3212 148.636 41.0121 144.866C35.3429 141.478 29.3936 142.841 23.527 142.4ZM121.856 175.593L121.728 176.13C124.394 177.057 127.101 177.889 129.719 178.935C134.973 181.036 140.417 182.317 146.042 182.512C148.405 182.593 151.073 182.674 153.274 180.062C142.632 177.675 132.406 175.507 121.856 175.593ZM133.143 216.31C132.91 216.243 132.679 216.18 132.443 216.115C124.418 219.768 116.394 223.415 108.369 227.068C108.467 227.346 108.562 227.627 108.659 227.905C115.567 226.388 122.477 224.877 129.376 223.33C129.97 223.196 130.844 222.937 131.016 222.508C131.832 220.486 132.451 218.383 133.14 216.311L133.143 216.31ZM74.5132 150.171C66.1377 145.441 58.5022 138.747 47.3416 139.929C56.0969 145.108 64.6712 149.317 74.5132 150.171ZM59.108 187.996C64.0185 190.813 80.7866 185.827 86.0301 180.071C77.0565 182.711 68.0816 185.356 59.108 187.996ZM116.974 98.309C118.995 104.606 121.839 110.367 126.018 116.001C126.383 113.935 126.777 112.406 126.897 110.855C127.08 108.433 127.566 105.846 124.246 104.831C123.441 104.586 122.849 103.634 122.162 103.009C120.434 101.444 118.704 99.8765 116.976 98.3119L116.974 98.309Z" fill="white"/>
<path d="M232.952 212.835C237.836 218.544 241.163 225.339 244.421 232.052L244.419 232.057C244.895 233.036 243.408 233.849 242.93 232.866C242.541 232.062 242.147 231.257 241.755 230.455L241.706 230.356C238.44 223.698 234.896 217.021 229.612 211.718C224.888 206.975 219.075 203.522 213.136 200.524C210.125 199.005 207.062 197.591 204.01 196.16C200.958 194.729 197.757 193.394 195.006 191.417C193.593 190.402 192.3 189.169 191.358 187.771C190.415 186.374 189.836 184.736 189.552 183.081C188.946 179.537 189.468 175.897 189.789 172.355C190.494 164.572 191.201 156.792 191.906 149.009C192.003 147.926 193.699 147.973 193.6 149.06C193.516 150.024 193.427 150.987 193.339 151.953C192.637 159.699 191.931 167.444 191.232 175.189C190.939 178.45 190.566 181.917 191.864 185.116C193.162 188.314 196.058 190.301 199.005 191.859C201.964 193.422 205.042 194.773 208.065 196.193C211.088 197.613 214.098 199.06 217.036 200.649C222.94 203.844 228.563 207.701 232.952 212.835Z" fill="#D6A461"/>
<path d="M36.6172 44.3898C30.7937 41.2783 25.0343 38.0433 19.3466 34.6921L19.3452 34.6967C18.4019 34.1408 19.2843 32.6928 20.223 33.2473C20.9278 33.6629 21.6356 34.0767 22.3417 34.4877C28.0729 37.8267 33.9855 41.1019 39.7394 44.1355C45.4934 47.169 51.5953 50.1329 57.1482 52.9247C62.701 55.7164 68.1265 58.6854 73.0516 62.6132C77.9766 66.541 82.1071 71.2632 85.8369 76.3692C89.5667 81.4753 92.8298 86.9005 96.0791 92.3217C96.6398 93.2592 95.1494 94.0655 94.5904 93.131C94.191 92.4685 93.793 91.8013 93.3936 91.1388C90.1772 85.7923 86.8454 80.3967 83.0897 75.5053C79.334 70.614 75.0681 66.0965 70.0697 62.4594C65.062 58.8119 59.8205 56.1171 53.9915 53.2363C48.1625 50.3554 42.4406 47.5013 36.6172 44.3898Z" fill="#D6A461"/>
</g>
</g>
</svg>
