<svg width="250" height="250" viewBox="0 0 250 250" fill="none" xmlns="http://www.w3.org/2000/svg">
<g id="Group 4">
<rect id="image 12" width="250" height="250" fill="#FFA400"/>
<g id="buriti">
<path d="M142.148 59.1485C145.112 55.7522 148.182 52.4485 151.361 49.2541C152.893 47.7148 154.438 46.1755 156.042 44.7091C157.471 43.4015 158.976 42.1668 160.657 41.1969C162.486 40.1409 164.497 39.4755 166.628 39.5781L165.801 38.7506C165.45 46.2616 164.57 53.7395 163.158 61.1247C162.754 63.24 162.304 65.3454 161.815 67.4441C161.573 68.4802 163.168 68.9237 163.409 67.8843C165.152 60.4196 166.36 52.8325 167.025 45.199C167.213 43.0539 167.352 40.9056 167.455 38.7539C167.478 38.2904 167.058 37.9462 166.628 37.9263C162.466 37.731 158.817 40.1045 155.794 42.7196C154.156 44.1364 152.615 45.669 151.08 47.1951C149.442 48.8204 147.835 50.4722 146.253 52.1505C144.457 54.0573 142.697 56.0004 140.977 57.9767C140.683 58.3143 140.646 58.8175 140.977 59.1485C141.278 59.4497 141.85 59.4862 142.148 59.1485ZM243.974 136.39C242.998 139.565 240.987 142.266 238.648 144.573C236.183 147.007 233.371 149.089 230.497 151.012C224.536 155.001 218.029 158.159 211.207 160.367C207.344 161.618 203.387 162.561 199.378 163.197C198.938 163.267 198.69 163.819 198.799 164.217C198.928 164.687 199.374 164.865 199.818 164.796C207.115 163.641 214.224 161.436 220.92 158.311C224.254 156.755 227.48 154.964 230.563 152.952C233.57 150.992 236.517 148.85 239.144 146.394C241.979 143.743 244.417 140.581 245.572 136.831C245.886 135.811 244.288 135.374 243.977 136.39H243.974ZM6.98045 134.401C5.46536 139.512 4.6284 144.818 4.43653 150.145C4.24466 155.471 4.71441 160.824 5.75976 166.047C6.80511 171.271 8.4724 176.388 10.6656 181.258C12.8424 186.088 15.5748 190.669 18.8101 194.863C22.0454 199.057 25.7736 202.884 29.955 206.154C30.4975 206.578 31.0466 206.995 31.6024 207.406C31.963 207.671 32.5254 207.465 32.7338 207.108C32.9786 206.687 32.7966 206.241 32.436 205.976C28.2579 202.907 24.4967 199.276 21.2217 195.264C17.9467 191.252 15.1646 186.822 12.9052 182.158C10.6458 177.494 8.91897 172.545 7.75784 167.481C6.59671 162.426 6.01779 157.242 6.05087 152.055C6.08395 146.867 6.73897 141.703 8.05889 136.688C8.22098 136.069 8.39298 135.457 8.57493 134.845C8.87927 133.822 7.28149 133.385 6.98045 134.404V134.401Z" fill="#BE6A14"/>
<path d="M237.534 137.187C233.119 136.036 228.568 136.176 224.081 136.099C219.96 136.029 215.82 136.482 211.71 136.904C207.444 137.347 203.155 137.789 198.965 138.664C192.336 140.051 185.787 141.801 179.201 143.391C178.284 143.614 177.361 143.817 176.441 144.027C178.311 142.39 180.283 141.066 182.166 139.622C188.229 134.978 194.279 130.314 200.299 125.61C204.148 122.603 208.053 119.652 211.717 116.428C216.72 112.03 221.496 107.373 226.414 102.875C229.508 100.044 232.689 97.3029 235.82 94.5085C237.051 93.4107 238.308 92.3295 239.44 91.1318C239.824 90.726 240.109 89.9043 239.96 89.4186C239.847 89.0493 238.977 88.7 238.451 88.7133C237.253 88.7399 236.021 88.8497 234.876 89.1791C232.867 89.7612 230.898 90.4998 228.936 91.2316C221.099 94.1525 213.232 96.9935 205.452 100.061C198.402 102.839 191.386 105.733 184.476 108.843C180.012 110.853 175.759 113.348 171.414 115.623C169.577 116.585 167.74 117.543 165.873 118.521C165.867 118.358 165.824 118.245 165.864 118.191C172.436 108.594 179.092 99.0528 185.565 89.3886C190.996 81.2814 196.83 73.5168 203.569 66.4575C204.508 65.4728 205.64 64.6411 206.441 63.5599C206.905 62.9345 206.881 61.9498 207.077 61.1248C206.239 61.0882 205.372 60.8919 204.578 61.0549C203.777 61.2179 203.016 61.6837 202.291 62.1062C196.85 65.2732 191.393 68.4136 185.995 71.6572C179.244 75.7158 172.559 79.8908 166.873 85.4498C161.925 90.2835 156.997 95.1339 152.093 100.011C150.991 101.105 149.991 102.313 148.992 103.511C146.367 106.658 143.769 109.828 141.161 112.988C141.737 111.222 142.495 109.532 143.174 107.812C145.666 101.511 148.482 95.3135 150.541 88.873C154.982 74.9839 157.815 60.5825 163.689 47.1426C164.338 45.6622 163.61 44.7906 162.018 45.0434C161.141 45.1831 160.145 45.5258 159.519 46.1146C156.074 49.3482 152.357 52.3855 149.422 56.0482C144.296 62.4522 139.56 69.1854 134.86 75.9254C129.088 84.2023 125.355 93.5604 121.238 102.709C120.51 104.326 119.699 105.906 118.803 107.762C118.541 107.23 118.402 107.07 118.392 106.904C118.094 102.153 117.803 97.4027 117.522 92.6522C117.326 89.3554 117.158 86.0586 116.953 82.7651C116.681 78.3938 116.383 74.0225 116.102 69.6479C115.986 67.8115 115.834 65.9752 115.798 64.1388C115.745 61.4608 115.807 58.7828 115.764 56.1048C115.751 55.1999 115.864 54.0621 115.387 53.4467C114.603 52.4321 112.124 52.9743 111.525 54.162C110.264 56.667 108.973 59.1653 107.878 61.7469C105.723 66.8334 104.161 72.0963 103.288 77.5754C102.665 81.4877 101.56 85.3367 101.136 89.2656C100.653 93.7234 100.71 98.2377 100.484 102.725C100.375 104.914 100.157 107.093 99.9881 109.279C98.3764 105.883 97.1651 102.393 95.5765 99.0894C90.288 88.1012 84.9498 77.1363 80.3628 65.8255C79.9293 64.7609 79.0324 64.8773 78.248 65.0437C77.6887 65.1601 76.8316 65.5626 76.7521 65.9685C76.4774 67.3458 76.3285 68.7896 76.4179 70.1901C76.58 72.7184 76.9275 75.2368 77.2287 77.7551C77.8807 83.2009 78.5194 88.6468 79.2177 94.0893C79.9623 99.8811 81.0346 105.6 82.5967 111.242C83.8742 115.853 86.1577 119.678 89.8875 122.656C91.0326 123.571 92.1082 124.582 93.1639 125.603C94.7458 127.13 94.5804 128.215 92.6708 129.103C90.9201 129.915 89.166 130.717 87.4054 131.525C87.3359 131.482 87.2333 131.448 87.187 131.382C86.8891 130.959 86.5913 130.54 86.3133 130.104C81.7793 122.992 78.8139 118.478 72.4035 115.231C69.6003 114.03 62.6934 111.518 59.5891 111.481C55.3761 111.428 47.6121 112.064 43.5612 113.072C34.662 115.284 27.0038 118.933 21.0468 125.793C13.842 134.073 14.3384 145.214 14.0108 156.166C13.9214 159.163 14.4046 162.194 14.8282 165.181C15.4901 169.865 16.8305 174.373 18.7467 178.711C21.146 184.137 22.6982 189.866 26.7027 194.204C30.032 197.81 32.9411 201.815 37.0945 204.5C41.4729 207.331 46.9833 209.703 52.1361 209.913C56.1638 210.076 62.0977 209.646 66.1055 209.31C69.928 208.991 75.3886 207.121 79.1151 205.328C83.9304 203.01 86.6608 199.899 86.6608 199.899C86.6608 199.899 91.1517 205.405 99.5347 208.838C99.9682 209.094 100.501 209.204 101.001 209.317C102.629 209.68 104.287 209.936 105.896 210.368C111.932 211.992 117.978 212.717 124.144 211.06C127.434 210.175 130.766 209.374 133.434 207.121C135.883 205.052 138.153 202.767 140.546 200.624C140.874 200.332 141.473 200.162 141.913 200.215C143.66 200.435 145.384 200.807 147.128 201.05C151.408 201.649 155.74 201.992 159.969 202.837C166.098 204.061 172.171 205.581 178.241 207.082C182.871 208.226 187.461 209.527 192.065 210.771C192.909 211 193.749 211.536 194.57 211.496C195.457 211.456 196.324 210.911 197.198 210.585C196.893 209.893 196.768 208.998 196.255 208.535C192.747 205.368 189.02 202.497 185.016 199.942C181.289 197.564 177.86 194.713 174.28 192.098C172.926 191.11 171.51 190.205 169.858 189.084C170.5 189.084 170.785 189.061 171.063 189.087C175.114 189.46 179.161 190.042 183.222 190.168C189.159 190.355 195.106 190.252 201.05 190.205C204.925 190.175 208.801 190.102 212.67 189.909C216.135 189.733 219.59 189.353 223.052 189.081C224.597 188.961 226.149 188.921 227.691 188.775C228.939 188.658 230.197 188.525 231.415 188.239C232.768 187.923 232.954 187.045 231.931 186.103C231.63 185.824 231.239 185.624 230.865 185.441C225.616 182.89 220.358 180.351 215.109 177.8C205.72 173.239 195.622 170.76 185.724 167.696C182.851 166.808 179.916 166.133 177.265 165.428C185.803 162.51 194.534 159.682 203.148 156.529C208.589 154.536 213.868 152.097 219.193 149.789C225.537 147.041 231.835 144.18 238.189 141.459C239.46 140.916 239.106 139.622 239.788 138.847C239.864 138.761 239.665 138.258 239.477 138.142C238.861 137.766 238.219 137.36 237.531 137.18L237.534 137.187ZM83.8973 87.6188C86.8593 96.8738 88.9178 106.588 93.0315 115.633C87.1042 107.183 82.653 98.251 83.8973 87.6188ZM69.4249 201.719L75.6567 194.403L68.3096 198.914L59.7314 199.533L69.094 201.812C67.469 202.274 65.6918 202.69 63.716 203.013C58.9338 203.795 53.7578 203.898 48.4924 202.647L55.4986 193.399L45.1465 200.142L41.3141 199.936C35.4 196.519 31.9515 190.558 29.3768 185.428L37.0614 190.96L48.3104 176.758L35.4199 185.331L28.6023 183.868C27.7319 182.094 26.9443 180.468 26.1765 179.167C24.6607 176.602 22.8802 170.561 21.8675 164.652L27.1495 169.789L40.9501 155.464L25.9216 164.05L21.4902 162.157C21.1427 159.566 20.974 157.097 21.0865 155.088C21.3943 149.592 21.6458 145.657 22.0926 142.483L26.3188 147.982L41.5822 135.87L26.7755 142.623L22.3871 140.663C23.0689 136.984 24.1577 134.309 26.1831 131.076C32.1667 121.535 61.2769 110.463 76.1697 126.858L73.4857 130.48L57.332 134.549L76.8746 134.576L77.5663 128.538C77.8046 128.847 78.0495 129.143 78.2778 129.469C79.4891 131.206 82.4776 135.497 83.2255 135.753C80.2437 138.195 76.1101 143.451 73.436 150.916H67.5385L72.8866 152.473C72.0758 155.038 71.4768 157.869 71.1227 160.893L59.9896 168.042L43.2865 167.204L61.5516 173.974L70.9705 162.187C70.4972 167.57 70.9208 173.611 72.7146 180.208L64.9472 186.13L49.0914 184.45L66.1949 191.043L73.2507 181.988C73.4559 182.657 73.618 183.309 73.8497 183.991C74.2832 185.252 74.8657 186.572 75.6832 187.633C78.8834 191.792 78.6286 191.31 81.9149 195.431C81.1802 195.771 77.4504 199.36 69.4183 201.712L69.4249 201.719ZM171.291 125.736C176.676 119.515 183.53 115.227 190.407 110.992C192.469 109.725 194.858 108.996 197.128 108.101C180.614 120.387 165.638 134.276 152.225 150.241C153.473 147.916 154.456 145.64 155.832 143.634C157.404 141.345 159.268 139.25 161.101 137.157C164.464 133.321 167.952 129.592 171.288 125.736H171.291ZM163.06 113.055C153.936 125.637 146.854 133.714 140.807 138.498C139.229 137.373 137.647 136.249 136.012 135.088C143.875 126.512 152.791 119.289 163.06 113.055ZM148.74 166.762C148.687 167.583 148.883 170.105 148.307 173.851L146.367 175.015L143.928 172.919C144.408 170.784 144.729 168.591 144.881 166.339C145.04 164.227 145.11 162.55 145.12 161.146L147.221 167.138L148.763 163.967C148.793 164.869 148.796 165.79 148.737 166.758L148.74 166.762ZM148.012 162.467L145.126 160.754C145.126 154.227 143.706 154.34 143.369 148.112C143.389 148.458 147.737 153.505 148.628 161.935L148.012 162.47V162.467ZM155.157 57.7315C149.538 72.1828 140.989 85.1171 134.311 99.0062C138.252 83.7166 144.928 69.8109 155.157 57.7315ZM113.027 113.976C113.104 110.859 113.57 107.749 113.861 104.642C114.576 112.513 115.288 120.36 115.999 128.208C113.468 128.029 113.325 127.869 113.266 125.321C113.18 121.538 112.935 117.756 113.027 113.98V113.976ZM110.065 182.151C107.014 182.733 104.128 181.765 101.587 180.002C98.7238 178.019 96.6157 175.434 96.0961 171.865C95.9075 170.567 96.0663 169.22 96.0663 167.896C95.9571 167.886 95.8479 167.879 95.7387 167.869C96.0399 165.161 96.116 162.404 96.7084 159.765C97.2875 157.177 99.4023 155.437 101.12 153.525C101.209 153.425 101.345 153.282 101.451 153.288C104.284 153.488 107.216 153.305 109.926 154.004C114.636 155.215 117.383 158.382 117.863 163.491C118.299 168.165 118.141 172.723 116.016 176.951C114.778 179.413 112.915 181.609 110.069 182.151H110.065ZM131.441 201.892C131.236 202.098 131.028 202.304 130.823 202.511C128.953 203.499 127.176 204.786 125.193 205.405C122.287 206.313 119.372 207.584 116.512 207.018C121.553 204.68 125.706 201.137 129.479 197.128L127.728 202.91L135.132 199.021C133.907 199.982 132.616 200.88 131.441 201.892ZM138.17 196.093C137.461 197.021 136.598 197.8 135.697 198.545L131.911 198.845L130.644 195.854C132.335 193.978 133.967 192.028 135.568 190.059C136.674 188.695 137.657 187.278 138.57 185.827L138.176 192.387L143.614 187.63C142.214 190.288 140.437 193.126 138.17 196.1V196.093ZM144.061 186.722L141.168 187.663L139.149 184.922C141.257 181.383 142.786 177.597 143.753 173.598L144.752 179.603L148.128 174.929C147.539 178.146 146.354 182.154 144.061 186.722ZM183.632 203.612C177.695 202.228 172.731 199.237 168.008 195.568C174.27 196.326 178.972 199.789 183.632 203.612ZM178.867 183.858C169.683 182.939 160.502 182.018 151.272 181.093C151.864 178.658 152.357 176.639 152.887 174.473C161.859 176.772 170.745 179.227 178.867 183.858ZM175.881 155.624C168.756 157.863 161.631 160.108 154.502 162.337C153.046 162.793 152.817 162.58 152.695 161.036C152.616 160.022 152.43 159.017 152.295 158.022C161.343 153.658 178.867 150.368 190.168 151.146C185.406 152.636 180.64 154.127 175.878 155.62L175.881 155.624ZM49.7467 132.842L33.6989 126.255L48.6909 127.995L61.4027 119.715L49.75 132.839L49.7467 132.842ZM55.6641 155.115L38.1304 146.266L54.2542 149.033L67.9224 138.458L55.6641 155.118V155.115Z" fill="white"/>
</g>
</g>
</svg>
