<svg width="250" height="250" viewBox="0 0 250 250" fill="none" xmlns="http://www.w3.org/2000/svg">
<g id="Group 5">
<rect id="image 25" width="250" height="250" fill="#BE6A14"/>
<g id="cacau">
<path d="M201.754 94.3035C205.062 95.8972 205.413 91.1493 202.844 89.2715C198.962 86.4349 188.589 83.5431 188.589 83.5431C190.406 74.9463 195.342 72.0023 200.982 70.3495C207.593 68.4121 215.374 75.598 217.059 74.5715C217.059 66.7191 206.518 65.0096 200.982 66.7962C195.927 68.4277 191.002 70.0393 186.532 78.5498C184.808 81.8343 182.988 83.5503 180.186 84.6217C173.366 86.7773 169.305 88.8301 164.852 94.35C161.084 99.0224 161.856 105.977 158.815 108.486C153.926 112.518 148.776 114.887 147.014 117.154C137.855 128.945 142.632 137.316 137.239 141.261C131.846 145.207 129.402 153.761 133.127 160.465C135.342 164.453 140.055 166.591 142.615 166.591C145.174 166.591 138.877 162.284 137.239 158.56C133.127 149.208 138.724 141.93 143.257 141.93C156.497 141.93 159.521 152.468 161.432 149.853C167.263 141.878 144.385 136.938 144.385 136.938C144.385 136.938 146.04 123.465 151.167 119.442C159.219 113.123 166.636 113.699 177.476 122.025C184.113 127.123 186.32 123.143 182.064 118.801C174.365 110.949 163.715 109.565 163.715 109.565C163.715 109.565 165.794 100.252 168.961 96.3908C172.234 92.4002 173.522 90.2717 178.87 89.2044C189.822 87.0186 191.697 89.4581 201.754 94.3035Z" fill="white"/>
<path fill-rule="evenodd" clip-rule="evenodd" d="M137.239 199.484C130.968 196.465 127.775 196.582 125.404 196.669C122.916 196.761 121.335 196.819 118.055 193.185C115.841 190.731 115.975 189.245 116.179 187C116.373 184.856 116.631 182.019 114.965 176.985C114.386 175.239 113.803 173.664 113.253 172.179C111.483 167.4 110.056 163.545 110.239 157.861C110.531 148.838 112.824 142.706 118.055 129.192C121.176 121.128 120.304 121.4 122.653 118.231C123.66 116.873 127.284 111.845 128.913 110.388C133.127 106.616 130.945 104.634 132.084 102.561C134.238 98.6398 136.724 96.4197 139.487 93.0636C143.334 88.3926 146.623 86.135 151.167 81.666C155.357 77.5457 160.756 72.5355 161.856 71.0764C163.402 69.0263 164.361 67.7557 168.961 65.3897C174.615 62.4818 177.437 60.1666 180.186 57.9103C183.463 55.2213 186.638 52.6159 194.385 49.1904C202.874 45.4369 206.005 45.5813 209.737 45.7534C210.551 45.7909 211.393 45.8298 212.326 45.8298C215.634 45.83 217.976 44.6569 220.129 43.5782C223.955 41.6619 227.186 40.0435 234.179 45.8298C239.641 50.3498 239.458 53.4691 239.268 56.7215C239.148 58.7582 239.026 60.8471 240.285 63.3648C246.535 75.8642 247.719 79.2314 247.166 96.1715C247.122 97.4913 247.152 98.7542 247.182 100.044C247.305 105.321 247.439 111.042 242.647 122.925C242.081 124.328 241.531 125.742 240.983 127.149C238.288 134.066 235.652 140.835 231.532 145.539C227.73 149.88 225.477 153.691 223.282 157.404C220.217 162.587 217.266 167.579 210.371 173.555C207.421 176.112 205.125 178.325 203.05 180.323C197.048 186.105 192.9 190.101 180.137 195.501C159.197 204.36 143.381 202.442 137.239 199.484ZM139.773 189.116C134.086 189.449 125.833 191.824 141.48 193.354C148.662 195.394 164.904 192.769 177.476 185.827C184.905 181.725 191.314 174.339 194.385 172.179C200.325 168.002 204.115 161.634 210.371 154.741C219.862 144.284 223.539 138.033 228.743 128.23C237.024 112.631 238.425 110.324 238.416 103.837C238.413 101.514 238.889 92.0395 239.268 90.2567C241.294 80.7167 237.363 72.0141 237.363 72.0141C237.363 72.0141 239.241 87.741 234.557 96.3908C234.26 96.939 233.893 98.1843 233.351 100.022C232.008 104.574 229.593 112.762 224.52 123.006C221.318 129.47 216.683 134.368 211.968 139.351C209.407 142.058 206.822 144.79 204.431 147.81C202.401 150.374 200.767 152.664 199.286 154.741C195.813 159.608 193.178 163.299 188.255 166.591C186.87 167.517 184.488 169.081 182.064 170.659C175.822 174.724 171.182 178.259 165.968 180.893C154.799 186.536 145.461 188.783 139.773 189.116ZM159.966 171.642C140.582 183.098 127.458 179.911 124.025 171.647C121.268 165.009 117.056 156.421 123.311 145.527C125.041 142.514 129.539 141.378 130.582 137.752C131.272 135.353 126.866 135.238 126.866 135.238C129.577 128.062 132.192 117.958 136.338 112.578C139.042 109.068 144.57 107.044 148.068 104.474C151.167 102.198 144.385 100.044 144.385 100.044C149.896 92.9322 155.903 88.7241 161.816 83.2681C165.387 82.7471 172.617 81.3113 175.006 79.5674C178.029 77.3614 169.922 75.6462 169.922 75.6462C169.922 75.6462 175.087 70.5483 178.482 67.9429C183.233 64.2974 190.724 63.3648 196.097 63.3648C199.286 63.3648 197.921 60.3471 194.385 58.975C200.455 53.6552 217.095 54.7682 221.629 56.7215C230.655 62.2643 230.919 79.9272 230.919 79.9272C230.919 79.9272 226.568 77.3713 226.085 79.5674C225.602 81.7635 228.541 90.5849 228.115 93.3499C227.269 98.831 223.282 108.486 223.282 108.486C223.282 108.486 216.171 98.2673 214.279 102.561C212.646 106.265 215.629 111.379 215.629 115.979C215.629 125.026 210.721 130.595 202.167 138.986C202.167 138.986 197.016 128.384 192.832 133.321C191.012 135.469 197.682 145.892 185.372 157.209C179.382 163.329 178.454 162.325 173.366 164.549C173.366 164.549 168.221 157.908 165.968 160.465C163.715 163.023 162.582 170.096 159.966 171.642Z" fill="white"/>
<path fill-rule="evenodd" clip-rule="evenodd" d="M7.52801 174.311C7.8667 180.422 -0.819067 180.381 4.31022 190.42C9.43969 200.459 12.4805 193.557 16.6481 198.987C23.13 207.431 33.9378 207.358 46.6038 208.307C59.2056 209.252 66.8071 205.777 79.2827 203.763C97.9525 200.748 108.253 193.298 108.253 193.298C110.498 186.043 108.253 176.661 108.253 176.661C108.253 176.661 93.0536 183.017 84.1348 186.882C74.0905 191.235 61.4777 191.542 48.8237 194.387C40.1693 196.332 29.4047 194.387 29.4047 194.387C37.7932 189.626 50.9139 187.527 63.5553 183.367C71.3037 180.816 80.3487 176.776 87.7982 173.189C96.3305 169.08 102.77 165.566 102.77 165.566C101.54 154.279 104.179 135.948 114.608 122.025C102.132 123.379 87.3843 134.478 79.2827 141.93C61.1329 158.624 52.271 158.907 43.3932 165.566C38.168 169.485 29.4047 179.386 22.204 178.101C22.204 178.101 37.2011 159.138 46.6038 152.846C63.5553 141.502 64.0307 136.841 72.0736 129.516C80.6777 121.68 89.2822 120.097 97.9525 113.699C108.793 105.699 119.001 99.7681 126.866 98.2673C131.361 87.7797 144.631 82.6429 148.068 72.8748C148.068 72.8748 145.753 64.9077 127.65 65.3897C116.553 65.6852 90.6944 68.005 78.4634 78.0441C71.6113 83.6684 59.2436 88.3394 52.3827 92.9322C44.5732 98.16 39.478 102.322 29.4047 114.962C23.2161 122.728 22.2041 131.228 13.4962 143C6.09353 153.007 6.92455 163.422 7.52801 174.311ZM16.6481 161.193C15.8329 168.614 19.8497 152.846 30.3643 143C42.7317 131.42 43.6434 120.111 56.2352 108.327C62.4969 102.467 74.8652 98.3471 86.332 92.9322C93.226 89.6767 96.6098 84.7488 104.179 82.0008C108.418 80.4617 116.766 80.8837 120.995 79.5674C139.954 73.6667 131.431 71.883 120.995 72.8748C114.509 73.4911 105.808 75.0955 96.4431 78.0441C88.1963 80.6407 85.4276 84.2798 77.2104 89.2044C69.6734 93.7213 57.9158 97.7176 50.4563 104.474C43.5721 110.71 39.0078 116.606 34.4039 122.025C29.3349 127.991 34.4039 128.162 20.4988 145.999C16.7355 150.827 17.2495 155.718 16.6481 161.193Z" fill="white"/>
<path fill-rule="evenodd" clip-rule="evenodd" d="M183.551 131.364C183.551 131.364 175.481 143.01 169.003 146.133C172.893 151.552 187.51 141.456 183.551 131.364Z" fill="white"/>
<path fill-rule="evenodd" clip-rule="evenodd" d="M204.26 103.368C204.26 103.368 198.982 113.234 191.03 120.205C202.107 120.552 211.093 109.319 204.26 103.368Z" fill="white"/>
<path fill-rule="evenodd" clip-rule="evenodd" d="M217.069 79.7888L211.2 92.0585C222.277 92.4053 217.069 79.7888 217.069 79.7888Z" fill="white"/>
<path fill-rule="evenodd" clip-rule="evenodd" d="M158.387 155.541L149.051 165.41C162.655 164.61 158.387 155.541 158.387 155.541Z" fill="white"/>
<path fill-rule="evenodd" clip-rule="evenodd" d="M181.359 41.2785C181.734 41.6362 181.747 42.2297 181.389 42.604C171.579 52.867 165.668 58.5979 161.526 61.4287C159.442 62.8529 157.721 63.6048 156.107 63.7854C154.469 63.9687 153.062 63.5503 151.652 62.8754C150.827 62.4805 149.928 61.9575 148.963 61.3958C148.356 61.0424 147.722 60.6737 147.064 60.3119C145.305 59.3449 143.192 58.3177 140.448 57.4359C134.962 55.673 126.87 54.4656 113.957 55.5914C113.442 55.6364 112.987 55.2547 112.942 54.7389C112.897 54.2231 113.279 53.7685 113.795 53.7235C126.891 52.5816 135.243 53.794 141.022 55.6508C143.91 56.579 146.135 57.6618 147.967 58.6688C148.733 59.0899 149.404 59.4809 150.017 59.8386C150.914 60.362 151.688 60.814 152.462 61.1841C153.698 61.7756 154.739 62.0519 155.898 61.9221C157.082 61.7896 158.507 61.2208 160.468 59.8806C164.416 57.1826 170.186 51.6104 180.034 41.3084C180.392 40.9341 180.985 40.9207 181.359 41.2785ZM119.818 205.057C115.942 203.955 112.979 203.716 110.674 204.901C100.678 210.043 92.8034 211.417 85.3615 212.716C84.9492 212.788 84.5382 212.859 84.1282 212.932C76.3527 214.3 68.9299 215.811 59.6532 221.714C59.2164 221.992 58.6369 221.863 58.359 221.427C58.081 220.99 58.2098 220.41 58.6466 220.132C68.2378 214.029 75.9529 212.466 83.8033 211.085C84.2072 211.014 84.6114 210.943 85.0163 210.873C92.4456 209.575 100.078 208.243 109.817 203.234C112.805 201.697 116.392 202.134 120.331 203.253C122.32 203.819 124.461 204.578 126.73 205.404C127.122 205.547 127.518 205.692 127.919 205.838C129.843 206.542 131.862 207.28 133.99 207.993C144.251 211.429 156.902 214.224 172.061 209.171C172.552 209.007 173.083 209.272 173.247 209.764C173.41 210.255 173.145 210.786 172.654 210.949C156.938 216.188 143.825 213.264 133.395 209.771C131.24 209.049 129.193 208.301 127.268 207.597C126.869 207.451 126.476 207.307 126.088 207.166C123.818 206.339 121.735 205.602 119.818 205.057Z" fill="#653024"/>
</g>
</g>
</svg>
