<svg width="250" height="250" viewBox="0 0 250 250" fill="none" xmlns="http://www.w3.org/2000/svg">
<g id="Group 23">
<rect id="image 13" width="250" height="250" fill="#BE6A14"/>
<g id="cafe">
<path d="M128.754 154.486C133.744 152.07 139.389 150.893 144.915 151.662C145.966 151.808 145.666 153.424 144.619 153.279C143.943 153.186 143.267 153.115 142.587 153.081C137.305 152.824 131.999 154.414 127.443 157.02C122.614 159.783 118.682 163.452 114.943 167.858C111.205 172.264 107.951 176.979 105.055 182.077C102.16 187.175 99.7174 192.556 97.787 198.065C95.8566 203.573 94.4454 209.26 93.5449 215.026C93.383 216.073 91.7652 215.774 91.9264 214.731C92.041 213.996 92.1582 213.266 92.2923 212.535C93.3505 206.62 94.9868 200.764 97.0904 195.187C99.194 189.61 101.838 184.169 104.885 179.122C107.932 174.075 111.4 169.229 115.38 164.874C119.21 160.685 123.764 156.902 128.754 154.486Z" fill="#653024"/>
<path d="M28.4406 15.9381C26.0051 15.1722 23.1151 16.6289 22.5135 19.1788L22.5123 19.1853C22.2702 20.2137 20.6511 19.9211 20.8939 18.8895C21.298 17.179 22.4516 15.7224 23.9936 14.8848C25.6393 13.9926 27.3899 13.8781 29.1557 14.4649C29.9059 14.7156 30.7055 15.0623 31.4833 14.7433C32.1707 14.4612 32.7116 13.865 33.3023 13.435C34.6011 12.4828 36.1618 11.9627 37.7442 11.744C41.1144 11.2806 44.6589 12.0922 47.8519 13.1236C51.4842 14.2954 54.9029 16.0296 57.9904 18.2747C60.1138 19.8193 62.4754 22.0778 62.5504 24.8334C65.1522 24.3242 67.9429 24.0927 70.3529 25.3629C72.4148 26.4515 73.9129 28.4429 73.8284 30.8367C73.7858 32.0352 73.5464 33.1944 73.7208 34.3959C73.8573 35.3297 74.1619 36.2408 74.5015 37.1249C75.6685 40.1682 77.8199 43.6945 76.4425 46.8887C76.5054 46.8739 76.5696 46.8544 76.6352 46.8313C77.0639 46.6824 77.4358 46.4062 77.7882 46.1264C78.577 45.492 79.22 44.704 80.0056 44.0689C85.1496 39.8998 93.9652 42.0858 96.5498 48.1487C96.9664 49.1237 95.4165 49.6759 95.0019 48.7079C94.3826 47.2514 93.2344 45.9788 91.9139 45.1527C89.4112 43.5859 86.2286 43.1178 83.4482 44.0499C82.7176 44.294 82.1156 44.5849 81.4848 45.0143C80.8119 45.4728 80.3305 45.9996 79.7375 46.5696C78.3812 47.8722 76.5332 49.3021 74.6833 48.025C74.291 47.7562 74.36 47.1974 74.5948 46.866C74.6989 46.718 74.8157 46.5188 74.9081 46.3252C75.0005 46.1315 75.0847 45.9096 75.1157 45.795C75.2284 45.3812 75.2713 45.0014 75.2665 44.6631C75.2528 43.7349 75.0319 42.9327 74.7299 42.0621C74.1172 40.2961 73.2485 38.6302 72.6505 36.8568C72.3508 35.9733 72.1146 35.0546 72.0246 34.1226C71.9135 32.9595 72.194 31.8312 72.1882 30.6772C72.1759 28.6834 70.7089 27.2157 68.9335 26.5169C66.6527 25.6189 64.0036 26.1639 61.6991 26.6717C61.1756 26.7898 60.7196 26.1752 60.8191 25.7055C61.1332 24.2124 60.3968 22.8648 59.4565 21.754C58.3589 20.4606 56.8986 19.4486 55.487 18.5356C52.5621 16.6444 49.3343 15.1823 45.9739 14.2607C43.0973 13.4743 39.8313 12.8038 36.8745 13.5666C36.235 13.7338 35.5951 13.9576 35.0142 14.2792C34.3585 14.6439 33.8305 15.1154 33.212 15.5872C32.5935 16.0589 31.8872 16.4444 31.0968 16.5038C30.1601 16.5766 29.3138 16.2114 28.4406 15.9381Z" fill="#653024"/>
<path d="M230.351 212.96C230.818 209.3 231.427 205.652 231.966 202.001L231.959 202.003C232.115 200.956 233.732 201.255 233.578 202.299C233.252 204.512 232.923 206.727 232.597 208.94C232.436 210.02 232.278 211.1 232.116 212.18C231.985 213.079 231.825 213.988 231.871 214.902C231.911 215.688 232.107 216.372 232.562 217.047C233.017 217.722 233.592 218.308 234.117 218.925C235.213 220.211 236.08 221.596 236.88 223.143C237.68 224.689 238.364 226.271 239.033 227.894C239.702 229.516 240.346 231.148 240.72 232.867C241.4 235.982 240.927 239.578 238.357 241.735C236.179 243.562 232.504 243.462 230.756 241.097C230.127 240.244 231.482 239.312 232.112 240.162C232.895 241.221 234.272 241.502 235.515 241.292C236.892 241.059 237.969 240.073 238.596 238.864C240.036 236.087 239.231 232.905 238.174 230.149C237.021 227.135 235.77 224.052 233.935 221.381C233.48 220.723 232.964 220.071 232.457 219.497C231.95 218.923 231.426 218.353 231.035 217.693C230.166 216.231 230.139 214.606 230.351 212.96Z" fill="#653024"/>
<path d="M206.169 183.328C202.863 185.214 199.735 184.993 197.47 182.951C195.251 180.952 193.944 178.795 195.657 176.291C194.182 174.725 192.531 173.384 191.459 171.678C190.848 170.704 191.178 169.14 191.057 167.501C186.407 163.984 185.873 160.635 189.984 157.574C189.746 157.16 189.497 156.73 189.242 156.295C186.156 159.003 183.071 159.204 180.098 156.449C177.581 154.117 174.574 151.91 176.01 147.695C172.212 144.358 170.758 141.746 174.719 139.249C173.558 138.114 172.424 137.002 171.1 135.704C170.164 140.131 168.307 143.871 165.62 147.179C164.215 148.911 162.765 150.614 161.235 152.243C159.788 153.783 157.739 154.962 156.833 156.744C155.926 158.53 156.133 160.867 155.813 162.96C154.778 169.715 152.738 176.293 149.204 182.013C144.504 189.611 138.949 196.769 131.363 201.852C124.837 206.223 118.494 211.022 110.649 212.97C109.286 213.309 107.912 213.612 106.524 213.83C105.235 214.032 103.996 214.15 103.206 215.449C103.049 215.704 101.806 215.714 101.727 215.54C101.167 214.288 100.277 212.902 100.414 211.664C101.739 199.866 105.995 189.139 113.524 179.972C117.349 175.315 122.016 171.339 126.393 167.154C128.353 165.283 130.512 163.616 132.624 161.91C137.206 158.216 142.621 156.473 148.292 155.394C150.185 155.035 152.181 155.076 153.993 154.501C155.268 154.096 156.397 153.049 157.442 152.127C161.51 148.537 165.337 144.708 167.801 139.789C168.683 138.029 169.248 136.114 169.958 134.269C169.808 134.214 169.657 134.16 169.506 134.106C168.189 135.415 166.868 136.725 165.919 137.667C165.126 139.768 164.65 141.669 163.716 143.313C162.746 145.024 161.535 145.116 159.837 144.054C159.053 143.563 158.332 142.97 157.795 142.578C157.016 144.11 156.374 145.784 155.382 147.216C154.176 148.961 152.476 149.088 150.701 147.844C148.486 146.294 147.105 144.176 146.417 141.558C146.264 140.972 145.87 140.165 145.396 139.998C142.169 138.86 140.041 136.089 139.932 132.613C139.911 131.998 139.924 131.382 139.922 130.623C137.134 130.288 136.014 127.841 134.648 125.676C131.604 127.185 129.472 127.009 127.733 125.111C125.982 123.2 125.057 119.292 127.194 116.211C126.077 116.006 124.972 115.998 124.048 115.579C123.18 115.186 122.505 114.364 122.014 113.957C120.779 115.035 119.722 116.549 118.293 117.08C115.525 118.111 111.689 114.362 112.221 111.315C112.443 110.049 112.182 109.36 111.184 108.489C110.275 107.698 109.928 106.291 109.242 105.214C108.944 104.745 108.442 104.108 107.996 104.077C105.081 103.862 103.713 101.871 102.585 99.7264C101.441 100.797 100.436 102.338 99.0485 102.863C97.6429 103.395 95.68 103.353 94.2742 102.792C91.1829 101.552 89.5012 97.3886 90.3034 94.0366C86.2798 92.7732 84.9587 91.586 85.115 88.7275C85.3079 85.214 87.8192 83.9253 91.3277 83.4739C90.2504 82.8359 89.489 82.4093 88.7508 81.9469C88.0126 81.4846 87.2984 80.9831 86.6641 80.5564C86.2132 82.0111 85.8878 83.4754 85.3108 84.8336C84.4789 86.7968 82.8215 87.7168 80.753 87.3755C78.6716 87.0319 76.9475 85.8713 76.2984 83.7745C75.9933 82.7931 75.6048 82.3579 74.6571 82.3083C74.5376 82.3032 74.4046 82.2989 74.3081 82.2411C73.264 81.6226 72.2936 80.7301 71.1711 80.4481C70.1445 80.1903 68.8992 80.8516 67.8425 80.6484C65.0317 80.1046 61.6849 75.3159 63.0993 71.745C63.3176 71.1934 63.9197 70.7922 64.432 70.2242C64.082 68.1018 62.2603 65.814 64.7709 63.4893C62.6781 61.8404 60.7049 60.2868 58.7435 58.7421C56.7962 61.2599 55.2391 64.3503 51.1809 62.9837C48.4567 66.2351 45.3638 66.0441 42.8792 62.4455C42.1733 61.4243 41.4946 60.6921 40.1201 60.2704C36.7813 59.2492 34.987 55.1519 35.752 52.1673C36.1816 50.4815 37.5387 49.6669 39.1455 49.4427C40.1135 49.3088 40.8603 49.3049 41.3098 48.1674C41.5337 47.6035 42.5059 47.3368 43.1378 46.9377C40.7761 44.9488 40.7353 44.8979 38.2566 46.7205C36.984 47.6575 35.7716 48.7224 34.7107 49.8918C32.499 52.338 32.3984 54.1809 34.6163 56.7349C38.0459 60.6899 41.7306 64.421 45.1805 68.3563C48.2989 71.9103 51.5274 75.4109 53.4074 79.8614C53.4544 79.9702 53.5122 80.0743 53.5739 80.1758C56.5289 85.0399 57.912 90.4488 58.5891 95.9859C59.1794 100.829 58.331 105.636 56.7173 110.257C55.5602 113.574 53.8336 116.767 53.2091 120.171C52.4784 124.155 52.395 128.33 54.1572 132.237C54.7825 133.625 54.9868 134.955 54.2392 136.459C53.5615 137.819 52.546 137.884 51.6556 137.23C46.0532 133.102 39.5432 130.201 34.6995 125.092C32.5639 122.837 30.8957 120.113 29.1706 117.499C27.4746 114.927 25.6432 112.363 24.4494 109.552C21.2303 101.969 18.6408 94.1647 18.6619 85.7879C18.6718 82.2142 18.6699 78.5949 19.2145 75.0788C20.4623 66.9997 23.6454 59.5683 27.4154 52.8223C26.2603 51.4049 25.3097 50.0583 24.1545 48.9149C23.7242 48.4887 22.8293 48.5156 22.1402 48.3696C18.4541 47.5823 16.2182 42.0075 18.3916 38.8226C16.9213 37.5547 15.8393 35.8666 16.2548 33.9843C16.6745 32.0795 18.4515 31.365 20.4133 31.3026C20.7991 30.4943 21.1873 29.673 21.46 29.098C17.9965 25.0364 14.4752 21.0713 11.1807 16.9271C10.3491 15.8796 10.2486 14.2572 9.80895 12.8971C9.53843 12.0556 9.27053 11.2181 9 10.3767C9.14705 10.2498 9.29737 10.1236 9.44382 10C9.9282 10.2957 10.5305 10.496 10.8799 10.9074C13.8611 14.4062 16.7557 17.9761 19.765 21.45C21.0405 22.9229 22.5292 24.2175 24.078 25.7503C24.6063 20.6273 28.6453 18.3782 32.9156 20.4853C36.1548 17.8727 39.5567 17.8028 42.991 20.1815C43.4988 20.5316 44.271 20.6627 44.9109 20.6393C47.9487 20.5295 50.4154 22.0363 51.6785 24.8168C51.8311 25.1521 52.2194 25.5339 52.5634 25.6101C55.9985 26.3616 56.8321 27.3794 56.7919 30.7537C57.9934 31.371 59.0934 32.0131 60.2606 32.5071C60.7169 32.7008 61.3152 32.5763 61.8476 32.5733C63.168 32.5607 64.6509 32.1367 65.7782 32.5933C68.4387 33.6644 68.7411 36.3929 66.8714 39.072C66.3503 39.8155 66.1196 40.7624 65.7514 41.6207C66.9768 42.0352 67.829 42.1675 68.5122 42.5831C70.9946 44.0961 71.1585 44.771 70.7445 47.7028C70.2348 51.3021 68.7629 54.3111 65.8431 56.6412C66.9471 57.5347 68.0394 58.4194 69.2598 59.4077C69.3318 56.8813 69.9058 54.2995 72.1308 53.3862C74.0736 52.5885 76.5184 53.0119 79.0652 52.8793C81.0912 49.1294 86.6708 48.622 90.1809 50.2961C93.9706 52.1049 95.557 56.0773 94.2846 60.406C95.3464 61.1648 96.639 61.7051 97.3138 62.6772C97.9753 63.6302 98.0017 65.0184 98.3586 66.4102C99.4899 66.9178 100.995 67.6306 102.539 68.2571C102.82 68.3718 103.243 68.0683 103.605 68.0675C105.784 68.0582 108.097 67.6122 110.107 68.2C113.168 69.0937 114.063 71.2555 113.489 74.402C113.307 75.3978 113.125 76.3904 113.018 76.9691C115.177 77.4405 117.348 77.6569 119.302 78.4249C120.908 79.0594 121.659 81.4589 120.474 84.4368L122.4 84.7888C122.25 84.1634 122.107 83.5958 121.981 83.0247C121.7 81.7303 122.123 80.6815 123.212 79.9616C124.936 78.8232 128.673 78.9849 130.29 80.2362C132.26 81.7557 132.494 83.8535 132.114 86.2503C132.96 86.348 133.755 86.353 134.504 86.5399C136.397 87.013 137.906 87.9605 138.817 89.8345C139.013 90.2413 140.09 90.3745 140.762 90.3738C145.832 90.368 148.736 93.4987 148.107 98.1721C149.623 98.2588 151.353 97.93 152.622 98.5429C153.943 99.1821 155.056 100.592 155.844 101.915C157.186 104.172 156.89 106.571 155.622 108.013C155.922 109.258 156.187 110.366 156.486 111.6C158.654 111.017 161.034 111.098 163.183 112.349C165.32 113.595 167.062 115.24 167.083 118.121C170.46 117.362 173.52 117.533 175.242 121.019C176.306 123.172 174.876 126.389 171.691 128.978C173.311 130.561 174.908 132.122 176.517 133.696C179.449 129.855 183.019 129.087 186.8 131.563C188.747 129.669 191.105 129.161 193.869 129.556C195.594 129.801 196.657 130.591 197.285 131.999C198.331 134.342 198.462 136.838 197.559 139.223C197.183 140.217 196.143 140.962 195.518 141.687C195.61 143.542 195.732 145.502 195.801 147.459C195.887 149.978 193.753 150.433 191.781 151.263C193.952 154.146 195.956 156.808 197.729 159.163C199.675 158.162 201.338 156.832 203.196 156.46C206.596 155.778 210.317 158.236 211.133 162.599C211.472 164.412 211.473 166.287 211.644 168.309C215.214 170.168 216.498 173.745 214.736 177.135C213.923 178.701 212.608 178.811 211.178 178.84C210.727 178.852 210.273 178.739 209.534 178.647C210.107 179.788 210.576 180.715 211.037 181.648C211.481 182.548 211.914 183.453 212.417 184.487C214.345 182.106 216.819 182.501 219.161 183.357C221.249 184.12 222.283 186.581 222.04 189.367C226.55 189.055 227.443 192.389 228.352 195.7C229.126 198.518 228.386 201.367 226.937 202.536C227.551 204.512 228.463 206.273 228.579 208.082C228.773 211.108 227.436 212.053 223.793 211.869C225.088 214.438 226.314 216.891 227.556 219.333C229.605 223.37 231.754 227.362 233.664 231.464C234.14 232.483 234.023 233.882 233.844 235.059C233.726 235.829 233.004 236.506 232.554 237.225C231.851 236.753 230.869 236.436 230.494 235.776C228.801 232.807 227.235 229.761 225.709 226.701C222.668 220.612 219.685 214.493 216.368 208.356C216.464 209.112 216.423 209.92 216.676 210.618C218.167 214.727 215.269 219.293 210.856 219.803C206.727 220.281 202.355 217.09 200.715 214.194C199.361 211.801 200.965 208.869 204.105 207.732C204.922 207.437 205.755 207.199 206.525 206.955C205.715 205.865 204.839 204.822 204.119 203.678C202.088 200.453 202.691 198.95 206.253 197.572C208.81 196.583 210.909 197.541 213.387 198.585C210.983 193.508 208.575 188.43 206.164 183.341L206.169 183.328ZM31.1892 62.4876C30.9879 62.4909 30.7827 62.4968 30.5814 62.5001C30.4489 64.0431 29.9433 65.6683 30.2649 67.1072C30.988 70.3504 31.9541 73.5644 33.1225 76.6785C35.2259 82.2825 38.4897 86.8856 44.3561 89.3011C45.9702 89.967 46.8201 89.4006 47.8278 88.6124C49.7584 87.0973 50.2695 84.1833 48.8763 82.7323C46.5614 80.3243 44.1097 78.0417 41.9056 75.5403C38.18 71.3207 33.5996 67.8035 31.1957 62.4888L31.1892 62.4876ZM138.275 189.412C144.892 183.156 151.558 167.991 151.406 159.609C150.172 160.409 149.136 161.115 148.067 161.765C145.638 163.243 142.783 164.288 140.845 166.246C137.519 169.605 136.447 174.117 137.488 178.692C138.301 182.269 139.666 185.679 138.275 189.412ZM23.1047 82.2859C21.1121 93.8412 29.7732 114.488 39.7958 121.93C39.2736 120.054 39.024 118.277 38.2992 116.721C36.8828 113.682 35.3004 110.71 33.6069 107.814C31.8112 104.745 29.6267 101.9 27.9411 98.7784C25.1769 93.6584 24.0891 87.9895 23.1079 82.2865L23.1047 82.2859ZM204.624 212.853C205.078 213.294 205.474 213.837 206.002 214.167C209.305 216.225 211.781 216.547 213.704 212.541C213.898 212.139 214.366 211.867 214.56 211.464C214.738 211.099 214.712 210.64 214.775 210.221C214.405 210.18 214.024 210.067 213.667 210.115C212.527 210.274 211.395 210.485 210.263 210.692C208.268 211.06 205.995 210.704 204.624 212.85L204.624 212.853ZM143.113 126.909C143.07 128.145 143.196 128.879 143 129.515C141.964 132.881 142.526 134.431 145.87 136.462C146.403 135.764 147.381 135.064 147.451 134.282C147.585 132.766 147.213 131.204 147.019 129.394C146.658 129.175 145.973 128.769 145.298 128.345C144.654 127.936 144.024 127.507 143.116 126.91L143.113 126.909ZM43.1535 40.6884C43.5154 34.5025 42.3009 34.1201 40.1757 33.5044C38.2412 32.9437 36.9731 33.6743 36.2418 35.5456C38.4965 37.2241 40.7747 38.9204 43.1535 40.6884ZM101.252 94.6977C100.342 94.1505 99.2954 93.6383 98.3884 92.9479C97.1637 92.019 96.0908 92.6516 95.259 93.3383C94.5373 93.9349 93.7234 95.0159 93.7957 95.8077C93.8722 96.6303 94.8205 97.5889 95.6372 98.079C96.7374 98.7379 97.5194 97.758 98.068 96.9193C98.89 95.6661 99.676 94.4631 101.252 94.7009L101.252 94.6977ZM118.78 103.829C117.451 101.899 114.402 101.014 112.677 102.009C112.154 102.311 111.502 103.124 111.58 103.596C111.874 105.438 114.225 107.214 116.116 106.002C117.082 105.387 117.908 104.552 118.78 103.829ZM20.0358 40.6736C20.4628 41.6472 20.68 42.305 21.0218 42.8855C21.7213 44.0692 22.5146 45.2702 24.1679 44.4095C25.8731 43.5215 26.5394 41.2207 25.6643 39.7542C25.1965 38.9669 24.8265 38.1207 24.3183 37.1156C23.4819 38.9944 23.0156 41.1714 20.0358 40.6736ZM84.8386 62.8599C85.0915 62.8125 85.3482 62.7625 85.6011 62.7152C85.7343 61.7337 85.7898 60.738 86.0157 59.7802C86.2519 58.7841 86.6585 57.8259 86.9845 56.8696C85.6193 55.631 84.06 55.7604 83.0452 56.7879C82.466 57.3737 82.4936 58.956 82.804 59.9083C83.1592 60.9991 84.1309 61.8851 84.838 62.8631L84.8386 62.8599ZM25.487 48.6171C27.2443 51.548 28.8525 51.2071 31.4809 47.3467C29.7087 45.6828 28.5565 45.9267 25.487 48.6171ZM152.234 106.565C152.185 105.701 152.108 104.902 152.101 104.102C152.089 102.853 151.611 101.7 150.353 101.684C149.559 101.672 148.755 102.588 147.955 103.087C148.008 103.27 148.064 103.457 148.117 103.641C149.72 104.278 149.963 106.708 152.234 106.569L152.234 106.565ZM139.95 116.303C138.224 117.468 138.352 119.142 138.269 120.654L140.706 121.099C141.308 120.464 141.926 119.809 142.661 119.031C141.859 118.226 140.966 117.328 139.947 116.303L139.95 116.303ZM79.9267 79.9164C79.149 81.2379 77.393 82.0932 78.8237 83.668C79.7004 84.6335 81.3677 84.4805 82.0565 83.5337C84.0568 80.7816 80.6783 81.2535 79.9267 79.9164ZM160.771 141.277C161.926 139.647 160.908 136.898 158.801 135.621C158.004 138.093 158.661 139.978 160.771 141.277ZM46.9897 28.3106C46.596 25.6055 46.6079 25.5408 45.3651 25.3671C44.7913 25.2856 43.8164 25.3113 43.6331 25.6353C42.8758 26.9739 43.2295 28.2916 44.1189 29.48C45.1455 29.0629 46.0605 28.6888 46.9858 28.3132L46.9897 28.3106ZM76.9456 76.2706C76.6849 76.233 76.4209 76.1948 76.1601 76.1571C75.5044 75.2086 74.8521 74.2606 74.088 73.1553C73.8656 73.4922 72.8398 74.3607 72.9534 75.0364C73.1105 75.9673 74.0054 76.9429 74.8476 77.4945C75.1491 77.6932 76.2221 76.7132 76.945 76.2739L76.9456 76.2706ZM89.7939 75.294C89.9912 75.2398 90.1878 75.1889 90.3851 75.1348C90.2548 74.2221 90.4339 73.0452 89.9279 72.4481C88.7295 71.0294 87.0658 70.8523 85.1057 71.7806C86.7647 73.0228 88.2793 74.1584 89.7906 75.2934L89.7939 75.294ZM220.364 199.74C221.421 199.542 222.635 199.654 223.157 199.105C223.584 198.658 223.319 197.383 223.086 196.555C222.966 196.132 222.086 195.517 221.811 195.627C221.291 195.84 220.787 196.453 220.587 197.011C220.352 197.673 220.45 198.453 220.365 199.737L220.364 199.74ZM212.185 175.138C212.411 173.85 212.21 172.884 210.814 172.996C209.982 173.065 208.531 173.445 208.487 173.811C208.367 174.885 208.798 176.016 210.23 176.221C211.257 176.365 212.191 176.433 212.185 175.138ZM202.894 182.215C204.806 180.693 204.788 180.259 202.88 177.184C201.877 177.635 200.852 178.103 199.958 178.507C200.322 180.552 203.65 179.296 202.897 182.216L202.894 182.215ZM78.0006 61.4731C77.0705 60.6348 76.2657 59.806 75.3498 59.1273C75.0199 58.8832 74.3233 58.8328 73.9771 59.0235C73.72 59.1669 73.5891 59.8982 73.7049 60.2703C73.9376 61.0078 74.3228 61.7165 74.7682 62.3526C74.9162 62.5667 75.4898 62.6683 75.7766 62.5636C76.4896 62.3063 77.1491 61.9022 78.0012 61.4699L78.0006 61.4731ZM132.19 113.689C133.288 114.086 134.371 114.548 135.495 114.857C135.963 114.986 136.517 114.79 137.035 114.741C136.849 114.096 136.869 113.204 136.444 112.855C135.005 111.673 133.644 112.601 132.19 113.689ZM221.642 205.905C222.138 208.328 222.974 208.895 225.59 208.785C225.339 207.857 225.366 206.613 224.816 206.258C224.079 205.786 222.898 206.004 221.642 205.905ZM53.968 38.5615C55.311 40.5045 56.1935 38.7578 57.1539 38.3184C57.6979 38.0703 58.003 37.3007 58.4152 36.7679C57.5618 36.642 56.5478 36.1693 55.8969 36.4714C55.0814 36.8503 54.5661 37.8722 53.968 38.5615ZM43.8903 60.8726C44.7689 61.5177 45.4064 62.2558 46.1869 62.4686C46.7413 62.6201 47.5686 62.1765 48.1193 61.7825C48.416 61.5694 48.3904 60.9065 48.5088 60.4436C47.8652 60.2859 47.1987 59.9435 46.5796 60.0175C45.7318 60.1165 44.9169 60.5289 43.8903 60.8726ZM204.593 162.175C205.407 164.029 206.232 165.897 207.109 167.885C208.359 164.551 207.269 162.267 204.593 162.175ZM89.1599 90.1485C90.9068 91.4402 92.6563 91.2587 94.4661 90.2194C92.6032 88.5389 90.0875 88.5202 89.1599 90.1485ZM52.4346 57.8997C54.7903 55.6904 54.7209 55.1197 52.0329 53.4689C51.0991 55.7509 51.129 56.1173 52.4346 57.8997ZM141.368 106.347C143.123 107.483 144.808 108.57 146.83 109.875C145.746 106.572 143.846 105.443 141.368 106.347ZM143.261 116.912C144.125 118.694 145.636 119.154 147.437 119.092C147.719 117.082 146.188 116.29 143.261 116.912ZM195.622 170.19C196.106 170.766 196.575 171.343 197.069 171.898C197.219 172.065 197.427 172.281 197.622 172.293C198.111 172.325 198.629 172.327 199.082 172.175C199.232 172.126 199.334 171.533 199.248 171.25C198.843 169.903 197.052 169.365 195.623 170.187L195.622 170.19ZM46.7839 32.861C49.2557 34.5959 50.5876 34.3749 50.8899 32.1979C49.447 31.8574 48.0282 31.4577 46.7839 32.861ZM31.9516 24.847C29.4907 24.1466 28.9186 24.5666 28.8813 27.086C30.299 26.9074 31.9493 27.1756 31.9516 24.847ZM27.4913 35.5936C28.3759 36.6074 29.0479 37.3752 29.7497 38.1818C30.4308 37.5878 30.905 37.1732 31.418 36.729C30.8099 36.1233 30.1926 35.5126 29.7793 35.1029C29.0582 35.2585 28.5327 35.3696 27.4875 35.5963L27.4913 35.5936ZM69.4602 74.6385C68.2689 74.0565 67.2311 73.5494 66.194 73.0391C66.6778 74.5778 67.1341 76.0479 69.104 76.1239C69.2207 75.634 69.3296 75.1861 69.4602 74.6385ZM98.4068 80.2265C99.8002 81.0927 100.926 81.7931 102.127 82.5406C102.224 80.2091 101.49 79.7073 98.4068 80.2265ZM128.446 86.696C129.238 85.1364 128.864 84.4198 127.771 84.3236C127.244 84.2774 126.671 84.791 126.119 85.0508C126.847 85.565 127.579 86.0797 128.447 86.6928L128.446 86.696ZM143.079 100.595C144.731 98.1701 144.485 97.3998 142.064 96.6801C142.378 97.887 142.7 99.1253 143.079 100.595ZM108.829 96.9614C108.668 96.6913 108.507 96.4213 108.345 96.1512C107.558 96.5219 106.77 96.8959 105.983 97.2666C106.27 97.7435 106.554 98.2198 106.842 98.6966C107.503 98.1159 108.165 97.5383 108.827 96.9576L108.829 96.9614ZM80.0741 65.6347C79.9269 65.8718 79.7836 66.1063 79.6364 66.3433C80.2481 66.7291 80.8251 67.3225 81.4825 67.4226C81.8339 67.4768 82.3162 66.6894 82.88 66.1509L80.0735 65.638L80.0741 65.6347ZM148.097 126.931C148.55 124.862 148.251 124.617 145.543 124.931C146.321 125.541 147.099 126.151 148.097 126.931ZM160.478 117.084C161.072 119.355 162.13 119.936 163.33 118.879C162.335 118.252 161.405 117.668 160.478 117.084ZM50.4715 41.391C50.4603 41.0147 50.4489 40.6384 50.4409 40.2627C49.5711 40.2808 48.6978 40.2816 47.8335 40.3609C47.7994 40.3646 47.8249 41.0644 47.8233 41.4383L50.4715 41.391ZM125.913 90.5103L127.752 90.8463C127.815 89.7183 128.024 88.5403 126.275 88.5412L125.913 90.5103ZM123.03 89.7626C123.012 89.5489 122.994 89.3384 122.976 89.1246C121.864 89.2421 120.752 89.3596 119.64 89.4772C119.658 89.6477 119.677 89.8215 119.696 89.992C120.845 90.4393 122.005 91.0289 123.03 89.7626ZM46.5964 53.1235C46.5013 52.9491 46.4024 52.7773 46.3072 52.6028C45.4887 52.7974 44.6696 52.9952 43.8511 53.1898C43.8343 53.3906 43.8169 53.5946 43.8034 53.796C44.3291 53.9756 44.9128 54.3863 45.3654 54.2719C45.843 54.1487 46.1911 53.5273 46.5964 53.1235ZM117.782 83.9581C118.279 81.7767 117.747 81.3554 115.716 81.9599C116.372 82.5945 116.975 83.1758 117.782 83.9581ZM60.7606 48.7852C60.6152 49.0126 60.4703 49.2367 60.3249 49.4641C61.3655 50.0286 62.3772 50.678 63.4754 51.0925C63.6884 51.1716 64.2416 50.3437 64.6416 49.9323C62.9047 50.6106 61.7143 50.2794 60.7644 48.7826L60.7606 48.7852Z" fill="white"/>
</g>
</g>
</svg>
