<svg width="250" height="250" viewBox="0 0 250 250" fill="none" xmlns="http://www.w3.org/2000/svg">
<g id="Group 6">
<path id="image 26" d="M0 0H250V250H0V0Z" fill="#BE6A14"/>
<g id="castanha amd">
<path fill-rule="evenodd" clip-rule="evenodd" d="M30.1869 83.5471C26.9195 115.554 26.9319 128.113 38.025 166.83C52.0673 195.571 92.0513 217.853 92.0513 217.853C143.597 231.837 194.005 180.347 150.169 137.141C138.28 125.424 122.613 111.636 117.684 88.7018C115.639 79.182 115.404 70.3645 115.198 62.6637C114.708 44.2652 114.388 32.2406 89.9501 32.2403C52.7427 32.2399 39.3303 48.2744 30.1869 83.5471ZM40.9263 89.3963C40.9263 77.4868 45.2075 52.2386 62.3323 46.5221C79.4572 40.8055 90.8737 39.3764 90.8737 39.3764C94.2835 55.7717 81.9702 68.75 81.9702 68.75L69.4677 67.9592C58.0511 73.6758 40.9263 89.3963 40.9263 89.3963ZM131.754 132.099C108.395 112.849 108.395 83.5125 108.395 83.5125C108.395 83.5125 88.9414 84.866 88.9414 96.3719C88.9414 103.723 102.209 121.624 102.209 121.624C102.209 121.624 116.386 129.358 131.754 132.099ZM107.043 208.626L92.3256 205.159C64.7751 188.756 52.7248 173.163 52.7248 173.163C52.7248 173.163 40.5579 146.929 40.9263 134.025C40.9263 134.025 55.7665 130.579 74.7772 145.408C84.4316 152.938 100.72 156.25 100.72 156.25C100.72 156.25 119.47 175 149.222 168.662C172.178 198.526 107.043 208.626 107.043 208.626ZM37.47 115.601C37.47 115.601 37.5895 98.6423 51.8602 91.4966C68.6062 94.4736 46.9838 108.456 37.47 115.601Z" fill="white"/>
<path fill-rule="evenodd" clip-rule="evenodd" d="M125.941 85.5055C125.941 85.5055 133.752 62.2338 152.178 61.3235C167.376 61.3233 173.962 71.1095 176.517 81.2311L176.625 81.6613C177.64 85.6965 182.085 94.2261 187.409 104.06C192.002 112.544 201.009 113.85 201.009 113.85C205.88 118.228 212.24 125.378 217.563 132.258C230.609 162.61 216.045 180.764 216.045 180.764C216.045 180.764 193.477 200.044 173.821 188.862C173.821 188.862 182.956 168.843 173.467 152.236C166.117 139.374 151.039 122.621 139.687 112.507C125.519 99.8385 125.941 85.5055 125.941 85.5055ZM161.268 71.6954C147.248 64.4435 139.33 78.9678 139.33 78.9678C139.33 78.9678 144.88 87.4411 152.178 87.6699C163.734 88.0321 174.536 101.257 174.536 101.257C174.536 101.257 169.968 76.1954 161.268 71.6954ZM211.577 152.236C211.577 152.236 216.98 157.074 213.686 166.782C210.339 176.649 200.02 177.336 200.02 177.336L194.861 183.184L182.967 183.816C189.59 164.578 181.39 154.487 181.39 154.487C193.494 147.904 195.413 163.252 211.577 152.236ZM143.346 106.599L157.487 120.949C157.487 120.949 160.313 110.634 168.501 107.513L162.422 104.487L143.346 106.599Z" fill="white"/>
<path fill-rule="evenodd" clip-rule="evenodd" d="M114.349 31.2814C108.807 25.0712 99.2106 22.6036 83.7149 23.2845C83.1976 23.3072 82.7599 22.9063 82.7371 22.3891C82.7144 21.8718 83.1153 21.434 83.6326 21.4113C99.2312 20.7259 109.606 23.1504 115.748 30.0329C121.865 36.8878 123.527 47.8902 122.5 63.6291C122.467 64.1458 122.02 64.5373 121.504 64.5036C120.987 64.4699 120.595 64.0238 120.629 63.5071C121.653 47.8101 119.916 37.5192 114.349 31.2814ZM183.196 71.4924C183.714 71.4795 184.144 71.8887 184.157 72.4063C184.363 80.6668 185.83 85.8217 187.98 89.3355C190.12 92.8347 192.999 94.8124 196.28 96.6091C197.052 97.0317 197.853 97.447 198.672 97.872C201.299 99.2341 204.117 100.696 206.78 102.813C210.324 105.631 213.624 109.613 216.18 116.127C216.369 116.609 216.132 117.153 215.65 117.342C215.168 117.531 214.624 117.294 214.435 116.812C211.996 110.598 208.893 106.888 205.614 104.281C203.106 102.287 200.51 100.94 197.918 99.5949C197.07 99.1552 196.223 98.7156 195.38 98.2537C191.992 96.3982 188.774 94.2266 186.38 90.3139C183.996 86.4157 182.493 80.8958 182.282 72.453C182.269 71.9354 182.679 71.5053 183.196 71.4924ZM211.465 193.037C211.726 193.484 211.574 194.058 211.127 194.319C199.29 201.225 190.578 204.231 184 204.363C177.91 204.485 173.705 202.141 170.639 198.336C160.889 214.144 136.397 232.959 96.2091 231.8C95.6915 231.785 95.2841 231.353 95.299 230.836C95.3139 230.318 95.7456 229.911 96.2631 229.926C136.825 231.096 160.873 211.603 169.737 196.188C169.896 195.91 170.187 195.733 170.508 195.718C170.828 195.704 171.134 195.855 171.318 196.118C174.125 200.131 177.971 202.608 183.962 202.488C190.055 202.366 198.429 199.556 210.182 192.7C210.63 192.439 211.204 192.59 211.465 193.037Z" fill="#653024"/>
</g>
</g>
</svg>
