<svg width="250" height="250" viewBox="0 0 250 250" fill="none" xmlns="http://www.w3.org/2000/svg">
<g id="Group 7">
<rect id="image 14" width="250" height="250" fill="#D6A461"/>
<g id="castanha our">
<path d="M200.649 162.41C204.552 161.687 208.561 160.802 212.617 160.223C222.885 158.758 232.31 161.316 241.162 166.445C243.856 168.006 245.1 170.561 245.611 173.363C246.673 179.171 245.599 184.558 241.915 189.38C240.098 191.759 237.628 193.006 235.047 194.188C234.599 194.394 234.121 194.541 234.092 194.55C236.814 198.699 239.664 202.809 242.254 207.076C243.688 209.44 243.151 210.737 240.575 211.742C236.572 213.304 232.54 214.809 228.452 216.124C223.732 217.641 218.965 216.924 214.248 215.924C205.62 214.089 197.519 210.702 189.41 207.373C187.882 206.747 187.08 206.947 185.714 207.896C183.496 209.437 180.903 210.519 178.351 211.487C174.599 212.91 170.682 213.827 166.623 213.336C161.174 212.678 155.891 211.34 150.932 208.934C147.437 207.238 143.977 205.476 140.519 203.703C139.847 203.359 139.277 202.815 138.921 202.556C142.142 199.701 145.325 196.881 148.785 193.817C144.357 191.803 141.626 188.757 139.499 185.087C139.322 184.784 138.832 184.458 138.505 184.473C133.794 184.696 129.926 182.452 126.009 180.332C125.395 180 124.77 179.694 124.089 179.347C125.056 184.434 124.77 189.213 121.859 193.614C119.555 197.099 116.136 198.643 112.207 199.278C107.847 199.984 103.859 198.158 99.717 197.331C96.5164 196.69 93.2509 196.384 90.0562 195.735C88.602 195.438 87.0503 194.935 85.8792 194.073C82.9471 191.915 81.6786 186.94 82.8822 183.455C83.4043 181.941 83.8202 180.388 84.4191 178.903C85.012 177.433 85.773 176.03 86.4663 174.587C83.3512 174.09 80.2834 173.534 77.1978 173.122C72.0857 172.443 67.009 171.717 62.363 169.25C55.5341 165.624 48.5282 162.304 41.8674 158.396C35.5548 154.691 31.068 149.061 27.245 142.862C21.3158 133.255 17.4515 122.849 15.0061 111.908C14.0385 107.573 13.8173 103.157 14.2804 98.6432C14.8202 93.3857 15.2686 88.1075 17.1683 83.1852C20.5164 74.5167 23.4663 65.5689 29.4073 58.203C32.2421 54.6891 35.6963 51.6575 38.9677 48.5112C40.6904 46.8528 42.5961 45.3767 44.4722 43.8829C46.8055 42.0275 49.4633 41.213 52.4751 40.9042C54.8468 40.6602 57.13 39.5428 59.4515 38.8135C60.6049 38.4519 61.8084 37.6873 62.9117 37.8079C67.5754 38.3166 70.9766 34.8321 75.2775 34.1764C77.5784 33.8236 79.7465 33.9412 81.6786 34.938C85.0769 36.6964 88.7052 37.258 92.3925 37.9432C97.1595 38.8312 101.853 40.1515 106.531 41.4453C107.729 41.7775 108.726 42.7714 109.87 43.3566C112.254 44.5769 114.602 45.9118 117.095 46.8675C121.039 48.3789 124.72 50.1843 127.047 53.8776C129.537 57.8266 133.142 60.5083 137.036 62.8783C141.587 65.6483 145.375 69.2062 148.369 73.6022C148.693 74.0786 149.027 74.5726 149.239 75.1048C150.856 79.1773 152.578 83.2176 153.994 87.3577C155.142 90.7187 156.062 94.1767 156.785 97.6523C157.277 100.028 157.239 102.516 157.472 104.948C157.717 107.503 157.897 110.07 158.292 112.602C158.797 115.819 158.059 118.812 157.027 121.794C156.404 123.596 155.726 125.387 155.23 127.225C155.118 127.639 155.62 128.254 155.906 128.736C158.006 132.265 160.221 135.728 162.192 139.328C163.162 141.098 163.685 143.112 164.39 144.964C168.661 139.228 174.457 134.885 180.655 131.135C184.891 128.574 189.705 127.092 194.714 127.898C196.381 128.166 198.168 129.718 199.248 131.168C201.145 133.711 201.838 136.837 202.165 140.01C202.965 147.702 201.864 155.244 200.649 162.398V162.41ZM122.139 144.859C120.086 141.983 118.112 139.669 114.077 140.213C108.372 140.98 102.988 139.239 97.7199 137.24C88.5164 133.747 81.2155 127.366 74.1654 120.911C68.4958 115.721 63.6226 109.623 58.7052 103.674C53.6757 97.5906 50.9294 90.5275 51.2244 82.4913C51.3335 79.5184 51.3601 76.5339 51.6373 73.5758C52.2214 67.3772 54.6786 61.9286 59.363 57.8178C63.4338 54.2451 67.8291 51.0135 72.2421 47.8555C76.6491 44.7004 81.9766 44.3299 87.1359 43.7888C92.1683 43.2625 96.9264 44.9768 101.605 46.4882C108.906 48.8464 114.572 53.9099 120.145 58.847C125.744 63.8075 130.909 69.268 136.098 74.6696C140.177 78.9156 143.401 83.7439 145.313 89.4131C147.935 97.1907 149.23 104.974 147.393 113.19C146.729 116.16 146.369 119.641 149.95 121.614C150.056 121.673 150.18 121.702 150.277 121.738C151.649 118.624 152.354 115.41 151.997 111.978C151.655 108.708 151.301 105.424 151.245 102.142C151.198 99.4636 151.015 96.9025 149.803 94.4501C149.304 93.4416 148.921 92.2683 148.885 91.1568C148.72 86.1169 145.991 81.9061 144.224 77.4572C142.711 73.6463 139.387 70.8088 135.929 68.3946C131.363 65.2072 126.912 61.9315 123.959 57.0003C122.334 54.2863 119.841 52.5573 116.744 51.4399C113.761 50.3637 111.027 48.6024 108.168 47.1733C106.575 46.3794 105.021 45.3767 103.325 44.9503C100.413 44.2152 97.4073 43.83 94.4338 43.3507C92.5312 43.0419 90.6078 42.8626 88.7022 42.5626C86.366 42.1921 83.8645 42.1657 81.7465 41.26C78.0769 39.6927 74.894 40.0427 71.7701 42.3215C70.5135 43.236 69.1919 43.2948 67.6079 43.1772C64.366 42.9361 61.0887 43.1537 57.8291 43.2419C57.2244 43.2595 56.3306 43.3566 56.0739 43.7476C54.891 45.5413 53.7376 47.3879 52.8586 49.3404C52.1388 50.9459 51.9235 52.7661 51.304 54.4245C50.4515 56.7063 49.2981 58.8793 48.5135 61.1787C47.5901 63.884 47.13 66.7539 46.0946 69.4062C44.7081 72.9612 43.4279 76.5162 43.3984 80.3565C43.3601 85.7728 45.6108 90.5481 47.8527 95.3235C49.9146 99.7165 51.8615 104.165 53.891 108.573C54.2598 109.373 54.6875 110.179 55.245 110.852C57.7937 113.919 60.5577 116.789 61.891 120.72C62.4456 122.355 63.4191 124.058 65.5872 124.214C68.0975 124.393 69.5253 125.916 70.891 127.883C72.2273 129.809 74.0356 131.412 75.6668 133.126C76.6344 134.144 77.6491 135.12 78.6698 136.087C80.8999 138.204 82.6255 140.568 86.2244 141.277C90.5577 142.13 94.7966 143.091 99.2391 143.629C106.381 144.494 113.496 145.203 120.676 145.335C121.127 145.344 121.581 145.047 122.136 144.859H122.139ZM135.912 169.341C137.944 170.852 139.782 172.255 141.658 173.61C147.749 178.006 154.676 180.553 161.862 182.435C163.319 182.817 165.012 182.699 166.519 182.417C169.912 181.785 173.23 180.759 176.628 180.174C179.758 179.635 182.835 179.486 185.416 177.074C188.953 173.769 190.062 170.029 187.682 166.844C183.735 161.563 177.897 160.017 171.531 160.258C169.938 160.32 168.366 160.802 166.773 160.978C163.69 161.316 160.578 161.425 157.519 161.899C153.655 162.498 149.829 163.348 145.991 164.125C142.248 164.88 138.962 166.533 135.909 169.341H135.912ZM196.074 180.124C194.472 180.688 192.817 181.141 191.307 181.885C190.853 182.111 190.41 183.338 190.626 183.79C192.847 188.425 191.708 193.082 190.991 197.766C190.918 198.249 191.292 199.066 191.708 199.319C195.897 201.877 200.72 202.542 205.39 203.544C211.292 204.809 217.289 205.626 223.198 206.855C225.664 207.37 227.537 206.106 229.643 205.488C229.806 205.441 230.015 205.073 229.98 204.897C229.696 203.421 229.661 201.792 228.98 200.513C227.183 197.14 223.921 195.12 220.888 193.065C216.109 189.821 211.186 186.748 206.103 184.011C203.053 182.367 199.935 180.479 196.071 180.124H196.074ZM115.741 183.414C115.348 182.203 115.277 180.726 114.516 179.835C111.05 175.772 107.446 171.82 103.723 167.988C103.328 167.583 101.395 167.882 100.921 168.462C98.7966 171.043 96.776 173.743 95.0385 176.595C93.1831 179.638 91.248 182.708 90.599 186.313C90.5135 186.787 90.6698 187.636 90.9766 187.789C92.0975 188.357 93.366 189.145 94.5135 189.054C99.6993 188.642 104.629 190.086 109.652 190.809C111.717 191.106 113.596 190.398 114.363 188.483C114.997 186.904 115.275 185.184 115.738 183.414H115.741ZM155.9 148.852C155.634 148.04 155.469 147.499 155.286 146.964C153.478 141.701 150.139 137.319 146.764 133.053C142.124 127.183 136.289 123.302 128.298 123.825C126.711 123.928 126.154 124.513 126.074 126.051C125.805 131.221 127.466 135.908 129.652 140.439C130.077 141.321 131.056 142.312 131.947 142.515C133.46 142.859 135.112 142.574 136.702 142.627C143.599 142.85 149.985 144.685 155.903 148.852H155.9ZM142.331 154.283C130.251 150.907 119.85 154.547 109.472 159.799C115.086 166.165 121.918 170.364 129.115 174.116C128.534 172.646 127.699 171.364 127.112 169.979C126.157 167.727 125.629 165.304 127.357 163.245C128.838 161.484 130.466 159.64 132.428 158.538C135.407 156.862 138.729 155.791 142.331 154.286V154.283ZM83.363 64.3103C78.7671 62.3961 73.7937 61.2434 68.6993 60.5612C67.714 60.4289 66.4191 60.0467 65.7524 60.4966C61.8586 63.1283 58.3512 66.254 56.7524 70.8205C55.7081 73.7992 54.8143 76.9161 54.5046 80.036C54.2775 82.3266 55.2155 84.7113 55.4427 87.0725C55.6314 89.0191 56.6639 89.6454 58.4663 89.8983C62.655 90.4834 66.6432 91.7537 70.2627 93.9914C70.8143 93.1446 71.3335 92.3506 71.8763 91.5156C66.3955 89.9483 61.0503 88.3663 57.2362 83.7645C56.0533 82.3383 55.3778 79.8625 56.248 78.2335C58.6049 73.8139 62.5961 70.8441 66.832 68.9827C72.0179 66.7039 77.8173 65.807 83.3601 64.3074L83.363 64.3103ZM115.39 90.8069C111.033 89.5748 107.921 86.799 105.449 83.3234C101.077 77.1778 99.1064 70.1383 98.0533 62.5725C96.8615 63.4988 95.717 64.3897 94.4987 65.3366C97.5164 66.3863 97.8733 66.895 97.8733 69.9766C97.8733 72.7759 97.8084 75.5753 97.8881 78.3717C98.0002 82.2148 97.0946 85.7434 94.8556 88.9221C95.2332 89.1102 95.5518 89.3308 95.9058 89.4396C100.307 90.7804 104.761 91.9743 109.109 93.4739C113.49 94.9824 113.446 95.1147 115.39 90.8098V90.8069ZM87.1182 120.382C86.7111 121.767 86.2539 123.326 85.7878 124.916C87.3158 126.04 88.8497 127.104 90.307 128.263C91.3925 129.127 92.3188 128.98 93.1359 127.992C95.4781 125.157 98.3896 123.425 101.634 123.387C97.0798 122.443 92.0798 121.411 87.1182 120.382ZM105.369 123.752C108.03 127.386 110.841 131.282 113.732 135.117C114.124 135.637 114.926 135.855 115.537 136.211C113.856 131.432 113.844 126.951 115.28 122.711C111.82 123.076 108.36 123.437 105.369 123.752ZM144.301 102.907C144.036 102.836 143.77 102.769 143.505 102.698C141.301 106.824 138.891 110.773 135.106 112.852C137.708 113.528 140.54 114.26 143.26 114.969C143.59 111.137 143.947 107.024 144.304 102.91L144.301 102.907ZM140.103 88.4104C138.047 83.6116 134.714 79.8448 130.805 75.9575C131.272 79.1773 131.673 81.959 132.08 84.776C135.57 84.5202 137.676 86.7549 140.103 88.4104Z" fill="white"/>
<path d="M20.9382 49.1963C15.7996 58.2177 11.7966 67.9036 9.23027 77.96C6.66389 88.0164 5.5459 98.2845 6.16537 108.556C6.73174 117.924 8.77009 127.172 12.3866 135.843C15.8084 144.044 20.5223 151.698 26.422 158.364C32.245 164.942 39.245 170.532 47.0916 174.528C48.0651 175.025 49.0533 175.495 50.0503 175.942C50.9087 176.327 51.6609 175.06 50.7937 174.672C42.8527 171.111 35.717 165.968 29.6845 159.723C23.6196 153.445 18.6904 146.108 15.0238 138.201C11.3571 130.294 8.83794 121.141 7.92938 112.14C6.90873 102.031 7.6403 91.7861 9.81729 81.8679C12.009 71.885 15.6285 62.2314 20.4161 53.2013C20.9972 52.1045 21.599 51.0165 22.2126 49.9373C22.6816 49.114 21.4073 48.373 20.9382 49.1963Z" fill="#622716"/>
<path d="M168.891 129.495C175.124 124.302 183.493 122.708 191.251 121.232C193.213 120.858 195.319 120.564 197.195 121.444C198.64 122.12 199.785 123.273 200.67 124.581C201.611 125.972 202.31 127.51 202.876 129.086C203.608 131.127 204.18 133.232 204.711 135.331C205.985 140.368 206.823 145.508 207.221 150.687C207.251 151.084 207.54 151.422 207.959 151.422C208.334 151.422 208.726 151.084 208.696 150.687C208.328 145.87 207.593 141.08 206.484 136.375C205.944 134.088 205.334 131.809 204.599 129.571C204.033 127.845 203.345 126.137 202.41 124.572C201.475 123.008 200.372 121.688 198.906 120.714C197.157 119.553 195.089 119.235 193.024 119.468C190.829 119.715 188.64 120.226 186.481 120.685C184.322 121.144 182.366 121.602 180.345 122.196C176.378 123.361 172.472 124.966 169.136 127.439C168.696 127.766 168.266 128.104 167.847 128.451C167.54 128.707 167.584 129.227 167.847 129.492C168.151 129.795 168.584 129.748 168.891 129.492V129.495Z" fill="#622716"/>
</g>
</g>
</svg>
