<svg width="250" height="250" viewBox="0 0 250 250" fill="none" xmlns="http://www.w3.org/2000/svg">
<g id="Group 9">
<rect id="image 9" width="250" height="250" fill="#FFA400"/>
<g id="copaiba">
<path d="M146.162 198.712C145.879 199.472 145.663 200.174 145.362 200.841C143.482 205.022 141.782 209.298 139.601 213.318C138.679 215.023 136.72 216.161 135.274 217.602C132.515 220.348 130.029 223.423 126.994 225.812C123.012 228.944 118.607 231.519 113.531 232.689C109.728 233.566 106 234.94 102.155 235.41C96.3538 236.12 90.4596 236.127 84.9851 233.573C82.6497 232.486 80.5582 230.888 78.2838 229.65C74.2587 227.46 70.0721 225.548 66.1438 223.201C57.6523 218.119 48.6693 213.746 41.2038 207.13C38.3231 204.576 35.8083 201.594 33.2325 198.716C31.0226 196.24 28.8952 193.683 26.8647 191.061C25.6235 189.46 24.515 187.73 23.5463 185.95C21.2253 181.702 18.6459 177.536 16.8593 173.067C14.4629 167.072 12.1454 161.015 11.4817 154.445C10.9113 148.796 9.85302 143.181 8.80549 137.589C7.7149 131.764 8.85571 126.179 10.079 120.55C10.6387 117.965 10.8862 115.315 11.3275 112.704C12.2674 107.125 14.9651 102.285 17.8028 97.4951C19.0226 95.437 20.2208 93.3576 21.2647 91.2105C24.9777 83.5919 28.5186 75.9305 33.2612 68.8042C35.9805 64.7167 38.3231 60.4223 41.8352 56.9127C45.8245 52.925 49.7814 48.9017 53.8352 44.9819C55.9267 42.9595 58.1904 41.112 60.4039 39.218C60.8631 38.8257 61.4155 38.5118 61.9716 38.255C65.6559 36.5287 69.2685 34.5955 73.0712 33.1831C76.6802 31.8456 80.4111 30.5045 84.3968 31.0145C87.873 31.4604 91.317 32.1523 94.7968 32.5839C95.5072 32.6731 96.5045 32.2843 97.0211 31.7671C99.909 28.878 102.675 25.8677 105.527 22.9394C106.036 22.4151 106.714 22.0085 107.382 21.6946C110.625 20.1645 113.843 18.5595 117.165 17.2148C124.96 14.0547 132.967 12.9668 141.186 15.4564C147.776 17.4502 154.313 19.6116 160.906 21.5947C166.341 23.2283 171.045 26.2315 175.472 29.5593C184.548 36.3825 193.409 43.4946 202.378 50.4568C206.166 53.3958 209.994 56.2813 213.832 59.1561C217.707 62.0595 220.419 65.9258 223.26 69.7601C227.709 75.7593 230.568 82.5326 233.75 89.1703C234.295 90.3081 235.45 91.1855 235.884 92.3447C237.097 95.5761 238.073 98.8968 239.156 102.175C239.881 104.365 240.749 106.515 241.341 108.741C242.277 112.254 243.066 115.81 243.856 119.363C245.549 126.974 244.953 134.675 244.573 142.347C244.258 148.738 243.601 155.034 241.667 161.272C239.881 167.032 237.556 172.368 234.277 177.383C233.735 178.214 233.682 179.455 233.664 180.511C233.617 183.703 233.786 186.903 233.721 190.095C233.581 197.025 231.181 203.042 225.857 207.64C222.374 210.65 218.79 213.578 214.998 216.178C213.197 217.413 210.837 217.898 208.677 218.55C204.078 219.934 199.432 221.225 194.55 220.637C191.823 220.305 189.104 219.817 186.42 219.232C183.07 218.504 179.665 217.866 176.451 216.731C165.412 212.836 155.228 207.447 146.862 199.083C146.732 198.955 146.528 198.905 146.155 198.712H146.162ZM90.7358 41.2653C89.8354 41.886 88.5224 42.7063 87.3062 43.6479C85.2255 45.2601 83.1376 46.8758 81.186 48.6378C79.9232 49.7792 78.8793 51.1666 77.7779 52.4792C75.5394 55.1435 72.9923 57.626 71.1842 60.5614C67.9662 65.7867 65.2254 71.3045 62.2442 76.6724C60.7519 79.3582 58.9581 81.8977 57.6702 84.6726C55.281 89.8301 53.1285 95.0946 50.9617 100.348C50.2334 102.118 49.6953 103.972 49.1859 105.82C47.6361 111.477 46.0182 117.123 44.6729 122.833C43.9267 125.993 43.5608 129.257 43.2379 132.496C43.0514 134.379 43.3886 136.308 43.2989 138.209C43.2271 139.697 42.6244 141.173 42.6675 142.646C42.9366 152.28 42.4128 161.992 44.7626 171.459C45.559 174.662 46.811 177.758 47.9877 180.853C48.3106 181.699 49.2182 182.302 49.6738 183.118C51.5967 186.575 53.2684 190.184 55.3707 193.526C58.3196 198.213 61.229 202.996 64.777 207.222C68.9743 212.227 73.2757 217.213 79.0874 220.662C84.5762 223.918 89.7313 227.785 96.056 229.368C99.8803 230.324 103.748 230.517 107.575 229.151C109.039 228.626 110.549 228.138 112.078 227.917C116.748 227.246 120.368 224.557 123.841 221.76C126.209 219.856 128.135 217.409 130.316 215.262C131.959 213.646 134.04 212.355 135.314 210.504C138.026 206.563 139.963 202.229 141.48 197.621C142.549 194.375 141.301 192.378 139.665 190.049C137.183 186.517 134.463 183.068 132.591 179.223C129.122 172.094 125.99 164.782 123.127 157.388C121.678 153.65 120.885 149.605 120.239 145.628C119.565 141.487 119.331 137.268 119.077 133.07C118.618 125.572 118.137 118.072 117.975 110.567C117.907 107.4 118.736 104.218 118.958 101.033C119.339 95.5904 115.819 90.0156 110.991 88.7137C109.38 88.2786 107.468 87.098 106.718 85.707C104.375 81.3698 101.656 77.1254 102.596 71.6469C103.048 69.0146 102.388 66.1576 102.011 63.4327C101.746 61.5066 101.093 59.6376 100.637 57.7366C99.8229 54.3268 99.3206 50.8064 98.1116 47.5428C97.491 45.8629 95.7188 44.536 94.291 43.2449C93.43 42.4673 92.2246 42.0679 90.743 41.2618L90.7358 41.2653ZM175.138 86.1385C172.046 85.9174 169.333 85.7961 166.639 85.5179C161.362 84.9722 156.103 84.3159 151.027 86.6236C143.306 90.1297 135.64 93.6644 131.328 101.632C130.732 102.735 129.595 103.537 128.749 104.511C127.941 105.438 126.901 106.294 126.453 107.379C123.966 113.392 121.398 119.395 122.546 126.2C123.066 129.271 123.324 132.396 123.55 135.506C123.977 141.409 124.465 147.276 126.266 152.979C126.711 154.392 127.507 154.806 128.709 155.002C132.318 155.59 135.784 154.795 139.123 153.621C140.749 153.051 142.087 151.727 143.636 150.893C147.934 148.582 152.469 147.718 157.287 148.974C161.556 150.087 165.255 148.981 168.559 146.188C170.101 144.886 173.624 144.747 175.346 145.86C177.585 147.308 179.751 148.878 182.051 150.222C184.928 151.899 187.655 154.003 191.342 153.646C193.176 153.468 195.045 153.561 196.892 153.604C202.083 153.721 207.271 153.892 212.462 154.003C214.898 154.053 217.337 154.01 220.168 154.01C219.619 152.719 219.203 151.877 218.894 151C218.083 148.696 217.33 146.374 216.537 144.066C215.68 141.566 215.027 138.966 213.882 136.601C212.584 133.922 210.912 131.411 209.276 128.907C206.908 125.287 204.63 121.581 201.954 118.193C197.803 112.939 193.337 107.935 189.032 102.802C184.257 97.1063 179.511 91.3817 175.134 86.1314L175.138 86.1385ZM131.149 92.1913C134.596 90.0727 138.097 87.9184 141.599 85.764C141.775 85.657 141.947 85.5393 142.105 85.4109C145.699 82.4684 149.965 80.7991 154.445 80.3533C158.137 79.9859 161.95 80.6315 165.692 81.031C167.414 81.2129 169.086 81.8763 170.779 82.3221C170.872 82.1616 170.962 82.0011 171.055 81.8371C170.725 81.4661 170.413 81.0809 170.062 80.7314C168.081 78.759 166.051 76.8329 164.117 74.8213C160.785 71.3508 157.667 67.6557 154.166 64.3671C150.334 60.7647 146.151 57.5333 142.148 54.1128C136.096 48.941 129.373 44.7822 122.478 40.8302C117.972 38.2479 113.025 37.6273 107.55 36.2648C108.293 37.0744 108.598 37.4133 108.91 37.7485C110.237 39.1859 111.848 40.4486 112.838 42.0857C116.192 47.632 117.943 53.7632 118.966 60.1298C119.78 65.2018 120.756 70.2523 123.095 74.8926C124.688 78.0492 126.618 81.0452 128.121 84.241C129.384 86.9232 130.248 89.7873 131.145 92.1949L131.149 92.1913ZM238.338 116.641C237.714 115.115 238.923 113.05 236.656 112.483C231.694 111.248 227.404 108.741 223.468 105.527C217.147 100.363 211.891 94.4633 208.72 86.7984C206.482 81.3912 203.999 76.0839 200.189 71.465C197.161 67.7948 193.843 65.6619 188.756 66.072C184.293 66.4323 179.755 65.8616 175.253 65.7154C174.736 65.6975 174.216 65.776 173.624 65.8152C173.71 66.1683 173.692 66.4216 173.811 66.5357C177.057 69.6245 180.688 71.9179 185.377 72.0142C189.965 72.1105 194.202 73.6799 196.419 77.6033C199.016 82.2009 201.122 87.23 202.453 92.3269C203.332 95.6974 205.147 98.4652 207.106 100.752C210.388 104.582 214.654 107.617 218.679 110.774C221.413 112.918 224.329 114.815 228.035 115.158C231.486 115.475 234.909 116.135 238.342 116.645L238.338 116.641ZM208.067 204.847C208.935 204.604 210.7 204.28 212.329 203.62C214.622 202.689 216.44 201.063 216.365 198.413C216.293 195.844 214.062 194.906 212.031 194.282C208.218 193.112 204.34 192.128 200.451 191.218C191.841 189.2 183.188 187.388 175.766 182.123C173.818 180.743 171.558 179.744 169.333 178.82C164.817 176.948 160.3 174.847 155.192 175.689C154.485 175.807 153.886 176.57 153.237 177.033C153.954 177.733 154.715 179.07 155.382 179.024C159.69 178.724 163.278 180.443 166.503 182.862C172.121 187.067 177.513 191.572 183.084 195.848C190.162 201.28 198.162 204.351 208.071 204.85L208.067 204.847ZM58.2586 57.1695C57.907 56.2385 57.7779 54.7833 57.1429 54.5122C56.3429 54.1698 55.0478 54.6299 54.1079 55.0579C53.272 55.436 52.5509 56.1708 51.9124 56.8663C49.6236 59.3737 47.5321 62.0773 45.1034 64.4349C40.7087 68.6972 39.0621 74.0723 38.3482 79.8575C38.2621 80.5566 38.7034 81.7015 39.263 82.0297C41.3509 83.2531 43.507 84.8296 45.7922 85.1399C48.9922 85.5714 51.3814 84.5941 51.4137 81.0024C51.4388 78.0848 51.5752 75.1601 51.4173 72.2532C51.2056 68.2692 52.0056 64.8415 55.4675 62.3341C57.1214 61.1357 58.2012 59.47 58.255 57.1659L58.2586 57.1695ZM217.176 178.235C222.636 178.196 225.183 174.458 223.396 170.153C221.387 165.313 217.75 162.1 212.595 161.179C208.48 160.445 204.239 160.384 200.049 160.113C199.49 160.077 198.453 160.519 198.413 160.837C198.334 161.468 198.65 162.271 199.059 162.813C200.372 164.55 201.839 166.173 203.178 167.895C204.1 169.08 204.778 170.478 205.796 171.566C209.108 175.107 212.971 177.747 217.172 178.235H217.176ZM108.892 31.2535C109.904 31.068 110.743 30.9931 111.532 30.7577C113.427 30.1977 115.263 29.3988 117.186 28.985C122.894 27.7581 128.641 27.3336 134.474 28.236C141.208 29.2775 147.393 31.5353 152.444 36.1756C155.719 39.1859 158.643 42.5779 161.846 45.6738C163.568 47.3395 165.541 48.7484 167.457 50.3177C167.866 49.7078 168.038 49.5545 168.074 49.3726C168.124 49.1157 168.099 48.834 168.071 48.57C167.755 45.7915 166.55 43.5053 164.785 41.276C161.179 36.732 156.497 33.447 151.651 30.6578C147.002 27.9828 141.703 26.3492 136.573 24.6015C134.295 23.824 131.737 23.7277 129.294 23.6135C127.009 23.5065 124.705 23.7847 122.406 23.8917C121.724 23.9238 120.924 23.7063 120.379 23.9916C116.433 26.0425 111.679 26.8129 108.885 31.2535H108.892ZM35.5285 172.885C35.8729 172.793 36.2172 172.703 36.5581 172.611C36.35 171.598 36.1347 170.581 35.9338 169.568C34.8468 164.051 35.8406 158.376 34.4235 152.837C33.498 149.213 32.7554 145.546 29.9356 142.985C27.1804 140.481 23.9948 138.448 20.9813 136.23C20.8019 136.098 20.5006 136.13 20.1275 136.062C21.2073 140.353 21.688 144.737 23.4064 148.571C27.1087 156.828 31.4459 164.803 35.5249 172.892L35.5285 172.885ZM203.558 59.8017C202.887 61.7812 202.769 63.0974 204.272 64.5455C207.508 67.6699 210.166 71.251 211.87 75.4954C213.018 78.3523 214.439 81.1094 215.791 83.8808C216.383 85.0971 219.048 86.2705 219.773 85.5286C220.361 84.9223 220.853 83.599 220.584 82.8964C219.21 79.3047 217.628 75.7879 215.995 72.3031C215.432 71.0976 214.252 70.156 213.8 68.929C212.035 64.1139 208.114 61.8526 203.554 59.8017H203.558ZM235.838 151.135C230.761 151.164 227.156 148.517 223.439 145.275C225.387 153.536 228.121 160.905 231.741 168.53C234.83 162.824 235.572 157.217 235.838 151.135ZM31.6432 189.032C40.2818 203.224 53.7922 211.52 68.1133 218.832C66.2479 217.081 64.3501 215.358 62.3411 213.771C58.5384 210.764 55.9734 206.58 51.4855 204.069C46.0971 201.052 41.3832 196.836 36.4217 193.084C34.7572 191.825 33.2289 190.387 31.6397 189.028L31.6432 189.032ZM37.7886 86.3383C37.6343 90.1868 38.4199 93.3648 40.0415 96.318C40.9204 97.9195 42.1975 99.3284 42.9222 100.987C43.672 102.699 43.9697 104.611 44.4648 106.448C46.3769 101.108 48.2568 95.8686 50.2586 90.2867C45.1931 91.535 41.7348 88.8172 37.7886 86.3383ZM93.4515 36.7677C93.4193 36.4788 93.387 36.1899 93.3583 35.901C89.552 35.901 85.7457 35.8475 81.9394 35.9259C80.2676 35.9616 78.8757 36.4609 79.0551 38.6616C79.1017 39.2394 78.5672 39.9135 78.1941 40.47C76.16 43.5017 75.5752 45.1745 75.769 47.9887C80.0093 41.4437 87.4641 40.2702 93.4551 36.7712L93.4515 36.7677Z" fill="white"/>
<path d="M6.03238 164.889C8.26019 173.467 11.3239 181.852 15.4172 189.731C19.4853 197.56 24.6082 204.886 30.8432 211.164C37.2361 217.605 44.7195 222.88 52.5473 227.453C60.4326 232.054 68.6873 236.01 76.9456 239.897C81.2398 241.92 85.6452 243.831 90.2695 244.983C94.682 246.086 99.3888 246.478 103.816 245.233C104.928 244.919 106.008 244.498 107.052 244.003C107.489 243.796 107.604 243.175 107.374 242.783C107.113 242.34 106.585 242.255 106.148 242.462C97.7601 246.457 88.0632 242.975 80.1744 239.426C76.0667 237.579 72.0129 235.596 67.9734 233.606C63.9268 231.615 59.9088 229.557 55.977 227.353C48.2424 223.016 40.802 218.087 34.3123 212.03C27.9625 206.106 22.6997 199.147 18.4665 191.596C14.2333 184.046 10.9795 175.828 8.59383 167.45C8.30683 166.44 8.03418 165.427 7.76871 164.414C7.48171 163.305 5.74897 163.776 6.03956 164.889H6.03238Z" fill="#602412"/>
<path d="M96.3072 23.107C101.624 15.8987 109.441 10.9445 117.961 8.30506C126.736 5.5872 136.207 5.13423 145.262 6.57162C155.579 8.20876 165.305 12.4496 174.209 17.7855C183.816 23.5422 192.541 30.615 200.986 37.9197C205.169 41.5364 209.369 45.1567 213.402 48.9374C217.366 52.6504 221.143 56.6523 223.863 61.3746C224.526 62.5231 225.115 63.7109 225.639 64.9307C225.829 65.3765 226.482 65.4657 226.865 65.2517C227.328 64.9878 227.375 64.4706 227.188 64.0319C225.004 58.9279 221.513 54.5194 217.642 50.571C213.692 46.5441 209.369 42.8775 205.129 39.161C196.551 31.6458 187.769 24.2734 178.133 18.1172C169.068 12.3248 159.08 7.49184 148.465 5.34466C139.17 3.46499 129.398 3.49352 120.185 5.82974C111.335 8.07322 102.962 12.5887 96.9278 19.4975C96.1637 20.3714 95.4462 21.2773 94.7574 22.2118C94.0758 23.1391 95.6291 24.0273 96.3072 23.1106V23.107Z" fill="#602412"/>
</g>
</g>
</svg>
