<svg width="250" height="250" viewBox="0 0 250 250" fill="none" xmlns="http://www.w3.org/2000/svg">
<g id="Group 10">
<rect id="image 15" width="250" height="250" fill="#653024"/>
<g id="cumaru">
<path d="M157.541 187.413C155.602 187.743 153.581 188.213 151.533 188.407C148.558 188.692 146.19 187.191 145.349 184.559C144.137 180.761 143.626 176.736 142.822 172.807C142.722 172.327 142.677 171.839 142.605 171.351C138.626 172.16 138.305 172.513 139.124 175.954C141.583 186.291 144.173 196.592 146.587 206.939C148.21 213.893 148.445 220.803 145.046 227.414C142.623 232.13 138.088 233.446 133.5 230.742C127.51 227.215 122.903 222.363 119.042 216.579C113.875 208.838 110.765 200.26 109.242 191.297C107.953 183.714 108.134 175.882 107.695 168.732C106.063 169.289 103.799 170.763 101.611 170.659C96.0003 170.396 91.466 167.272 91.6106 161.108C91.7869 153.697 92.2661 146.263 93.1838 138.91C94.2688 130.228 95.7787 121.591 97.474 113.004C98.2652 109.011 99.9378 105.194 101.204 101.292C101.47 100.464 101.696 99.623 101.945 98.7909C101.742 98.7005 101.538 98.6055 101.33 98.5151C98.4595 103.168 95.6522 107.862 92.7001 112.461C88.1025 119.619 83.8259 127.04 78.5954 133.71C75.4264 137.748 70.6886 140.47 65.0422 140.588C62.1535 140.646 59.988 139.33 58.9528 136.87C56.7647 131.684 55.838 126.208 56.8687 120.596C57.7593 115.766 58.4329 110.81 60.0739 106.221C62.6417 99.0532 65.9599 92.1527 70.9825 85.7948C67.5241 86.7354 64.3415 87.4453 61.2674 88.4718C55.6752 90.3348 50.1509 92.4104 44.5813 94.3504C39.821 96.0099 34.9612 95.7386 30.1285 94.798C27.4116 94.269 26.0779 92.1572 26.2497 89.4078C26.6114 83.5881 29.8754 79.2515 33.397 75.0144C37.0227 70.6507 42.4385 69.2941 47.1627 66.8115C52.3118 64.1074 57.3976 61.0686 62.8677 59.2327C72.3749 56.0402 82.108 53.4581 91.8412 51.0117C97.9758 49.4743 102.989 51.9071 106.778 56.9084C106.981 57.1752 107.234 57.4194 107.497 57.6274C112.135 61.2812 112.763 64.5053 111.43 70.4065C109.499 78.9395 105.675 86.7263 102.723 94.8523C102.646 95.0603 102.75 95.3316 102.836 96.4531C104.956 94.1243 106.479 92.0306 108.405 90.4208C113.229 86.3917 117.062 87.6352 119.269 93.5093C122.062 100.943 121.958 108.617 121.14 116.268C120.507 122.201 119.083 128.048 118.138 133.954C117.835 135.853 117.722 137.847 117.962 139.742C118.052 140.452 119.391 141.004 120.72 141.447C118.464 120.307 128.247 102.675 136.398 84.0764C130.611 87.3865 129.214 87.1062 124.739 82.7877C118.315 76.588 114.978 68.6294 111.977 60.5169C110.385 56.2211 109.463 51.681 107.976 47.3399C107.004 44.5091 105.34 41.9181 104.391 39.0873C103.315 35.8857 102.365 32.5711 101.941 29.2339C101.371 24.7391 101.308 20.1764 101.109 15.6409C100.878 10.2914 103.799 7.42895 107.289 6.41602C111.909 5.07752 116.439 6.91796 118.902 10.8973C123.486 18.3043 126.136 26.4981 128.889 34.6693C130.747 40.1861 132.993 45.5899 134.508 51.1926C136.068 56.9536 136.737 62.9543 138.206 68.7469C139.2 72.6811 138.753 76.3529 137.668 80.1514C139.598 79.5816 141.465 79.0299 143.568 78.4059C140.358 70.5648 140.254 62.3619 140.448 54.1229C140.575 48.7688 144.558 45.7889 149.051 45.4995C155.633 45.0744 158.382 49.3929 160.389 54.1274C164.092 62.8684 167.193 71.8581 170.543 80.7483C170.909 81.716 171.253 82.6927 171.61 83.6694C171.854 83.6785 172.093 83.6875 172.338 83.6966C172.875 80.2554 173.395 76.8051 173.96 73.3684C174.987 67.1235 176.158 60.8968 177.044 54.6293C177.645 50.3696 177.894 46.0647 178.251 41.7734C178.739 35.931 181.153 30.907 184.747 26.3941C186.42 24.2959 189.082 23.9613 191.279 25.4988C199.457 31.2281 202.554 39.2953 202.269 49.0311C202.098 54.9459 202.55 60.8968 202.107 66.7844C201.655 72.8348 200.488 78.8309 199.579 84.8407C198.974 88.8562 198.418 92.8852 197.568 96.8465C197.098 99.0442 195.913 101.084 195.357 103.272C195.095 104.312 195.122 106.053 195.759 106.582C199.363 109.58 199.091 113.808 198.051 117.173C194.977 127.108 191.591 137.015 187.369 146.507C184.372 153.24 179.815 159.281 175.963 165.639C174.214 168.524 172.487 171.418 170.751 174.312C170.904 174.489 171.054 174.665 171.207 174.842C173.843 173.105 176.506 171.409 179.11 169.632C184.001 166.29 188.897 162.949 193.716 159.508C197.979 156.464 202.174 153.317 206.343 150.147C210.89 146.692 216.107 145.182 221.681 144.757C224.204 144.567 226.193 146.317 226.582 148.944C227.757 156.957 225.664 164.12 219.986 169.822C213.657 176.176 207.265 182.561 200.23 188.082C193.26 193.553 185.588 198.189 177.966 202.751C174.435 204.863 170.602 206.884 166.031 206.111C161.23 205.302 157.69 202.516 154.576 199.134C153.857 198.351 153.604 196.533 153.965 195.48C154.928 192.672 156.343 190.017 157.532 187.404L157.541 187.413ZM187.147 38.7301C186.619 41.7327 186.185 44.2514 185.728 46.7656C184.507 53.4853 183.074 60.1733 182.107 66.9246C181.379 71.9982 181.266 77.1533 180.837 82.2676C180.362 87.9156 180.868 93.3962 183.463 99.0125C183.865 97.8775 184.272 97.1314 184.39 96.34C185.213 90.7463 185.972 85.1436 186.754 79.5454C187.233 76.1178 187.898 72.7037 188.151 69.2579C188.712 61.6972 189.078 54.1229 189.503 46.5531C189.652 43.9032 189.72 41.2488 187.143 38.7301H187.147ZM214.376 155.601C213.58 155.51 213.372 155.415 213.268 155.483C205.786 160.272 198.115 164.794 190.904 169.967C184.815 174.34 179.15 179.336 173.531 184.32C170.999 186.562 169.15 189.511 167.993 193.657C169.738 192.663 170.936 192.097 172.003 191.347C177.894 187.209 183.92 183.243 189.58 178.807C197.03 172.969 204.186 166.756 211.46 160.697C211.849 160.371 212.305 160.046 212.527 159.616C213.173 158.359 213.716 157.052 214.376 155.601ZM93.6676 63.4879C85.9868 66.0111 78.1885 68.2314 70.657 71.1345C61.6245 74.6119 52.7865 78.5958 43.9439 82.5435C42.3752 83.2444 41.2089 84.8406 39.8572 86.0254C40.0516 86.3058 40.2414 86.5861 40.4358 86.8665C41.774 86.5183 43.1438 86.256 44.4502 85.8083C55.4447 82.037 66.9319 79.871 77.6551 75.1184C83.8982 72.3555 89.1333 68.548 93.6676 63.4834V63.4879ZM131.692 124.005C131.475 123.96 131.258 123.911 131.041 123.865C130.909 124.77 130.638 125.679 130.67 126.578C130.805 130.63 131.285 134.686 131.167 138.725C130.937 146.701 133.816 153.692 137.465 160.498C137.691 160.923 138.323 161.131 138.766 161.438C139.065 160.986 139.648 160.511 139.612 160.091C139.146 154.737 139.133 149.261 137.93 144.065C136.352 137.259 133.816 130.68 131.692 124.005ZM164.286 140.705C162.089 142.591 155.041 158.092 153.771 165.183C153.016 169.406 153.631 173.874 153.631 178.92C154.729 178.17 155.425 177.948 155.679 177.482C159.417 170.672 161.379 163.342 162.08 155.623C162.274 153.471 162.844 151.354 163.16 149.206C163.567 146.457 163.893 143.699 164.282 140.701L164.286 140.705ZM118.437 187.702L118.012 187.851C118.125 188.444 118.147 189.068 118.36 189.619C119.987 193.87 121.872 198.039 123.251 202.367C125.629 209.842 130.643 215.309 136.257 220.382C136.619 220.708 137.279 220.694 137.804 220.839C137.903 220.301 138.201 219.713 138.079 219.234C136.203 212.048 132.284 205.944 127.926 200.065C126.334 197.922 124.897 195.661 123.278 193.54C121.741 191.532 120.06 189.642 118.441 187.698L118.437 187.702ZM77.7184 93.0842C77.4923 93.0345 77.2708 92.9847 77.0448 92.9305C71.8053 104.864 64.6625 116.296 67.8089 131.299C68.6724 129.974 69.2284 129.228 69.676 128.423C72.5873 123.219 74.477 117.743 74.9607 111.71C75.2636 107.93 76.4752 104.231 77.0855 100.464C77.4788 98.0312 77.5195 95.5442 77.7184 93.0797V93.0842ZM153.269 138.752C157.396 134.044 161.655 129.183 165.606 124.675C161.831 119.407 158.111 114.206 155.077 109.969C154.512 118.936 153.888 128.907 153.269 138.752ZM163.065 102.743C162.803 102.743 162.537 102.743 162.274 102.743C161.999 103.788 161.167 105.135 161.542 105.832C163.549 109.562 165.941 113.053 169.806 115.337C167.559 111.14 165.312 106.94 163.065 102.743ZM123.735 63.3748C123.473 63.3567 123.211 63.3432 122.953 63.3251C122.659 64.3697 121.796 65.7263 122.166 66.4091C124.187 70.1261 126.547 73.6533 130.417 75.9369C128.192 71.7495 125.964 67.5622 123.74 63.3748H123.735ZM111.534 98.7548V112.655C111.922 112.909 112.311 113.157 112.7 113.41C113.251 112.533 114.255 111.665 114.278 110.77C114.382 106.582 113.866 102.463 111.534 98.7548Z" fill="white"/>
<path d="M59.432 156.622C59.432 155.605 59.3642 154.579 59.4455 153.566C59.6625 150.816 61.5025 149.215 64.2104 149.053C71.213 148.632 76.9092 151.816 81.9634 156.003C84.3865 158.011 85.815 161.212 87.7137 163.858C90.607 167.891 93.8619 171.712 96.3303 175.99C99.5355 181.539 102.158 187.431 104.956 193.205C106.895 197.207 108.889 201.196 110.521 205.324C111.556 207.938 112.537 210.796 112.533 213.541C112.528 217.588 111.059 221.359 107.677 224.054C106.045 225.357 104.544 226.844 102.808 227.979C102.167 228.4 100.874 228.346 100.119 227.988C93.0075 224.642 87.8222 219.08 84.2237 212.342C79.1469 202.842 74.7799 192.966 70.006 183.302C67.5693 178.369 64.9021 173.548 62.3795 168.66C60.2141 164.468 59.4275 161.131 59.432 156.622ZM99.7615 213.889C99.4541 212.808 99.3456 211.999 99.002 211.302C95.4804 204.158 92.1395 196.913 88.2969 189.94C85.2002 184.324 81.4344 179.083 78.0665 173.616C76.3983 170.907 74.9833 168.045 73.4011 165.282C72.402 163.541 70.77 162.781 68.5142 162.117C72.1895 170.46 75.3947 178.373 79.1289 186.024C81.8368 191.577 85.1686 196.836 88.3557 202.141C91.145 206.785 94.5084 210.954 99.757 213.884L99.7615 213.889Z" fill="white"/>
<path d="M64.2963 40.3308C61.507 43.8535 58.6002 47.3444 55.1147 50.2114C53.4556 51.577 51.6427 52.7663 49.7079 53.6978C47.5289 54.7469 45.1826 55.3257 42.8454 55.909C38.6908 56.9536 34.7306 58.4052 31.0553 60.639C27.6602 62.7056 24.559 65.2921 21.9098 68.2631C16.6296 74.1959 12.8005 81.8652 12.0998 89.842C11.7653 93.6449 12.2354 97.8232 14.3376 101.097C15.409 102.766 16.8828 104.136 18.6594 105.027C20.7254 106.067 23.0084 106.519 25.1422 107.378C28.8718 108.875 31.3311 112.298 32.5064 116.042C33.9802 120.75 33.4106 125.778 32.4793 130.535C32.2262 131.838 31.9414 133.135 31.6565 134.433C31.3446 135.853 33.5236 136.459 33.8355 135.035C34.9612 129.898 36.1321 124.58 35.4856 119.298C34.9838 115.17 33.3609 111.032 30.3229 108.106C28.7316 106.573 26.842 105.56 24.7669 104.841C22.6919 104.122 20.4768 103.652 18.6278 102.395C15.6848 100.392 14.5139 96.6792 14.3059 93.2832C14.0709 89.4214 14.9162 85.5687 16.2363 81.9556C17.5564 78.3426 19.4777 74.924 21.833 71.8897C26.6204 65.7217 33.284 60.9782 40.802 58.7986C43.2296 58.0977 45.7206 57.6184 48.112 56.7908C50.2504 56.0492 52.2802 55.0182 54.1563 53.7475C57.8588 51.2333 60.96 47.9594 63.8035 44.5272C64.5133 43.6726 65.2095 42.8044 65.8966 41.9361C66.2764 41.4568 66.3623 40.8056 65.8966 40.3354C65.5033 39.9419 64.6806 39.856 64.2963 40.3354V40.3308Z" fill="#FFA417"/>
<path d="M216.08 120.401C214.557 124.806 215.036 129.73 217.066 133.895C218.051 135.916 219.439 137.775 221.139 139.249C222.979 140.841 225.14 141.953 227.301 143.029C229.462 144.106 231.555 145.11 233.282 146.701C234.896 148.189 235.949 150.088 236.433 152.223C237.418 156.595 236.075 161.366 233.82 165.133C231.085 169.7 227.156 173.367 223.661 177.329C220.447 180.973 217.753 184.953 215.624 189.325C211.537 197.718 209.322 206.835 206.731 215.752C204.141 224.669 201.275 233.234 195.741 240.514C195.081 241.387 194.372 242.223 193.639 243.037C192.667 244.114 194.259 245.719 195.24 244.638C201.487 237.711 205.032 229.001 207.762 220.197C210.52 211.316 212.522 202.15 216.166 193.563C217.952 189.353 220.153 185.265 222.974 181.656C226.302 177.401 230.325 173.743 233.603 169.442C236.6 165.513 238.743 160.955 238.982 155.953C239.095 153.62 238.72 151.278 237.78 149.134C236.839 146.991 235.176 145.159 233.227 143.776C229.398 141.049 224.584 139.887 221.369 136.296C218.44 133.027 217.061 128.46 217.536 124.114C217.653 123.056 217.916 122.007 218.264 121.003C218.738 119.624 216.559 119.031 216.085 120.401H216.08Z" fill="#FFA417"/>
</g>
</g>
</svg>
