<svg width="250" height="250" viewBox="0 0 250 250" fill="none" xmlns="http://www.w3.org/2000/svg">
<g id="Group 11">
<rect id="image 30" width="250" height="250" fill="#FFA400"/>
<g id="cupuacu">
<path fill-rule="evenodd" clip-rule="evenodd" d="M106.9 26.6171C107.131 27.0802 106.944 27.6433 106.48 27.8749C103.279 29.4756 100.76 31.8306 98.4151 34.6545C96.8232 36.5715 95.3469 38.6575 93.7911 40.8557C93.0325 41.9276 92.2551 43.0261 91.4361 44.1447C86.4716 50.926 80.2514 58.0421 68.6015 62.4383C68.4086 62.5111 68.1972 62.5183 67.9998 62.4587C53.138 57.976 42.4995 59.5263 34.0002 63.5434C26.7829 66.9546 21.0741 72.1482 15.5577 77.1668C14.5228 78.1083 13.4946 79.0437 12.4645 79.96C12.0777 80.3041 11.4851 80.2694 11.141 79.8826C10.7968 79.4957 10.8315 78.9031 11.2183 78.559C12.2181 77.6697 13.2257 76.7524 14.2481 75.8215C19.7605 70.8026 25.7053 65.39 33.1989 61.8482C42.0943 57.6439 53.1258 56.08 68.2343 60.5717C79.2061 56.3522 85.0986 49.6273 89.9232 43.0371C90.7004 41.9756 91.457 40.9068 92.206 39.8487C93.7872 37.6152 95.3348 35.4289 96.9726 33.4566C99.4094 30.522 102.123 27.9573 105.642 26.1978C106.105 25.9663 106.668 26.154 106.9 26.6171ZM14.3687 172.956C14.7829 172.645 15.3706 172.729 15.6812 173.143L14.1812 174.268C13.8706 173.854 13.9545 173.266 14.3687 172.956ZM14.1812 174.268L14.1997 174.293L14.2513 174.361L14.4524 174.624C14.6293 174.854 14.8911 175.191 15.233 175.622C15.9166 176.486 16.9204 177.728 18.2051 179.25C20.7741 182.292 24.469 186.453 28.9759 190.929C37.9711 199.864 50.2764 210.136 63.3706 215.228C63.8532 215.416 64.3965 215.177 64.5841 214.694C64.7718 214.212 64.5327 213.669 64.0502 213.481C51.3199 208.53 39.2356 198.478 30.2973 189.599C25.8375 185.169 22.1797 181.05 19.6377 178.04C18.3669 176.535 17.3756 175.308 16.703 174.459C16.3667 174.034 16.1102 173.703 15.9382 173.48L15.7444 173.227L15.6963 173.163L15.6812 173.143L14.1812 174.268ZM208.26 189.162C208.383 189.665 208.074 190.172 207.571 190.294C185.385 195.691 171.313 195.287 157.109 193.439C153.478 201.432 146.589 207.575 140.623 211.723C137.547 213.861 134.692 215.488 132.604 216.58C131.559 217.126 130.705 217.54 130.111 217.818C129.813 217.957 129.58 218.062 129.421 218.132L129.237 218.213L129.189 218.234L129.175 218.24C128.698 218.441 128.143 218.22 127.941 217.743C127.74 217.267 127.963 216.717 128.439 216.515L128.451 216.51L128.492 216.492L128.66 216.419C128.809 216.352 129.031 216.252 129.317 216.119C129.889 215.852 130.717 215.451 131.735 214.918C133.77 213.854 136.556 212.267 139.552 210.184C145.567 206.002 152.331 199.885 155.672 192.05C155.837 191.662 156.24 191.433 156.658 191.488C170.908 193.388 184.838 193.894 207.128 188.473C207.631 188.35 208.138 188.659 208.26 189.162Z" fill="#BE6A14"/>
<path fill-rule="evenodd" clip-rule="evenodd" d="M81.7489 64.2728C98.8621 66.8263 137.167 79.4459 153.478 109.496C169.79 139.547 163.915 172.102 158.939 184.623C173.261 186.568 205.399 185.936 219.381 167.847C224.34 161.432 228.329 160.088 232.343 158.164C235.464 156.668 239.725 156.148 240.664 152.274C241.736 147.857 238.332 141.405 238.749 133.915C239.754 115.862 238.749 93.7845 220.056 74.9531C210.411 65.2366 200.209 58.9721 186.702 48.6786C172.323 37.7205 149.08 35.0764 133.802 34.9659C104.307 34.7525 95.8676 52.7519 81.7489 64.2728ZM143.308 80.5242C143.308 80.5242 162.496 98.9424 169.087 126.997C175.677 155.052 169.087 177.777 169.087 177.777C169.087 177.777 193.576 177.777 208.184 164.867C218.362 155.873 213.463 153.688 208.184 141.886C204.671 134.031 201.846 119.692 196.941 115.862C191.649 111.729 185.646 107.703 179.149 98.9556C158.687 71.4076 143.308 80.5242 143.308 80.5242Z" fill="white"/>
<path fill-rule="evenodd" clip-rule="evenodd" d="M127.622 188.205C135.486 180.301 140.289 168.99 140.289 155.192C140.289 141.394 136.869 141.466 136.869 133.915C136.869 128.22 130.424 120.379 124.284 115.862C117.08 110.564 106.913 106.942 92.7717 109.632C84.5642 111.194 85.5554 113.971 73.8285 117.913C62.1016 121.856 47.3322 150.274 59.446 150.274C77.0975 150.274 90.3847 149.69 85.1685 155.192C82.4026 158.11 57.4248 152.274 55.7464 158.639C52.5385 170.803 60.8714 184.081 69.7734 190.239C76.5214 194.907 84.9079 156.384 102.523 158.639C107.757 159.309 125.754 144.566 129.735 141.886C133.716 139.206 132.803 146.101 129.735 148.344C122.145 153.891 104.854 158.639 111.432 163.983C118.992 174.03 121.648 194.209 127.622 188.205ZM85.6746 122.277C90.6117 132.19 97.0376 149.709 99.1173 147.805C101.197 145.902 95.9798 126.913 92.7717 119.805C91.563 117.127 84.3647 119.647 85.6746 122.277Z" fill="white"/>
<path d="M119.803 194.579C123.225 192.193 111.306 165.518 104.605 163.983C95.9417 161.999 73.3698 193.005 78.7637 196.654C84.1576 200.304 87.4391 200.779 95.8676 200.779C105.705 200.779 116.381 196.965 119.803 194.579Z" fill="white"/>
<path fill-rule="evenodd" clip-rule="evenodd" d="M155.656 141.886C153.515 123.441 137.118 96.4795 113.332 84.4271C83.5985 69.3615 39.8739 57.0989 19.5858 84.4271C18.2698 86.1997 16.2803 87.6649 14.3031 89.1211C11.7767 90.9818 9.27052 92.8276 8.21543 95.2807C7.13061 97.803 7.54469 100.952 7.95253 104.053C8.26115 106.4 8.5662 108.72 8.21543 110.72C4.39393 132.514 12.0501 154.37 29.0306 174.119C51.9531 200.779 71.5926 220.422 108.783 213.71C147.611 206.703 159.154 172.017 155.656 141.886ZM51.9539 187.39C44.4132 173.648 34.9658 156.432 46.0555 130.514C34.7248 125.705 29.8192 119.955 26.3273 115.862C23.1987 112.195 21.2049 109.858 16.7416 110.72C10.5703 122.788 12.3444 156.359 55.7464 194.579C54.6356 192.277 53.3263 189.891 51.9539 187.39ZM95.8676 208.073C125.622 209.272 144.796 187.541 147.059 155.192C148.328 137.057 140.289 119.805 124.284 107.735C116.062 101.535 104.702 102.131 92.7717 103.405C68.4767 106 52.1467 123.602 48.5324 147.805C44.1097 177.422 65.994 206.869 95.8676 208.073Z" fill="white"/>
</g>
</g>
</svg>
