<svg width="250" height="250" viewBox="0 0 250 250" fill="none" xmlns="http://www.w3.org/2000/svg">
<g id="Group 12">
<rect id="image 16" width="250" height="250" fill="#D6A461"/>
<path id="latex" d="M116.932 249.995C116.99 217.039 117.207 184.08 115.603 151.077C114.985 152.541 114.439 154.042 113.728 155.46C113.094 156.722 112.349 157.95 111.494 159.071C111.189 159.472 110.416 159.701 109.86 159.694C107.717 159.671 105.573 159.523 103.432 159.411C103.015 159.391 102.601 159.296 102.182 159.272C97.7516 159.034 93.3142 158.879 88.8907 158.547C85.2958 158.279 82.863 156.118 81.3677 153.018C79.921 150.021 78.6293 146.926 77.5414 143.783C76.6826 141.3 76.0622 138.701 75.6456 136.102C75.0322 132.285 74.7428 128.421 75.2891 124.549C75.3886 123.835 75.4164 123.108 75.5345 122.399C75.796 120.822 76.6409 120.381 78.1802 120.789C81.6107 121.695 85.0598 122.529 88.5018 123.381C88.6777 123.425 88.8721 123.386 88.8189 123.386C89.011 120.347 89.1754 117.396 89.3907 114.449C89.5064 112.856 89.7842 111.269 89.856 109.675C90.0319 105.775 90.9555 102.034 92.1059 98.3302C92.7749 96.183 93.0874 93.9223 94.4577 92.0183C95.8188 90.1282 97.3812 88.5948 99.5293 87.5432C104.576 85.0694 109.543 82.4311 114.513 79.809C114.888 79.6098 115.261 79.0052 115.272 78.579C115.404 73.7657 115.592 68.9455 115.497 64.1345C115.436 61.0515 114.777 57.9824 114.673 54.897C114.557 51.4434 114.721 47.9783 114.846 44.5223C114.916 42.616 115.254 40.7166 115.293 38.8126C115.42 32.7323 115.429 26.6496 115.557 20.5693C115.645 16.4231 115.888 12.2816 115.994 8.13537C116.061 5.49709 116.006 2.85416 116.006 0.127864H154.487C153.23 9.94671 155.429 19.3741 157.838 29.0655C158.105 27.7151 158.364 26.6219 158.528 25.5147C159.255 20.6504 160.852 16.0363 162.521 11.4408C163.748 8.05894 164.989 4.68405 166.169 1.28602C166.512 0.296955 167.044 -0.0944951 168.1 0.0190042C169.046 0.120922 170.012 0.0398714 170.998 0.0398714C170.273 2.48126 169.449 4.80682 168.905 7.19493C168.259 10.0347 167.831 12.9278 167.354 15.8046C166.878 18.6861 166.433 21.5723 166.016 24.4631C165.729 26.4574 165.523 28.4633 165.264 30.4623C164.908 33.2117 164.526 35.9589 164.176 38.7084C163.903 40.8602 163.667 43.019 163.415 45.1732C163.123 47.6678 162.815 50.1602 162.542 52.6572C162.348 54.4384 162.172 56.222 162.033 58.0079C161.711 62.0823 161.405 66.1567 161.118 70.2311C161.058 71.0765 161.102 71.9266 161.102 72.7767C161.102 76.3253 161.084 79.8739 161.104 83.4225C161.174 94.6797 161.246 105.937 161.343 117.192C161.38 121.507 161.556 125.823 161.547 130.135C161.535 136.068 161.322 142 161.357 147.932C161.389 153.345 161.679 158.758 161.783 164.171C161.905 170.523 161.935 176.874 162.03 183.225C162.079 186.417 162.148 189.611 162.267 192.801C162.38 195.863 162.544 198.923 162.727 201.981C162.933 205.453 163.179 208.923 163.417 212.392C163.639 215.631 163.861 218.871 164.114 222.107C164.403 225.834 164.683 229.563 165.049 233.286C165.461 237.49 165.979 241.68 166.415 245.882C166.556 247.248 166.577 248.626 166.653 250H161.565C161.22 247.869 160.85 245.743 160.533 243.607C160.16 241.092 159.808 238.571 159.491 236.049C159.216 233.858 159.003 231.659 158.764 229.464C158.463 226.703 158.13 223.946 157.875 221.18C157.667 218.899 157.57 216.606 157.394 214.322C157.1 210.518 156.787 206.717 156.475 202.914C156.331 201.179 156.172 199.447 156.019 197.712C155.283 199.12 154.737 200.524 154.234 201.943C151.686 209.129 150.535 216.483 151.871 224.064C152.73 228.94 153.656 233.814 154.834 238.618C155.778 242.465 157.146 246.208 158.327 249.998H116.927L116.932 249.995ZM97.291 91.0802C96.3905 92.6275 95.3165 93.9686 94.7817 95.4997C93.6174 98.8375 92.717 102.268 91.7355 105.668C91.4531 106.646 91.1244 107.639 91.0527 108.645C90.8305 111.848 90.724 115.061 90.5619 118.271C90.474 120.018 90.3652 121.762 90.2587 123.631C90.7749 123.631 91.1129 123.608 91.4485 123.634C96.2054 124.004 100.694 122.545 105.249 121.586C108.499 120.903 111.721 120.078 115.017 119.304V86.1719C112.295 87.2907 109.675 88.384 107.043 89.4472C104.691 90.3992 102.356 91.4022 99.9576 92.2291C98.1197 92.8638 98.0826 92.7572 97.2863 91.0848L97.291 91.0802ZM138.542 59.3536C138.399 59.5065 138.272 59.5783 138.258 59.6664C137.774 62.7772 137.184 65.8764 136.855 69.0034C136.427 73.0639 136.005 77.1453 135.945 81.2243C135.848 87.6891 136.024 94.1586 136.151 100.626C136.184 102.259 136.443 103.889 136.642 105.518C136.994 108.383 137.327 111.251 137.769 114.102C138.017 115.698 138.274 117.345 138.878 118.825C140.026 121.637 141.397 124.363 142.737 127.092C143.167 127.972 143.795 128.755 144.431 129.735C145.769 125.695 145.755 121.753 145.577 117.827C145.392 113.745 144.975 109.673 144.697 105.597C144.572 103.762 144.552 101.921 144.447 100.084C144.397 99.1711 144.269 98.2654 144.165 97.355C143.88 94.8233 143.598 92.2916 143.297 89.7599C143.042 87.6103 142.883 85.44 142.478 83.3159C141.841 79.9712 140.873 76.6866 140.336 73.3303C139.598 68.7139 139.133 64.0557 138.54 59.3513L138.542 59.3536ZM133.806 214.75C133.806 212.2 134.073 209.939 133.751 207.764C133.077 203.197 132.313 198.62 131.184 194.147C129.545 187.663 128.047 181.106 125.013 175.065C124.115 173.277 123.191 171.5 122.279 169.719C122.168 170.381 122.251 170.935 122.341 171.489C122.851 174.592 123.378 177.696 123.865 180.805C124.362 183.99 124.74 187.196 125.316 190.367C126.293 195.738 127.721 200.991 129.638 206.111C130.725 209.018 131.888 211.874 133.806 214.75ZM80.3631 127.034C80.4256 131.05 81.532 134.68 82.5667 138.317C82.6385 138.565 83.0459 138.803 83.3422 138.889C85.7009 139.563 89.5018 137.3 90.0689 134.909C90.1036 134.761 90.1013 134.604 90.1036 134.451C90.1059 133.374 90.1152 132.297 90.1036 131.217C90.0944 130.518 89.8768 130.05 89.0782 129.811C86.2241 128.959 83.4 128.009 80.3677 127.034H80.3631ZM112.747 129.749C111.805 130.129 110.955 130.474 110.057 130.837C112.541 133.219 112.073 136.188 111.353 138.229C110.587 140.397 109.4 142.338 107.927 144.117C107.106 145.11 106.258 146.13 105.68 147.267C105.085 148.441 105.812 151.818 106.638 153.051C112.318 146.32 112.997 138.233 112.744 129.749H112.747Z" fill="white"/>
</g>
</svg>
