<svg width="250" height="250" viewBox="0 0 250 250" fill="none" xmlns="http://www.w3.org/2000/svg">
<g id="Group 13">
<rect id="image 17" width="250" height="250" fill="#653024"/>
<g id="murumuru">
<path d="M191.021 76.2229C190.032 76.2806 189.588 76.3916 189.18 76.3117C186.509 75.779 183.86 75.0996 181.176 74.6734C178.345 74.2295 175.652 74.9443 173.155 76.2939C168.94 78.567 164.871 81.1464 160.528 83.1308C155.652 85.3595 150.625 87.3485 145.51 88.9334C139.503 90.798 133.38 92.3608 127.213 93.595C121.543 94.7315 115.718 95.0822 110.021 96.0989C103.841 97.1999 97.6387 97.3598 91.4142 97.1867C81.4983 96.9114 71.7466 95.6283 62.1768 92.7647C56.2139 90.98 50.0426 89.879 44.5323 86.7891C34.0131 80.8888 25.5258 73.093 21.6437 61.2837C20.5878 58.0783 20.4325 54.5888 19.5363 51.3213C17.6419 44.4266 21.0847 38.8238 23.7644 33.0745C27.1407 25.8336 31.7592 19.343 38.0016 14.3973C41.8792 11.3251 46.4755 9.03865 50.9965 6.92984C54.6345 5.23392 58.5875 4.11512 62.5006 3.13397C66.8264 2.05072 71.2497 1.78874 75.7218 2.65002C78.9339 3.27156 82.2392 3.40476 85.4602 3.99078C90.518 4.90978 95.589 5.82434 100.562 7.10738C109.897 9.51808 118.699 13.4472 127.036 18.1576C133.46 21.7847 139.485 26.1887 145.386 30.6461C150.146 34.2421 154.623 38.26 158.913 42.411C164.13 47.4588 169.037 52.8263 174.051 58.0827C176.833 60.9996 179.499 64.0318 182.334 66.8954C184.437 69.0219 186.788 70.8999 188.913 73.0042C189.721 73.8034 190.196 74.9399 191.021 76.2229ZM34.8427 47.0193C36.014 47.3656 36.5597 47.561 37.1187 47.6853C41.928 48.7552 46.7196 50.5666 51.5555 50.682C57.9842 50.8329 64.5637 50.2469 70.8548 48.9062C79.5994 47.0415 88.0911 44.0404 96.7647 41.8073C103.841 39.9826 111.011 38.5042 118.163 36.9903C121.974 36.1823 125.838 35.6229 129.862 34.9215C129.511 34.6062 129.303 34.3087 129.015 34.1666C123.944 31.6094 118.921 28.9369 113.766 26.5617C108.282 24.04 102.555 22.1398 96.534 21.4028C91.982 20.8434 87.3857 20.6126 82.8248 20.1065C77.2968 19.4938 71.8752 19.1076 66.3428 20.6526C54.3905 24 44.2927 29.7493 37.9971 40.9104C36.9102 42.8417 35.9563 44.8439 34.8427 47.0193Z" fill="white"/>
<path d="M197.183 200.509C189.18 200.513 182.139 197.392 175.138 194.125C158.332 186.289 147.617 172.611 139.986 156.371C135.732 147.309 132.888 137.591 128.908 128.388C126.77 123.442 123.655 118.905 120.807 114.292C119.321 111.886 117.417 109.742 115.785 107.42C115.425 106.909 115.101 105.79 115.341 105.564C115.971 104.965 117 104.245 117.728 104.379C121.122 104.987 124.436 106.119 127.843 106.572C130.687 106.949 133.62 106.656 136.512 106.63C139.072 106.603 141.628 106.496 144.188 106.487C151.176 106.465 158.168 106.598 165.151 106.447C172.285 106.292 179.304 106.847 185.985 109.466C196.442 113.569 206.948 117.578 217.184 122.181C220.165 123.522 222.61 126.514 224.739 129.196C228.062 133.378 231.416 137.676 233.808 142.408C236.27 147.278 238.187 152.61 239.194 157.96C239.775 161.05 238.404 164.677 237.339 167.869C235.52 173.339 232.92 178.542 229.163 182.924C226.367 186.187 222.929 188.891 219.819 191.887C215.169 196.376 209.704 199.084 203.244 199.732C201.216 199.936 199.202 200.247 197.183 200.509ZM148.957 146.524C154.099 154.16 159.122 162.24 167.245 167.585C173.727 171.852 180.413 175.488 188.616 175.479C195.79 175.47 200.817 172.247 204.593 166.524C206.159 164.153 206.398 160.082 205.147 158.693C201.784 154.959 197.871 151.944 193.35 149.742C188.212 147.243 182.733 146.129 177.125 145.121C170.87 143.998 164.947 145.6 158.878 146.035C155.625 146.266 152.369 146.359 148.957 146.524Z" fill="white"/>
<path d="M127.329 247.862C120.208 247.84 115.856 245.011 111.512 242.175C104.249 237.433 100.274 230.192 97.1552 222.503C94.4044 215.728 91.9465 208.798 89.9722 201.761C88.8631 197.814 88.6679 193.521 88.6634 189.379C88.6634 184.114 88.9784 178.804 89.6839 173.588C90.6732 166.249 92.4612 159.079 95.1365 152.118C98.6015 143.101 103.854 135.154 109.201 127.238C110.221 125.729 111.414 124.281 112.763 123.074C114.041 121.928 115.416 121.733 117.022 123.123C121.641 127.118 124.458 132.179 126.65 137.764C129.645 145.401 132.755 153.001 135.993 160.535C140.803 171.723 145.519 182.951 148.904 194.653C149.995 198.427 150.665 202.44 149.862 206.494C149.609 207.772 149.725 209.14 149.8 210.458C150.151 216.949 148.522 223.04 145.838 228.838C144.135 232.518 142.484 236.412 139.933 239.475C136.295 243.839 131.592 247.103 127.329 247.862ZM112.302 230.379C115.372 232.354 118.007 234.303 120.878 235.791C122.355 236.554 124.671 237.295 125.9 236.665C130.314 234.401 134.183 231.426 136.464 226.649C138.562 222.254 139.707 217.655 140.461 212.927C140.625 211.888 140.461 210.103 139.827 209.739C135.834 207.439 131.619 205.739 126.92 207.746C121.876 209.894 118.495 213.81 116.326 218.64C114.711 222.237 113.735 226.117 112.302 230.379Z" fill="white"/>
<path d="M40.3707 171.865C33.5162 172.668 26.9899 170.36 20.8718 167.012C14.6161 163.589 11.2177 158.44 10.7607 150.848C10.1085 140.024 14.2568 131.385 20.4769 123.092C24.5719 117.631 29.084 112.778 34.9669 109.32C40.6369 105.99 46.5909 103.517 53.2858 102.958C66.955 101.822 79.7015 104.698 91.6981 111.225C94.1782 112.574 96.7425 113.768 99.2315 115.1C102.262 116.716 104.005 119.673 100.514 122.492C91.951 129.405 87.3147 139.003 82.674 148.619C78.65 156.957 71.8176 162.608 63.7562 166.528C58.7473 168.966 53.1749 170.329 47.7489 171.767C45.5527 172.353 43.0682 171.865 40.3707 171.865ZM81.2632 135.194C80.3048 135.545 79.9854 135.642 79.6793 135.78C77.3678 136.81 75.1406 138.142 72.736 138.83C64.7589 141.107 56.6665 142.994 48.7116 145.338C40.3486 147.798 32.1985 150.87 24.8381 155.7C24.3501 156.02 23.9464 156.477 23.4583 156.908C26.6971 160.611 30.7654 162.622 35.0512 163.066C41.0318 163.687 47.0789 163.421 53.0196 161.543C61.4891 158.866 68.7607 154.755 73.6366 147.07C76.0324 143.292 78.4725 139.536 81.2632 135.194Z" fill="white"/>
</g>
</g>
</svg>
