<svg width="250" height="250" viewBox="0 0 250 250" fill="none" xmlns="http://www.w3.org/2000/svg">
<g id="Group 14">
<rect id="image 31" width="250" height="250" fill="#FFA400"/>
<g id="pataua">
<path fill-rule="evenodd" clip-rule="evenodd" d="M53.8781 22.4263C54.346 22.2046 54.905 22.4043 55.1266 22.8722C61.8956 37.1624 71.7291 41.7813 82.4927 46.8372L82.7193 46.9436C93.2464 51.8889 104.558 57.2877 114.094 72.5936C117.75 63.0427 121.355 55.3305 126.517 48.2315C132.003 40.686 139.214 33.8798 150.027 26.2779C150.451 25.9802 151.036 26.0821 151.333 26.5057C151.631 26.9293 151.529 27.5141 151.106 27.8118C140.406 35.3342 133.364 42.0029 128.033 49.3342C122.699 56.6704 119.043 64.7167 115.166 75.0558C115.039 75.3943 114.729 75.6296 114.369 75.6607C114.009 75.6918 113.663 75.5131 113.48 75.2014C104.042 59.1317 92.7486 53.7266 81.9221 48.6407C81.8203 48.5928 81.7185 48.545 81.6167 48.4972C70.8528 43.4417 60.4898 38.5746 53.4321 23.6749C53.2105 23.2069 53.4101 22.6479 53.8781 22.4263ZM194.998 196.822C195.253 197.273 195.094 197.845 194.643 198.099C176.754 208.211 161.214 208.993 148.875 209.615L148.469 209.636C142.241 209.95 136.952 210.247 132.533 211.656C128.181 213.044 124.691 215.509 122.076 220.214C121.825 220.667 121.254 220.83 120.802 220.579C120.349 220.327 120.186 219.756 120.437 219.304C123.306 214.141 127.202 211.388 131.964 209.87C136.659 208.372 142.211 208.074 148.374 207.763L148.735 207.745C161.048 207.124 176.218 206.36 193.721 196.467C194.171 196.212 194.743 196.371 194.998 196.822Z" fill="#BE6A14"/>
<path fill-rule="evenodd" clip-rule="evenodd" d="M157.042 198.218C177.515 196.708 208.941 190.547 229.739 149.271C260.986 87.2577 237.305 36.6351 237.305 36.6351L233.943 36.2148C233.943 36.2148 233.312 31.5914 229.401 25.7879C226.676 21.7451 224.642 23.3267 223.156 15.9741C208.257 11.7559 192.388 22.6378 192.388 22.6378L189.838 19.4728C189.838 19.4728 149.015 26.9082 123.976 77.1613C97.2107 130.879 112.668 168.247 132.709 187.859C134.833 189.936 135.955 192.563 136.994 194.993C139.565 201.004 141.627 205.827 157.042 198.218ZM156.501 109.948C156.501 109.948 160.042 122.686 162.597 128.236L166.768 130.987C166.768 130.987 173.418 129.313 176.991 131.414C178.882 141.081 188.571 142.391 188.571 142.391C188.571 142.391 191.173 138.2 198.33 136.815C212.736 134.027 216.28 117.763 229.905 114.921C241.469 95.8116 239.387 64.3193 239.387 64.3193L237.448 60.9885C234.351 43.9259 229.111 32.2188 229.111 32.2188L222.464 27.6257L229.111 41.2241C231.671 49.878 234.574 72.0578 234.574 72.0578C234.574 72.0578 233.263 86.8535 231.058 100.335L229.416 104.972L227.967 92.1241C229.39 76.758 229.202 61.7796 227.173 44.5298L222.926 38.0702C222.926 38.0702 224.739 60.8717 224.79 68.4248C224.901 84.7435 223.309 104.657 223.309 104.657L218.501 113.918C218.501 113.918 222.062 74.5481 219.103 55.4492C214.857 67.0772 213.692 75.4491 213.692 75.4491C213.692 75.4491 217.686 101.433 210.878 122.235C209.219 117.657 209.73 111.54 210.296 104.768C210.296 104.768 211.188 91.9039 210.51 85.8561L207.13 95.826L204.045 117.942C204.045 117.942 202.664 123.264 197.927 131.257C202.066 95.9915 203.264 90.8217 208.563 77.0148C210.309 64.3172 218.71 44.0516 218.71 44.0516L219.172 30.2546L217.733 27.8822C215.462 38.0482 209.983 53.0625 206.79 61.8049C203.464 68.8118 201.949 74.0864 200.948 81.8181C199.262 94.8524 192.963 119.646 185.862 133.795C185.862 133.795 184.46 125.244 187.892 115.102C191.617 105.159 196.45 92.2616 198.487 71.7588C198.487 71.7588 191.098 82.1167 186.781 101.238C185.46 107.085 179.594 119.469 179.594 119.469L175.045 123.179L172.695 123.337C179.079 113.718 181.096 105.05 183.041 96.6922C185.622 85.6023 188.076 75.0598 200.434 63.5692C204.788 54.5876 207.482 46.6634 209.782 39.895C212.249 32.6366 216.614 24.6819 217.327 21.157L213.909 22.1182L206.416 30.0141C206.416 30.0141 205.87 42.1623 202.098 47.9818C187.389 70.6792 176.289 90.6003 176.289 90.6003C176.06 98.3845 173.839 109.769 173.839 109.769C173.839 109.769 168.954 120.603 165.646 121.038L172.018 99.3141C172.018 99.3141 165.962 110.534 162.887 109.851C162.887 109.851 166.707 95.4192 189.667 60.5586C202.468 41.1233 201.147 35.4982 201.147 35.4982C201.147 35.4982 190.419 46.8736 184.256 57.6462C183.133 59.6094 182.01 62.0091 180.748 64.7024C176.866 72.9929 171.681 84.0663 161.201 93.7597C162.198 86.4919 165.567 81.8603 168.966 77.1884C172.277 72.6381 175.615 68.0496 176.815 60.9499C171.447 64.8585 162.935 79.3672 162.935 79.3672L157.414 85.6006L154.806 86.8791C160.267 70.7788 171.025 58.494 179.798 54.4584C198.951 27.9479 204.123 25.6391 204.123 25.6391L208.733 19.0966L195.588 26.8718C195.588 26.8718 191.663 34.0327 184.907 39.1383C170.9 49.7228 165.827 54.7485 156.701 73.49L149.934 80.6139L145.713 83.1206C145.713 83.1206 156.068 66.1299 159.208 58.8941C149.788 62.8533 141.733 80.2458 141.733 80.2458C141.733 80.2458 137.653 74.5086 148.275 61.6606C154.074 56.0107 165.076 51.2528 165.076 51.2528C165.076 51.2528 174.681 39.1811 186.157 31.895L189.982 26.088L178.544 29.3913L177.454 32.3593L163.792 41.6295L159.969 46.7225C159.969 46.7225 149.963 52.1876 144.163 58.2775C140.5 64.3028 134.862 74.6772 135.028 79.8821C135.215 85.7303 137.451 87.9053 148.292 87.98C148.292 87.98 154.126 92.2552 155.721 96.6051C157.896 102.985 156.501 109.948 156.501 109.948ZM135.293 110.713C132.277 105.108 124.303 104.894 124.303 104.894C121.91 117.196 122.598 167.699 134.215 163.94C134.215 163.94 129.259 143.681 135.293 110.713ZM144.99 188.073L147.145 182.04L140.505 173.801L138.525 174.715C135.135 178.165 139.254 190.282 144.99 188.073ZM200.158 166.309L198.434 159.63C198.434 159.63 164.01 178.373 167.404 181.826C170.854 185.335 200.158 166.309 200.158 166.309Z" fill="white"/>
<path fill-rule="evenodd" clip-rule="evenodd" d="M89.9983 112.799L104.372 117.266C96.297 158.988 128.149 193.756 128.149 193.756C128.149 193.756 122.765 209.659 105.25 223.806C102.119 226.335 100.749 228.689 99.6329 230.607C98.4499 232.64 95.146 234.92 95.146 234.92C95.146 234.92 90.4051 235.351 87.7473 234.138C85.5183 233.121 82.3645 231.682 76.298 230.444C53.2265 228.273 25.9988 206.788 11.6885 168.298C-4.05438 125.955 4.85066 69.9044 37.0228 61.4915C37.9897 60.1891 38.0267 56.9709 38.0267 56.9709L40.581 52.534C40.581 52.534 47.045 49.3334 52.3141 48.6457C55.3336 48.0439 56.7485 50.2583 58.0576 52.3071C58.8683 53.576 59.6384 54.7813 60.724 55.2148C79.5661 54.5419 102.509 70.29 111.93 88.9077L106.386 102.983C106.386 102.983 85.7364 81.8437 75.8667 81.8437C73.6236 89.0216 78.3341 101.807 78.3341 101.807L90.2226 107.864L89.9983 112.799ZM25.8189 82.4498L38.6012 76.5436L42.6244 89.5416C36.7792 100.119 36.8103 137.895 42.9339 157.936L37.9823 156.698C37.9823 156.698 28.7333 150.426 25.8114 152.618C16.0418 159.946 16.6335 99.7072 25.8189 82.4498ZM47.0222 61.3C47.0222 61.3 52.2579 57.2987 56.8552 59.06C59.6233 60.1205 57.2404 62.3961 51.5041 64.6024C45.7677 66.8087 47.0222 61.3 47.0222 61.3ZM71.3369 205.98L80.9896 215.934L80.7885 220.761C77.1687 223.274 65.4045 219.353 65.8067 214.828C66.2351 210.009 71.3369 205.98 71.3369 205.98Z" fill="white"/>
</g>
</g>
</svg>
