<svg width="250" height="250" viewBox="0 0 250 250" fill="none" xmlns="http://www.w3.org/2000/svg">
<g id="Group 15">
<rect id="image 34" width="250" height="250" fill="#D6A461"/>
<g id="pau rosa">
<path fill-rule="evenodd" clip-rule="evenodd" d="M161.888 4.495C162.362 4.70287 162.578 5.25581 162.37 5.73001C159.009 13.3971 156.175 20.0541 154.145 25.8876C152.113 31.7265 150.909 36.6792 150.77 40.9436C150.631 45.1838 151.546 48.7209 153.742 51.7818C155.951 54.861 159.518 57.5429 164.838 59.9452C165.31 60.1583 165.519 60.7136 165.306 61.1855C165.093 61.6573 164.538 61.8671 164.066 61.654C158.574 59.1737 154.688 56.3163 152.218 52.8749C149.736 49.4151 148.746 45.4502 148.896 40.8824C149.044 36.3388 150.319 31.1773 152.374 25.2713C154.432 19.36 157.293 12.6413 160.653 4.97725C160.861 4.50304 161.414 4.28713 161.888 4.495ZM79.0111 73.1383C79.5221 73.2219 79.8686 73.7039 79.785 74.2149C77.294 89.4398 80.054 97.4443 83.944 101.779C87.8603 106.143 93.1194 107.032 96.2663 107.557C96.5515 107.604 96.7988 107.781 96.9365 108.035C97.0742 108.289 97.087 108.593 96.971 108.858L96.9622 108.877L96.9394 108.929L96.8515 109.122C96.7743 109.29 96.6599 109.534 96.5093 109.844C96.2079 110.465 95.761 111.351 95.1748 112.422C94.0032 114.561 92.2705 117.446 90.0264 120.423C85.5672 126.337 78.9554 132.793 70.5715 134.251C70.0614 134.34 69.576 133.998 69.4873 133.488C69.3986 132.978 69.7402 132.493 70.2503 132.404C77.9097 131.072 84.1485 125.105 88.5292 119.294C90.705 116.408 92.3895 113.604 93.5302 111.521C94.0474 110.577 94.4518 109.782 94.7386 109.197C91.4566 108.604 86.4258 107.352 82.5485 103.031C78.1245 98.1015 75.3973 89.42 77.9346 73.9121C78.0182 73.4011 78.5002 73.0547 79.0111 73.1383ZM224.509 114.56C224.939 114.848 225.056 115.43 224.769 115.861C221.088 121.381 217.791 124.712 214.565 126.98C211.45 129.169 208.44 130.335 205.367 131.525C205.265 131.565 205.163 131.604 205.061 131.644C201.877 132.878 198.575 134.191 194.788 136.734C190.999 139.278 186.692 143.078 181.569 149.309C181.24 149.709 180.65 149.767 180.25 149.438C179.85 149.109 179.792 148.518 180.121 148.118C185.335 141.776 189.774 137.843 193.743 135.177C197.713 132.511 201.181 131.137 204.383 129.896L204.632 129.799C207.74 128.595 210.562 127.501 213.487 125.446C216.481 123.341 219.625 120.196 223.209 114.82C223.496 114.39 224.078 114.273 224.509 114.56Z" fill="#BE6A14"/>
<path fill-rule="evenodd" clip-rule="evenodd" d="M219.158 55.5063C228.386 42.5288 227.112 20.4912 227.112 20.4912C231.894 22.4704 229.517 28.5723 228.63 38.6307C228.63 38.6307 236.124 37.8689 238.228 31.7898C241.667 21.8557 238.037 28.3511 227.112 7.69525C227.112 7.69525 217.229 16.5391 214.759 26.509C212.312 36.3843 222.186 39.1427 222.186 39.1427C222.186 39.1427 219.169 49.0032 213.299 53.9111C208.243 58.1385 196.611 59.3997 196.611 59.3997L177.073 66.3341C178.261 47.2191 176.41 41.755 172.599 22.6369C180.468 29.2393 180.13 50.3183 180.13 50.3183C180.13 50.3183 190.324 47.6957 192.191 36.5543C193.855 26.6273 178.619 28.4757 170.671 6.52161C170.671 6.52161 158.257 25.6512 159.036 38.8833C159.967 54.7143 172.889 52.9116 172.889 52.9116C172.889 52.9116 172.831 61.9404 169.882 68.6409C166.996 75.2011 155.279 82.7679 155.279 82.7679C155.279 82.7679 149.389 89.3075 141.862 96.1614C132.159 104.996 109.205 112.417 109.205 112.417C112.475 92.1718 103.888 77.8768 96.5674 62.1618C106.252 66.728 112.732 81.0011 111.889 96.0042C111.889 96.0042 122.464 89.9938 121.622 78.2522C120.277 59.5018 86.8683 48.4135 86.8683 48.4135C91.5143 71.7291 82.166 80.2886 88.0612 93.9872C91.7815 102.632 105.249 100.038 105.249 100.038C105.249 100.038 104.989 107.606 101.199 114.999C97.6626 121.898 83.9027 137.193 83.9027 137.193L60.3209 145.855L44.1689 161.407C44.1689 161.407 18.3094 176.089 13.0456 186.634C6.74837 199.248 14.3391 222.951 14.3391 222.951C14.3391 222.951 27.6237 238.838 39.354 242.423C50.8081 245.924 78.2459 239.601 78.2459 239.601L106.182 213.237C106.182 213.237 122.39 203.297 130.251 192.412C138.645 180.79 147.327 164.844 156.355 153.741C164.027 144.306 167.647 146.22 174.02 140.308C178.846 135.831 185.528 127.939 185.528 127.939L211.132 118.055L219.876 104.786L215.9 99.9113L207.188 108.279L198.336 110.062C198.336 110.062 188.009 117.988 184.16 116.059L199.757 94.2098L205.349 71.0826C205.349 71.0826 214.848 61.569 219.158 55.5063ZM84.2688 221.57C88.0693 214.701 89.1094 199.732 89.1094 199.732C89.1094 199.732 82.3961 182.37 76.3192 180.406C51.5128 172.391 40.762 177.417 40.762 177.417C40.762 177.417 25.4419 182.32 20.5651 190.514C14.8009 200.199 20.5661 219.625 20.5661 219.625C20.5661 219.625 29.3036 231.678 37.4752 235.147C45.9642 238.751 64.5884 236.111 64.5884 236.111C64.5884 236.111 78.1543 232.621 84.2688 221.57ZM92.0665 160.351C98.9406 155.196 98.4496 146.358 98.4496 146.358L69.1003 164.181L92.0665 160.351ZM117.819 184.783L145.783 145.39L131.484 151.114C131.484 151.114 117.416 169.169 117.819 184.783ZM133.685 112.607L115.121 122.148C107.755 126.759 104.463 133.883 104.463 133.883C104.463 133.883 117.868 131.402 124.33 121.905L148.625 110.848L133.685 112.607ZM161.45 134.014L164.91 112.313L179.181 98.956L186.342 89.7941L185.031 98.4678C185.031 98.4678 184.945 102.89 176.847 108.946C169.701 114.29 161.45 134.014 161.45 134.014ZM166.232 86.483L182.566 71.3188C182.566 71.3188 185.12 76.9861 179.653 81.0928C176.598 83.3871 166.232 86.483 166.232 86.483Z" fill="white"/>
<path d="M27.0882 193.001C27.0882 193.001 36.9116 184.957 42.8113 184.439C48.3217 183.955 60.8794 184.175 60.8794 184.175L54.7098 200.013C62.9971 201.031 68.565 185.666 68.565 185.666L77.6184 188.493C77.6184 188.493 82.1574 199.02 82.4369 205.066C82.597 208.53 82.3924 211.536 81.7125 214.216C81.2752 215.939 75.7943 218.545 75.7943 218.545L77.5081 222.142C76.7971 222.941 76.0002 223.715 75.1115 224.469C73.678 225.685 62.2747 221.789 62.2747 221.789L64.1187 231.261C55.5752 233.93 30.3254 230.68 25.262 216.223C21.9795 206.851 27.0882 193.001 27.0882 193.001Z" fill="white"/>
</g>
</g>
</svg>
