<svg width="250" height="250" viewBox="0 0 250 250" fill="none" xmlns="http://www.w3.org/2000/svg">
<g id="Group 16">
<rect id="image 35" width="250" height="250" fill="#653024"/>
<g id="pim macaco">
<path fill-rule="evenodd" clip-rule="evenodd" d="M59.0556 42.2557C47.0688 47.1206 33.6571 60.8334 29.1782 96.8622C29.1143 97.376 28.646 97.7408 28.1322 97.6769C27.6183 97.613 27.2536 97.1447 27.3175 96.6309C31.8458 60.2056 45.5115 45.7291 58.3504 40.5184C64.7297 37.9293 70.8111 37.6705 75.2878 38.0543C77.5276 38.2464 79.3726 38.5999 80.6623 38.9069C81.3074 39.0604 81.8144 39.2026 82.1633 39.3075C82.3378 39.3599 82.4729 39.4031 82.566 39.4337L82.674 39.4699L82.7038 39.4802C82.7048 39.4806 82.7172 39.4849 82.405 40.3617L82.7172 39.4849C83.205 39.6586 83.4596 40.1948 83.2859 40.6826C83.1123 41.1701 82.5766 41.4247 82.089 41.2516L82.0659 41.2436L81.9798 41.2147C81.9016 41.189 81.782 41.1507 81.6236 41.1031C81.3068 41.0079 80.8351 40.8754 80.2281 40.7309C79.0136 40.4418 77.261 40.1054 75.1276 39.9225C70.8575 39.5563 65.0891 39.807 59.0556 42.2557ZM155.621 78.6561C156.081 78.8926 156.263 79.4577 156.026 79.9183C149.324 92.9711 146.886 103.58 146.886 112.344C146.886 121.1 149.32 128.081 152.462 133.886C154.764 138.139 157.418 141.721 159.81 144.949C160.708 146.16 161.568 147.322 162.359 148.45C165.175 152.465 167.263 156.256 166.041 160.126C165.885 160.62 165.359 160.894 164.865 160.738C164.371 160.582 164.097 160.055 164.253 159.561C165.164 156.676 163.697 153.623 160.824 149.527C160.081 148.466 159.252 147.347 158.374 146.163C155.962 142.908 153.184 139.159 150.813 134.779C147.555 128.761 145.011 121.475 145.011 112.344C145.011 103.219 147.551 92.3179 154.358 79.0618C154.595 78.6012 155.16 78.4195 155.621 78.6561ZM239.795 119.57C240.303 119.47 240.796 119.801 240.896 120.309C242.357 127.716 240.098 133.726 236.369 140.053C234.929 142.497 233.25 145.019 231.47 147.692C230.958 148.461 230.437 149.244 229.911 150.04C227.55 153.616 225.063 157.516 222.685 161.973C222.441 162.43 221.874 162.603 221.417 162.359C220.96 162.116 220.787 161.548 221.031 161.091C223.45 156.557 225.975 152.6 228.347 149.007C228.884 148.193 229.412 147.4 229.929 146.624C231.702 143.96 233.342 141.497 234.754 139.101C238.384 132.942 240.388 127.422 239.057 120.672C238.957 120.164 239.287 119.671 239.795 119.57Z" fill="#FFA400"/>
<path fill-rule="evenodd" clip-rule="evenodd" d="M231.701 35.6686C233.731 31.25 227.481 31.25 226.043 22.8914C215.743 28.28 195.937 39.9388 185.711 44.7382C182.057 41.6212 174.771 42.3788 171.647 48.4561C162.741 54.0703 157.213 51.6858 157.213 51.6858C157.213 51.6858 138.028 20.6142 120.14 14.1256C64.3284 -6.11969 99.604 161.593 99.604 161.593C102.352 163.489 104.637 162.114 103.754 157.265C99.0592 131.5 94.0595 94.4039 94.8279 65.6817C96.2311 25 108.731 25 108.731 25C108.731 25 114.981 18.75 127.481 31.25C127.481 31.25 140.919 43.7943 144.643 53.5333C145.675 55.1295 143.404 57.7138 143.404 57.7138C138.517 60.3027 130.829 62.5298 127.23 59.8306C116.047 41.8355 105.136 32.9163 105.136 32.9163L101.498 42.0859C116.539 61.9782 118.094 69.1579 98.5396 75.6463L98.9166 80.413L102.09 79.2411C102.09 79.2411 99.7078 82.8023 99.6635 85.3797C99.5549 91.6977 108.996 100.794 108.013 108.463L99.1621 93.6344C100.465 108.63 105.642 146.54 107.477 156.081C124.451 118.352 124.777 101.197 110.118 78.8874L117.133 75.9306C121.906 80.1235 131.865 77.0924 134.246 69.7314L147.967 64.9896C153.531 67.4524 158.199 67.7583 161.354 61.1337C176.484 51.3968 176.966 59.0199 176.966 59.0199C176.966 59.0199 154.954 79.1301 154.214 108.063C153.276 144.706 183.697 150.515 184.739 177.378C184.739 177.378 209.034 166.273 222.95 142.417C227.383 134.818 237.003 117.864 230.762 102.255C226.588 91.816 225.399 85.8735 220.859 80.7379C210.167 68.6437 194.585 63.6582 189.026 59.3262C186.409 57.2865 188.156 50.8746 188.156 50.8746C206.625 41.2297 214.088 43.3193 231.701 35.6686ZM202.481 75C200.055 69.7425 188.695 70.5987 181.732 58.6631C181.258 68.5578 169.972 80.3422 169.972 80.3422C169.972 80.3422 177.868 79.1052 183.174 65.7374C188.77 79.1644 186.767 86.4481 165.694 103.935C173.12 104.195 186.116 92.9954 188.363 83.529L192.301 104.355C187.476 120.209 172.089 124.948 172.089 124.948C177.395 127.027 187.893 119.213 194.322 111.152C195.781 118.968 193.781 129.01 193.781 129.01C193.781 129.01 188.624 139.279 179.851 144.465C179.851 144.465 187.136 144.676 194.147 134.903C195.387 147.019 189.519 166.137 189.519 166.137C197.988 156.08 197.71 134.139 197.71 134.139C197.71 134.139 206.866 145.786 211.305 144.61C199.915 132.591 198.001 128.155 198.001 128.155C198.001 128.155 198.721 117.428 197.445 110.05C206.309 115.988 220.543 122.199 220.543 122.199C215.964 115.337 197.503 108.267 196.761 102.868C195.801 95.8853 193.557 88.9343 193.557 88.9343L215.669 98.784C208.363 87.9185 190.571 89.9852 188.695 70.5987L202.481 75Z" fill="white"/>
<path fill-rule="evenodd" clip-rule="evenodd" d="M90.1902 23.5026C60.0373 13.5314 37.2759 30.5475 37.2759 30.5475C37.2759 30.5475 24.5222 47.7584 19.7619 57.4888C12.2573 72.8286 8.38223 117.242 9.93233 163.684C10.855 168.279 16.4731 168.154 16.2488 162.633C9.48362 -3.89523 86.7935 34.1779 86.7935 34.1779L90.1902 23.5026Z" fill="white"/>
<path fill-rule="evenodd" clip-rule="evenodd" d="M85.7255 79.9418C85.7255 79.9418 57.5684 92.0103 48.0226 105.276C19.2704 145.233 17.423 168.742 16.6177 209.649C15.0434 226.067 9.7224 236.675 11.6559 237.472C15.8888 239.216 29.5084 217.504 55.001 210.076C70.7306 205.493 72.2623 198.511 80.0918 192.532C97.6999 179.086 103.492 166.422 103.492 166.422C103.492 166.422 97.7601 168.192 96.4682 162.869C93.7077 151.496 89.4353 124.906 89.4353 124.906C85.4444 119.418 80.3754 110.589 80.8743 103.979C80.8743 103.979 73.4897 112.232 68.1057 121.247C68.2277 135.921 83.0239 152.09 80.0738 163.682C74.2672 144.889 66.1063 146.432 64.7236 126.637C64.7236 126.637 55.507 141.122 49.8008 155.556C50.692 169.846 59.9298 183.031 57.1541 190.587C53.9011 177.548 47.6242 173.986 46.4187 162.532L32.258 198.98L25.2945 207.873L41.6998 164.292C28.5398 177.202 25.214 175.238 25.214 175.238C25.214 175.238 43.4376 162.065 54.9919 135.26C38.6295 150.296 33.4439 148.519 33.4439 148.519C33.4439 148.519 58.484 131.565 69.9018 108.816L46.9743 119.928C55.6698 109.04 70.8864 108.535 86.4272 91.3802C72.7041 97.3249 67.8402 95.953 67.8402 95.953C67.8402 95.953 83.18 90.1896 85.7963 87.2953L85.7255 79.9418Z" fill="white"/>
<path fill-rule="evenodd" clip-rule="evenodd" d="M88.543 116.905C88.543 116.905 82.3979 105.214 86.6723 97.5743C86.6723 97.5743 87.0464 106.429 88.543 116.905Z" fill="white"/>
</g>
</g>
</svg>
