<svg width="250" height="250" viewBox="0 0 250 250" fill="none" xmlns="http://www.w3.org/2000/svg">
<g id="Group 17">
<path id="image 32" d="M0 0H250V250H0V0Z" fill="#BE6A14"/>
<g id="pitanga">
<path fill-rule="evenodd" clip-rule="evenodd" d="M125.325 47.7692C125.552 48.2244 125.368 48.778 124.912 49.0056C111.98 55.47 101.941 65.1273 97.6912 75.172C95.5714 80.1823 94.9004 85.2641 95.9882 90.1031C97.0747 94.9362 99.9337 99.608 105.015 103.777C105.408 104.1 105.465 104.681 105.142 105.074C104.819 105.468 104.238 105.525 103.845 105.202C98.493 100.81 95.3784 95.7962 94.1894 90.5072C93.0017 85.2242 93.7533 79.7478 95.9932 74.4539C100.463 63.8899 110.891 53.9535 124.088 47.357C124.543 47.1294 125.097 47.3139 125.325 47.7692ZM20.1704 138.704C20.6692 138.806 20.9912 139.293 20.8895 139.791C18.2543 152.715 19.5741 162.271 22.4301 168.566C25.3057 174.904 29.6537 177.812 33.0657 177.868C33.3707 177.873 33.6535 178.029 33.821 178.284C33.9884 178.539 34.0189 178.86 33.9024 179.142L33.8938 179.162L33.8712 179.216L33.784 179.419C33.7073 179.595 33.5935 179.851 33.4434 180.178C33.1433 180.83 32.6973 181.761 32.1107 182.887C30.9383 185.136 29.1994 188.168 26.9337 191.297C22.4316 197.514 15.7156 204.296 7.08224 205.819C6.58086 205.907 6.10268 205.573 6.01419 205.072C5.92569 204.57 6.2604 204.092 6.76178 204.004C14.6637 202.61 21.012 196.331 25.4403 190.216C27.6398 187.179 29.3326 184.228 30.4757 182.035C30.9961 181.037 31.4017 180.197 31.6883 179.581C27.6717 178.874 23.479 175.34 20.751 169.328C17.6964 162.595 16.3909 152.625 19.083 139.423C19.1847 138.924 19.6715 138.603 20.1704 138.704ZM242.705 217.297C243.078 217.643 243.1 218.226 242.754 218.599L242.72 218.635L242.624 218.738L242.259 219.126C241.943 219.459 241.49 219.935 240.937 220.506C239.831 221.647 238.323 223.17 236.721 224.696C235.121 226.217 233.411 227.757 231.904 228.921C231.151 229.502 230.429 230.005 229.783 230.367C229.174 230.709 228.496 231.005 227.872 231.005C227.74 231.005 227.61 230.977 227.49 230.923L222.567 228.682C215.734 237.889 207.145 241.233 198.768 240.988C190.261 240.738 182.051 236.793 176.156 231.732C175.77 231.401 175.726 230.819 176.058 230.433C176.389 230.047 176.971 230.002 177.358 230.334C183.005 235.183 190.824 238.911 198.822 239.145C206.767 239.378 214.967 236.171 221.514 226.996C221.771 226.637 222.245 226.51 222.647 226.693L228.021 229.139C228.19 229.097 228.471 228.99 228.881 228.76C229.417 228.459 230.059 228.016 230.777 227.462C232.21 226.355 233.867 224.867 235.449 223.361C237.028 221.858 238.517 220.353 239.613 219.223C240.16 218.659 240.608 218.188 240.919 217.859L241.278 217.478L241.372 217.379L241.395 217.353C241.741 216.98 242.332 216.951 242.705 217.297Z" fill="#653024"/>
<path d="M120.102 112.097L117.076 109.262L113.234 104.412L110.023 99.7933L107.669 95.3423L105.72 89.6003L105.054 86.15L104.844 83.6885L105.707 80.4027L107.482 74.873L110.393 70.2607L113.685 65.5545L116.245 63.3642L121.806 59.34L124.628 57.4624L131.584 55.0333L136.03 52.3548L141.173 47.543L143.862 44.6286L145.825 41.2165L148.087 36.348L149.317 28.9713L149.227 19.9412L148.571 13.9538L147.863 9L153.028 12.7852L158.122 16.6682L162.608 20.9841L168.386 27.102L171.251 31.1821L175.789 37.3734L179.105 42.4363L182 49.562L184.69 58.0012L185.314 64.6191C183.288 74.3042 189.82 100.426 172.079 116.519L162.959 115.297L156.071 115.046L151.97 114.858L133.74 128.555L128.274 120.538L138.477 108.581L146.83 98.3116L153.817 86.3187L158.514 76.0296L161.256 67.5458L162.212 62.4669L163.126 57.3447L162.749 53.2746L162.59 48.9159L161.511 45.1554L159.954 42.7783L159.312 49.8681L156.665 59.0809L153.39 69.403L148.642 77.0476L143.646 85.954L136.324 95.6153L127.304 105.809L120.322 112.349L120.102 112.097Z" fill="white"/>
<path d="M78.5475 195.611L74.3089 196.569L68.2365 196.64L64.1164 195.945L59.3734 195.552L53.9579 193.623L49.8283 191.064L47.0275 189.623L44.4875 186.622L39.9993 188.636L37.0416 190.684L33.0869 193.766L25.1384 202.27L20.6805 205.571L14.2257 208.449L6.92125 211.149L13.0953 212.371L22.5466 215.839L34.2705 222.052L44.4141 227.879L54.3942 229.955L66.6175 230.874L74.9948 231.034L80.8276 230.346L90.054 229.478L95.6536 228.146L101.534 226.168L107.017 223.871L112.075 220.533L116.16 216.48L112.748 212.426L108.615 205.721L105.168 199.244L103.368 192.931L96.5656 197.904L93.3911 199.889L85.4648 203.314L73.1355 207.635L61.565 210.768L54.4045 212.834L53.3595 212.854L44.7845 211.85L39.42 210.027L49.3711 208.19L55.3492 206.968L61.853 204.899L71.8203 199.895L79.0911 195.605L78.5475 195.611Z" fill="white"/>
<path fill-rule="evenodd" clip-rule="evenodd" d="M176.894 223.27L167.798 229.105L157.894 229.574L152.754 228.309L147.639 227.072C139.764 223.091 135.11 215.338 135.11 215.338L132.874 209.378L131.641 193.932L131.501 185.397L128.796 187.884L125.095 196.398C124.421 204.135 125.553 202.958 132.131 210.535C124.019 212.142 116.303 202.325 116.303 202.325L112.721 192.023L110.795 182.988L109.436 174.508L110.607 165.392L111.972 158.558L113.758 155.105L116.52 149.138L118.624 146.279L122.601 141.242L125.901 139.414L128.404 138.401L132.735 136.716L134.783 136.212L140.213 135.574L142.125 132.455L146.551 128.316L152.017 124.642L157.683 122.17L166.71 123.405L177.572 125.948L187.767 123.017L191.2 122.668L197.389 123.557L202.956 126.142L206.506 127.57L210.046 130.212L212.694 132.44L214.879 135.419L225.922 137.631L227.78 138.836L232.687 142.912L238.148 150.909L240.101 153.748L240.989 157.875L241.409 163.227L242 169.14L241.643 173.518L241.542 179.067L238.632 176.843L233.528 198.553L238.311 196.433L241.828 189.802L240.544 196.102L238.597 202.382L236.147 207.615L230.669 214.053L225.645 216.51L223.36 209.92L218.479 220.196L210.747 226.314L202.246 229.219L193.349 230L190.332 229.63L186.379 228.238L183.439 226.547L177.396 223.157L176.897 223.261L176.894 223.27ZM190.05 125.781L186.646 126.795L183.457 128.736L180.098 131.292L178.749 134.205L184.836 134.342L188.998 135.774L191.174 137.285L190.184 125.772L190.05 125.778V125.781ZM144.993 136.793L157.718 139.218L157.219 136.17L157.24 132.419L157.989 129.392L159.451 126.181L154.978 127.144L150.775 129.705L147.074 133.633L144.993 136.796V136.793ZM182.648 149.445L185.359 148.458C185.359 148.458 190.219 147.814 189.949 144.334C189.678 140.855 182.105 137.554 170.857 138.803C163.345 139.82 166.014 145.36 166.014 145.36L168.232 146.747L170.97 148.208L176.112 149.359L182.648 149.445ZM133.504 143.347L131.189 143.174L128.472 145.02L126.626 146.282C126.626 146.282 118.122 154.58 118.098 161.683C118.083 166.686 125.205 169 125.205 169L129.937 155.245L134.414 146.863L136.721 141.871L133.507 143.35L133.504 143.347ZM184.652 153.951L182.631 158.695L181.608 165.995L180.681 176.184L179.929 187.446C179.929 187.446 201.663 187.124 202.047 179.317C202.525 169.537 195.056 163.8 195.056 163.8L187.948 155.862L184.468 153.563L184.652 153.948V153.951ZM231.266 154.732C231.504 152.201 226.947 145.533 226.947 145.533L218.41 142.265L213.289 141.189L208.369 141.842L204.294 141.913L199.173 143.198L203.343 144.314L206.039 145.304L209.65 147.686L213.063 150.751L215.322 153.396L219.724 164.867C219.724 164.867 230.716 160.615 231.266 154.729V154.732ZM203.765 220.568L210.643 219.086L213.553 216.874C213.553 216.874 217.415 216.635 218.137 209.834C218.892 202.728 214.811 193.174 214.811 193.174L203.765 220.571V220.568ZM165.494 223.306L159.115 222.417L168.975 195.208L171.145 202.964L172.269 209.151L172.527 215.344L171.983 218.881L170.515 221.538L168.925 222.593L165.491 223.303L165.494 223.306ZM148.067 153.796L160.611 149.087L158.72 154.634L156.794 166.123L154.865 184.422C154.865 184.422 140.805 182.514 139.316 176.61C137.651 170.011 141.795 162.706 141.795 162.706L147.879 153.927L148.07 153.796H148.067Z" fill="white"/>
<path fill-rule="evenodd" clip-rule="evenodd" d="M44.7194 178.912L48.444 182.684L56.3894 187.869L58.7347 188.701L63.1102 189.915L68.8827 189.969L75.3954 189.143L81.0105 182.952L86.7741 189.483L90.9088 189.569L94.9187 189.006L98.5719 187.732L101.36 186.355L104.57 183.465L104.053 178.172L98.4441 179.592L105.688 156.521L113.244 142.987L126.174 131.575L123.909 126.461L121.264 122.972L119.052 120.193L116.005 117.65L109.826 113.657L104.986 112.029L96.069 112.402L93.9794 109.581L92.4813 108.925L89.482 106.319L86.2569 105.412L83.7481 104.354L77.4346 103L67.9999 104.443L61.1602 106.808L55.6909 113.079L46.7259 114.066L39.6692 118.482L34.8449 122.576L31.1411 126.223L28.3143 130.788L25.9779 135.675L25.8977 142.79L25.3389 146.192L25 151.878L25.6837 156.778L27.0332 161.42L29.5895 165.091L32.345 167.945L34.72 170.142L37.5885 171.633L41.4319 171.854L36.5659 165.613L35.8585 160.749L37.0712 156.488L38.7804 155.63L40.0883 153.349L41.7588 152.245L41.5032 156.372L42.0353 170.616L44.8116 178.793L44.7135 178.912H44.7194ZM59.7632 113.574L61.5972 111.322L64.8461 109.494L68.7014 108.174L72.206 107.658L69.5099 115.571L59.8286 113.923L59.7632 113.574ZM90.7126 121.628C89.7793 124.171 89.2561 125.602 83.2071 126.545L79.331 127.311L75.7016 126.494L71.3945 125.65L68.4785 124.123L68.1901 123.306L67.7027 122.069L68.7519 120.396L71.2607 118.428L74.257 117.089L77.4643 116.725L79.3756 116.63C86.997 117.545 89.2561 118.723 90.7126 121.628ZM32.7047 134.116C32.4817 130.403 38.9647 125.477 38.9647 125.477L41.5775 122.442L44.6392 120.196L46.2473 119.704L50.5931 118.831L38.3851 139.987C38.3851 139.987 33.0108 139.25 32.7047 134.122V134.116ZM81.5217 155.176L81.1412 147.716L82.0033 139.996L83.7273 133.641L85.0649 130.376L89.7971 134.626L92.2613 137.1L94.2499 140.234L95.317 144.284L96.2623 146.302C96.2623 146.302 97.0024 150.85 96.1077 151.935C93.7297 154.825 81.5217 155.176 81.5217 155.176ZM100.801 121.747L97.481 120.331L103.173 118.526L106.202 117.709L109.653 118.574L112.911 119.385L114.278 120.322C114.278 120.322 118.389 123.912 118.392 125.585C118.398 128.784 110.554 135.678 110.554 135.678L106.294 127.931L104.029 125.236L100.804 121.75L100.801 121.747ZM69.8934 185.225L64.5072 184.902L72.4586 162.449L75.3182 169.779C75.3182 169.779 77.2978 178.253 76.1118 181.56C74.9436 184.813 69.8964 185.225 69.8964 185.225H69.8934ZM61.4159 128.432L64.9323 127.564L63.5323 132.222L62.7119 138.585L62.4087 146.967L63.458 153.179C63.458 153.179 50.1175 154.61 48.4142 147.954C47.3025 143.601 52.2458 134.84 52.2458 134.84L55.3163 132.067L57.7538 129.849L61.4159 128.429V128.432Z" fill="white"/>
</g>
</g>
</svg>
