<svg width="250" height="250" viewBox="0 0 250 250" fill="none" xmlns="http://www.w3.org/2000/svg">
<g id="Group 18">
<path id="image 33" d="M0 0H250V250H0V0Z" fill="#D6A461"/>
<g id="priprioca">
<path fill-rule="evenodd" clip-rule="evenodd" d="M198.062 67.4081C198.522 67.1706 199.088 67.3511 199.325 67.8112C205.135 79.0667 203.477 88.3917 202.056 96.3846C201.715 98.3014 201.388 100.142 201.181 101.914C200.644 106.509 200.876 110.665 203.485 114.767C206.119 118.907 211.259 123.123 220.861 127.597C221.33 127.816 221.533 128.373 221.315 128.843C221.096 129.312 220.538 129.515 220.069 129.296C210.334 124.761 204.818 120.353 201.903 115.773C198.965 111.154 198.758 106.494 199.319 101.696C199.543 99.7759 199.885 97.8369 200.234 95.8574C201.635 87.9113 203.151 79.3118 197.659 68.6711C197.422 68.211 197.602 67.6456 198.062 67.4081ZM59.5448 157.013L59.5522 157.032L59.5778 157.096L59.6822 157.352C59.7749 157.575 59.9131 157.899 60.093 158.299C60.4531 159.099 60.9781 160.197 61.6371 161.385C62.9762 163.799 64.7898 166.441 66.8055 167.82C67.0237 167.969 67.1688 168.204 67.2049 168.466C67.241 168.727 67.1648 168.992 66.9952 169.195C64.5047 172.172 61.2696 174.391 57.728 176.295C55.0496 177.735 52.1466 179.018 49.2288 180.308C48.3027 180.717 47.3752 181.127 46.4529 181.543C38.7314 185.025 31.2259 188.986 26.547 196.702C26.2785 197.145 25.702 197.286 25.2593 197.017C24.8165 196.749 24.6753 196.172 24.9437 195.73C29.9465 187.48 37.9412 183.324 45.6822 179.834C46.6354 179.404 47.5827 178.985 48.5205 178.571C51.422 177.288 54.2315 176.046 56.8402 174.644C59.9616 172.966 62.7245 171.093 64.9091 168.729C62.8824 167.024 61.1955 164.454 59.9974 162.294C59.3071 161.05 58.7589 159.904 58.3831 159.068C58.195 158.65 58.0496 158.309 57.9506 158.071L57.8375 157.794L57.8079 157.72L57.8 157.7C57.6127 157.217 57.8489 156.665 58.3317 156.478" fill="#BE6A14"/>
<path d="M150.153 34.76C150.432 34.3243 150.306 33.7443 149.87 33.4647C149.434 33.185 148.854 33.3115 148.575 33.7473C145.922 37.8799 142.993 39.9537 139.724 41.1384C136.815 42.193 133.632 42.5521 130.003 42.9615C129.471 43.0216 128.93 43.0826 128.378 43.1472C120.002 44.1269 109.95 45.8671 98.0467 56.8793C97.8868 56.4493 97.685 55.9343 97.4392 55.3574C96.7111 53.6482 95.5903 51.3777 94.022 49.1551C90.8997 44.73 85.8551 40.3104 78.5008 41.2539C77.9872 41.3198 77.6243 41.7895 77.6902 42.3031C77.7561 42.8166 78.2258 43.1795 78.7394 43.1136C85.082 42.2999 89.537 46.051 92.49 50.2361C93.9594 52.3185 95.0201 54.4628 95.7142 56.0922C96.0605 56.9052 96.3138 57.5857 96.4796 58.0603C96.5625 58.2975 96.6234 58.483 96.6632 58.6075L96.707 58.7474L96.7196 58.789C96.8435 59.2117 97.2389 59.4808 97.6602 59.4621C97.8969 59.4643 98.1346 59.3774 98.3187 59.2003C110.266 47.7093 120.201 45.9914 128.596 45.0095C129.133 44.9466 129.667 44.8866 130.198 44.827C133.801 44.4223 137.229 44.0373 140.363 42.9012C144.026 41.5736 147.282 39.2325 150.153 34.76Z" fill="#BE6A14"/>
<path fill-rule="evenodd" clip-rule="evenodd" d="M242.55 19.2975L223.442 7.41131L218.536 7.26013L210.251 8.45907L211.553 19.5633L203.455 30.8589L181.891 40.1427L168.986 51.1141L164.732 46.8466L144.407 48.5756L137.814 49.4146L124.699 50.6129L107.979 58.422L101.159 64.0871L89.7569 64.148L86.8474 58.9425L84.3383 53.4054L77.6081 49.5214L72.3417 49.1633L68.0071 50.1478L74.4151 51.8107L79.6031 53.2892L84.0717 61.1332L84.3786 63.6917L75.1562 64.9645L62.7921 71.6171L62.2272 77.4436L68.0888 73.0798L68.7737 74.1618L68.2438 78.5292L65.8357 88.3487L68.7674 86.2524L69.9298 82.768L72.0672 76.7287L71.3752 70.8112L79.9561 67.7378L87.878 68.1063L97.5475 72.1527L85.9332 84.9072L82.5657 89.5545L74.5031 95.5871L72.0814 97.1377L71.3483 102.418L68.2979 110.603L65.9976 121.01L64.8989 139.281L57.4435 145.334L47.4552 149.514L44.7696 143.003L39.342 138.807L28.7726 131.186L23.7288 129.242L13.5547 132.933L21.2067 132.048L28.8484 136.846L35.8191 139.479L39.0717 144.915L43.4206 151.539L34.0344 153.313L28.5236 155.758L20.9281 158.772L13.3097 164.746L16.0638 171.231L17.9924 165.345L32.1273 157.326L46.5735 157.728L59.2953 153.191L63.0524 149.881L64.8593 148.475L67.3058 159.474L72.0821 169.328L59.3575 183.61L36.3428 193.095L29.5649 205.852L29.5982 215.436L25.7331 221.999L25.6479 224.717L20.2806 228.482L10.1282 234.214L7.42188 242.741L14.6832 236.124L16.2448 236.911L20.0387 234.529L25.6575 231.981L29.9913 228.323L32.4304 226.018L37.3035 212.655L45.2348 217.264L48.5244 230.291L49.8854 228.094L48.1627 213.524L41.3674 206.013L45.47 201.249L52.2016 199.131L61.9475 196.698L70.8569 196.591L84.6464 184.521L81.0737 177.251L83.5401 174.867L94.0383 183.596L112.809 187.408L126.696 185.845L140.684 178.781L142.163 194.622L136.585 206.161L139.886 211.858L139.913 205.167L142.426 198.978L144.892 198.138L146.386 197.548L148.821 202.067L150.367 198.388L147.181 194.112L144.705 187.931L146.53 181.415L148.102 172.002L154.29 170.331L159.102 166.985L164.996 160.637L172.5 153.298L174.621 161.3L176.449 159.379L174.418 147.939L188.216 114.472L194.502 127.085L203.694 133.903L200.953 137.42L200.532 140.489L197.67 150.641L203.386 158.681L203.096 144.244L204.728 139.531L204.465 137.454L206.817 135.829L213.545 145.473L214.557 139.693L212.933 136.852L209.67 132.988L201.766 125.323L197.134 119.152L194.485 113.226L193.56 104.009L194.308 85.499L194.843 78.4836L193.326 73.1778L190.688 68.0302L186.945 64.318L179.612 59.3637L184.698 57.9548L191.323 62.4884L199.053 51.8036L208.851 49.0057L215.462 48.8277L224.126 43.9118L229.264 39.2903L235.764 27.3065L242.211 19.1207L242.55 19.2975ZM176.155 71.0776L181.344 75.7131L184.699 84.173L184.797 86.8822L182.978 90.9978L179.264 96.5038L174.527 76.2172L175.044 72.1328L176.155 71.0776ZM157.394 147.423L157.621 138.161L160.333 138.022L171.16 105.288L167.505 97.4456L161.671 103.317L159.339 116.304L147.221 141.563L127.702 151.007L129.015 154.215L110.366 161.345L107.234 171.437L113.797 173.692L155.16 145.473L157.394 147.423ZM81.3739 142.436L91.0121 126.088L101.23 124.378L103.443 127.514L100.952 130.74L94.3897 137.959L84.8254 142.923L79.7698 142.823L81.3739 142.436ZM138.217 64.5836L127.186 65.4849L111.532 75.1734L107.244 79.0572L106.424 87.0963L103.278 92.6818L86.5111 108.927L83.838 112.544L84.3999 116.711L96.4774 111.143L112.742 89.4659L131.001 77.6417L138.217 64.5836Z" fill="white"/>
</g>
</g>
</svg>
