<svg width="250" height="250" viewBox="0 0 250 250" fill="none" xmlns="http://www.w3.org/2000/svg">
<g id="Group 19">
<path id="image 37" d="M0 0H250V250H0V0Z" fill="#BE6A14"/>
<g id="sg dragao">
<path fill-rule="evenodd" clip-rule="evenodd" d="M140.277 78.9631C140.764 78.7859 141.302 79.0367 141.479 79.5232C143.464 84.9762 143.862 91.8198 143.781 97.2308C143.74 99.9498 143.577 102.334 143.425 104.039C143.349 104.892 143.276 105.576 143.221 106.048L143.155 106.592L143.136 106.735L143.131 106.772L143.129 106.785M142.404 107.573L142.363 107.583L142.223 107.616C142.098 107.646 141.911 107.692 141.665 107.755C141.174 107.882 140.451 108.078 139.531 108.351C137.69 108.897 135.061 109.753 131.927 110.99C125.654 113.466 117.371 117.458 109.314 123.524C108.9 123.836 108.312 123.753 108.001 123.339C107.69 122.926 107.772 122.338 108.186 122.026C116.415 115.831 124.857 111.764 131.238 109.246C134.43 107.987 137.111 107.113 138.997 106.553C139.941 106.273 140.685 106.072 141.197 105.94C141.25 105.926 141.301 105.913 141.35 105.901L141.358 105.831C141.411 105.374 141.483 104.707 141.558 103.872C141.707 102.202 141.866 99.8654 141.906 97.2027C141.986 91.8506 141.582 85.2872 139.717 80.1648C139.54 79.6782 139.791 79.1402 140.277 78.9631M178.163 114.438C178.633 114.22 179.19 114.425 179.407 114.895C181.61 119.662 182.32 124.446 181.868 128.51C181.419 132.551 179.803 135.986 177.234 137.889C172.659 141.28 159.902 151.626 157.08 166.236C156.982 166.744 156.491 167.077 155.982 166.979C155.474 166.881 155.141 166.389 155.24 165.881C158.209 150.503 171.529 139.784 176.118 136.383C178.131 134.891 179.591 132.024 180.005 128.303C180.416 124.603 179.775 120.161 177.705 115.682C177.488 115.212 177.693 114.655 178.163 114.438ZM49.862 143.005C50.2066 143.392 50.1728 143.984 49.7864 144.329C46.2158 147.514 42.4355 149.143 38.9005 150.435C38.2157 150.686 37.5454 150.922 36.89 151.153C34.1159 152.132 31.6099 153.016 29.4108 154.463C26.7659 156.203 24.5679 158.77 23.1708 163.399C21.7604 168.072 21.1671 174.847 21.8068 184.967C21.8183 185.148 21.7771 185.328 21.6884 185.486L21.6819 185.498L21.6684 185.521L21.6211 185.601C21.5804 185.669 21.5216 185.764 21.445 185.883C21.2919 186.12 21.067 186.451 20.773 186.836C20.1871 187.603 19.3157 188.603 18.179 189.511C15.8935 191.337 12.4652 192.834 8.20309 191.229C7.71857 191.046 7.47374 190.506 7.65626 190.021C7.83878 189.537 8.37953 189.292 8.86406 189.474C12.3124 190.773 15.0531 189.608 17.0086 188.046C17.9926 187.26 18.7598 186.383 19.2825 185.698C19.5428 185.357 19.7396 185.068 19.8697 184.866C19.8867 184.84 19.9026 184.815 19.9173 184.792C19.3013 174.739 19.8859 167.794 21.3758 162.858C22.8934 157.829 25.3503 154.889 28.3804 152.896C30.7894 151.312 33.5643 150.335 36.3554 149.352C36.9896 149.129 37.6247 148.905 38.2565 148.674C41.7171 147.409 45.2327 145.879 48.5383 142.93C48.9247 142.585 49.5173 142.619 49.862 143.005Z" fill="#FFA400"/>
<path fill-rule="evenodd" clip-rule="evenodd" d="M247.583 32.5583C247.583 32.5583 233.95 6.8334 205.745 10.5248C187.726 12.8831 188.206 27.6022 188.206 27.6022C198.237 19.201 217.148 18.3314 223.346 22.8209C198.304 22.3541 185.573 26.0692 163.117 58.015C159.287 58.1366 158.154 59.493 156.52 62.9455L154.968 60.4193C163.872 46.1883 148.687 51.3717 144.813 36.078C144.813 36.078 138.139 50.6225 140.075 58.6456C141.815 65.8528 150.53 61.8173 150.53 61.8173C146.653 56.8835 144.199 52.799 145.261 47.3255C145.261 47.3255 148.298 54.4167 155.397 66.0973C155.397 66.0973 155.225 91.6527 148.301 113.446C138.092 116.801 127.79 121.025 113.501 132.365L96.1431 132.375L88.216 137.673L87.9251 135.449C90.0202 131.024 97.98 123.608 97.98 123.608L95.9543 116.786C95.9543 116.786 78.7298 126.799 72.6436 139.869C59.6258 143.702 33.5147 162.349 33.5147 162.349C23.7488 180.06 29.0725 202.02 29.0725 202.02C29.0725 202.02 31.5082 205.86 36.2903 202.552C44.1871 197.091 45.2785 197.971 47.8639 201.448C50.9905 205.653 55.0822 206.97 61.4523 201.824C66.7534 197.541 69.9054 196.655 69.9054 196.655C69.9054 196.655 74.37 204.186 78.9658 205.239C78.9658 205.239 106.005 180.246 111.647 179.649C124.039 178.339 137.528 169.589 142.655 166.913L145.866 169.556L165.147 133.006L173.495 128.38C174.98 125.312 173.895 121.86 173.895 121.86L168.687 122.158C171.625 102.217 168.9 77.3428 168.9 77.3428C169.77 77.2311 170.29 76.7788 170.981 75.2984C178.415 78.8783 189.909 86.1662 193.749 95.6458C182.47 107.945 201.705 107.337 205.955 122.857C205.955 122.857 212.521 105.813 206.926 97.5751C202.677 91.3172 197.702 93.8836 197.702 93.8836C197.702 93.8836 207.249 102.245 204.316 111.381C201.909 103.325 195.079 84.0404 173.391 71.4388C174.519 69.3936 174.189 67.3028 173.669 66.2119C173.669 66.2119 186.493 64.1195 196.445 65.5264C196.445 65.5264 194.18 84.5295 215.065 80.5379C227.54 78.1534 237.724 84.1313 237.724 84.1313C226.982 53.2896 205.338 48.4016 198.614 60.5517C214.268 61.5554 226.273 70.0515 229.276 75.358C212.341 65.9571 198.846 58.7849 172.434 62.8483C172.362 60.861 171.293 60.2415 168.941 59.524C173.367 50.4421 180.342 42.7521 190.345 33.7614C206.209 49.6477 221.727 23.9971 247.583 32.5583ZM33.9827 195.105C32.4671 188.963 32.0408 179.161 48.041 169.227C48.041 169.227 56.6081 172.569 60.5154 172.878C63.7182 173.132 74.3028 168.243 74.3028 168.243C74.3028 168.243 87.7597 177.22 87.7597 181.553C87.7597 188.311 77.9445 197.08 77.9445 197.08C77.9445 197.08 73.917 181.148 70.8161 184.05C67.1047 187.524 63.3148 194.292 62.1686 190.305C61.2147 186.986 60.8792 183.068 59.0656 184.982L52.583 191.447C51.9768 187.516 49.1308 183.364 49.1308 183.364C49.1308 183.364 40.8708 191.271 33.9827 195.105ZM100.625 145.571C100.625 145.571 95.3084 149.737 86.4598 150.219C82.1338 150.219 78.1624 153.534 87.762 153.799C102.721 154.211 100.625 145.571 100.625 145.571ZM94.5749 173.217C94.5749 168.758 109.767 163.672 120.764 163.075C129.879 162.777 141.599 149.668 141.599 154.127C141.599 158.586 124.8 166.357 120.474 166.357C101.52 166.953 94.5749 177.676 94.5749 173.217ZM163.012 100.915C160.928 102.685 161.786 112.923 161.786 112.923L165.118 115.691C165.118 115.691 167.116 97.4317 163.012 100.915Z" fill="white"/>
<path fill-rule="evenodd" clip-rule="evenodd" d="M210.28 188.671C163.51 180.128 155.059 189.106 106.879 189.106C106.879 189.106 87.0366 205.828 78.2152 210.242C76.0819 211.309 68.9025 202.267 68.9025 202.267C68.9025 202.267 58.9043 209.585 57.1541 210.094C51.2292 211.819 47.9846 209.208 43.2566 203.301C40.3189 202.633 37.8122 206.893 30.0754 208.961C24.5288 205.324 23.5523 200.592 22.7159 194.011C-16.1377 203.819 2.10128 218.617 66.7235 217.305C147.206 215.67 130.951 226.296 146.413 227.113C166.68 228.184 170.963 217.587 191.214 218.939C276.85 224.661 241.601 194.392 210.28 188.671ZM128.062 211.433C129.388 208.781 133.369 208.374 137.623 209.161C142.735 210.108 146.694 214.164 144.354 216.562C141.285 219.704 135.258 214.504 135.258 214.504C135.258 214.504 127.202 213.152 128.062 211.433ZM221.345 201.775C221.345 197.316 206.388 193.51 188.982 192.429C175.561 191.349 169.567 192.508 167.89 195.102C165.898 198.181 186.487 200.417 198.507 200.938C207.423 201.325 221.345 206.234 221.345 201.775Z" fill="white"/>
<path fill-rule="evenodd" clip-rule="evenodd" d="M84.2448 228.357C84.8232 225.972 79.1358 222.793 64.0979 222.296C29.7977 221.163 36.2345 239.729 55.1875 239.851C76.7826 239.99 82.3628 236.117 84.2448 228.357ZM58.3141 228.854C58.7961 226.668 62.8566 225.774 67.1826 225.774C71.5085 225.774 75.7619 229.947 69.4638 230.504C65.1537 230.885 57.3554 233.202 58.3141 228.854Z" fill="white"/>
</g>
</g>
</svg>
