<svg width="250" height="250" viewBox="0 0 250 250" fill="none" xmlns="http://www.w3.org/2000/svg">
<g id="Group 21">
<rect id="image 36" width="250" height="250" fill="#FFA400"/>
<g id="tucuma car">
<path fill-rule="evenodd" clip-rule="evenodd" d="M128.937 9.8592C129.335 9.75164 129.756 9.91671 129.975 10.2659C130.931 11.7885 132.567 13.2469 134.812 14.6567C137.049 16.0614 139.831 17.3813 143.008 18.6517C149.029 21.0595 156.359 23.2477 163.892 25.4965C164.316 25.6229 164.739 25.7495 165.164 25.8763C173.116 28.2521 181.216 30.7107 188.048 33.5626C194.844 36.3997 200.563 39.6949 203.589 43.8353C203.895 44.2532 203.804 44.8398 203.386 45.1454C202.968 45.4509 202.381 45.3598 202.076 44.9418C199.376 41.2488 194.086 38.1153 187.325 35.2929C180.6 32.4854 172.595 30.0536 164.627 27.6728C164.192 27.5429 163.758 27.4131 163.323 27.2835C155.822 25.0442 148.415 22.8332 142.312 20.3927C139.081 19.1007 136.185 17.7327 133.815 16.2446C131.702 14.9179 129.96 13.4662 128.781 11.8437L114.606 15.6745C114.106 15.8096 113.591 15.5139 113.456 15.014C113.321 14.5142 113.617 13.9995 114.116 13.8644L128.937 9.8592ZM14.6055 153.454C15.1165 153.37 15.5982 153.717 15.6813 154.228C18.828 173.573 29.7565 192.335 41.8154 205.074C47.844 211.443 54.1119 216.259 59.7725 218.896C65.4665 221.548 70.3269 221.903 73.7648 219.772C74.2049 219.499 74.7828 219.635 75.0556 220.075C75.3283 220.515 75.1927 221.093 74.7526 221.366C70.5107 223.995 64.889 223.347 58.9809 220.596C53.0394 217.828 46.5852 212.84 40.4537 206.363C28.1924 193.41 17.0495 174.317 13.8307 154.529C13.7475 154.018 14.0944 153.537 14.6055 153.454ZM235.027 159.86C235.502 160.064 235.722 160.615 235.518 161.091L233.795 160.351C233.999 159.876 234.551 159.656 235.027 159.86ZM200.106 208.678L203.725 212.434C203.9 212.615 204.139 212.718 204.391 212.72C204.642 212.723 204.884 212.624 205.062 212.447C212.465 205.057 220.086 192.175 225.827 181.229C228.706 175.74 231.128 170.708 232.83 167.048C233.681 165.218 234.352 163.73 234.811 162.7C235.041 162.184 235.217 161.783 235.336 161.51L235.472 161.199L235.518 161.091L233.795 160.351L233.751 160.454L233.618 160.76C233.5 161.029 233.326 161.426 233.098 161.937C232.643 162.96 231.976 164.438 231.13 166.258C229.437 169.898 227.028 174.902 224.166 180.358C218.602 190.966 211.38 203.171 204.406 210.438L200.917 206.818C200.609 206.498 200.12 206.438 199.744 206.674C195.872 209.104 192.611 212.936 189.519 216.571C188.965 217.222 188.416 217.867 187.87 218.497C184.192 222.737 180.659 226.262 176.338 227.194C175.832 227.303 175.51 227.802 175.62 228.308C175.729 228.814 176.228 229.136 176.734 229.027C181.744 227.945 185.651 223.918 189.287 219.725C189.859 219.065 190.426 218.4 190.99 217.737C193.911 214.309 196.775 210.947 200.106 208.678Z" fill="#BE6A14"/>
<path fill-rule="evenodd" clip-rule="evenodd" d="M124.997 231.595C124.997 231.595 149.223 226.75 167.565 216.67L165.197 222.679C176.833 218.124 192.389 204.808 200.998 190.406V198.48C217.056 183.143 231.592 163.762 231.592 124.991C231.592 77.1357 197.471 42.5814 153.606 30.1363C144.514 27.5569 124.506 18.4052 124.506 18.4052C124.506 18.4052 114.748 21.6593 108.923 25.9071C105.938 28.0834 95.5531 30.31 92.1206 31.4465C50.4538 45.2298 18.4021 78.7012 18.4021 124.991C18.4021 163.762 36.4875 192.181 65.7682 212.766L60.9808 201.621C92.1206 226.75 124.997 231.595 124.997 231.595ZM88.9452 45.1992C88.9452 45.1992 66.5691 51.2818 51.1359 73.5423C44.7158 82.8025 47.592 108.115 47.592 108.115L57.9725 75.9173C57.9725 75.9173 77.3232 59.0467 88.9452 45.1992ZM41.2207 142.874C35.7814 133.999 40.2316 118.146 40.2316 118.146L36.0279 98.3638C30.8666 106.646 29.5501 126.525 33.6978 143.996C38.7479 167.849 54.5737 186.889 54.5737 186.889C54.5737 186.889 50.6173 158.205 41.2207 142.874ZM82.3079 171.9C74.4529 165.354 64.5645 145.285 64.5645 145.285C64.5645 145.285 60.661 122.428 61.8704 113.594C63.7361 99.9646 72.7784 72.9011 83.5051 66.465C83.7524 85.2581 74.6765 98.2232 73.6141 117.404C72.2215 142.544 80.7851 145.099 82.3079 171.9ZM124.506 35.9433L111.119 41.3559C111.119 41.3559 100.771 47.4162 100.771 52.3217C100.771 52.3217 112.247 46.5573 115.306 46.5573L100.764 63.532C97.7689 68.7404 95.5071 74.8425 95.5071 81.393C95.5071 81.393 109.417 55.8557 124.506 48.1028L134.996 54.6593C146.859 65.2508 158.913 81.393 158.913 81.393L155.558 67.576C155.558 67.576 147.391 54.1862 139.533 48.1028C155.819 50.4975 175.868 57.8328 202.52 76.5478L191.028 61.2559C175.184 50.7167 145.445 36.5457 145.445 36.5457L147.549 42.7053C134.093 38.7872 124.506 35.9433 124.506 35.9433ZM117.333 175.868C117.333 175.868 112.867 154.675 112.316 132.501C111.589 103.218 115.306 81.393 115.306 81.393L100.84 100.771C97.2385 109.632 95.6822 124.097 97.8902 133.427C95.8804 148.161 103.805 157.354 117.333 175.868ZM134.268 74.2427C142.864 82.8388 153.692 98.5466 153.692 98.5466L164.392 129.594C171.732 118.951 170.663 94.0855 170.663 94.0855C179.446 107.25 177.589 137.596 177.589 137.596C177.589 137.596 173.331 157.818 166.712 171.686C166.712 171.686 167.324 154.071 162.479 144.381C155.632 164.243 151.415 175.452 135.005 197.103L138.918 176.969C138.918 176.969 155.645 131.191 134.268 74.2427ZM65.7682 178.297L85.0508 189.616C85.0508 189.616 92.0829 207.448 114.618 211.73L103.214 193.392C98.4627 184.94 95.5071 177.354 95.5071 169.118C95.5071 169.118 103.442 179.942 109.988 185.215C113.4 187.963 118.999 200.094 118.999 200.094L122.562 223.774C77.7163 209.943 65.7682 178.297 65.7682 178.297ZM202.52 173.452C202.52 173.452 182.788 181.229 179.437 183.463C176.086 185.697 151.225 203.957 151.225 203.957L139.533 216.67C173.449 207.369 202.52 173.452 202.52 173.452ZM186.469 78.2798L212.337 98.3638C217.995 108.632 219.32 129.471 216.274 137.987C213.598 145.466 204.219 156.873 204.219 156.873L185.071 168.01C197.439 147.477 192.243 134.388 200.815 115.684C200.815 115.684 203.904 128.506 202.012 147.417C202.012 147.417 209.319 138.36 208.893 122.408C207.298 107.242 202.452 98.7029 202.452 98.7029L186.469 78.2798Z" fill="white"/>
</g>
</g>
</svg>
