<svg width="250" height="250" viewBox="0 0 250 250" fill="none" xmlns="http://www.w3.org/2000/svg">
<g id="Group 20">
<rect id="image 18" width="250" height="250" fill="#653024"/>
<g id="tucuma amd">
<path d="M129.584 153.682C129.478 168.323 125.546 181.845 117.768 194.234C115.786 197.392 113.441 200.161 110.196 202.18C105.055 205.378 100.043 208.783 94.9797 212.108C94.3553 212.519 93.6594 212.876 93.1611 213.411C90.8642 215.87 87.7712 217.138 84.9473 218.717C83.0428 219.781 80.6314 219.999 78.4147 220.41C76.5589 220.756 74.6573 220.951 72.77 220.989C70.6277 221.032 68.4597 220.983 66.3404 220.695C63.0842 220.255 59.8136 219.769 56.6346 218.97C47.0491 216.557 38.4802 212.114 31.0369 205.545C18.4184 194.41 10.9322 180.35 7.50691 163.96C6.52172 159.229 6.19523 154.441 6.01767 149.629C5.81719 144.108 7.35226 138.931 9.1193 133.812C10.5742 129.605 12.1522 125.438 13.6185 121.233C14.2056 119.548 14.8099 117.834 15.102 116.082C15.5603 113.316 17.1612 111.199 18.702 109.057C22.4881 103.785 27.0904 99.3304 32.3915 95.5975C38.3284 91.416 44.8897 88.6293 51.8862 86.8433C55.6838 85.8742 59.5186 85.1322 63.4622 85.0689C65.192 85.0402 66.9304 84.7267 68.6516 84.8187C77.1059 85.2789 85.2624 87.0303 92.7114 91.2319C96.1682 93.1818 99.4875 95.3933 102.767 97.6422C103.697 98.2778 104.433 99.3649 104.958 100.4C106.536 103.509 107.733 106.834 109.517 109.81C111.218 112.646 113.483 115.139 115.48 117.799C119.022 122.521 122.711 127.143 125.993 132.041C127.179 133.809 127.525 136.213 127.986 138.385C129.052 143.418 129.645 148.514 129.582 153.684L129.584 153.682ZM23.6508 148.637C23.7683 150.248 23.7453 151.884 24.0317 153.463C24.6733 157.035 25.1458 160.681 26.2627 164.109C29.1753 173.059 34.6254 180.361 41.7107 186.444C48.7989 192.526 57.1043 195.707 66.349 196.219C69.1872 196.377 72.1084 195.917 74.9293 195.405C84.1397 193.725 91.6976 189.003 97.9381 182.133C101.796 177.885 104.602 172.947 106.507 167.512C109.523 158.901 110.496 150.101 108.83 141.079C107.071 131.575 102.781 123.424 95.9162 116.609C88.8423 109.586 80.3479 105.698 70.4817 104.947C66.203 104.622 61.8813 104.772 57.6799 105.807C48.9965 107.944 41.4387 112.091 35.4015 118.812C34.4994 119.815 33.8292 121.026 32.9872 122.087C32.2541 123.007 31.3032 123.772 30.6588 124.744C25.879 131.974 23.7052 139.984 23.648 148.64L23.6508 148.637Z" fill="white"/>
<path d="M238.156 96.4344C237.944 109.603 233.8 121.383 225.818 131.842C223.868 134.396 221.611 136.472 218.781 138.014C213.646 140.809 208.58 143.728 203.488 146.598C203.018 146.863 202.497 147.079 202.105 147.435C199.662 149.658 196.537 150.685 193.699 152.189C192.261 152.951 190.503 153.224 188.853 153.434C185.881 153.814 182.873 154.251 179.889 154.179C170.049 153.949 160.546 152.077 151.505 147.959C146.058 145.477 141.02 142.368 136.481 138.514C129.61 132.679 124.249 125.627 120.351 117.451C117.88 112.263 116.196 106.865 115.316 101.18C114.64 96.8082 114.474 92.4455 114.875 88.0541C114.947 87.2776 115.102 86.4781 115.382 85.7563C117.619 80.0246 119.913 74.3131 122.155 68.5815C122.731 67.1148 123.35 65.6309 123.659 64.098C124.166 61.5903 125.787 59.8187 127.319 58.0012C131.24 53.3451 135.899 49.5634 141.112 46.4315C146.817 43.0035 152.951 40.7344 159.395 39.239C163.559 38.2727 167.763 37.7004 172.048 37.4415C183.916 36.7254 195.048 39.1757 205.498 44.8124C207.532 45.9081 209.539 47.0671 211.484 48.3123C212.217 48.7811 213.01 49.4771 213.314 50.2507C215.863 56.7272 220.382 61.7283 225.059 66.6748C228.395 70.2035 231.586 73.8961 234.533 77.7527C235.661 79.2309 236.108 81.3245 236.561 83.214C237.6 87.5451 238.227 91.9451 238.156 96.4344ZM175.476 54.2367C172.503 54.5674 169.528 54.8665 166.563 55.2461C165.438 55.3899 164.324 55.689 163.224 55.9881C155.918 57.9695 149.311 61.2653 143.812 66.5799C142.996 67.3679 142.392 68.3745 141.624 69.2171C140.699 70.2323 139.574 71.0835 138.763 72.1735C134.493 77.9224 132.322 84.4046 132.334 91.5914C132.334 93.1588 132.443 94.729 132.577 96.2906C132.901 100.029 133.886 103.61 135.464 107C138.503 113.52 143.065 118.803 148.65 123.269C156.554 129.596 165.644 132.624 175.633 132.909C178.715 132.998 181.865 132.553 184.904 131.94C195.054 129.889 203.665 125.084 210.049 116.761C217.135 107.521 219.724 97.0326 217.367 85.6153C214.901 73.6776 207.543 65.2829 197.093 59.511C190.397 55.8126 183.103 54.4092 175.476 54.2338V54.2367Z" fill="white"/>
<path d="M30.9109 149.696C31.077 142.98 32.191 136.944 35.0378 131.336C35.8597 129.72 37.1771 128.486 39.1103 128.184C39.3108 128.152 39.5256 128.118 39.6974 128.02C44.1221 125.535 48.6987 123.315 52.2614 119.496C55.9645 115.524 60.6899 113.27 65.9567 112.232C69.1786 111.596 72.4291 111.886 75.6682 112.41C81.6796 113.379 86.5368 116.594 90.3172 121.049C93.7367 125.078 97.1305 129.438 97.9553 134.934C98.4106 137.971 98.1615 141.114 98.2245 144.208C98.2331 144.623 98.193 145.04 98.193 145.457C98.193 150.205 98.3018 154.956 98.1615 159.701C98.0097 164.826 96.5434 169.689 94.3324 174.258C93.3931 176.2 91.6919 177.753 90.4776 179.576C88.427 182.662 85.7722 185.17 82.5159 186.72C79.0505 188.37 75.3647 187.919 72.0998 185.851C68.5686 183.614 64.645 182.535 60.6842 181.534C59.5386 181.244 58.2957 181.149 57.1158 181.23C54.5697 181.402 52.2901 180.675 50.1421 179.435C46.9574 177.6 43.7613 175.777 40.6453 173.824C38.0478 172.194 36.3237 169.749 35.0206 167.003C33.0187 162.781 31.4149 158.447 31.2173 153.699C31.1543 152.209 30.9911 150.725 30.9109 149.693V149.696ZM55.28 145.083C55.8184 147.044 57.3306 148.298 59.1892 148.243C61.005 148.189 62.7176 148.511 64.3357 149.339C65.5071 149.937 66.687 150.518 68.0731 151.214C68.8779 146.5 72.7642 144.108 75.7656 140.591C74.5857 140.274 73.7151 139.883 72.8215 139.826C70.0091 139.65 67.8096 141.123 65.865 142.897C64.2928 144.332 62.6632 144.838 60.6556 144.168C58.6995 143.515 56.9325 143.987 55.2771 145.083H55.28Z" fill="white"/>
<path d="M139.479 93.0811C139.597 87.0993 140.831 81.9083 143.603 77.166C144.448 75.7223 145.837 74.7388 147.59 74.4828C147.793 74.4541 148.028 74.4828 148.194 74.3937C152.058 72.2943 156.328 70.98 159.701 67.9201C163.453 64.515 167.798 62.0849 172.847 61.1416C175.59 60.6297 178.331 60.2098 181.149 60.7045C183.037 61.0352 185.116 60.762 186.831 61.4493C190.217 62.8068 193.733 64.2131 196.603 66.3844C201.011 69.7204 204.422 74.109 206.323 79.4408C207.343 82.2966 207.162 85.2875 206.784 88.2554C206.738 88.6264 206.75 89.0031 206.75 89.377C206.75 93.0006 206.718 96.6242 206.756 100.248C206.807 105.151 205.604 109.87 202.915 113.782C200.126 117.837 196.978 121.86 192.382 124.198C188.352 126.249 184.32 125.86 180.382 123.902C176.195 121.82 171.824 120.416 167.13 120.235C159.06 119.925 152.416 116.2 146.252 111.412C145.127 110.538 144.337 109.137 143.612 107.857C141.604 104.303 139.969 100.602 139.771 96.4171C139.711 95.1402 139.545 93.8691 139.471 93.0811H139.479ZM176.639 94.0992C177.595 90.0097 181.393 88.1547 184.323 85.1581C183.217 84.8906 182.375 84.557 181.513 84.5024C178.695 84.3212 176.39 85.6153 174.239 87.2603C172.861 88.3129 171.418 88.7932 169.662 88.2669C167.612 87.6515 165.618 87.8959 163.702 89.0894C164.745 90.5791 165.761 91.9825 167.898 91.7496C168.625 91.6691 169.422 91.6604 170.109 91.8704C172.24 92.5261 174.336 93.3026 176.639 94.0992Z" fill="white"/>
<path d="M174.207 30.4244C182.051 29.5588 190.174 28.7276 197.978 30.3669C201.744 31.1578 205.364 32.5641 208.548 34.7555C211.516 36.8002 214.01 39.4604 216.281 42.2443C220.875 47.8723 224.727 54.2683 230.521 58.7834C232.113 60.0258 233.823 61.1244 235.34 62.4645C236.858 63.8047 238.05 65.4439 238.892 67.3334C239.734 69.2228 240.321 71.397 240.859 73.4676C241.432 75.6734 241.919 77.9051 242.311 80.1512C243.875 89.0463 244.01 98.2318 242.684 107.167C242.52 108.271 242.334 109.37 242.128 110.466C242.056 110.848 242.234 111.242 242.629 111.352C242.979 111.449 243.437 111.234 243.511 110.848C245.224 101.746 245.464 92.4053 244.23 83.2255C243.62 78.6931 242.675 74.1809 241.317 69.8124C240.679 67.759 239.888 65.6999 238.628 63.9427C237.368 62.1856 235.804 60.9231 234.135 59.6864C232.465 58.4498 230.939 57.3685 229.478 56.0226C228.138 54.7859 226.898 53.4487 225.718 52.0596C223.309 49.224 221.158 46.1813 218.887 43.2393C216.645 40.3375 214.265 37.5048 211.435 35.1581C208.414 32.6532 204.94 30.8242 201.185 29.6997C193.413 27.3673 185.087 27.8678 177.123 28.6787C176.152 28.7765 175.181 28.8829 174.21 28.9893C173.826 29.0325 173.494 29.2884 173.494 29.7083C173.494 30.0649 173.823 30.4704 174.21 30.4273L174.207 30.4244Z" fill="#FF9900"/>
<path d="M51.3936 111.645C49.5035 115.263 46.0152 117.506 42.61 119.522C39.01 121.653 35.1724 123.701 32.4631 126.988C29.2527 130.884 27.8551 135.886 27.2852 140.826C26.678 146.075 26.9529 151.424 27.9925 156.603C29.0293 161.771 30.8679 166.79 33.4283 171.394C33.7519 171.975 34.087 172.547 34.4306 173.114C34.9118 173.902 36.149 173.18 35.6678 172.389C32.9643 167.952 30.9825 163.103 29.7739 158.047C28.5711 153.017 28.1501 147.806 28.5424 142.647C28.909 137.835 29.9887 132.866 32.8125 128.871C35.2354 125.446 38.9413 123.341 42.4783 121.265C46.0152 119.188 49.5693 117.069 51.8691 113.646C52.144 113.235 52.396 112.81 52.6251 112.372C53.0519 111.553 51.8175 110.825 51.3879 111.648L51.3936 111.645Z" fill="#FF9900"/>
</g>
</g>
</svg>
