<svg width="250" height="250" viewBox="0 0 250 250" fill="none" xmlns="http://www.w3.org/2000/svg">
<g id="Group 22">
<rect id="image 19" width="250" height="250" fill="#BE6A14"/>
<g id="ucuuba">
<path d="M96.9137 36.2083C99.142 39.8522 101.254 43.5701 103.624 47.1207C106.963 52.123 110.477 57.0094 113.965 61.912C114.21 62.2564 114.83 62.4914 115.289 62.5107C117.988 62.633 120.691 62.6298 123.391 62.765C125.458 62.868 127.524 63.074 129.582 63.3154C130.537 63.4281 131.619 63.515 132.381 64.0107C134.364 65.2983 136.357 64.8412 138.381 64.4099C141.724 63.6953 145.047 62.8648 148.405 62.2371C150.359 61.8733 152.364 61.7928 154.35 61.6126C158.991 61.1941 163.59 61.5257 168.185 62.2821C176.936 63.7242 184.961 67.0495 192.434 71.672C200.604 76.729 208.044 82.8097 215.607 88.7069C219.389 91.6555 223.261 94.4882 226.959 97.5366C228.48 98.7888 229.668 100.453 230.969 101.959C235.335 107.013 239.621 112.135 245.023 116.181C247.487 118.029 247.387 118.512 246.15 121.463C246.037 121.737 245.789 121.978 245.753 122.252C245.579 123.578 244.994 123.52 244.032 122.909C243.564 122.613 242.915 122.59 242.34 122.471C239.178 121.827 236.753 119.87 234.279 117.993C226.791 112.315 218.698 107.718 209.898 104.345C206.375 102.993 203.039 101.135 199.487 99.8671C193.222 97.6332 186.825 95.7822 180.547 93.5837C173.187 91.0053 165.844 88.356 158.587 85.5008C152.071 82.9384 145.618 80.183 139.257 77.2601C136.305 75.9049 133.644 73.9285 130.831 72.2642C127.156 70.0882 123.1 69.0807 118.918 68.4787C118.398 68.4047 117.875 68.3371 117.058 68.2276C120.946 76.9189 120.885 86.3216 123.956 95.0129C125.086 94.823 126.023 94.3755 126.475 93.207C127.172 91.4076 128.49 90.3035 130.363 89.8786C134.199 89.003 138.036 88.1243 141.885 87.3066C143.119 87.0427 144.391 86.8914 145.651 86.8173C150.133 86.5469 154.376 87.8571 158.645 88.9129C165.03 90.4934 171.298 92.4667 177.162 95.4925C184.683 99.3682 192.247 103.144 200.142 106.215C203.178 107.393 206.336 108.282 209.31 109.595C214.39 111.839 218.775 115.193 223.19 118.524C225.822 120.511 227.663 122.97 229.255 125.774C230.569 128.088 232.31 130.171 233.55 132.517C234.082 133.525 234.04 134.97 233.879 136.165C233.705 137.452 232.548 137.983 230.969 137.603C228.557 137.024 226.19 136.251 223.784 135.633C222.315 135.257 220.771 135.141 219.331 134.69C216.676 133.857 214.077 132.846 211.445 131.935C206.73 130.303 202.69 127.435 198.54 124.805C195.544 122.906 192.434 121.389 189.111 120.144C185.181 118.669 181.354 116.889 177.556 115.087C174.434 113.606 171.304 112.334 167.794 112.067C163.292 111.726 159.004 110.361 154.735 108.993C149.807 107.412 144.924 105.697 139.99 104.132C137.093 103.215 134.138 102.491 131.212 101.667C130.68 101.519 130.053 101.441 129.662 101.106C128.232 99.8768 126.924 100.376 125.493 101.316C126.882 105.227 128.27 109.209 129.714 113.168C130.105 114.24 130.608 115.283 131.161 116.281C131.364 116.651 131.865 116.857 132.414 117.285C132.914 114.394 133.951 112.299 136.731 111.678C137.513 111.504 138.339 111.382 139.134 111.423C142.15 111.575 145.163 111.774 148.176 112.006C150.459 112.183 152.739 112.415 155.016 112.653C157.199 112.882 159.382 113.126 161.558 113.403C163.864 113.696 166.154 114.118 168.463 114.343C173.158 114.797 177.563 116.255 181.926 117.929C187.138 119.928 191.733 122.947 196.257 126.144C198.402 127.657 200.846 128.751 202.984 130.271C207.237 133.293 211.396 136.448 215.091 140.175C218.872 143.99 222.786 147.676 226.581 151.481C227.621 152.524 228.457 153.772 229.348 154.954C229.565 155.24 229.694 155.643 229.733 156.006C230.001 158.617 229.054 159.518 226.503 158.807C224.388 158.215 222.344 157.362 220.3 156.547C217.148 155.289 213.944 154.123 210.912 152.623C206.42 150.399 202.064 147.898 197.633 145.554C194.817 144.064 191.92 142.715 189.133 141.173C184.344 138.518 179.704 135.579 174.828 133.1C170.516 130.908 165.84 129.611 161.003 129.044C157.631 128.648 154.26 128.249 150.882 127.937C149.506 127.811 148.111 127.882 146.726 127.914C142.599 128.008 139.066 126.752 136.224 123.643C135.42 122.761 134.306 122.159 133.215 121.534C135.607 129.121 140.351 135.424 144.055 142.281C145.883 141.415 147.582 140.452 149.387 139.783C155.377 137.558 160.929 138.038 165.918 142.448C167.975 144.264 169.9 146.095 170.316 148.899C170.539 150.389 170.355 151.944 170.355 153.608C171.934 153.402 173.361 153.335 174.731 153.01C179.016 151.996 182.261 154.014 185.242 156.599C187.432 158.498 189.288 160.693 190.08 163.623C191.3 168.139 189.841 172.072 186.821 175.16C185.145 176.872 182.404 177.548 180.146 178.697C179.84 178.855 179.549 179.045 179.249 179.222C179.455 179.524 179.662 179.827 179.872 180.126C179.894 180.159 179.943 180.175 179.975 180.2C183.043 182.428 183.527 183.893 182.368 187.479C181.154 191.235 178.218 192.967 174.233 192.317C171.773 191.914 169.305 191.554 166.835 191.193C166.69 191.171 166.522 191.309 166.386 191.367C166.386 193.608 166.699 195.887 166.315 198.04C165.702 201.478 164.032 204.494 160.331 205.425C156.256 206.448 150.181 205.199 148.286 199.611C146.064 200.078 143.842 200.606 141.598 201.002C139.405 201.388 137.658 200.242 135.969 199.083C132.759 196.878 131.626 193.698 131.797 189.816C130.579 189.816 129.394 189.909 128.225 189.796C126.249 189.606 124.583 188.654 123.197 187.279C119.322 183.442 117.526 178.803 118.008 173.354C118.063 172.736 118.373 172.14 118.524 171.654C116.377 170.852 114.226 170.054 112.211 169.304C116.312 175.504 113.661 186.326 108.065 190.459C109.938 193.292 109.818 196.386 108.927 199.453C108.304 201.594 107.461 203.693 106.489 205.701C104.432 209.95 101.687 210.469 97.4336 210.234C96.594 210.189 95.7705 209.954 94.9309 209.876C91.5401 209.564 89.5089 207.43 88.0073 204.671C86.2279 201.404 85.2882 197.921 85.6176 194.161C85.8146 191.898 87.074 190.147 88.3819 188.415C89.1956 187.337 90.0191 186.259 90.7425 185.122C90.9266 184.833 90.9104 184.218 90.7231 183.915C88.5369 180.39 88.1623 176.621 88.6499 172.559C89.3862 166.404 93.3163 163.143 98.5671 160.941C99.2259 160.664 99.5941 160.33 99.959 159.708C102.203 155.907 102.62 151.638 103.156 147.418C103.708 143.089 105.126 139.026 106.67 134.993C109.547 127.483 113.474 120.601 118.844 114.555C119.661 113.638 120.213 112.489 120.888 111.446C120.811 111.317 120.73 111.192 120.652 111.063C118.708 111.063 116.755 110.944 114.83 111.134C114.245 111.192 113.545 112 113.241 112.627C112.092 115.009 109.783 115.579 107.622 116.155C103.786 117.176 99.8976 118.029 95.9901 118.727C93.3292 119.204 90.5649 119.12 87.9039 119.593C81.878 120.668 75.8908 121.959 69.8811 123.108C65.6959 123.907 61.4493 124.418 57.3126 125.413C51.5224 126.804 45.8226 128.565 40.0648 130.094C34.0614 131.687 28.0743 133.37 22.0096 134.69C16.5488 135.878 11.3722 134.487 6.59283 131.777C5.71122 131.275 5.14932 130.084 4.62294 129.112C3.43132 126.91 4.20313 124.834 4.91358 122.606C6.41199 117.897 9.74142 114.977 13.7329 112.486C21.0828 107.895 29.2271 105.449 37.562 103.46C46.2424 101.387 54.8873 99.1397 63.6065 97.2533C68.5926 96.175 73.6981 95.0226 78.7488 95.0226C88.0299 95.0226 97.0946 96.6868 105.681 100.601C109.421 102.307 113.483 103.308 117.404 104.615C117.707 104.715 118.043 104.718 118.657 104.808C117.507 100.45 116.425 96.2619 115.292 92.0901C114.691 89.8754 114.652 89.8883 112.363 89.8883C111.355 89.8883 110.348 89.8883 109.234 89.8883C108.772 91.5139 107.409 92.177 105.694 92.4441C103.195 92.8336 100.718 93.3841 98.2119 93.7028C96.4487 93.9249 94.65 93.9345 92.8674 93.9313C91.1688 93.9313 89.4701 93.7639 87.7683 93.7156C81.4647 93.5386 75.1578 93.1942 68.8574 93.2746C64.5559 93.3326 60.2577 93.9828 55.9627 94.3916C52.8367 94.6878 49.7237 95.1771 46.5912 95.3091C41.6536 95.5183 36.9129 96.6288 32.1368 97.7716C29.1109 98.4926 25.9235 98.5313 22.8105 98.9015C20.7986 99.1429 18.7964 99.4744 16.7846 99.6901C13.862 100.006 10.9201 100.121 8.06217 99.3038C7.25161 99.0721 6.4572 98.4862 5.85654 97.8682C4.84577 96.8316 4.81347 95.7243 5.6208 94.7972C10.5455 89.1479 16.3712 84.6703 23.3595 81.8826C29.8924 79.2752 36.4996 76.8223 43.4555 75.5283C48.0767 74.6688 52.7334 74.4113 57.4127 75.1002C58.5042 75.2611 59.6118 75.3513 60.713 75.377C65.444 75.48 70.1846 75.7214 74.9091 75.583C81.3096 75.3931 87.4906 76.4554 93.6166 78.1067C97.9407 79.272 102.142 80.7399 105.865 83.2893C106.863 83.9717 107.658 84.9503 108.578 85.7551C108.872 86.0094 109.266 86.283 109.628 86.2991C110.945 86.3635 112.269 86.3248 113.81 86.3248C111.817 74.8942 107.884 64.2586 102.72 53.8387C100.854 56.1886 99.058 58.458 97.2496 60.7177C95.8481 62.4688 94.5854 64.3616 92.9869 65.9099C91.0557 67.7802 88.3754 68.2437 85.8307 68.6815C82.5465 69.248 79.2235 69.7534 75.9005 69.9112C71.4828 70.1204 67.0425 69.9047 62.6151 69.9884C57.6419 70.0818 52.7043 70.5839 47.9411 72.1033C42.0508 73.9832 36.1702 75.8985 30.3122 77.8814C28.0291 78.654 25.859 79.7613 23.5726 80.5274C21.6931 81.1583 19.9202 80.4341 18.6027 79.1432C17.0268 77.5981 18.3185 75.0036 19.9913 73.6034C21.48 72.3544 23.0591 71.1279 24.7836 70.2653C31.7299 66.7952 38.7246 63.4152 45.7548 60.1125C49.3232 58.4354 52.8948 56.6167 56.657 55.5319C62.4601 53.8612 68.3988 52.6026 74.344 51.5178C76.6756 51.0929 79.1783 51.5886 81.6035 51.7174C82.9114 51.7882 84.2128 52.0361 85.5207 52.0908C88.4142 52.2131 91.3076 52.3 94.2011 52.3161C94.7146 52.3161 95.3507 52.0264 95.7189 51.6594C97.0978 50.2785 98.3895 48.8106 99.8169 47.2591C98.2216 43.6956 96.5456 39.9584 94.8696 36.2179C95.5542 36.2179 96.2388 36.2179 96.9202 36.2179L96.9137 36.2083ZM144.927 161.843C145.053 162.071 145.176 162.3 145.302 162.531C144.188 161.717 142.835 161.096 142.008 160.056C139.502 156.905 139.073 153.151 139.418 149.263C139.502 148.313 140.003 147.17 139.641 146.459C138.743 144.701 137.555 143.063 136.305 141.521C132.033 136.242 128.39 130.567 125.425 124.467C124.395 122.345 123.517 120.153 122.493 117.816C121.886 118.975 121.327 119.922 120.882 120.919C119.706 123.546 118.654 126.228 117.413 128.822C116.403 130.94 117.174 131.5 118.792 132.421C119.632 132.897 120.585 133.358 121.163 134.082C123.352 136.834 124.667 139.957 124.657 143.543C124.657 143.99 124.657 144.437 124.657 144.518C126.791 145.094 128.69 145.487 130.492 146.14C131.542 146.52 132.481 147.254 133.399 147.93C137.451 150.914 138.046 152.707 137.332 157.159C137.048 158.929 136.431 160.645 136.027 162.148C138.075 163.793 140.07 165.396 142.018 166.964C142.324 166.275 142.664 165.332 143.148 164.472C143.668 163.555 144.33 162.718 144.927 161.846V161.843ZM46.8883 108.797C46.2683 108.913 45.7774 109.016 45.2833 109.093C39.4609 110.007 33.8838 111.835 28.2745 113.564C23.6759 114.984 19.5682 117.362 15.5187 119.854C13.3583 121.183 11.2269 122.574 9.17306 124.061C7.53579 125.249 7.65205 125.957 9.38619 127.061C11.6338 128.487 14.1075 129.215 16.7426 129.269C22.1485 129.385 26.4628 126.517 30.7934 123.862C32.4888 122.822 33.7966 121.167 35.4436 120.025C39.8452 116.97 43.7365 113.426 46.8883 108.793V108.797ZM131.719 97.0377C135.54 98.3413 139.047 99.5903 142.586 100.74C149.474 102.97 156.398 105.04 163.651 105.838C167.626 106.276 171.576 107.004 175.506 107.754C179.029 108.426 182.51 109.305 186.156 110.126C185.975 109.891 185.92 109.753 185.82 109.701C180.259 106.759 174.789 103.627 169.099 100.965C165.595 99.3264 161.781 98.3027 158.054 97.1857C153.963 95.9593 149.829 94.794 145.486 94.8874C142.676 94.9453 139.864 95.1063 137.054 95.0805C135.152 95.0644 133.537 95.6277 131.719 97.0441V97.0377ZM104.212 87.3195C104.248 87.1521 104.286 86.9847 104.322 86.8173C102.565 86.18 100.844 85.401 99.0418 84.9407C95.9772 84.1584 92.8351 83.6885 89.7769 82.8869C86.8447 82.1176 83.9189 81.4674 80.8769 81.5768C77.6476 81.6959 74.4054 81.7506 71.1954 82.0758C69.5129 82.2464 67.8692 82.903 66.2319 83.4116C65.4117 83.6659 65.4827 84.1713 66.0253 84.7507C67.3977 86.2186 69.2029 86.8753 71.0662 87.268C77.16 88.5556 83.3667 87.9343 89.5218 88.1468C92.5735 88.253 95.6446 87.9311 98.7028 87.7573C100.54 87.6543 102.375 87.4644 104.209 87.3131L104.212 87.3195ZM135.992 117.636C136.744 118.254 137.235 118.953 137.874 119.133C139.893 119.706 141.95 120.311 144.026 120.494C148.467 120.887 152.933 120.987 157.386 121.273C161.284 121.525 165.211 121.64 169.06 122.23C173.578 122.922 178.044 124.045 182.145 126.166C188.226 129.311 194.255 132.556 200.32 135.733C201.124 136.155 202.006 136.435 202.852 136.783C202.771 136.338 202.567 136.142 202.338 135.991C199.496 134.124 196.574 132.369 193.819 130.383C186.621 125.185 178.68 121.731 169.98 120.025C166.292 119.3 162.556 118.817 158.859 118.148C155.623 117.562 152.432 116.625 149.174 116.29C144.853 115.846 140.571 116.6 135.992 117.636ZM163.551 195.732C163.67 191.016 161.562 189.445 157.857 188.773C155.561 188.357 153.947 189.31 153.278 191.541C152.736 193.347 152.319 195.191 151.683 196.962C151.428 197.673 151.476 198.169 151.912 198.677C152.878 199.801 153.869 200.905 154.845 202.022C155.161 202.386 155.442 203.055 155.775 203.081C157.325 203.197 158.933 203.406 160.341 202.428C162.663 200.815 163.683 198.578 163.548 195.735L163.551 195.732ZM154.554 157.835C151.667 157.835 150.763 158.537 150.262 161.086C149.494 165.007 150.007 165.927 153.743 167.347C154.018 167.453 154.38 167.543 154.522 167.756C155.135 168.68 155.93 168.387 156.76 168.223C157.577 168.062 158.539 168.219 159.217 167.843C161.061 166.826 161.888 163.471 160.757 161.624C159.34 159.306 157.392 157.703 154.554 157.832V157.835ZM94.2205 54.9299C83.7478 57.724 73.1491 59.0181 62.8315 62.7875C66.4612 62.7875 69.8262 63.235 73.0232 62.6877C78.2192 61.7961 83.3215 60.3282 88.4271 58.9601C90.7199 58.3453 92.6155 56.9547 94.2237 54.9332L94.2205 54.9299ZM106.576 177.194C106.363 174.149 103.285 171.358 100.292 171.615C99.129 171.715 97.5854 173.254 97.8147 174.277C98.4025 176.92 99.4035 179.373 101.793 180.96C103.389 182.022 104.541 181.791 105.481 180.104C105.982 179.209 106.217 178.166 106.576 177.191V177.194ZM110.9 148.085C111.026 148.188 111.152 148.291 111.278 148.394C111.998 148.133 112.754 147.943 113.428 147.595C114.93 146.823 116.412 146.002 117.856 145.126C118.163 144.94 118.447 144.428 118.44 144.07C118.392 141.772 116.306 138.086 114.268 136.644C113.138 140.478 112.02 144.283 110.9 148.085ZM216.418 101.013C209.43 95.2447 201.227 92.2993 193.406 88.6361C199.719 95.0676 207.941 97.9808 216.418 101.013ZM133.121 167.685C134.913 169.15 136.069 171.091 136.676 173.241C137.277 175.369 137.487 177.606 137.868 179.798C138.449 178.575 138.982 177.278 139.121 175.942C139.476 172.581 139.634 169.266 136.373 166.896C134.451 165.499 134.112 165.474 133.124 167.688L133.121 167.685ZM96.5876 206.435C92.3475 202.267 89.1795 197.786 88.6047 191.818C88.1332 193.041 87.694 194.238 87.7747 195.401C87.9685 198.214 89.031 200.789 90.426 203.236C91.7371 205.531 93.7199 206.532 96.5876 206.439V206.435ZM166.803 160.748C167.423 161.398 168.072 162.01 168.637 162.689C170.933 165.451 171.727 168.651 171.388 172.182C171.311 172.977 171.13 173.94 172.483 173.84C173.642 170.376 172.06 164.579 168.534 159.425C167.933 159.885 167.332 160.342 166.799 160.748H166.803ZM153.727 184.675C148.512 184.559 145.002 182.08 142.932 177.281C142.421 180.136 143.8 182.454 146.894 184.324C149.413 185.847 151.983 186.04 153.727 184.675ZM174.178 155.041C173.171 155.041 172.16 154.996 171.159 155.067C170.846 155.089 170.397 155.353 170.277 155.623C169.883 156.512 169.609 157.455 169.263 158.446C171.634 158.298 172.667 156.367 174.178 155.041Z" fill="white"/>
<path d="M105.271 35.2039C107.78 40.6634 111.817 45.3277 116.697 48.8203C121.583 52.3161 127.334 54.5823 133.308 55.2969C140.687 56.1757 147.818 53.9964 155.048 52.9213C161.804 51.917 168.753 52.152 175.438 53.5329C182.136 54.9139 188.585 57.4215 194.413 60.9849C195.137 61.4259 195.847 61.883 196.548 62.3562C197.413 62.9356 198.221 61.5418 197.362 60.9656C191.688 57.1511 185.339 54.3409 178.712 52.638C172.112 50.9416 165.211 50.3332 158.419 50.9159C151.031 51.5532 143.833 54.0801 136.373 53.9063C130.483 53.7679 124.696 51.9363 119.684 48.8718C114.688 45.817 110.451 41.5067 107.648 36.3628C107.296 35.7158 106.97 35.0591 106.663 34.3927C106.482 33.9968 105.907 33.9002 105.559 34.103C105.152 34.3412 105.087 34.808 105.268 35.2039H105.271Z" fill="#FFA417"/>
<path d="M94.7243 155.788C92.1246 155.514 89.8318 156.979 88.1558 158.833C86.2602 160.932 84.9233 163.481 83.6218 165.969C82.146 168.792 80.8608 171.757 80.4765 174.944C80.1342 177.786 80.5734 180.851 82.146 183.291C82.4851 183.819 83.0115 184.295 83.2634 184.871C83.5153 185.447 82.9211 186.056 82.5885 186.494C81.7488 187.604 81.0158 188.792 80.399 190.034C79.1331 192.581 78.329 195.333 78.0706 198.162C77.5798 203.525 79.3107 209.007 83.3635 212.674C87.0255 215.986 92.2248 217.792 97.1333 216.672C97.7211 216.536 98.2991 216.356 98.861 216.137C99.2679 215.98 99.5489 215.597 99.4261 215.146C99.3196 214.76 98.8416 214.425 98.4315 214.583C94.0752 216.285 89.2118 215.123 85.5433 212.397C83.7123 211.035 82.1977 209.233 81.1934 207.189C80.0599 204.881 79.569 202.286 79.6013 199.724C79.6336 197.161 80.2214 194.467 81.2418 192.04C81.7521 190.823 82.3882 189.648 83.1116 188.544C83.835 187.44 85.1622 186.259 84.9103 184.797C84.7876 184.089 84.3226 183.558 83.9028 183.004C83.5088 182.479 83.173 181.91 82.8985 181.314C82.3527 180.136 82.0782 178.82 82.004 177.525C81.8393 174.641 82.6466 171.825 83.8221 169.214C84.4647 167.788 85.201 166.41 85.9502 165.039C86.5702 163.909 87.1999 162.782 87.9298 161.72C89.1795 159.901 90.8491 157.97 93.1031 157.465C93.6327 157.346 94.1753 157.339 94.7243 157.397C95.157 157.442 95.5316 156.995 95.5316 156.592C95.5316 156.119 95.1602 155.833 94.7243 155.788Z" fill="#FFA417"/>
</g>
</g>
</svg>
